<?xml version="1.0" encoding="UTF-8" standalone="no"?>
<!-- Created with Inkscape (http://www.inkscape.org/) -->

<svg
   width="210mm"
   height="297mm"
   viewBox="0 0 210 297"
   version="1.1"
   id="svg3444"
   inkscape:version="1.1.1 (3bf5ae0d25, 2021-09-20)"
   sodipodi:docname="austrianempire.svg"
   xmlns:inkscape="http://www.inkscape.org/namespaces/inkscape"
   xmlns:sodipodi="http://sodipodi.sourceforge.net/DTD/sodipodi-0.dtd"
   xmlns="http://www.w3.org/2000/svg"
   xmlns:svg="http://www.w3.org/2000/svg">
  <sodipodi:namedview
     id="namedview3446"
     pagecolor="#ffffff"
     bordercolor="#666666"
     borderopacity="1.0"
     inkscape:pageshadow="2"
     inkscape:pageopacity="0.0"
     inkscape:pagecheckerboard="0"
     inkscape:document-units="mm"
     showgrid="false"
     inkscape:zoom="0.7500982"
     inkscape:cx="397.28131"
     inkscape:cy="561.92642"
     inkscape:window-width="1920"
     inkscape:window-height="1027"
     inkscape:window-x="1912"
     inkscape:window-y="-8"
     inkscape:window-maximized="1"
     inkscape:current-layer="layer1" />
  <defs
     id="defs3441" />
  <g
     inkscape:label="Ebene 1"
     inkscape:groupmode="layer"
     id="layer1">
    <g
       id="g5391"
       transform="matrix(0.26458333,0,0,0.26458333,-107.40681,-133.15989)">
      <g
         id="g343">
        <path
           id="path4453"
           fill="#ffd42a"
           d="m 913.574,767.75 c -0.035,0.004 -0.064,0.023 -0.094,0.027 -0.281,0.082 -0.486,0.266 -0.639,0.535 -0.035,0.062 -0.076,0.117 -0.1,0.188 -0.088,0.191 -0.135,0.508 -0.193,0.766 -0.129,0.598 -0.234,1.227 -0.381,2.168 -0.006,0 -0.012,-0.004 -0.023,-0.012 -0.023,0.129 -0.047,0.23 -0.076,0.387 -0.721,4.348 1.031,2.961 -4.406,4.406 -5.432,1.453 -2.514,-2.523 -4.688,2.906 -1.629,4.078 -2.033,2.016 -4.424,1.344 -0.381,-0.105 -0.82,-0.176 -1.33,-0.184 -0.533,0 -1.137,0.059 -1.84,0.246 -2.713,0.727 -3.521,0.559 -4.154,0.746 -0.627,0.191 -1.066,0.738 -3.064,2.91 -0.762,0.84 -1.131,1.348 -1.406,1.781 -0.006,0 -0.018,0 -0.029,-0.004 -0.029,0.047 -0.129,0.152 -0.158,0.191 -0.322,-0.227 -0.551,-0.34 -0.75,-0.375 -0.398,-0.062 -0.744,-0.086 -1.078,-0.086 h -0.006 c -0.293,0.004 -0.551,0.039 -0.803,0.082 -0.029,0.004 -0.07,0.004 -0.105,0.012 -0.182,0.039 -0.363,0.094 -0.533,0.152 -0.094,0.035 -0.188,0.07 -0.275,0.109 0,0.008 -0.006,0.012 -0.012,0.012 -0.023,0.012 -0.059,0.023 -0.094,0.035 -0.088,0.043 -0.182,0.094 -0.27,0.148 -0.029,0.035 -0.059,0.07 -0.105,0.105 -0.158,0.098 -0.316,0.156 -0.469,0.281 l -0.094,0.188 c -0.586,0.504 -1.137,1.066 -1.969,1.688 -0.205,0.152 -0.416,0.273 -0.656,0.375 h -0.188 c -0.023,0.004 -0.064,-0.012 -0.094,0 -0.305,0.098 -0.639,0.156 -0.984,0.191 -0.346,0.031 -0.709,0.023 -1.078,-0.004 -0.088,-0.012 -0.188,0.004 -0.281,0 h -0.094 c -0.773,-0.105 -1.582,-0.293 -2.385,-0.457 -0.088,-0.023 -0.176,-0.035 -0.27,-0.055 -0.428,-0.094 -0.85,-0.168 -1.266,-0.234 -0.428,-0.059 -0.838,-0.105 -1.236,-0.105 -0.258,0 -0.457,0.043 -0.656,0.094 -0.229,0.066 -0.393,0.172 -0.562,0.281 -0.029,0.023 -0.059,0.035 -0.094,0.047 -0.094,0.07 -0.176,0.148 -0.252,0.23 -0.129,0.133 -0.223,0.281 -0.316,0.426 -0.1,0.148 -0.193,0.289 -0.27,0.43 -0.064,0.129 -0.123,0.258 -0.188,0.367 -0.111,0.184 -0.258,0.305 -0.404,0.406 -0.24,0.191 -0.533,0.27 -1.002,0.062 -0.27,-0.109 -0.41,-0.223 -0.562,-0.375 -0.07,-0.051 -0.111,-0.094 -0.152,-0.152 -0.023,-0.023 -0.059,-0.039 -0.07,-0.07 -0.023,-0.016 -0.047,-0.035 -0.059,-0.059 -0.105,-0.188 -0.199,-0.414 -0.188,-0.656 0,-0.023 -0.006,-0.062 0,-0.094 0.018,-0.258 0.164,-0.621 0.281,-0.938 0.1,-0.273 0.217,-0.613 0.375,-0.938 0.041,-0.086 0.141,-0.188 0.188,-0.273 0.223,-0.453 0.48,-0.973 0.75,-1.5 0.328,-0.668 0.516,-1.266 0.586,-1.816 0.064,-0.551 0.023,-1.055 -0.105,-1.535 -0.135,-0.48 -0.34,-0.934 -0.604,-1.391 -0.264,-0.449 -0.58,-0.891 -0.908,-1.359 -0.322,-0.445 -0.633,-0.859 -0.961,-1.211 -0.334,-0.348 -0.686,-0.633 -1.084,-0.809 -0.006,0 -0.006,0.004 -0.006,0 -0.809,-0.348 -1.822,-0.27 -3.299,0.52 -0.1,0.059 -0.17,0.129 -0.275,0.188 -0.398,0.234 -0.727,0.371 -1.031,0.469 -0.117,0.043 -0.217,0.059 -0.316,0.078 -0.152,0.047 -0.311,0.109 -0.434,0.109 h -0.094 c -0.029,0 -0.07,0.008 -0.094,0 -0.193,-0.016 -0.322,-0.105 -0.469,-0.188 -0.053,-0.023 -0.094,-0.07 -0.141,-0.105 -0.029,-0.016 -0.053,-0.035 -0.076,-0.059 -0.059,-0.039 -0.117,-0.07 -0.158,-0.117 -0.064,-0.062 -0.111,-0.152 -0.158,-0.234 -0.041,-0.047 -0.088,-0.082 -0.123,-0.141 -0.457,-0.668 -0.826,-1.617 -1.406,-2.438 -0.393,-0.543 -0.703,-0.668 -0.99,-0.543 -0.111,0.051 -0.217,0.129 -0.322,0.25 -0.07,0.082 -0.135,0.172 -0.199,0.27 -0.064,0.102 -0.129,0.23 -0.188,0.34 -0.457,0.844 -0.932,2.129 -1.676,3.621 -0.229,0.453 -0.439,0.816 -0.656,1.207 v 0.012 c -0.018,0.035 -0.041,0.066 -0.059,0.094 -1.295,2.34 -2.496,3.91 -4.066,6.383 -1.395,2.184 -3.861,3.672 -6.352,6.18 -0.832,0.832 -1.67,1.781 -2.461,2.914 0,0 -3.691,0.531 -5.812,3.188 -0.088,0.105 -0.188,0.176 -0.281,0.281 -1.6,1.715 -4.166,2.379 -6.727,3.867 -0.053,0.027 -0.1,0.047 -0.146,0.074 -0.457,0.27 -0.92,0.57 -1.365,0.91 -0.451,0.34 -0.896,0.715 -1.324,1.148 -2.191,0.086 -4.072,0.262 -5.812,0.469 0.041,-0.152 0.006,-0.281 -0.07,-0.395 -0.023,-0.027 -0.041,-0.047 -0.064,-0.07 -0.07,-0.07 -0.176,-0.117 -0.287,-0.156 -0.135,-0.047 -0.299,-0.07 -0.48,-0.078 -0.105,-0.004 -0.193,-0.023 -0.305,-0.012 -0.334,0.023 -0.715,0.09 -1.137,0.242 -1.857,0.66 -1.764,0.551 -3.75,-0.375 -1.992,-0.934 -0.803,1.691 -1.594,1.031 -0.797,-0.668 -5.139,-0.5 -7.125,-1.688 -1.992,-1.195 -3.961,0.152 -5.812,-0.375 -0.469,-0.137 -1.066,-0.137 -1.688,-0.094 -0.252,0.012 -0.498,0.059 -0.75,0.094 l -0.012,-0.02 c -0.029,0.008 -0.059,0.012 -0.082,0.02 l 1.125,0.844 v 5.719 0.273 l -1.031,-0.188 -0.75,2.25 -8.344,3.75 -1.5,-1.781 v 2.344 l -1.5,0.188 -1.875,0.281 -2.062,0.281 -1.125,-0.656 -2.344,-1.312 -0.375,0.938 -2.156,5.25 -2.062,-3.094 -4.875,-0.75 -0.281,-1.031 c -0.152,0.023 -0.211,0.082 -0.375,0.094 -0.562,0 -1.406,-0.281 -1.969,-0.844 -0.844,-0.844 -0.562,-2.25 -1.406,-3.094 -1.125,-0.844 -5.062,-1.125 -3.938,-1.969 3.656,-3.375 5.906,0.852 2.531,-5.906 0,-0.281 -0.562,-0.281 -0.844,0 -0.281,0.562 0,1.688 -0.562,1.969 -1.125,0.562 -2.531,0 -3.656,0 -1.125,0 -2.531,0.57 -3.656,0.281 -2.537,-0.844 -7.312,-5.062 -11.531,-4.5 -1.693,0.281 4.5,6.469 4.219,7.031 -0.844,1.695 -3.656,1.125 -5.062,2.25 -0.844,0.844 -0.562,2.812 -1.688,3.375 -4.225,1.695 -5.906,-5.625 -6.75,-6.75 l -6.469,-3.938 c -0.305,-1.961 2.602,-3.32 4.219,-4.688 -0.018,-0.047 0.018,-0.141 0,-0.188 -0.229,-0.602 -0.393,-1.27 -0.375,-2.062 -0.123,0.129 -0.252,0.234 -0.375,0.375 l 0.375,-0.844 c -0.023,0.176 0,0.312 0,0.469 0.217,-0.215 0.445,-0.398 0.656,-0.562 -0.146,-0.121 -0.369,-0.238 -0.562,-0.375 -0.387,-0.258 -0.814,-0.555 -1.406,-0.844 -0.604,-0.355 -2.08,0.078 -3.562,0.656 -0.006,0.031 0.006,0.07 0,0.094 -0.369,1.465 -0.926,1.301 -1.781,0.75 -0.996,0.48 -2.25,1.031 -2.25,1.031 -0.691,-0.684 -0.299,-1.703 -0.562,-2.531 -0.281,-0.039 -0.521,-0.105 -0.844,-0.188 -0.34,-0.082 -0.521,-0.25 -0.75,-0.375 -0.223,0.094 -0.428,0.207 -0.656,0.281 -0.281,0 -0.562,0.844 -1.125,0.562 -0.48,-0.715 -0.393,-1.785 -1.031,-2.625 -1.277,0.199 -2.549,0.094 -3.844,0.188 -2.537,0.184 -4.734,-1.301 -6,-0.938 -0.844,0.242 -1.195,-0.961 -1.5,-2.531 -0.275,-0.18 -0.562,-0.332 -0.844,-0.562 -3.1,-2.25 1.125,-4.5 -3.938,-5.062 -7.881,-1.406 1.969,7.055 -6.75,5.812 -0.568,1.125 -0.562,2.062 -1.406,2.062 -0.486,0.113 -1.043,-0.098 -1.594,-0.469 -1.043,-0.156 -2.227,-0.449 -1.875,-1.781 0.346,-1.328 0.756,-2.441 -0.281,-1.875 -0.352,0.195 -0.662,0.535 -0.938,0.469 -0.281,-0.059 -0.41,-0.352 -0.188,-1.406 0.217,-1.055 0.223,-1.34 -2.062,-1.875 -0.24,-0.051 -0.428,-0.062 -0.656,-0.094 -0.158,-0.152 -0.316,-0.379 -0.562,-0.375 -0.252,0.008 -0.428,0.34 -1.031,0.375 -0.609,0.035 -1.02,-0.961 -1.781,-1.219 -0.768,-0.258 -1.207,0.984 -1.688,2.344 -0.562,1.406 4.5,2.531 3.375,3.375 -3.381,2.812 -8.156,3.094 -11.531,5.062 -0.562,0.281 0,1.688 -0.562,1.969 -2.256,1.125 -5.344,-0.562 -7.031,0.844 -1.412,1.125 -0.844,3.375 -2.25,4.5 -0.562,0.562 -1.125,-1.406 -1.969,-1.125 -2.537,0.562 -2.906,3.938 -4.594,5.062 -0.85,0.844 -2.531,-0.555 -3.375,0.281 -0.85,0.562 0,2.25 -0.844,3.094 -1.131,1.406 -4.219,-1.125 -5.062,-1.125 -7.037,1.125 -8.156,6.469 -10.406,10.969 -0.562,1.125 -0.562,-2.812 -1.688,-3.656 -0.785,-1.035 -1.799,-2.812 -2.812,-2.062 -0.293,0.211 -0.287,0.434 -0.188,0.656 h -0.094 c 0,0.031 0,0.066 0,0.094 -0.029,0.816 -1.652,1.992 -1.125,2.344 0.539,0.363 0.592,0.816 1.5,2.625 0.896,1.816 1.969,5.438 1.969,5.438 l 0.281,0.375 c 0.58,-0.449 1.271,-0.973 2.062,-1.5 0.012,0.02 0.076,-0.012 0.088,0 0.896,0.938 1.805,1.781 2.812,2.438 0.568,0.281 2.531,0.656 2.812,2.344 0.85,3.945 -2.807,2.531 -3.375,5.625 0.334,0.266 0.662,0.504 0.938,0.75 l -1.869,1.969 1.406,1.594 2.062,-1.781 c 0.674,0.922 1.189,2.07 1.781,3.469 l -0.188,1.406 c 0,0 -2.145,0.137 -1.688,1.219 0.451,1.09 0.498,2.32 1.5,1.688 0.281,-0.18 1.125,-0.527 1.781,-0.844 0.322,0.82 0.615,1.512 1.031,2.531 1.242,0.09 2.186,0.301 3,1.875 0.199,0.395 -0.832,0.98 -0.375,1.312 1.746,1.309 4.242,-0.719 6.375,1.406 1.863,1.863 2.232,4.734 3.938,6.469 l 0.562,0.281 c 4.5,3.094 16.688,7.312 16.406,14.625 -0.281,7.602 -1.969,5.906 -7.875,4.5 -0.568,0 -1.125,0.281 -1.406,0.844 -0.568,2.812 1.125,5.906 -1.688,8.156 -2.537,1.969 -14.438,4.781 -14.719,9.281 0,0 6.75,9.281 6.75,9.562 0.281,0.281 -3.662,3.656 -2.25,4.781 3.094,2.812 6.188,-1.41 3.656,7.875 0,0.562 -0.562,1.406 -1.125,1.406 -9.006,-2.531 -1.969,-7.031 -6.188,-7.312 -2.256,0 -4.219,1.969 -6.469,1.688 -1.131,-0.281 -0.844,-2.25 -1.688,-2.531 -1.693,-0.562 -3.375,0.844 -4.781,0.281 -0.568,-0.281 0.562,-1.969 0,-1.969 -3.381,0.281 -0.281,4.781 -1.125,5.062 -3.943,1.125 -10.406,-0.562 -14.062,0.844 -1.131,0.562 -0.562,2.531 -1.688,3.094 -1.131,0.844 -2.531,-0.562 -3.656,0.281 -0.633,0.211 -0.135,1.043 -0.094,1.688 -1.43,-1.129 -2.883,-2.156 -3.75,-2.156 -1.922,0 -1.459,1.195 -3.375,0.938 -1.922,-0.258 -1.482,0.195 -2.25,1.219 -0.469,0.629 -1.418,0.41 -2.156,0.094 l -0.188,0.188 c -0.281,-0.562 -1.688,-0.562 -1.969,-1.125 -0.281,-0.563 1.406,-0.281 1.125,-0.844 -1.131,-3.656 -9,0.844 -11.25,-1.688 0,0 0.562,-0.281 0.562,-0.562 -1.693,-1.125 0,3.656 -0.562,5.625 0,1.125 -5.344,7.594 -7.312,5.625 -1.131,-1.125 1.969,-2.812 1.125,-3.938 -0.287,-0.281 -1.125,0.844 -1.688,0.844 -0.563,0 -1.406,-0.281 -1.688,-0.844 -0.562,-0.844 1.406,-1.969 0,-3.094 -1.131,-0.844 -1.688,-2.25 -2.812,-2.812 -0.85,-0.562 -1.969,0.844 -3.094,0.562 -0.562,-0.562 0,-1.969 -0.562,-2.531 -1.412,-1.125 -1.125,3.938 -5.625,2.531 l -1.031,0.188 c 0.252,1.801 3.516,2.449 2.438,5.156 -0.281,0.562 -1.406,0.281 -1.688,0.562 -0.387,0.645 -1.178,3.176 -1.875,5.719 l 4.688,6.75 c 1.746,0.207 4.061,0.469 4.219,0.469 0.023,0.031 -0.023,0.066 0,0.094 0.07,0.07 0.076,0.113 0.094,0.188 0,0.055 0.012,0.137 0,0.188 -0.006,0.031 0.006,0.066 0,0.094 -0.053,0.148 -0.193,0.23 -0.281,0.375 -0.018,0.031 0.012,0.07 0,0.094 -0.094,0.152 -0.152,0.328 -0.188,0.469 -0.012,0.023 0.006,0.07 0,0.094 -0.006,0.055 -0.018,0.137 0,0.188 0,0.031 -0.006,0.07 0,0.094 0.018,0.047 0.047,0.055 0.094,0.094 0.018,0.031 -0.029,0.066 0,0.094 0.334,0.406 0.75,0.691 1.125,1.031 1.154,1.066 2.455,1.898 3.938,2.531 0.252,0.129 0.516,0.211 0.75,0.281 0.58,0.172 1.131,0.219 1.594,0.094 0.158,-0.039 0.316,-0.117 0.469,-0.188 0.059,-0.027 0.123,-0.059 0.188,-0.094 0.205,-0.117 0.369,-0.297 0.562,-0.469 0.305,-0.27 0.568,-0.602 0.844,-0.938 0.111,-0.141 0.258,-0.234 0.375,-0.375 0.785,-1.055 1.482,-2.18 2.344,-2.719 0.088,-0.059 0.188,-0.145 0.275,-0.188 0.094,-0.039 0.188,-0.07 0.281,-0.094 0.07,-0.016 0.123,0.012 0.188,0 0.182,-0.023 0.363,-0.035 0.562,0 0.416,0 0.727,-0.004 1.031,0.094 0.287,0.09 0.498,0.254 0.75,0.375 l 0.188,-0.469 1.5,1.781 c -1.582,5.234 -3.809,10.812 -2.062,12.094 0.768,0.562 2.092,1.121 3.469,1.594 l -0.557,2.438 -0.094,0.281 h -0.188 l -0.656,-0.188 c -0.211,1.547 -0.029,2.578 1.969,3.375 2.713,1.09 2.303,2.016 1.219,3.281 -0.129,0.152 -0.299,0.223 -0.469,0.281 -0.176,0.066 -0.363,0.094 -0.562,0.094 -0.135,0 -0.328,0.02 -0.469,0 0.721,2.387 1.822,6.723 0.188,8.812 -2.309,2.949 -3.229,4.488 -1.688,6.281 1.535,1.793 0.006,3.879 1.031,5.156 1.02,1.285 -0.193,4.418 1.219,4.031 1.406,-0.379 2.648,-1.465 2.906,-3 0.252,-1.535 2.268,-1.035 3.938,-2.062 1.664,-1.023 2.42,1.207 1.781,3 -0.645,1.793 -0.352,3.281 2.344,3.281 2.689,0 4.541,-1.207 5.438,-3 0.897,-1.793 0.041,-4.996 0.938,-6.281 0.896,-1.277 1.529,1.066 2.812,-0.469 1.277,-1.535 3.486,-4.125 5.156,-4.125 1.664,0 1.729,2.449 2.625,0.656 0.896,-1.793 2.074,-4.516 4.125,-5.156 2.045,-0.637 2.865,-0.984 1.969,-2.906 -0.896,-1.922 -3.891,-2.711 -3.375,-5.531 0.51,-2.816 2.443,-4.855 3.469,-4.219 1.02,0.641 1.676,-1.445 3.469,-0.938 1.793,0.516 4.365,0.406 3.469,-0.75 -0.709,-0.906 -2.479,-2.102 -1.5,-3.469 0.68,0.234 1.406,0.57 2.062,0.844 1.834,-0.809 3.791,-2.008 5.344,-2.156 0.516,-0.047 1.002,0.055 1.406,0.281 1.91,1.098 9.814,2.715 12,2.438 2.186,-0.27 5.191,1.355 6.562,2.719 1.365,1.367 5.156,1.406 5.156,1.406 l 2.531,3.562 -2.719,3 0.469,3 c 0,0 2.754,-0.352 4.125,0.469 1.365,0.82 2.438,1.688 2.438,1.688 l -4.594,4.406 c 0,0 0.803,2.391 -0.281,4.031 -1.096,1.641 -3.844,1.406 -3.844,1.406 l -0.281,4.875 c 0.674,0.293 1.289,0.535 1.875,0.469 0.967,-0.105 2.977,-1.547 3.562,-2.062 -0.305,-0.121 -0.498,-0.281 -0.656,-0.469 -1.119,-1.199 0.662,-3.305 5.344,1.125 0.955,1.203 1.002,2.094 1.312,3.188 0.053,0.188 0.012,0.359 0.094,0.562 -1.33,-0.832 -1.781,0.562 -1.781,0.562 0,0 2.15,0.781 -0.094,1.406 -0.727,0.207 -1.365,0.621 -2.062,0.469 -0.568,-0.121 -0.363,0.711 -1.406,0.562 1.078,0.996 0.75,1.875 0.75,1.875 -0.316,-0.141 -0.645,-0.27 -0.938,-0.375 -0.832,-0.496 -0.902,-1.125 -1.406,-0.656 l -0.188,0.75 c 0,0 0.375,0.797 0.656,1.125 0.281,0.328 -0.281,1.031 0.375,1.875 0.656,0.844 0.469,2.109 0.469,2.625 0,0.516 0.375,0.703 0.938,0.656 0.563,-0.047 1.031,0 1.031,0 l -1.125,0.656 0.844,0.75 c 0,0 -0.516,-0.188 -0.562,0.375 -0.046,0.563 0.328,0 0.469,0.469 0.141,0.469 -0.375,1.922 -0.188,2.25 0.187,0.328 0.281,0.562 0.469,0.844 0.188,0.282 -0.188,0.141 0,0.75 0.188,0.609 0.188,0.422 0.656,0.375 0.468,-0.047 0.885,0.16 1.219,0.094 0.328,-0.062 0.732,-0.352 1.031,-0.281 0.293,0.066 0.75,0.281 0.75,0.281 0,0 -0.896,-0.191 -1.125,-0.094 -0.135,0.059 -0.422,0.059 -0.656,0.094 -0.176,0.031 -0.334,0.094 -0.469,0.094 -0.334,0 -0.592,-0.07 -0.656,0.094 -0.07,0.164 0.27,0.434 -0.094,0.469 -0.369,0.035 -0.451,0.117 -0.281,0.281 0.164,0.164 0.779,0.211 0.75,0.844 -0.035,0.629 -0.469,0.809 0.094,0.844 0.563,0.035 1.148,0.188 1.219,0.75 0.064,0.562 0.17,0.691 0.469,0.656 0.299,-0.035 -0.111,0.398 0.188,0.562 0.299,0.164 0.604,0.715 0.938,0.75 0.328,0.035 1.266,0.969 1.5,1.594 0.229,0.629 0.732,1.203 0.469,1.5 -0.27,0.301 -0.234,0.551 0,0.75 0.229,0.199 0.387,0.105 0.656,-0.094 0.264,-0.199 0.48,-0.047 0.281,0.281 -0.199,0.336 -0.475,0.527 -0.938,0.094 l -0.469,-0.375 c 0,0 -0.141,0.492 0.094,0.656 0.229,0.172 0.768,0.152 0.938,0.281 0.164,0.137 -0.012,0.551 0.088,0.75 0.1,0.199 0.252,0.141 0.281,0 0.029,-0.109 0.088,-0.285 0.094,-0.375 v 0.469 l 0.375,0.094 h -0.281 c 0,0 -0.029,0.164 0.094,0.281 0.129,0.117 0.375,0.188 0.375,0.188 v 0.094 c 0,0 -0.082,0.211 0.094,0.281 0.176,0.07 0.223,0.012 0.375,-0.094 0.152,-0.106 0.176,-0.141 0.375,-0.094 0.199,0.047 0.404,0.129 0.281,0.281 -0.117,0.152 -0.047,0.469 0,0.75 0.047,0.281 0.129,0.316 0.375,0.375 0.246,0.059 0.188,0 0.188,0 l -0.281,-0.281 c 0,0 0.094,0.012 0.094,-0.094 0,-0.106 -0.117,-0.246 -0.094,-0.375 0.029,-0.129 0.188,-0.012 0.188,-0.281 0,-0.269 0.047,-0.34 -0.188,-0.562 -0.235,-0.222 -0.293,-0.387 -0.188,-0.469 0.105,-0.082 0.574,0.117 0.75,0.375 0.176,0.258 -0.047,0.48 0.562,0.469 0.609,-0.011 1.219,-0.188 1.219,-0.188 l -0.469,-0.562 -0.281,0.094 -0.094,-0.094 0.375,-0.375 c 0,0 -0.246,-0.117 -0.281,-0.375 -0.035,-0.258 0.316,-0.469 0.375,-0.656 0.059,-0.187 -0.316,-0.551 -0.088,-0.75 0.223,-0.199 0.188,-0.375 0.188,-0.375 l -0.281,-0.094 v -0.094 l 0.375,0.094 c 0,0 0.352,-0.234 0.469,-0.469 0.117,-0.235 0,-0.844 0,-0.844 l 0.281,0.281 c 0.041,-0.012 0.164,-0.059 0.188,-0.188 0.035,-0.258 0.223,-0.527 0.088,-0.656 l -0.463,-0.469 0.562,0.188 c 0.023,-0.023 0.094,-0.109 0.094,-0.281 0,-0.34 0.199,-0.551 0.275,-0.75 0.082,-0.199 0.223,-0.492 0,-0.656 -0.217,-0.164 -0.586,-0.188 -0.75,-0.281 -0.164,-0.093 0.094,-0.352 0.094,-0.562 0,-0.21 -0.281,-0.258 -0.281,-0.469 0,-0.211 0.199,-0.316 0.188,-0.562 0.018,0.047 0.094,0.043 0.094,0.094 0,0.363 -0.135,0.504 0,0.656 0.141,0.152 0.416,0.293 0.281,0.469 -0.129,0.176 -0.111,0.293 0.094,0.281 0.211,-0.012 0.469,-0.094 0.469,-0.094 0,0 -0.094,0.152 0,0.375 0.094,0.223 0.123,0.457 0.281,0.562 0.164,0.105 0.188,0.094 0.188,0.094 0,0 -0.305,0.047 -0.469,0.281 -0.164,0.234 -0.188,0.539 -0.188,0.75 0,0.211 0.094,0.281 0.094,0.281 0,0 0.059,-0.199 0.188,-0.469 0.129,-0.27 0.375,-0.445 0.562,-0.562 0.187,-0.117 0.27,-0.234 0.375,-0.094 0.053,0.07 0.141,0.207 0.188,0.281 0.035,0.01 0.059,0.059 0.094,0 0.164,-0.223 0.281,-0.41 0.375,-0.188 0.094,0.222 0.023,0.512 0.188,0.281 0.164,-0.223 0.609,-0.691 0.562,-1.031 -0.047,-0.34 -0.047,-0.973 -0.281,-1.406 -0.234,-0.433 -0.562,-1.125 -0.562,-1.125 l 0.375,0.281 c -0.029,-0.082 -0.053,-0.258 0,-0.375 0.105,-0.234 -0.105,-0.094 -0.188,-0.375 -0.083,-0.281 -0.088,-0.562 0.094,-0.375 0.188,0.188 0.293,0.141 0.469,-0.188 0.176,-0.329 0.609,-1.148 0.562,-1.312 -0.047,-0.164 -0.562,-0.562 -0.562,-0.562 0,0 0.609,0.422 0.656,0.469 0.047,0.047 0.293,-0.105 0.375,-0.375 0.082,-0.27 0.035,-0.586 0.188,-1.031 0.153,-0.445 0.34,-0.902 0.375,-1.219 0.035,-0.317 -0.105,-0.492 0.188,-1.406 0.17,-0.531 0.223,-1.023 0.281,-1.5 0.047,-0.34 0.111,-0.691 0.188,-0.938 0.182,-0.578 0.521,-1.336 0.75,-1.781 0.234,-0.445 0.469,-0.656 0.469,-0.656 0,0 0.111,0.102 0.281,0.188 h 0.094 c 0.164,0.078 0.34,0.176 0.562,0.188 0.387,0.023 0.773,0.172 1.125,0.281 0.117,0.035 0.287,0.07 0.375,0.094 0.369,0.102 1.002,0.125 1.312,0.469 0.316,0.348 0.855,0.598 1.219,0.844 0.369,0.246 1.125,0.281 1.125,0.281 v -0.375 c 0,0 -0.193,-0.191 -0.375,-0.375 -0.182,-0.18 -0.363,-0.398 0.281,0 0.65,0.398 0.99,0.656 0.656,0.656 -0.328,0 -0.293,-0.152 -0.375,0 -0.082,0.148 -0.076,0.469 0.188,0.75 0.27,0.281 1.137,0.781 1.219,1.125 0.082,0.348 0.428,0.258 1.125,0.938 0.697,0.68 1.441,1.09 1.688,1.406 0.252,0.316 0.252,0.535 0.75,0.75 0.498,0.219 0.99,0.305 1.5,0.469 0.516,0.164 0.609,0.523 0.938,0.375 0.334,-0.145 0.182,-0.023 0.281,0.375 0.099,0.398 0.158,0.234 0.469,1.031 0.316,0.797 0.627,1.414 0.844,1.875 0.217,0.465 0.375,0.676 0.375,0.938 0,0.266 0.803,0.352 0.75,1.312 -0.047,0.961 -0.451,2.285 -0.469,2.812 -0.018,0.535 -0.246,0.805 -0.281,1.219 -0.029,0.418 0.07,1.859 0.281,2.719 0.217,0.863 0.504,1.402 0.469,1.781 -0.029,0.383 -0.545,0.492 0,1.219 0.551,0.727 0.979,1.57 1.406,1.969 0.434,0.398 0.826,1.414 1.125,1.875 0.152,0.234 0.398,0.5 0.75,0.75 0.357,0.254 0.814,0.5 1.219,0.844 0.41,0.348 0.92,0.898 1.406,1.406 l 0.943,0.844 c 0.123,0.105 0.264,0.312 0.375,0.375 0.369,0.234 0.99,0.699 1.594,1.219 0.598,0.523 1.178,1.098 1.594,1.5 0.598,0.594 1.471,1.133 2.25,1.5 0.293,0.141 0.615,0.316 0.844,0.375 0.826,0.219 1.441,0.469 1.875,1.031 0.428,0.562 0.896,0.395 1.031,0.656 0.129,0.27 0.574,0.195 0.844,0.094 0.264,-0.098 0.938,0.75 0.938,0.75 0,0 -1.283,0.105 -1.875,-0.094 -0.598,-0.199 -0.984,-0.293 -1.312,-0.094 -0.334,0.199 -2.209,-0.504 -2.438,-0.938 -0.234,-0.426 -0.305,-0.539 -1.031,-0.938 -0.281,-0.145 -0.234,-0.039 -0.375,-0.094 0.012,-0.074 -0.164,-0.281 -0.75,-0.75 -2.344,-1.875 -3.75,-3.844 -4.969,-4.312 -1.219,-0.468 -0.562,0.938 -1.781,0 -1.219,-0.938 -3,-2.156 -1.781,-1.781 1.219,0.375 4.969,2.719 3.094,0.844 -1.875,-1.875 -3.656,-4.125 -4.5,-4.125 -0.844,0 0.188,2.156 -2.062,0 -0.908,-0.867 -1.512,-1.453 -1.969,-1.875 -0.258,-0.234 -0.65,-0.539 -0.656,-0.469 -0.012,0.07 0.281,0.5 0.562,0.938 0.217,0.352 0.404,0.586 0.844,1.219 2.625,3.844 3.562,4.406 5.531,6 2.156,2.25 3.469,1.688 3.281,2.625 -0.188,0.937 -0.188,2.156 1.125,2.531 1.313,0.375 -0.281,-0.75 0.75,-0.562 1.031,0.188 2.906,0.75 1.969,-0.281 -0.445,-0.484 0.211,-0.262 0.75,-0.094 -0.018,0.188 -0.006,0.457 0.281,0.656 0.428,0.301 1.061,0.523 1.031,0.75 -0.035,0.234 -0.791,0.02 -0.656,0.281 0.129,0.27 0.791,1.027 0.562,1.125 -0.234,0.102 -1.412,-0.367 -1.875,-0.938 -0.463,-0.562 -0.656,-0.562 -0.656,-0.562 l 0.088,0.469 -0.469,-0.375 -0.088,0.469 c 0,0 0.527,0.301 0.562,0.562 0.029,0.27 -0.018,0.734 -0.281,0.562 -0.27,-0.164 -0.375,-0.094 -0.375,-0.094 l 0.094,0.375 -1.219,-1.312 c 0,0 -0.117,-0.07 -0.281,0.094 -0.17,0.172 -0.469,0.656 -0.469,0.656 0,0 0.334,0.02 0.469,0.281 0.1,0.211 0.252,0.312 0.469,0.469 0.059,0.047 0.111,0.023 0.188,0.094 0.328,0.336 0.188,0.352 0.188,0.75 0,0.398 0.135,0.594 -0.094,0.656 -0.234,0.07 -0.182,0.105 0.188,0.469 0.363,0.371 1.342,0.875 1.312,1.5 -0.035,0.633 0.562,0.492 0.562,0.656 0,0.172 0.439,0.781 0.938,0.844 0.492,0.07 0.557,0.512 0.656,0.938 0.1,0.434 0.322,0.469 0.656,0.469 0.328,0 -0.082,0.629 0.281,0.656 0.363,0.035 1.219,0.395 1.688,1.219 0.463,0.832 1.828,1.359 2.062,1.688 0.229,0.336 -0.006,0.797 0.562,1.125 0.562,0.336 1.512,0.359 1.781,0.656 0.264,0.301 0.182,0.641 0.75,0.938 0.188,0.102 0.539,0.316 0.844,0.469 0.176,0.129 0.287,0.199 0.469,0.281 0.023,0.02 0.064,-0.012 0.094,0 0.158,0.07 0.293,0.172 0.562,0.188 0.48,0.043 1.09,0.445 1.5,0.938 0.029,0.031 0.059,0.047 0.088,0.094 0.035,0.047 -0.012,0.059 0,0.094 0.041,0.059 0.053,0.141 0.094,0.188 -0.082,-0.062 -0.223,-0.07 -0.281,-0.094 -0.029,-0.016 -0.053,-0.074 -0.088,-0.094 -0.035,0 -0.07,0.01 -0.094,0 -0.082,-0.023 -0.188,-0.062 -0.281,-0.094 -0.07,-0.012 -0.199,0.023 -0.281,0 -0.234,-0.059 -0.457,-0.156 -0.656,-0.188 -0.023,0.012 -0.094,0 -0.094,0 -0.088,-0.117 -0.246,-0.211 -0.375,-0.375 -0.305,-0.375 -0.609,-0.773 -0.75,-0.188 -0.141,0.585 -0.094,0.562 0,0.75 0.727,0.797 0.938,0.422 1.312,1.031 0.374,0.609 0.984,0.656 1.219,0.656 0.235,0 0.023,-0.258 -0.281,-0.75 -0.304,-0.492 -0.398,0.117 -0.844,-0.469 -0.188,-0.238 -0.146,-0.355 -0.188,-0.469 0.029,0.043 0.082,0.02 0.188,0.094 0.176,0.195 0.369,0.406 0.656,0.469 0.023,0.012 0.07,0 0.094,0 0.158,0.07 0.322,0.125 0.469,0.188 0.076,0.035 0.117,0.152 0.188,0.188 0.17,0.148 0.375,0.312 0.562,0.469 0.047,0.047 0.135,0.066 0.188,0.094 0.199,0.152 0.352,0.277 0.562,0.281 0.352,0.012 0.668,0.113 0.938,0.188 0.135,0.043 0.27,0.148 0.375,0.094 0.293,-0.145 0.211,-0.25 0.844,0.094 0.627,0.352 1.219,0.75 1.406,0.75 0.182,0 0.088,0.082 0.188,0.281 0.1,0.199 0.592,0.676 0.844,0.656 0.246,-0.016 0.041,-0.281 0.375,0 0.328,0.281 0.516,0.539 0.469,0.656 -0.053,0.117 0.105,-0.039 0.375,0.188 0.264,0.234 0.527,0.477 0.562,0.656 0.029,0.184 0.176,0.348 -0.188,0.094 -0.369,-0.246 -0.463,-0.039 -0.375,0.094 0.082,0.137 0.574,0.164 0.562,0.281 -0.018,0.117 0.088,0.27 -0.375,0.188 -0.469,-0.082 -0.609,-0.191 -0.375,0.188 0.229,0.383 0.363,0.75 0.281,1.031 -0.088,0.281 -0.281,0.352 0,0.469 0.281,0.117 0.369,0.035 0.188,0.281 -0.188,0.246 -0.381,0.465 0,0.562 0.381,0.102 0.516,-0.027 0.281,0.188 -0.117,0.105 -0.293,0.234 -0.375,0.281 0.035,0.02 0.094,0.07 0.188,0.094 0.51,0.148 0.943,0.172 0.844,0.469 -0.1,0.301 0.023,0.785 0.188,0.469 0.165,-0.316 0.029,-0.496 0.281,-0.562 0.246,-0.062 0.234,-0.047 0.188,0.188 -0.053,0.23 0.328,0.27 0.094,0.469 -0.234,0.199 -0.088,0.266 -0.469,0.281 -0.387,0.02 -0.768,0.359 -0.281,0.375 0.48,0.02 0.621,0.012 0.938,0 0.311,-0.016 0.105,-0.047 0.094,0.188 -0.023,0.23 0.393,0.371 0.562,0.188 0.164,-0.18 0.311,-0.273 0.562,-0.094 0.246,0.184 0.34,0.676 0.656,0.375 0.311,-0.297 0.17,-0.387 0.469,-0.188 0.293,0.199 -0.018,0.305 0.75,0.188 0.762,-0.117 1.242,-0.133 0.75,-0.281 -0.498,-0.152 -0.135,-0.023 0.562,-0.188 0.691,-0.164 0.75,-0.363 0.469,-0.562 -0.287,-0.199 -1.119,-0.199 -1.312,-0.281 -0.199,-0.082 -0.498,-0.332 0.275,-0.281 0.779,0.047 1.354,0.352 1.781,0.188 0.434,-0.164 0.627,-0.516 0.938,-0.281 0.316,0.234 0.533,0.055 0.562,0.188 0.035,0.137 0.352,0.395 -0.088,0.375 -0.451,-0.016 -0.709,-0.176 -0.938,-0.094 -0.234,0.082 -0.727,0.23 -0.375,0.375 0.346,0.152 0.533,0.094 0.75,0.094 0.211,0 0.182,0.07 0,0.188 -0.188,0.117 -0.34,0.336 0.088,0.188 0.434,-0.145 0.709,-0.223 0.938,-0.469 0.234,-0.246 0.088,-0.156 0.281,-0.094 0.053,0.02 0.029,0.078 0,0.094 0.035,0.023 0.088,0.01 0.656,0 1.312,-0.016 1.201,-0.012 1.875,-0.094 0.68,-0.082 0.979,-0.34 0.562,-0.375 -0.41,-0.035 -0.738,0.059 -1.406,-0.188 -0.662,-0.246 -0.926,-0.484 -1.312,-0.469 -0.381,0.02 -0.604,0.102 -0.656,0 -0.047,-0.098 0.299,-0.281 0.562,-0.281 0.27,0 0.252,-0.344 0.562,-0.562 0.316,-0.215 0.598,-0.469 1.125,-0.469 0.533,0 1.201,0.031 1.781,0.094 0.58,0.066 1.166,-0.051 1.312,0.094 0.035,0.031 0.047,0.09 0.094,0.094 -0.562,0.164 -1.031,0.258 -1.219,0.375 -0.182,0.117 0.352,0.305 0,0.469 -0.346,0.164 -0.463,-0.215 -0.75,0 -0.281,0.219 -0.562,0.359 0.094,0.375 0.668,0.02 0.932,0.164 1.031,0 0.018,0.023 0.047,-0.023 0.094,0 0.199,0.082 0.533,0.129 0.844,0 0.316,-0.133 1.014,-0.152 1.312,-0.188 0.298,-0.036 0.838,0.547 1.219,0.844 0.381,0.301 1.945,0.816 2.156,1.031 0.217,0.219 0.768,0.184 1.031,0 0.27,-0.18 0.639,-0.074 0.75,0.188 0.117,0.266 0.281,0.863 1.406,0.844 1.131,-0.016 3.404,0.148 3.469,0 0.07,-0.145 0.475,0.336 0.656,0.469 0.188,0.137 0.803,0.516 1.031,0.75 0.234,0.234 0.662,0.547 1.125,1.125 0.469,0.582 1.518,1.605 1.781,1.688 0.27,0.082 0.838,0.691 0.75,0.938 -0.082,0.246 0.311,-0.062 0.375,0.188 0.07,0.246 0.926,0.457 0.938,0.656 0.018,0.199 0.246,0.828 0.938,0.844 0.697,0.02 0.527,0.844 1.219,0.844 0.697,0 1.43,0.371 1.875,0.469 0.451,0.102 0.809,0.207 0.938,0.469 0.135,0.266 0.182,0.582 0.562,0.562 0.381,-0.016 0.551,0.09 0.75,0.188 0.199,0.102 0.322,0.211 0.469,0.375 0.152,0.164 0.252,0.445 0.281,0.562 0.035,0.117 0.264,0.125 0.375,0.188 0.117,0.066 0.176,0.465 0.375,0.562 0.199,0.102 0.51,0.254 0.656,0.469 0.152,0.219 0.48,0.574 0.562,0.375 0.082,-0.199 -0.094,-0.168 -0.094,-0.469 0,-0.105 0.082,-0.133 0.094,-0.188 0.07,0.059 0.123,0.129 0.188,0.188 -0.146,0.234 -0.082,0.539 0,0.656 0.082,0.117 0.082,0.141 0.281,0.094 0.199,-0.051 0.357,-0.152 0.469,-0.188 0.059,0.043 0.135,0.055 0.188,0.094 -0.006,0.035 0,0.113 -0.094,0.188 -0.182,0.148 -0.123,0.258 -0.094,0.375 0.035,0.117 0.023,0.137 0.188,0 0.17,-0.133 0.188,-0.246 0.188,0 0,0.246 -0.053,0.398 0.094,0.562 0.152,0.164 0.264,0.176 0.281,0.375 0.017,0.199 1.312,1.254 1.594,1.406 0.48,-0.414 1.957,-1.75 2.719,-3.281 0.152,-0.305 0.199,-0.684 0.281,-1.031 -0.17,-0.82 -0.697,-1.699 -1.031,-2.906 -0.539,-1.992 -1.805,-3.297 -5.25,-3.844 -3.439,-0.543 -0.557,-2.5 -3.094,-4.312 -2.537,-1.809 -1.4,-2.16 -1.219,-5.062 0.182,-2.898 1.037,-2.062 -1.5,-2.062 -2.537,0 -3.979,0.031 -5.25,-1.781 -1.266,-1.809 -3.094,-3.398 -5.812,-4.125 -1.113,-0.297 -1.752,-0.586 -2.25,-0.938 -0.27,-0.379 -0.557,-0.797 -0.938,-1.219 -0.152,-0.461 -0.24,-1.105 -0.375,-1.875 -0.539,-3.082 -0.738,-2.113 -3.094,-3.562 -2.355,-1.445 -3.076,-2.57 -5.25,-3.656 -2.062,-1.031 -2.051,-1.887 -4.219,-1.969 -0.299,-0.246 -0.562,-0.504 -0.844,-0.75 -1.102,-1.562 -1.523,-1.77 -1.688,-4.688 -0.182,-3.262 1.482,-2.051 -1.781,-4.406 -3.258,-2.355 -4.195,-2.887 -6.188,-5.062 -1.992,-2.172 -1.963,-4.008 -4.5,-6 -2.537,-1.992 -0.035,-4.48 -1.125,-6.656 -1.084,-2.172 1.166,-3.965 -0.469,-7.406 -1.629,-3.438 2.689,-2.344 4.5,-2.344 1.811,0 3.633,4.543 5.625,8.344 1.992,3.805 5.443,2.684 5.625,-0.938 0.182,-3.622 1.061,-1.809 1.781,-5.25 0.727,-3.438 1.957,-2.719 4.312,-2.719 2.355,0 2.432,-0.188 4.969,-0.188 1.365,0 2.244,-0.18 3,-0.656 0.65,-0.41 1.207,-1.035 1.875,-1.875 0.545,-0.68 0.902,-0.973 1.219,-1.031 0.533,-0.098 0.973,0.465 1.875,1.031 1.453,0.91 2.279,0.012 5.719,0.375 2.977,0.312 3.844,1.336 6.281,3.188 0.387,0.293 0.539,0.406 1.031,0.75 v -0.656 c 0.732,0.059 1.406,0.082 2.062,0 0.75,-0.094 1.465,-0.281 2.062,-0.469 0.597,-0.188 1.125,-0.375 1.5,-0.562 0.328,-0.164 0.715,-0.152 1.125,-0.094 0.059,0.008 0.129,-0.012 0.188,0 0.369,0.066 0.709,0.16 1.125,0.281 0.164,0.047 0.305,0.047 0.469,0.094 0.609,0.176 1.283,0.348 1.969,0.375 0.598,0.02 1.236,-0.027 1.875,-0.281 2.812,-1.125 5.25,-2.438 6.75,-1.312 1.5,1.126 7.312,0.188 9,1.125 0.211,0.117 0.387,0.34 0.562,0.562 0.175,0.222 0.305,0.453 0.469,0.75 0.328,0.594 0.703,1.277 1.125,1.969 0.211,0.348 0.48,0.711 0.75,1.031 0.193,0.223 0.428,0.465 0.656,0.656 0.123,0.105 0.24,0.188 0.375,0.281 0.141,0.094 0.223,0.199 0.375,0.281 0.205,0.113 0.422,0.195 0.656,0.281 0.457,0.172 1.008,0.328 1.594,0.375 4.688,0.375 5.25,0.562 6.938,-0.375 0.844,-0.469 1.359,-0.891 1.969,-1.219 0.61,-0.328 1.312,-0.562 2.344,-0.656 0.287,-0.027 0.574,-0.121 0.844,-0.188 -1.125,-1.973 -1.324,-4.512 -0.281,-3.469 1.09,1.086 1.506,-0.531 1.688,-2.344 0.182,-1.809 1.102,-0.73 3.094,-0.188 1.623,0.441 1.975,1.355 2.812,2.812 1.717,0.75 4.043,1.965 4.781,2.625 0.141,0.125 0.141,0.324 0.188,0.562 -0.047,0.176 -0.023,0.207 -0.094,0.469 0.076,0.07 0.117,0.125 0.188,0.188 0.006,1.242 -0.334,2.926 0.188,3.188 0.375,0.188 1.758,0.469 3.094,0.75 1.377,0.293 2.625,0.562 2.625,0.562 l 0.938,-2.438 c -0.182,0.621 -0.275,1.109 -0.375,1.594 -0.082,0.418 -0.158,0.727 -0.188,1.031 -0.006,0.055 0.006,0.137 0,0.188 -0.006,0.223 0.064,0.422 0.094,0.562 0.012,0.047 -0.012,0.148 0,0.188 0.07,0.148 0.141,0.328 0.281,0.281 0.088,-0.012 0.17,-0.094 0.281,-0.188 0.252,-0.203 0.557,-0.602 0.938,-1.219 0.223,-0.355 0.451,-0.613 0.656,-0.844 0.211,-0.227 0.369,-0.434 0.562,-0.562 0.193,-0.128 0.387,-0.223 0.562,-0.281 0.188,-0.059 0.393,-0.074 0.562,-0.094 0.457,-0.047 0.791,-0.047 1.125,-0.188 0.023,-0.012 0.076,0.012 0.094,0 0.117,-0.062 0.275,-0.145 0.375,-0.281 0.105,-0.141 0.246,-0.199 0.375,-0.188 0.088,0 0.188,0.043 0.281,0.094 0.334,0.184 0.668,0.574 1.031,0.938 0.152,0.152 0.234,0.27 0.375,0.375 0.141,0.105 0.346,0.172 0.469,0.188 0.252,0.031 0.428,-0.133 0.562,-0.75 0.135,-0.613 0.24,-1.195 0.375,-1.781 0.275,-1.172 0.662,-2.254 1.312,-3.188 0.328,-0.469 0.709,-0.938 1.219,-1.312 0.639,-0.469 1.225,-0.82 1.781,-1.125 0.07,-0.035 0.117,-0.059 0.188,-0.094 0.071,-0.035 0.117,-0.062 0.188,-0.094 0.404,-0.199 0.785,-0.293 1.125,-0.375 0.27,-0.062 0.521,-0.109 0.75,-0.094 0.24,-0.012 0.475,-0.012 0.656,0.094 0.24,0.137 0.346,0.383 0.375,0.656 0.006,0.031 0,0.066 0,0.094 0.018,0.258 0.006,0.535 0,0.844 0,0.07 0,0.117 0,0.188 0.006,0.059 0,0.129 0,0.188 0.006,0.066 0.082,0.125 0.094,0.188 0.029,0.188 0.018,0.383 0.094,0.562 0.141,0.301 0.357,0.605 0.75,0.844 0.387,0.242 0.709,0.527 1.031,0.844 0.064,0.059 0.129,0.129 0.188,0.188 0.311,0.312 0.627,0.598 0.938,0.844 0.217,0.164 0.422,0.289 0.656,0.375 0.398,0.148 0.885,0.223 1.406,0 0.264,-0.109 0.539,-0.32 0.844,-0.562 2.461,-1.91 4.283,-3.188 6.469,-4.688 0.428,-0.293 0.797,-0.543 1.125,-0.844 0.105,-0.098 0.188,-0.188 0.281,-0.281 0.217,-0.203 0.381,-0.375 0.562,-0.562 0.17,-0.176 0.316,-0.32 0.469,-0.469 0.305,-0.285 0.557,-0.551 0.844,-0.656 0.205,-0.074 0.434,-0.059 0.656,0 0.094,0.023 0.182,0.043 0.281,0.094 0.686,0.34 1.348,0.715 2.062,0.844 0.029,0.008 0.07,-0.004 0.094,0 0.328,0.055 0.709,0.059 1.031,0 0.352,-0.062 0.691,-0.227 1.031,-0.469 1.365,-0.953 2.32,-0.895 3,0.469 0.428,0.855 0.873,1.707 2.25,2.062 0.029,0.008 0.064,-0.012 0.094,0 0.539,0.129 1.219,0.234 2.062,0.188 0.445,-0.023 0.955,-0.105 1.5,-0.188 4.371,-0.684 4.723,0.34 5.812,2.25 0.686,1.195 1.318,2.051 1.969,1.875 0.129,-0.035 0.24,-0.062 0.375,-0.188 0.27,-0.25 0.539,-0.727 0.844,-1.406 1.23,-2.73 0.152,-3.949 2.062,-6 0.176,-0.188 0.375,-0.438 0.562,-0.656 0.012,-0.016 0.082,0.012 0.094,0 2.461,-0.543 2.818,-0.703 4.594,-2.344 -1.705,-1.668 -1.822,-2.555 -2.25,-4.219 -0.018,-0.121 -0.059,-0.234 -0.094,-0.375 -0.58,-2.125 -0.34,-2.535 1.594,-5.625 0.967,-1.547 1.576,-2.359 1.781,-3 0.105,-0.32 0.076,-0.648 0,-0.938 -0.07,-0.285 -0.229,-0.551 -0.469,-0.938 -0.146,-0.234 -0.264,-0.438 -0.375,-0.656 -0.029,-0.059 -0.07,-0.129 -0.094,-0.188 -0.07,-0.176 -0.082,-0.387 -0.094,-0.562 -0.018,-0.215 0.07,-0.426 0.188,-0.656 0.129,-0.25 0.305,-0.473 0.656,-0.75 0.27,-0.215 0.598,-0.414 1.031,-0.656 0.867,-0.48 2.062,-1.059 3.75,-1.688 6.762,-2.512 8.672,-7.934 10.219,-6 0.58,0.727 1.143,1.652 1.688,2.25 0.275,0.301 0.562,0.457 0.844,0.562 0.141,0.055 0.234,0.113 0.375,0.094 0.539,-0.039 1.066,-0.645 1.688,-2.156 0.434,-1.059 0.791,-1.688 1.125,-2.062 0.34,-0.379 0.615,-0.531 0.844,-0.656 0.094,-0.051 0.205,-0.129 0.281,-0.188 0.094,-0.082 0.217,-0.223 0.281,-0.375 0.041,-0.105 0.07,-0.41 0.094,-0.562 0.035,-0.273 0.088,-0.668 0.088,-1.125 0,-1.781 -0.504,-3.035 -0.75,-3.75 0.715,0.445 1.488,1.016 2.25,1.406 0.246,0.125 0.51,0.211 0.75,0.281 0.029,0.008 0.059,-0.004 0.088,0 0.293,0.07 0.574,0.152 0.844,0.094 0.17,-0.039 0.311,-0.082 0.469,-0.188 0.902,-0.602 4.617,-2.125 8.156,-3.656 0.756,0.949 3.018,-0.18 3.281,-1.5 0.258,-0.121 0.604,-0.258 0.844,-0.375 0.885,0.23 2.32,0.934 4.125,-0.094 2.707,-1.547 4.91,-3.086 6.844,-3.281 1.934,-0.191 7.84,-1.703 9,-1.125 1.16,0.582 3.926,3.445 4.312,4.219 0.386,0.774 1.277,1.203 2.438,1.781 0.287,0.148 0.562,0.195 0.75,0.188 0.135,-0.016 0.281,-0.051 0.375,-0.188 0.117,-0.164 0.217,-0.426 0.281,-0.75 0.07,-0.32 0.141,-0.738 0.188,-1.219 0.193,-1.934 1.535,-3.121 3.469,-5.438 1.934,-2.32 1.764,-1.727 2.344,-0.375 0.07,0.172 0.152,0.281 0.281,0.375 0.229,0.16 0.504,0.176 0.844,0.188 0.252,0.012 0.48,0.02 0.75,0 0.117,-0.012 0.258,0.008 0.375,0 0.275,-0.016 0.609,-0.035 0.844,0 0.029,0.008 0.064,-0.004 0.094,0 0.299,0.055 0.521,0.207 0.656,0.469 0.58,1.16 2.156,0.516 2.156,-1.031 0,-0.602 -0.029,-1.07 0,-1.5 0.369,-0.086 0.738,-0.32 1.125,-0.562 0.07,0.023 0.105,-0.035 0.188,0 1.74,0.773 3.27,0.328 3.656,-1.219 0.386,-1.547 0.785,-1.281 2.719,-2.25 1.934,-0.965 2.549,-0.602 1.969,-2.344 -0.07,-0.203 -0.205,-0.309 -0.281,-0.469 l 1.969,-0.938 -0.188,-1.312 -2.156,-13.875 -4.963,-3.281 -1.77,-2.719 -0.562,-3.844 -7.5,-2.156 0.375,-3.281 1.125,-1.969 v -2.719 l -4.219,-2.812 -1.969,-3.094 -3.094,-0.844 -3.281,-3.281 c 0,0 -9.439,-1.16 -10.594,-3.094 -1.16,-1.926 -0.422,-3.398 1.125,-5.719 1.541,-2.312 3.281,-4.688 3.281,-4.688 l 4.688,2.531 2.344,-0.188 1.688,-4.312 5.25,-0.188 c 0,0 2.537,-3.047 3.656,-4.969 3.762,0.863 4.828,0.398 6.938,0.094 2.531,-0.363 -0.387,-1.465 -3.281,-5.812 -2.9,-4.348 -2.197,-2.906 -3.281,-8.344 -1.09,-5.43 -3.99,-7.992 0,-8.719 3.434,-0.621 4.26,-1.336 2.613,-3.578 -0.451,0.426 -0.932,0.855 -1.488,1.234 -0.844,0.102 -2.402,1.301 -6,1.312 -0.973,0.023 -2.467,-0.281 -3.844,-0.562 0.961,-0.387 1.787,-0.727 1.594,-1.5 -0.387,-1.547 -4.295,-3.707 -5.062,-5.062 -0.773,-1.352 -3.094,-4.969 -3.094,-4.969 l -0.281,-2.531 c 0.955,-1.242 1.078,-2.078 1.594,-1.312 0.527,0.797 0.645,3.844 1.312,3.844 0.662,0 0.047,-3.074 0.844,-2.812 0.791,0.266 -0.785,1.969 2.531,1.969 2.016,0 3.281,-0.484 4.312,-0.844 -0.07,-0.73 -0.24,-1.445 -0.75,-1.875 -1.641,-1.363 -4.371,-2.945 -6.281,-4.312 -1.916,-1.363 -2.467,-7.43 -3.281,-11.531 -0.82,-4.094 0.322,-9.238 -1.312,-11.156 -1.641,-1.91 -2.449,-3.281 -2.719,-6.562 -0.258,-3.082 -1.928,-5.719 -2.133,-6.047 -0.047,0.023 -0.105,0.035 -0.146,0.059 -0.199,0.125 -0.387,0.258 -0.533,0.457 -0.223,0.293 -0.439,0.48 -0.656,0.605 -0.545,0.332 -1.207,0.141 -2.309,-0.688 l -1.723,0.27 1.113,-0.742 c -0.539,-0.434 -1.107,-0.922 -1.863,-1.602 -0.451,-0.402 -0.943,-0.777 -1.459,-1.129 -0.006,0 -0.006,0 -0.006,0 -0.516,-0.352 -1.055,-0.68 -1.6,-0.996 -0.006,0 -0.006,0 -0.006,0 -1.102,-0.629 -2.227,-1.207 -3.264,-1.824 -0.006,0 -0.006,0 -0.006,0 -2.086,-1.23 -3.803,-2.594 -4.16,-4.77 -0.727,-4.348 1.488,-2.473 -1.406,-6.094 -0.363,-0.449 -0.697,-0.809 -0.996,-1.078 -0.604,-0.539 -1.102,-0.766 -1.541,-0.859 -0.006,0 -0.006,0 -0.012,0 -0.217,-0.047 -0.428,-0.059 -0.633,-0.059 h -0.006 c -0.404,0 -0.791,0.047 -1.213,-0.047 -0.416,-0.09 -0.873,-0.316 -1.418,-0.863 -0.182,-0.188 -0.393,-0.281 -0.621,-0.344 -0.059,-0.012 -0.117,-0.031 -0.182,-0.043 -0.1,-0.012 -0.217,0.012 -0.328,0.012 -0.287,0.02 -0.592,0.066 -0.926,0.188 -0.023,0.012 -0.053,0.012 -0.082,0.023 -2.49,0.98 -5.924,4.379 -8.361,1.945 -2.443,-2.441 -2.068,-3.074 -4.02,-4.457 -0.65,-0.457 -1.559,-1.004 -2.918,-1.73 -1.078,-0.574 -1.91,-0.965 -2.584,-1.223 -0.492,-0.188 -0.861,-0.27 -1.195,-0.305 -0.152,-0.012 -0.311,-0.023 -0.439,0 h -0.008 z M 697.481,999.621 c -0.041,0.02 -0.064,0.07 -0.094,0.094 -0.07,0.059 -0.146,0.105 -0.188,0.188 -0.346,0.656 -0.217,2.223 -0.281,2.906 -0.094,0.938 0,1.5 -0.469,1.219 -0.469,-0.281 -1.125,-0.094 -1.125,0.75 0,0.844 -1.125,0 -0.75,1.312 0.375,1.312 2.438,2.062 3.75,1.594 1.312,-0.468 1.406,-0.094 1.312,0.938 -0.094,1.032 1.875,1.125 2.719,1.875 0.844,0.75 1.031,-0.469 0.75,-0.844 -0.281,-0.375 1.594,-0.094 1.969,-0.375 0.375,-0.281 -1.594,-1.875 -2.438,-2.812 -0.844,-0.937 -1.219,-0.938 -1.969,-1.5 -0.75,-0.562 0.275,-1.594 -0.281,-2.062 -0.562,-0.469 -1.406,-0.094 -1.031,-0.469 0.188,-0.188 0.281,-0.352 0.094,-0.75 -0.006,-0.012 0.006,-0.074 0,-0.094 -0.1,-0.188 -0.516,-0.637 -0.75,-0.938 -0.27,-0.328 -0.369,-0.508 -0.844,-1.031 -0.128,-0.048 -0.281,-0.036 -0.374,-10e-4 z m -5.813,2.813 c -0.105,0.031 -0.188,0.105 -0.281,0.188 -0.451,0.383 -0.861,1.254 -1.031,2.062 -0.229,1.062 0.92,1.52 1.781,2.719 0.199,0.289 0.416,0.547 0.562,0.938 0.75,2.062 1.594,4.125 0.75,3.938 -0.211,-0.047 -0.375,-0.215 -0.562,-0.375 -0.023,-0.012 -0.076,0.02 -0.094,0 -0.363,-0.297 -0.639,-0.703 -0.844,-0.75 -0.111,-0.023 -0.234,0.07 -0.281,0.281 -0.188,0.844 0,1.5 0.75,3.562 0.393,1.086 0.885,2.449 1.5,3.75 0.551,1.172 1.207,2.297 1.875,3.094 1.406,1.688 1.594,1.5 2.344,1.312 0.75,-0.188 -0.656,-1.688 -1.781,-5.156 -1.125,-3.468 -0.75,-4.875 -0.75,-6.938 0,-2.063 -0.094,-1.781 -0.656,-1.312 -0.562,0.469 -0.938,-1.312 -2.25,-3.656 -0.562,-2.062 0.281,-2.625 -0.469,-3.469 -0.094,-0.105 -0.188,-0.156 -0.281,-0.188 -0.077,0.023 -0.194,-0.024 -0.282,0 z m 10.594,11.531 c -0.293,0.117 -0.047,0.562 0.375,1.125 0.562,0.75 0,1.031 -0.469,0.656 -0.469,-0.375 -1.688,-0.188 -0.656,0.844 1.032,1.032 1.219,0.469 3,1.219 1.037,0.441 1.377,0.887 1.594,1.125 0.146,0.176 0.234,0.254 0.469,0.094 0.27,-0.18 0.006,-0.586 -0.469,-1.125 -0.334,-0.375 -0.732,-0.812 -1.312,-1.312 -0.316,-0.262 -0.457,-0.445 -0.844,-0.75 -0.469,-0.469 -0.281,-1.688 -1.219,-1.875 -0.235,-0.048 -0.375,-0.036 -0.469,-10e-4 z m -9.094,5.906 c -0.293,0.043 -0.047,0.703 0.375,1.969 0.562,1.688 0.562,1.594 0.562,2.438 0,0.844 0.188,1.406 0.844,0.75 0.656,-0.656 0.844,0.656 2.062,1.781 1.218,1.125 1.312,1.312 1.688,1.031 0.376,-0.281 -0.281,-0.938 -1.875,-2.062 -1.594,-1.124 -1.969,-2.438 -2.438,-4.031 -0.1,-0.598 -0.094,-0.715 -0.188,-1.312 -0.1,-0.129 -0.24,-0.211 -0.562,-0.375 -0.233,-0.119 -0.374,-0.201 -0.468,-0.189 z m 12.281,9.656 c -0.281,0.035 -0.516,0.68 -0.375,1.031 0.188,0.469 -1.031,0.938 0,1.312 0.938,0.188 1.312,0.562 1.031,-0.375 -0.281,-0.937 0,-1.125 -0.375,-1.781 -0.093,-0.163 -0.187,-0.198 -0.281,-0.187 z m 0.563,5.719 c -0.135,0.082 0.082,0.422 0.75,1.125 1.781,1.031 4.125,1.789 1.969,0.281 -1.348,-0.937 -2.502,-1.539 -2.719,-1.406 z m 1.312,2.906 c -0.006,0.094 0.293,0.445 0.844,1.219 0.416,0.594 0.809,1.039 1.219,1.5 1.729,1.977 3.311,3.047 4.031,4.219 0.891,1.453 0.938,1.031 1.125,1.5 2.484,2.578 3.656,3.141 6.281,4.688 2.625,1.547 5.484,3.328 3,1.312 -2.484,-2.016 -3.797,-2.438 -4.688,-3.562 -0.891,-1.124 -0.844,-0.75 -2.344,-2.156 -1.5,-1.406 -1.922,-1.453 -3.188,-2.812 -1.266,-1.359 0.188,-1.031 -2.25,-2.719 -0.633,-0.434 -1.266,-0.977 -1.875,-1.5 -1.158,-0.986 -2.149,-1.868 -2.155,-1.689 z m 6.094,0.75 c -0.135,0.129 0.328,0.773 1.969,2.438 1.5,1.594 3.609,2.812 5.719,4.875 2.11,2.063 4.5,2.203 3.656,1.594 -0.844,-0.609 -3.469,-3.188 -4.781,-4.125 -1.312,-0.937 -3.797,-3.047 -5.062,-4.031 -0.634,-0.493 -1.366,-0.88 -1.501,-0.751 z m 33.188,24.75 c -0.562,0 -0.797,0.188 -0.469,0.75 0.328,0.562 0.656,0.562 1.219,0.469 0.938,0.516 0.797,0.422 1.594,0.75 0.797,0.328 1.922,1.125 2.25,0.844 0.328,-0.281 -0.141,-0.609 -0.844,-1.406 -0.703,-0.797 -0.656,-0.844 -1.688,-1.125 -1.032,-0.281 -1.5,-0.282 -2.062,-0.282 z m 6,0.188 c -0.404,0 -0.451,0.094 -0.281,0.469 0.328,0.75 0.516,0.938 0.188,1.219 -0.328,0.281 -0.094,0.562 0,0.75 0.094,0.188 -0.422,0.281 -0.562,0.094 -0.14,-0.187 -0.516,0.094 0.375,0.562 0.891,0.468 0.422,-0.414 1.219,0.281 0.797,0.703 2.297,1.266 4.969,1.031 5.344,-0.656 6,-0.984 6.375,-2.062 0.375,-1.078 0.047,-0.938 -2.156,-1.594 -2.203,-0.656 -5.906,-0.75 -7.969,-0.656 -1.033,0.046 -1.754,-0.094 -2.158,-0.094 z m 3.375,5.625 c -0.516,0.094 -0.844,0.422 -0.75,0.656 0.094,0.234 0.797,0.094 1.312,0.656 0.515,0.562 0.656,0.422 0,0.656 -0.656,0.234 -0.75,-0.469 -1.312,-0.844 -0.562,-0.375 -1.312,-0.094 -1.781,0.094 -0.469,0.188 -1.078,0.609 -1.5,0.469 -0.422,-0.14 -0.891,0.141 -0.469,0.375 0.422,0.234 0.891,0.234 1.594,0.656 0.703,0.422 0.891,0.141 1.219,0.188 0.328,0.047 0.938,0.328 3.281,0.656 2.343,0.328 1.734,0.523 3,0.281 1.266,-0.234 1.594,-0.609 3.844,-0.375 2.25,0.234 6.891,-0.281 8.438,-0.75 1.547,-0.469 0.744,-0.656 -0.281,-0.656 -1.031,0 -2.297,0.094 -4.688,-0.094 -2.391,-0.188 -2.766,0.234 -6.656,0.469 -0.938,-0.047 -0.609,-0.188 -1.312,-0.469 -0.703,-0.281 0.609,-0.375 -0.188,-0.562 -0.797,-0.187 -0.516,-0.516 -0.656,-0.844 -0.14,-0.328 -0.75,0.047 -1.219,0 -0.469,-0.047 -0.844,0.094 -1.312,0 -0.468,-0.094 -0.049,-0.656 -0.564,-0.562 z m 13.406,5.719 c -0.27,0 -0.094,1.5 -0.094,1.5 0,0 1.4,0.688 2.531,0.75 1.125,0.07 2.279,-0.48 2.812,-0.281 0.158,0.066 0.627,0.23 1.031,0.375 0.92,0.348 2.068,0.805 2.531,1.125 0.662,0.465 1.664,0.102 2.531,0.562 0.861,0.465 -0.486,0.652 0.844,1.312 1.324,0.664 7.699,2.168 7.969,1.969 0.264,-0.199 -1.125,-1.594 -1.125,-1.594 l 2.438,1.5 c 0,0 0.275,-1.102 1.406,-0.375 1.125,0.734 1.939,1.484 3.469,2.344 1.523,0.863 2.812,1.219 2.812,1.219 0,0 1.119,0.457 0.656,0.656 -0.469,0.199 -0.363,0.582 1.031,0.844 1.389,0.27 2.104,0.605 2.438,0.469 0.141,-0.051 0.357,0.023 0.562,0.094 0.264,0.094 0.486,0.223 0.375,0.562 -0.1,0.301 -0.334,0.551 -0.281,0.844 0.047,0.293 0.375,0.629 1.406,1.125 2.051,0.996 4.699,2.129 6.094,3.188 1.389,1.062 2.062,1.406 2.062,1.406 l -0.469,-1.312 -1.031,-0.844 -0.562,-0.469 -0.938,-0.469 0.188,-0.938 -0.375,-1.125 -0.094,-0.188 c -0.07,0.012 -0.123,0.02 -0.188,0 l -0.469,-0.281 v -0.094 c -0.393,-0.52 -0.68,-1.43 -0.844,-2.344 -0.363,-1.992 -0.006,-2.426 -2.719,-2.062 -2.719,0.363 -2.76,0.57 -3.844,-1.969 -1.09,-2.535 -3.604,-2.301 -7.406,-3.938 -3.393,-1.453 -3.732,-2.332 -5.531,-2.25 0,-0.121 -0.076,-0.246 -0.094,-0.375 -0.252,-0.023 -0.475,-0.027 -0.656,0 -0.545,0.094 -0.809,0.441 -1.031,1.031 -0.182,0.488 -0.07,1.039 0,1.5 0,0.031 -0.006,0.07 0,0.094 v 0.094 c 0.059,0.312 0.152,0.469 0.188,0.562 0.633,0.336 0.744,0.559 1.125,0.281 0.111,-0.082 0.088,-0.152 0.094,-0.188 -0.041,0.055 -0.023,0.266 0.375,0.562 -0.07,0.066 -0.105,0.105 -0.188,0.188 -0.387,-0.094 -0.979,-0.223 -1.594,-0.562 -0.404,-0.223 -0.65,-0.215 -1.125,-0.375 -0.229,-0.074 -0.422,-0.203 -0.656,-0.281 l -1.781,-0.375 c 0.094,0.184 0.188,0.281 0.188,0.281 0,0 -1.57,-0.191 -1.969,-0.656 -0.287,-0.332 0.105,-0.598 -0.844,-1.031 h -0.094 c -0.363,-0.156 -0.896,-0.328 -1.688,-0.562 -3.182,-0.926 -4.617,-0.707 -6.469,-0.844 -1.854,-0.128 -2.733,-0.655 -2.997,-0.655 z m 42,17.437 0.656,0.281 0.281,0.094 c 0.492,-0.227 1.4,-0.328 1.969,-0.094 0.562,0.234 1.564,0.316 2.062,-0.281 0.492,-0.598 1.236,-1.031 0.375,-1.594 -0.867,-0.562 0.27,-0.48 0.469,-0.844 -0.018,0.254 -0.029,0.797 0.656,0.656 0.492,-0.098 0.867,-0.293 1.125,-0.281 0.047,0.01 0.053,0.078 0.088,0.094 0.023,0.035 0.082,0.059 0.094,0.094 0.111,0.129 0.234,0.312 0.281,0.75 0.076,0.633 0.293,1.078 0.375,1.406 0.105,0.41 0.035,0.57 -0.375,-0.094 -0.029,-0.051 -0.059,-0.039 -0.094,-0.094 -0.645,-1.031 -0.803,-1.117 -1.594,-1.406 -0.205,-0.07 -0.369,-0.086 -0.469,0 -0.287,0.266 -0.129,1.109 0.094,1.406 0.299,0.398 0.984,0.879 0.75,1.406 -0.229,0.535 -0.908,-0.238 -1.969,-0.375 -1.061,-0.129 -2.244,-0.473 -2.344,0.188 -0.1,0.664 1.066,1.395 1.594,1.594 0.533,0.199 1.178,0.312 1.406,-0.188 0.234,-0.496 0.51,-0.727 0.938,-0.094 0.434,0.633 0.381,1.391 1.406,2.25 1.031,0.863 1.254,1.43 1.781,1.031 0.533,-0.398 2.062,-1.289 2.625,0 0.568,1.297 2.203,1.965 2.531,2.625 0.229,0.457 0.797,1.16 1.406,1.5 0.27,-0.391 0.287,-0.516 0.562,-0.938 l -0.75,-0.75 c 0.059,-0.203 0.111,-0.375 0.281,-0.656 0.908,-1.445 0.727,-0.414 0,-1.688 -0.721,-1.266 -2.49,-1.258 -4.125,-2.531 -0.105,-0.082 -0.188,-0.105 -0.281,-0.188 l -0.188,-1.688 c 0,0 -2.25,-3.938 -3.75,-4.875 -0.141,-0.086 -0.346,-0.156 -0.562,-0.188 -0.117,-0.473 -0.258,-0.812 -0.469,-1.594 -0.721,-2.711 -2.953,-2.672 -4.406,-4.125 -0.182,-0.18 -0.322,-0.328 -0.469,-0.375 -0.123,-0.035 -0.264,-0.051 -0.375,0 -0.75,0.375 -1.043,2.848 -2.156,5.062 -0.252,0.512 -0.527,0.82 -0.75,1.031 0.176,0.246 0.334,0.539 0.375,0.656 0.053,0.125 0.018,0.254 0,0.375 -0.006,0.066 0.012,0.125 0,0.188 -0.006,0.035 0.006,0.066 0,0.094 l 0.281,1.031 c 0.094,0.059 0.199,0.141 0.281,0.188 0.234,0.137 0.111,0.711 0.375,0.938 h 0.009 z m -63.844,-16.5 c -0.492,0.035 -1.219,0.141 -2.156,0.188 -1.875,0.094 -2.812,0.562 -2.344,1.031 0.468,0.469 1.406,0.469 0.938,1.125 -0.468,0.656 -0.375,0.281 1.5,0.094 2.531,-0.844 3.094,-1.312 2.906,-2.062 -0.094,-0.376 -0.352,-0.411 -0.844,-0.376 z m 20.813,1.875 c -0.609,0.066 -1.008,0.188 -1.406,0.281 -0.797,0.188 -0.75,1.031 -2.812,0.469 -2.062,-0.562 -2.578,-0.75 -3.656,-0.656 -1.078,0.094 -1.641,0.516 -0.375,0.656 1.266,0.14 1.406,0.141 0.75,0.469 -0.656,0.328 -0.609,0.703 -1.031,0.938 -0.422,0.235 -0.188,0.656 0.375,0.844 0.563,0.188 0.188,-0.844 1.406,-0.281 1.218,0.563 0.469,0.047 1.031,0.281 1.734,-0.047 2.344,0.656 4.031,-0.188 1.687,-0.844 1.828,-0.984 4.125,-0.938 2.297,0.046 3.516,-0.094 3.75,-0.469 0.234,-0.375 -0.703,0.188 -1.125,-0.375 -0.422,-0.563 -0.328,-0.891 -2.531,-1.031 -1.103,-0.07 -1.923,-0.062 -2.532,0 z m 11.625,5.156 c -0.059,-0.012 -0.094,0.105 -0.281,0.188 -0.75,0.328 -2.062,0.891 -0.938,1.031 1.124,0.14 2.203,0.188 3,0.469 0.797,0.281 1.641,0.375 2.156,0.562 4.641,0.609 5.297,0.562 5.812,0.562 0.515,0 1.025,-0.188 -0.281,-0.656 -1.312,-0.469 -3.141,-0.891 -5.062,-1.031 -1.921,-0.14 -2.859,-0.656 -3.75,-0.656 -0.668,0 -0.498,-0.433 -0.656,-0.469 z m 12.715,0.524 c -0.188,-0.031 -0.311,-0.02 -0.34,0.039 -0.064,0.125 0.234,0.492 0.938,1.031 1.078,0.375 1.406,0.758 1.406,0.281 0,-0.469 -0.234,-0.656 -1.312,-1.125 -0.271,-0.117 -0.511,-0.191 -0.692,-0.226 z m -26.778,1.539 c -0.645,-0.047 -1.172,0.082 -1.219,0.562 -0.094,0.938 -0.75,0.375 1.031,1.406 1.875,0 3.562,-1.406 2.25,-1.594 -0.656,-0.093 -1.423,-0.319 -2.062,-0.374 z m 37.406,2.062 c 0.41,0.184 0.732,0.316 1.125,0.469 -0.047,0.02 -0.281,0.094 -0.281,0.094 0,0 -0.439,-0.258 -0.844,-0.563 z" />
      </g>
      <g
         id="g346">
        <path
           id="path4451"
           fill="#ffd42a"
           d="m 641.793,951.527 c -1.553,0.148 -3.51,1.355 -5.344,2.156 -0.656,-0.273 -1.383,-0.609 -2.062,-0.844 -0.979,1.367 0.791,2.562 1.5,3.469 0.896,1.156 -1.676,1.266 -3.469,0.75 -1.799,-0.508 -2.449,1.582 -3.469,0.938 -1.025,-0.637 -2.959,1.402 -3.469,4.219 -0.516,2.82 2.479,3.609 3.375,5.531 0.896,1.922 0.076,2.27 -1.969,2.906 -2.051,0.645 -3.229,3.363 -4.125,5.156 -0.896,1.793 -0.961,-0.656 -2.625,-0.656 -1.67,0 -3.879,2.59 -5.156,4.125 -1.283,1.543 -1.916,-0.809 -2.812,0.469 -0.902,1.285 -0.041,4.488 -0.938,6.281 -0.897,1.793 -2.748,3 -5.438,3 -2.695,0 -2.988,-1.488 -2.344,-3.281 0.639,-1.793 -0.117,-4.023 -1.781,-3 -0.527,0.324 -1.049,0.398 -1.576,0.527 -0.428,1.312 -0.662,2.328 -1.418,3.793 -0.615,1.188 -1.324,1.891 -1.764,2.629 -0.445,0.738 -0.615,1.508 -0.152,2.809 0.457,1.305 0.24,2.207 -0.07,3 -0.316,0.797 -0.738,1.48 -0.697,2.359 0.076,1.766 0.076,2.531 0,4.523 -0.082,1.992 -0.152,2.914 0.691,3.91 0.398,1.938 -0.029,3.832 -0.264,5.543 0.979,0.34 1.699,0.648 2.438,0.719 0.691,0.07 0.803,0.387 1.031,0.656 0.223,0.277 0.586,0.422 1.781,0.188 2.385,-0.461 2.379,-0.836 3.375,-0.375 0.492,0.234 0.662,0.48 1.002,0.57 0.334,0.086 0.838,0.016 1.998,-0.383 0.217,-0.07 0.445,-0.109 0.686,-0.121 0.223,-0.012 0.451,0 0.691,0.027 0.486,0.059 0.984,0.188 1.482,0.324 0.076,0.023 0.152,0.035 0.234,0.051 0.188,-0.914 1.699,-0.961 1.219,-1.688 0.873,0.105 1.688,0.312 2.531,0.938 0.375,0.281 0.598,0.527 0.762,0.727 0.158,0.207 0.252,0.371 0.363,0.492 0.1,0.125 0.223,0.211 0.445,0.23 0.217,0.023 0.539,-0.02 1.055,-0.137 0.258,-0.059 0.492,-0.07 0.715,-0.059 0.217,0.02 0.416,0.066 0.615,0.125 0.387,0.129 0.738,0.328 1.107,0.496 0.363,0.172 0.738,0.316 1.189,0.34 0.223,0.012 0.463,0 0.732,-0.051 0.264,-0.055 0.562,-0.148 0.891,-0.289 1.312,-0.562 1.828,-0.844 2.121,-1.066 0.293,-0.222 0.363,-0.387 0.785,-0.715 0.205,-0.156 0.475,-0.27 0.791,-0.352 0.311,-0.074 0.674,-0.121 1.061,-0.152 0.773,-0.059 1.664,-0.059 2.555,-0.152 1.781,-0.188 2.25,-0.188 4.219,0.469 1.969,0.657 3,0.562 3.75,1.594 0.205,0.289 0.41,0.664 0.633,1.109 0.217,0.445 0.439,0.961 0.68,1.516 0.492,-0.074 1.154,0.082 1.875,-0.281 1.324,-0.66 0.445,-1.727 0.844,-2.062 0.393,-0.328 1.102,-0.062 1.5,-1.594 0.393,-1.523 -0.293,-2.195 -1.219,-2.531 -0.621,-0.215 -1.084,-0.785 -1.406,-2.156 -0.158,-0.094 -0.334,-0.164 -0.469,-0.281 -0.568,0 -1.125,0.57 -1.406,0.281 -0.287,-0.562 0,-1.125 0.562,-1.406 1.125,-0.844 0,-3.086 -0.562,-4.219 -0.568,-0.562 -0.844,1.406 -1.406,1.125 -1.131,-0.562 0,-3.75 -1.406,-3.75 -0.141,0 -0.211,0.082 -0.281,0.188 0.539,-0.785 1.16,-1.703 1.406,-2.438 0.562,-1.125 -0.568,-2.812 0.562,-3.094 1.125,-0.844 2.525,0.57 3.938,0.281 4.5,-0.844 8.15,-5.336 12.094,-7.031 1.688,-0.562 3.088,0.102 4.219,-1.031 1.125,-1.125 0.838,-1.406 2.25,-2.25 1.752,-0.918 3.129,-0.316 4.312,0.188 l 0.281,-4.875 c 0,0 2.748,0.234 3.844,-1.406 1.084,-1.633 0.275,-4.031 0.275,-4.031 l 4.594,-4.406 c 0,0 -1.066,-0.867 -2.438,-1.688 -1.365,-0.82 -4.125,-0.469 -4.125,-0.469 l -0.469,-3 2.719,-3 -2.531,-3.562 c 0,0 -3.785,-0.039 -5.156,-1.406 -1.365,-1.363 -4.377,-2.988 -6.562,-2.719 -2.18,0.277 -10.084,-1.34 -12,-2.438 -0.398,-0.227 -0.885,-0.328 -1.406,-0.281 h 0.006 z" />
      </g>
      <path
         id="path5389"
         fill="none"
         stroke="#000000"
         stroke-width="0.5"
         stroke-dasharray="0.4, 0.4"
         d="m 664.762,984.809 0.281,-4.875 c 0,0 2.748,0.234 3.844,-1.406 1.084,-1.633 0.275,-4.031 0.275,-4.031 l 4.594,-4.406 c 0,0 -1.066,-0.867 -2.438,-1.688 -1.365,-0.82 -4.125,-0.469 -4.125,-0.469 l -0.469,-3 2.719,-3 -2.531,-3.562 c 0,0 -3.785,-0.039 -5.156,-1.406 -1.365,-1.363 -4.377,-2.988 -6.562,-2.719 -2.18,0.277 -10.084,-1.34 -12,-2.438 -0.398,-0.227 -0.885,-0.328 -1.406,-0.281 -1.547,0.148 -3.51,1.355 -5.344,2.156 -0.65,-0.273 -1.377,-0.609 -2.062,-0.844 -0.973,1.367 0.797,2.562 1.5,3.469 0.902,1.156 -1.67,1.266 -3.469,0.75 -1.793,-0.508 -2.443,1.582 -3.469,0.938 -1.02,-0.637 -2.953,1.402 -3.469,4.219 -0.51,2.82 2.479,3.609 3.375,5.531 0.902,1.922 0.082,2.27 -1.969,2.906 -2.045,0.645 -3.223,3.363 -4.125,5.156 -0.896,1.793 -0.955,-0.656 -2.625,-0.656 -1.664,0 -3.873,2.59 -5.156,4.125 -1.277,1.543 -1.91,-0.809 -2.812,0.469 -0.896,1.285 -0.035,4.488 -0.938,6.281 -0.896,1.793 -2.742,3 -5.438,3 -2.689,0 -2.982,-1.488 -2.344,-3.281 0.645,-1.793 -0.111,-4.023 -1.781,-3 -0.521,0.324 -1.043,0.398 -1.576,0.527" />
      <g
         id="g350">
        <path
           id="path5384"
           fill="none"
           stroke="#000000"
           stroke-width="0.5"
           d="m 913.574,767.75 c -0.035,0.004 -0.064,0.023 -0.094,0.027 -0.281,0.082 -0.486,0.266 -0.639,0.535 -0.035,0.062 -0.076,0.117 -0.1,0.188 -0.088,0.191 -0.135,0.508 -0.193,0.766 -0.129,0.598 -0.234,1.227 -0.381,2.168 -0.006,0 -0.012,-0.004 -0.023,-0.012 -0.023,0.129 -0.047,0.23 -0.076,0.387 -0.721,4.348 1.031,2.961 -4.406,4.406 -5.432,1.453 -2.514,-2.523 -4.688,2.906 -1.629,4.078 -2.033,2.016 -4.424,1.344 -0.381,-0.105 -0.82,-0.176 -1.33,-0.184 -0.533,0 -1.137,0.059 -1.84,0.246 -2.713,0.727 -3.521,0.559 -4.154,0.746 -0.627,0.191 -1.066,0.738 -3.064,2.91 -0.762,0.84 -1.131,1.348 -1.406,1.781 -0.006,0 -0.018,0 -0.029,-0.004 -0.029,0.047 -0.129,0.152 -0.158,0.191 -0.322,-0.227 -0.551,-0.34 -0.75,-0.375 -0.398,-0.062 -0.744,-0.086 -1.078,-0.086 h -0.006 c -0.293,0.004 -0.551,0.039 -0.803,0.082 -0.029,0.004 -0.07,0.004 -0.105,0.012 -0.182,0.039 -0.363,0.094 -0.533,0.152 -0.094,0.035 -0.188,0.07 -0.275,0.109 0,0.008 -0.006,0.012 -0.012,0.012 -0.023,0.012 -0.059,0.023 -0.094,0.035 -0.088,0.043 -0.182,0.094 -0.27,0.148 -0.029,0.035 -0.059,0.07 -0.105,0.105 -0.158,0.098 -0.316,0.156 -0.469,0.281 l -0.094,0.188 c -0.586,0.504 -1.137,1.066 -1.969,1.688 -0.205,0.152 -0.416,0.273 -0.656,0.375 h -0.188 c -0.023,0.004 -0.064,-0.012 -0.094,0 -0.305,0.098 -0.639,0.156 -0.984,0.191 -0.346,0.031 -0.709,0.023 -1.078,-0.004 -0.088,-0.012 -0.188,0.004 -0.281,0 h -0.094 c -0.773,-0.105 -1.582,-0.293 -2.385,-0.457 -0.088,-0.023 -0.176,-0.035 -0.27,-0.055 -0.428,-0.094 -0.85,-0.168 -1.266,-0.234 -0.428,-0.059 -0.838,-0.105 -1.236,-0.105 -0.258,0 -0.457,0.043 -0.656,0.094 -0.229,0.066 -0.393,0.172 -0.562,0.281 -0.029,0.023 -0.059,0.035 -0.094,0.047 -0.094,0.07 -0.176,0.148 -0.252,0.23 -0.129,0.133 -0.223,0.281 -0.316,0.426 -0.1,0.148 -0.193,0.289 -0.27,0.43 -0.064,0.129 -0.123,0.258 -0.188,0.367 -0.111,0.184 -0.258,0.305 -0.404,0.406 -0.24,0.191 -0.533,0.27 -1.002,0.062 -0.27,-0.109 -0.41,-0.223 -0.562,-0.375 -0.07,-0.051 -0.111,-0.094 -0.152,-0.152 -0.023,-0.023 -0.059,-0.039 -0.07,-0.07 -0.023,-0.016 -0.047,-0.035 -0.059,-0.059 -0.105,-0.188 -0.199,-0.414 -0.188,-0.656 0,-0.023 -0.006,-0.062 0,-0.094 0.018,-0.258 0.164,-0.621 0.281,-0.938 0.1,-0.273 0.217,-0.613 0.375,-0.938 0.041,-0.086 0.141,-0.188 0.188,-0.273 0.223,-0.453 0.48,-0.973 0.75,-1.5 0.328,-0.668 0.516,-1.266 0.586,-1.816 0.064,-0.551 0.023,-1.055 -0.105,-1.535 -0.135,-0.48 -0.34,-0.934 -0.604,-1.391 -0.264,-0.449 -0.58,-0.891 -0.908,-1.359 -0.322,-0.445 -0.633,-0.859 -0.961,-1.211 -0.334,-0.348 -0.686,-0.633 -1.084,-0.809 h -0.006 c -0.809,-0.348 -1.822,-0.27 -3.299,0.52 -0.1,0.059 -0.17,0.129 -0.275,0.188 -0.398,0.234 -0.727,0.371 -1.031,0.469 -0.117,0.043 -0.217,0.059 -0.316,0.078 -0.152,0.047 -0.311,0.109 -0.434,0.109 h -0.094 c -0.029,0 -0.07,0.008 -0.094,0 -0.193,-0.016 -0.322,-0.105 -0.469,-0.188 -0.053,-0.023 -0.094,-0.07 -0.141,-0.105 -0.029,-0.016 -0.053,-0.035 -0.076,-0.059 -0.059,-0.039 -0.117,-0.07 -0.158,-0.117 -0.064,-0.062 -0.111,-0.152 -0.158,-0.234 -0.041,-0.047 -0.088,-0.082 -0.123,-0.141 -0.457,-0.668 -0.826,-1.617 -1.406,-2.438 -0.393,-0.543 -0.703,-0.668 -0.99,-0.543 -0.111,0.051 -0.217,0.129 -0.322,0.25 -0.07,0.082 -0.135,0.172 -0.199,0.27 -0.064,0.102 -0.129,0.23 -0.188,0.34 -0.457,0.844 -0.932,2.129 -1.676,3.621 -0.229,0.453 -0.439,0.816 -0.656,1.207 v 0.012 c -0.018,0.035 -0.041,0.066 -0.059,0.094 -1.295,2.34 -2.496,3.91 -4.066,6.383 -1.395,2.184 -3.861,3.672 -6.352,6.18 -0.832,0.832 -1.67,1.781 -2.461,2.914 0,0 -3.691,0.531 -5.812,3.188 -0.088,0.105 -0.188,0.176 -0.281,0.281 -1.6,1.715 -4.166,2.379 -6.727,3.867 -0.053,0.027 -0.1,0.047 -0.146,0.074 -0.457,0.27 -0.92,0.57 -1.365,0.91 -0.451,0.34 -0.896,0.715 -1.324,1.148 -2.191,0.086 -4.072,0.262 -5.812,0.469 0.041,-0.152 0.006,-0.281 -0.07,-0.395 -0.023,-0.027 -0.041,-0.047 -0.064,-0.07 -0.07,-0.07 -0.176,-0.117 -0.287,-0.156 -0.135,-0.047 -0.299,-0.07 -0.48,-0.078 -0.105,-0.004 -0.193,-0.023 -0.305,-0.012 -0.334,0.023 -0.715,0.09 -1.137,0.242 -1.857,0.66 -1.764,0.551 -3.75,-0.375 -1.992,-0.934 -0.803,1.691 -1.594,1.031 -0.797,-0.668 -5.139,-0.5 -7.125,-1.688 -1.992,-1.195 -3.961,0.152 -5.812,-0.375 -0.469,-0.137 -1.066,-0.137 -1.688,-0.094 -0.252,0.012 -0.498,0.059 -0.75,0.094 l -0.012,-0.02 c -0.029,0.008 -0.059,0.012 -0.082,0.02 l 1.125,0.844 v 5.719 0.273 l -1.031,-0.188 -0.75,2.25 -8.344,3.75 -1.5,-1.781 v 2.344 l -1.5,0.188 -1.875,0.281 -2.062,0.281 -1.125,-0.656 -2.344,-1.312 -0.375,0.938 -2.156,5.25 -2.062,-3.094 -4.875,-0.75 -0.281,-1.031 c -0.152,0.023 -0.211,0.082 -0.375,0.094 -0.562,0 -1.406,-0.281 -1.969,-0.844 -0.844,-0.844 -0.562,-2.25 -1.406,-3.094 -1.125,-0.844 -5.062,-1.125 -3.938,-1.969 3.656,-3.375 5.906,0.852 2.531,-5.906 0,-0.281 -0.562,-0.281 -0.844,0 -0.281,0.562 0,1.688 -0.562,1.969 -1.125,0.562 -2.531,0 -3.656,0 -1.125,0 -2.531,0.57 -3.656,0.281 -2.537,-0.844 -7.312,-5.062 -11.531,-4.5 -1.693,0.281 4.5,6.469 4.219,7.031 -0.844,1.695 -3.656,1.125 -5.062,2.25 -0.844,0.844 -0.562,2.812 -1.688,3.375 -4.225,1.695 -5.906,-5.625 -6.75,-6.75 l -6.469,-3.938 c -0.305,-1.961 2.602,-3.32 4.219,-4.688 -0.018,-0.047 0.018,-0.141 0,-0.188 -0.229,-0.602 -0.393,-1.27 -0.375,-2.062 -0.123,0.129 -0.252,0.234 -0.375,0.375 l 0.375,-0.844 c -0.023,0.176 0,0.312 0,0.469 0.217,-0.215 0.445,-0.398 0.656,-0.562 -0.146,-0.121 -0.369,-0.238 -0.562,-0.375 -0.387,-0.258 -0.814,-0.555 -1.406,-0.844 -0.604,-0.355 -2.08,0.078 -3.562,0.656 -0.006,0.031 0.006,0.07 0,0.094 -0.369,1.465 -0.926,1.301 -1.781,0.75 -0.996,0.48 -2.25,1.031 -2.25,1.031 -0.691,-0.684 -0.299,-1.703 -0.562,-2.531 -0.281,-0.039 -0.521,-0.105 -0.844,-0.188 -0.34,-0.082 -0.521,-0.25 -0.75,-0.375 -0.223,0.094 -0.428,0.207 -0.656,0.281 -0.281,0 -0.562,0.844 -1.125,0.562 -0.48,-0.715 -0.393,-1.785 -1.031,-2.625 -1.277,0.199 -2.549,0.094 -3.844,0.188 -2.537,0.184 -4.734,-1.301 -6,-0.938 -0.844,0.242 -1.195,-0.961 -1.5,-2.531 -0.275,-0.18 -0.562,-0.332 -0.844,-0.562 -3.1,-2.25 1.125,-4.5 -3.938,-5.062 -7.881,-1.406 1.969,7.055 -6.75,5.812 -0.568,1.125 -0.562,2.062 -1.406,2.062 -0.486,0.113 -1.043,-0.098 -1.594,-0.469 -1.043,-0.156 -2.227,-0.449 -1.875,-1.781 0.346,-1.328 0.756,-2.441 -0.281,-1.875 -0.352,0.195 -0.662,0.535 -0.938,0.469 -0.281,-0.059 -0.41,-0.352 -0.188,-1.406 0.217,-1.055 0.223,-1.34 -2.062,-1.875 -0.24,-0.051 -0.428,-0.062 -0.656,-0.094 -0.158,-0.152 -0.316,-0.379 -0.562,-0.375 -0.252,0.008 -0.428,0.34 -1.031,0.375 -0.609,0.035 -1.02,-0.961 -1.781,-1.219 -0.768,-0.258 -1.207,0.984 -1.688,2.344 -0.562,1.406 4.5,2.531 3.375,3.375 -3.381,2.812 -8.156,3.094 -11.531,5.062 -0.562,0.281 0,1.688 -0.562,1.969 -2.256,1.125 -5.344,-0.562 -7.031,0.844 -1.412,1.125 -0.844,3.375 -2.25,4.5 -0.562,0.562 -1.125,-1.406 -1.969,-1.125 -2.537,0.562 -2.906,3.938 -4.594,5.062 -0.85,0.844 -2.531,-0.555 -3.375,0.281 -0.85,0.562 0,2.25 -0.844,3.094 -1.131,1.406 -4.219,-1.125 -5.062,-1.125 -7.037,1.125 -8.156,6.469 -10.406,10.969 -0.562,1.125 -0.562,-2.812 -1.688,-3.656 -0.785,-1.035 -1.799,-2.812 -2.812,-2.062 -0.293,0.211 -0.287,0.434 -0.188,0.656 h -0.094 c 0,0.031 0,0.066 0,0.094 -0.029,0.816 -1.652,1.992 -1.125,2.344 0.539,0.363 0.592,0.816 1.5,2.625 0.896,1.816 1.969,5.438 1.969,5.438 l 0.281,0.375 c 0.58,-0.449 1.271,-0.973 2.062,-1.5 0.012,0.02 0.076,-0.012 0.088,0 0.896,0.938 1.805,1.781 2.812,2.438 0.568,0.281 2.531,0.656 2.812,2.344 0.85,3.945 -2.807,2.531 -3.375,5.625 0.334,0.266 0.662,0.504 0.938,0.75 l -1.869,1.969 1.406,1.594 2.062,-1.781 c 0.674,0.922 1.189,2.07 1.781,3.469 l -0.188,1.406 c 0,0 -2.145,0.137 -1.688,1.219 0.451,1.09 0.498,2.32 1.5,1.688 0.281,-0.18 1.125,-0.527 1.781,-0.844 0.322,0.82 0.615,1.512 1.031,2.531 1.242,0.09 2.186,0.301 3,1.875 0.199,0.395 -0.832,0.98 -0.375,1.312 1.746,1.309 4.242,-0.719 6.375,1.406 1.863,1.863 2.232,4.734 3.938,6.469 l 0.562,0.281 c 4.5,3.094 16.688,7.312 16.406,14.625 -0.281,7.602 -1.969,5.906 -7.875,4.5 -0.568,0 -1.125,0.281 -1.406,0.844 -0.568,2.812 1.125,5.906 -1.688,8.156 -2.537,1.969 -14.438,4.781 -14.719,9.281 0,0 6.75,9.281 6.75,9.562 0.281,0.281 -3.662,3.656 -2.25,4.781 3.094,2.812 6.188,-1.41 3.656,7.875 0,0.562 -0.562,1.406 -1.125,1.406 -9.006,-2.531 -1.969,-7.031 -6.188,-7.312 -2.256,0 -4.219,1.969 -6.469,1.688 -1.131,-0.281 -0.844,-2.25 -1.688,-2.531 -1.693,-0.562 -3.375,0.844 -4.781,0.281 -0.568,-0.281 0.562,-1.969 0,-1.969 -3.381,0.281 -0.281,4.781 -1.125,5.062 -3.943,1.125 -10.406,-0.562 -14.062,0.844 -1.131,0.562 -0.562,2.531 -1.688,3.094 -1.131,0.844 -2.531,-0.562 -3.656,0.281 -0.633,0.211 -0.135,1.043 -0.094,1.688 -1.43,-1.129 -2.883,-2.156 -3.75,-2.156 -1.922,0 -1.459,1.195 -3.375,0.938 -1.922,-0.258 -1.482,0.195 -2.25,1.219 -0.469,0.629 -1.418,0.41 -2.156,0.094 l -0.188,0.188 c -0.281,-0.562 -1.688,-0.562 -1.969,-1.125 -0.281,-0.563 1.406,-0.281 1.125,-0.844 -1.131,-3.656 -9,0.844 -11.25,-1.688 0,0 0.562,-0.281 0.562,-0.562 -1.693,-1.125 0,3.656 -0.562,5.625 0,1.125 -5.344,7.594 -7.312,5.625 -1.131,-1.125 1.969,-2.812 1.125,-3.938 -0.287,-0.273 -1.125,0.844 -1.688,0.844 -0.568,0 -1.406,-0.281 -1.688,-0.844 -0.568,-0.844 1.406,-1.969 0,-3.094 -1.131,-0.844 -1.688,-2.25 -2.812,-2.812 -0.85,-0.562 -1.969,0.844 -3.094,0.562 -0.562,-0.562 0,-1.969 -0.562,-2.531 -1.412,-1.125 -1.125,3.938 -5.625,2.531 l -1.031,0.188 c 0.252,1.801 3.516,2.449 2.438,5.156 -0.281,0.562 -1.406,0.281 -1.688,0.562 -0.387,0.645 -1.178,3.176 -1.875,5.719 l 4.688,6.75 c 1.746,0.207 4.061,0.469 4.219,0.469 0.023,0.031 -0.023,0.066 0,0.094 0.07,0.07 0.076,0.113 0.094,0.188 0,0.055 0.012,0.137 0,0.188 -0.006,0.031 0.006,0.066 0,0.094 -0.053,0.148 -0.193,0.23 -0.281,0.375 -0.018,0.031 0.012,0.07 0,0.094 -0.094,0.152 -0.152,0.328 -0.188,0.469 -0.012,0.023 0.006,0.07 0,0.094 -0.006,0.055 -0.018,0.137 0,0.188 0,0.031 -0.006,0.07 0,0.094 0.018,0.047 0.047,0.055 0.094,0.094 0.018,0.031 -0.029,0.066 0,0.094 0.334,0.406 0.75,0.691 1.125,1.031 1.154,1.066 2.455,1.898 3.938,2.531 0.252,0.129 0.516,0.211 0.75,0.281 0.58,0.172 1.131,0.219 1.594,0.094 0.158,-0.039 0.316,-0.117 0.469,-0.188 0.059,-0.027 0.123,-0.059 0.188,-0.094 0.205,-0.117 0.369,-0.297 0.562,-0.469 0.305,-0.27 0.568,-0.602 0.844,-0.938 0.111,-0.141 0.258,-0.234 0.375,-0.375 0.785,-1.055 1.482,-2.18 2.344,-2.719 0.088,-0.059 0.188,-0.145 0.275,-0.188 0.094,-0.039 0.188,-0.07 0.281,-0.094 0.07,-0.016 0.123,0.012 0.188,0 0.182,-0.023 0.363,-0.035 0.562,0 0.416,0 0.727,-0.004 1.031,0.094 0.287,0.09 0.498,0.254 0.75,0.375 l 0.188,-0.469 1.5,1.781 c -1.582,5.234 -3.809,10.812 -2.062,12.094 0.768,0.562 2.092,1.121 3.469,1.594 l -0.557,2.438 -0.094,0.281 h -0.188 l -0.656,-0.188 c -0.211,1.547 -0.029,2.578 1.969,3.375 2.713,1.09 2.303,2.016 1.219,3.281 -0.129,0.152 -0.299,0.223 -0.469,0.281 -0.176,0.066 -0.363,0.094 -0.562,0.094 -0.135,0 -0.328,0.02 -0.469,0 0.721,2.387 1.822,6.723 0.188,8.812 -2.309,2.949 -3.229,4.488 -1.688,6.281 1.535,1.793 0.006,3.879 1.031,5.156 1.02,1.285 -0.193,4.418 1.219,4.031 1.406,-0.379 2.648,-1.465 2.906,-3 0.17,-1.047 1.184,-1.152 2.332,-1.441 -0.404,1.266 -0.65,2.27 -1.389,3.699 -0.615,1.188 -1.324,1.891 -1.764,2.629 -0.445,0.738 -0.615,1.508 -0.152,2.809 0.457,1.301 0.24,2.203 -0.07,3 -0.316,0.797 -0.738,1.48 -0.697,2.359 0.076,1.766 0.076,2.531 0,4.523 -0.076,1.992 -0.152,2.914 0.691,3.91 0.398,1.938 -0.029,3.832 -0.264,5.543 0.979,0.34 1.699,0.648 2.438,0.719 0.691,0.066 0.803,0.383 1.031,0.656 0.223,0.277 0.586,0.422 1.781,0.188 2.385,-0.461 2.379,-0.836 3.375,-0.375 0.492,0.234 0.662,0.48 1.002,0.57 0.334,0.086 0.838,0.016 1.998,-0.383 0.217,-0.07 0.445,-0.109 0.686,-0.121 0.223,-0.012 0.451,0 0.691,0.027 0.486,0.059 0.984,0.188 1.482,0.324 0.076,0.023 0.152,0.035 0.234,0.051 0.188,-0.914 1.699,-0.961 1.219,-1.688 0.873,0.105 1.688,0.312 2.531,0.938 0.375,0.281 0.598,0.527 0.762,0.727 0.158,0.207 0.252,0.371 0.363,0.492 0.105,0.125 0.223,0.211 0.445,0.23 0.217,0.023 0.539,-0.02 1.055,-0.137 0.258,-0.059 0.492,-0.07 0.715,-0.059 0.217,0.02 0.416,0.059 0.615,0.125 0.387,0.129 0.738,0.328 1.107,0.496 0.363,0.172 0.738,0.316 1.189,0.34 0.223,0.012 0.463,0 0.732,-0.051 0.264,-0.055 0.562,-0.148 0.891,-0.289 1.312,-0.562 1.828,-0.844 2.121,-1.066 0.293,-0.222 0.363,-0.387 0.785,-0.715 0.205,-0.156 0.475,-0.27 0.791,-0.352 0.311,-0.074 0.674,-0.121 1.061,-0.152 0.773,-0.059 1.664,-0.059 2.555,-0.152 1.781,-0.188 2.25,-0.188 4.219,0.469 1.969,0.657 3,0.562 3.75,1.594 0.205,0.289 0.41,0.664 0.633,1.109 0.217,0.445 0.439,0.961 0.68,1.516 0.492,-0.074 1.154,0.082 1.875,-0.281 1.324,-0.66 0.445,-1.727 0.844,-2.062 0.393,-0.328 1.102,-0.062 1.5,-1.594 0.393,-1.523 -0.293,-2.195 -1.219,-2.531 -0.621,-0.215 -1.084,-0.785 -1.406,-2.156 -0.158,-0.094 -0.334,-0.164 -0.469,-0.281 -0.568,0 -1.125,0.57 -1.406,0.281 -0.281,-0.562 0,-1.125 0.562,-1.406 1.125,-0.844 0,-3.094 -0.562,-4.219 -0.568,-0.562 -0.844,1.406 -1.406,1.125 -1.131,-0.562 0,-3.75 -1.406,-3.75 -0.141,0 -0.211,0.082 -0.281,0.188 0.539,-0.785 1.16,-1.703 1.406,-2.438 0.562,-1.125 -0.568,-2.812 0.562,-3.094 1.125,-0.844 2.525,0.57 3.938,0.281 4.5,-0.844 8.15,-5.344 12.094,-7.031 1.688,-0.562 3.088,0.094 4.219,-1.031 1.125,-1.125 0.838,-1.406 2.25,-2.25 1.752,-0.918 3.129,-0.316 4.312,0.188 0.674,0.293 1.289,0.535 1.875,0.469 0.967,-0.105 2.977,-1.547 3.562,-2.062 -0.305,-0.121 -0.498,-0.273 -0.656,-0.469 -1.119,-1.199 0.662,-3.305 5.344,1.125 0.955,1.203 1.002,2.094 1.312,3.188 0.053,0.195 0.012,0.359 0.094,0.562 -1.33,-0.832 -1.781,0.562 -1.781,0.562 0,0 2.15,0.781 -0.094,1.406 -0.727,0.207 -1.365,0.629 -2.062,0.469 -0.568,-0.121 -0.363,0.711 -1.406,0.562 1.072,0.996 0.75,1.875 0.75,1.875 -0.316,-0.141 -0.645,-0.262 -0.938,-0.375 -0.832,-0.496 -0.902,-1.125 -1.406,-0.656 l -0.188,0.75 c 0,0 0.375,0.797 0.656,1.125 0.281,0.328 -0.281,1.031 0.375,1.875 0.656,0.844 0.469,2.109 0.469,2.625 0,0.516 0.375,0.703 0.938,0.656 0.563,-0.047 1.031,0 1.031,0 l -1.125,0.656 0.844,0.75 c 0,0 -0.516,-0.188 -0.562,0.375 -0.046,0.563 0.328,0 0.469,0.469 0.141,0.469 -0.375,1.922 -0.188,2.25 0.187,0.328 0.281,0.562 0.469,0.844 0.188,0.282 -0.188,0.141 0,0.75 0.188,0.609 0.188,0.422 0.656,0.375 0.468,-0.047 0.885,0.164 1.219,0.094 0.328,-0.062 0.732,-0.352 1.031,-0.281 0.293,0.07 0.75,0.281 0.75,0.281 0,0 -0.896,-0.191 -1.125,-0.094 -0.135,0.059 -0.422,0.059 -0.656,0.094 -0.176,0.031 -0.334,0.094 -0.469,0.094 -0.334,0 -0.592,-0.07 -0.656,0.094 -0.07,0.164 0.27,0.441 -0.094,0.469 -0.369,0.035 -0.451,0.117 -0.281,0.281 0.164,0.164 0.779,0.219 0.75,0.844 -0.035,0.633 -0.469,0.816 0.094,0.844 0.562,0.035 1.148,0.188 1.219,0.75 0.064,0.562 0.17,0.691 0.469,0.656 0.293,-0.035 -0.111,0.398 0.188,0.562 0.293,0.164 0.604,0.723 0.938,0.75 0.328,0.035 1.266,0.969 1.5,1.594 0.229,0.633 0.732,1.203 0.469,1.5 -0.27,0.301 -0.234,0.551 0,0.75 0.229,0.199 0.387,0.105 0.656,-0.094 0.264,-0.199 0.48,-0.047 0.281,0.281 -0.199,0.336 -0.475,0.527 -0.938,0.094 l -0.469,-0.375 c 0,0 -0.141,0.492 0.094,0.656 0.229,0.172 0.768,0.152 0.938,0.281 0.164,0.137 -0.012,0.551 0.088,0.75 0.1,0.199 0.252,0.141 0.281,0 0.029,-0.109 0.088,-0.285 0.094,-0.375 v 0.469 l 0.375,0.094 h -0.281 c 0,0 -0.029,0.164 0.094,0.281 0.129,0.117 0.375,0.188 0.375,0.188 v 0.094 c 0,0 -0.082,0.211 0.094,0.281 0.176,0.07 0.223,0.012 0.375,-0.094 0.152,-0.106 0.176,-0.141 0.375,-0.094 0.199,0.047 0.404,0.129 0.281,0.281 -0.117,0.152 -0.047,0.469 0,0.75 0.047,0.281 0.129,0.316 0.375,0.375 0.246,0.059 0.188,0 0.188,0 l -0.281,-0.281 c 0,0 0.094,0.012 0.094,-0.094 0,-0.106 -0.117,-0.246 -0.094,-0.375 0.029,-0.129 0.188,-0.012 0.188,-0.281 0,-0.269 0.047,-0.34 -0.188,-0.562 -0.235,-0.222 -0.293,-0.387 -0.188,-0.469 0.105,-0.082 0.574,0.117 0.75,0.375 0.176,0.258 -0.047,0.48 0.562,0.469 0.609,-0.011 1.219,-0.188 1.219,-0.188 l -0.469,-0.562 -0.281,0.094 -0.094,-0.094 0.375,-0.375 c 0,0 -0.246,-0.117 -0.281,-0.375 -0.035,-0.258 0.316,-0.469 0.375,-0.656 0.059,-0.187 -0.316,-0.551 -0.088,-0.75 0.223,-0.199 0.188,-0.375 0.188,-0.375 l -0.281,-0.094 v -0.094 l 0.375,0.094 c 0,0 0.352,-0.234 0.469,-0.469 0.117,-0.235 0,-0.844 0,-0.844 l 0.281,0.281 c 0.041,-0.012 0.164,-0.059 0.188,-0.188 0.035,-0.258 0.223,-0.527 0.088,-0.656 l -0.463,-0.469 0.562,0.188 c 0.023,-0.023 0.094,-0.109 0.094,-0.281 0,-0.34 0.199,-0.551 0.275,-0.75 0.082,-0.199 0.223,-0.492 0,-0.656 -0.217,-0.164 -0.586,-0.188 -0.75,-0.281 -0.164,-0.093 0.094,-0.352 0.094,-0.562 0,-0.21 -0.281,-0.258 -0.281,-0.469 0,-0.211 0.199,-0.316 0.188,-0.562 0.018,0.047 0.094,0.043 0.094,0.094 0,0.363 -0.135,0.504 0,0.656 0.141,0.152 0.416,0.293 0.281,0.469 -0.129,0.176 -0.111,0.293 0.094,0.281 0.211,-0.012 0.469,-0.094 0.469,-0.094 0,0 -0.094,0.152 0,0.375 0.094,0.223 0.123,0.457 0.281,0.562 0.164,0.105 0.188,0.094 0.188,0.094 0,0 -0.305,0.047 -0.469,0.281 -0.164,0.234 -0.188,0.539 -0.188,0.75 0,0.211 0.094,0.281 0.094,0.281 0,0 0.059,-0.199 0.188,-0.469 0.129,-0.27 0.375,-0.445 0.562,-0.562 0.187,-0.117 0.27,-0.234 0.375,-0.094 0.053,0.07 0.141,0.207 0.188,0.281 0.035,0.01 0.059,0.059 0.094,0 0.164,-0.223 0.281,-0.41 0.375,-0.188 0.094,0.222 0.023,0.512 0.188,0.281 0.164,-0.223 0.609,-0.691 0.562,-1.031 -0.047,-0.34 -0.047,-0.973 -0.281,-1.406 -0.234,-0.433 -0.562,-1.125 -0.562,-1.125 l 0.375,0.281 c -0.029,-0.082 -0.053,-0.258 0,-0.375 0.105,-0.234 -0.105,-0.094 -0.188,-0.375 -0.083,-0.281 -0.088,-0.562 0.094,-0.375 0.188,0.188 0.293,0.141 0.469,-0.188 0.176,-0.329 0.609,-1.148 0.562,-1.312 -0.047,-0.164 -0.562,-0.562 -0.562,-0.562 0,0 0.609,0.422 0.656,0.469 0.047,0.047 0.293,-0.105 0.375,-0.375 0.082,-0.27 0.035,-0.586 0.188,-1.031 0.153,-0.445 0.34,-0.902 0.375,-1.219 0.035,-0.317 -0.105,-0.492 0.188,-1.406 0.17,-0.531 0.223,-1.023 0.281,-1.5 0.047,-0.34 0.111,-0.691 0.188,-0.938 0.182,-0.578 0.521,-1.336 0.75,-1.781 0.234,-0.445 0.469,-0.656 0.469,-0.656 0,0 0.111,0.102 0.281,0.188 h 0.094 c 0.164,0.078 0.34,0.176 0.562,0.188 0.387,0.023 0.773,0.172 1.125,0.281 0.117,0.035 0.287,0.07 0.375,0.094 0.369,0.102 1.002,0.125 1.312,0.469 0.316,0.348 0.855,0.598 1.219,0.844 0.369,0.246 1.125,0.281 1.125,0.281 v -0.375 c 0,0 -0.193,-0.191 -0.375,-0.375 -0.182,-0.18 -0.363,-0.398 0.281,0 0.65,0.398 0.99,0.656 0.656,0.656 -0.328,0 -0.293,-0.152 -0.375,0 -0.082,0.148 -0.076,0.469 0.188,0.75 0.27,0.281 1.137,0.781 1.219,1.125 0.082,0.348 0.428,0.258 1.125,0.938 0.697,0.68 1.441,1.09 1.688,1.406 0.252,0.316 0.252,0.535 0.75,0.75 0.498,0.219 0.99,0.305 1.5,0.469 0.516,0.164 0.609,0.523 0.938,0.375 0.334,-0.145 0.182,-0.023 0.281,0.375 0.099,0.398 0.158,0.234 0.469,1.031 0.316,0.797 0.627,1.414 0.844,1.875 0.217,0.465 0.375,0.676 0.375,0.938 0,0.266 0.803,0.352 0.75,1.312 -0.047,0.961 -0.451,2.285 -0.469,2.812 -0.018,0.535 -0.246,0.805 -0.281,1.219 -0.029,0.418 0.07,1.859 0.281,2.719 0.217,0.863 0.504,1.402 0.469,1.781 -0.029,0.383 -0.545,0.492 0,1.219 0.551,0.727 0.979,1.57 1.406,1.969 0.434,0.398 0.826,1.414 1.125,1.875 0.152,0.234 0.398,0.5 0.75,0.75 0.357,0.254 0.814,0.5 1.219,0.844 0.41,0.348 0.92,0.898 1.406,1.406 l 0.943,0.844 c 0.123,0.105 0.264,0.312 0.375,0.375 0.369,0.234 0.99,0.699 1.594,1.219 0.598,0.523 1.178,1.098 1.594,1.5 0.598,0.594 1.471,1.133 2.25,1.5 0.293,0.141 0.615,0.316 0.844,0.375 0.826,0.219 1.441,0.469 1.875,1.031 0.428,0.562 0.896,0.395 1.031,0.656 0.129,0.27 0.574,0.195 0.844,0.094 0.264,-0.098 0.938,0.75 0.938,0.75 0,0 -1.283,0.105 -1.875,-0.094 -0.598,-0.199 -0.984,-0.293 -1.312,-0.094 -0.334,0.199 -2.209,-0.504 -2.438,-0.938 -0.234,-0.426 -0.305,-0.539 -1.031,-0.938 -0.281,-0.145 -0.234,-0.039 -0.375,-0.094 0.012,-0.074 -0.164,-0.281 -0.75,-0.75 -2.344,-1.875 -3.75,-3.844 -4.969,-4.312 -1.219,-0.468 -0.562,0.938 -1.781,0 -1.219,-0.938 -3,-2.156 -1.781,-1.781 1.219,0.375 4.969,2.719 3.094,0.844 -1.875,-1.875 -3.656,-4.125 -4.5,-4.125 -0.844,0 0.188,2.156 -2.062,0 -0.908,-0.867 -1.512,-1.453 -1.969,-1.875 -0.258,-0.234 -0.65,-0.539 -0.656,-0.469 -0.012,0.07 0.281,0.5 0.562,0.938 0.217,0.352 0.404,0.586 0.844,1.219 2.625,3.844 3.562,4.406 5.531,6 2.156,2.25 3.469,1.688 3.281,2.625 -0.188,0.937 -0.188,2.156 1.125,2.531 1.313,0.375 -0.281,-0.75 0.75,-0.562 1.031,0.188 2.906,0.75 1.969,-0.281 -0.445,-0.484 0.211,-0.262 0.75,-0.094 -0.018,0.188 -0.006,0.457 0.281,0.656 0.428,0.301 1.061,0.523 1.031,0.75 -0.035,0.234 -0.791,0.02 -0.656,0.281 0.129,0.27 0.791,1.027 0.562,1.125 -0.234,0.102 -1.412,-0.367 -1.875,-0.938 -0.463,-0.562 -0.656,-0.562 -0.656,-0.562 l 0.088,0.469 -0.469,-0.375 -0.088,0.469 c 0,0 0.527,0.301 0.562,0.562 0.029,0.27 -0.018,0.734 -0.281,0.562 -0.27,-0.164 -0.375,-0.094 -0.375,-0.094 l 0.094,0.375 -1.219,-1.312 c 0,0 -0.117,-0.07 -0.281,0.094 -0.17,0.172 -0.469,0.656 -0.469,0.656 0,0 0.334,0.02 0.469,0.281 0.1,0.211 0.252,0.312 0.469,0.469 0.059,0.047 0.111,0.023 0.188,0.094 0.328,0.336 0.188,0.352 0.188,0.75 0,0.398 0.135,0.594 -0.094,0.656 -0.234,0.07 -0.182,0.105 0.188,0.469 0.363,0.371 1.342,0.875 1.312,1.5 -0.035,0.633 0.562,0.492 0.562,0.656 0,0.172 0.439,0.781 0.938,0.844 0.492,0.07 0.557,0.512 0.656,0.938 0.1,0.434 0.322,0.469 0.656,0.469 0.328,0 -0.082,0.629 0.281,0.656 0.363,0.035 1.219,0.395 1.688,1.219 0.463,0.832 1.828,1.359 2.062,1.688 0.229,0.336 -0.006,0.797 0.562,1.125 0.562,0.336 1.512,0.359 1.781,0.656 0.264,0.301 0.182,0.641 0.75,0.938 0.188,0.102 0.539,0.316 0.844,0.469 0.176,0.129 0.287,0.199 0.469,0.281 0.023,0.02 0.064,-0.012 0.094,0 0.158,0.07 0.293,0.172 0.562,0.188 0.48,0.043 1.09,0.445 1.5,0.938 0.029,0.031 0.059,0.047 0.088,0.094 0.035,0.047 -0.012,0.059 0,0.094 0.041,0.059 0.053,0.141 0.094,0.188 -0.082,-0.062 -0.223,-0.07 -0.281,-0.094 -0.029,-0.016 -0.053,-0.074 -0.088,-0.094 -0.035,0 -0.07,0.01 -0.094,0 -0.082,-0.023 -0.188,-0.062 -0.281,-0.094 -0.07,-0.012 -0.199,0.023 -0.281,0 -0.234,-0.059 -0.457,-0.156 -0.656,-0.188 -0.023,0.012 -0.094,0 -0.094,0 -0.088,-0.117 -0.246,-0.211 -0.375,-0.375 -0.305,-0.375 -0.609,-0.773 -0.75,-0.188 -0.141,0.585 -0.094,0.562 0,0.75 0.727,0.797 0.938,0.422 1.312,1.031 0.374,0.609 0.984,0.656 1.219,0.656 0.235,0 0.023,-0.258 -0.281,-0.75 -0.304,-0.492 -0.398,0.117 -0.844,-0.469 -0.188,-0.238 -0.146,-0.355 -0.188,-0.469 0.029,0.043 0.082,0.02 0.188,0.094 0.176,0.195 0.369,0.406 0.656,0.469 0.023,0.012 0.07,0 0.094,0 0.158,0.07 0.322,0.125 0.469,0.188 0.076,0.035 0.117,0.152 0.188,0.188 0.17,0.148 0.375,0.312 0.562,0.469 0.047,0.047 0.135,0.066 0.188,0.094 0.199,0.152 0.352,0.277 0.562,0.281 0.352,0.012 0.668,0.113 0.938,0.188 0.135,0.043 0.27,0.148 0.375,0.094 0.293,-0.145 0.211,-0.25 0.844,0.094 0.627,0.352 1.219,0.75 1.406,0.75 0.182,0 0.088,0.082 0.188,0.281 0.1,0.199 0.592,0.676 0.844,0.656 0.246,-0.016 0.041,-0.281 0.375,0 0.328,0.281 0.516,0.539 0.469,0.656 -0.053,0.117 0.105,-0.039 0.375,0.188 0.264,0.234 0.527,0.477 0.562,0.656 0.029,0.184 0.176,0.348 -0.188,0.094 -0.369,-0.246 -0.463,-0.039 -0.375,0.094 0.082,0.137 0.574,0.164 0.562,0.281 -0.018,0.117 0.088,0.27 -0.375,0.188 -0.469,-0.082 -0.609,-0.191 -0.375,0.188 0.229,0.383 0.363,0.75 0.281,1.031 -0.088,0.281 -0.281,0.352 0,0.469 0.281,0.117 0.369,0.035 0.188,0.281 -0.188,0.246 -0.381,0.465 0,0.562 0.381,0.102 0.516,-0.027 0.281,0.188 -0.117,0.105 -0.293,0.234 -0.375,0.281 0.035,0.02 0.094,0.07 0.188,0.094 0.51,0.148 0.943,0.172 0.844,0.469 -0.1,0.301 0.023,0.785 0.188,0.469 0.165,-0.316 0.029,-0.496 0.281,-0.562 0.246,-0.062 0.234,-0.047 0.188,0.188 -0.053,0.23 0.328,0.27 0.094,0.469 -0.234,0.199 -0.088,0.266 -0.469,0.281 -0.387,0.02 -0.768,0.359 -0.281,0.375 0.48,0.02 0.621,0.012 0.938,0 0.311,-0.016 0.105,-0.047 0.094,0.188 -0.023,0.23 0.393,0.371 0.562,0.188 0.164,-0.18 0.311,-0.273 0.562,-0.094 0.246,0.184 0.34,0.676 0.656,0.375 0.311,-0.297 0.17,-0.387 0.469,-0.188 0.293,0.199 -0.018,0.305 0.75,0.188 0.762,-0.117 1.242,-0.133 0.75,-0.281 -0.498,-0.152 -0.135,-0.023 0.562,-0.188 0.691,-0.164 0.75,-0.363 0.469,-0.562 -0.287,-0.199 -1.119,-0.199 -1.312,-0.281 -0.199,-0.082 -0.498,-0.332 0.275,-0.281 0.779,0.047 1.354,0.352 1.781,0.188 0.434,-0.164 0.627,-0.516 0.938,-0.281 0.316,0.234 0.533,0.055 0.562,0.188 0.035,0.137 0.352,0.395 -0.088,0.375 -0.451,-0.016 -0.709,-0.176 -0.938,-0.094 -0.234,0.082 -0.727,0.23 -0.375,0.375 0.346,0.152 0.533,0.094 0.75,0.094 0.211,0 0.182,0.07 0,0.188 -0.188,0.117 -0.34,0.336 0.088,0.188 0.434,-0.145 0.709,-0.223 0.938,-0.469 0.234,-0.246 0.088,-0.156 0.281,-0.094 0.053,0.02 0.029,0.078 0,0.094 0.035,0.023 0.088,0.01 0.656,0 1.312,-0.016 1.201,-0.012 1.875,-0.094 0.68,-0.082 0.979,-0.34 0.562,-0.375 -0.41,-0.035 -0.738,0.059 -1.406,-0.188 -0.662,-0.246 -0.926,-0.484 -1.312,-0.469 -0.381,0.02 -0.604,0.102 -0.656,0 -0.047,-0.098 0.299,-0.281 0.562,-0.281 0.27,0 0.252,-0.344 0.562,-0.562 0.316,-0.215 0.598,-0.469 1.125,-0.469 0.533,0 1.201,0.031 1.781,0.094 0.58,0.066 1.166,-0.051 1.312,0.094 0.035,0.031 0.047,0.09 0.094,0.094 -0.562,0.164 -1.031,0.258 -1.219,0.375 -0.182,0.117 0.352,0.305 0,0.469 -0.346,0.164 -0.463,-0.215 -0.75,0 -0.281,0.219 -0.562,0.359 0.094,0.375 0.668,0.02 0.932,0.164 1.031,0 0.018,0.023 0.047,-0.023 0.094,0 0.199,0.082 0.533,0.129 0.844,0 0.316,-0.133 1.014,-0.152 1.312,-0.188 0.298,-0.036 0.838,0.547 1.219,0.844 0.381,0.301 1.945,0.816 2.156,1.031 0.217,0.219 0.768,0.184 1.031,0 0.27,-0.18 0.639,-0.074 0.75,0.188 0.117,0.266 0.281,0.863 1.406,0.844 1.131,-0.016 3.404,0.148 3.469,0 0.07,-0.145 0.475,0.336 0.656,0.469 0.188,0.137 0.803,0.516 1.031,0.75 0.234,0.234 0.662,0.547 1.125,1.125 0.469,0.582 1.518,1.605 1.781,1.688 0.27,0.082 0.838,0.691 0.75,0.938 -0.082,0.246 0.311,-0.062 0.375,0.188 0.07,0.246 0.926,0.457 0.938,0.656 0.018,0.199 0.246,0.828 0.938,0.844 0.697,0.02 0.527,0.844 1.219,0.844 0.697,0 1.43,0.371 1.875,0.469 0.451,0.102 0.809,0.207 0.938,0.469 0.135,0.266 0.182,0.582 0.562,0.562 0.381,-0.016 0.551,0.09 0.75,0.188 0.199,0.102 0.322,0.211 0.469,0.375 0.152,0.164 0.252,0.445 0.281,0.562 0.035,0.117 0.264,0.125 0.375,0.188 0.117,0.066 0.176,0.465 0.375,0.562 0.199,0.102 0.51,0.254 0.656,0.469 0.152,0.219 0.48,0.574 0.562,0.375 0.082,-0.199 -0.094,-0.168 -0.094,-0.469 0,-0.105 0.082,-0.133 0.094,-0.188 0.07,0.059 0.123,0.129 0.188,0.188 -0.146,0.234 -0.082,0.539 0,0.656 0.082,0.117 0.082,0.141 0.281,0.094 0.199,-0.051 0.357,-0.152 0.469,-0.188 0.059,0.043 0.135,0.055 0.188,0.094 -0.006,0.035 0,0.113 -0.094,0.188 -0.182,0.148 -0.123,0.258 -0.094,0.375 0.035,0.117 0.023,0.137 0.188,0 0.17,-0.133 0.188,-0.246 0.188,0 0,0.246 -0.053,0.398 0.094,0.562 0.152,0.164 0.264,0.176 0.281,0.375 0.017,0.199 1.312,1.254 1.594,1.406 0.48,-0.414 1.957,-1.75 2.719,-3.281 0.152,-0.305 0.199,-0.684 0.281,-1.031 -0.17,-0.82 -0.697,-1.699 -1.031,-2.906 -0.539,-1.992 -1.805,-3.297 -5.25,-3.844 -3.439,-0.543 -0.557,-2.5 -3.094,-4.312 -2.537,-1.809 -1.4,-2.16 -1.219,-5.062 0.182,-2.898 1.037,-2.062 -1.5,-2.062 -2.537,0 -3.979,0.031 -5.25,-1.781 -1.266,-1.809 -3.094,-3.398 -5.812,-4.125 -1.113,-0.297 -1.752,-0.586 -2.25,-0.938 -0.27,-0.379 -0.557,-0.797 -0.938,-1.219 -0.152,-0.461 -0.24,-1.105 -0.375,-1.875 -0.539,-3.082 -0.738,-2.113 -3.094,-3.562 -2.355,-1.445 -3.076,-2.57 -5.25,-3.656 -2.062,-1.031 -2.051,-1.887 -4.219,-1.969 -0.299,-0.246 -0.562,-0.504 -0.844,-0.75 -1.102,-1.562 -1.523,-1.77 -1.688,-4.688 -0.182,-3.262 1.482,-2.051 -1.781,-4.406 -3.258,-2.355 -4.195,-2.887 -6.188,-5.062 -1.992,-2.172 -1.963,-4.008 -4.5,-6 -2.537,-1.992 -0.035,-4.48 -1.125,-6.656 -1.084,-2.172 1.166,-3.965 -0.469,-7.406 -1.629,-3.438 2.689,-2.344 4.5,-2.344 1.811,0 3.633,4.543 5.625,8.344 1.992,3.805 5.443,2.684 5.625,-0.938 0.182,-3.622 1.061,-1.809 1.781,-5.25 0.727,-3.438 1.957,-2.719 4.312,-2.719 2.355,0 2.432,-0.188 4.969,-0.188 1.365,0 2.244,-0.18 3,-0.656 0.65,-0.41 1.207,-1.035 1.875,-1.875 0.545,-0.68 0.902,-0.973 1.219,-1.031 0.533,-0.098 0.973,0.465 1.875,1.031 1.453,0.91 2.279,0.012 5.719,0.375 2.977,0.312 3.844,1.336 6.281,3.188 0.387,0.293 0.539,0.406 1.031,0.75 v -0.656 c 0.732,0.059 1.406,0.082 2.062,0 0.75,-0.094 1.465,-0.281 2.062,-0.469 0.597,-0.188 1.125,-0.375 1.5,-0.562 0.328,-0.164 0.715,-0.152 1.125,-0.094 0.059,0.008 0.129,-0.012 0.188,0 0.369,0.066 0.709,0.16 1.125,0.281 0.164,0.047 0.305,0.047 0.469,0.094 0.609,0.176 1.283,0.348 1.969,0.375 0.598,0.02 1.236,-0.027 1.875,-0.281 2.812,-1.125 5.25,-2.438 6.75,-1.312 1.5,1.126 7.312,0.188 9,1.125 0.211,0.117 0.387,0.34 0.562,0.562 0.175,0.222 0.305,0.453 0.469,0.75 0.328,0.594 0.703,1.277 1.125,1.969 0.211,0.348 0.48,0.711 0.75,1.031 0.193,0.223 0.428,0.465 0.656,0.656 0.123,0.105 0.24,0.188 0.375,0.281 0.141,0.094 0.223,0.199 0.375,0.281 0.205,0.113 0.422,0.195 0.656,0.281 0.457,0.172 1.008,0.328 1.594,0.375 4.688,0.375 5.25,0.562 6.938,-0.375 0.844,-0.469 1.359,-0.891 1.969,-1.219 0.61,-0.328 1.312,-0.562 2.344,-0.656 0.287,-0.027 0.574,-0.121 0.844,-0.188 -1.125,-1.973 -1.324,-4.512 -0.281,-3.469 1.09,1.086 1.506,-0.531 1.688,-2.344 0.182,-1.809 1.102,-0.73 3.094,-0.188 1.623,0.441 1.975,1.355 2.812,2.812 1.717,0.75 4.043,1.965 4.781,2.625 0.141,0.125 0.141,0.324 0.188,0.562 -0.047,0.176 -0.023,0.207 -0.094,0.469 0.076,0.07 0.117,0.125 0.188,0.188 0.006,1.242 -0.334,2.926 0.188,3.188 0.375,0.188 1.758,0.469 3.094,0.75 1.377,0.293 2.625,0.562 2.625,0.562 l 0.938,-2.438 c -0.182,0.621 -0.275,1.109 -0.375,1.594 -0.082,0.418 -0.158,0.727 -0.188,1.031 -0.006,0.055 0.006,0.137 0,0.188 -0.006,0.223 0.064,0.422 0.094,0.562 0.012,0.047 -0.012,0.148 0,0.188 0.07,0.148 0.141,0.328 0.281,0.281 0.088,-0.012 0.17,-0.094 0.281,-0.188 0.252,-0.203 0.557,-0.602 0.938,-1.219 0.223,-0.355 0.451,-0.613 0.656,-0.844 0.211,-0.227 0.369,-0.434 0.562,-0.562 0.193,-0.128 0.387,-0.223 0.562,-0.281 0.188,-0.059 0.393,-0.074 0.562,-0.094 0.457,-0.047 0.791,-0.047 1.125,-0.188 0.023,-0.012 0.076,0.012 0.094,0 0.117,-0.062 0.275,-0.145 0.375,-0.281 0.105,-0.141 0.246,-0.199 0.375,-0.188 0.088,0 0.188,0.043 0.281,0.094 0.334,0.184 0.668,0.574 1.031,0.938 0.152,0.152 0.234,0.27 0.375,0.375 0.141,0.105 0.346,0.172 0.469,0.188 0.252,0.031 0.428,-0.133 0.562,-0.75 0.135,-0.613 0.24,-1.195 0.375,-1.781 0.275,-1.172 0.662,-2.254 1.312,-3.188 0.328,-0.469 0.709,-0.938 1.219,-1.312 0.639,-0.469 1.225,-0.82 1.781,-1.125 0.07,-0.035 0.117,-0.059 0.188,-0.094 0.071,-0.035 0.117,-0.062 0.188,-0.094 0.404,-0.199 0.785,-0.293 1.125,-0.375 0.27,-0.062 0.521,-0.109 0.75,-0.094 0.24,-0.012 0.475,-0.012 0.656,0.094 0.24,0.137 0.346,0.383 0.375,0.656 0.006,0.031 0,0.066 0,0.094 0.018,0.258 0.006,0.535 0,0.844 0,0.07 0,0.117 0,0.188 0.006,0.059 0,0.129 0,0.188 0.006,0.066 0.082,0.125 0.094,0.188 0.029,0.188 0.018,0.383 0.094,0.562 0.141,0.301 0.357,0.605 0.75,0.844 0.387,0.242 0.709,0.527 1.031,0.844 0.064,0.059 0.129,0.129 0.188,0.188 0.311,0.312 0.627,0.598 0.938,0.844 0.217,0.164 0.422,0.289 0.656,0.375 0.398,0.148 0.885,0.223 1.406,0 0.264,-0.109 0.539,-0.32 0.844,-0.562 2.461,-1.91 4.283,-3.188 6.469,-4.688 0.428,-0.293 0.797,-0.543 1.125,-0.844 0.105,-0.098 0.188,-0.188 0.281,-0.281 0.217,-0.203 0.381,-0.375 0.562,-0.562 0.17,-0.176 0.316,-0.32 0.469,-0.469 0.305,-0.285 0.557,-0.551 0.844,-0.656 0.205,-0.074 0.434,-0.059 0.656,0 0.094,0.023 0.182,0.043 0.281,0.094 0.686,0.34 1.348,0.715 2.062,0.844 0.029,0.008 0.07,-0.004 0.094,0 0.328,0.055 0.709,0.059 1.031,0 0.352,-0.062 0.691,-0.227 1.031,-0.469 1.365,-0.953 2.32,-0.895 3,0.469 0.428,0.855 0.873,1.707 2.25,2.062 0.029,0.008 0.064,-0.012 0.094,0 0.539,0.129 1.219,0.234 2.062,0.188 0.445,-0.023 0.955,-0.105 1.5,-0.188 4.371,-0.684 4.723,0.34 5.812,2.25 0.686,1.195 1.318,2.051 1.969,1.875 0.129,-0.035 0.24,-0.062 0.375,-0.188 0.27,-0.25 0.539,-0.727 0.844,-1.406 1.23,-2.73 0.152,-3.949 2.062,-6 0.176,-0.188 0.375,-0.438 0.562,-0.656 0.012,-0.016 0.082,0.012 0.094,0 2.461,-0.543 2.818,-0.703 4.594,-2.344 -1.705,-1.668 -1.822,-2.555 -2.25,-4.219 -0.018,-0.121 -0.059,-0.234 -0.094,-0.375 -0.58,-2.125 -0.34,-2.535 1.594,-5.625 0.967,-1.547 1.576,-2.359 1.781,-3 0.105,-0.32 0.076,-0.648 0,-0.938 -0.07,-0.285 -0.229,-0.551 -0.469,-0.938 -0.146,-0.234 -0.264,-0.438 -0.375,-0.656 -0.029,-0.059 -0.07,-0.129 -0.094,-0.188 -0.07,-0.176 -0.082,-0.387 -0.094,-0.562 -0.018,-0.215 0.07,-0.426 0.188,-0.656 0.129,-0.25 0.305,-0.473 0.656,-0.75 0.27,-0.215 0.598,-0.414 1.031,-0.656 0.867,-0.48 2.062,-1.059 3.75,-1.688 6.762,-2.512 8.672,-7.934 10.219,-6 0.58,0.727 1.143,1.652 1.688,2.25 0.275,0.301 0.562,0.457 0.844,0.562 0.141,0.055 0.234,0.113 0.375,0.094 0.539,-0.039 1.066,-0.645 1.688,-2.156 0.434,-1.059 0.791,-1.688 1.125,-2.062 0.34,-0.379 0.615,-0.531 0.844,-0.656 0.094,-0.051 0.205,-0.129 0.281,-0.188 0.094,-0.082 0.217,-0.223 0.281,-0.375 0.041,-0.105 0.07,-0.41 0.094,-0.562 0.035,-0.273 0.088,-0.668 0.088,-1.125 0,-1.781 -0.504,-3.035 -0.75,-3.75 0.715,0.445 1.488,1.016 2.25,1.406 0.246,0.125 0.51,0.211 0.75,0.281 0.029,0.008 0.059,-0.004 0.088,0 0.293,0.07 0.574,0.152 0.844,0.094 0.17,-0.039 0.311,-0.082 0.469,-0.188 0.902,-0.602 4.617,-2.125 8.156,-3.656 0.756,0.949 3.018,-0.18 3.281,-1.5 0.258,-0.121 0.604,-0.258 0.844,-0.375 0.885,0.23 2.32,0.934 4.125,-0.094 2.707,-1.547 4.91,-3.086 6.844,-3.281 1.934,-0.191 7.84,-1.703 9,-1.125 1.16,0.582 3.926,3.445 4.312,4.219 0.386,0.774 1.277,1.203 2.438,1.781 0.287,0.148 0.562,0.195 0.75,0.188 0.135,-0.016 0.281,-0.051 0.375,-0.188 0.117,-0.164 0.211,-0.426 0.275,-0.75 0.07,-0.32 0.141,-0.738 0.188,-1.219 0.193,-1.934 1.535,-3.121 3.469,-5.438 1.934,-2.32 1.764,-1.727 2.344,-0.375 0.07,0.172 0.152,0.281 0.281,0.375 0.229,0.16 0.504,0.176 0.844,0.188 0.252,0.012 0.48,0.02 0.75,0 0.117,-0.012 0.258,0.008 0.375,0 0.275,-0.016 0.609,-0.035 0.844,0 0.029,0.008 0.064,-0.004 0.094,0 0.299,0.055 0.521,0.207 0.656,0.469 0.58,1.16 2.156,0.516 2.156,-1.031 0,-0.602 -0.029,-1.07 0,-1.5 0.369,-0.086 0.738,-0.32 1.125,-0.562 0.07,0.023 0.105,-0.035 0.188,0 1.74,0.773 3.27,0.328 3.656,-1.219 0.386,-1.547 0.785,-1.281 2.719,-2.25 1.934,-0.965 2.549,-0.602 1.969,-2.344 -0.07,-0.203 -0.205,-0.309 -0.281,-0.469 l 1.969,-0.938 -0.188,-1.312 -2.156,-13.875 -4.957,-3.281 -1.77,-2.719 -0.562,-3.844 -7.5,-2.156 0.375,-3.281 1.125,-1.969 v -2.719 l -4.219,-2.812 -1.969,-3.094 -3.094,-0.844 -3.281,-3.281 c 0,0 -9.439,-1.16 -10.594,-3.094 -1.16,-1.926 -0.422,-3.398 1.125,-5.719 1.541,-2.312 3.281,-4.688 3.281,-4.688 l 4.688,2.531 2.344,-0.188 1.688,-4.312 5.25,-0.188 c 0,0 2.537,-3.047 3.656,-4.969 3.762,0.863 4.828,0.398 6.938,0.094 2.531,-0.363 -0.387,-1.465 -3.281,-5.812 -2.9,-4.348 -2.197,-2.906 -3.281,-8.344 -1.09,-5.43 -3.99,-7.992 0,-8.719 3.434,-0.621 4.26,-1.336 2.613,-3.578 -0.451,0.426 -0.932,0.855 -1.488,1.234 -0.844,0.102 -2.402,1.301 -6,1.312 -0.973,0.023 -2.467,-0.281 -3.844,-0.562 0.961,-0.387 1.787,-0.727 1.594,-1.5 -0.387,-1.547 -4.295,-3.707 -5.062,-5.062 -0.773,-1.352 -3.094,-4.969 -3.094,-4.969 l -0.281,-2.531 c 0.955,-1.242 1.078,-2.078 1.594,-1.312 0.527,0.797 0.645,3.844 1.312,3.844 0.662,0 0.047,-3.074 0.844,-2.812 0.791,0.266 -0.785,1.969 2.531,1.969 2.016,0 3.281,-0.484 4.312,-0.844 -0.07,-0.73 -0.24,-1.445 -0.75,-1.875 -1.641,-1.363 -4.371,-2.945 -6.281,-4.312 -1.916,-1.363 -2.467,-7.43 -3.281,-11.531 -0.82,-4.094 0.322,-9.238 -1.312,-11.156 -1.641,-1.91 -2.449,-3.281 -2.719,-6.562 -0.258,-3.082 -1.928,-5.719 -2.133,-6.047 -0.047,0.023 -0.105,0.035 -0.146,0.059 -0.199,0.125 -0.387,0.258 -0.533,0.457 -0.223,0.293 -0.439,0.48 -0.656,0.605 -0.545,0.332 -1.207,0.141 -2.309,-0.688 l -1.723,0.27 1.113,-0.742 c -0.539,-0.434 -1.107,-0.922 -1.863,-1.602 -0.451,-0.402 -0.943,-0.777 -1.459,-1.129 h -0.006 c -0.516,-0.352 -1.055,-0.68 -1.6,-0.996 h -0.006 c -1.102,-0.629 -2.227,-1.207 -3.264,-1.824 h -0.006 c -2.086,-1.23 -3.803,-2.594 -4.16,-4.77 -0.727,-4.348 1.488,-2.473 -1.406,-6.094 -0.363,-0.449 -0.697,-0.809 -0.996,-1.078 -0.604,-0.539 -1.102,-0.766 -1.541,-0.859 h -0.012 c -0.217,-0.047 -0.428,-0.059 -0.633,-0.059 h -0.006 c -0.404,0 -0.791,0.047 -1.213,-0.047 -0.416,-0.09 -0.873,-0.316 -1.418,-0.863 -0.182,-0.188 -0.393,-0.281 -0.621,-0.344 -0.059,-0.012 -0.117,-0.031 -0.182,-0.043 -0.1,-0.012 -0.217,0.012 -0.328,0.012 -0.287,0.02 -0.592,0.066 -0.926,0.188 -0.023,0.012 -0.053,0.012 -0.082,0.023 -2.49,0.98 -5.924,4.379 -8.361,1.945 -2.443,-2.441 -2.068,-3.074 -4.02,-4.457 -0.65,-0.457 -1.559,-1.004 -2.918,-1.73 -1.078,-0.574 -1.91,-0.965 -2.584,-1.223 -0.492,-0.188 -0.861,-0.27 -1.195,-0.305 -0.152,-0.012 -0.311,-0.023 -0.439,0 h -0.007 z M 697.481,999.621 c -0.041,0.02 -0.064,0.07 -0.094,0.094 -0.07,0.059 -0.146,0.105 -0.188,0.188 -0.346,0.656 -0.217,2.223 -0.281,2.906 -0.094,0.938 0,1.5 -0.469,1.219 -0.469,-0.281 -1.125,-0.094 -1.125,0.75 0,0.844 -1.125,0 -0.75,1.312 0.375,1.312 2.438,2.062 3.75,1.594 1.312,-0.468 1.406,-0.094 1.312,0.938 -0.094,1.032 1.875,1.125 2.719,1.875 0.844,0.75 1.031,-0.469 0.75,-0.844 -0.281,-0.375 1.594,-0.094 1.969,-0.375 0.375,-0.281 -1.594,-1.875 -2.438,-2.812 -0.844,-0.937 -1.219,-0.938 -1.969,-1.5 -0.75,-0.562 0.275,-1.594 -0.281,-2.062 -0.562,-0.469 -1.406,-0.094 -1.031,-0.469 0.188,-0.188 0.281,-0.352 0.094,-0.75 -0.006,-0.012 0.006,-0.074 0,-0.094 -0.1,-0.188 -0.516,-0.637 -0.75,-0.938 -0.27,-0.328 -0.369,-0.508 -0.844,-1.031 -0.128,-0.048 -0.281,-0.036 -0.374,-10e-4 z m -5.813,2.813 c -0.105,0.031 -0.188,0.105 -0.281,0.188 -0.451,0.383 -0.861,1.254 -1.031,2.062 -0.229,1.062 0.92,1.52 1.781,2.719 0.199,0.289 0.416,0.547 0.562,0.938 0.75,2.062 1.594,4.125 0.75,3.938 -0.211,-0.047 -0.375,-0.215 -0.562,-0.375 -0.023,-0.012 -0.076,0.02 -0.094,0 -0.363,-0.297 -0.639,-0.703 -0.844,-0.75 -0.111,-0.023 -0.234,0.07 -0.281,0.281 -0.188,0.844 0,1.5 0.75,3.562 0.393,1.086 0.885,2.449 1.5,3.75 0.551,1.172 1.207,2.297 1.875,3.094 1.406,1.688 1.594,1.5 2.344,1.312 0.75,-0.188 -0.656,-1.688 -1.781,-5.156 -1.125,-3.468 -0.75,-4.875 -0.75,-6.938 0,-2.063 -0.094,-1.781 -0.656,-1.312 -0.562,0.469 -0.938,-1.312 -2.25,-3.656 -0.562,-2.062 0.281,-2.625 -0.469,-3.469 -0.094,-0.105 -0.188,-0.156 -0.281,-0.188 -0.077,0.023 -0.194,-0.024 -0.282,0 z m 10.594,11.531 c -0.293,0.117 -0.047,0.562 0.375,1.125 0.562,0.75 0,1.031 -0.469,0.656 -0.469,-0.375 -1.688,-0.188 -0.656,0.844 1.032,1.032 1.219,0.469 3,1.219 1.037,0.441 1.377,0.887 1.594,1.125 0.146,0.176 0.234,0.254 0.469,0.094 0.27,-0.18 0.006,-0.586 -0.469,-1.125 -0.334,-0.375 -0.732,-0.812 -1.312,-1.312 -0.316,-0.262 -0.457,-0.445 -0.844,-0.75 -0.469,-0.469 -0.281,-1.688 -1.219,-1.875 -0.235,-0.048 -0.375,-0.036 -0.469,-10e-4 z m -9.094,5.906 c -0.293,0.043 -0.047,0.703 0.375,1.969 0.562,1.688 0.562,1.594 0.562,2.438 0,0.844 0.188,1.406 0.844,0.75 0.656,-0.656 0.844,0.656 2.062,1.781 1.218,1.125 1.312,1.312 1.688,1.031 0.376,-0.281 -0.281,-0.938 -1.875,-2.062 -1.594,-1.124 -1.969,-2.438 -2.438,-4.031 -0.1,-0.598 -0.094,-0.715 -0.188,-1.312 -0.1,-0.129 -0.24,-0.211 -0.562,-0.375 -0.233,-0.119 -0.374,-0.201 -0.468,-0.189 z m 12.281,9.656 c -0.281,0.035 -0.516,0.68 -0.375,1.031 0.188,0.469 -1.031,0.938 0,1.312 0.938,0.188 1.312,0.562 1.031,-0.375 -0.281,-0.937 0,-1.125 -0.375,-1.781 -0.093,-0.163 -0.187,-0.198 -0.281,-0.187 z m 0.563,5.719 c -0.135,0.082 0.082,0.422 0.75,1.125 1.781,1.031 4.125,1.789 1.969,0.281 -1.348,-0.937 -2.502,-1.539 -2.719,-1.406 z m 1.312,2.906 c -0.006,0.094 0.293,0.445 0.844,1.219 0.416,0.594 0.809,1.039 1.219,1.5 1.729,1.977 3.311,3.047 4.031,4.219 0.891,1.453 0.938,1.031 1.125,1.5 2.484,2.578 3.656,3.141 6.281,4.688 2.625,1.547 5.484,3.328 3,1.312 -2.484,-2.016 -3.797,-2.438 -4.688,-3.562 -0.891,-1.124 -0.844,-0.75 -2.344,-2.156 -1.5,-1.406 -1.922,-1.453 -3.188,-2.812 -1.266,-1.359 0.188,-1.031 -2.25,-2.719 -0.633,-0.434 -1.266,-0.977 -1.875,-1.5 -1.158,-0.986 -2.149,-1.868 -2.155,-1.689 z m 6.094,0.75 c -0.135,0.129 0.328,0.773 1.969,2.438 1.5,1.594 3.609,2.812 5.719,4.875 2.11,2.063 4.5,2.203 3.656,1.594 -0.844,-0.609 -3.469,-3.188 -4.781,-4.125 -1.312,-0.937 -3.797,-3.047 -5.062,-4.031 -0.634,-0.493 -1.366,-0.88 -1.501,-0.751 z m 33.188,24.75 c -0.562,0 -0.797,0.188 -0.469,0.75 0.328,0.562 0.656,0.562 1.219,0.469 0.938,0.516 0.797,0.422 1.594,0.75 0.797,0.328 1.922,1.125 2.25,0.844 0.328,-0.281 -0.141,-0.609 -0.844,-1.406 -0.703,-0.797 -0.656,-0.844 -1.688,-1.125 -1.032,-0.281 -1.5,-0.282 -2.062,-0.282 z m 6,0.188 c -0.404,0 -0.451,0.094 -0.281,0.469 0.328,0.75 0.516,0.938 0.188,1.219 -0.328,0.281 -0.094,0.562 0,0.75 0.094,0.188 -0.422,0.281 -0.562,0.094 -0.14,-0.187 -0.516,0.094 0.375,0.562 0.891,0.468 0.422,-0.414 1.219,0.281 0.797,0.703 2.297,1.266 4.969,1.031 5.344,-0.656 6,-0.984 6.375,-2.062 0.375,-1.078 0.047,-0.938 -2.156,-1.594 -2.203,-0.656 -5.906,-0.75 -7.969,-0.656 -1.033,0.046 -1.754,-0.094 -2.158,-0.094 z m 3.375,5.625 c -0.516,0.094 -0.844,0.422 -0.75,0.656 0.094,0.234 0.797,0.094 1.312,0.656 0.515,0.562 0.656,0.422 0,0.656 -0.656,0.234 -0.75,-0.469 -1.312,-0.844 -0.562,-0.375 -1.312,-0.094 -1.781,0.094 -0.469,0.188 -1.078,0.609 -1.5,0.469 -0.422,-0.14 -0.891,0.141 -0.469,0.375 0.422,0.234 0.891,0.234 1.594,0.656 0.703,0.422 0.891,0.141 1.219,0.188 0.328,0.047 0.938,0.328 3.281,0.656 2.343,0.328 1.734,0.523 3,0.281 1.266,-0.234 1.594,-0.609 3.844,-0.375 2.25,0.234 6.891,-0.281 8.438,-0.75 1.547,-0.469 0.744,-0.656 -0.281,-0.656 -1.031,0 -2.297,0.094 -4.688,-0.094 -2.391,-0.188 -2.766,0.234 -6.656,0.469 -0.938,-0.047 -0.609,-0.188 -1.312,-0.469 -0.703,-0.281 0.609,-0.375 -0.188,-0.562 -0.797,-0.187 -0.516,-0.516 -0.656,-0.844 -0.14,-0.328 -0.75,0.047 -1.219,0 -0.469,-0.047 -0.844,0.094 -1.312,0 -0.468,-0.094 -0.049,-0.656 -0.564,-0.562 z m 13.406,5.719 c -0.27,0 -0.094,1.5 -0.094,1.5 0,0 1.4,0.688 2.531,0.75 1.125,0.07 2.279,-0.48 2.812,-0.281 0.158,0.066 0.627,0.23 1.031,0.375 0.92,0.348 2.068,0.805 2.531,1.125 0.662,0.465 1.664,0.102 2.531,0.562 0.861,0.465 -0.486,0.652 0.844,1.312 1.324,0.664 7.699,2.168 7.969,1.969 0.264,-0.199 -1.125,-1.594 -1.125,-1.594 l 2.438,1.5 c 0,0 0.275,-1.102 1.406,-0.375 1.125,0.734 1.939,1.484 3.469,2.344 1.523,0.863 2.812,1.219 2.812,1.219 0,0 1.119,0.457 0.656,0.656 -0.469,0.199 -0.363,0.582 1.031,0.844 1.389,0.27 2.104,0.605 2.438,0.469 0.141,-0.051 0.357,0.023 0.562,0.094 0.264,0.094 0.486,0.223 0.375,0.562 -0.1,0.301 -0.334,0.551 -0.281,0.844 0.047,0.293 0.375,0.629 1.406,1.125 2.051,0.996 4.699,2.129 6.094,3.188 1.389,1.062 2.062,1.406 2.062,1.406 l -0.469,-1.312 -1.031,-0.844 -0.562,-0.469 -0.938,-0.469 0.188,-0.938 -0.375,-1.125 -0.094,-0.188 c -0.07,0.012 -0.123,0.02 -0.188,0 l -0.469,-0.281 v -0.094 c -0.393,-0.52 -0.68,-1.43 -0.844,-2.344 -0.363,-1.992 -0.006,-2.426 -2.719,-2.062 -2.719,0.363 -2.76,0.57 -3.844,-1.969 -1.09,-2.535 -3.604,-2.301 -7.406,-3.938 -3.393,-1.453 -3.732,-2.332 -5.531,-2.25 0,-0.121 -0.076,-0.246 -0.094,-0.375 -0.252,-0.023 -0.475,-0.027 -0.656,0 -0.545,0.094 -0.809,0.441 -1.031,1.031 -0.182,0.488 -0.07,1.039 0,1.5 0,0.031 -0.006,0.07 0,0.094 v 0.094 c 0.059,0.312 0.152,0.469 0.188,0.562 0.633,0.336 0.744,0.559 1.125,0.281 0.111,-0.082 0.088,-0.152 0.094,-0.188 -0.041,0.055 -0.023,0.266 0.375,0.562 -0.07,0.066 -0.105,0.105 -0.188,0.188 -0.387,-0.094 -0.979,-0.223 -1.594,-0.562 -0.404,-0.223 -0.65,-0.215 -1.125,-0.375 -0.229,-0.074 -0.422,-0.203 -0.656,-0.281 l -1.781,-0.375 c 0.094,0.184 0.188,0.281 0.188,0.281 0,0 -1.57,-0.191 -1.969,-0.656 -0.287,-0.332 0.105,-0.598 -0.844,-1.031 h -0.094 c -0.363,-0.156 -0.896,-0.328 -1.688,-0.562 -3.182,-0.926 -4.617,-0.707 -6.469,-0.844 -1.854,-0.128 -2.733,-0.655 -2.997,-0.655 z m 42,17.437 0.656,0.281 0.281,0.094 c 0.492,-0.227 1.4,-0.328 1.969,-0.094 0.562,0.234 1.564,0.316 2.062,-0.281 0.492,-0.598 1.236,-1.031 0.375,-1.594 -0.867,-0.562 0.27,-0.48 0.469,-0.844 -0.018,0.254 -0.029,0.797 0.656,0.656 0.492,-0.098 0.867,-0.293 1.125,-0.281 0.047,0.01 0.053,0.078 0.088,0.094 0.023,0.035 0.082,0.059 0.094,0.094 0.111,0.129 0.234,0.312 0.281,0.75 0.076,0.633 0.293,1.078 0.375,1.406 0.105,0.41 0.035,0.57 -0.375,-0.094 -0.029,-0.051 -0.059,-0.039 -0.094,-0.094 -0.645,-1.031 -0.803,-1.117 -1.594,-1.406 -0.205,-0.07 -0.369,-0.086 -0.469,0 -0.287,0.266 -0.129,1.109 0.094,1.406 0.299,0.398 0.984,0.879 0.75,1.406 -0.229,0.535 -0.908,-0.238 -1.969,-0.375 -1.061,-0.129 -2.244,-0.473 -2.344,0.188 -0.1,0.664 1.066,1.395 1.594,1.594 0.533,0.199 1.178,0.312 1.406,-0.188 0.234,-0.496 0.51,-0.727 0.938,-0.094 0.434,0.633 0.381,1.391 1.406,2.25 1.031,0.863 1.254,1.43 1.781,1.031 0.533,-0.398 2.062,-1.289 2.625,0 0.568,1.297 2.203,1.965 2.531,2.625 0.229,0.457 0.797,1.16 1.406,1.5 0.27,-0.391 0.287,-0.516 0.562,-0.938 l -0.75,-0.75 c 0.059,-0.203 0.111,-0.375 0.281,-0.656 0.908,-1.445 0.727,-0.414 0,-1.688 -0.721,-1.266 -2.49,-1.258 -4.125,-2.531 -0.105,-0.082 -0.188,-0.105 -0.281,-0.188 l -0.188,-1.688 c 0,0 -2.25,-3.938 -3.75,-4.875 -0.141,-0.086 -0.346,-0.156 -0.562,-0.188 -0.117,-0.473 -0.258,-0.812 -0.469,-1.594 -0.721,-2.711 -2.953,-2.672 -4.406,-4.125 -0.182,-0.18 -0.322,-0.328 -0.469,-0.375 -0.123,-0.035 -0.264,-0.051 -0.375,0 -0.75,0.375 -1.043,2.848 -2.156,5.062 -0.252,0.512 -0.527,0.82 -0.75,1.031 0.176,0.246 0.334,0.539 0.375,0.656 0.053,0.125 0.018,0.254 0,0.375 -0.006,0.066 0.012,0.125 0,0.188 -0.006,0.035 0.006,0.066 0,0.094 l 0.281,1.031 c 0.094,0.059 0.199,0.141 0.281,0.188 0.234,0.137 0.111,0.711 0.375,0.938 h 0.009 z m -63.844,-16.5 c -0.492,0.035 -1.219,0.141 -2.156,0.188 -1.875,0.094 -2.812,0.562 -2.344,1.031 0.468,0.469 1.406,0.469 0.938,1.125 -0.468,0.656 -0.375,0.281 1.5,0.094 2.531,-0.844 3.094,-1.312 2.906,-2.062 -0.094,-0.376 -0.352,-0.411 -0.844,-0.376 z m 20.813,1.875 c -0.609,0.066 -1.008,0.188 -1.406,0.281 -0.797,0.188 -0.75,1.031 -2.812,0.469 -2.062,-0.562 -2.578,-0.75 -3.656,-0.656 -1.078,0.094 -1.641,0.516 -0.375,0.656 1.266,0.14 1.406,0.141 0.75,0.469 -0.656,0.328 -0.609,0.703 -1.031,0.938 -0.422,0.235 -0.188,0.656 0.375,0.844 0.563,0.188 0.188,-0.844 1.406,-0.281 1.218,0.563 0.469,0.047 1.031,0.281 1.734,-0.047 2.344,0.656 4.031,-0.188 1.687,-0.844 1.828,-0.984 4.125,-0.938 2.297,0.046 3.516,-0.094 3.75,-0.469 0.234,-0.375 -0.703,0.188 -1.125,-0.375 -0.422,-0.563 -0.328,-0.891 -2.531,-1.031 -1.103,-0.07 -1.923,-0.062 -2.532,0 z m 11.625,5.156 c -0.059,-0.012 -0.094,0.105 -0.281,0.188 -0.75,0.328 -2.062,0.891 -0.938,1.031 1.124,0.14 2.203,0.188 3,0.469 0.797,0.281 1.641,0.375 2.156,0.562 4.641,0.609 5.297,0.562 5.812,0.562 0.515,0 1.025,-0.188 -0.281,-0.656 -1.312,-0.469 -3.141,-0.891 -5.062,-1.031 -1.921,-0.14 -2.859,-0.656 -3.75,-0.656 -0.668,0 -0.498,-0.433 -0.656,-0.469 z m 12.715,0.524 c -0.188,-0.031 -0.311,-0.02 -0.34,0.039 -0.064,0.125 0.234,0.492 0.938,1.031 1.078,0.375 1.406,0.758 1.406,0.281 0,-0.469 -0.234,-0.656 -1.312,-1.125 -0.271,-0.117 -0.511,-0.191 -0.692,-0.226 z m -26.778,1.539 c -0.645,-0.047 -1.172,0.082 -1.219,0.562 -0.094,0.938 -0.75,0.375 1.031,1.406 1.875,0 3.562,-1.406 2.25,-1.594 -0.656,-0.093 -1.423,-0.319 -2.062,-0.374 z m 37.406,2.062 c 0.41,0.184 0.732,0.316 1.125,0.469 -0.047,0.02 -0.281,0.094 -0.281,0.094 0,0 -0.439,-0.258 -0.844,-0.563 z" />
      </g>
    </g>
  </g>
</svg>
