<?xml version="1.0" encoding="UTF-8" standalone="no"?>
<!-- Created with Inkscape (http://www.inkscape.org/) -->

<svg
   width="210mm"
   height="297mm"
   viewBox="0 0 210 297"
   version="1.1"
   id="svg4771"
   inkscape:version="1.1.1 (3bf5ae0d25, 2021-09-20)"
   sodipodi:docname="baden#.svg"
   xmlns:inkscape="http://www.inkscape.org/namespaces/inkscape"
   xmlns:sodipodi="http://sodipodi.sourceforge.net/DTD/sodipodi-0.dtd"
   xmlns="http://www.w3.org/2000/svg"
   xmlns:svg="http://www.w3.org/2000/svg">
  <sodipodi:namedview
     id="namedview4773"
     pagecolor="#ffffff"
     bordercolor="#666666"
     borderopacity="1.0"
     inkscape:pageshadow="2"
     inkscape:pageopacity="0.0"
     inkscape:pagecheckerboard="0"
     inkscape:document-units="mm"
     showgrid="false"
     inkscape:zoom="0.7500982"
     inkscape:cx="397.28131"
     inkscape:cy="561.92642"
     inkscape:window-width="1920"
     inkscape:window-height="1027"
     inkscape:window-x="1912"
     inkscape:window-y="-8"
     inkscape:window-maximized="1"
     inkscape:current-layer="layer1" />
  <defs
     id="defs4768" />
  <g
     inkscape:label="Ebene 1"
     inkscape:groupmode="layer"
     id="layer1">
    <path
       id="path5737"
       fill="#f08511"
       stroke="#000000"
       stroke-width="0.132292"
       d="m 45.773533,143.32911 c -0.03731,0.0527 -0.06191,0.11166 -0.148696,0.0249 -0.173566,-0.17356 -0.372004,0.1487 -0.570441,0.0743 -0.198438,-0.0743 -0.471223,0.1487 -0.322527,0.42175 0.148695,0.27305 0.396875,-0.0992 0.446616,0.22331 0.04974,0.32252 0.520965,0.2233 -0.148696,0.59531 -0.671248,0.372 -1.264973,0.59531 -1.46341,0.57044 -0.01693,-0.001 -0.03413,0.003 -0.04974,0 -0.0093,0.009 -0.07435,0.0744 -0.09922,0.0992 0.06059,0.14261 0.134937,0.29157 0.248179,0.44662 -0.210873,0.13229 -0.327025,0.21404 -0.471223,0.29765 -0.227806,0.13229 -0.359569,0.15187 -0.446617,0.0497 -0.0217,-0.0249 -0.03413,-0.0836 -0.04974,-0.12409 -0.131762,0.12092 -0.271197,0.26353 -0.372004,0.34714 -0.421746,0.34713 -0.223308,0.62018 -0.620183,0.62018 -0.396875,0 -0.471223,-0.12409 -0.173567,-0.372 0.297657,-0.24792 0.09922,-0.47123 0.09922,-0.47123 0,0 -0.09922,-0.0743 0.272785,-0.12409 0.372005,-0.0497 0.09922,-0.372 -0.471222,-0.44661 -0.570442,-0.0746 -0.76888,-0.79375 -0.76888,-0.79375 l -0.322527,0.0992 -0.124089,0.57044 h -0.322527 l -0.12409,-0.29766 c 0,0 -0.40931,-0.0878 -0.595312,-0.14869 0.01561,0.059 0.04974,0.064 0.04974,0.12409 0,0.32252 0.02487,0.7194 0.223309,1.04192 0.198437,0.32253 0.223308,0.47123 0.124089,0.8435 -0.09922,0.37226 -0.148696,0.7194 -0.248179,0.96731 -0.09948,0.24792 -0.446617,0.54557 -0.520965,0.99219 -0.07435,0.44662 -0.272785,1.7362 -0.570441,2.28203 -0.0048,0.008 -0.0217,0.0175 -0.02487,0.0249 -0.483658,0.7628 -1.268148,2.01216 -1.910027,2.77813 -0.193675,0.23151 -0.3937,0.45773 -0.545571,0.62018 -0.09922,0.1053 -0.176742,0.20373 -0.248179,0.29766 -0.144198,0.19129 -0.254265,0.35957 -0.322527,0.54557 -0.03572,0.0931 -0.05107,0.19844 -0.07435,0.29765 -0.14261,0.60352 -0.155046,1.37663 -0.744008,2.85248 -0.230982,0.57679 -0.412486,1.16575 -0.570442,1.76106 -0.04498,0.16748 -0.0852,0.33179 -0.12409,0.4961 -0.04022,0.16642 -0.08996,0.33681 -0.124089,0.49609 -0.03863,0.17568 -0.06667,0.33073 -0.09922,0.49609 -0.128587,0.65432 -0.220133,1.25783 -0.272785,1.66185 0.059,0.0921 0.07752,0.19526 0.02487,0.32253 -0.03863,0.0921 -0.07435,0.1487 -0.09922,0.22331 -0.0016,0.0146 0,0.0992 0,0.0992 h -0.02487 c -0.04022,0.12911 -0.06509,0.245 -0.07435,0.32252 0.07144,-0.0807 0.169069,-0.14975 0.248179,-0.2233 l 0.04974,-0.0744 c 0.03413,-0.0352 0.06826,-0.0476 0.09922,-0.0743 0.06191,-0.0537 0.131762,-0.0744 0.223308,-0.0497 0.03096,0.009 0.059,0.0278 0.09922,0.0497 0.03731,0.0206 0.08678,0.0373 0.124089,0.0743 0.0061,0.0185 -0.01402,0.0299 -0.04974,0.0497 -0.07276,0.0362 -0.200025,0.0992 -0.272786,0.14869 -0.03254,0.0299 -0.04339,0.064 -0.02487,0.0992 0.0048,0.009 0.02011,0.0146 0.02487,0.0249 0.01402,0.0146 0.02646,0.0392 0.04974,0.0497 0.02011,0.009 0.04974,0.0145 0.07435,0.0249 0.06985,0.0175 0.14261,0.0217 0.248179,0.0249 0.229394,0.008 0.541073,-0.009 0.868098,-0.0497 0.01693,-0.001 0.03096,0.003 0.04974,0 0.03731,0.0733 0.08229,0.14869 0.12409,0.2233 0.134937,0.0931 0.378354,0.17357 0.768879,0.17357 0.843492,0 0.768879,-0.0744 1.190625,-0.34713 0.02937,-0.0196 0.0418,-0.0714 0.07435,-0.0992 0.0077,-0.0868 0.01693,-0.22119 0.02487,-0.32253 0.06985,-0.0124 0.274373,-0.0661 0.322527,-0.0744 0.0032,0 0.02328,0 0.02487,0 0.200025,-0.009 0.358246,-0.009 0.471223,0.0249 0.01085,0.003 0.01402,0.0206 0.02328,0.0249 0.07752,0.0278 0.130175,0.0825 0.173567,0.12409 0.04657,0.0402 0.07276,0.0796 0.09922,0.12408 0.0093,0.0156 0.01852,0.0341 0.02487,0.0497 0.01561,0.0309 0.03863,0.0704 0.04974,0.0992 0.0093,0.0249 0.01693,0.0516 0.02487,0.0743 0.0077,0.0175 0.01693,0.0341 0.02487,0.0497 0.02011,0.0392 0.04498,0.0733 0.07435,0.0992 0.03863,0.0341 0.09446,0.0527 0.173566,0.0498 0.161131,-0.0103 0.420159,-0.11272 0.868098,-0.34714 0.07435,-0.0743 -0.148696,-0.44661 0,-0.52096 0.0048,-0.003 0.02011,0.003 0.02487,0 0.108479,-0.063 0.317765,-0.10637 0.496094,-0.1487 0.0217,-0.006 0.03096,-0.0196 0.04974,-0.0249 0.07594,-0.0164 0.130175,-0.0341 0.173567,-0.0497 0.03572,-0.0103 0.03863,-0.0135 0.04974,-0.0249 0.03863,-0.0196 0.02487,-0.031 -0.04974,-0.0497 -0.223308,-0.0373 -0.443442,-0.0196 -0.66966,0 -0.102394,0.009 -0.193675,0.0217 -0.297657,0.0249 -0.111654,0.003 -0.235743,-0.006 -0.347133,-0.0249 -0.0077,0 -0.01693,0.002 -0.02487,0 -0.02487,-0.007 -0.01085,-0.0498 0,-0.0992 0.01085,-0.0476 0.03413,-0.12409 0.07435,-0.19844 0.03572,-0.0661 0.09446,-0.14579 0.148696,-0.22331 0.01561,-0.0196 0.03731,-0.032 0.04974,-0.0497 0.02011,-0.0249 0.02778,-0.0476 0.04974,-0.0743 0.05741,-0.0693 0.128588,-0.13017 0.198438,-0.19844 0.06191,-0.0569 0.130175,-0.12197 0.198437,-0.17356 0.02011,-0.0135 0.03254,-0.0352 0.04974,-0.0497 0.01693,-0.0103 0.03413,-0.0135 0.04974,-0.0249 0.04815,-0.0278 0.09922,-0.0497 0.148695,-0.0743 0.02937,-0.0135 0.04974,-0.0373 0.07435,-0.0497 0.03254,-0.0135 0.06667,-0.0135 0.09922,-0.0249 0.06191,-0.0217 0.13335,-0.0413 0.198438,-0.0497 0.272785,-0.032 0.539485,0.0434 0.81862,0.32253 0.0048,0.005 0.02011,-0.004 0.02487,0 0.148696,0.1487 -0.223308,0.44662 -0.148696,0.66966 0.0418,0.0683 0.102394,0.12303 0.198438,0.1487 0.059,0.0206 0.141023,0.027 0.198437,0.0249 0.04022,-0.003 0.06985,-0.009 0.09922,-0.0249 0.04815,-0.0228 0.05741,-0.0939 0.04974,-0.17357 0,-0.007 0.0016,-0.0156 0,-0.0249 -0.0048,-0.0352 -0.01693,-0.063 -0.02487,-0.0992 -0.0077,-0.0384 0.0093,-0.0196 0,-0.0497 -0.0061,-0.0249 -0.01852,-0.0558 -0.02487,-0.0744 0.06667,0.0392 0.131763,0.0825 0.173567,0.1487 0.01085,0.0156 0.01561,0.0341 0.02487,0.0497 0.01561,0.0278 0.03731,0.0466 0.04974,0.0744 0.01852,0.0331 0.03254,0.0672 0.04974,0.0992 0.04815,0.0857 0.09763,0.16959 0.148696,0.24817 0.04657,0.0733 0.09922,0.13653 0.173566,0.17357 0.04816,-0.003 2.457186,-0.14869 2.529946,-0.14869 0.0852,0.0175 0.169069,0.0455 0.248179,0.0743 0.0077,0.003 0.01852,-0.003 0.02487,0 0.372004,-0.44132 0.755121,-0.81227 0.768879,-0.96731 0.03572,-0.3855 0.136525,-0.74216 -0.07435,-0.91784 -0.209286,-0.17463 -0.31459,-0.27279 -0.595313,-0.27279 -0.280723,0 -0.05741,-0.42174 -0.198437,-0.42174 -0.139436,0 -0.365919,-0.27067 -0.471223,-0.44662 -0.105305,-0.17463 -0.122502,0.28522 -0.297657,0.49609 -0.175154,0.21088 -0.248179,0.38127 -0.248179,0.52097 0,0.14155 -0.147373,0.44847 -0.322527,0.27278 -0.08678,-0.0868 -0.259027,-0.0807 -0.421746,-0.0992 -0.161131,-0.0164 -0.322527,-0.0651 -0.322527,-0.2233 0,-0.31433 0.05265,-0.19844 0.297656,-0.19844 0.246592,0 0.277548,-0.13124 0.347134,-0.27279 0.07144,-0.13943 0.127,-0.63367 0.372004,-0.66966 0.246592,-0.0341 0.114829,-0.21087 0.148696,-0.42174 0.03572,-0.21088 -0.272786,-0.38233 -0.272786,-0.76888 0,-0.3855 -0.28522,-0.35957 -0.496093,-0.57044 -0.105305,-0.10531 -0.254265,-0.17992 -0.421746,-0.19844 -0.165894,-0.0164 -0.355071,0.0341 -0.496094,0.17357 -0.139435,0.14155 -0.106892,0.22225 -0.02487,0.32252 0.08361,0.10134 0.210873,0.20453 0.297656,0.39688 0.176742,0.38655 -0.04974,0.67283 -0.04974,0.91784 0,0.24712 -0.173567,0.71199 -0.173567,0.57044 0,-0.0693 -0.05583,-0.186 -0.148696,-0.24818 -0.09155,-0.0601 -0.238654,-0.0807 -0.396875,0.0249 -0.156633,0.1053 -0.306916,0.0992 -0.496093,0.0249 -0.18759,-0.0743 -0.398463,-0.21405 -0.645055,-0.372 -0.245004,-0.15822 -0.490008,-0.27702 -0.66966,-0.39688 -0.179917,-0.11774 -0.31459,-0.22119 -0.297656,-0.39687 0.03572,-0.35031 0.151871,-0.54663 -0.02487,-0.79375 -0.08678,-0.12198 -0.120915,-0.27914 -0.173567,-0.37201 -0.05265,-0.091 -0.128587,-0.11483 -0.322527,0.0249 -0.192352,0.14156 -0.283633,0.15399 -0.372004,0.0744 -0.08678,-0.0786 -0.153458,-0.24606 -0.347133,-0.42174 -0.192352,-0.17463 -0.313267,-0.28311 -0.322527,-0.37201 -0.0077,-0.0868 0.0807,-0.13758 0.272785,-0.17357 0.193675,-0.0352 0.364331,-0.0992 0.446617,-0.17356 0.08361,-0.0744 0.09155,-0.15928 -0.04974,-0.24818 -0.280723,-0.17463 -0.297656,-0.47757 -0.297656,-0.79375 0,-0.31618 -0.128588,-0.37518 -0.620184,-1.04193 -0.245004,-0.33285 -0.214047,-0.48683 -0.07435,-0.57044 0.141022,-0.0836 0.386027,-0.0878 0.595312,-0.12409 0.421746,-0.0693 0.519377,-0.27596 0.694531,-0.52097 0.176742,-0.245 0.186002,-0.85883 -0.02487,-1.31471 -0.103981,-0.22728 0,-0.33496 0.148696,-0.39688 0.150284,-0.0601 0.351896,-0.0817 0.421746,-0.0992 0.141023,-0.0352 0.156633,-0.36592 0.471223,-0.47123 0.158221,-0.0526 0.277548,-0.23045 0.347133,-0.32252 0.07144,-0.091 0.106892,-0.11166 0.12409,0.0992 0.03572,0.42175 0.106892,0.58923 0.421746,0.69454 0.316177,0.1053 0.880533,0.52916 0.66966,0.24817 -0.209285,-0.28019 -0.04022,-0.5117 0.09922,-0.96731 0.07144,-0.22728 0.01085,-0.31327 -0.09922,-0.39688 -0.108479,-0.0836 -0.263525,-0.17674 -0.421746,-0.42174 -0.156633,-0.24501 -0.110066,-0.43418 0.02487,-0.57044 0.136525,-0.13653 0.361156,-0.22014 0.570442,-0.27279 0.421746,-0.1053 0.772054,-0.36909 1.017058,-0.7194 0.246592,-0.35031 0.03413,-0.87842 0.173567,-0.84349 0.141023,0.0362 0.5969,-0.15187 1.017058,-0.39688 0.210873,-0.12197 0.274373,-0.0505 0.322527,0.0497 0.04974,0.10134 0.07594,0.2376 0.198438,0.27279 0.124089,0.0362 0.280723,0.0672 0.372004,0.0497 0.09313,-0.0164 0.116152,-0.0868 -0.02487,-0.29766 -0.139435,-0.21087 -0.229394,-0.30189 -0.248179,-0.372 -0.01693,-0.0693 0.03413,-0.12197 0.173567,-0.29766 0.141022,-0.17462 0.22172,-0.27596 0.272785,-0.29765 0.05265,-0.0217 0.07911,0.027 0.148696,0.14869 0.07144,0.12303 0.171979,0.2077 0.272785,0.19844 0.100806,-0.009 0.221721,-0.10345 0.272786,-0.29766 0.05265,-0.19235 0.08837,-0.28019 0.148695,-0.29765 0.06191,-0.0164 0.136525,0.027 0.223309,0.14869 0.176741,0.24501 0.364331,0.0704 0.645054,0 0.280723,-0.0693 0.617008,-0.17145 0.545571,-0.34713 -0.06985,-0.17462 -0.165894,-0.30083 0.148696,-0.54557 0.257439,-0.1995 0.654314,-0.61383 0.843491,-0.79375 -0.03254,-0.10028 -0.07435,-0.32253 -0.07435,-0.32253 h 0.148696 v -0.32252 l -0.173566,0.0992 c 0,0 -0.198438,-0.2233 -0.223309,-0.49609 -0.02328,-0.27278 0.07435,-0.27278 -0.02487,-0.49609 -0.09922,-0.22331 -0.372004,0.0743 -0.694531,0.27278 -0.320939,0.19844 -0.272785,0.24818 -0.297656,-0.0744 -0.02328,-0.32252 0,-0.29765 -0.02328,-0.52096 -0.02487,-0.22331 -0.272786,0.27279 -0.372005,0.24818 -0.09922,-0.0246 -0.223308,-0.0992 -0.396875,-0.39688 -0.08705,-0.14949 -0.136525,-0.10318 -0.173831,-0.0503 z" />
  </g>
</svg>
