<?xml version="1.0" encoding="UTF-8" standalone="no"?>
<!-- Created with Inkscape (http://www.inkscape.org/) -->

<svg
   width="210mm"
   height="297mm"
   viewBox="0 0 210 297"
   version="1.1"
   id="svg4543"
   inkscape:version="1.1.1 (3bf5ae0d25, 2021-09-20)"
   sodipodi:docname="bavaria.svg"
   xmlns:inkscape="http://www.inkscape.org/namespaces/inkscape"
   xmlns:sodipodi="http://sodipodi.sourceforge.net/DTD/sodipodi-0.dtd"
   xmlns="http://www.w3.org/2000/svg"
   xmlns:svg="http://www.w3.org/2000/svg">
  <sodipodi:namedview
     id="namedview4545"
     pagecolor="#ffffff"
     bordercolor="#666666"
     borderopacity="1.0"
     inkscape:pageshadow="2"
     inkscape:pageopacity="0.0"
     inkscape:pagecheckerboard="0"
     inkscape:document-units="mm"
     showgrid="false"
     inkscape:zoom="0.7500982"
     inkscape:cx="397.28131"
     inkscape:cy="561.92642"
     inkscape:window-width="1920"
     inkscape:window-height="1027"
     inkscape:window-x="1912"
     inkscape:window-y="-8"
     inkscape:window-maximized="1"
     inkscape:current-layer="layer1" />
  <defs
     id="defs4540" />
  <g
     inkscape:label="Ebene 1"
     inkscape:groupmode="layer"
     id="layer1">
    <path
       fill="#99d9a1"
       stroke="#000000"
       stroke-width="0.132292"
       d="m 9.8898214,71.586773 c -0.071438,0.0061 -0.1317625,0.0093 -0.2233083,0.02487 -0.2976563,0.04974 -0.2727854,0.04974 -0.4712229,0.372004 -0.1984375,0.322262 -0.4217459,0.545571 -0.5209646,0.768879 -0.099219,0.223308 -0.3720042,0 -0.4466167,0.223308 -0.074612,0.223309 0,0.347134 0.024871,0.694531 0.024871,0.347398 0.097631,0.471223 -0.024871,0.843492 -0.1240896,0.372004 -0.3225271,0.396875 -0.5704416,0.645054 -0.2479146,0.248179 -0.4466167,0.04974 -0.7194021,-0.02487 -0.2727854,-0.07461 -0.5953125,-0.496093 -0.5953125,-0.496093 l -0.3720042,0.09922 c 0,0 0.2727855,0.297657 0,0.297657 -0.2727854,0 -0.3720041,0.124089 -0.6945312,0.372004 -0.3225271,0.247914 0.3471333,0.223308 0.5704417,0.297656 0.2233083,0.07435 1.0914062,0.173567 1.2154958,0.322527 0.1240896,0.148961 -0.074348,0.520965 -0.074348,0.620184 0,0.09922 -0.3720042,0.04974 -0.5455709,0.02487 C 6.2668819,76.647194 5.8715944,76.30006 5.8715944,76.30006 l -1.1408833,0.198438 -0.099219,-0.148696 -0.4712229,0.04974 -0.3720042,0.396874 0.1240896,0.645055 -0.2233083,0.446616 c 0,0 0.1240896,0.942446 0.1735666,1.488282 0.049477,0.545835 0.2481792,0.719402 0.2481792,1.091406 0,0.372004 -0.3720042,0.496094 -0.2976562,0.79375 0.074348,0.297656 0.2727854,0.347133 0.4712229,0.372004 0.1984375,0.02487 0.7921625,-0.198438 1.4634104,-0.570442 0.6696604,-0.372004 0.1984375,-0.272785 0.1486958,-0.595312 -0.049742,-0.322527 -0.2976562,0.04974 -0.4466167,-0.223309 -0.1489604,-0.27305 0.1240896,-0.496093 0.3225271,-0.421745 0.1984375,0.07435 0.396875,-0.24818 0.5704417,-0.07435 0.1735666,0.173831 0.1486958,-0.272786 0.3225271,0.02487 0.1738312,0.297656 0.2976562,0.372004 0.396875,0.396875 0.099219,0.02487 0.3471333,-0.471223 0.3720041,-0.24818 0.024871,0.223044 0,0.198438 0.024871,0.520965 0.023283,0.322527 -0.024871,0.272785 0.2976562,0.07435 0.3225271,-0.198438 0.5953125,-0.496094 0.6945312,-0.272786 0.097631,0.223309 0,0.223309 0.023283,0.496094 0.024871,0.272786 0.2233083,0.496094 0.2233083,0.496094 l 0.1735667,-0.09922 V 81.45996 H 8.7224798 c 0,0 0.1486958,0.347134 0.1984375,0.768879 0.049742,0.421746 0.074348,0.496094 0.5209645,0.570442 0.4466167,0.07435 0.3225271,-0.148696 0.3720042,-0.248179 0.049477,-0.09948 0.348721,-0.421746 0.421746,-0.198438 0.07435,0.223309 0.223308,0.421746 0.372004,0.669661 0.148696,0.247914 0.04974,0.421746 -0.148696,0.744008 -0.198437,0.322263 -0.02328,0.496094 0.12409,0.570442 0.148696,0.07435 -0.02328,0.223308 -0.173567,0.347133 -0.148696,0.12409 0,0.396875 0.04974,0.719402 0.04974,0.322527 0.520964,0.570442 0.66966,0.768879 0.148696,0.198438 -0.223308,0.347134 -0.223308,0.347134 l 0.198437,0.372004 c 0,0 0.09922,-0.02487 0.496094,0.173567 0.396875,0.198437 0.66966,0.496093 0.818621,1.041929 0.14896,0.545835 -0.04974,1.364191 -0.04974,1.364191 0,0 0.198438,0.223309 0.322527,0.570442 0.03254,0.08678 0.04815,0.157162 0.04974,0.223308 -0.08678,-0.07435 -0.175154,-0.114829 -0.223308,-0.09922 -0.110067,0.03731 -0.0093,0.274902 0.04974,0.396875 -0.02646,0.0093 -0.04339,0.02487 -0.07276,0.02487 -0.03863,0 -0.07594,-0.0061 -0.09922,-0.02487 l -0.02487,-0.173567 -0.148696,-0.173567 0.02487,0.173567 c -0.0217,0 -0.03863,0.01852 -0.07435,0.07435 -0.148695,0.223308 -0.272785,0.347133 -0.471223,0.124089 -0.198437,-0.223043 -0.496093,-0.694531 -0.496093,-0.148695 0,0.545835 0.396875,0.843491 0.396875,0.843491 v 0.620184 l -0.347134,-0.04974 -0.768879,0.768879 -0.148696,-0.198437 -0.4960933,0.372004 c 0,0 0,0.892968 0.099219,1.661848 0.099219,0.768879 0.4712223,1.091406 0.6945313,1.562629 0.223308,0.471223 0,0.694531 -0.12409,1.190625 -0.12409,0.496093 0.07435,0.694531 0.04974,0.992187 -0.02461,0.297656 0.02487,0.446617 -0.09922,0.694531 -0.12409,0.247915 -0.07435,0.322528 0.09922,0.471223 0.173566,0.148696 0,0.66966 -0.297657,0.96732 -0.2976555,0.29766 -0.09922,-0.1487 -0.421745,-0.347136 -0.3225271,-0.198438 -0.3720042,0.09921 -0.5704417,0.272786 -0.1984375,0.17357 -0.1735667,-0.322528 -0.4712229,-0.17357 -0.2976563,0.14896 -0.5455708,0.17357 -0.8680979,0.47123 -0.3225271,0.29765 -1.0170583,0.64505 -1.0170583,0.64505 l -0.074348,0.0743 c 0.083608,0.0609 0.1582209,0.12409 0.2481792,0.17357 v 0.0743 c 0,0.0206 0.018521,0.0331 0.024871,0.0498 l 0.2727855,-0.0498 c 1.1906249,0.37201 1.1146895,-0.96731 1.4882812,-0.66966 0.1486958,0.1487 0,0.52097 0.1486958,0.66966 0.2976563,0.0743 0.593725,-0.29765 0.8186208,-0.14869 0.2976553,0.14869 0.4450283,0.52096 0.7440083,0.74401 0.372004,0.29765 -0.150283,0.59531 0,0.81862 0.07435,0.14869 0.296068,0.22331 0.446616,0.22331 0.148696,0 0.372005,-0.29766 0.446617,-0.22331 0.223308,0.29765 -0.5969,0.74401 -0.297656,1.04193 0.520964,0.52096 1.934633,-1.19063 1.934633,-1.48828 0.148696,-0.52097 -0.299244,-1.78594 0.148696,-1.48829 0,0.0743 -0.148696,0.1487 -0.148696,0.1487 0.2667,0.30295 0.840318,0.21087 1.413933,0.12409 0.220134,-0.032 0.440268,-0.0619 0.645054,-0.0743 0.22622,-0.0135 0.432594,-0.0124 0.595314,0.0497 0.03731,0.0156 0.06509,0.0299 0.09922,0.0497 0.0093,0.006 0.01402,0.0185 0.02487,0.0249 0.03863,0.0278 0.09313,0.0609 0.12409,0.0992 0.03572,0.0487 0.05265,0.10743 0.07276,0.17357 0.07594,0.1487 -0.372003,0.0743 -0.297655,0.22331 0.01402,0.0278 0.04498,0.0548 0.07435,0.0743 0.01085,0.006 0.01402,0.0185 0.02487,0.0249 0.02487,0.0124 0.04657,0.0145 0.07435,0.0249 l 0.07435,-0.0249 0.07435,0.0249 h 0.02487 l 0.248179,0.0992 -0.02487,0.0249 c 0.196851,0.0836 0.446617,0.14155 0.570442,-0.0249 0.102393,-0.13441 0.114829,-0.24183 0.173567,-0.29766 0.06059,-0.0558 0.16748,-0.059 0.421745,-0.0249 0.127,0.0175 0.20611,0.0206 0.272785,0 0.06826,-0.0196 0.125678,-0.063 0.173567,-0.0992 0.09604,-0.0693 0.192352,-0.14869 0.446617,-0.14869 0.07276,0 0.151871,0.0299 0.248179,0.0743 0.0852,0.0392 0.175154,0.1106 0.272785,0.17357 0.100807,0.0683 0.216959,0.14155 0.322527,0.22331 0.04816,0.0362 0.102394,0.0619 0.148696,0.0992 -0.0048,-0.0847 -0.03572,-0.18918 -0.04974,-0.27279 -0.01244,-0.0836 -0.0077,-0.14578 0.07435,-0.17356 0.297656,-0.22331 0.66966,0.14869 0.967316,-0.0744 0.142611,-0.0714 0.18759,-0.2368 0.223309,-0.39688 0.0016,-0.007 -0.0016,-0.0164 0,-0.0249 0.02778,-0.12515 0.04974,-0.23574 0.124089,-0.32253 0.02487,-0.0278 0.06191,-0.0558 0.09922,-0.0743 0.847989,-0.32544 2.260335,-0.0288 3.299089,-0.1487 0.148696,-0.0164 0.291571,-0.0373 0.421746,-0.0743 0.167481,-0.0558 -0.255852,-0.745065 -0.09922,-1.116276 0.02646,-0.06191 0.0852,-0.108479 0.148696,-0.148696 0.0635,-0.04022 0.136525,-0.06509 0.248179,-0.07435 0.148696,0 -0.148695,0.446617 0,0.520965 0.09313,0.03731 0.19685,0.03731 0.297657,0.02487 0.102393,-0.01032 0.190764,-0.04657 0.297656,-0.07435 0.214048,-0.05583 0.446617,-0.09922 0.66966,-0.02487 0.111655,0.03731 0.151871,0.173567 0.198438,0.322527 0.0032,0.0082 -0.0016,0.01746 0,0.02487 0.03413,0.10451 0.07435,0.21299 0.148696,0.27278 0.02778,0.0217 0.06191,0.0402 0.09922,0.0497 0.07435,0.009 0.151871,0.008 0.223309,0 0.216959,-0.0217 0.410898,-0.10636 0.620183,-0.19843 0.279137,-0.120915 0.570442,-0.24818 0.868098,-0.24818 0.418571,0.02778 0.410898,0.2159 0.372004,0.47122 -0.01243,0.0857 -0.01693,0.17568 -0.02487,0.27279 -0.02778,0.39079 0.09922,0.85566 1.289844,1.19062 0.07435,0 0.14261,-0.0497 0.198438,-0.12409 0.02778,-0.0373 0.059,-0.0818 0.07435,-0.12409 0.01693,-0.0413 0.02487,-0.0868 0.02487,-0.12409 0.25109,-0.92075 0.288396,-1.33429 0.198438,-1.537753 -0.02937,-0.06615 -0.06826,-0.11774 -0.12409,-0.148696 -0.05583,-0.02884 -0.122502,-0.03519 -0.198437,-0.04974 -0.151871,-0.02778 -0.345811,-0.05688 -0.54557,-0.148696 -0.09922,-0.04445 -0.195264,-0.105304 -0.297656,-0.198437 -0.04657,-0.03731 -0.06668,-0.09604 -0.07435,-0.148696 -0.0061,-0.05265 0.0032,-0.109538 0.02487,-0.173567 0.04498,-0.127 0.120914,-0.261408 0.223308,-0.396875 0.102394,-0.134408 0.216958,-0.248179 0.297656,-0.347133 0.08229,-0.09922 0.14261,-0.179917 0.124089,-0.198438 0,-0.07435 -1.785938,-2.529945 -1.785938,-2.529945 0.07435,-1.190625 3.224742,-1.934634 3.894402,-2.455598 0.745596,-0.595313 0.297657,-1.413934 0.446618,-2.157942 0.07435,-0.148696 0.223308,-0.223308 0.372003,-0.223308 1.173693,0.279135 1.705241,0.606689 1.934633,-0.09922 0.03863,-0.11774 0.07752,-0.2667 0.09922,-0.446617 0.02328,-0.179916 0.04022,-0.3937 0.04974,-0.645054 0.0048,-0.118798 -0.0048,-0.233627 -0.02487,-0.347133 -0.0032,-0.02487 -0.01852,-0.04974 -0.02487,-0.07435 -0.01852,-0.08784 -0.0418,-0.18706 -0.07435,-0.272785 -0.0217,-0.05689 -0.04657,-0.11774 -0.07435,-0.173567 -0.02487,-0.05053 -0.04339,-0.09922 -0.07435,-0.148696 -0.02011,-0.03519 -0.05106,-0.06297 -0.07435,-0.09922 -0.10848,-0.161131 -0.24818,-0.323585 -0.396875,-0.471223 -0.0077,-0.0071 -0.01561,-0.01561 -0.02487,-0.02487 -0.158221,-0.155046 -0.331788,-0.303742 -0.520965,-0.446617 -1.274233,-0.731838 -2.988998,-1.715558 -3.125258,-1.810808 -0.02778,-0.02276 -0.04815,-0.04763 -0.07276,-0.07435 -0.059,-0.059 -0.102393,-0.130175 -0.148695,-0.198438 -0.04498,-0.06615 -0.0852,-0.127 -0.12409,-0.198437 -0.13335,-0.235744 -0.243417,-0.492919 -0.372004,-0.744009 -0.02778,-0.05265 -0.06985,-0.09604 -0.09922,-0.148695 -0.08678,-0.146844 -0.175154,-0.297657 -0.297656,-0.421746 -0.05424,-0.05265 -0.119327,-0.08784 -0.173567,-0.12409 -0.0217,-0.01244 -0.02937,-0.03836 -0.04974,-0.04974 -0.01693,-0.0093 -0.03254,-0.0164 -0.04974,-0.02487 -0.01852,-0.0071 -0.03254,-0.01852 -0.04974,-0.02487 -0.02487,-0.0093 -0.05106,-0.0164 -0.07435,-0.02487 -0.01693,-0.0032 -0.03413,0.0032 -0.04974,0 -0.07435,-0.0164 -0.150284,-0.0217 -0.223309,-0.02487 -0.299243,-0.0011 -0.593725,0.06826 -0.843491,0 -0.06985,-0.01852 -0.137848,-0.02593 -0.198438,-0.07435 -0.04339,-0.03201 -0.02328,-0.05689 0,-0.09922 0.0048,-0.01958 0.0093,-0.05265 0.02487,-0.07435 0.0077,-0.0093 0.01693,-0.01561 0.02328,-0.02487 0.01693,-0.0217 0.03572,-0.05054 0.04974,-0.07223 0.02011,-0.03307 0.04022,-0.07329 0.02487,-0.09922 -0.214048,-0.417513 -0.465138,-0.47334 -0.79375,-0.496094 -0.108479,-0.269875 -0.186002,-0.452702 -0.272786,-0.66966 -0.171979,0.08176 -0.395287,0.173566 -0.471223,0.223308 -0.263525,0.167481 -0.27596,-0.160073 -0.396875,-0.446617 -0.119327,-0.288396 0.446617,-0.322527 0.446617,-0.322527 l 0.04974,-0.372004 c -0.155046,-0.372004 -0.291571,-0.674952 -0.471223,-0.91784 l -0.545571,0.469107 -0.370417,-0.421746 0.496094,-0.520965 c -0.07435,-0.06509 -0.161131,-0.128058 -0.248179,-0.198437 0.148696,-0.818621 1.116277,-0.4445 0.892969,-1.488281 -0.07435,-0.446617 -0.595313,-0.545571 -0.744008,-0.620184 -0.268287,-0.173566 -0.506942,-0.396875 -0.744008,-0.645054 -0.0048,-0.0032 -0.0217,0.0053 -0.02487,0 -0.06826,0.04551 -0.111655,0.102394 -0.173567,0.148696 v -0.02487 c -0.131763,0.09498 -0.2667,0.191294 -0.372005,0.272785 l -0.07435,-0.09922 c 0,0 -0.283632,-0.958056 -0.520964,-1.438804 -0.240241,-0.478632 -0.254265,-0.598488 -0.396875,-0.694532 -0.139436,-0.09313 0.289983,-0.404018 0.297656,-0.620183 0,-0.0061 0,-0.0164 0,-0.02487 h 0.02487 c -0.01402,-0.02884 -0.03254,-0.06932 -0.02487,-0.09922 l -0.446617,-1.140883 -0.744008,-0.372004 c -0.03413,0.33999 -0.421746,0.322527 -0.421746,0.322527 l 0.372005,0.248179 -0.07435,0.322527 h -0.620184 l -0.04974,-0.223308 -1.810809,0.347133 -0.347133,-0.223308 -0.223308,-0.148696 -0.09922,-0.07435 0.04974,-0.173566 -0.471223,-0.471223 c -0.06985,0.04339 -0.128588,0.06191 -0.272786,0.173566 -0.216958,0.169598 -0.396875,0.272786 -0.396875,0.272786 l 0.248179,0.372004 h 0.09922 l -0.07435,0.07435 c 0,0 0.116152,0.458787 0.04974,0.645054 -0.03731,0.102394 0.03731,0.203729 0.09922,0.297656 -0.342636,0.03731 -0.70538,0.06085 -0.744009,0.09922 -0.07144,0.07144 -0.06668,0.601398 0.07435,0.496094 0.139436,-0.105304 0.12409,-0.148696 0.12409,-0.148696 l 0.272785,0.248179 c -0.119327,0.175683 -0.272785,0.396875 -0.272785,0.396875 l -1.215496,0.02487 0.173567,0.347133 -0.545571,0.471223 -0.446617,-0.520964 0.173567,-0.446617 -0.669661,-0.07435 -0.54557,-0.07435 0.07435,0.446617 -0.744009,-0.372004 c 0,0 -0.06509,-0.331788 -0.148696,-0.620184 -0.07911,-0.2667 -0.181504,-0.378354 -0.198437,-0.396875 l -0.02487,-0.02487 c 0,0 -0.254265,0.01244 -0.372004,-0.124089 -0.03731,-0.04127 -0.110067,-0.04445 -0.198438,-0.07435 -0.195262,-0.06191 -0.446616,-0.12409 -0.446616,-0.12409 0,0 0.0048,-0.106362 -0.02487,-0.248179 -0.108479,-0.01349 -0.237067,-0.04339 -0.272786,-0.04974 -0.15822,-0.02593 0.06985,-0.176741 0,-0.272785 -0.07144,-0.09604 -0.209285,-0.137583 -0.322527,-0.173567 -0.114829,-0.03413 -0.792162,-0.44741 -0.81862,-0.570441 -0.02646,-0.121973 -0.0217,-0.167482 -0.223309,-0.272786 -0.2032,-0.105304 -0.102394,0.113771 -0.198437,0.02487 -0.09763,-0.08678 -0.220134,0.03731 -0.272786,-0.02487 -0.05265,-0.06006 -0.148696,0.0093 -0.297656,0.148696 -0.1502838,0.141552 -0.1473733,0.059 -0.1735671,-0.248179 -0.018785,-0.1651 -0.01561,-0.400844 -0.00317,-0.596106 z m 0.8432266,1.5875 0.347134,0.272785 0.02487,0.347133 -0.347134,-0.09922 -0.198437,-0.272786 z m -14.6843743,6.07695 -0.7440084,0.272785 c -0.083608,0.14261 -0.075935,0.278077 0,0.396875 0.1240896,0.198438 0.1240896,0.347133 -0.1735666,0.421746 -0.2976563,0.07461 -0.4712229,0.07435 -0.5704417,0.297656 -0.099219,0.223308 -0.049742,0.372004 -0.5953125,0.372004 -0.5455708,0 -1.0170583,0.173567 -1.116277,0.496094 -0.06059,0.195263 -0.344223,0.578908 -0.6696605,0.91784 l 0.1486959,0.248179 -0.1984375,0.992187 -0.8929688,0.744009 0.1984375,1.537758 c 0.032544,0.0032 0.059002,0.0021 0.099219,0 0.2076979,-0.431006 0.4262437,-0.753533 0.6696604,-1.017058 l 0.049742,0.967316 c 0,0 0.8434916,-0.744008 1.2154958,-0.496094 0.3720041,0.247915 0.9178396,0.892969 1.7361958,1.066536 0.8183562,0.173567 3.0014333,0.744008 3.2990895,0.917839 0.061913,0.03731 0.2481792,0.161132 0.4217459,0.272786 0.00317,-0.0071 0.020108,-0.0164 0.024871,-0.02487 0.29765624,-0.545571 0.49609374,-1.835679 0.57044165,-2.282031 0.0727604,-0.446617 0.42174583,-0.744009 0.52096458,-0.992188 0.09921875,-0.248179 0.14869583,-0.595312 0.24817916,-0.967316 0.0994833,-0.372004 0.0727604,-0.520965 -0.12408958,-0.843492 -0.200025,-0.322527 -0.22330833,-0.719402 -0.22330833,-1.041929 0,-0.06006 -0.03413125,-0.06509 -0.04974167,-0.12409 -0.28839583,-0.09313 -0.45270207,-0.1778 -0.91783961,-0.223308 -0.7688791,-0.07435 -0.5455708,-0.570442 -0.7440083,-0.843492 -0.1984375,-0.27305 -0.8186208,-0.372004 -0.8186208,-0.372004 l -0.2233083,0.248179 -0.79375,-0.843491 z"
       id="path472" />
  </g>
</svg>
