<?xml version="1.0" encoding="UTF-8" standalone="no"?>
<!-- Created with Inkscape (http://www.inkscape.org/) -->

<svg
   width="210mm"
   height="297mm"
   viewBox="0 0 210 297"
   version="1.1"
   id="svg815"
   inkscape:version="1.1.1 (3bf5ae0d25, 2021-09-20)"
   sodipodi:docname="belgium.svg"
   xmlns:inkscape="http://www.inkscape.org/namespaces/inkscape"
   xmlns:sodipodi="http://sodipodi.sourceforge.net/DTD/sodipodi-0.dtd"
   xmlns="http://www.w3.org/2000/svg"
   xmlns:svg="http://www.w3.org/2000/svg">
  <sodipodi:namedview
     id="namedview817"
     pagecolor="#ffffff"
     bordercolor="#666666"
     borderopacity="1.0"
     inkscape:pageshadow="2"
     inkscape:pageopacity="0.0"
     inkscape:pagecheckerboard="0"
     inkscape:document-units="mm"
     showgrid="false"
     inkscape:zoom="0.7500982"
     inkscape:cx="397.28131"
     inkscape:cy="561.92642"
     inkscape:window-width="1920"
     inkscape:window-height="1027"
     inkscape:window-x="1912"
     inkscape:window-y="-8"
     inkscape:window-maximized="1"
     inkscape:current-layer="layer1" />
  <defs
     id="defs812" />
  <g
     inkscape:label="Ebene 1"
     inkscape:groupmode="layer"
     id="layer1">
    <path
       id="path3293"
       fill="#c0db49"
       stroke="#000000"
       stroke-width="0.132292"
       d="m 104.92044,113.78996 c -0.0418,-0.0754 -0.12409,-0.10028 -0.12409,-0.22331 0,-0.57468 -0.21088,-0.46911 -0.0744,-0.84349 0.0169,-0.0497 -0.003,-0.0992 0,-0.1487 -0.6014,-0.0373 -1.23402,0.064 -1.63724,-0.0497 -0.2032,-0.0558 -0.33338,-0.18097 -0.39688,-0.39687 -0.0651,-0.21485 -0.0574,-0.52203 0.0743,-0.99219 0.0743,-0.30083 0.44503,-0.3691 0.52096,-0.59531 0.0743,-0.14976 -0.29765,-0.0722 -0.29765,-0.22331 0.0743,-0.44953 0.46963,-0.8382 0.62018,-1.28985 0.0743,-0.14975 0.44662,-0.29554 0.372,-0.44661 -0.245,-0.31936 -0.54107,-0.54266 -0.84349,-0.71941 -0.30374,-0.17462 -0.63553,-0.31115 -0.96731,-0.39687 -0.66675,-0.16854 -1.3597,-0.18389 -1.95951,-0.29766 -0.263523,-0.0373 -0.482068,-0.62124 -0.669658,-1.16575 -0.18759,-0.54372 -0.334962,-1.0541 -0.446617,-1.01706 -0.337873,0.0765 -0.494506,0.18918 -0.570441,0.32253 -0.07752,0.13335 -0.07144,0.29448 -0.07435,0.39687 -0.0048,0.10451 -0.02646,0.16643 -0.148696,0.1487 -0.12409,-0.0156 -0.362744,-0.12197 -0.79375,-0.34713 -0.113242,-0.0744 0.04815,-0.21194 0.198437,-0.37201 0.148696,-0.15928 0.310092,-0.33284 0.198438,-0.44661 -0.0852,-0.0651 -0.176742,-0.096 -0.248179,-0.0992 -0.254265,-0.007 -0.438679,0.30585 -0.669661,0.54557 -0.116152,0.12091 -0.252677,0.21907 -0.396875,0.24818 -0.145785,0.0299 -0.299243,-0.009 -0.496093,-0.17357 -0.07594,-0.0743 0.223308,-0.44662 0.07435,-0.44662 -0.451115,-0.13123 -0.691357,-0.13758 -0.818621,-0.0497 -0.128588,0.0889 -0.158221,0.26353 -0.12409,0.44662 0.02778,0.16007 -0.01085,0.20373 0.02487,0.34713 0.05741,0.0156 0.07144,0.12621 0.148696,0.0992 0.04974,0.005 0.04498,0.0238 0.04974,0.0249 -0.01693,0.003 -0.03413,-0.003 -0.04974,0 -0.05742,0.0185 -0.100806,-0.0259 -0.148696,-0.0249 0.01693,0.12409 0.139435,0.34713 0.02487,0.34713 -0.153458,0.0516 -0.291571,-0.009 -0.421746,-0.0497 0.01852,0.1487 0.07276,0.31512 -0.04974,0.39688 -0.02487,0.0124 -0.110066,-0.0413 -0.148695,-0.0497 0.0093,0.13229 0.111654,0.29765 0,0.372 -0.150284,0.0765 -0.592138,-0.22013 -1.04193,-0.59531 -0.300831,0.26352 -0.641879,0.66569 -1.017058,0.91784 -0.18759,0.127 -0.389202,0.22621 -0.595312,0.24818 -0.207698,0.0217 -0.420159,-0.0228 -0.645055,-0.17357 -0.150283,-0.14976 0.148696,-0.46911 0,-0.54557 -0.564356,-0.26141 -1.221581,-0.059 -1.736195,-0.0497 -0.259028,0.005 -0.475986,-0.0352 -0.620184,-0.19844 -0.144198,-0.16219 -0.237066,-0.45376 -0.198437,-0.94245 l -0.148696,-0.29765 c -0.167481,0.0516 -0.3302,-0.0278 -0.496094,-0.0249 -1.551781,0.67283 -3.281891,1.91002 -4.439973,2.23255 l -0.07435,0.0744 c -0.249502,0.0455 -0.510116,0.0651 -0.768879,0.0992 0.44794,1.09352 0.609336,1.63618 0.322527,2.35638 -0.33946,0.84851 0.490009,1.45097 1.066536,1.9595 0.575204,0.50853 0.773641,0.0619 1.215496,-0.44662 0.440266,-0.50853 0.871272,-0.71728 1.041929,-0.0743 0.169068,0.64505 -0.497682,2.22011 0.248179,2.72838 0.744008,0.50853 0.471223,0.32544 1.488281,0.22331 1.015471,-0.10028 1.544108,0.43418 1.240367,1.31471 -0.305329,0.88265 0.0418,1.12871 0.347133,0.62018 0.303742,-0.50852 0.72099,-0.25849 0.992188,-0.12408 0.269875,0.13652 0.01561,-0.40402 0.694531,0.27278 0.677598,0.67786 0.209285,1.19671 0.446616,1.63724 0.237332,0.44053 -0.297656,1.16179 -0.02487,1.36419 0.269875,0.20373 0.813858,-0.1643 1.289843,0.17357 0.2032,0.14579 0.523875,0.25109 0.843492,0.32253 0.420158,0.095 0.837142,0.10848 0.992188,-0.12409 0.269875,-0.40614 0.05583,-0.88159 0.768879,-1.28985 0.2667,-0.15187 0.427831,-0.19843 0.54557,-0.19843 0.193675,0.002 0.277548,0.15081 0.595313,0.29765 0.506942,0.2376 -0.692944,1.17211 -0.421746,1.61237 0.269875,0.44027 -0.150283,1.25148 0.223308,1.48829 0.110067,0.0714 0.37518,0.21087 0.620184,0.34713 0.02937,0.0175 0.04339,0.0331 0.07435,0.0497 0.488421,0.27808 1.015471,0.59425 1.364191,0.89297 0.03572,0.0331 0.09313,0.0704 0.12409,0.0992 0.474398,0.4744 0.578379,0.90858 0.91784,0.94244 0.337875,0.0341 -0.216959,1.08109 0.868095,0.8435 1.08374,-0.23681 1.34409,-0.78767 1.78594,-0.34714 0.0619,0.064 0.17066,0.1479 0.24818,0.22331 l 0.0497,-0.24818 c 0.41249,0.0373 0.59531,-0.13335 0.62018,-0.39687 0.0233,-0.26353 -0.11006,-0.64294 -0.27278,-1.04193 -0.32861,-0.79693 -0.83238,-1.69598 -0.7194,-2.03412 0.11774,-0.32544 0.41698,-0.95594 0.79375,-1.51315 0.37518,-0.5551 0.83396,-1.03876 1.24036,-1.06654 l 0.0249,-0.0249 c -0.13652,-0.0775 -0.1815,-0.25109 -0.34713,-0.32253 -0.23707,-0.10027 0.37677,-0.70485 0.17357,-0.94244 -0.0124,-0.0135 -0.0156,-0.0341 -0.0249,-0.0497 0.14737,-0.10028 0.26828,-0.21193 0.34713,-0.32253 l -0.0497,-0.0497 0.12409,-0.0743 c -0.002,-0.006 0.002,-0.0185 0,-0.0249 -0.006,-0.0196 -0.008,-0.0384 -0.0249,-0.0497 -0.0357,-0.0217 -0.1024,-0.032 -0.1487,-0.0497 -0.0249,-0.007 -0.0325,-0.009 -0.0497,-0.0249 -0.0526,-0.0434 -0.0651,-0.13124 0.0497,-0.32253 0.0759,-0.127 0.10848,-0.25744 0.12409,-0.37201 0.014,-0.11482 0.002,-0.20769 0,-0.29765 -0.005,-0.1778 0.0109,-0.29766 0.19844,-0.29766 0.31776,0 0.6387,-0.15187 0.62018,-0.42174 -0.14869,-0.13441 -0.22013,-0.24607 -0.34713,-0.42175 -0.0714,-0.0413 -0.09,-0.14579 -0.1487,-0.19844 -0.0185,-0.0444 -0.0992,-0.0836 -0.0992,-0.12409 -0.001,-0.008 -0.003,-0.0354 -0.001,-0.0476 z" />
  </g>
</svg>
