<?xml version="1.0" encoding="UTF-8" standalone="no"?>
<!-- Created with Inkscape (http://www.inkscape.org/) -->

<svg
   width="210mm"
   height="297mm"
   viewBox="0 0 210 297"
   version="1.1"
   id="svg3593"
   inkscape:version="1.1.1 (3bf5ae0d25, 2021-09-20)"
   sodipodi:docname="borderpoland.svg"
   xmlns:inkscape="http://www.inkscape.org/namespaces/inkscape"
   xmlns:sodipodi="http://sodipodi.sourceforge.net/DTD/sodipodi-0.dtd"
   xmlns="http://www.w3.org/2000/svg"
   xmlns:svg="http://www.w3.org/2000/svg">
  <sodipodi:namedview
     id="namedview3595"
     pagecolor="#ffffff"
     bordercolor="#666666"
     borderopacity="1.0"
     inkscape:pageshadow="2"
     inkscape:pageopacity="0.0"
     inkscape:pagecheckerboard="0"
     inkscape:document-units="mm"
     showgrid="false"
     inkscape:zoom="0.7500982"
     inkscape:cx="397.28131"
     inkscape:cy="561.92642"
     inkscape:window-width="1920"
     inkscape:window-height="1027"
     inkscape:window-x="1912"
     inkscape:window-y="-8"
     inkscape:window-maximized="1"
     inkscape:current-layer="layer1" />
  <defs
     id="defs3590" />
  <g
     inkscape:label="Ebene 1"
     inkscape:groupmode="layer"
     id="layer1">
    <path
       id="Grand_Duchy_of_Warsaw"
       fill="none"
       stroke="#000000"
       stroke-width="0.132292"
       stroke-dasharray="0.4, 0.8"
       d="m 29.901674,29.811982 c -0.173567,-0.0042 -0.367506,0.0217 -0.595313,0.07435 -0.913077,0.210873 -1.764241,0.629444 -3.026304,0.768879 -0.268287,0.0299 -0.649552,0.191294 -1.066535,0.396875 0.03863,0.192352 0.06668,0.405077 0.223308,0.520965 0.01852,0.01852 0.04022,0.0093 0.07435,0 0.06668,-0.01852 0.161131,-0.05583 0.248179,-0.07435 0.0418,-0.0093 0.0852,-0.01852 0.12409,0 0.297656,0.148696 0.593725,0.372004 0.818621,0.66966 0.446616,0.744009 -1.117865,2.752196 0.520964,4.985809 l -0.07435,0.07435 0.148696,0.545571 c 0,0 0.01085,0.0299 -0.198437,0.09922 -0.05265,0.01746 -0.125678,0.05159 -0.198438,0.09922 -0.148696,0.09816 -0.308504,0.247121 -0.421746,0.396875 -0.05741,0.07646 -0.106891,0.153987 -0.124089,0.223308 -0.07144,0.280988 0.496093,0.877358 0.496093,1.017058 0,0.141552 0.252677,0.832909 0.744009,1.463411 0.490008,0.63156 0.773641,0.731837 0.66966,0.942446 -0.105304,0.210873 -0.148696,0.992187 -0.148696,0.992187 l -0.322527,0.347133 -0.595312,0.322528 -1.190625,1.190625 h -0.02487 l -1.438804,1.438804 -0.248179,-0.07435 -0.471223,0.520964 -2.406121,0.347134 -0.843492,0.322527 -0.843491,0.520964 -1.165755,1.413934 -0.868097,-0.07435 -0.421746,-0.223309 -0.198438,-0.124089 -0.620183,0.148696 -0.09922,0.347133 c -0.04974,0.204523 -0.124089,0.601398 -0.148696,0.66966 -0.06509,0.169598 -0.117739,0.278077 -0.173566,0.347134 -0.03572,0.04339 -0.07594,0.06085 -0.12409,0.07435 v 0.02487 l -0.79375,0.570442 c 0,0 -0.06509,-0.0032 -0.07435,0 0,0 -0.336285,0.09313 -0.694531,0.09922 -0.128588,-0.0011 -0.25744,-0.01032 -0.372004,-0.04974 -0.02487,-0.0042 -0.05265,0.0082 -0.07435,0 -0.437092,-0.145785 -0.602986,-0.642937 -0.620184,-0.694531 l -0.917839,0.545571 -0.272785,0.768879 -0.868098,-0.04974 -0.91784,-0.66966 0.09922,0.768879 L 9.5366949,51.41574 8.7678157,51.217303 c 0,0 -0.2619375,0.609864 -0.6696604,0.967316 -0.4093104,0.358511 -0.79375,0.421746 -0.79375,0.421746 v 0.496094 H 6.3619595 l -0.2481792,0.272785 c 0,0 -0.038629,1.026319 -0.4466166,1.537759 -0.4093104,0.511704 -0.2727854,1.215495 -0.2727854,1.215495 l -0.4466167,0.396875 -0.1486958,1.910028 c 0,0 -0.2651125,-0.100278 -0.5704417,-0.04974 -0.3069166,0.05159 -0.8186208,0.967317 -0.8186208,0.967317 L 3.112347,58.93123 l -2.97656242,3.943879 1.88515622,1.389062 0.8680979,1.413934 -0.4466166,0.66966 0.3471333,0.04974 0.1486958,0.421745 0.6696604,0.04974 0.6201833,1.116277 -0.3720041,0.868098 0.5704416,0.471223 -0.099219,0.595313 0.3471333,2.108464 1.1408833,0.248179 0.9673167,1.165754 c 0.082285,-0.0011 0.396875,-0.01852 0.7194021,0.04974 0.1473729,0.02699 0.2899833,0.06403 0.396875,0.12409 v 0.04974 c 0.038629,0.03625 0.059002,0.08361 0.074348,0.12409 0.012435,0.03731 0.024871,0.08255 0.024871,0.124089 -0.00317,0.04022 -0.01561,0.0807 -0.024871,0.12409 -0.029369,0.135467 -0.07276,0.287338 -0.049742,0.446617 0.051065,0.35851 0.4217458,0.545571 0.4217458,0.545571 l 1.1162771,0.223308 1.6867183,1.364192 -0.04974,1.017058 -0.768879,0.66966 0.04974,0.719402 0.719402,0.198438 0.04974,0.471223 0.967316,0.744008 c 0.06668,-0.0093 0.131763,-0.01958 0.198438,-0.02487 0.164306,-0.0093 0.322527,-0.0093 0.446616,0.02487 0.490009,0.141552 1.010709,-0.214842 1.537759,0.09922 0.525462,0.316177 1.674283,0.271727 1.885156,0.446616 0.209285,0.175684 -0.105304,-0.517789 0.421746,-0.272785 0.525462,0.247121 0.500856,0.274902 0.992187,0.09922 0.401638,-0.142611 0.668073,-0.04974 0.620184,0.124089 0.458787,-0.05371 0.958056,-0.09922 1.537758,-0.124089 0.113242,-0.112713 0.227806,-0.207698 0.347133,-0.297656 0.595313,-0.449528 1.237192,-0.647965 1.736196,-0.942446 0.09922,-0.059 0.186002,-0.127 0.272785,-0.198438 0.0852,-0.06932 0.176742,-0.134408 0.24818,-0.223308 0.561181,-0.700617 1.537758,-0.843492 1.537758,-0.843492 0.103981,-0.148696 0.21246,-0.292364 0.322527,-0.421746 0.761206,-0.894027 1.57824,-1.308364 2.009246,-1.984375 0.490008,-0.772054 0.843491,-1.191683 1.264973,-2.034116 0.420158,-0.841375 0.541073,-1.532731 0.892968,-1.041929 0.153459,0.216958 0.25109,0.467254 0.372005,0.645054 0.15187,0.226219 0.347133,0.324644 0.81862,0.04974 0.02778,-0.01561 0.04657,-0.03519 0.07435,-0.04974 0.09604,-0.05265 0.189177,-0.09393 0.272786,-0.12409 0.582877,-0.208756 0.843491,0.105304 1.140883,0.520965 0.350308,0.49186 0.623094,0.911489 0.272785,1.612371 -0.07144,0.141552 -0.139435,0.279135 -0.198437,0.396875 -0.235744,0.474398 -0.344223,0.775229 0.04974,0.942445 0.110066,0.04868 0.187589,0.03731 0.248179,0 0.059,-0.03519 0.103981,-0.09393 0.148696,-0.173566 0.08837,-0.155046 0.17833,-0.354542 0.421745,-0.421746 0.05265,-0.01349 0.103982,-0.02487 0.173567,-0.02487 0.415396,0 0.92075,0.170656 1.389063,0.223308 0.02328,0.0032 0.04974,-0.0011 0.07435,0 0.193675,0.01746 0.381265,0.0053 0.545572,-0.04974 0.0061,-0.0011 0.01693,0.0032 0.02487,0 0.07276,-0.02593 0.15822,-0.05054 0.223308,-0.09922 0.235743,-0.176742 0.37518,-0.360627 0.545571,-0.496094 0.234157,-0.186002 0.503767,-0.303741 0.992188,-0.223308 0.0852,0.01561 0.147373,0.03307 0.223308,0.04974 0.06985,-0.112713 0.178329,-0.233627 0.396875,-0.471223 1.0541,-1.150409 0.471223,-0.583936 1.910027,-0.967317 0.77814,-0.207698 1.134798,0.105304 1.389063,0.223308 0.313266,-0.224366 0.468312,-0.583935 0.570441,-0.992187 0.139436,-0.561181 0.342636,-0.7112 0.694532,-0.992188 0.350308,-0.280193 0.633941,0.0032 -0.347134,-0.768879 -0.2667,-0.208756 -0.443441,-0.362743 -0.570441,-0.496093 -0.344223,-0.357717 -0.313267,-0.512763 -0.620184,-0.76888 -0.421746,-0.350308 1.544109,0.06085 0.421746,-0.992187 -1.12395,-1.052248 -2.809081,-2.241815 -3.299089,-2.802996 -0.491332,-0.561181 0.494506,-0.40296 0.07435,-1.314714 -0.421745,-0.91149 -1.493043,-1.345671 -1.140883,-2.678907 0.350308,-1.333235 0.08678,-1.600993 0.297656,-2.654035 0.209286,-1.052248 0.407723,-1.488281 -0.223308,-1.488281 -0.632619,0 -1.319212,-0.475457 -1.389062,-0.967317 -0.07144,-0.490802 -0.84799,-0.29554 -0.91784,0.12409 -0.07144,0.421745 -1.344083,0.63156 -1.413933,0 -0.07144,-0.630502 -0.0032,-1.466586 -0.843492,-1.116277 -0.843492,0.350308 -2.241815,0.700616 -2.382837,-0.421746 -0.139436,-1.122363 0.07594,-2.884488 0.917839,-3.026304 0.843492,-0.139436 0.914665,-0.211932 0.844815,-0.843492 -0.07144,-0.630502 0.548746,-1.120246 0.198437,-1.612371 -0.351896,-0.490802 -0.418571,-1.119187 -0.768879,-0.768879 -0.351896,0.350308 -1.119187,0.157162 -0.348721,-0.545571 0.772054,-0.700617 0.925513,-0.351367 0.223309,-0.843492 -0.700617,-0.490802 -1.984375,0.554038 -1.984375,-0.148695 0,-0.700617 -0.968905,-2.103173 -0.198438,-2.034117 0.772054,0.07038 2.11455,-0.708025 2.606146,-1.761067 0.490008,-1.052248 0.768879,-2.16826 1.190625,-1.537758 0.420158,0.63156 1.468173,0.429948 1.959504,0.148696 0.490008,-0.280194 0.05741,-0.289454 0.620183,-0.992188 0.561182,-0.700616 0.862013,-1.950243 0.372004,-1.389062 -0.491331,0.561181 -0.917839,0.688446 -0.917839,-0.223308 0,-0.911755 0.917839,0.200554 0.917839,-0.992188 0,-1.191683 0.610923,-0.694531 0.892969,-0.694531 0.280723,0 0.275961,-0.214842 -0.07435,-0.91784 -0.351897,-0.700616 -0.274373,1.209146 -0.694531,0.297657 -0.421746,-0.91149 -1.10834,-2.533121 -0.545571,-2.182813 0.56118,0.350308 0.347133,-0.13335 0.347133,-1.116277 0,-0.98081 -0.579703,-0.779198 -0.719403,-0.148696 -0.141022,0.631561 -0.492918,0.854604 -0.421745,-0.198437 0.06985,-1.052248 0.438679,-0.207698 0.719402,-0.76888 0.280724,-0.561181 -0.347133,-1.140883 0.07435,-1.562629 0.420158,-0.419629 0.68527,-1.45415 0.124088,-1.314714 -0.562769,0.141552 -1.179777,1.112044 -1.389062,0.620183 -0.210873,-0.490802 -0.643467,-0.549804 -1.413934,-1.041929 -0.579702,-0.366977 -0.919427,-0.630502 -1.440127,-0.645054 h 0.0029 z" />
  </g>
</svg>
