<?xml version="1.0" encoding="UTF-8" standalone="no"?>
<!-- Created with Inkscape (http://www.inkscape.org/) -->

<svg
   width="210mm"
   height="297mm"
   viewBox="0 0 210 297"
   version="1.1"
   id="svg1342"
   inkscape:version="1.1.1 (3bf5ae0d25, 2021-09-20)"
   sodipodi:docname="danmark.svg"
   xmlns:inkscape="http://www.inkscape.org/namespaces/inkscape"
   xmlns:sodipodi="http://sodipodi.sourceforge.net/DTD/sodipodi-0.dtd"
   xmlns="http://www.w3.org/2000/svg"
   xmlns:svg="http://www.w3.org/2000/svg">
  <sodipodi:namedview
     id="namedview1344"
     pagecolor="#ffffff"
     bordercolor="#666666"
     borderopacity="1.0"
     inkscape:pageshadow="2"
     inkscape:pageopacity="0.0"
     inkscape:pagecheckerboard="0"
     inkscape:document-units="mm"
     showgrid="false"
     inkscape:zoom="0.7500982"
     inkscape:cx="397.28131"
     inkscape:cy="561.92642"
     inkscape:window-width="1920"
     inkscape:window-height="1027"
     inkscape:window-x="1912"
     inkscape:window-y="-8"
     inkscape:window-maximized="1"
     inkscape:current-layer="layer1" />
  <defs
     id="defs1339" />
  <g
     inkscape:label="Ebene 1"
     inkscape:groupmode="layer"
     id="layer1">
    <g
       id="Dänemark_1_"
       transform="matrix(0.26458333,0,0,0.26458333,-39.052177,-17.157624)">
      <path
         fill="#9cdf5f"
         stroke="#000000"
         stroke-width="0.5"
         d="m 214.762,197.781 c 1.688,-0.844 4.213,-0.562 5.906,-1.688 3.375,-2.254 1.969,-7.031 0.562,-9.562 -0.281,-0.844 -1.406,0.281 -1.969,-0.281 -1.131,-0.844 -1.969,-1.969 -2.812,-3.094 -1.975,-1.691 -4.312,4.5 -6.844,3.656 -1.975,-0.844 3.463,-3.094 5.438,-4.219 0.281,-0.281 1.406,0.562 1.406,0 0,-0.844 -1.406,-1.688 -1.406,-2.531 0,-0.562 1.688,-0.562 1.406,-0.844 -1.693,-1.406 -3.75,-2.812 -5.719,-3.375 -0.428,-0.141 -1.043,0.07 -1.5,0.281 1.547,-1.119 10.617,-6.662 6.375,-9.844 -1.412,-1.125 -4.031,-0.281 -5.438,-1.406 -0.568,-0.281 1.125,-0.844 0.844,-1.688 0,-0.562 -1.688,-0.562 -1.406,-1.125 2.812,-4.506 4.588,-3.938 8.812,-4.781 1.406,-0.281 4.5,0.281 3.938,-0.844 -3.662,-6.756 -6.469,-0.562 -9,0.281 -1.131,0.562 -2.625,-0.562 -3.75,0 -1.131,0.562 -1.125,3.656 -2.25,3.094 -9.287,-5.068 1.125,-6.188 -0.844,-10.406 -0.568,-0.844 -2.25,-0.562 -2.812,-1.688 -0.568,-1.973 3.656,-4.219 -1.406,-5.344 -1.975,-0.562 -3.938,-1.969 -5.906,-1.125 -1.412,0.844 -1.125,3.09 -1.406,4.781 0,1.406 0.562,2.812 0,3.938 -0.281,1.125 -1.688,1.688 -2.25,2.531 -0.211,0.422 0.064,1.623 0.094,1.969 -0.012,-0.018 -0.076,0.035 -0.094,0 0,0 -1.125,-4.504 -2.812,-2.531 -0.85,0.844 0.844,3.938 -0.281,3.375 -2.537,-1.691 -2.25,-8.156 -5.344,-7.875 -3.1,0.281 -5.906,4.215 -7.312,6.469 -0.281,0.281 -0.281,1.125 -0.562,1.125 0,0 -0.275,-0.896 -0.562,-1.594 -0.211,0.053 -0.914,-0.023 -1.125,0.188 -0.568,0.281 -0.562,2.25 -0.562,1.688 -0.568,-2.816 1.125,-14.91 -6.188,-12.938 -2.818,0.562 -2.812,28.412 -5.062,18.844 -1.412,-5.35 0.557,-2.25 1.406,-8.156 1.969,-10.412 -1.406,1.691 -2.812,-5.344 -0.281,-1.406 1.406,-2.25 1.406,-3.656 -0.281,-2.254 0,-5.344 -1.969,-6.188 -1.975,-1.125 -4.219,1.969 -6.469,2.531 -0.281,0 -0.281,-0.844 -0.562,-1.125 -1.131,-0.562 -2.25,-1.125 -3.094,-0.844 -1.412,0.562 -2.531,2.25 -2.812,3.656 -1.131,2.25 1.406,11.25 -3.094,7.312 -5.631,-4.506 3.094,-16.875 -6.75,-17.719 -2.818,-0.281 -1.406,10.963 -5.062,14.906 -0.568,0.562 -9.006,8.16 -7.312,1.125 0.281,-1.125 8.162,-9.006 -3.375,-2.812 -3.662,1.969 -3.375,13.781 -9.281,12.656 -1.693,-0.281 0.275,-3.656 0.844,-5.344 0.562,-1.406 2.812,-2.812 2.25,-4.219 -0.281,-1.406 -4.225,-0.562 -3.656,-1.969 0.281,-2.254 4.494,-2.25 5.062,-4.5 0.562,-1.973 -1.969,-3.938 -2.531,-6.188 -0.568,-0.844 -1.693,-2.812 -0.844,-2.531 2.25,0.844 3.088,4.781 5.344,4.219 12.943,-1.973 0,-7.594 0.281,-9 0.562,-1.406 4.781,1.406 4.781,-0.281 0.281,-1.691 -3.938,-0.562 -4.5,-2.25 -0.568,-1.973 2.25,-3.938 1.969,-5.906 0,-1.406 -2.25,-1.125 -2.812,-2.25 -0.281,-0.562 1.119,-0.281 1.688,-0.562 0.562,-1.125 -1.406,-2.812 -1.688,-3.094 -0.568,-0.281 -1.969,0.281 -1.969,-0.281 -0.281,-1.406 3.938,-4.219 1.125,-6.469 -1.131,-0.844 -3.094,-0.562 -4.219,-1.406 -1.131,-0.844 -1.125,-2.531 -1.969,-3.375 -0.568,-0.281 0,0.844 0,1.406 0,0.281 -0.281,0.562 -0.281,0.562 -0.176,0 -3.346,-2.432 -4.781,-2.25 -0.867,0.105 -1.096,1.156 0.281,4.219 0.457,1.004 0.855,1.754 1.219,2.438 -0.691,-0.102 -1.289,0.094 -1.781,0.656 -1.131,1.688 1.963,7.031 2.812,7.875 0.562,0.844 2.25,0.281 2.25,1.406 -0.281,5.625 -5.062,7.875 -5.062,7.594 -7.6,-4.787 0,-16.594 -6.75,-19.125 -8.162,-2.816 -1.688,6.188 -2.812,7.031 -1.975,0.844 -3.375,-4.5 -5.344,-3.656 -4.225,1.969 5.344,9.562 4.5,10.406 -2.537,2.812 -9.006,-15.475 -7.875,-5.906 0.281,2.25 0.838,4.777 2.531,6.469 1.125,1.125 5.625,-0.281 4.781,1.125 -1.412,1.406 -4.5,-1.688 -5.625,-0.281 -1.131,0.844 3.094,2.25 2.25,3.375 -6.475,8.723 -3.094,-10.406 -8.156,-10.125 -5.631,0 2.812,8.152 -1.125,10.688 -1.412,0.844 -8.156,-16.037 -10.406,-4.219 -0.568,2.812 6.182,2.527 7.031,5.062 0,0.844 -1.406,0.844 -1.406,1.688 0.281,4.5 8.15,0.562 9.844,1.125 0.844,0.281 0.557,2.25 1.406,2.25 1.406,-0.281 1.4,-2.25 2.531,-3.094 0.281,0 -0.281,1.125 0,1.406 1.406,3.656 1.4,0.281 3.375,-0.281 0.562,0 -0.568,1.406 0,1.406 0.562,0 1.406,-1.688 1.688,-1.125 0.562,1.406 -0.844,3.09 -0.562,4.781 0.562,2.531 10.125,-12.102 10.406,1.125 0,2.25 -5.344,1.402 -5.625,3.375 -0.281,3.094 10.406,2.246 8.156,4.219 -1.131,1.406 -3.094,-0.281 -4.781,-0.281 -3.381,0.281 -8.438,0.84 -11.531,3.094 l -0.562,0.562 c 1.125,2.25 3.088,5.344 5.625,5.625 2.25,0.281 5.057,-2.816 6.188,-1.125 7.312,12.1 -13.781,-1.691 -15.188,0 0.328,-1.154 0.738,-2.355 0,-3.094 -1.693,-1.125 -3.938,0 -5.906,0.562 -1.131,0.281 -1.688,2.812 -2.531,1.969 -1.131,-0.844 1.969,-3.094 0.844,-3.656 -2.537,-1.406 -6.469,2.25 -9,0.844 -2.818,-1.691 -2.25,-4.5 -5.344,-3.094 -11.262,5.344 4.213,5.344 5.344,5.906 0.844,0.281 0.557,1.688 1.125,1.969 0.281,0.281 0.838,-0.562 1.406,-0.562 0.562,0 1.406,-0.281 1.688,0.281 1.969,1.406 4.213,5.062 6.469,6.188 0.562,0.281 -0.562,-1.125 -0.281,-1.406 0.844,-0.562 0.557,1.688 1.406,1.969 1.125,0.562 3.656,-1.125 3.938,0 0.562,1.969 -2.531,3.09 -2.812,4.781 -0.281,1.688 0.844,3.09 0.844,4.781 -0.281,1.406 -2.537,4.219 -1.125,4.5 1.969,0.281 8.994,-3.094 9.844,-2.812 0.844,0.562 3.938,0.281 3.094,0.844 -1.693,1.406 -3.938,1.688 -5.906,1.969 -1.131,0 -2.531,-0.844 -3.375,-0.562 -1.412,0.562 -2.531,1.688 -2.531,3.094 -0.281,0.844 2.531,1.125 1.969,1.688 -1.131,1.125 -5.912,-0.281 -4.5,0.562 1.969,0.844 4.213,0.281 6.469,0.562 h 1.688 c 1.125,0.562 4.781,2.812 3.375,2.531 -1.975,-0.281 -3.938,-1.688 -5.906,-1.688 -10.693,0.844 0.844,3.934 -7.875,7.312 -1.975,0.844 -4.5,-1.125 -6.75,-0.844 -0.85,0 -1.125,1.969 -1.406,1.406 -1.412,-1.691 0,-5.344 -2.25,-6.188 -1.412,-0.562 -0.562,3.656 -1.406,5.062 -0.85,1.125 -4.506,2.25 -3.375,3.094 0.844,0.562 18.838,9.281 19.688,9.562 1.125,0.281 2.244,0 3.094,0.844 1.688,1.406 1.682,4.219 3.656,5.344 1.125,0.562 2.525,-3.094 3.094,-1.969 1.125,1.969 -2.537,5.062 -0.844,6.469 0.141,0.117 0.229,0.193 0.375,0.188 -0.018,0.041 -0.082,0.053 -0.094,0.094 -0.568,1.406 0.844,3.094 1.125,4.5 1.969,5.625 5.057,3.094 8.719,6.188 2.531,2.531 6.744,10.688 11.812,12.375 1.969,0.844 12.369,1.969 14.344,0.281 0.844,-0.844 1.119,-7.594 5.062,-6.469 2.25,0.844 8.432,1.125 10.125,1.688 1.125,0.562 1.4,2.812 2.531,2.531 1.406,-0.562 0.838,-4.219 2.531,-4.5 1.969,0 2.525,3.094 4.5,3.938 0.562,0.281 1.682,0 2.25,-0.281 3.656,-1.406 6.744,-4.5 10.406,-5.062 7.031,-1.125 2.807,0.844 10.406,-0.562 0.281,0 -1.125,-0.844 -0.844,-0.844 0.562,-0.562 1.688,0.562 1.969,0 0.844,-1.406 -0.85,-4.781 0.562,-4.5 4.5,1.125 3.65,8.438 5.344,8.156 1.969,-0.281 3.088,-2.812 5.062,-3.375 0.844,-0.281 2.525,1.406 3.094,0.562 1.406,-1.688 0.275,-5.062 1.969,-6.469 1.406,-1.406 5.057,0.562 5.906,-1.125 1.125,-1.969 -3.381,-4.5 -1.969,-6.188 1.406,-1.406 1.119,4.219 2.531,5.625 1.969,1.969 5.338,-1.125 7.875,-2.25 0.562,-0.281 1.969,-0.844 1.688,-1.406 -0.568,-1.406 -4.506,-2.25 -3.375,-3.094 1.406,-1.125 3.744,2.812 5.156,1.688 0.703,-0.633 0.504,-1.559 -0.094,-2.531 1.102,0.475 2.191,0.68 2.906,0.281 11.537,-6.756 -3.094,-8.438 -3.938,-9.281 -0.577,-0.561 0.548,-1.686 1.398,-2.249 z m -99.656,-88.312 c 0.281,0 0.281,0.562 0,0.844 -0.498,0.246 -1.828,0.047 -1.969,0.562 -0.152,-0.105 -0.322,-0.176 -0.469,-0.281 0.615,-0.5 1.336,-1.043 2.438,-1.125 z m -17.813,99.187 c 0.639,-0.926 1.254,-1.934 1.969,-2.156 0.199,-0.064 0.445,-0.105 0.656,0 1.155,0.574 -0.984,1.219 -2.625,2.156 z"
         id="path546" />
      <path
         id="Färöer"
         fill="#9cdf5f"
         stroke="#000000"
         stroke-width="0.5"
         d="m 294.918,341.594 c 0,1.969 -0.562,5.344 -2.531,5.344 -1.693,-0.281 0.281,-3.656 0,-5.344 -0.258,-0.85 -1.184,-1.74 -2.156,-2.531 0.311,-0.141 1.307,-1.312 2.156,-1.5 0.51,-0.117 0.914,0.164 1.125,1.219 0,0.562 -1.406,0.562 -1.406,0.844 0.562,1.124 2.812,0.843 2.812,1.968 z m -5.906,-5.438 c -2.467,0.164 -0.691,1.354 1.125,2.812 0.012,-0.24 0.275,-0.961 1.125,-2.719 -1.025,-0.069 -1.705,-0.134 -2.25,-0.093 z" />
      <path
         id="Dänemark"
         fill="#9cdf5f"
         stroke="#000000"
         stroke-width="0.5"
         d="m 97.293,208.656 c 0.639,-0.926 1.254,-1.934 1.969,-2.156 0.199,-0.064 0.445,-0.105 0.656,0 1.155,0.574 -0.984,1.219 -2.625,2.156 z m 17.813,-98.344 c 0.281,-0.281 0.281,-0.844 0,-0.844 -1.102,0.082 -1.822,0.625 -2.438,1.125 0.146,0.105 0.316,0.176 0.469,0.281 0.141,-0.515 1.471,-0.315 1.969,-0.562 z m 469.218,469.969 c -0.633,0.018 -1.477,-0.475 -2.25,-0.281 0.393,0.691 1.418,0.357 2.25,0.281 z m -27.468,-6.187 c 0,-0.551 0.422,-1.875 0.094,-2.812 -0.088,-0.234 -0.17,-0.352 -0.281,-0.375 -0.34,-0.064 -0.785,0.727 -1.219,1.406 -0.58,0.908 -1.711,0.891 -2.812,1.031 -1.102,0.135 -0.545,0.838 -0.844,1.5 -0.305,0.662 -0.773,0.85 0,1.125 0.768,0.275 0.416,0.393 -0.656,0.75 -0.252,-0.029 -0.762,0.035 -1.312,0.281 -0.557,0.246 0.152,0.674 -0.562,1.5 -0.721,0.826 0.393,0.141 1.031,0.281 0.633,0.135 0.82,0.891 1.125,1.5 0.299,0.604 0.686,0.926 1.406,0.844 0.715,-0.082 1.248,-0.715 1.5,-1.125 0.246,-0.416 0.627,-1.113 1.125,-1.688 0.492,-0.58 1.178,-1.582 0.656,-2.156 -0.527,-0.58 -0.756,-1.465 -0.281,-2.344 0.373,-0.714 0.866,0.188 1.03,0.282 z m -4.605,61.152 c -0.465,-0.146 -0.924,-0.281 -1.378,-0.403 -0.105,-0.741 -0.233,-1.478 -0.305,-2.253 -0.023,-0.297 -0.094,-0.625 -0.094,-0.938 -0.281,-1.688 0.568,-4.219 -0.562,-5.344 -0.99,-0.117 -1.775,-0.469 -2.438,-0.844 -0.146,0.254 -0.34,0.418 -0.75,0.375 -1.254,-0.129 -1.143,0.41 -0.281,0.938 0.867,0.535 0.469,2.004 0.469,3 0,0.996 -1.529,-0.273 -2.062,-2.531 -0.463,-1.125 -0.451,-1.223 -0.188,-1.688 0.129,-0.223 0.891,-0.637 1.594,-0.938 -1.389,-1.277 -1.939,-2.801 -3.094,-2.906 -1.834,-0.164 3.469,7.852 -4.031,0 0.182,-3.695 2.625,-7.406 2.625,-11.062 -1.166,-5.363 -0.545,-5.914 0.469,-1.496 0.117,0.486 0.762,-0.404 1.031,-0.188 0.275,0.217 0.141,1.113 -0.188,1.965 3.99,-2.656 2.162,-4.684 1.594,-5.809 -0.281,-0.562 -0.551,-2.379 -1.781,-3.469 -1.348,-0.316 -1.383,-0.023 -1.969,3.562 -0.844,0.281 -0.75,-1.781 -0.75,-2.625 0.287,-1.969 0.656,-3.75 0.656,-5.438 0.146,-0.844 -0.006,-1.652 0,-2.344 0.035,-4.271 0.182,-7.424 0.469,-1.875 6.727,4.676 -0.562,-3.469 -0.275,-3.469 0.322,-3.979 1.125,-10.582 2.344,-9.844 1.688,0.562 -1.488,1.676 1.312,4.875 3.17,-0.48 3.885,1.922 4.688,0.656 0.656,-1.043 1.008,-0.691 1.594,2.156 0.217,1.061 1.119,0.82 2.062,0.75 1.875,-0.141 -0.516,-3.996 -0.469,-5.344 2.291,-0.885 1.957,-1.594 2.531,-2.625 0.803,-1.447 2.432,-2.812 2.719,-2.812 2.303,-0.809 2.924,-0.07 3.656,1.219 1.916,0.709 1.424,1.031 0,2.438 -1.518,1.488 -1.576,3.264 -1.781,4.406 0.562,0.703 1.248,-2.631 2.719,-2.438 4.934,0.65 -1.746,3.27 2.906,3.375 1.195,-1.102 -0.791,0.076 -0.844,-1.031 0.258,-2.232 1.031,-3.188 0.188,-4.312 -0.568,-0.844 -2.25,1.312 -2.531,0.469 -0.457,-0.633 1.688,-2.062 1.688,-3.188 0.023,-0.199 -1.277,-0.141 -1.594,-1.031 -0.164,-0.445 0,-1.172 0.75,-1.875 0.568,-0.533 -0.475,-1.225 -0.562,-1.594 -0.363,-1.477 1.09,-2.496 2.719,-3.75 1.125,-1.125 4.494,-1.594 5.344,-0.75 0.562,0.562 -0.85,3.094 -0.281,2.531 1.125,-1.125 1.119,-3.094 2.531,-3.938 1.125,-0.562 3.193,-0.738 4.875,-0.188 0.281,-0.281 0.504,-0.357 0.75,-0.375 0.727,-0.059 1.43,0.803 2.625,1.688 1.283,0.955 3.469,1.688 3.469,1.688 0.562,1.688 -0.756,2.812 -0.469,4.781 0,1.406 1.137,2.666 1.125,4.406 -0.141,0.281 -0.352,0.422 -0.562,0.469 0.738,-0.029 1.318,0.252 1.219,1.781 0,0.562 -0.469,1.5 -0.469,1.781 1.125,0.281 0.346,2.648 3.188,3.094 1.688,0.422 3.674,-0.943 5.438,-0.844 1.805,0.1 1.969,1.482 2.625,1.875 0.65,0.393 0.973,0.117 1.219,1.406 0.223,0.85 -0.762,0.621 -0.75,3.188 0,1.863 -2.273,4.951 -3.094,4.5 0.141,5.795 -2.426,2.918 -1.594,1.125 0.141,-0.316 -0.551,-0.562 -1.219,-0.469 -0.105,0.721 -0.832,1.406 -1.125,2.25 -0.398,1.125 0.908,1.406 0.844,2.531 -0.07,1.125 -1.781,-0.018 -1.781,-1.406 0,-1.143 -0.012,-1.441 -0.469,-1.969 -1.131,0.562 -2.186,0.691 -2.812,-0.469 1.629,-0.674 2.068,-1.125 2.438,-2.344 0.486,-1.623 -1.975,-2.25 -2.812,0.938 -2.537,-0.844 -0.375,11.098 -2.812,14.434 -0.141,0.352 -0.322,0.617 -0.469,0.938 -0.24,-0.039 -0.516,-0.039 -0.75,-0.188 -1.195,-0.727 -0.082,-1.562 -1.406,-1.5 -1.33,0.066 -4.477,0.398 -3.281,1.125 1.189,0.734 3.082,0.598 3.281,1.125 0.176,0.48 -1.436,2.199 0.088,2.531 -1.283,1.285 -2.666,1.594 -4.969,1.594 -1.969,0 -6.281,-2.531 -5.719,-0.562 5.268,0.348 4.043,2.27 6.562,2.156 0.41,-0.016 -1.184,2.164 -2.812,3.094 -1.623,0.934 -4.594,1.781 -4.594,2.062 -0.562,1.125 2.438,-0.656 3,0.469 1.553,1.066 -1.125,1.406 -1.125,2.25 0.469,1.25 0.65,2.238 0.844,3.188 0.105,0.504 0.182,1.016 0.375,1.5 0.111,0.328 0.32,0.531 0.522,0.706 -1.594,-0.008 -3.193,0.193 -4.676,0.432 -2.003,0.321 -4.455,1.21 -6.549,1.194 -2.795,2.603 -5.1,2.558 -8.619,1.452 z M 582.074,580 c 0.393,0.691 1.418,0.357 2.25,0.281 -0.632,0.018 -1.476,-0.474 -2.25,-0.281 z m -32.062,3.75 c 0.656,-0.082 0.949,-0.363 0.844,-1.406 -0.088,-0.785 -0.123,-1.805 -0.375,-1.969 -0.088,-0.059 -0.229,0.018 -0.375,0.188 -0.609,0.662 -0.662,1.377 -1.125,0.938 -0.469,-0.439 -0.762,-0.844 -1.312,-0.375 -0.55,0.469 0.404,0.797 0.656,1.406 0.633,1.43 0.627,1.816 1.125,1.875 0.492,0.052 -0.1,-0.575 0.562,-0.657 z m -5.813,-6.375 c 0.645,-0.668 0.498,1.682 2.156,3.469 2.244,-1.043 2.719,0.105 3,-0.656 0.275,-0.768 -1.529,-1.406 -0.281,-3.375 1.266,-2.004 1.318,-0.604 4.5,-5.906 0.896,0.316 2.215,-0.299 2.344,-1.406 1.969,0.205 3.668,0.035 5.812,-1.5 0.844,0 1.119,1.781 1.969,1.781 1.857,-1.166 4.682,-1.406 6.656,-1.969 1.289,-0.557 3.85,-1.084 3.844,-1.875 -0.012,-0.674 1.43,0.633 3,1.125 1.705,-0.961 1.617,-0.428 2.906,0.656 1.061,0.902 3.674,2.004 4.5,2.344 1.318,0.539 0.809,-4.916 3.844,-7.875 0.932,-0.908 1.277,-2.332 0.469,-5.344 -0.527,-1.951 0.492,-3.633 0.281,-4.406 -1.412,-4.225 -2.725,-1.5 -2.156,-5.438 0.281,-2.531 7.688,-4.688 3.469,-4.688 -2.256,0 -4.406,3.469 -6.375,4.594 -1.975,0.844 -4.406,0.562 -6.375,1.406 -2.572,3.176 -3.539,3.527 -5.156,7.594 -1.16,2.895 -2.297,5.766 -5.531,7.312 -2.396,0.984 -5.115,1.049 -7.875,0.656 -1.371,-0.199 -2.883,1.266 -4.219,1.406 -1.342,0.141 -2.555,-1.031 -3.75,-0.469 -3.697,3.018 -7.834,9.768 -7.688,14.344 1.102,1.683 0.006,-1.112 0.656,-1.78 z M 597.356,560.5 c 1.061,0 0.926,0.404 1.594,0.938 0.662,0.527 1.131,-1.482 0.938,-2.344 -0.199,-0.861 0.586,-0.621 1.781,-0.75 1.189,-0.135 0.445,-1.031 -0.281,-1.031 -0.732,0 -2.42,0.58 -3.281,0.844 -0.867,0.264 -1.283,0.264 -1.875,1.125 -1.132,0.925 0.063,1.218 1.124,1.218 z m 90.275,71.059 c -0.059,-0.238 -0.75,-0.75 -0.75,-0.75 l -1.031,-0.188 -0.75,-0.656 c 0,0 -0.721,-0.438 -0.844,-0.469 -0.117,-0.027 -0.656,-1.031 -0.656,-1.031 l -0.375,0.375 -0.844,-0.469 -0.375,-0.562 c 0,0 -0.973,-0.562 -1.125,-0.562 -0.146,0 -0.562,-1.031 -0.562,-1.031 0,0 -0.427,-0.697 -0.557,-0.746 0.04,0.013 -0.543,0.559 -0.656,0.559 -0.123,0 -0.188,0.844 -0.188,0.844 l -0.375,1.031 -0.469,1.125 0.281,0.75 v 1.406 l -0.375,0.562 -0.094,1.125 0.469,0.281 1.031,1.031 h 0.562 l 1.031,0.375 0.844,0.562 0.844,0.562 0.844,0.469 h 1.594 c 0.299,0 0.258,0.598 0.562,0.656 0.299,0.059 0.656,-0.375 0.656,-0.375 0,0 0.404,-0.848 0.469,-1.031 0.059,-0.18 0.469,-0.938 0.469,-0.938 l 0.094,-0.75 c 10e-4,10e-4 0.341,-1.909 0.276,-2.155 z m -88.494,4.875 c -0.293,0.078 -0.768,1.086 -1.312,2.719 -1.096,3.27 -1.811,3.125 -3.094,4.875 -1.289,1.754 -0.592,1.59 -0.938,2.719 -0.352,1.133 -0.387,1.215 -1.125,0.938 -0.744,-0.27 -0.346,0.129 0.281,0.75 0.621,0.621 0.914,1.848 1.031,3.094 0.111,1.25 1.67,-0.352 2.062,-2.531 0.387,-2.18 0.662,-2.625 0.938,-3.094 1.283,-3.152 1.623,-2.641 2.25,-6.656 0.311,-2.006 0.194,-2.885 -0.093,-2.814 z m 18.937,15 c 0.428,0 0.674,-0.461 0.562,-1.125 -0.117,-0.66 -0.879,-1.375 -1.5,-1.688 -0.627,-0.309 -0.434,-1.105 -0.938,-1.5 -0.316,-0.238 -0.258,-0.531 -0.188,-0.75 -0.117,-0.105 -0.176,-0.188 -0.281,-0.281 -0.234,-0.047 -0.557,-0.121 -0.844,-0.281 -0.516,-0.27 -0.979,-0.809 -1.125,-0.938 -0.035,-0.004 -0.07,0.008 -0.094,0 0.047,0.102 0.27,0.723 0.562,1.406 0.311,0.738 -1.635,0.598 -2.062,0.75 -0.434,0.16 0.75,1.031 0.75,1.031 0,0 -0.85,-0.297 -1.781,-0.375 -0.938,-0.074 -1.008,-0.895 -1.781,-1.406 -0.562,-0.363 -0.955,-0.996 -1.406,-2.062 -0.363,-0.117 -0.715,-0.188 -1.125,-0.375 -1.061,-0.473 -2.021,-0.645 -2.812,-0.562 -3.445,0.371 -4.465,5.133 -3,7.125 1.125,1.125 3.557,1.125 4.969,1.969 1.969,1.125 1.682,2.812 3.938,3.094 1.688,0.281 0.844,-1.352 4.125,-1.594 2.631,0.656 3.574,0.902 4.406,-0.188 0.023,-0.719 -0.182,-1.113 -0.656,-1.594 -0.551,-0.543 -0.146,-0.656 0.281,-0.656 z m -28.593,-36.938 c 0.393,0.664 1.594,0.629 2.062,0.094 0.463,-0.527 -0.094,-2.215 0.375,-2.812 0.463,-0.598 0.434,-1.883 -0.094,-2.809 -0.27,-0.463 -0.451,-0.621 -0.562,-0.562 -0.117,0.059 -0.152,0.293 -0.281,0.656 -0.27,0.727 0.135,1.66 -0.656,2.059 -0.797,0.398 -0.75,1.277 -0.75,1.875 0,0.598 -0.493,0.972 -0.094,1.499 z m -7.875,24 c 2.109,1.672 1.213,-0.188 2.062,-0.188 1.641,1.5 3.369,2.062 5.625,2.344 6.803,-0.426 8.01,-6.539 6,-8.719 -2.174,-2.348 3.352,1.637 -0.844,-3.562 -0.727,-0.895 -1.049,-1.957 -1.594,-2.719 -1.975,-3.938 4.166,3.527 -0.844,-5.344 -0.586,-1.055 -0.896,-1.441 -1.125,-1.406 -0.375,0.059 -0.369,1.172 -0.469,2.156 0.51,0.793 0.943,1.477 1.219,2.062 0.393,0.863 -0.469,1.723 -1.594,2.25 -1.131,0.535 -1.617,1.578 -2.344,0.844 -0.398,-1.258 1.594,-1.738 1.594,-3 0,-0.203 -0.076,-0.562 -0.094,-0.844 -1.57,-0.633 -2.514,-2.637 -4.406,-3 -2.766,-0.188 -1.764,1.336 -5.625,2.344 -0.85,0.609 -1.312,1.406 -2.438,1.406 0,0 -0.938,-1.781 -1.219,-1.781 -0.996,0.383 -1.406,1.348 -2.062,1.781 0,0 -1.307,0.07 -1.312,0.562 -0.035,1.441 3.463,2.906 2.438,4.219 -1.037,1.324 0.152,1.148 1.312,1.594 0.562,2.25 -0.088,2.812 1.031,3.844 2.584,1.824 0.328,3.797 1.781,3.844 2.859,0.102 -1.951,-2.168 1.781,-2.531 3.013,3.305 -1.129,2.157 1.127,3.844 z m 38.338,5.25 c -0.984,0.844 -1.049,0.242 -1.406,-0.281 -1.09,-1.043 -0.732,0.375 -1.219,0.375 -0.356,0 -0.602,-0.956 -1.119,-0.844 -0.176,0.043 -0.311,0.211 -0.562,0.562 -0.85,0.621 0.275,0.793 0.469,2.531 0.012,0.035 0.082,0.066 0.094,0.094 0.023,0.07 0.088,0.242 0.088,0.281 0.117,0.781 0.545,0.434 1.125,0.938 0.586,0.504 0.094,0.562 0.094,1.031 0,0.469 0.568,0.605 1.031,1.031 0.469,0.43 0.527,1.289 0.562,1.875 0.041,0.586 0.316,0.855 0,1.594 -0.064,0.16 -0.205,0.293 -0.281,0.469 0.193,0.5 0.352,2.398 1.875,3.844 0.984,0.715 0.287,-3.176 0.469,-4.594 0.75,-1.223 1.23,-2.227 1.875,-3.375 0.955,-1.125 2.625,-1.805 0.844,-3.656 -4.701,-0.426 -1.894,-1.16 -3.939,-1.875 z m 7.88,-3.562 c -0.645,-0.387 -1.559,-0.691 -2.156,-0.75 -0.305,-0.027 -0.521,-0.074 -0.562,0 -0.047,0.078 0.076,0.277 0.469,0.469 1.553,0.781 1.506,0.621 1.312,1.594 -0.199,0.973 -1.166,1.125 -1.594,0.656 -0.434,-0.469 -0.756,0.129 -1.219,0.75 -0.469,0.621 -0.885,0.949 -0.375,1.688 0.504,0.738 1.248,1.672 1.875,1.125 0.621,-0.543 1.219,-1.762 1.688,-2.156 1.787,-1.477 2.455,-0.973 3.938,-0.469 1.477,0.512 2.227,-0.531 0.75,-2.25 -1.483,-1.712 -2.842,0.124 -4.126,-0.657 z m 5.713,-22.5 c 0.551,-1.43 -1.078,-4.082 -1.875,-7.684 0,-1.688 -0.182,-3.662 1.031,-5.625 0,-0.562 -1.312,-1.219 -1.594,-1.781 -1.729,-0.832 -3.334,-1.793 -5.25,-1.594 h 0.006 c -1.148,0.117 -2.42,0.639 -3.844,1.875 -1.822,1.119 -3.393,2.051 -4.688,3.656 -0.486,0.562 -0.152,1.066 0.375,0.938 0.656,-0.164 1.969,-0.469 1.969,-0.469 0.703,0.07 1.072,0.527 1.219,1.406 1.225,4.449 3.773,11.926 -0.75,7.965 -1.131,-0.844 1.5,-0.938 1.781,-2.344 -0.293,-1.676 -0.51,-2.801 -1.312,-3.652 -0.656,-0.691 0.662,-1.025 -0.75,-2.25 -1.559,-1.564 -1.857,0.193 -1.219,0.938 0.381,0.439 0.604,1.289 0.938,2.059 0.328,0.773 -1.295,0.852 -2.344,1.312 -1.055,0.465 -1.459,0.914 -1.125,1.406 0.328,0.5 0.762,1.043 1.312,0.656 0.545,-0.387 -0.023,1.055 -0.188,2.156 -0.17,1.102 -0.697,0.008 -0.75,-0.656 -0.059,-0.66 -0.797,-0.34 -2.062,-0.281 -1.271,0.059 -0.732,-0.246 0.094,-0.469 0.82,-0.215 1.213,-0.539 0.938,-1.312 -0.275,-0.766 -1.025,-0.543 -1.406,-0.844 -0.387,-0.297 0.094,-0.637 1.031,-0.75 0.932,-0.109 -0.434,-1.688 -1.312,-2.621 -0.885,-0.938 0.697,-0.703 1.031,-0.375 0.328,0.328 0.873,0.1 0.656,-0.562 -0.223,-0.662 0.27,-0.896 0.656,-1.5 0.123,-0.199 0.082,-0.439 0,-0.75 -0.949,0.17 -1.881,0.586 -2.719,1.125 -1.189,0.756 -0.785,-0.557 -5.438,-0.844 -0.85,0 -2.607,-1.922 -2.531,-0.75 1.412,1.676 4.939,1.605 5.062,2.531 0.07,0.475 0.41,2.465 -0.75,2.34 -2.432,-0.258 -2.18,0.703 -1.875,1.594 0.592,1.766 -1.869,2.809 -2.906,2.344 -1.354,-0.602 -2.197,-0.191 -3.656,0.562 -3.48,-0.625 -3.674,-0.117 -1.688,0.562 1.436,0.492 2.408,1.488 1.219,1.5 -2.355,0.031 -2.537,0.664 0.375,0.844 6.369,4.66 1.166,3.547 3.844,9.281 -0.287,1.125 -1.781,0.375 -2.062,1.5 -0.287,0.844 3.58,1.285 2.719,4.406 0,0.281 0,1.125 0.562,1.125 1.125,0.281 2.525,-0.844 3.938,-0.562 1.406,0.281 1.682,1.031 3.375,1.031 0.562,0 0.838,-0.75 1.406,-0.188 5.479,3.176 -2.66,0.844 2.344,4.688 -0.287,0.844 -1.436,-0.426 -3.938,-0.938 2.25,1.125 6.088,4.312 8.625,4.312 0.68,-0.227 3.164,-1.305 2.344,-2.344 -0.639,-0.797 -0.574,-1.828 0.088,-2.156 1.201,-0.586 -0.305,-1.867 -1.031,-1.781 -1.846,0.234 -2.238,-1.199 0.094,-1.125 0,-2.531 4.688,-2.156 6.938,-4.125 l -1.031,-4.031 c -2.531,-1.406 -6.75,-1.875 -4.219,-4.688 1.289,-1.281 1.916,-3.082 5.438,-3.75 0.24,0.582 0.463,1.09 0.562,1.219 1.213,1.102 1.254,1.359 1.969,0.75 0.721,-0.602 1.611,-0.473 1.031,-2.156 -0.164,-0.48 -0.422,-0.855 -0.657,-1.124 z" />
      <path
         id="Schleswig"
         fill="#9cdf5f"
         stroke="#000000"
         stroke-width="0.5"
         d="m 546.918,638.684 c -0.27,-2.719 -0.035,-3.344 0.562,-3.281 1.652,0.066 1.734,0.211 1.406,1.406 -0.334,1.195 0.164,1.641 -0.562,2.438 -0.457,0.5 -0.785,1.227 -1.031,1.031 -0.082,-0.004 -0.123,-0.004 -0.188,-0.188 -0.105,-0.223 -0.116,-0.649 -0.187,-1.406 z m 2.156,21.843 c 0.727,0.996 1.277,0.176 1.875,-1.219 0.293,-0.695 0.34,-0.918 0,-0.938 -0.34,-0.016 -1.072,0.254 -2.062,0.75 -0.598,0.4 -0.545,0.411 0.187,1.407 z m -1.312,-9.562 c -1.658,0.066 -3.82,1.004 -2.625,2.062 1.852,0.797 2.549,1.184 3.281,0.188 0.727,-0.996 0.996,-2.313 -0.656,-2.25 z m -0.188,-5.063 c -0.533,0 -2.027,0.43 -3.281,0.094 -1.26,-0.328 -0.293,-2.113 -0.094,-3.375 0.158,-1.023 1.178,-1.281 1.312,-1.406 -0.299,-0.074 -0.469,-0.492 -0.656,-0.562 -0.064,-0.023 -0.111,0.023 -0.188,0.094 -0.111,0.094 -0.305,0.328 -0.469,0.656 -0.668,1.324 -1.471,2.285 -2.531,8.25 -0.07,1.395 0.586,2.363 0.656,1.5 0.064,-0.859 0.293,-2.992 0.562,-3.656 0.264,-0.66 0.58,-0.527 1.312,0 0.727,0.535 0.855,-0.098 2.25,-0.562 1.391,-0.462 1.655,-1.033 1.127,-1.033 z m 41.344,0.75 c -0.82,-0.895 -1.254,-0.25 -1.875,-1.031 -0.627,-0.777 -2.514,-2.355 -2.812,-2.344 -0.305,0.012 0.686,1.641 1.312,2.344 2.18,2.648 2.719,3.184 3.188,2.906 0.463,-0.27 0.545,-0.883 1.406,-0.844 0.855,0.043 1.025,-0.227 0.094,-1.125 -0.938,-0.894 -0.498,0.993 -1.313,0.094 z m -11.062,-0.562 c -0.779,-0.387 -1.512,-0.625 -1.688,-0.469 -0.105,0.094 -0.053,0.395 0.375,0.844 1.008,0.621 2.555,0.246 1.313,-0.375 z m -27.944,-4.594 c -0.281,1.688 -0.281,3.094 -0.281,4.5 0,1.969 0.281,4.219 1.125,6.188 0.322,0.641 2.455,3.141 4.312,5.344 -0.727,2.059 -0.316,2.121 -1.312,2.719 -0.99,0.598 -0.809,2.41 0.844,1.875 1.412,-0.449 1.834,-0.891 2.531,-2.062 0.275,0.363 0.656,0.852 0.656,0.938 -0.908,3.84 -5.291,2.352 -8.438,3.656 0.217,0.266 2.414,0.551 1.406,1.688 -0.281,0.562 -2.531,-0.375 -2.25,0.188 0.229,1.848 0.299,3.219 5.062,2.156 0.387,0.398 0.545,0.633 0.656,0.75 l 1.969,-1.781 1.312,-1.312 3.938,2.156 2.062,-0.656 0.375,2.25 3.188,0.562 0.094,2.25 2.062,-1.219 c 0,0 -1.143,-3.328 3.469,-3.844 4.611,-0.508 3.609,0.945 6.938,-0.469 2.133,-0.902 2.672,-1.305 2.906,-1.5 0.352,-1.176 0.721,-2.543 0.562,-3.469 -0.281,-2.531 -5.238,0.477 -7.312,0.094 -1.523,-2.004 2.033,0.609 3.656,-3.188 0.562,-1.406 0.85,-3.094 0,-4.5 -0.281,-0.562 -1.688,0.562 -1.969,0 -0.562,-0.281 0.562,-0.938 1.125,-1.219 0,0 0.562,0.281 0.562,0 0,-0.844 -0.275,-1.969 -1.125,-2.531 -0.703,-0.422 -0.979,-0.656 -2.344,0 -0.832,-1.266 -2.045,-2.008 -3.188,-1.875 -1.518,-0.449 -2.027,-1.059 -2.625,-1.781 -1.125,0.281 -1.682,1.688 -2.812,2.531 -0.562,0.281 -0.562,0 -0.281,-0.844 0.85,-1.125 2.531,-3.656 3.938,-4.219 0.41,1.871 1.846,2.387 2.719,2.25 -0.744,-1.48 -1.271,-2.461 0.375,-1.969 0.24,0.07 0.381,-0.047 0.375,-0.281 0.416,0.43 1.014,0.586 1.406,0.375 0.223,-0.117 0.381,-0.215 0.562,-0.281 0.322,-0.117 0.732,-0.059 1.688,0.75 1.523,1.285 1.324,0.559 2.062,0.281 0.744,-0.27 -0.07,-1.559 -1.594,-3.938 -1.09,-1.477 -1.752,-0.965 -3,-2.25 -1.242,-1.281 -2.643,-1.008 -3.656,-0.656 -1.008,0.352 -0.697,0.898 0,1.594 0.703,0.703 1.582,0.469 2.438,0.469 0.838,0 -0.293,1.652 -0.281,2.812 -0.516,-1.141 -1.77,-2.84 -3.562,-3.75 -0.844,-0.562 -3.094,1.227 -3.094,0.094 0.146,-0.773 1.195,-0.121 1.781,-0.938 0.82,-1.129 -0.656,-1.668 -0.844,-2.344 -0.182,-0.672 0.984,-1.523 1.312,-1.781 0.229,-0.176 0.469,-0.227 0.656,-0.281 0.369,-0.07 0.686,0.008 0.938,0.094 0.633,0.266 1.043,0.504 1.594,-1.969 0.114,-0.502 -0.189,-0.706 -0.509,-0.981 -1.594,-0.008 -3.193,0.193 -4.676,0.432 -2.003,0.321 -4.455,1.21 -6.549,1.194 -2.791,2.601 -5.097,2.555 -8.615,1.449 -0.465,-0.146 -0.924,-0.281 -1.378,-0.403 0.113,0.789 0.2,1.583 0.164,2.435 -0.244,1.401 -1.123,2.811 -1.123,4.217 z" />
      <path
         fill="none"
         stroke="#9cdf5f"
         stroke-dasharray="3, 2"
         d="m 572.091,632.171 c -1.594,-0.008 -3.193,0.193 -4.676,0.432 -2.003,0.321 -4.455,1.21 -6.549,1.194 -2.791,2.601 -5.097,2.555 -8.615,1.449 -0.465,-0.146 -0.924,-0.281 -1.378,-0.403"
         id="path551" />
    </g>
  </g>
</svg>
