<?xml version="1.0" encoding="UTF-8" standalone="no"?>
<!-- Created with Inkscape (http://www.inkscape.org/) -->

<svg
   width="210mm"
   height="297mm"
   viewBox="0 0 210 297"
   version="1.1"
   id="svg2110"
   inkscape:version="1.1.1 (3bf5ae0d25, 2021-09-20)"
   sodipodi:docname="elba.svg"
   xmlns:inkscape="http://www.inkscape.org/namespaces/inkscape"
   xmlns:sodipodi="http://sodipodi.sourceforge.net/DTD/sodipodi-0.dtd"
   xmlns="http://www.w3.org/2000/svg"
   xmlns:svg="http://www.w3.org/2000/svg">
  <sodipodi:namedview
     id="namedview2112"
     pagecolor="#ffffff"
     bordercolor="#666666"
     borderopacity="1.0"
     inkscape:pageshadow="2"
     inkscape:pageopacity="0.0"
     inkscape:pagecheckerboard="0"
     inkscape:document-units="mm"
     showgrid="false"
     inkscape:zoom="0.7500982"
     inkscape:cx="397.28131"
     inkscape:cy="561.92642"
     inkscape:window-width="1920"
     inkscape:window-height="1027"
     inkscape:window-x="1912"
     inkscape:window-y="-8"
     inkscape:window-maximized="1"
     inkscape:current-layer="layer1" />
  <defs
     id="defs2107" />
  <g
     inkscape:label="Ebene 1"
     inkscape:groupmode="layer"
     id="layer1">
    <g
       id="g434"
       transform="matrix(0.26458333,0,0,0.26458333,-137.02404,-229.35701)">
      <path
         id="path4492"
         fill="#c0c0c0"
         stroke="#000000"
         stroke-width="0.5"
         d="m 590.231,1088.777 c 0,0 -0.75,1.031 -0.844,1.969 -0.094,0.938 -1.406,0.188 -2.906,0.375 -1.5,0.187 -1.219,-0.375 -1.312,-1.125 -0.093,-0.75 -1.219,-0.281 -2.062,1.406 -0.843,1.687 0.094,2.25 0.938,3 0.844,0.75 1.969,-0.375 3.188,-0.75 1.219,-0.375 1.781,1.875 2.531,2.062 0.75,0.187 1.875,-1.125 1.875,-1.125 0,0 0,-0.469 -1.312,-0.656 -1.312,-0.187 0.656,-1.031 0.938,-2.156 0.282,-1.125 -1.034,-3 -1.034,-3 z" />
    </g>
  </g>
</svg>
