<?xml version="1.0" encoding="UTF-8" standalone="no"?>
<!-- Created with Inkscape (http://www.inkscape.org/) -->

<svg
   width="210mm"
   height="297mm"
   viewBox="0 0 210 297"
   version="1.1"
   id="svg1043"
   inkscape:version="1.1.1 (3bf5ae0d25, 2021-09-20)"
   sodipodi:docname="france.svg"
   xmlns:inkscape="http://www.inkscape.org/namespaces/inkscape"
   xmlns:sodipodi="http://sodipodi.sourceforge.net/DTD/sodipodi-0.dtd"
   xmlns="http://www.w3.org/2000/svg"
   xmlns:svg="http://www.w3.org/2000/svg">
  <sodipodi:namedview
     id="namedview1045"
     pagecolor="#ffffff"
     bordercolor="#666666"
     borderopacity="1.0"
     inkscape:pageshadow="2"
     inkscape:pageopacity="0.0"
     inkscape:pagecheckerboard="0"
     inkscape:document-units="mm"
     showgrid="false"
     inkscape:zoom="0.7500982"
     inkscape:cx="397.28131"
     inkscape:cy="561.92642"
     inkscape:window-width="1920"
     inkscape:window-height="1027"
     inkscape:window-x="1912"
     inkscape:window-y="-8"
     inkscape:window-maximized="1"
     inkscape:current-layer="layer1" />
  <defs
     id="defs1040" />
  <g
     inkscape:label="Ebene 1"
     inkscape:groupmode="layer"
     id="layer1">
    <path
       id="First_French_Empire"
       fill="#d99fde"
       stroke="#000000"
       stroke-width="0.132292"
       d="m 56.535387,-15.515942 c -0.5969,0.07752 -1.213908,0.147902 -1.835679,0.198437 -0.671248,0.07435 -3.150129,0.223309 -3.447785,1.116277 -0.148696,0.372005 -0.744009,3.94388 -0.744009,4.4648441 0,0.2233083 0.372005,0.2233083 0.372005,0.3720041 0,0.1486959 -0.297657,-0.1486958 -0.446617,0 -0.148961,0.1486959 -0.223308,0.5209646 -0.148696,0.7440084 0.07435,0.4466166 0.892969,0.6696604 0.66966,1.116277 -0.224895,0.4466167 -1.041929,0.3720042 -1.488281,0.5953125 -0.522552,0.2976563 -0.892968,0.7440084 -1.413933,0.9673167 -1.340908,0.7440083 -6.325129,0.8929687 -7.069402,2.0835937 -1.043252,1.7880542 -0.299244,2.3069021 0.520965,2.4555979 -0.373592,0 -0.669661,0.00212 -0.967317,0.074348 -1.266561,0.37200417 -0.892969,1.33932082 -2.604558,1.11627708 -0.373592,-0.0743479 -0.595313,-0.5953125 -0.967317,-0.81862078 -1.043252,-0.5209646 -2.455598,-0.7440084 -3.571875,-1.190625 -2.382838,-0.8929688 2.010833,0.9673166 -1.041929,0.5209645 -0.07435,0 -0.894556,-2.3812499 -0.669661,-2.6045583 0.148696,-0.1486958 0.372005,-0.074348 0.446617,-0.2233083 0.148696,-0.2976562 0.297656,-0.7440083 0,-0.8186208 -0.522552,-0.2976563 -1.116277,0 -1.71159,0 -0.148695,0 -0.372004,0.1508125 -0.520964,0.074348 -0.5969,-0.1486958 -1.116277,-0.4466167 -1.71159,-0.7440083 -0.07435,-0.074348 -0.223308,-0.5209646 -0.223308,-0.3720042 0.07435,0.5209646 0.372004,1.0419292 0.372004,1.5626292 0,0.1486958 -0.372004,0.2233083 -0.372004,0.4466166 -0.07435,0.4466167 0,1.0419292 0.148696,1.4882813 0.148696,0.2233083 0.595312,0.2233083 0.66966,0.4466166 0.223309,0.3720042 0.07276,0.9673167 0.223309,1.3393208 0.07435,0.14869587 0.520964,-0.074348 0.520964,0.074348 0,0.59531245 -0.446616,1.19062494 -0.595312,1.71158952 -0.07435,0.29765624 0.07276,0.37200418 0.223308,0.37200418 -0.224896,0.5209646 -0.372004,1.0419291 -0.520965,1.5626291 -0.224895,0.8207375 1.488282,1.4139333 1.339321,2.2325542 C 29.820408,5.2951244 28.927175,4.6251994 28.480823,4.6251994 28.032883,4.5508514 27.662202,4.7760119 27.21585,4.6995474 26.767911,4.6251994 26.694886,3.0623058 26.322881,3.5832704 25.94929,4.104235 26.248531,5.0715516 25.727569,5.2948599 23.940044,6.0409849 24.536944,3.4345745 23.867283,3.1369183 23.493692,2.9882225 23.197623,3.583535 22.825354,3.8065787 22.302802,4.029887 21.858038,4.104235 21.411421,4.4018912 c -0.148696,0 -0.148696,0.3720042 -0.223308,0.2976562 C 20.888869,4.104235 19.699831,0.90436416 19.327827,1.2020204 19.102931,1.3507162 19.104519,1.8716808 18.881211,1.722985 18.507619,1.4996767 18.806861,0.75566833 18.434594,0.53236 18.061002,0.30905167 17.541625,0.75566833 17.095273,0.75566833 c -0.224896,0 -0.520964,-0.44661666 -0.66966,-0.29765624 C 15.977673,0.75566803 16.276917,1.7229847 15.8303,1.8719451 15.307748,2.0206409 14.937332,1.0533243 14.416367,1.0533243 14.117123,1.1276722 14.342019,2.0206409 14.044363,2.0206409 13.596423,1.8719451 13.821054,0.97871178 13.374702,0.83001595 12.85215,0.68132012 12.332773,1.2766326 11.812073,1.3509805 c -1.787525,0.5209646 0.07435,-0.44661664 -0.744008,-0.44661664 -0.671248,0 -3.1252584,0.96731664 -3.1998709,0.96731664 C 6.3039775,5.8930826 10.993452,2.466993 10.770409,3.3599617 10.696061,3.8065784 9.5054358,3.657618 9.6541316,4.1039701 9.8774399,4.6249346 10.768821,4.4759742 11.291373,4.7736305 11.514682,4.9223263 10.844757,4.6249346 10.547365,4.6249346 10.099425,4.5505867 9.6543962,4.6992826 9.282392,4.5505867 L 9.208044,4.4762387 c 0.4466166,0.746125 1.116277,1.7859375 1.116277,1.9346333 0,0.1486959 -0.3720041,-0.1486958 -0.5209645,-0.1486958 -0.7455958,0 -1.4882813,-0.074348 -2.2325542,0.074348 -0.1486958,0 -0.3720041,0.2233083 -0.2976562,0.2976563 0.5953125,0.3720041 1.5626291,0.1486958 1.7859375,1.0419291 0.1486958,0.5209646 -0.2992438,1.3393208 0.1486958,1.6372417 0.4466167,0.3720041 1.1890376,-0.074348 1.7115896,-0.2976563 0.148696,-0.074348 -0.148696,-0.4466167 0,-0.5209646 1.860285,-0.1486958 0.668073,0.7440084 1.637242,1.4882813 0.223308,0.2233083 0.593725,-0.074348 0.892968,0 0.446617,0.2233083 1.040342,1.1906253 1.488282,1.4882813 0.595312,0.372004 0.370416,-0.669661 1.190625,-0.595313 1.562629,0.148696 0.81862,1.116277 0.66966,2.083594 v 0.07435 c 0,-0.07435 0.07435,-0.148696 0.148696,-0.223308 0.520964,-0.223309 1.114689,0.223308 1.711589,0.223308 0.223309,-0.07435 0.297657,-0.297656 0.520965,-0.297656 0.07435,0.07435 0,0.297656 0.07435,0.372004 0.05583,0.05583 0.324115,-0.04657 0.421746,-0.07435 -0.452702,0.293423 -1.313127,0.529167 -1.165754,1.116277 0.07435,0.372004 3.19987,-0.446617 3.125258,0.520965 -0.07435,1.639093 -2.903802,2.38125 0.148696,2.678906 h 0.07435 c -0.07435,0.223308 -0.07435,0.520964 0.07435,1.041929 0,0.07435 1.785937,0.520965 1.488281,1.190625 -0.148696,0.297656 -1.638565,1.041929 -1.339321,1.785938 0.223308,0.520964 0.593725,1.041929 0.892969,1.488281 0.07435,0.07435 0.297656,0.0021 0.372004,0.07435 0.297656,0.372004 0.372004,2.034116 0.446617,2.25716 1.264972,2.457715 0.519377,-0.297656 1.860285,0.967317 0.223308,0.148696 0,0.66966 0.223308,0.818621 0.223309,0.14896 0.519377,-0.148696 0.744009,-0.07435 0.297656,0.223308 0.370416,0.81862 0.744008,0.967316 0.148696,0.07435 0,-0.372004 0.148696,-0.446616 0.223308,-0.07435 0.595312,-0.07435 0.595312,0.07435 0,0.523081 -0.446616,1.041929 -0.446616,1.562629 0,0.446616 0.520964,0.81862 0.446616,1.264973 -0.07435,0.597429 -0.744008,0.892968 -0.892968,1.488281 -0.148696,0.597429 1.488281,1.339321 0.967316,1.637241 -0.447939,0.223309 -0.967316,0.07435 -1.413933,-0.07435 0.446617,0.297656 0.817033,0.66966 1.116277,1.041929 0.446617,0.523081 0.965729,1.041929 1.264973,1.637241 0.595312,1.118394 -0.224896,2.902215 0.372004,3.869532 0.297656,0.372004 0.818621,0.520964 0.967317,0.967316 0.07435,0.297656 -0.148696,0.818621 -0.520965,0.892969 -0.224896,0.07435 0.07435,-0.595313 0,-0.818621 -0.148696,-0.446617 -0.595312,-0.818621 -0.744008,-1.264973 -0.745596,-2.382308 0.66966,-0.295539 -0.372004,-2.529946 -0.299244,-0.744008 -1.339321,-2.38125 -1.637242,-2.232554 -0.820208,0.597429 -1.637242,4.985809 -1.934633,6.176434 -0.148696,0.746125 -1.266561,1.934633 -0.520965,2.157941 0.372004,0.148696 0.445029,-0.892969 0.818621,-0.818621 0.446617,0.07435 0.967317,0.669661 0.744008,1.041929 -0.148696,0.372005 -0.818621,-0.297656 -1.116277,-0.148695 -0.373592,0.148695 -0.520964,0.66966 -0.66966,1.041929 -0.820209,2.234406 -1.71159,9.376304 -3.869531,10.417968 -0.299244,0.148696 -0.595313,0.223309 -1.04193,0.297657 0.446617,0.446616 1.264973,1.190625 1.264973,1.190625 0.03731,0.01852 0.059,0 0.07435,-0.02487 0.01402,-0.02275 0.02011,-0.05689 0.02487,-0.09922 0.0048,-0.05054 0.01402,-0.08784 0.02487,-0.124089 0.0048,-0.01958 0.01085,-0.04974 0.02487,-0.04974 0.372004,0.07435 0.817033,0.223308 1.041929,0.520964 0.0418,0.04657 0.07752,0.102394 0.09922,0.148696 0.02011,0.04868 0.02011,0.07646 0.02487,0.12409 0,0.0082 -0.0016,0.01746 0,0.02487 0,0.04022 0.0093,0.08361 0,0.124089 -0.0016,0.0093 0.0016,0.01746 0,0.02487 -0.0032,0.01138 -0.0217,0.01561 -0.02487,0.02487 -0.04339,0.130175 -0.122502,0.269875 -0.223309,0.396875 -0.221721,0.279135 -0.523875,0.563298 -0.620183,0.79375 -0.01402,0.04022 -0.02646,0.08678 -0.02487,0.124089 0,0.03731 0.0061,0.06509 0.02487,0.09922 0.0016,0.0061 -0.0048,0.01852 0,0.02487 0.01693,0.0299 0.0418,0.04868 0.07435,0.07435 0.03731,0.03096 0.08837,0.07144 0.148696,0.09922 0.05583,0.01852 0.117739,0.03307 0.173566,0.02487 0.155046,-0.0217 0.31168,-0.155046 0.446617,-0.272786 0.0093,-0.0071 0.01402,-0.01561 0.02487,-0.02487 0.09313,-0.08361 0.153458,-0.143668 0.223308,-0.198437 0.06985,-0.05265 0.136525,-0.08678 0.173567,-0.04974 0.01852,0.03731 0.0077,0.09208 0,0.148696 -0.0093,0.059 -0.01085,0.108479 -0.02487,0.173567 -0.03096,0.138377 -0.05424,0.268816 0.02487,0.347133 0.26035,0.241829 0.551921,0.40931 0.868098,0.520965 0.787664,0.282045 1.683543,0.280987 2.38125,0.595312 0.139435,0.06403 0.27596,0.130175 0.396875,0.223308 0.03731,0.03731 0.240241,0.480484 0.446616,0.91784 0.204523,0.437092 0.409311,0.868098 0.446617,0.868098 0.120915,0.09313 0.249502,0.163248 0.372004,0.198437 0.362744,0.110596 0.72099,0 1.091406,-0.09922 0.246592,-0.06509 0.491332,-0.134409 0.744009,-0.12409 0.251089,0.01243 0.506941,0.09922 0.768879,0.322527 0.130175,0.111654 0.193675,0.268817 0.248179,0.421746 0.05265,0.153987 0.102394,0.297656 0.148696,0.446617 0.02487,0.08255 0.03572,0.153987 0.07435,0.223308 0.03413,0.06509 0.09313,0.126206 0.148696,0.173567 0.01402,0.01244 0.03096,0.03916 0.04974,0.04974 0.103982,0.06826 0.248179,0.09922 0.446617,0.09922 0.111654,0.01852 0.224896,0.0061 0.322527,-0.02487 0.09763,-0.02884 0.179917,-0.07752 0.272785,-0.124089 0.139436,-0.06932 0.289984,-0.13335 0.446617,-0.148696 0.05107,-0.0042 0.09313,-0.0093 0.148696,0 0.446617,0.07435 0.668073,0.595312 1.116277,0.66966 0.05583,0 0.08837,-0.03201 0.12409,-0.07435 0.03413,-0.04127 0.07144,-0.09313 0.09922,-0.148696 0.05583,-0.111654 0.111655,-0.223308 0.223309,-0.223308 0.744008,-0.07435 1.412346,0.520965 2.232554,0.595313 0,0 -0.373592,-1.71159 0.520964,-1.56263 1.264973,0.223309 2.007659,1.116277 2.827867,1.860286 0.07435,0.07435 0.296069,0 0.446617,0 0.372004,0.07435 0.817033,0.07435 1.041929,0.297656 0.372004,0.297656 0.147373,0.967317 0.520964,1.190625 v 0.07435 c -0.373591,0.746125 -0.522552,1.788054 1.785938,1.116277 0.520964,0.223308 1.114689,0.372004 1.488281,0.66966 0.148696,0.148696 0.221721,0.967317 0.669661,0.892969 0.595312,-0.07435 1.114689,-0.446616 1.785937,-0.446616 0.744008,0 2.007658,1.488281 2.753254,1.264972 0.297656,-0.07435 0,-0.66966 0.223308,-0.81862 1.116278,-0.744009 2.478882,-0.07435 3.671094,0.223308 h 0.297656 c -0.447939,-0.372004 -0.892968,-0.744008 -1.041929,-1.190625 -0.522552,-1.488281 0.446617,-1.11416 0.07435,-2.455598 -0.07435,-0.223308 -0.595312,-0.148696 -0.595312,-0.372004 0.07435,-0.818621 1.040341,-1.262856 1.190625,-2.009246 0,-0.223308 -0.373592,-0.520964 -0.223309,-0.66966 0.892969,-1.264973 2.379663,-0.967317 3.125259,-1.339321 0.81862,-0.446617 2.007658,-1.934633 2.827866,-2.38125 0.744009,-0.446617 1.486694,0.520964 2.083594,0.818621 0.223308,0.148696 2.827867,0.446616 2.902215,0.744008 0.07435,0.297392 -0.968905,1.862402 1.413933,0.892969 0.150283,-0.06615 0.153458,-0.152929 0.07435,-0.248179 0.103981,0.06403 0.223308,0.08996 0.372004,0.09922 0.520965,0.07435 1.11469,-0.148695 1.488281,-0.520964 0.223309,-0.297656 -0.5969,-1.116277 -0.148696,-1.190625 0.145786,-0.01958 0.313267,0.0061 0.482071,0.059 0.113242,0.03625 0.224896,0.0889 0.3302,0.150812 0.09446,0.05583 0.182827,0.118798 0.26035,0.193146 l 0.0016,0.0026 c 0.06826,0.06826 0.120914,0.145785 0.165893,0.224367 0.01085,0.0217 0.02328,0.04233 0.03413,0.06403 0.03731,0.08678 0.06509,0.1778 0.06509,0.273844 -0.0093,0.06403 -0.03731,0.11377 -0.06985,0.160073 -0.0217,0.02778 -0.04815,0.05371 -0.07594,0.07541 -0.0093,0.0082 -0.01852,0.01561 -0.02778,0.0217 -0.0852,0.05794 -0.190765,0.09922 -0.303742,0.136525 -0.0032,0.0026 -0.0061,0.0032 -0.0077,0.0032 -0.420158,0.136525 -0.956469,0.194204 -1.003035,0.570441 -0.07435,0.443442 0.798512,0.300832 1.249627,0.297657 0.0032,0 0.01085,0 0.01561,0 0.297656,0 0.593725,-0.520965 0.744008,-0.297657 0.06826,0.08573 0.09763,0.192352 0.113242,0.306917 0,0.01138 0.0048,0.02064 0.0061,0.0299 v 0 c 0.03096,0.319352 -0.059,0.711994 0.07144,0.994304 v 0 c 0.02487,0.05794 0.06059,0.108479 0.106892,0.155046 0.372004,0.372004 0.965729,0.297656 1.488281,0.446616 0.297656,0 0.519377,-0.07435 0.744008,0 1.041929,0.520965 0.520965,0.892969 0.520965,1.04193 0.01852,0.03731 0.04498,0.06509 0.0807,0.08572 0.03413,0.0217 0.07594,0.03519 0.124089,0.04445 0.09313,0.01852 0.204523,0.01852 0.316177,0.01852 0.223309,0.07435 0.519377,0.07435 0.669661,-0.07435 0.148696,-0.148696 -0.892969,-0.595313 0.07435,-0.520965 0.186002,0.0093 0.33946,0.03413 0.469635,0.06826 0.259027,0.07144 0.416983,0.184944 0.525463,0.305859 0.161131,0.182827 0.209285,0.382323 0.313266,0.483658 0.06826,0.06826 0.159809,0.09102 0.328613,0.03519 0.446616,-0.167482 0.807773,-0.586052 1.244864,-0.847461 0.144198,-0.08678 0.297656,-0.157162 0.466725,-0.194204 0.520965,-0.07435 1.263386,0.297656 1.637242,-0.07435 0.297656,-0.223308 -0.372004,-0.66966 -0.297656,-0.967316 0.148695,-0.372005 0.742685,-0.446617 0.967316,-0.744009 0.111654,-0.111654 0.130175,-0.26035 0.148696,-0.390789 0.01852,-0.13044 0.03731,-0.241829 0.148696,-0.279136 0.07435,-0.03731 0.151871,-0.04127 0.234156,-0.03096 h 0.0016 c 0.243416,0.03625 0.508529,0.216958 0.731837,0.105304 0.09313,-0.07435 0.156634,-0.165364 0.207698,-0.267758 0.148696,-0.302948 0.162719,-0.681038 0.387615,-0.848519 0.186002,-0.111654 0.40931,-0.09313 0.623093,-0.07435 0.213784,0.01879 0.416984,0.03731 0.567532,-0.07435 0.114829,-0.08678 0.120914,-0.221191 0.108479,-0.363802 -0.0016,-0.01244 0,-0.02487 -0.0016,-0.03916 -0.01402,-0.105304 -0.02646,-0.211931 -0.02937,-0.31115 -0.0016,-0.01852 -0.0032,-0.03731 -0.0016,-0.05583 0,-0.01852 0.0048,-0.03625 0.0077,-0.05265 0.0093,-0.05477 0.02487,-0.104511 0.06509,-0.144727 0.05106,-0.05054 0.11483,-0.08784 0.17833,-0.127 0.04657,-0.02487 0.09446,-0.04763 0.144198,-0.07144 -0.0016,0 -0.0016,-0.0061 -0.0016,-0.0093 0.283633,-0.128059 0.629444,-0.186002 0.944033,-0.238654 0.07435,0 0,0.297656 0.07435,0.372004 0.148696,0 -0.07435,-0.297657 0,-0.372004 0.148696,-0.148696 1.413934,-0.595313 1.488282,-0.595313 -0.373592,-1.339321 2.157941,-3.048794 1.041929,-3.869531 -0.373592,-0.223308 -0.892969,0.07435 -1.339321,0.148696 -0.44794,0 -0.967317,0.223308 -1.413933,0.07435 -0.820209,-0.223309 -2.753255,-1.635125 -2.678907,-2.678907 0,-0.148695 0.372005,-0.148695 0.372005,-0.297656 -0.07435,-0.223308 -0.818621,-0.446617 -0.595313,-0.892969 0.297656,-0.297656 0.66966,-0.520964 0.892969,-0.892968 0.07435,-0.07435 -0.148696,-0.223309 -0.07435,-0.372004 0.07435,-0.223309 0.744008,0.148695 0.818621,-0.07435 0,-0.595313 -0.07435,-1.190625 -0.297657,-1.637242 -0.373591,-0.595313 -2.827866,-1.560513 -2.678906,-2.753254 0,-0.372004 0.668073,-0.372004 1.041929,-0.446617 0.223309,0 0.372005,0.446617 0.595313,0.372004 0.372004,-0.07435 2.753254,-2.007129 2.38125,-2.678906 -0.224896,-0.446617 -0.967317,-0.520964 -1.190625,-1.041929 -0.224896,-0.297656 0.07435,-0.818621 -0.07435,-1.116277 -1.043252,-1.785938 -2.979738,-0.890852 0.446617,-2.902215 -0.299244,-0.446616 -0.297657,-0.967316 -0.669661,-1.33932 -0.07435,-0.148696 -0.372004,0.297656 -0.446616,0.148695 -0.07435,-0.223308 0.297656,-0.595312 0.148695,-0.81862 -0.07435,-0.223309 -0.520964,0 -0.66966,-0.148696 -0.44794,-0.744009 0.595312,-0.669661 0.520965,-1.116277 -0.07435,-0.372005 -0.520965,-0.520965 -0.520965,-0.892969 -0.07435,-0.223308 0.520965,-0.669661 0.223308,-0.744008 -0.364331,-0.167482 -0.883708,-0.270669 -1.426368,-0.282046 -0.905405,-0.0164 -1.875896,0.226218 -2.294467,0.877358 -0.148696,0.148696 -0.07435,0.297656 -0.07435,0.520965 0.07435,0.148695 0.446617,0.297656 0.372004,0.446616 -0.370417,0.741098 -1.148821,1.113102 -1.911614,1.094582 0,0 0,-0.0011 0.0016,-0.0032 -0.156633,-0.0032 -0.32094,-0.01032 -0.471223,-0.04974 -0.07144,0 0.263525,-0.131233 0.297656,-0.272786 -0.0016,0 0,-0.02487 0,-0.02487 0,-0.967317 0.744009,-0.595313 0.818621,-0.818621 0.265113,-0.849577 -0.139435,-1.625865 -0.07435,-2.406121 0.0093,-0.115888 0.03863,-0.229394 0.07435,-0.347133 0.0048,-0.02276 0.01693,-0.04763 0.02487,-0.07435 0.01402,-0.03836 0.0061,-0.08361 0.02487,-0.12409 0.04815,-0.120914 0.120914,-0.241829 0.248179,-0.396875 0.520965,-0.744008 1.858698,-0.742156 2.157942,-1.562629 0.223308,-0.446617 -0.224896,-1.116277 0,-1.637242 0.297656,-0.595312 1.337998,-0.372004 1.785937,-0.892968 0.07752,-0.06615 0.165894,-0.164307 0.248179,-0.272786 0.04657,-0.06297 0.09922,-0.148696 0.148696,-0.223308 0.03413,-0.05265 0.08837,-0.115888 0.12409,-0.173567 0.08996,-0.145785 0.178329,-0.310091 0.272785,-0.471223 v -0.02487 c 0.01085,-0.01958 0.03731,-0.02884 0.04974,-0.04974 0.07594,-0.127 0.14261,-0.248179 0.223308,-0.372004 0.06826,-0.10848 0.127,-0.220134 0.198438,-0.322527 0.04815,-0.06615 0.09922,-0.136525 0.148695,-0.198438 0.03863,-0.05053 0.08229,-0.07752 0.12409,-0.12409 0.0852,-0.09393 0.159808,-0.179916 0.248179,-0.248179 0.372004,-0.297656 0.744009,0.523082 0.818621,-0.520964 0,-0.325438 -0.852752,0.212989 -1.116277,0.09922 -0.03863,-0.01561 -0.06509,-0.05265 -0.07435,-0.09922 -0.148696,-0.372004 0.445029,-0.669661 0.66966,-0.967317 0,0 0.08229,0.03625 0.12409,0.02487 0.01402,-0.0032 0.02487,-0.0061 0.02487,-0.02487 0,-0.03731 -0.02487,-0.07223 -0.04974,-0.124089 -0.07752,-0.148696 -0.210873,-0.341048 -0.09922,-0.396875 0.120915,-0.03413 0.220134,-0.06006 0.322528,-0.07435 0.100806,-0.01349 0.210872,-0.0032 0.297656,0 0.03096,0.0032 0.06826,-0.0042 0.09922,0 0.04339,0.0061 0.08228,0.01561 0.124089,0.02487 0.165894,0.04551 0.305329,0.13335 0.421746,0.223309 0.328612,0.248179 0.52705,0.581819 0.91784,0.545571 0.235743,-0.0217 0.555095,-0.189177 1.017058,-0.595313 v -0.02487 l 0.02487,-0.04974 0.09922,-0.04974 c 0.131763,-0.121973 0.237067,-0.208756 0.396875,-0.372004 0.01085,0 0.03413,-0.01852 0.04974,-0.02487 0.0032,-0.0032 -0.0048,-0.01958 0,-0.02487 0.0016,-0.01349 -0.0032,-0.0071 0,-0.02487 0.0093,-0.07752 0.03413,-0.193146 0.07435,-0.322527 h 0.02487 v -0.07435 c 0,-0.0093 -0.0016,-0.0217 0,-0.02487 0.02487,-0.07435 0.06059,-0.131233 0.09922,-0.223308 0.05265,-0.127 0.03413,-0.230452 -0.02487,-0.322527 0.13335,-1.023144 0.475985,-3.126317 1.190625,-4.911196 0.981339,-2.455598 0.406135,-2.940314 1.389062,-3.993621 0.627856,-0.672835 1.694392,-1.9843745 2.529946,-3.3485661 -0.0061,-0.00317 0.0048,-0.021696 0,-0.024871 C 91.985056,7.4755554 91.756985,7.3453804 91.684224,7.3019888 91.386568,7.1284221 89.203756,6.5579805 88.385135,6.3841492 87.566514,6.210318 87.020943,5.5655284 86.648939,5.3176138 86.276935,5.0696992 85.433443,5.8137076 85.433443,5.8137076 l -0.02487,-0.4466167 c -0.257439,0.2656417 -0.490008,0.4868333 -0.694531,0.4960937 -0.713052,0.034131 -0.47281,-0.6109229 -1.116277,-0.6450541 -0.38444,-0.019579 -0.6604,0.012435 -0.91784,-0.074348 -0.05106,0.070379 -0.128587,0.099219 -0.347133,0.099219 -0.491331,0 -0.567531,0.1582208 -0.496094,-0.2976562 0.06985,-0.4558771 -0.431006,-0.8101542 -0.992187,-1.0914063 -0.562769,-0.2801937 0.04974,-0.2770187 0.04974,-0.7688791 0,-0.2016125 -0.137848,-0.4630209 -0.297657,-0.6945313 C 80.46007,2.1878576 79.945456,2.8588409 79.505189,2.3161805 79.063335,1.7756368 78.557981,2.0775263 78.016908,2.4153993 77.474247,2.7553888 76.646366,1.8634784 76.206099,1.4232118 75.764245,0.98294511 75.503895,1.5338076 74.420162,1.7703451 73.334841,2.0079409 73.889937,0.9609847 73.552064,0.92685345 73.212604,0.8927222 73.108622,0.45854095 72.634225,-0.01559238 72.158239,-0.48999029 70.823416,-1.167059 70.451412,-1.4046549 c -0.373592,-0.236802 0.04657,-1.0480145 -0.223308,-1.4882812 -0.271198,-0.4402667 0.928687,-1.3745104 0.421746,-1.6123708 -0.50853,-0.2368021 -0.429419,-0.5053542 -1.140884,-0.099219 -0.713052,0.4082521 -0.499268,0.8837084 -0.768879,1.2898438 -0.271198,0.4082521 -1.361281,0.1415521 -1.835679,-0.1984375 -0.475985,-0.3378729 -1.019969,0.029898 -1.289844,-0.1735667 -0.271198,-0.2026708 0.261938,-0.923925 0.02487,-1.3641916 -0.237067,-0.4402667 0.230981,-0.9591146 -0.446617,-1.6372417 -0.67892,-0.6770687 -0.424656,-0.136525 -0.694531,-0.2727854 -0.271198,-0.1344083 -0.688446,-0.3844396 -0.992187,0.1240896 -0.30533,0.5085292 -0.652727,0.2624667 -0.347134,-0.6201833 0.303742,-0.8805334 -0.224896,-1.4149917 -1.240366,-1.3147146 -1.017059,0.1023938 -0.744009,0.2852208 -1.488282,-0.2233083 -0.745595,-0.5085292 -0.07911,-2.0835934 -0.248179,-2.7283834 -0.170656,-0.642937 -0.601398,-0.434181 -1.041929,0.07435 -0.441854,0.508529 -0.640292,0.954881 -1.215496,0.446617 -0.576791,-0.508529 -1.405996,-1.110986 -1.066535,-1.959504 0.286544,-0.719402 0.125148,-1.262063 -0.322792,-2.355586 z m 25.328562,72.707763 c 0.595313,0 1.117865,0.447411 1.117865,0.968375 0,0.520965 -0.522552,1.04193 -1.117865,1.04193 -0.5969,0 -1.116277,-0.520965 -1.116277,-1.04193 0,-0.520964 0.519642,-0.968375 1.116277,-0.968375 z m -16.423745,1.681692 c 0.117739,-0.01244 -0.01561,1.156494 0.496094,1.661848 -0.395288,-0.329671 -1.23878,-0.816504 -0.520965,-1.637242 0.01402,-0.01852 0.01402,-0.02275 0.02487,-0.02461 z m 33.635156,6.722004 c -0.299244,0.595313 -0.892969,1.041929 -0.967317,1.637242 -0.07435,0.520964 0.446617,1.488281 0,1.488281 -0.522552,0 -0.91784,-0.595312 -1.364192,-0.520964 -0.373591,0.07435 -0.372004,0.744008 -0.744008,0.967316 -0.299244,0.148696 -0.66966,-0.148696 -0.967317,0 -0.373591,0.148696 -0.446616,0.669661 -0.81862,0.744008 -0.148696,0.07435 -0.297657,-0.446616 -0.372005,-0.297656 -0.299243,0.446617 -0.223308,1.140884 -0.372004,1.661848 -0.150283,0.223308 -0.967316,0 -0.892969,0.297656 0.223309,0.446617 0.967317,0.669661 0.967317,1.116277 0,0.520965 -0.967317,0.669661 -0.892969,1.116278 0.148696,0.595312 1.264973,0.446616 1.339321,1.041929 0.07435,0.520964 -1.116277,0.818621 -0.967316,1.413933 0.07435,0.446617 1.264972,-0.446617 1.33932,0 0.07435,0.595312 -1.116277,0.892969 -1.116277,1.488281 -0.07435,0.520965 0.817034,0.669661 1.041929,1.116277 0.148696,0.297657 -0.297656,0.595313 -0.148695,0.818621 0.66966,1.118394 1.263385,0.372004 2.232554,0.669661 0.223308,0.07435 -0.07594,2.234406 0.967316,1.190625 0.372005,-0.446617 0.147373,-1.116278 0.372005,-1.637242 0.148695,-0.223308 0.620183,-0.223308 0.620183,-0.520965 0.07435,-0.148696 -0.471223,0.07435 -0.471223,-0.148696 0,-0.148695 0.396875,0 0.471223,-0.148695 0.818621,-0.892969 0.446617,-2.230438 0.446617,-3.199871 0,-0.892969 1.264977,-1.858169 1.190625,-3.125258 0,-0.446617 0,-2.108465 -0.223309,-2.62943 -0.03254,-0.07858 -0.08228,-0.148695 -0.124089,-0.223308 -0.127,-0.01349 -0.545571,-0.502179 -0.545571,-0.744008 -5.29e-4,-0.818886 1.041401,-2.828131 -5.29e-4,-3.57214 z m 0.545835,4.315883 c 0.02778,0.0032 0.0635,-0.01852 0.04974,-0.07435 -0.148696,-0.297657 -0.595313,-1.116277 -0.520965,-0.818621 0.116152,0.352425 0.31459,0.617008 0.471223,0.892968 z m -45.516799,0.645055 c -0.230982,0.06826 -0.458788,0.124089 -0.645055,0.223308 0.18468,-0.09102 0.422011,-0.162454 0.645055,-0.223308 z" />
  </g>
</svg>
