<?xml version="1.0" encoding="UTF-8" standalone="no"?>
<!-- Created with Inkscape (http://www.inkscape.org/) -->

<svg
   width="210mm"
   height="297mm"
   viewBox="0 0 210 297"
   version="1.1"
   id="svg2581"
   inkscape:version="1.1.1 (3bf5ae0d25, 2021-09-20)"
   sodipodi:docname="germanconfederation.svg"
   xmlns:inkscape="http://www.inkscape.org/namespaces/inkscape"
   xmlns:sodipodi="http://sodipodi.sourceforge.net/DTD/sodipodi-0.dtd"
   xmlns="http://www.w3.org/2000/svg"
   xmlns:svg="http://www.w3.org/2000/svg">
  <sodipodi:namedview
     id="namedview2583"
     pagecolor="#ffffff"
     bordercolor="#666666"
     borderopacity="1.0"
     inkscape:pageshadow="2"
     inkscape:pageopacity="0.0"
     inkscape:pagecheckerboard="0"
     inkscape:document-units="mm"
     showgrid="false"
     inkscape:zoom="0.7500982"
     inkscape:cx="397.28131"
     inkscape:cy="561.92642"
     inkscape:window-width="1920"
     inkscape:window-height="1027"
     inkscape:window-x="1912"
     inkscape:window-y="-8"
     inkscape:window-maximized="1"
     inkscape:current-layer="layer1" />
  <defs
     id="defs2578" />
  <g
     inkscape:label="Ebene 1"
     inkscape:groupmode="layer"
     id="layer1">
    <path
       id="path4195"
       fill="none"
       stroke="#ff0000"
       stroke-width="0.529167"
       stroke-dasharray="4, 2"
       d="m 89.447513,91.99957 c -0.0635,0.05159 -0.206111,0.158221 -0.768879,0.396875 -0.882121,0.374121 -0.615421,-0.01032 -1.835679,0.12409 -1.219994,0.136525 -0.91784,1.017058 -0.91784,1.017058 l -0.545571,0.322527 -0.02487,-0.595312 -0.843491,-0.148696 -0.09922,-0.595313 -0.545571,0.173567 -1.041929,-0.570442 -0.347133,0.347134 c 0.04339,0.0093 0.09922,-0.0011 0.124089,0.02487 m 36.137321,86.989711 c 0.10848,-0.39079 0.22781,-0.8599 0.32253,-1.19063 0.13493,-0.4744 0.41539,-0.93318 0.34713,-1.33932 -0.0683,-0.40614 0.23098,-0.27384 0.57044,-0.54557 0.33946,-0.27067 0.24183,0.82074 0.81862,1.09141 0.57679,0.27172 0.57044,0.91678 0.94245,0.64505 0.37359,-0.27067 0.2032,-0.78846 1.01706,-0.62018 0.81386,0.16959 1.16734,0.99218 1.81081,0.62018 0.64346,-0.37306 1.22475,-0.33787 0.81862,-0.74401 -0.40614,-0.40613 -0.65273,-0.88768 -0.34714,-1.09141 0.30533,-0.20267 0.33629,-0.51778 0.0992,-0.62018 -0.23706,-0.10239 -0.58605,0.4826 -0.62018,-0.0249 -0.0341,-0.50853 0.10239,-0.52202 1.01706,-0.79375 0.91466,-0.27067 0.61224,-0.72972 1.28984,-0.59531 0.6776,0.13547 0.62018,0.38047 0.99219,0.0744 -0.31777,-0.6522 -0.44662,-1.10173 -0.44662,-1.71159 0,-0.74507 -0.0373,-0.80089 -0.54557,-1.51315 -0.50853,-0.7112 0.0744,-1.20095 0.44662,-1.06654 0.37359,0.13547 0.2712,-0.15187 1.01706,-0.69453 0.74586,-0.54266 1.21073,-0.53948 1.41393,-1.11628 0.2032,-0.57679 1.47902,0.2376 1.51315,-0.372 0.0341,-0.61092 -0.28522,-1.16284 -0.79375,-1.63724 -0.50853,-0.4744 -1.42637,-0.48472 -1.56263,-1.26497 -0.13494,-0.7792 -0.19844,-1.40547 0.17357,-2.0836 0.37359,-0.67707 0.83714,-0.57785 0.39687,-1.28984 -0.44026,-0.7112 0.17198,-0.61701 -0.0992,-1.46341 -0.27119,-0.84746 -1.17369,-1.66926 -0.49609,-2.00925 0.6776,-0.33893 1.59676,-0.52202 1.56263,-1.16575 -0.0341,-0.64294 -0.21537,-0.76597 0.12409,-1.24037 0.33946,-0.4744 -0.49609,-0.18097 -0.49609,-0.89297 0,-0.7112 0.15504,-1.01997 0.59531,-1.56263 0.44026,-0.54266 0.76438,-0.78766 0.96731,-0.34713 0.20294,0.44053 0.45747,0.0619 0.69454,-0.44662 0.23706,-0.50853 1.19062,-1.45203 1.56263,-1.21549 0.37359,0.23759 0.54557,0.17674 0.54557,-0.29766 0,-0.4744 0.68844,-0.54557 0.24818,-0.91784 -0.44027,-0.37227 -0.28523,-0.26459 -0.79375,-0.94245 -0.50853,-0.67707 -0.98452,-0.9644 -0.64506,-1.81081 0.33946,-0.84746 0.0265,-1.68989 0.66966,-2.60455 0.6432,-0.91467 0.72099,-1.55126 1.36419,-1.68672 0.64347,-0.13441 0.79058,0.37729 1.26498,0.17356 0.47439,-0.20267 1.18454,-0.006 1.76106,-0.44661 0.57653,-0.44053 1.0713,-1.12342 1.24037,-1.46341 0.16907,-0.33893 0.91625,-0.46832 1.01706,-0.94245 0.10239,-0.4744 0.13652,-1.60311 0.64505,-2.00925 0.50853,-0.40613 0.9488,-0.55906 1.01706,-0.69453 0.0683,-0.1344 0.45746,-0.56224 0.69453,-0.86809 0.23707,-0.3048 0.0915,-0.89615 0.39688,-0.79375 0.0185,0.006 0.0868,0.0619 0.15504,0.008 0.21855,-0.17569 0.97817,-0.36592 1.65576,-0.52917 0.22781,0.52096 0.50086,1.10384 0.63104,1.19062 0.21537,0.14473 0.5752,-0.31115 0.93477,-0.14366 0.35957,0.16748 0.35957,-0.47943 0.33496,-0.91044 -0.0233,-0.431 0.48048,-0.52705 0.84032,-0.8382 0.35957,-0.3122 0.42942,-0.69453 0.57361,-1.00674 0.1442,-0.31115 0.69612,-0.38443 0.74401,-0.95911 0.0481,-0.57573 0.1442,-0.71834 0.26353,-0.33496 0.11933,0.38232 1.00621,-0.69453 0.76597,-0.79058 -0.23866,-0.096 -0.43101,-0.19129 -0.50218,-0.74321 -0.0714,-0.54981 -0.33629,-0.52705 -0.64797,-0.50324 -0.31168,0.0249 -0.40613,-0.33496 -0.76597,-0.33496 -0.35983,0 -0.33628,-0.0249 -0.95964,0.0714 -0.4744,0.0722 -0.85116,0.0651 -1.09908,0.27913 -0.031,-0.0217 -0.0651,-0.0362 -0.0945,-0.0609 v -1.51315 l -1.24037,-0.96732 -0.0497,-0.47122 -0.7194,-0.19844 -0.0497,-0.7194 0.76888,-0.66966 0.0497,-1.01706 -1.68672,-1.36419 -1.11628,-0.22331 c 0,0 -0.37041,-0.18706 -0.42174,-0.54557 -0.0511,-0.35772 0.25903,-0.66358 -0.0992,-0.8681 -0.35824,-0.20452 -1.11627,-0.17357 -1.11627,-0.17357 l -0.27279,-0.32252 c -0.0233,-0.0156 -0.0542,-0.0288 -0.0744,-0.0497 -0.64505,-0.64506 -0.94244,-0.4961 -1.24036,-0.0497 -0.29792,0.44635 -0.54557,0.69453 -0.94245,0.49609 -0.39687,-0.19844 -0.44662,-0.79375 -0.44662,-1.38906 0,-0.59531 0.44662,-0.84349 -0.24818,-1.09141 -0.69479,-0.24792 -0.744,-0.54557 -0.69453,-0.89297 0.0495,-0.3474 0.29766,-0.84349 -0.54557,-0.74401 -0.84322,0.0995 -0.59531,0.44662 -0.99218,-0.0992 -0.39688,-0.54583 -0.99219,-0.39687 -1.19063,-0.54557 -0.19844,-0.14869 -0.49609,-0.24818 -0.64505,0.0992 -0.14896,0.3474 -0.4961,0.44662 -2.23256,0.49609 -1.73646,0.0495 -1.04193,-0.44661 -0.99219,-0.94244 0.0498,-0.49583 0.24818,-0.79375 -0.19843,-0.64506 -0.44662,0.1487 -0.69453,0.34714 -1.04193,-0.29765 -0.3474,-0.64479 -0.74401,-0.0497 -1.33932,0.44661 -0.59532,0.49636 -1.19063,0.1487 -1.04193,-0.49609 0.14869,-0.64479 -0.44662,-0.79375 -1.14089,-0.79375 -0.69426,0 -0.744,-0.29766 -0.94244,-0.94245 -0.19844,-0.64478 -1.28985,-1.4388 -2.52995,-2.72838 -1.2401,-1.28958 -1.73619,-1.98437 -0.89297,-2.97656 0.84323,-0.99219 1.24037,-1.28984 2.52995,-1.24037 1.28958,0.0495 0.99219,-0.29765 0.99219,-0.59531 0,-0.0878 -0.0201,-0.22939 -0.0497,-0.372 -0.003,-0.0164 0.003,-0.032 0,-0.0498 -0.58605,-1.36128 -1.08215,-1.90685 -0.62019,-3.10065 0.57521,-1.4851 0.65273,-1.81689 0.17357,-2.00924 -0.47916,-0.19236 -0.89905,-0.42572 0.34713,-0.57045 1.24646,-0.14366 1.7145,-0.784485 1.09141,-1.215492 -0.0775,-0.05371 -0.15187,-0.09604 -0.22331,-0.124089 l 0.29766,-0.496094 c 0,0 0.25426,0.417513 0.42174,0.297656 0.0651,-0.04657 0.20453,-0.229393 0.34714,-0.421745 0.17991,0.144727 0.40164,0.223308 0.74401,0.223308 0.81544,0 0.20611,1.246452 1.11627,0.719402 0.91017,-0.52705 1.14565,-0.819679 0.57044,-1.5875 -0.5752,-0.766763 -0.34872,-0.664633 -0.39687,-1.240367 -0.0481,-0.574675 -0.372,-0.490008 -0.372,-1.017058 0,-0.52705 -1.10067,-0.706967 0.0497,-1.041929 1.15041,-0.334963 0.8046,0.337873 1.81081,-0.620183 0.16906,-0.161132 0.28363,-0.292365 0.372,-0.421746 0.60299,-0.394759 0.72549,-0.635529 0.99219,-0.520965 0.33628,0.144727 0.95356,0.451644 1.24036,-0.124089 0.2884,-0.574675 0.43101,-0.869157 0,-0.892969 -0.431,-0.02487 -0.64029,0.144727 -0.52096,-0.694531 0.0169,-0.120915 0.0233,-0.25109 0,-0.372005 0.22331,-0.128058 0.47757,-0.310091 0.69453,-0.595311 0.49768,-0.418571 0.48842,-0.65114 0.74401,-0.843492 0.28839,-0.214842 -0.7194,-0.524933 -0.0249,-0.645054 0.69453,-0.118798 0.9644,-0.09102 0.89297,-0.595313 -0.0714,-0.503237 0.245,-0.59002 0.17356,-1.165754 -0.0714,-0.574675 -0.53789,-0.7112 -0.32252,-1.215496 0.10398,-0.242887 0.15187,-0.751416 0.17356,-1.215495 h 0.002 m -19.7948,92.596491 c 1.24327,0.65114 0.92551,0.99219 1.31471,0.57044 0.40614,-0.44026 0.31327,0.28522 0.7194,0.79375 0.40614,0.50853 1.09141,1.09141 1.09141,1.09141 0,0 -0.6821,0.9271 -1.19063,0.89297 -0.50852,-0.0341 -0.617,-0.66675 -0.7194,-0.12409 -0.1008,0.54266 -0.76438,0.77523 -0.59531,1.21549 0.16907,0.44027 0.45429,0.88054 1.53776,0.37201 0.41698,-0.19526 0.83555,-0.36063 1.21549,-0.4961 M 72.803634,101.94632 c 0,0 -0.181504,1.1803 -0.248179,1.9595 -0.01085,0.127 -0.01852,0.25109 -0.02487,0.372 -0.0048,0.0651 0.0048,0.13547 0,0.19844 -0.0061,0.0889 -0.01561,0.18495 -0.02487,0.27279 -0.01085,0.0931 -0.03096,0.17886 -0.04974,0.27278 -0.01244,0.0619 -0.03254,0.1106 -0.04974,0.17357 -0.03731,0.13652 -0.08229,0.27278 -0.148696,0.42174 -0.01561,0.0341 -0.03254,0.064 -0.04974,0.0992 -0.0077,0.0175 -0.01693,0.0341 -0.02487,0.0498 -0.02778,0.0548 -0.06668,0.11774 -0.09922,0.17356 -0.06668,0.11377 -0.134938,0.22543 -0.223309,0.34714 -0.08996,0.12303 -0.165893,0.24077 -0.223308,0.34713 -0.01085,0.0217 -0.01561,0.0548 -0.02487,0.0744 -0.01402,0.0278 -0.03731,0.0487 -0.04974,0.0743 -0.0217,0.0391 -0.03572,0.0857 -0.04974,0.12408 -0.0032,0.006 0.0016,0.0185 0,0.0249 -0.0061,0.027 -0.01852,0.0516 -0.02487,0.0743 -0.01693,0.058 -0.03863,0.12092 -0.04974,0.17357 -0.0217,0.1106 -0.02487,0.20055 -0.02487,0.29766 v 0.0249 c 0,0.15822 0.01852,0.32147 0.02487,0.47122 0,0.0175 0,0.0331 0,0.0497 0.0016,0.0921 -0.0093,0.17357 -0.02487,0.27279 -0.059,0.34925 -0.2667,0.40825 -0.520964,0.372 -0.07911,-0.0103 -0.164306,-0.0249 -0.248179,-0.0497 -0.01693,-0.006 -0.03254,-0.0185 -0.04974,-0.0249 -0.102394,-0.0341 -0.2032,-0.0722 -0.297656,-0.12409 -0.275961,-0.1487 -0.548746,-0.17357 -0.694531,-0.0743 -0.05741,0.0392 -0.08837,0.0889 -0.09922,0.17357 -0.0061,0.0434 -0.0093,0.095 0,0.14869 0.03413,0.22014 0.0635,0.32253 0.04974,0.42175 -0.01376,0.0992 -0.07276,0.1942 -0.173566,0.39687 -0.2032,0.40614 0.553508,0.80937 1.264973,0.8435 0.711464,0.0341 0.87286,0.28839 0.66966,0.69453 -0.2032,0.40613 -0.0807,0.56118 -0.148696,0.96731 -0.068,0.40614 -0.378354,0.1487 -0.446616,0.52097 -0.06826,0.37412 -0.141023,0.54557 -0.818621,0.91784 -0.01852,0.0114 -0.03096,0.0156 -0.04974,0.0249 0.04339,0.95197 -0.248179,0.44662 -0.520964,0.7194 -0.04498,0.0455 -0.0635,0.0743 -0.09922,0.0992 0.01402,0.027 0.0061,0.0455 0.02487,0.0743 0.05106,0.0825 0.103981,0.15399 0.148695,0.22331 -0.09313,-0.096 -0.179916,-0.17066 -0.272785,-0.24818 -0.137848,0.0619 -0.201612,0.031 -0.272785,0.19844 -0.102394,0.23759 -0.04022,0.31829 0.248179,0.52096 0.288396,0.20373 0.105304,0.19421 0.173566,0.39688 0.06826,0.20373 -0.05424,0.57361 -0.223308,0.79375 -0.169069,0.22013 -0.483658,0.18494 -0.66966,0.0992 -0.186002,-0.0847 -0.358246,-0.38233 -0.595313,-0.29766 -0.237066,0.0857 -0.513027,0.24077 -0.868098,0.22331 -0.356658,-0.0164 -0.469635,0.37412 -0.570441,0.32253 -0.102394,-0.0505 -0.497682,-0.22728 -0.818621,-0.39688 -0.05742,-0.031 -0.215371,-0.1561 -0.322527,-0.22331 -0.226219,0.11668 -0.490009,0.20452 -0.595313,0.0992 -0.2032,-0.20267 -0.317764,-0.59213 -0.520964,-0.0497 -0.110067,0.29448 -0.059,0.29978 0.02487,0.32253 0.04339,0.0124 0.100806,0.059 0.148695,0.12409 -0.01243,-0.004 -0.03863,-0.0196 -0.04974,-0.0249 -0.07752,-0.0868 -0.186002,-0.10954 -0.272786,-0.0992 -0.263525,0.0331 -0.499268,0.41751 -0.297656,0.62018 0.457465,0.30295 0.522552,0.88874 0.768879,1.36419 0.280723,0.48049 -0.416983,0.22543 -0.66966,0.19844 -0.319352,-0.16219 -0.652727,0.008 -0.496094,0.39688 0.0061,0.52096 0.367506,0.93636 0.446617,1.4388 -0.389202,0.28416 -0.874448,0.41143 -1.339321,0.49609 -0.5969,-0.0228 -0.322527,0.87736 -0.818621,0.99219 -0.02487,0.0992 -0.02778,0.17674 -0.04974,0.27279 0.212461,0.0775 0.423334,0.15822 0.620184,0.27278 0.303741,0.17674 0.598487,0.40005 0.843491,0.7194 0.07435,0.15082 -0.297656,0.2966 -0.372004,0.44662 -0.150283,0.45164 -0.545571,0.84032 -0.620183,1.28984 0,0.15082 0.372004,0.0733 0.297656,0.22331 -0.07594,0.22622 -0.446617,0.29448 -0.520964,0.59532 -0.131763,0.47016 -0.139436,0.77734 -0.07435,0.99218 0.0635,0.2159 0.195262,0.34105 0.396875,0.39688 0.40296,0.11377 1.035579,0.0124 1.637241,0.0497 -0.0032,0.0497 0.01852,0.0992 0,0.14869 -0.136525,0.37412 0.07435,0.26882 0.07435,0.84349 0,0.12304 0.08361,0.14791 0.12409,0.22331 -0.0016,0.0124 0,0.0392 0,0.0497 0,0.0402 0.0807,0.0796 0.09922,0.12409 0.02937,0.027 0.05265,0.0619 0.07435,0.0992 0.01402,0.009 0.0093,0.0402 0.02487,0.0497 0.153459,0.096 0.325438,0.17251 0.421746,0.34714 0.120915,0.22225 -0.0032,0.36168 -0.198437,0.44661 -0.07144,0.031 -0.141023,0.0609 -0.223309,0.0744 -0.07435,0.0185 -0.144198,0.0249 -0.223308,0.0249 -0.18759,0 -0.2032,0.11986 -0.198438,0.29766 0.0016,0.09 0.01561,0.18283 0,0.29766 -0.01561,0.11483 -0.04815,0.245 -0.124089,0.372 -0.114829,0.19129 -0.102394,0.27914 -0.04974,0.32253 0.01693,0.0146 0.02487,0.0175 0.04974,0.0249 0.04657,0.0175 0.113242,0.0278 0.148696,0.0497 0.01693,0.0114 0.01852,0.0299 0.02487,0.0497 0.0016,0.006 -0.0016,0.0175 0,0.0249 0.0032,0.0145 0.0077,0.027 0,0.0497 -0.01085,0.027 -0.05424,0.0466 -0.07435,0.0744 -0.04339,0.0558 -0.07752,0.11774 -0.148696,0.17356 -0.059,0.0548 -0.12409,0.0982 -0.198438,0.1487 0.0093,0.0156 0.01244,0.0362 0.02487,0.0497 0.2032,0.2376 -0.410898,0.84032 -0.173567,0.94245 0.165894,0.0714 0.210873,0.245 0.347134,0.32252 l -0.02487,0.0249 c -0.406135,0.0278 -0.865188,0.51171 -1.240367,1.06654 -0.376766,0.55509 -0.67601,1.18745 -0.79375,1.51315 -0.113241,0.33787 0.39079,1.23719 0.719402,2.03412 0.164307,0.39899 0.297657,0.77814 0.272786,1.04193 -0.02487,0.26379 -0.207698,0.43418 -0.620184,0.39687 l -0.04974,0.24818 c 0.460375,0.45773 1.100666,1.05728 1.562629,0.76888 0.541073,-0.33787 1.046427,-0.63976 1.488281,-0.0992 0.164306,0.20373 0.333375,0.22622 0.496094,0.19844 0.269875,-0.0466 0.510117,-0.25109 0.595312,-0.12409 0.159809,0.23151 0.297657,0.49292 0.297657,0.69453 0,0.49186 -0.610923,0.48895 -0.04974,0.76888 0.561181,0.28099 1.062038,0.63553 0.992188,1.0914 -0.07144,0.45588 0.0048,0.29766 0.496093,0.29766 0.218546,0 0.296069,-0.0288 0.347134,-0.0992 0.257439,0.0868 0.5334,0.0548 0.917839,0.0743 0.607748,0.0331 0.437092,0.61092 1.017058,0.64505 0.03254,0.003 0.059,0.002 0.09922,0 0.223309,-0.21801 0.457465,-0.41036 0.694531,-0.59531 l 0.02487,0.54557 c 0,0 0.843492,-0.74401 1.215496,-0.49609 0.372004,0.24791 0.91784,0.89297 1.736196,1.06653 0.818356,0.17357 3.001433,0.74401 3.299089,0.91784 0.04657,0.0278 0.198438,0.11774 0.322528,0.19844 -0.26035,0.66252 -0.689769,1.40653 -1.314715,2.23256 -0.153458,0.20161 -0.32094,0.40931 -0.496094,0.62018 -0.195262,0.23151 -0.3937,0.45773 -0.545571,0.62018 -0.09922,0.10531 -0.176741,0.20373 -0.248179,0.29766 -0.144198,0.19129 -0.254264,0.35957 -0.322527,0.54557 -0.03572,0.0931 -0.05106,0.19844 -0.07435,0.29766 -0.14261,0.60351 -0.155046,1.37662 -0.744008,2.85247 -0.230981,0.57679 -0.412485,1.16575 -0.570442,1.76107 -0.04498,0.16748 -0.0852,0.33178 -0.124089,0.49609 -0.04022,0.16642 -0.08996,0.33681 -0.12409,0.49609 -0.03863,0.17674 -0.06667,0.33073 -0.09922,0.4961 -0.128587,0.65616 -0.220133,1.25783 -0.272785,1.66184 0.059,0.0921 0.07752,0.19527 0.02487,0.32253 -0.03863,0.0921 -0.07435,0.1487 -0.09922,0.22331 -0.0016,0.0146 0,0.0992 0,0.0992 h -0.02487 c -0.04022,0.12912 -0.06509,0.245 -0.07435,0.32253 0.07144,-0.0807 0.169069,-0.14976 0.248179,-0.22331 l 0.04974,-0.0744 c 0.03413,-0.0352 0.06826,-0.0476 0.09922,-0.0743 0.06191,-0.0537 0.131762,-0.0744 0.223308,-0.0497 0.03096,0.009 0.059,0.0278 0.09922,0.0497 0.03731,0.0206 0.08678,0.0373 0.12409,0.0743 0.0061,0.0185 -0.01402,0.0299 -0.04974,0.0497 -0.07276,0.0362 -0.200025,0.10133 -0.272786,0.14869 -0.03254,0.0299 -0.04339,0.064 -0.02487,0.0992 0.0048,0.009 0.02011,0.0146 0.02487,0.0249 0.01402,0.0146 0.02646,0.0402 0.04974,0.0497 0.02011,0.009 0.04974,0.0145 0.07435,0.0249 0.06985,0.0185 0.14261,0.0217 0.248179,0.0249 0.229394,0.008 0.541073,-0.009 0.868098,-0.0497 0.01693,-0.001 0.03096,0.003 0.04974,0 0.03731,0.0733 0.08228,0.1487 0.124089,0.22331 0.134938,0.0931 0.378354,0.17357 0.768879,0.17357 0.632619,0 0.745596,-0.0373 0.942446,-0.17357 0.06509,-0.0445 0.142611,-0.1053 0.248179,-0.17356 0.02937,-0.0196 0.0418,-0.0714 0.07435,-0.0992 0.0077,-0.0868 0.01693,-0.2212 0.02487,-0.32253 0.06985,-0.0124 0.274373,-0.0661 0.322527,-0.0743 0.0032,0 0.02328,0 0.02328,0 0.201612,-0.009 0.359568,-0.009 0.471223,0.0249 0.01244,0.003 0.01561,0.0206 0.02487,0.0249 0.07752,0.0299 0.130175,0.0825 0.173567,0.12409 0.04657,0.0402 0.07276,0.0796 0.09922,0.12409 0.0093,0.0156 0.01852,0.0341 0.02487,0.0497 0.01561,0.031 0.03863,0.0704 0.04974,0.0992 0.0093,0.0249 0.01693,0.0516 0.02487,0.0744 0.0077,0.0175 0.01693,0.0341 0.02487,0.0497 0.02011,0.0392 0.04498,0.0733 0.07435,0.0992 0.03863,0.0341 0.09446,0.0526 0.173567,0.0497 0.161131,-0.0103 0.420158,-0.11271 0.868097,-0.34713 0.07435,-0.0743 -0.148695,-0.44662 0,-0.52097 0.0048,-0.003 0.02011,0.003 0.02487,0 0.05424,-0.031 0.136525,-0.0497 0.223309,-0.0744 0.08837,-0.0228 0.184414,-0.0526 0.272785,-0.0744 0.0217,-0.004 0.03096,-0.0196 0.04974,-0.0249 0.07593,-0.0164 0.130175,-0.0341 0.173566,-0.0497 0.03572,-0.0103 0.03863,-0.0135 0.04974,-0.0249 0.03863,-0.0185 0.02487,-0.031 -0.04974,-0.0497 -0.223308,-0.0373 -0.443441,-0.0196 -0.66966,0 -0.102394,0.009 -0.193675,0.0217 -0.297656,0.0249 -0.111654,0.003 -0.235744,-0.006 -0.347134,-0.0249 -0.0077,0 -0.01693,0.002 -0.02487,0 -0.02487,-0.007 -0.01085,-0.0497 0,-0.0992 0.01085,-0.0476 0.03413,-0.12409 0.07435,-0.19844 0.03572,-0.0661 0.09446,-0.14578 0.148696,-0.2233 0.01561,-0.0196 0.03731,-0.032 0.04974,-0.0497 0.02011,-0.0249 0.02778,-0.0476 0.04974,-0.0743 0.05741,-0.0693 0.128587,-0.13018 0.198437,-0.19844 0.06191,-0.0569 0.130175,-0.12197 0.198438,-0.17357 0.02011,-0.0135 0.03254,-0.0352 0.04974,-0.0497 0.01693,-0.0103 0.03413,-0.0135 0.04974,-0.0249 0.04815,-0.0278 0.09922,-0.0497 0.148696,-0.0743 0.02937,-0.0135 0.04815,-0.0373 0.07435,-0.0497 0.03254,-0.0124 0.06668,-0.0135 0.09922,-0.0249 0.06191,-0.0196 0.13335,-0.0413 0.198438,-0.0497 0.272785,-0.032 0.539485,0.0434 0.818621,0.32253 0.0048,0.005 0.02011,-0.004 0.02487,0 0.01852,0.0185 0.0217,0.0526 0.02487,0.0743 0.0048,0.0238 0.0061,0.0238 0,0.0497 -0.02487,0.1053 -0.103981,0.25003 -0.148695,0.372 -0.0217,0.0619 -0.04339,0.11774 -0.02487,0.17357 0.0418,0.0683 0.102394,0.12303 0.198437,0.1487 0.059,0.0206 0.141023,0.027 0.198438,0.0249 0.04022,-0.003 0.06985,-0.009 0.09922,-0.0249 0.02487,-0.0103 0.04339,-0.0434 0.04974,-0.0744 0.0077,-0.0288 0.0032,-0.059 0,-0.0992 0,-0.007 0.0016,-0.0156 0,-0.0249 -0.0048,-0.0352 -0.01693,-0.063 -0.02487,-0.0992 -0.0077,-0.0384 0.0093,-0.0196 0,-0.0497 -0.0061,-0.0249 -0.01852,-0.0558 -0.02487,-0.0744 0.06668,0.0392 0.131762,0.0825 0.173566,0.14869 0.01085,0.0156 0.01561,0.0341 0.02487,0.0497 0.01561,0.0278 0.03731,0.0466 0.04974,0.0744 0.01852,0.0331 0.03254,0.0672 0.04974,0.0992 0.04815,0.0857 0.09763,0.1696 0.148696,0.24818 0.04657,0.0733 0.09922,0.13653 0.173567,0.17357 0.04815,-0.003 2.457185,-0.1487 2.529946,-0.1487 0.09313,0.0185 0.186002,0.0402 0.272785,0.0744 0.03413,0.0156 0.06668,0.0331 0.09922,0.0497 0.122502,0.0609 0.234156,0.14261 0.347133,0.22331 0.04974,0.0362 0.102394,0.0619 0.148696,0.0992 0.0418,0.0331 0.08361,0.0651 0.12409,0.0992 0.03254,0.027 0.06826,0.0497 0.09922,0.0744 0.01693,0.0156 0.03254,0.0362 0.04974,0.0497 0.0093,0.009 0.01693,0.0175 0.02487,0.0249 0.169069,0.14261 0.344223,0.2749 0.520964,0.39687 0.059,0.0423 0.113242,0.0889 0.173567,0.12409 0.0032,-0.006 -0.0048,-0.0185 0,-0.0249 0.04339,0.0249 0.07911,0.0548 0.12409,0.0744 -0.01402,0 -0.03413,0 -0.04974,0 v 0.0744 c 0,0.059 0.02328,0.10134 0.04974,0.1487 0.01402,0.0331 0.02937,0.0704 0.04974,0.0992 0.06667,0.10133 0.153459,0.18283 0.248179,0.27278 0.03731,0.0331 0.0635,0.0651 0.09922,0.0992 0.06191,0.0619 0.127,0.12912 0.173567,0.19844 0.04022,0.0609 0.05741,0.12912 0.07435,0.19844 0.0048,0.0206 0.02328,0.0299 0.02487,0.0497 0.0048,0.031 0.0016,0.0672 0,0.0992 0,0.0238 0.0032,0.0516 0,0.0743 -0.0077,0.0579 -0.02328,0.10848 -0.04974,0.17357 -0.07435,0.14869 -0.372004,0.0743 -0.446617,0.14869 -0.04974,0.1487 -0.209285,0.6014 -0.347133,0.99219 -0.05107,0.17357 -0.09763,0.34925 -0.148696,0.52096 -0.01693,0.0619 -0.03254,0.11378 -0.04974,0.17357 -0.01561,0.0497 -0.03572,0.096 -0.04974,0.1487 -0.04339,0.16748 -0.06509,0.29448 -0.09922,0.44661 -0.02937,0.1323 -0.07752,0.29052 -0.09922,0.39688 -0.0016,0.0146 0.0032,0.0373 0,0.0497 -0.02011,0.10848 -0.04339,0.20373 -0.04974,0.27278 0,0.006 0.0016,0.0185 0,0.0249 -0.0016,0.0609 0.0093,0.11668 0.02487,0.12409 0.0061,0.003 0.06191,-0.003 0.07435,0 0.102394,0.006 0.215371,0.027 0.421746,0.0497 h 0.173567 c 0.331787,0.0341 0.523875,0.0579 0.892969,0.0992 0.461962,0.0548 1.074472,0.12409 1.116277,0.12409 0.0077,0.008 -0.0048,0.0175 0,0.0249 0.01852,0.0185 0.02011,0.0299 0.02487,0.0497 0,0.0145 0.0048,0.0362 0,0.0497 0,0.008 0.0016,0.0175 0,0.0249 -0.0217,0.0825 -0.09446,0.16431 -0.124089,0.24818 -0.0016,0.006 0.0016,0.0185 0,0.0249 -0.0016,0.0146 -0.0032,0.0362 0,0.0497 0,0.008 -0.0016,0.0185 0,0.0249 0.0061,0.0124 0.01402,0.0146 0.02487,0.0249 0.0048,0.008 -0.0077,0.0175 0,0.0249 0.08996,0.10742 0.200025,0.18283 0.297656,0.27279 0.306917,0.28204 0.65114,0.50218 1.041929,0.66966 0.06826,0.0341 0.136525,0.0558 0.198438,0.0744 0.155045,0.0455 0.299243,0.0579 0.421745,0.0249 0.04339,-0.0103 0.08361,-0.031 0.12409,-0.0497 0.01693,-0.007 0.03413,-0.0156 0.04974,-0.0249 0.05583,-0.031 0.09763,-0.0786 0.148696,-0.12409 0.08228,-0.0693 0.150283,-0.15928 0.223308,-0.24818 0.02937,-0.0373 0.06985,-0.0619 0.09922,-0.0992 0.209285,-0.27702 0.3937,-0.57679 0.620183,-0.7194 0.02328,-0.0135 0.05107,-0.0384 0.07435,-0.0497 0.02328,-0.0103 0.04974,-0.0185 0.07435,-0.0249 0.0635,-0.0156 0.127,-0.0124 0.198437,0 0.110067,0 0.192352,-0.001 0.272786,0.0249 0.07594,0.0238 0.131762,0.0672 0.198437,0.0992 l 0.04974,-0.12409 0.396875,0.47122 c -0.418571,1.38483 -1.007798,2.86068 -0.545571,3.19987 0.2032,0.1487 0.553508,0.2966 0.91784,0.42175 l -0.173567,0.7194 h -0.04974 l -0.173566,-0.0497 c -0.05583,0.40931 -0.0077,0.6821 0.520964,0.89297 0.719402,0.28839 0.610923,0.5334 0.322527,0.8681 -0.03413,0.0402 -0.07911,0.0579 -0.124089,0.0744 -0.04498,0.0175 -0.09604,0.0249 -0.148696,0.0249 -0.03572,0 -0.0852,0.005 -0.12409,0 0.192352,0.63156 0.483659,1.77879 0.04974,2.3315 -0.609335,0.78026 -0.852752,1.18745 -0.446617,1.66185 0.406136,0.4744 0.0016,1.02526 0.272786,1.36419 0.271198,0.33999 -0.04974,1.16893 0.322527,1.06654 0.373591,-0.10239 0.700616,-0.38762 0.768879,-0.79375 0.06826,-0.40614 0.601398,-0.27384 1.041929,-0.54557 0.440267,-0.27067 0.640292,0.31935 0.471223,0.79375 -0.169069,0.4744 -0.09155,0.8681 0.620183,0.8681 0.711729,0 1.201473,-0.31936 1.438804,-0.79375 0.237332,-0.4744 0.01085,-1.32186 0.24818,-1.66185 0.237066,-0.33893 0.404548,0.28204 0.744008,-0.12409 0.33946,-0.40614 0.923925,-1.09141 1.364192,-1.09141 0.440266,0 0.457464,0.64797 0.694534,0.17357 0.23706,-0.4744 0.54874,-1.19486 1.0914,-1.36419 0.54266,-0.16854 0.75803,-0.26035 0.52097,-0.76888 -0.23707,-0.50853 -1.02791,-0.71729 -0.89297,-1.46341 0.13652,-0.74507 0.64638,-1.28455 0.91784,-1.11628 0.2712,0.1696 0.44344,-0.38232 0.91784,-0.24818 0.4744,0.13547 1.1549,0.10742 0.91784,-0.19844 -0.18759,-0.24183 -0.65432,-0.558 -0.39688,-0.91784 0.17992,0.0619 0.37359,0.15082 0.54557,0.22331 0.64638,-0.28522 1.36261,-0.73792 1.78594,-0.49609 0.50536,0.28839 2.59662,0.71834 3.175,0.64505 0.57838,-0.0722 1.37504,0.35851 1.7362,0.71941 0.36115,0.36168 1.36419,0.372 1.36419,0.372 l 0.66966,0.94245 -0.7194,0.79375 0.12409,0.79375 c 0,0 0.73025,-0.0931 1.0914,0.12408 0.36116,0.21723 0.64506,0.44662 0.64506,0.44662 l -1.2155,1.16576 c 0,0 0.21405,0.63261 -0.0743,1.06653 -0.28839,0.43392 -1.01706,0.37201 -1.01706,0.37201 l -0.0744,1.28984 M 82.477336,92.47079 81.956371,92.942013 c 0.02937,0.03096 0.04974,0.03307 0.09922,0 0.09313,-0.06191 0.265377,-0.264319 0.421746,-0.471223 z" />
  </g>
</svg>
