<?xml version="1.0" encoding="UTF-8" standalone="no"?>
<!-- Created with Inkscape (http://www.inkscape.org/) -->

<svg
   width="210mm"
   height="297mm"
   viewBox="0 0 210 297"
   version="1.1"
   id="svg1795"
   inkscape:version="1.1.1 (3bf5ae0d25, 2021-09-20)"
   sodipodi:docname="greece.svg"
   xmlns:inkscape="http://www.inkscape.org/namespaces/inkscape"
   xmlns:sodipodi="http://sodipodi.sourceforge.net/DTD/sodipodi-0.dtd"
   xmlns="http://www.w3.org/2000/svg"
   xmlns:svg="http://www.w3.org/2000/svg">
  <sodipodi:namedview
     id="namedview1797"
     pagecolor="#ffffff"
     bordercolor="#666666"
     borderopacity="1.0"
     inkscape:pageshadow="2"
     inkscape:pageopacity="0.0"
     inkscape:pagecheckerboard="0"
     inkscape:document-units="mm"
     showgrid="false"
     inkscape:zoom="0.7500982"
     inkscape:cx="397.28131"
     inkscape:cy="561.92642"
     inkscape:window-width="1920"
     inkscape:window-height="1027"
     inkscape:window-x="1912"
     inkscape:window-y="-8"
     inkscape:window-maximized="1"
     inkscape:current-layer="layer1" />
  <defs
     id="defs1792" />
  <g
     inkscape:label="Ebene 1"
     inkscape:groupmode="layer"
     id="layer1">
    <path
       id="path4491"
       fill="#3fadf8"
       stroke="#000000"
       stroke-width="0.132292"
       d="m 46.07925,24.307417 c -0.110066,-0.0217 -0.274372,0.173567 -0.396875,0.471223 -0.246591,0.597429 -0.646377,1.505744 0.372005,0.347133 0.175418,-0.561181 0.134937,-0.79666 0.02487,-0.818356 z M 43.524434,25.4483 c -0.145786,0.0093 -0.0217,0.253206 0.768879,1.041929 0.700617,-0.03413 0.54266,0.182827 0.719402,-0.272785 0.175154,-0.455877 0.130175,-0.0807 -0.570442,-0.396875 -0.351895,-0.158221 -0.773641,-0.379413 -0.917839,-0.372269 z m -1.116277,0.148961 c -0.09604,0.01561 -0.18759,0.08678 -0.248179,0.173566 -0.246592,0.352425 -0.03731,0.933186 0.595312,0.372004 0.262202,-0.341047 -0.0635,-0.593195 -0.347133,-0.54557 z m 8.210285,0.768879 c -0.40296,-0.02487 -0.395287,0.555096 -0.148696,0.892969 0.280723,0.386556 0.647965,0.607747 1.314715,0.81862 0.665162,0.210873 0.73025,-0.258498 0.09922,-0.645054 -0.632619,-0.385498 -0.505355,-0.700616 -1.066536,-1.017058 -0.0762,-0.03096 -0.141287,-0.04419 -0.198702,-0.04948 z m -12.577498,0.229394 c -0.01561,0.0093 -0.059,0.02381 -0.06509,0.03096 -0.102394,0.102394 0.117739,0.848519 0.271198,1.068652 0.151871,0.220133 -0.170656,0.407194 -0.356659,0.559064 -0.187589,0.153988 -0.0852,0.151871 -0.559593,-0.102393 -0.237067,-0.127 -0.395288,-0.148696 -0.491332,-0.102394 -0.059,0.02778 -0.08996,0.08573 -0.110066,0.153987 -0.296069,-0.10742 -0.582877,-0.229393 -0.844815,-0.37412 -0.438679,-0.24818 -0.838729,-0.331788 -1.240366,-0.297657 -0.402961,0.03413 -0.803011,0.184944 -1.190625,0.347134 -0.389203,0.164306 -0.76888,0.333904 -1.165755,0.471223 -0.398462,0.139435 -0.810683,0.237595 -1.240366,0.198437 -0.519377,-0.17145 -1.021556,-0.629444 -1.537759,-0.892969 -0.259027,-0.131233 -0.516202,-0.223308 -0.79375,-0.198437 -0.279135,0.02699 -0.581289,0.170656 -0.892968,0.471223 -0.508529,0.597429 -0.979752,1.215496 -1.537759,1.736196 -0.305329,0.28522 -0.638704,0.5334 -1.010708,0.733689 0.02937,0.145786 0.01085,0.313267 0.0217,0.474398 0.0032,0.06509 0.01243,0.127 0.03096,0.18706 0.0032,0.01138 0.0048,0.02064 0.0077,0.0299 0.02487,0.06932 0.059,0.136525 0.120915,0.196321 0.314589,0.316177 -0.418571,0.127 -0.347134,0.372004 0.0077,0.03096 0.01085,0.04657 0.0061,0.04974 -0.03254,0.02487 -0.376767,-0.531283 -0.775229,-0.471223 -0.11483,0.01852 -0.221721,0.01561 -0.322527,0.0082 -0.100807,-0.0061 -0.192353,-0.01852 -0.277548,-0.02487 -0.170657,-0.01138 -0.31168,0.0093 -0.416984,0.165365 -0.137848,0.207698 -0.139435,0.318294 -0.210873,0.291571 -0.0016,0 -0.0016,0 -0.0032,0 -0.02487,-0.0093 -0.05741,-0.03413 -0.105304,-0.07646 -0.02646,-0.0217 -0.04022,-0.03201 -0.07752,-0.06509 -0.190764,-0.16854 -0.09922,-0.261409 -0.02487,-0.341048 -0.04339,0.0026 -0.06509,0.07435 -0.108479,0.059 -0.137848,-0.04445 -0.238654,0.107421 -0.395287,0.238654 0.0418,0.03307 0.102394,0.0889 0.14261,0.108479 0.03731,0.170656 0.08678,0.305859 0.12409,0.446617 0.0032,0.01561 -0.0048,0.03625 0,0.04974 -0.559594,0.610922 -0.12409,0.772054 0.173566,1.091406 0.148696,0.198437 0.04974,0.09922 0.496094,-0.04974 0.06985,-0.02275 0.131763,-0.07223 0.173567,-0.148696 0.170656,0.294482 0.120914,0.777346 0.421746,1.017059 0.03731,0.07435 0.161131,0.03731 0.294481,-0.0093 0.13335,-0.04657 0.27596,-0.102394 0.350308,-0.06509 0.669661,0.398991 0.272786,1.46341 0.91784,1.190625 0.917839,1.068652 0.496094,1.116277 0.570441,1.537758 0.04974,0.173567 -0.04974,0.694531 0.09922,0.620183 0.719402,-0.124089 1.165754,-0.345281 1.463411,-0.79375 0.148695,-0.148696 0.124089,-0.694531 0.347133,-0.620183 0.446617,0.223308 0.198437,1.190625 1.017058,0.967317 0.353484,-0.09313 0.72099,-0.356659 1.066536,-0.471223 0.582877,-0.106363 0.979752,-0.06826 1.537758,-0.446617 0.224896,-0.139435 0.632619,-0.452702 0.744008,-0.595312 0.334963,0.01244 2.044965,0.638704 2.331509,0.124089 0.147373,-0.263525 0.607748,0.235744 0.868098,-0.02487 0.297656,-0.223308 0.04974,-0.667543 0.198437,-0.967316 1.364192,0.297656 0.817033,1.091406 1.612371,1.264973 0.645054,-0.223309 -0.12409,-0.421746 0.248179,-0.818621 0.136525,-0.347134 0.341048,0.216958 0.719402,0.297656 0.530225,0.116681 0.719402,0.186002 0.421746,0.66966 0.967317,0.448469 1.413933,-0.595312 2.009246,0.148696 0.372004,0.448469 0.446616,-0.446616 0.595312,-0.446616 0.148696,0 0,0.372004 0.148696,0.446616 0.297656,0.150813 0.892969,-0.223308 0.818621,0 -0.669661,1.738313 -0.942446,0.322527 -2.753254,1.637242 0.148696,0.374121 0.967316,0 1.116277,0.297656 0.07435,0.374121 -0.421746,0.570442 -0.719402,0.496094 -0.744009,-0.07435 -1.190625,-0.9652 -1.934634,-1.116277 -1.26656,-0.372004 -2.778125,-0.04762 -3.96875,-0.496094 -0.81862,-0.297656 -1.438804,-1.289844 -2.480468,-0.620183 -1.303867,0.848518 -0.496094,0.857779 -0.823119,1.395148 -0.04657,0.07752 -0.116152,0.164306 -0.218546,0.2667 -0.595312,0.597429 -1.240366,-0.02487 -1.984375,-0.02487 -0.344223,0.431006 -0.316177,0.67601 -0.372004,1.339321 -0.173567,0.597429 -0.694531,1.165754 -1.264973,1.637241 -0.514614,1.010709 -0.358246,1.14009 1.215496,1.240367 0.372004,0.374121 0.198437,1.066535 0.496094,1.438804 0.148696,0.225425 0.347133,-0.322527 0.570441,-0.248179 0.967317,0.299773 3.075782,1.661848 3.001434,2.852473 -0.148696,1.713706 -0.620184,0.79375 -0.471223,1.910027 0.148696,0.820737 -0.07435,0.545571 0.496093,1.264973 0.223309,0.248179 0.645055,0.446616 0.645055,0.595312 -0.02487,0.287338 0.251089,1.326092 0.694531,1.215496 0.778139,-0.190235 0.407723,0.609865 0.992187,0.297656 1.264973,-0.595312 -1.241689,-2.852473 1.413934,-2.902214 0.446616,0.07646 0.09922,0.620183 0.322527,0.992187 0.311679,0.398992 0.519377,-0.514614 1.835679,1.736196 0.66966,1.093523 0.369094,1.646502 0.570442,2.058723 0.201612,0.414337 0.483658,0.08678 1.091406,0.694531 0.148696,-0.146844 -0.0016,-0.841375 -0.07435,-1.066535 -0.595313,-1.165754 0,-1.337469 0.02487,-2.703777 1.192212,-0.967317 1.288256,-0.79375 2.083593,0.421746 0.446617,0.49821 0.91784,0.79375 1.066536,0.942445 0.322527,0.47334 0.892969,0.520965 1.116277,0.669661 0.347133,0.6223 0.868098,0.49821 1.190625,0.297656 -0.91784,-0.694531 -0.173567,-0.742156 -1.513152,-1.488281 -0.07435,-0.148696 -0.09922,-0.493977 -0.09922,-0.645054 -0.07435,-0.148696 -0.396875,-0.270669 -0.396875,-0.496094 0,-0.223308 0.818621,0.175683 0.520965,-0.496094 -0.297657,-0.66966 -1.389063,-2.304785 -1.686719,-2.827866 -0.148696,-0.223309 -0.595313,0 -0.744008,-0.223309 -0.07435,-0.223308 0.148695,-0.518848 0.07435,-0.818621 -0.148696,-0.26035 -0.663575,-0.892968 -1.066536,-1.562629 -0.100806,-0.167481 -0.195262,-0.336021 -0.274373,-0.503237 -0.238654,-0.499269 -0.34581,-0.973667 -0.122502,-1.2827 0.372004,-0.446617 0.322527,0.496093 0.91784,0.496093 0.07435,0 0.471223,-0.347133 0.545571,-0.272785 0.148695,0.225425 1.46341,0.570442 1.686718,0.645054 -0.130175,0.305859 -0.110066,0.502179 -0.223308,0.520965 -0.111654,0.01852 -0.181504,0.232569 -0.08361,0.337873 0.03254,0.03625 0.08361,0.059 0.15822,0.059 0.297657,0 0.02487,0.272785 0.595313,0.347133 0.570442,0.07435 -0.248179,-0.322527 0.297656,-0.496094 0.545836,-0.173566 0.645054,-0.198437 0.322527,-0.272785 -0.322527,-0.07435 -0.248179,-0.173567 0.173567,-0.372004 0.05265,-0.02487 0.07435,-0.04762 0.07435,-0.07435 0.810683,-0.09313 1.860285,-0.337873 1.513152,-0.744008 -0.111654,-0.13335 -0.235744,-0.221192 -0.372004,-0.297657 0.21246,-0.155046 0.420158,-0.277018 0.223308,-0.396875 -0.248179,-0.148695 -0.223308,-0.148695 -0.297656,0.12409 -0.03413,0.126206 -0.106892,0.172508 -0.173567,0.173567 -0.04974,-0.0164 -0.09763,-0.03519 -0.148696,-0.04974 -0.08678,-0.0217 -0.158221,-0.059 -0.248179,-0.07223 -0.0016,-0.0032 -0.02487,0 -0.02487,0 -0.03731,-0.167482 0.0077,-0.458788 0.04974,-0.694532 0.07435,-0.421745 -0.04974,-0.496093 -0.545571,-0.322527 -0.495829,0.173567 -0.173566,0.372005 0.09922,0.545571 0.05741,0.03519 0.106892,0.100277 0.147373,0.180975 0.04022,0.07964 0.07435,0.172508 0.100806,0.265642 -0.629444,-0.07646 -1.309952,-0.04657 -1.785937,-0.520965 -0.223309,-0.225425 0.04974,-0.595312 -0.09922,-0.892968 -0.07435,-0.150813 -0.520965,-0.04974 -0.520965,-0.272786 0,-0.225425 0.694532,-0.570442 0.471223,-0.645054 -0.520964,-0.225425 -1.413933,0.04974 -1.637241,-0.471223 0.396875,-0.597429 2.034116,-1.215496 2.92682,-1.513152 0.520965,-0.150813 0.122502,-0.795867 0.967317,-0.967317 0.744008,0.223309 1.562629,1.709473 2.083594,2.083594 0.148696,0.07435 0.223308,-0.299773 0.372004,-0.223308 0.07435,0 0.967317,0.593196 1.041929,0.744008 0.07435,0.148696 -0.07435,0.369888 0.07435,0.520965 0.223308,0.07435 0.520965,0.223308 0.66966,0 0.102394,-0.160073 0.182827,-0.302948 0.245005,-0.433123 0.434181,-0.914665 -0.04339,-1.213379 -0.369094,-1.799432 -0.148696,-0.299772 -0.322527,-0.744008 -0.471223,-1.116277 -0.07435,-0.299773 -0.520965,-0.520964 -0.520965,-0.892968 0,-0.523082 1.264973,-0.148696 0.446617,-1.041929 -1.043252,-1.192742 -1.339321,-0.719403 -2.827867,-0.79375 -0.968904,-0.299773 -0.694531,-0.91784 -0.992187,-1.066536 -0.520965,-0.374121 -1.488281,0.272786 -2.083594,-0.09922 -0.917839,-0.671777 0.322527,-0.843491 -0.570442,-1.289843 -0.446616,-0.225425 -0.892968,0.570441 -1.413933,0.421745 -0.446617,-0.07646 -0.248179,-0.81862 -0.694531,-0.967316 -0.520965,-0.101336 -1.240367,-0.07435 -1.835679,-0.07435 -0.148696,0.07435 -0.173567,0.173567 -0.322527,0.09922 -0.223309,-0.148696 -0.347134,-0.545571 -0.645054,-0.545571 -0.297921,0 -0.446617,0.372004 -0.669661,0.446616 -0.223044,0.07461 -0.892969,-0.148695 -0.66966,-0.223308 1.103841,-1.143 1.015471,-0.346339 1.934633,-0.66966 0.903817,-0.319352 0.12409,-0.396875 1.562629,-0.892969 0.178329,-0.160073 0.198438,-0.296598 0.272786,-0.446617 0.187589,-0.381264 0.179916,-0.699823 -0.04974,-0.570441 -0.465138,0.26035 -0.508529,-0.06191 -0.520965,-0.421746 -0.223308,-0.150813 -0.570441,-0.248179 -0.967316,-0.645054 -0.0093,-0.0053 -0.01693,-0.03916 -0.02646,-0.04339 v 0 z m 3.523986,0.812535 c -0.381265,0.01455 -0.677598,0.445558 -1.165754,0.520965 -0.299244,0.223308 -0.372005,0.54557 -0.669661,0.843491 -0.224896,0.223308 -0.545571,0.248179 -0.768879,0.471223 -0.446617,0.372004 -0.66966,0.892969 -0.66966,0.892969 0,0 0.768879,-0.198438 1.066535,-0.396875 0.297656,-0.198438 0.122502,-0.396875 0.347133,-0.471223 0.719402,0.818621 0.627857,-0.754592 2.827867,1.215496 1.283758,1.15226 2.418556,1.004623 2.529946,1.339321 0.148696,0.223308 0.09922,0.992187 0.248179,1.215495 1.661848,0.126207 1.759479,-0.322527 2.802996,-0.396875 0.07435,0.446617 0.07276,0.645055 0.843491,0.620184 0.02487,0.297656 0.148696,0.570441 0.148696,0.843491 0.396875,0 0.570442,0.322527 0.719402,0.322527 0.04974,0.372005 0.198438,0.595313 0.272786,0.818621 0.421746,-0.02487 1.488281,0.843492 1.562629,0.992188 0.02487,-0.595313 0.34581,-0.518848 1.066535,0 0.657225,-1.537759 0.04974,-1.407584 0.148696,-2.157942 -0.818621,0.316177 -1.971939,0.471223 -2.455598,-0.07435 -0.373591,-0.719402 -1.389062,-1.910027 -0.992187,-2.926821 -0.224896,-0.372004 -0.44794,-0.41857 -0.818621,-0.66966 -0.272786,-0.182827 -0.111654,-0.297656 0.07435,-0.446617 -0.492919,-0.396875 -1.063625,-0.124089 -1.736196,0.09922 -0.44794,-0.148696 -0.942446,0.03731 -1.339321,-0.09922 -0.150283,-0.07435 -0.396875,-0.570441 -0.545571,-0.570441 -0.299243,0 -0.66966,0.175683 -0.892968,0.02487 -0.931598,-0.210872 -1.340909,-0.540543 -1.364192,-1.46341 -0.758031,0.158221 -0.465138,-0.396875 -1.066535,-0.520964 -0.06112,-0.01746 -0.119857,-0.02672 -0.174096,-0.02567 z m 13.072004,8.111066 c -0.545571,0.09922 -0.843492,0.396875 0.04974,1.140884 1.686719,1.438804 2.430992,2.083594 3.323696,2.38125 0.892704,0.297656 1.041929,-0.09922 0.992188,-0.446617 -0.04974,-0.347398 -1.637242,-0.595312 -2.133071,-0.694531 -0.495829,-0.09922 0,-0.694531 -0.496094,-1.190625 -0.496094,-0.496094 -1.190889,-1.289579 -1.73646,-1.190361 z m -9.476846,1.782763 c -0.04815,-0.01349 -0.11774,-0.01349 -0.221721,0.0032 -0.421746,0.07144 -0.734748,0.322527 -0.173567,0.322527 0.561182,0 0.269875,0.03413 0.02487,0.173567 -0.246591,0.141552 -0.705379,0.420687 -0.248179,0.595312 0.455877,0.175684 0.216958,0.0672 0.744008,-0.66966 -0.05265,-0.208756 0.01402,-0.381529 -0.125412,-0.424921 z m 6.599502,1.516327 c -0.164306,-0.0164 -0.311679,0.147902 -0.297656,0.620183 0.03413,1.263915 -0.08229,1.437746 0.620183,0.595313 0.261938,-0.635794 -0.04974,-1.187715 -0.322527,-1.215496 z m 8.867775,0.361685 c -0.06509,-0.0053 -0.142611,-0.0026 -0.235744,0.01032 -0.744008,0.09922 -1.140883,1.091406 -0.248179,0.942446 0.694531,-0.477308 0.93345,-0.917575 0.483923,-0.952766 z m -15.242646,0.134409 c -0.07144,0.0026 -0.164306,0.01852 -0.272785,0.04974 -0.877358,0.141553 -0.07276,1.065478 0.173566,0.818621 0.214048,-0.214312 0.595313,-0.874712 0.09922,-0.868362 z m 11.286067,0.619919 c -0.396875,-0.01561 -0.235744,1.376627 0.198437,1.289843 0.496094,-0.09922 0.347134,-0.496093 0,-1.190625 -0.08043,-0.068 -0.14261,-0.09604 -0.198437,-0.09922 z m -3.794919,1.017058 c -0.229394,0.0672 -0.413808,0.49821 -0.12409,0.917839 -0.07144,0.772055 0.119328,1.04484 0.471223,0.272786 0.350309,-0.772054 0.156634,-0.835025 -0.124089,-1.116277 -0.07117,-0.06906 -0.147109,-0.09604 -0.223044,-0.07435 z m 9.004035,0.892969 c -0.333375,0.07964 -0.744008,0.948795 -1.091406,1.165754 -0.396875,0.248179 0.04974,0.645054 0.396875,0.992187 0.744008,0.744009 1.041929,0.892969 1.240367,0.09922 0.198437,-0.79375 -0.04974,-2.034117 -0.396875,-2.232554 -0.04366,-0.02461 -0.102394,-0.03493 -0.148961,-0.02461 z m -1.984375,0.79375 c -0.376766,-0.05265 -1.07897,1.103841 -1.637241,1.810808 -0.744009,0.942446 0.297656,0.198437 1.190625,0.148696 0.892968,-0.04974 0.545571,-0.694532 0.694531,-1.438804 -0.03704,-0.347134 -0.122238,-0.50218 -0.247915,-0.5207 z M 53.8199,43.480448 c -0.0418,-0.0061 -0.08519,-0.0061 -0.125677,0 -0.04815,0.0093 -0.0807,0.04551 -0.124089,0.07435 -0.351896,0.455877 0.314589,1.150408 0.595312,0.694531 0.214048,-0.348456 -0.05398,-0.723635 -0.345546,-0.769937 z m 12.202319,0.273844 c -0.100806,0.01852 -0.156633,0.06826 -0.173567,0.173566 -0.03572,0.210873 -0.455877,0.525992 -1.017058,1.017059 -0.561181,0.49186 -0.475985,0.637645 -0.12409,0.496093 0.350309,-0.139435 0.475986,-0.176741 0.967317,-0.843491 0.31459,-0.490802 1.119188,-0.747184 0.768879,-0.818621 -0.176477,-0.03387 -0.320675,-0.04127 -0.421481,-0.02461 z m -10.517187,0.992187 c -0.198438,0.0061 -0.272786,0.148696 0.02487,0.496094 0.694532,1.140883 1.240367,0.148696 0.744009,-0.198438 -0.247915,-0.173566 -0.570442,-0.304006 -0.768879,-0.297656 z m 5.332941,1.389063 c -0.272785,0.04868 -0.300831,0.53631 0.09922,0.843491 0.665162,0.421746 1.158081,0.536311 0.843492,-0.02487 -0.316177,-0.561181 -0.434182,-0.713052 -0.818621,-0.81862 -0.04948,-0.01244 -0.0852,-0.0063 -0.12409,0 z m -5.779293,0.54557 c -0.285221,0.04022 -0.402961,0.485775 -0.04974,0.669661 0.40296,0.210873 0.663575,-0.458788 0.173567,-0.669661 -0.0463,-0.01243 -0.08361,-0.004 -0.123825,0 z m -0.694532,0.892969 c -0.254264,0.01852 -0.421746,0.148696 -0.173566,0.347134 0.496093,0.396874 0.09922,0.645054 -0.198438,0.297656 -0.297656,-0.347398 -1.389062,1.041929 0.347133,0.496093 1.04193,-0.446616 0.843492,-0.248179 0.694532,-0.793749 -0.07435,-0.272521 -0.415396,-0.365655 -0.669661,-0.347134 z m 7.838281,1.389063 c -0.145785,0.0026 0.07435,0.297656 0.322528,0.54557 0.396875,0.396875 -0.347134,0.645055 0.347133,0.744009 0.694267,0.09895 0.446617,-0.198438 0.04974,-0.892969 -0.409311,-0.297392 -0.634207,-0.39661 -0.719403,-0.39661 z m 2.976563,0.223308 c -0.423333,0.0032 -0.246592,0.471223 0.322527,0.471223 0.647965,0 0.671248,-0.341048 -0.09922,-0.446617 -0.08705,-0.02143 -0.162983,-0.02461 -0.223308,-0.02461 z" />
  </g>
</svg>
