<?xml version="1.0" encoding="UTF-8" standalone="no"?>
<!-- Created with Inkscape (http://www.inkscape.org/) -->

<svg
   width="210mm"
   height="297mm"
   viewBox="0 0 210 297"
   version="1.1"
   id="svg4429"
   inkscape:version="1.1.1 (3bf5ae0d25, 2021-09-20)"
   sodipodi:docname="hanover.svg"
   xmlns:inkscape="http://www.inkscape.org/namespaces/inkscape"
   xmlns:sodipodi="http://sodipodi.sourceforge.net/DTD/sodipodi-0.dtd"
   xmlns="http://www.w3.org/2000/svg"
   xmlns:svg="http://www.w3.org/2000/svg">
  <sodipodi:namedview
     id="namedview4431"
     pagecolor="#ffffff"
     bordercolor="#666666"
     borderopacity="1.0"
     inkscape:pageshadow="2"
     inkscape:pageopacity="0.0"
     inkscape:pagecheckerboard="0"
     inkscape:document-units="mm"
     showgrid="false"
     inkscape:zoom="0.7500982"
     inkscape:cx="397.28131"
     inkscape:cy="560.59326"
     inkscape:window-width="1920"
     inkscape:window-height="1027"
     inkscape:window-x="1912"
     inkscape:window-y="-8"
     inkscape:window-maximized="1"
     inkscape:current-layer="layer1" />
  <defs
     id="defs4426" />
  <g
     inkscape:label="Ebene 1"
     inkscape:groupmode="layer"
     id="layer1">
    <path
       id="path4604"
       fill="#ffb5b7"
       stroke="#000000"
       stroke-width="0.132292"
       d="m 50.530229,92.780723 c -0.593725,-0.04022 -1.260475,0.374121 -1.885156,0.248179 -0.141023,0 -0.296069,-0.0093 -0.446617,-0.02487 -0.0032,0.0032 -0.02328,-0.0032 -0.02487,0 -0.05742,0.09499 -0.103981,0.20373 -0.198437,0.322528 -0.271198,0.339989 -0.523875,-0.238655 -0.79375,0.09922 -0.148696,0.184944 -0.503767,0.313267 -0.818621,0.396875 -0.173567,0.710142 0.06985,1.367367 0.272785,1.984375 -0.02778,-0.0061 -0.04974,-0.0164 -0.07435,-0.02487 l 0.09922,0.148696 c 0,0 -0.514615,0.620184 -0.446617,1.637242 0.06667,1.017058 -0.155045,1.880923 0.421746,2.083594 0.575204,0.203729 0.496094,0.248179 0.496094,0.248179 0,0 0.0048,0.07646 0,0.09922 0.296069,0.0061 0.612246,0.02698 0.768879,0.04974 0.310092,0.0487 0.457465,0.46408 0.768879,0.24818 0.310092,-0.21485 0.685271,-0.18706 0.421746,0.12409 -0.223308,0.26352 -0.170656,0.75247 -0.148696,0.91784 0.103981,0.0278 0.209286,0.0683 0.372004,0.14869 0.406136,0.20373 0.372005,0.24818 0.372005,0.24818 0,0 -0.520965,0.90858 -0.892969,0.94245 -0.373592,0.0341 -0.12409,-1.38907 -0.12409,-1.38907 0,0 0.06509,0.0175 0.12409,0.0249 -0.03731,-0.0373 -0.0093,-0.0103 -0.12409,-0.14869 -0.240241,-0.28628 -0.2032,-0.52811 -0.322527,-0.0497 -0.120914,0.47942 -0.372004,0.62018 -0.372004,0.62018 0,0 -0.0093,-0.59002 -0.248179,-0.47122 -0.240242,0.11985 -0.372004,0.17356 -0.372004,0.17356 l -0.297657,-0.17356 c -0.08996,-0.0124 -0.173566,-0.001 -0.198437,0.0992 -0.06826,0.27172 -0.261938,0.49 -0.396875,0.42174 -0.136525,-0.0683 -0.159808,-0.30083 -0.396875,0.17357 -0.06191,0.12303 -0.179917,0.2749 -0.272785,0.42174 0.0077,0.0206 0.01693,0.0278 0.02487,0.0498 0.148696,0.41751 0.13335,0.75035 0.148696,1.19062 -0.280723,-0.004 -0.849577,0.0156 -1.017058,0.32253 -0.18759,0.34316 -0.317765,0.51355 -0.173567,0.79375 -0.120914,0.25426 0.02937,0.51673 0,0.91784 -0.280723,0.21405 -0.204523,0.21299 -0.843491,0.12409 -0.348721,-0.0476 -0.51779,-0.12806 -0.595313,-0.24818 -0.04022,-0.0601 -0.04657,-0.1405 -0.04974,-0.22331 -0.0016,-0.0156 0,-0.0341 0,-0.0497 0.06985,-0.22437 0.17833,-0.45879 0.09922,-0.7194 0.06191,-0.24607 0.111654,-0.48155 0.02487,-0.66966 -0.07276,-0.15505 -0.178329,-0.0744 -0.272785,0 -0.09604,0.0743 -0.176742,0.14578 -0.24818,0.0497 -0.07276,-0.0961 -0.06668,-0.17145 -0.09922,-0.22331 -0.03413,-0.0505 -0.122502,-0.0619 -0.396875,-0.0497 -0.275961,0.0124 -0.446617,0.0982 -0.595313,0.14869 -0.150283,0.0516 -0.2667,0.0704 -0.421746,-0.0497 -0.156633,-0.1188 -0.13335,-0.27702 -0.02487,-0.42174 0.106892,-0.14367 0.289984,-0.27702 0.421746,-0.42175 0.131763,-0.14367 -0.07144,-0.22939 -0.248179,-0.32253 -0.08837,-0.0466 -0.169069,-0.09 -0.198437,-0.14869 -0.03096,-0.059 0.0032,-0.13335 0.124089,-0.22331 0.479161,-0.35957 0.722313,-0.43207 0.843492,-0.74401 0.059,-0.15505 -0.0418,-0.28945 -0.223308,-0.42175 -0.182828,-0.13123 -0.429419,-0.2667 -0.645055,-0.44661 -0.216958,-0.17992 -0.195262,-0.54372 -0.07435,-0.967318 0.0016,-0.0061 -0.0048,-0.01852 0,-0.02487 0.215371,0.03307 0.317765,0.147902 0.272786,-0.148696 -0.04815,-0.31115 0.01561,-0.655373 0.496094,-0.967317 0.47916,-0.31115 0.01085,-0.877358 0.347133,-1.165754 0.334962,-0.286279 0.645054,-0.967317 0.645054,-0.967317 0,0 -0.747183,0.09604 -0.79375,0 -0.04815,-0.09604 0.193675,-0.610923 0.09922,-1.066535 -0.08837,-0.418571 -0.01244,-1.103842 0,-1.215496 -0.0217,0.0021 -0.05583,0 -0.07435,0 -0.762794,0.03916 -1.055688,0.179917 -1.612371,0.347133 -0.390789,-0.105304 -1.364191,-0.19632 -1.736196,0.02487 -0.21537,0.108479 -0.555095,0.442384 -0.843491,0.868098 0.252677,0.26035 0.40296,0.359569 0.272785,0.372004 -0.176742,0.01746 -0.27596,0.03413 -0.223308,0.173567 0.04339,0.11774 -0.06191,0.04022 -0.297656,-0.09922 -0.297657,0.539486 -0.510117,1.125538 -0.421746,1.537758 l 0.868098,0.372005 1.017058,0.124089 c 0,0 -0.181504,1.180306 -0.248179,1.959504 -0.01244,0.127 -0.01852,0.251095 -0.02487,0.372005 -0.03731,0.62018 -0.07435,1.18745 -0.66966,2.00925 -0.713053,0.98292 -0.345811,1.40044 -0.446617,2.00924 -0.059,0.34925 -0.268288,0.40825 -0.520965,0.37201 -0.190764,-0.0259 -0.407723,-0.096 -0.595312,-0.19844 -0.221721,-0.11774 -0.445029,-0.16113 -0.595313,-0.12409 -0.151871,0.0373 -0.232568,0.15187 -0.198437,0.372 0.06668,0.44027 0.07911,0.41249 -0.12409,0.81862 -0.204523,0.40614 0.551921,0.80936 1.264973,0.8435 0.711465,0.0341 0.872861,0.28839 0.669661,0.69453 -0.204523,0.40613 -0.08229,0.56118 -0.148696,0.96731 -0.05106,0.30586 -0.229394,0.24395 -0.347134,0.34714 h 0.347134 c 0.570441,0 0.796925,-0.0228 0.868098,-0.1487 0.02011,-0.003 0.08228,0.003 0.09922,0 0.406136,-0.0714 0.750359,0.0392 0.967317,-0.27278 0.215371,-0.31115 0.431006,-0.40402 0.719402,-0.64506 0.0048,-0.004 -0.0061,-0.0196 0,-0.0249 0.02487,-0.0249 0.05742,-0.0434 0.07435,-0.0744 0.0032,-0.006 -0.0032,-0.0164 0,-0.0249 0.04339,-0.11271 0.04339,-0.25215 0.04974,-0.39687 0.0077,-0.17357 0.08228,-0.34211 0.272785,-0.47123 0.02328,0.0743 0.06191,0.14261 0.09922,0.17357 0.237066,0.20373 0.570441,-0.0683 0.570441,0.37201 0,0.44026 -0.03096,0.69453 0.545571,0.69453 0.575204,0 1.105429,-0.20162 0.868098,0.27278 -0.216958,0.43418 -0.510116,0.84244 -0.198437,1.11628 0.131762,0.31829 0.324114,0.70908 0.421746,0.94244 -0.05424,0.0299 -0.110067,0.0392 -0.148696,0.0498 -0.04974,0.0145 -0.08678,0.0217 -0.12409,0.0249 -0.07594,0.008 -0.139435,0.0145 -0.223308,0.0992 -0.170656,0.16959 -0.223309,0.34713 -0.223309,0.34713 0,0 -0.04974,0.003 -0.07435,0 0.187589,0.17357 0.466725,0.36803 0.744008,0.29766 0.367506,-0.091 0.09922,0.38443 0.297656,0.42174 0.0016,-0.009 0.03413,-0.0992 0.04974,-0.14869 0.01852,-0.0601 0.03254,-0.0714 0.07435,-0.1487 0.03096,-0.0619 0.05583,-0.12092 0.09922,-0.17357 0.0032,-0.003 0.0217,0.005 0.02487,0 0.134938,0.0672 0.291571,0.13335 0.421746,0.0743 0.272786,-0.12409 0.818621,-0.52096 0.818621,-0.52096 0,0 0.04974,0.19843 0.347133,0.2233 0.297392,0.0249 0.148696,-0.17356 0.520965,-0.29765 0.372269,-0.12409 0.694531,-0.19844 0.496094,-0.44662 -0.198438,-0.24818 -0.322527,-0.57044 -0.272786,-1.01706 0.04974,-0.44661 0.297656,-0.59531 0.02487,-0.99218 -0.130175,-0.18918 -0.502179,-0.51885 -0.843492,-0.81862 0.07594,0.0299 0.150284,0.0548 0.24818,0.0743 0.09922,0.0217 0.195262,0.0341 0.272785,0.0249 0.303742,-0.0341 0.297656,-0.59531 0.297656,-0.59531 l 0.545571,0.12409 0.272785,-0.27278 0.372005,0.0497 0.248179,1.19062 c 0,0 0.08678,0.0341 0.595312,0 0.127,-0.007 0.227806,-0.031 0.322527,-0.0743 0.03731,-0.0164 0.06509,-0.0476 0.09922,-0.0743 0,0 0.903817,-1.1049 1.289844,-1.14089 0.384439,-0.0352 0.445029,0.18283 0.322527,0.44662 -0.06191,0.13229 -0.192352,0.25426 -0.272786,0.372 h 0.198438 c 0,0 0,0.20373 -0.02487,0.57045 0.291571,-0.2077 0.556683,-0.41328 0.645054,-0.54558 0.148696,-0.2233 0.396875,-0.44661 0.868098,-0.49609 0.471223,-0.0495 0.545571,0.0992 0.173567,0.32253 -0.186002,0.11165 -0.402961,0.20452 -0.545571,0.29765 0.171979,0.064 0.198438,0.24818 0.198438,0.24818 l 0.446616,-0.0249 c 0,0 -0.359569,1.10384 -0.66966,1.43881 -0.311679,0.33681 0.03096,0.53022 0.248179,0.76888 0.215371,0.24077 0.04022,0.42386 -0.198438,0.47122 -0.240241,0.0487 -0.156633,0.37412 -0.372004,0.42174 -0.06059,0.0146 -0.156633,0.031 -0.272785,0.0498 0.03731,0.13229 0.119327,0.28204 0.248179,0.39687 0.215371,0.19526 0.45429,0.45482 0.66966,0.69453 l 0.04974,-0.0743 c 0,0 0.514615,0.0146 0.719402,-0.2233 0.2032,-0.23681 -0.305329,-0.51568 0,-0.71941 0.07594,-0.0505 0.144198,-0.0693 0.198438,-0.0743 0.03863,-0.003 0.06985,0.006 0.09922,0.0249 0.0093,0.006 0.01561,0.0175 0.02487,0.0249 0.01852,0.0185 0.03413,0.0466 0.04974,0.0743 0.01085,0.0249 0.01561,0.0434 0.02487,0.0743 0.02328,0.0733 0.03863,0.14156 0.04974,0.24818 0.0077,0.0931 0.02778,0.17992 0.07435,0.24818 0.137848,0.20373 0.416984,0.31618 0.570442,0.57044 0.2032,0.33999 0.620183,-0.27278 0.620183,-0.27278 l 0.148696,0.59531 0.818621,0.24818 c 0.147373,0.13547 0.223308,0.17357 0.223308,0.17357 0,0 0,-0.0601 0,-0.0992 v -0.0744 c 0.0032,-0.009 0.02011,-0.0156 0.02487,-0.0249 0.03572,-0.09 0.113242,-0.19526 0.297656,-0.27279 0.406136,-0.16854 0.198438,0.29766 0.198438,0.29766 l 0.272785,0.12409 c 0,0 0.02487,-0.0352 0.04974,-0.12409 0.02487,-0.0868 0.04974,-0.22622 0.04974,-0.44662 0,-0.44026 -0.283634,-0.86809 0.124089,-0.86809 0.406136,0 0.542661,0.43709 0.645054,0.84349 0.100807,0.40613 0.951971,0.58287 1.56263,0.44661 0.15187,-0.0341 0.272785,-0.0384 0.372004,-0.0249 0.07911,0.0145 0.147373,0.0455 0.198437,0.0743 0.0048,0.003 0.01852,-0.003 0.02487,0 0.04657,-0.0569 0.0852,-0.127 0.12409,-0.19844 0.21537,-0.40719 -0.303742,-0.72337 -0.471223,-0.86809 -0.0807,-0.0683 -0.059,-0.26776 0,-0.47123 -0.0061,-0.003 -0.02011,0.003 -0.02487,0 -0.09155,-0.063 -0.156633,-0.14578 -0.223308,-0.24818 -0.136525,-0.20267 -0.331788,0.0249 -0.669661,0.0249 -0.0852,0 -0.189177,-0.006 -0.297656,-0.0249 -0.327025,-0.0558 -0.694531,-0.17356 -0.694531,-0.17356 l -0.496094,-0.4961 c 0.103981,-0.0228 0.21246,-0.0497 0.297656,-0.0497 0.03731,0 0.08229,-0.0185 0.12409,-0.0497 0.122502,-0.091 0.251089,-0.29766 0.372004,-0.49609 l 0.248179,-0.39688 -0.12409,-1.11628 0.471223,-0.0743 0.09922,0.62018 0.818621,-0.47122 0.322527,0.39687 0.471223,-0.372 0.595312,0.34713 c 0,0 -0.179916,0.35666 0.396875,0.32253 0.142611,-0.007 0.254265,-0.0124 0.347134,-0.0249 0.09155,-0.0124 0.167481,-0.0249 0.198437,-0.0497 0.06059,-0.0505 -0.01085,-0.14579 -0.248179,-0.29766 -0.130175,-0.0818 -0.246592,-0.18706 -0.347133,-0.29766 0.0077,-0.0971 0.02487,-0.21696 0.02487,-0.34713 0,-0.0693 0.0061,-0.14261 0,-0.19844 -0.0077,-0.0558 -0.01693,-0.0971 -0.04974,-0.14869 -0.06668,-0.10028 -0.214048,-0.19632 -0.496094,-0.32253 -0.01561,-0.32041 0.221721,-0.70697 0.372004,-0.91784 0.01085,-0.0156 0.03096,-0.0196 0.04974,-0.0249 0.05424,-0.0103 0.145785,0.0249 0.248179,0.0992 0.137848,0.0982 0.279136,0.25109 0.446617,0.42174 0.01561,-0.22331 0.0217,-0.431 0,-0.62018 -0.0032,-0.0164 0.0032,-0.032 0,-0.0497 -0.01244,-0.0683 -0.02646,-0.13759 -0.04974,-0.19844 -0.0061,-0.0103 -0.02011,-0.0135 -0.02487,-0.0249 -0.03096,-0.0662 -0.06985,-0.12197 -0.124089,-0.17357 -0.441854,-0.40613 -0.832379,-0.98081 -0.967317,-1.76106 -0.03413,-0.19527 0,-0.3265 0.07435,-0.42175 0.07276,-0.0931 0.189177,-0.1561 0.322527,-0.19844 0.263525,-0.0836 0.589227,-0.10345 0.79375,-0.27278 0.03096,-0.0259 0.04657,-0.031 0.07435,-0.0497 0.01693,-0.0259 0.03863,-0.0476 0.04974,-0.0743 0.124089,-0.34714 0.198437,-0.27279 0.496093,-0.1487 0.235744,0.0982 0.434182,-0.0249 0.595313,0.0744 0.488421,-0.091 0.513027,0.12409 1.289844,0 0.05265,-0.007 0.07752,-0.0164 0.124089,-0.0249 0.322527,-0.29554 0.542661,-0.73475 0.669661,-0.96732 0.06668,-0.12409 0.15187,-0.35136 0.223308,-0.54557 -0.420158,-0.17356 -0.572029,0.0114 -0.818621,0.12409 -0.04339,0.0206 -0.07435,0.0373 -0.124089,0.0497 -0.05107,0.0124 -0.111655,0.0249 -0.173567,0.0249 -0.116152,0 -0.218546,-0.0497 -0.297656,-0.0992 -0.0061,-0.003 -0.02011,0.005 -0.02487,0 -0.07911,-0.0527 -0.125677,-0.12806 -0.173567,-0.19844 -0.05583,-0.0786 -0.102394,-0.13944 -0.124089,-0.19844 -0.0217,-0.0558 -0.02487,-0.0992 -0.02487,-0.0992 0,0 0.02328,0 0.02487,0 -0.189178,-0.27067 -0.678921,-0.94562 -1.04193,-1.140883 C 61.027043,99.093946 60.6008,98.239342 60.6008,98.239342 l -0.322528,-0.07435 -0.02487,0.421746 -0.471223,-0.248179 -0.09922,-0.396875 -1.017058,-0.07435 c 0,0 0.04815,-0.146844 0.04974,-0.198438 -0.299243,-0.05265 -0.468312,-0.07752 -0.66966,-0.124089 -0.136525,-0.03096 -0.249502,-0.0807 -0.347133,-0.12409 -0.09763,-0.04339 -0.186003,-0.08176 -0.24818,-0.12409 -0.124089,-0.08361 -0.173566,-0.148695 -0.173566,-0.148695 l -0.520965,0.04974 v 0.02487 c 0,0 -0.14261,0.243946 -0.570442,0.223308 -0.198437,-0.08996 -0.7239,-0.496093 -1.041929,-0.744008 l -0.198437,0.322527 -0.620184,-0.520964 -0.02487,-0.347134 c -0.26035,-0.01032 -0.547159,-0.120914 -1.091407,-0.297656 -0.216958,-0.06932 -0.40931,-0.387615 -0.570441,-0.768879 -0.0032,-0.0061 0.0016,-0.0164 0,-0.02487 -0.01244,-0.01561 -0.01561,-0.03202 -0.02487,-0.04974 -0.04498,-0.06826 -0.07593,-0.130175 -0.09922,-0.198437 -0.0217,-0.05583 -0.03572,-0.09313 -0.04974,-0.148696 -0.0032,-0.0071 0.0016,-0.0164 0,-0.02487 -0.03413,-0.127 -0.06985,-0.2667 -0.12409,-0.396875 -0.449527,-0.170656 -0.565944,-0.583935 -0.768879,-0.967316 -0.189177,-0.0042 -0.342636,-0.03413 -0.396875,-0.12409 l -0.02487,-0.04974 c -0.03863,-0.05689 -0.07594,-0.105304 -0.12409,-0.148696 -0.04974,-0.04339 -0.108479,-0.07144 -0.173566,-0.09922 -0.06667,-0.02884 -0.130175,-0.03519 -0.198438,-0.04974 z M 49.984658,108.1845 c -0.04974,0.0175 -0.07911,0.0796 -0.09922,0.1487 l 0.198438,0.14869 c 0.04498,-0.11271 0.130175,-0.25109 -0.02487,-0.29765 -0.03096,-0.009 -0.05424,-0.006 -0.07435,2.6e-4 z m -0.967317,0.22331 c -0.07911,0.0704 -0.159808,0.15187 -0.223308,0.22331 -0.167481,0.18494 -0.272785,0.34713 -0.272785,0.34713 h 0.471222 l 0.322528,-0.27279 c -0.153459,-0.0373 -0.285221,-0.13335 -0.297657,-0.29765 z m 7.614973,4.19206 c -0.03731,0.009 -0.08996,0.0402 -0.124089,0.0743 -0.0093,0.009 -0.01693,0.0146 -0.02487,0.0249 -0.03731,0.0434 -0.05265,0.09 -0.07435,0.14869 -0.01085,0.0238 -0.01852,0.0516 -0.02487,0.0743 -0.01693,0.059 -0.0093,0.11668 0,0.17357 0.0077,0.0434 0.02328,0.0889 0.04974,0.12409 0.0032,0.006 -0.0061,0.0185 0,0.0249 0.02487,0.031 0.05741,0.0526 0.09922,0.0743 0.372005,0.20373 0.220134,0.53949 -0.04974,0.47123 -0.271198,-0.0683 -0.530225,-0.75354 -0.868098,-0.71941 -0.297656,0.0299 -0.05741,0.29158 -0.173567,0.47123 -0.01693,0.027 -0.0418,0.0526 -0.07435,0.0743 -0.03413,0.0217 -0.05424,0.027 -0.07435,0.0249 -0.0217,-0.001 -0.03572,-0.006 -0.04974,-0.0249 -0.08678,-0.11166 -0.111655,-0.49292 -0.669661,-0.59532 -0.187589,-0.0341 -0.33946,-0.0931 -0.471223,-0.14869 -0.331787,-0.13944 -0.514614,-0.29766 -0.66966,-0.19844 -0.03254,0.0206 -0.06985,0.0579 -0.09922,0.0992 -0.03413,0.0487 -0.158221,0.15716 -0.248179,0.24818 l -0.07435,-0.0497 -0.620183,0.62018 0.04974,0.0497 c -0.578379,0.52097 -1.190625,1.06654 -1.190625,1.06654 -0.01244,0.0526 -0.01244,0.0921 -0.02487,0.14869 0.548745,-0.18706 0.804598,-0.16219 1.017058,-0.0992 0.238654,0.0733 0.553508,-0.23362 0.79375,0.1487 0.238654,0.38338 0.282046,0.5334 -0.12409,0.8681 -0.407723,0.33681 -0.07144,0.47757 0.02487,0.66966 0.09446,0.19235 0.184415,0.35957 -0.198437,0.69453 -0.38444,0.33681 -0.223309,0.64505 -0.223309,0.64505 0,0 0.606161,0.2966 0.91784,0.22331 0.310092,-0.0714 0.31459,-0.42174 0.09922,-0.44662 -0.216959,-0.0228 -0.479161,-0.1778 0.02487,-0.29765 0.07752,-0.0185 0.147372,-0.0196 0.223308,-0.0249 l 0.942446,0.91784 h 0.02487 l -0.07435,-0.0992 0.04974,-0.59531 c -0.02937,-0.0164 -0.09922,-0.0498 -0.09922,-0.0498 l 0.02487,-0.0249 0.173567,-0.34713 0.595312,-0.0743 0.545571,0.0497 c 0,0 0.310092,-0.45878 0.595313,-0.49609 0.285221,-0.0373 0.545571,-0.0249 0.768879,-0.49609 0.0217,-0.0466 0.02937,-0.11774 0.04974,-0.17357 l 0.570441,-0.1487 c -0.0032,-0.0444 -0.02646,-0.0683 -0.04974,-0.0743 0.07144,0.003 0.331787,-0.0103 0.421745,-0.24818 0.01693,-0.0466 0.01402,-0.059 0.02487,-0.0743 -0.01402,-0.22728 0.105304,-0.36989 0.198438,-0.49609 0.02937,-0.0402 0.05583,-0.0836 0.07435,-0.12409 0.0032,-0.007 -0.0032,-0.0156 0,-0.0249 0.01561,-0.0476 0.02646,-0.0878 0,-0.14869 -0.06826,-0.15187 -0.12409,-0.26141 -0.148696,-0.37201 -0.02487,-0.10953 -0.01852,-0.21801 0.04974,-0.372 0.134937,-0.3048 0.54557,0.0857 0.54557,0.32253 0,0.23759 0.482071,-0.0537 0.719402,-0.22331 0.237067,-0.16854 0.379942,0.0423 0.347134,-0.29766 -0.01085,-0.10848 0.03254,-0.33284 0.124089,-0.54557 0,-0.003 0.02328,0.003 0.02487,0 h 0.07435 l -0.02487,-0.17356 c 0,0 -0.215371,0.09 -0.372004,0.24817 -0.158221,0.15823 -0.447939,0.22331 -0.570442,0.22331 -0.124089,0 -0.471222,-0.32252 -0.471222,-0.32252 h -0.02487 l -0.04974,-0.34714 c -0.305329,0.27173 -0.626269,0.36592 -1.066535,0.29766 -0.441855,-0.0683 -0.8636,-0.24501 -1.066536,-0.34713 -0.02672,-0.013 -0.0471,-0.008 -0.07488,-5.3e-4 z m 3.050911,1.76106 -0.372005,0.0744 c 0.0061,0.10531 0.02328,0.46196 0.09922,0.66966 l 0.02487,0.0992 c 0.09155,0.17886 0.114829,0.2884 0.198437,0.42175 0.08678,0.14155 0.645055,0.47122 0.645055,0.47122 v 0.24818 l 0.81862,0.14869 -0.07435,-0.34713 c 0,0 -0.544247,-0.40719 -0.595312,-0.49609 -0.03254,-0.0527 0.09604,-0.30374 0.198438,-0.52097 0.02328,0 0.04974,0.002 0.07435,0 l 0.04974,-0.54557 -0.66966,0.59531 -0.07435,-0.0992 h 0.04974 z" />
  </g>
</svg>
