<?xml version="1.0" encoding="UTF-8" standalone="no"?>
<!-- Created with Inkscape (http://www.inkscape.org/) -->

<svg
   width="210mm"
   height="297mm"
   viewBox="0 0 210 297"
   version="1.1"
   id="svg222"
   inkscape:version="1.1.1 (3bf5ae0d25, 2021-09-20)"
   sodipodi:docname="hesse.svg"
   xmlns:inkscape="http://www.inkscape.org/namespaces/inkscape"
   xmlns:sodipodi="http://sodipodi.sourceforge.net/DTD/sodipodi-0.dtd"
   xmlns="http://www.w3.org/2000/svg"
   xmlns:svg="http://www.w3.org/2000/svg">
  <sodipodi:namedview
     id="namedview224"
     pagecolor="#ffffff"
     bordercolor="#666666"
     borderopacity="1.0"
     inkscape:pageshadow="2"
     inkscape:pageopacity="0.0"
     inkscape:pagecheckerboard="0"
     inkscape:document-units="mm"
     showgrid="false"
     inkscape:zoom="0.7500982"
     inkscape:cx="397.28131"
     inkscape:cy="561.92642"
     inkscape:window-width="1920"
     inkscape:window-height="1027"
     inkscape:window-x="1912"
     inkscape:window-y="-8"
     inkscape:window-maximized="1"
     inkscape:current-layer="layer1" />
  <defs
     id="defs219" />
  <g
     inkscape:label="Ebene 1"
     inkscape:groupmode="layer"
     id="layer1">
    <g
       id="g386"
       transform="matrix(0.26458333,0,0,0.26458333,-25.368476,-83.035149)">
      <path
         id="path5975"
         fill="#3b7a37"
         stroke="#000000"
         stroke-width="0.5"
         d="m 553.762,782.777 c -0.404,0 -0.803,0.266 -1.125,0.656 -0.434,0.527 -0.838,1.324 -1.125,2.156 -0.176,0.5 -0.164,0.562 -0.281,1.031 0.521,0.301 1.055,0.715 1.5,0.656 0.316,-0.039 0.885,0.129 1.312,0.188 0.035,-0.094 0.053,-0.086 0.094,-0.188 0.352,-0.941 0.697,-1.91 0.75,-2.719 0.047,-0.801 -0.176,-1.43 -0.75,-1.688 -0.147,-0.06 -0.246,-0.092 -0.375,-0.092 z m -8.25,3.844 -0.938,0.844 -0.469,1.219 0.656,1.219 -1.5,1.031 -2.344,3.469 -0.562,2.906 1.875,0.844 -0.281,4.406 c 0.756,0.012 1.904,-0.168 2.062,0.094 0.27,0.453 -0.188,1.625 -0.188,2.344 0,0.277 0.1,0.477 0.188,0.656 0.381,-0.129 0.779,-0.293 1.312,-0.375 0.504,-0.074 0.803,-0.062 1.031,0 -0.047,-0.047 -0.064,-0.129 -0.094,-0.188 0.111,0.172 0.27,0.305 0.469,0.375 0.082,0.148 -0.123,0.312 -0.281,0.469 l 0.281,4.219 -2.719,3.188 2.719,2.438 -0.656,2.625 -0.469,2.156 c 0.076,0.023 0.188,0 0.188,0 0,0 0.41,1.172 0.562,2.156 0.404,-0.18 0.744,-0.223 1.031,-0.281 l 0.094,-0.281 0.844,-1.969 c 0,0 0.322,0.469 1.594,0.375 1.266,-0.086 0.756,-1.598 1.031,-1.875 0.064,-0.062 0.281,-0.086 0.562,-0.094 0.826,-0.012 2.25,0.188 2.25,0.188 l 0.938,1.5 c 0.604,0.02 1.301,0.07 1.875,0.188 1.254,0.27 1.436,0.516 1.969,-0.281 0.527,-0.789 1.406,-2.25 1.406,-2.25 0,0 -0.316,-2.262 0.281,-2.531 0.592,-0.262 1.043,0.266 1.312,-0.469 0.088,-0.258 0.129,-0.707 0.188,-1.125 0.023,-0.168 0.059,-0.297 0.088,-0.469 0.059,-0.281 0.164,-0.539 0.281,-0.75 0.059,-0.094 0.111,-0.211 0.188,-0.281 0.088,-0.074 0.164,-0.152 0.281,-0.188 0.932,-0.262 1.406,3.094 1.406,3.094 l 1.5,-4.594 0.85,-2.719 c 0.703,-0.574 0.51,-0.445 0,-1.406 -0.516,-0.961 0.281,-1.875 0.281,-1.875 0,0 1.395,0.152 1.781,0.469 0.381,0.324 1.518,0.504 1.969,0.375 0.445,-0.129 0.633,-1.723 0.188,-2.812 -0.404,-0.977 -0.229,-2.945 -0.188,-3.375 l -1.312,-0.844 -1.031,1.219 -0.188,0.281 c 0,0 -1.828,-0.848 -3,-1.125 -1.178,-0.27 -2.344,1.125 -2.344,1.125 0,0 -0.047,-0.191 -0.094,-0.469 l -4.031,-1.781 -5.25,3.656 -0.281,-0.094 -0.281,0.375 c 0,0 -0.41,-0.004 -1.312,-0.188 -0.908,-0.18 -1.969,1.031 -1.969,1.031 l -1.969,-0.656 c 0,0 -0.135,0.082 -0.375,0.188 -0.311,0.219 -0.68,0.465 -1.031,0.375 -0.059,-0.012 -0.146,0.035 -0.188,0 -0.457,-0.363 -1.318,-0.586 -1.5,-1.219 -0.182,-0.633 0.797,-1.535 2.156,-2.625 1.354,-1.082 0.639,-1.902 0.188,-2.719 -0.229,-0.402 -0.264,-0.93 -0.188,-1.406 0.035,-0.234 0.082,-0.426 0.188,-0.656 0.1,-0.227 0.217,-0.449 0.375,-0.656 0.633,-0.812 0.65,-1.805 0.562,-2.438 -0.082,-0.551 0.926,-1.492 0.75,-1.969 -0.029,-0.062 -0.111,-0.141 -0.188,-0.188 -0.352,-0.199 -0.896,-0.867 -1.312,-1.5 -0.35,0.21 -0.795,-0.216 -1.217,-0.376 z m 3.75,37.5 c 0.516,1.191 0.557,2.223 -1.406,2.531 -0.75,0.117 -1.23,0.195 -1.781,0.281 -1.26,0.207 -2.156,0.223 -2.062,-0.844 0.035,-0.461 0.205,-0.82 0.375,-1.219 -0.475,0.176 -1.031,0.375 -1.031,0.375 0,0 -0.791,1.086 -1.875,1.594 -0.938,0.441 -2.156,0.676 -2.531,0.75 -0.744,-0.473 -1.207,-0.578 -1.688,-1.125 -0.293,-0.328 -0.568,-0.496 -0.844,-0.562 -0.281,-0.059 -0.557,-0.012 -0.844,0.094 -0.58,0.211 -1.266,0.656 -2.25,0.938 -1.746,0.5 -3.838,1.074 -4.406,1.219 l 0.094,0.188 -0.844,3.844 -0.656,2.625 v 0.094 l 3,3.188 0.844,-0.938 c 0,0 2.344,0.375 3.094,1.406 0.75,1.031 -0.094,2.906 2.812,3.188 2.906,0.282 5.719,1.406 5.719,1.406 l 0.469,1.125 h 1.219 l 0.469,-2.156 1.219,-0.375 c 0,0 0.75,2.719 2.906,3 2.156,0.281 3.188,1.5 1.781,1.688 -1.407,0.188 -1.031,0.469 -1.031,0.469 0,0 0.75,0.844 -0.375,1.781 -1.125,0.937 -0.844,1.406 0.656,1.406 1.5,0 0.75,-1.031 2.344,-2.344 0.381,-0.316 0.908,-0.855 1.406,-1.312 0.059,0.152 0.105,0.375 0.188,0.469 0.328,0.387 0.826,0.312 1.688,-0.188 0.545,-0.316 0.984,-0.625 1.781,-1.125 -0.428,-0.586 -0.709,-1.148 -0.938,-1.688 0.094,-0.094 0.34,-0.34 0.375,-0.375 -0.229,-0.027 -0.445,-0.094 -0.656,-0.188 -0.41,-0.18 -0.773,-0.539 -0.938,-1.219 -0.281,-1.125 1.125,-1.594 1.125,-3 0,-1.406 -0.75,-2.062 -0.938,-4.125 -0.188,-2.063 -0.656,-5.625 -0.656,-5.625 l 0.844,-1.688 -0.469,-2.25 -1.219,0.469 c 0,0 -0.387,-0.262 -1.219,-0.844 -0.422,-0.285 -0.809,-0.352 -1.125,-0.375 -0.857,-0.539 -1.829,-0.649 -2.626,-0.563 z" />
    </g>
  </g>
</svg>
