<?xml version="1.0" encoding="UTF-8" standalone="no"?>
<!-- Created with Inkscape (http://www.inkscape.org/) -->

<svg
   width="210mm"
   height="297mm"
   viewBox="0 0 210 297"
   version="1.1"
   id="svg1481"
   inkscape:version="1.1.1 (3bf5ae0d25, 2021-09-20)"
   sodipodi:docname="holstein.svg"
   xmlns:inkscape="http://www.inkscape.org/namespaces/inkscape"
   xmlns:sodipodi="http://sodipodi.sourceforge.net/DTD/sodipodi-0.dtd"
   xmlns="http://www.w3.org/2000/svg"
   xmlns:svg="http://www.w3.org/2000/svg">
  <sodipodi:namedview
     id="namedview1483"
     pagecolor="#ffffff"
     bordercolor="#666666"
     borderopacity="1.0"
     inkscape:pageshadow="2"
     inkscape:pageopacity="0.0"
     inkscape:pagecheckerboard="0"
     inkscape:document-units="mm"
     showgrid="false"
     inkscape:zoom="0.7500982"
     inkscape:cx="397.28131"
     inkscape:cy="561.92642"
     inkscape:window-width="1920"
     inkscape:window-height="1027"
     inkscape:window-x="1912"
     inkscape:window-y="-8"
     inkscape:window-maximized="1"
     inkscape:current-layer="layer1" />
  <defs
     id="defs1478" />
  <g
     inkscape:label="Ebene 1"
     inkscape:groupmode="layer"
     id="layer1">
    <path
       id="path4407"
       fill="#9cdf5f"
       stroke="#000000"
       stroke-width="0.132292"
       d="m 44.967451,94.003487 c -0.431006,0.09816 -0.508529,0.736864 -0.446616,0.843491 0.06985,0.123032 0.127,0.07144 0.198437,0.12409 0.331788,-0.121973 0.339461,-0.151871 0.322527,0.07435 -0.01852,0.228335 0.125677,0.516731 0.372004,0.322527 0.245005,-0.192352 0.38444,-0.193146 0.595313,-0.12409 0.209285,0.07038 0.435504,0.182827 0.173567,-0.272785 -0.263525,-0.455877 -0.402961,-0.878417 -1.017059,-0.967317 -0.07726,-0.01058 -0.137848,-0.01376 -0.198173,-2.64e-4 z m -4.390495,1.016793 c -0.522553,0.07435 -1.04193,1.215496 -1.04193,1.215496 0,0 0.07144,-0.236802 0.148696,-0.496093 -0.0635,0.05159 -0.20611,0.15822 -0.768879,0.396875 -0.882121,0.37412 -0.615421,-0.01032 -1.835679,0.124089 -1.219994,0.136525 -0.91784,1.017058 -0.91784,1.017058 l -0.54557,0.322528 -0.02487,-0.595313 -0.843492,-0.148696 -0.09922,-0.595312 -0.545571,0.173566 -1.041929,-0.570441 -0.347133,0.347133 c 0.04339,0.0093 0.09922,-0.0011 0.12409,0.02487 -0.541073,0.63156 -0.909903,0.709083 -0.818621,1.736196 0.124089,0.07329 0.207698,0.07646 0.322527,0.04974 0.227806,-0.05265 0.302419,0.129117 0.496094,0.496094 0.192352,0.369094 0.102393,0.510646 -0.24818,0.421746 -0.317764,-0.07858 -0.359568,-0.106363 -0.520964,0 0.08361,0.336814 0.204523,0.637646 0.322527,0.868098 -0.02328,0.155046 0.0016,0.275966 0.04974,0.372006 l 0.471222,0.29766 c 0.471223,0.09 1.10834,-0.0498 1.240367,-0.0498 1.351756,0.14473 1.001448,1.38483 1.860286,1.71159 0.110066,0.26035 0.106891,0.51171 0.272785,0.76888 0.0093,0.0175 0.01243,0.0341 0.02487,0.0497 0.0032,0.008 -0.0048,0.0185 0,0.0249 0.161131,0.38126 0.353483,0.69982 0.570441,0.76887 0.575205,0.18601 0.869686,0.29766 1.140884,0.29766 0.165893,0 0.26035,-0.091 0.297656,-0.27278 0.0077,-0.0402 0.02011,-0.0722 0.02487,-0.12409 l 0.198437,-0.99219 0.545571,0.14869 0.223308,1.06654 0.372005,0.1487 c 0.130175,0.11059 0.173566,0.13652 0.271198,0.20452 0.200025,-0.11166 0.523875,-0.2667 0.54557,-0.42783 0.02778,-0.21484 0.558007,-0.48684 0.817034,-0.47228 0.257439,0.0135 0.457464,-0.20162 0.229393,-0.31618 -0.229393,-0.11483 -0.34581,-0.34317 -0.3302,-0.50139 0.01402,-0.15822 0.243417,-0.25849 0.243417,-0.25849 l -0.0852,-0.15717 -0.171979,-0.0156 0.01402,-0.14261 0.272785,-0.24289 c 0,0 0.200025,0.18601 0.300832,0.0278 0.07435,-0.11774 0.207698,-0.29449 0.299243,-0.4154 l -0.198437,-0.20981 0.520965,-0.47123 -0.12409,-0.32252 c -0.02487,-0.0124 -0.05424,-0.009 -0.07435,-0.0249 -0.254265,-0.186 -0.09922,-0.421743 -0.09922,-0.421743 l 0.942446,-1.041929 0.223308,0.09922 c 0.0635,-0.137584 0.162719,-0.275961 0.272786,-0.421746 1.528498,-0.03202 0.951971,-0.697706 1.46341,-1.140883 -0.03096,-1.078971 -0.173566,-1.485107 0.12409,-1.910027 -0.308504,0.02699 -0.369094,0.200554 -0.719402,0.07435 -0.358246,-0.125147 -1.182952,0.725488 -1.289844,0.76888 -0.548217,-0.164307 -2.107671,-1.338527 -2.554287,-1.26418 z m 0.868097,2.108465 c 0,0 0.347134,0.297656 0.347134,0.79375 0,0.06191 0.0032,0.101335 0,0.148696 0.0418,0.07646 0.06059,0.155046 0.09922,0.223308 0.2032,0.372004 0.04498,0.352425 -0.04974,0.471223 -0.09604,0.119856 -0.694531,-0.04974 -0.694531,-0.04974 L 40.99844,98.467803 c -0.694531,0 -0.595313,-0.496093 -0.595313,-0.496093 0,0 0.496094,0.04974 0.496094,-0.148696 v -0.595313 z" />
  </g>
</svg>
