<?xml version="1.0" encoding="UTF-8" standalone="no"?>
<!-- Created with Inkscape (http://www.inkscape.org/) -->

<svg
   width="210mm"
   height="297mm"
   viewBox="0 0 210 297"
   version="1.1"
   id="svg4110"
   inkscape:version="1.1.1 (3bf5ae0d25, 2021-09-20)"
   sodipodi:docname="italy.svg"
   xmlns:inkscape="http://www.inkscape.org/namespaces/inkscape"
   xmlns:sodipodi="http://sodipodi.sourceforge.net/DTD/sodipodi-0.dtd"
   xmlns="http://www.w3.org/2000/svg"
   xmlns:svg="http://www.w3.org/2000/svg">
  <sodipodi:namedview
     id="namedview4112"
     pagecolor="#ffffff"
     bordercolor="#666666"
     borderopacity="1.0"
     inkscape:pageshadow="2"
     inkscape:pageopacity="0.0"
     inkscape:pagecheckerboard="0"
     inkscape:document-units="mm"
     showgrid="false"
     inkscape:zoom="0.7500982"
     inkscape:cx="397.28131"
     inkscape:cy="560.59326"
     inkscape:window-width="1920"
     inkscape:window-height="1027"
     inkscape:window-x="1912"
     inkscape:window-y="-8"
     inkscape:window-maximized="1"
     inkscape:current-layer="layer1" />
  <defs
     id="defs4107" />
  <g
     inkscape:label="Ebene 1"
     inkscape:groupmode="layer"
     id="layer1">
    <g
       id="g374"
       transform="matrix(0.26457242,0,0,0.26459335,-54.412152,-150.03304)">
      <path
         id="path4488"
         fill="#9ae0ad"
         stroke="#000000"
         stroke-width="0.5"
         d="m 512.793,1055.777 c 4.219,-0.562 10.682,-0.273 14.344,-3.938 2.25,-1.969 3.65,-6.469 5.625,-8.438 0.844,-0.844 3.088,-0.562 3.938,-1.688 0.844,-0.844 -0.006,-2.531 0.562,-3.656 0.562,-1.125 7.869,-5.344 9,-5.344 2.812,0 8.713,2.812 10.125,4.5 0.281,0.562 1.119,0.844 1.688,0.562 0.562,-0.281 -0.281,-1.688 0.281,-1.688 2.25,0 9.275,7.312 10.125,7.875 1.969,1.406 3.65,3.094 5.906,3.656 0.844,0.281 -0.85,-2.25 0,-2.25 1.02,0 1.764,0.891 2.625,1.594 0.211,0.176 0.416,0.336 0.656,0.469 0.123,0.078 0.24,0.137 0.375,0.188 0.281,0.281 0.557,-0.562 0.844,-0.562 0.451,0.152 1.002,0.328 1.5,0.562 0.234,0.113 0.457,0.211 0.656,0.375 0.152,0.137 0.258,0.301 0.375,0.469 0.135,0.129 0.24,0.246 0.375,0.375 0.404,0.406 0.797,0.82 1.125,1.219 0.48,0.594 0.873,1.168 1.219,1.781 v 0.094 c 0.504,0.922 0.838,1.859 1.125,2.812 1.471,4.945 0.785,10.379 4.875,16.219 2.953,4.57 3.844,6.652 3.188,11.719 -0.035,0.242 -0.059,0.406 -0.094,0.656 0,1.688 -2.256,4.219 -0.844,4.781 2.25,0.844 5.057,-0.844 6.75,0.562 1.406,0.844 -1.131,3.094 -0.281,4.219 0.141,0.211 0.281,0.422 0.469,0.562 1.307,0.984 3.639,0.422 4.875,1.406 1.125,0.844 1.119,2.531 1.969,3.656 0.562,0.562 1.688,0 2.25,0.562 0.844,0.844 4.219,4.5 2.531,6.75 -0.562,0.562 -2.818,1.406 -1.969,1.688 3.223,1.289 5.795,1.145 8.344,1.312 0.029,-0.508 -0.023,-0.809 0.094,-1.406 0.053,-0.297 0.129,-0.59 0.217,-0.867 0.176,-0.543 0.416,-0.996 0.768,-1.223 0.17,-0.113 0.375,-0.176 0.609,-0.16 0.926,0.07 1.488,0.352 1.688,0.281 0.193,-0.062 0.076,-0.48 -0.188,-1.875 -0.27,-1.387 -0.357,-2.441 -0.188,-3.094 0.164,-0.645 0.551,-0.867 1.219,-0.469 0.662,0.398 1.846,0.242 2.906,-0.094 1.061,-0.328 1.98,-0.82 2.25,-1.219 0.527,-0.797 0.059,-1.352 -0.469,-2.812 -0.27,-0.727 0.416,-1.176 1.031,-1.594 0.609,-0.41 1.102,-0.777 0.375,-1.312 -0.732,-0.527 -1.189,-0.73 -1.441,-0.977 -0.258,-0.246 -0.316,-0.539 -0.246,-1.273 0.018,-0.18 0.047,-0.328 0.105,-0.438 0.047,-0.113 0.117,-0.188 0.199,-0.242 0.164,-0.105 0.381,-0.109 0.633,-0.07 0.492,0.082 1.09,0.34 1.688,0.469 0.293,0.07 0.551,0.043 0.768,-0.07 0.217,-0.109 0.393,-0.305 0.545,-0.586 0.141,-0.27 0.264,-0.633 0.357,-1.078 0.182,-0.035 0.369,0 0.551,-0.211 1.5,-1.691 3.135,-2.945 4.066,-3.012 0.926,-0.062 5.859,0.387 6.568,0.609 0.703,0.223 -0.486,0.738 0.223,0.961 0.703,0.223 -0.1,2.719 -0.387,3.488 -0.293,0.766 -0.322,1.539 0.287,1.957 0.604,0.414 -0.445,0.516 -1.342,0.352 -0.451,-0.078 -0.287,0.273 -0.146,0.645 0.135,0.375 0.24,0.762 -0.334,0.762 -0.58,0 -0.873,0.227 -0.92,0.527 -0.053,0.297 0.135,0.672 0.504,0.977 0.732,0.609 1.02,1.312 0.445,1.73 -0.58,0.414 0.322,0.93 0.258,1.504 -0.064,0.582 1.377,0.676 1.154,1.508 -0.229,0.832 2.525,2.559 2.848,1.887 0.316,-0.676 1.348,-0.348 1.348,0.227 0,0.289 -0.164,0.832 -0.199,1.277 -0.041,0.445 0.053,0.785 0.551,0.676 0.492,-0.113 0.844,-0.125 0.99,-0.02 0.141,0.113 0.082,0.34 -0.252,0.723 -0.674,0.766 -0.229,1.152 0.316,2.336 0.539,1.184 0.51,1.895 1.312,1.637 0.797,-0.258 2.59,0.738 3.299,1.57 0.703,0.832 0.768,1.629 -0.094,1.82 -0.867,0.195 0.604,1.895 1.377,1.73 0.768,-0.16 1.822,-0.289 2.238,-0.961 0.416,-0.676 0.926,-0.41 0.896,0.035 -0.035,0.449 2.109,0.895 2.273,1.727 0.158,0.832 0.896,1.191 1.254,0.676 0.352,-0.512 1.336,0.766 1.564,0.156 0.223,-0.609 0.193,-1.305 1.348,-0.926 0.346,0.117 1.014,0.277 1.787,0.48 -0.234,0.586 -0.352,1.184 0.264,1.793 1.406,1.406 2.719,2.812 5.531,3.656 1.406,0.422 2.473,1.582 3.562,3 1.089,1.418 2.203,3.094 3.656,4.5 1.453,1.406 2.004,2.566 2.156,3.469 0.152,0.903 -0.094,1.547 -0.281,2.062 -0.187,0.515 -0.07,1.078 -0.094,1.688 -0.024,0.61 -0.188,1.266 -0.938,1.781 -1.5,1.031 -0.562,3.188 -1.969,3.844 -1.407,0.656 -1.688,0.75 -3,0.469 -0.656,-0.141 -1.523,-0.059 -2.156,0.188 -0.633,0.247 -1.031,0.656 -0.938,1.219 0.093,0.563 0.691,0.738 1.312,0.938 0.621,0.2 1.266,0.422 1.312,1.219 0.006,0.117 0.076,0.48 0.094,0.656 0.094,0.035 0.188,0.16 0.281,0.188 2.121,0.645 3.955,2.738 6,3.188 2.531,0.562 -3.381,-4.781 4.219,-1.969 2.812,1.125 8.719,10.125 9.844,13.5 0.281,0.844 -0.562,2.25 0.281,2.531 10.975,1.406 1.119,-6.191 11.25,1.125 2.812,1.969 -3.375,6.469 -2.531,6.75 2.027,0.727 3.621,0.34 4.969,-0.375 1.635,0.629 3.48,0.082 4.781,-1.219 1.266,-1.266 2.877,-2.172 3.75,-1.781 0.141,0.066 0.27,0.137 0.375,0.281 0.029,0.031 -0.035,0.16 0,0.188 0.059,0.125 0.152,0.211 0.188,0.375 0.375,1.875 2.062,5.062 3.375,6.75 0.656,0.844 1.008,1.57 1.125,2.25 -0.639,1.578 -2.221,3.055 -1.781,4.5 -0.199,0.758 -0.076,1.438 0.844,1.688 2.062,0.562 1.688,1.5 5.25,1.688 3.562,0.188 2.625,2.625 3.938,2.625 1.313,0 -2.25,1.875 0.562,2.062 2.812,0.187 2.625,2.25 5.25,0.375 2.625,-1.875 2.25,-2.812 5.062,-1.875 2.812,0.937 3.75,4.5 4.875,7.125 0.516,1.203 0.656,1.934 1.125,2.531 0.158,2.648 -1.928,1.523 1.875,7.219 0.562,0.562 1.688,0.562 1.969,1.125 1.406,1.688 2.531,3.656 3.375,5.906 1.688,3.656 0.557,8.438 2.812,11.812 2.25,3.094 7.875,3.938 3.094,9.562 -1.975,2.812 -8.719,0 -9.844,5.062 -0.281,1.688 2.531,2.531 2.812,4.219 0.281,1.406 -0.844,2.531 -1.125,3.938 -0.281,1.407 -0.281,3.094 -1.125,4.219 -1.412,1.406 -4.219,1.125 -5.344,2.812 -1.312,2.145 0.674,2.164 -0.281,5.062 -0.393,1.184 0.779,1.461 0.75,3.375 -0.029,1.543 2.391,2.883 3.094,3.094 11.936,3.348 10.846,-6.023 14.344,-12.562 0.557,-0.707 1.078,-1.527 1.594,-2.344 0.246,-0.273 0.463,-0.59 0.75,-0.844 0.674,-0.539 1.025,-1.16 1.219,-1.875 0.006,-0.027 -0.006,-0.062 0,-0.094 0.891,-1.129 1.922,-2.125 3.281,-2.719 4.312,-1.875 2.438,-1.312 4.125,-3.938 1.687,-2.626 -1.5,-5.812 -2.812,-9.75 -1.312,-3.938 2.438,-5.812 5.062,-8.062 2.624,-2.25 4.875,-2.25 6.375,0 1.5,2.25 3.75,-1.688 4.875,-3.188 1.125,-1.5 1.125,-3.562 -1.5,-5.062 -2.625,-1.5 1.688,-5.25 -0.75,-7.312 -2.438,-2.062 0.562,-3.188 -1.125,-4.875 -1.687,-1.687 -2.25,-1.875 -4.5,-1.312 -2.25,0.563 -1.875,-0.938 -5.25,-0.75 -3.375,0.188 -5.25,-1.688 -7.312,-4.312 -1.6,-2.027 -1.729,-2.852 -0.75,-4.5 1.354,-0.953 2.619,-2.051 3,-3.844 0.281,-1.125 -1.125,-1.969 -1.125,-2.812 0,-0.562 7.031,-14.719 7.594,-15.562 5.344,-5.625 8.432,0.844 14.062,2.812 4.219,1.406 12.369,-1.969 14.906,1.406 4.5,5.914 0.838,11.062 9.562,14.438 1.688,0.844 3.65,1.688 4.781,0.844 0.627,-0.309 0.668,-2.18 0.656,-4.031 -0.562,-2.414 0.24,-4.336 0.75,-5.25 0.938,-1.688 -0.562,-3.75 -1.688,-4.688 -1.126,-0.938 0.562,-3.188 -0.75,-4.312 l -0.844,-0.75 c -0.398,-0.375 -0.68,-0.812 -0.844,-1.5 -3.48,-2.266 -7.389,-3.18 -9.375,-6 -0.844,-0.844 0.281,-2.812 -0.844,-3.656 -1.482,-1.184 -4.717,-2.066 -7.969,-2.906 -0.328,-0.309 -0.609,-0.66 -0.938,-0.938 -2.062,-1.688 -4.125,-2.25 -8.062,-3 -3.937,-0.75 0.188,-1.688 -3.562,-3.188 -3.75,-1.5 -5.812,-5.25 -8.25,-5.25 -2.438,0 -1.875,-1.312 -7.125,-1.875 -5.25,-0.563 -6,-1.875 -9.75,-2.625 -3.75,-0.75 -9.938,-4.688 -12.938,-6 -0.826,-0.363 -1.441,-0.914 -1.875,-1.594 -0.152,-0.016 -0.316,-0.035 -0.375,-0.094 -0.75,-0.656 -0.75,-1.688 -0.469,-3.844 0.281,-2.156 3.75,-3.281 4.5,-3.75 0.674,-0.422 1.248,-2.945 1.5,-5.156 -0.182,-0.262 -0.41,-0.562 -0.656,-0.844 -0.498,-0.551 -1.09,-0.785 -1.688,-0.938 -0.07,-0.016 -0.123,-0.074 -0.188,-0.094 -0.105,-0.051 -0.17,-0.121 -0.281,-0.188 -0.797,-0.422 -1.641,-0.668 -2.438,-0.656 -0.797,0.012 -1.547,0.281 -2.344,0.844 -0.252,0.176 -0.562,0.258 -0.844,0.375 -0.223,0.07 -0.217,0.117 -0.469,0.188 -0.621,0.184 -1.09,0.27 -1.594,0.375 -0.205,0.047 -0.469,0.066 -0.656,0.094 -0.123,0.023 -0.252,0.078 -0.375,0.094 -2.092,0.316 -3.316,0.043 -5.25,-0.375 -2.625,-0.562 -5.812,1.5 -8.625,1.5 -1.172,0 -2.027,0.02 -2.812,0 -0.621,-0.293 -1.184,-0.414 -1.781,-0.375 -0.135,0.012 -0.328,0.078 -0.469,0.094 -0.258,-0.074 -0.486,-0.164 -0.75,-0.281 -1.688,-0.75 -0.75,-2.812 -3.75,-3 -2.525,-0.156 -3.246,-2.664 -5.625,-3.469 -0.064,-0.141 -0.146,-0.281 -0.281,-0.375 -1.406,-1.406 -3.938,-1.688 -5.625,-2.812 -5.068,-3.938 -12.938,-9.367 -16.031,-15.281 -0.041,-0.07 -0.152,-0.203 -0.188,-0.281 0,-0.035 -0.006,-0.059 0,-0.094 0.246,-2.531 -0.023,-4.281 -0.562,-6 -0.551,-1.738 -1.389,-3.422 -2.25,-5.812 -1.219,-3.363 -4.131,-9.473 -6.094,-13.594 -0.07,-0.168 -0.123,-0.305 -0.188,-0.469 -0.609,-1.477 -1.207,-2.746 -1.781,-3.75 -0.486,-0.844 -0.955,-1.574 -1.406,-1.969 -3.662,-3.094 -0.984,1.332 -4.969,-0.844 -3.896,-2.121 -14.039,-11.957 -16.312,-12.094 -0.252,-0.012 -0.574,-0.281 -0.82,-0.32 -2.355,-0.352 -4.787,-1.695 -10.523,-8.961 -0.844,-1.688 -4.5,-16.875 -3.938,-18.281 0.135,-0.332 0.281,-0.578 0.469,-0.844 -0.199,-0.988 -0.457,-0.984 -0.188,-2.906 0.117,-0.879 0.422,-1.055 0.844,-1.125 -0.24,-0.555 -0.463,-1.07 -0.68,-1.516 -0.223,-0.445 -0.428,-0.828 -0.633,-1.109 -0.75,-1.031 -1.781,-0.938 -3.75,-1.594 -1.969,-0.656 -2.438,-0.656 -4.219,-0.469 -1.781,0.187 -3.562,0 -4.406,0.656 -0.422,0.328 -0.492,0.492 -0.785,0.715 -0.293,0.223 -0.809,0.504 -2.121,1.066 -0.656,0.281 -1.178,0.371 -1.623,0.34 -0.451,-0.023 -0.826,-0.168 -1.189,-0.34 -0.727,-0.34 -1.406,-0.797 -2.438,-0.562 -0.516,0.117 -0.838,0.16 -1.055,0.137 -0.223,-0.02 -0.34,-0.105 -0.445,-0.23 -0.211,-0.246 -0.375,-0.656 -1.125,-1.219 -0.844,-0.625 -1.658,-0.832 -2.531,-0.938 0.48,0.727 -1.031,0.773 -1.219,1.688 -0.082,-0.016 -0.158,-0.027 -0.234,-0.051 -0.498,-0.137 -0.996,-0.266 -1.482,-0.324 -0.234,-0.027 -0.469,-0.035 -0.691,-0.027 -0.24,0.012 -0.469,0.047 -0.686,0.121 -1.16,0.398 -1.664,0.469 -1.998,0.383 -0.34,-0.09 -0.504,-0.336 -1.002,-0.57 -0.773,-0.363 -1.471,-0.023 -2.625,0.281 -0.334,0.09 -0.223,-0.012 -0.75,0.094 -1.195,0.234 -1.559,0.09 -1.781,-0.188 -0.229,-0.273 -0.34,-0.59 -1.031,-0.656 -0.738,-0.07 -1.459,-0.379 -2.438,-0.719 0.234,-1.719 0.662,-3.609 0.264,-5.543 -0.844,-0.996 -0.768,-1.918 -0.691,-3.91 0.077,-1.992 0.076,-2.758 0,-4.523 -0.041,-0.879 0.381,-1.562 0.697,-2.359 0.316,-0.797 0.527,-1.699 0.07,-3 -0.463,-1.301 -0.293,-2.07 0.152,-2.809 0.439,-0.738 1.148,-1.441 1.764,-2.629 0.756,-1.473 0.99,-2.484 1.418,-3.793 -1.148,0.289 -2.186,0.48 -2.361,1.535 -0.258,1.535 -1.5,2.613 -2.906,3 -1.412,0.387 -0.193,-2.746 -1.219,-4.031 -1.025,-1.281 0.504,-3.363 -1.031,-5.156 -1.541,-1.793 -0.621,-3.332 1.688,-6.281 1.635,-2.09 0.533,-6.426 -0.188,-8.812 0.141,0.02 0.334,0 0.469,0 0.199,0 0.393,-0.027 0.562,-0.094 0.17,-0.062 0.34,-0.129 0.469,-0.281 1.084,-1.266 1.494,-2.191 -1.219,-3.281 -1.998,-0.797 -2.18,-1.828 -1.969,-3.375 l 0.656,0.188 h 0.188 l 0.094,-0.281 c -1.512,-0.473 -2.877,-0.965 -3.938,-1.5 -3.656,-1.828 -3.164,-2.965 -3.656,-3 -0.164,-0.012 -0.469,0.141 -1.031,0.375 -2.25,0.938 -2.812,0 -4.125,3.188 -1.313,3.188 3.75,3.562 2.438,4.875 -1.312,1.313 -0.562,1.312 -0.562,3.75 0,2.438 -2.625,2.062 -3.188,-0.562 -0.563,-2.624 -1.312,-3.188 -3.375,-1.688 -2.063,1.5 -3,-1.688 -4.312,0.188 -1.312,1.876 0,2.438 -3.75,1.688 -3.75,-0.75 -2.625,-7.5 -3.938,-6.375 -1.313,1.125 -0.375,-3.562 -2.438,-1.5 -2.063,2.062 -1.125,5.812 -1.875,8.25 -0.75,2.438 -5.062,7.312 -5.062,7.312 l 0.094,0.281 c -0.938,1.297 -1.594,2.762 -1.594,4.688 0,2.812 5.625,1.688 0.844,5.344 -1.693,1.406 -2.25,-3.375 -3.375,-4.781 -0.85,-0.844 -2.812,-0.281 -3.094,-1.406 -0.287,-1.125 1.682,-1.969 1.969,-3.094 0,-0.238 -0.24,-0.27 -0.375,-0.469 -0.188,-0.262 -0.311,-0.656 -0.469,-0.656 -3.1,-1.125 -7.594,-1.961 -9.562,-5.625 -0.287,-1.125 0.562,-2.25 0.562,-3.094 0,-1.688 0.275,-3.375 -0.281,-5.062 -0.07,-0.07 -0.182,-0.109 -0.281,-0.094 -0.305,0.055 -0.703,0.445 -1.125,0.656 -1.412,1.125 -2.531,2.25 -3.938,3.375 -1.412,1.125 -3.656,1.688 -4.219,3.375 -0.281,1.125 2.25,1.688 1.969,3.094 0,0.992 -3.779,5.203 -6.188,7.688 -1.072,1.109 -1.98,1.969 -2.062,1.969 -2.537,0 -4.5,-3.375 -7.031,-2.812 -3.662,0.844 -11.25,6.477 -14.062,1.406 -12.949,7.602 -5.631,4.219 -1.688,10.969 0.562,1.125 -0.568,3.094 0.281,4.219 0.844,1.969 3.65,2.25 4.5,3.938 1.406,2.531 -7.594,9.844 -9,10.125 -0.85,0.281 -1.406,-1.406 -2.25,-1.406 -1.412,0.281 -3.938,0.281 -3.938,1.688 -0.568,4.508 8.713,8.156 10.125,10.406 0.844,1.688 1.125,3.938 1.125,6.188 -0.281,0.844 -2.812,-0.562 -3.094,0.281 -0.287,0.562 0.562,1.125 0.281,1.406 -0.85,1.406 -2.25,2.25 -3.375,3.375 -0.85,1.688 1.963,2.531 2.25,3.375 0,0.562 -1.406,0.562 -1.406,1.125 -0.287,3.945 7.025,9.281 10.125,10.125 1.688,0.562 3.65,-0.281 5.344,-0.281 1.688,-0.281 3.65,-1.406 5.062,-0.562 4.219,3.102 -5.35,9.562 -3.938,14.625 h 0.1 z m 133.125,-7.125 c 1.887,0.102 1.752,4.066 -0.264,5.098 -0.943,0.48 -2.297,0.328 -4.049,-1.16 0.035,-0.035 0.053,-0.082 0.094,-0.121 1.031,-1.133 1.055,-2.609 2.719,-3.348 0.569,-0.379 1.102,-0.484 1.5,-0.469 z m -88.125,101.344 c -2.537,3.102 -18,15.75 -22.219,15.469 -5.068,0 -7.031,-5.906 -7.312,-5.625 -0.85,0.844 0.562,1.969 0.281,3.094 -0.287,1.969 -2.25,3.375 -2.531,5.344 -0.85,14.074 1.4,1.969 4.781,5.625 1.688,1.969 5.906,15.844 4.781,18.656 -0.568,1.125 -2.25,0.844 -2.812,1.688 -0.287,0.281 0.844,0.281 0.844,0.562 0,1.406 -1.412,3.094 -0.562,4.5 0.844,1.125 3.932,-0.281 4.219,1.125 0.562,1.688 -2.531,2.531 -2.812,4.219 -0.568,1.969 0.562,3.656 0.275,5.625 -0.844,4.789 -4.781,8.438 -3.094,14.062 0.568,1.688 3.375,2.812 3.375,4.781 0.287,-0.07 0.562,-0.109 0.844,0 5.35,2.25 -1.412,12.664 9.562,7.594 7.881,-3.656 3.375,-2.523 5.062,-9 0.287,-1.406 1.688,-1.969 1.969,-3.094 0,-0.844 -2.812,-1.969 -1.969,-1.969 4.787,-0.281 9.844,3.656 13.781,5.062 0.568,0.281 0.281,1.688 0.562,1.125 5.35,-9.285 4.219,-22.211 5.062,-31.5 0,-1.406 1.406,-2.531 1.406,-3.656 -0.562,-3.094 -4.781,-3.086 -3.375,-6.75 1.412,-3.938 6.475,-5.617 6.188,-10.406 -0.562,-13.504 -3.088,0.758 -4.781,-9.375 0,-0.844 1.975,-1.125 1.406,-1.688 -1.406,-1.688 -5.338,-1.125 -5.906,-3.094 -0.562,-1.969 4.219,-1.406 4.5,-3.094 1.693,-6.188 -10.682,-5.336 -11.531,-9.281 h 0.006 z m 129.656,15.094 c -1.875,1.688 0.188,2.625 3.188,2.438 3,-0.187 -1.688,-2.626 -3.188,-2.438 z m 32.063,77.812 c -0.896,0.09 -1.418,0.57 -0.469,1.312 1.189,0.734 2.824,-0.953 1.5,-1.219 -0.334,-0.061 -0.738,-0.12 -1.031,-0.093 z m 2.719,2.25 c -0.48,0.047 -0.797,0.305 -0.844,0.75 -0.598,2.121 0.809,1.066 1.406,1.594 0.592,0.535 0.727,-2.113 0,-2.25 -0.187,-0.027 -0.404,-0.105 -0.562,-0.094 z m 0.937,3.75 c -0.258,0.117 -0.34,0.477 0.094,0.938 0.99,0.797 2.186,0.465 1.125,-0.469 -0.533,-0.461 -0.967,-0.586 -1.219,-0.469 z m 17.156,3.282 c -1.43,0.012 -3.609,2.719 -7.406,3.562 -0.85,0.281 -0.094,-2.719 -0.938,-1.875 -2.256,2.25 1.371,0.957 -3.656,5.344 -2.561,0.418 -0.287,-1.254 -4.125,-0.75 -1.201,-1.945 -1.734,-1.762 -6.281,0.188 -3.662,1.969 0.053,3.34 -9.562,5.344 -3.41,0.711 -9.932,1.461 -11.25,0.281 0,0 -7.219,3.188 -7.5,3.188 -1.975,0 -4.688,-1.125 -6.375,-2.25 -0.568,-0.281 -0.562,-2.344 -1.406,-2.625 -1.939,0.961 -1.301,1.488 -3.75,1.125 -1.623,-4.688 -2.092,-2.977 -2.531,-4.5 -3.867,2.973 -2.842,1.367 -5.719,1.219 -2.344,-0.117 1.541,4.367 -5.625,6.656 -2.537,0.281 -4.125,-4.219 -4.688,-5.062 -2.982,-1.934 1.852,2.836 -3,2.438 1.131,2.656 -1.969,1.031 -2.812,2.156 -0.85,1.125 -0.896,2.754 -1.688,4.406 -0.996,2.105 0.803,2.824 -0.469,4.594 -1.26,0.781 -1.025,0.844 -0.094,1.969 1.383,0.961 0.381,2.297 1.781,3.281 1.752,1.242 2.643,-0.543 4.219,3.375 2.531,1.125 5.338,-1.406 7.875,-0.844 3.094,0.844 0.82,0.645 3.281,2.438 2.455,1.793 2.361,-2.379 12.469,6.562 1.406,0.562 2.807,-0.281 3.938,0.562 1.406,0.562 3.744,3.281 4.875,4.125 3.029,0.562 4.512,0.891 5.625,1.969 1.646,1.988 5.244,-2.438 10.312,0.656 7.301,4.969 4.342,6.773 7.125,9.375 8.338,0.945 4.301,4.148 12,1.594 5.344,-0.281 5.449,2.457 7.406,1.875 1.57,-0.461 -0.938,-3 -0.656,-4.688 0.281,-1.406 0.557,-3.094 1.406,-4.5 0.844,-1.406 2.244,-2.25 3.656,-3.094 0.562,-0.562 1.688,-0.281 1.406,-0.844 -0.85,-2.25 -2.027,0.289 -2.719,-3.094 -1.014,-1.172 -2.25,-2.906 -2.25,-3.469 0.844,-1.969 0.088,-0.562 1.5,-1.406 0.756,-1.984 -3,-0.75 -4.125,-2.438 -3.135,-9.391 2.139,-8.043 1.688,-16.031 5.912,-9.707 9.416,-18.891 11.25,-19.875 -1.13,-0.773 -1.763,-0.144 -3.187,-0.937 z m -93,16.125 c -0.018,0.055 0.129,0.289 0.375,0.656 -0.134,-0.496 -0.351,-0.738 -0.375,-0.656 z m 0.375,0.656 c 0.047,0.184 0.012,0.336 0,0.469 l 0.562,0.375 c -0.286,-0.356 -0.421,-0.621 -0.562,-0.844 z m 0,0.469 -0.938,-0.656 c 0.27,1.367 0.868,1.277 0.938,0.656 z m -0.75,1.687 c -0.996,0.27 -1.324,0.773 -0.656,1.5 1.061,0.664 0.82,-0.555 1.688,-0.094 0.861,0.465 -0.041,-1.668 -1.032,-1.406 z" />
    </g>
  </g>
</svg>
