<?xml version="1.0" encoding="UTF-8" standalone="no"?>
<!-- Created with Inkscape (http://www.inkscape.org/) -->

<svg
   width="210mm"
   height="297mm"
   viewBox="0 0 210 297"
   version="1.1"
   id="svg929"
   inkscape:version="1.1.1 (3bf5ae0d25, 2021-09-20)"
   sodipodi:docname="luxembourg.svg"
   xmlns:inkscape="http://www.inkscape.org/namespaces/inkscape"
   xmlns:sodipodi="http://sodipodi.sourceforge.net/DTD/sodipodi-0.dtd"
   xmlns="http://www.w3.org/2000/svg"
   xmlns:svg="http://www.w3.org/2000/svg">
  <sodipodi:namedview
     id="namedview931"
     pagecolor="#ffffff"
     bordercolor="#666666"
     borderopacity="1.0"
     inkscape:pageshadow="2"
     inkscape:pageopacity="0.0"
     inkscape:pagecheckerboard="0"
     inkscape:document-units="mm"
     showgrid="false"
     inkscape:zoom="0.7500982"
     inkscape:cx="397.28131"
     inkscape:cy="561.92642"
     inkscape:window-width="1920"
     inkscape:window-height="1027"
     inkscape:window-x="1912"
     inkscape:window-y="-8"
     inkscape:window-maximized="1"
     inkscape:current-layer="layer1" />
  <defs
     id="defs926" />
  <g
     inkscape:label="Ebene 1"
     inkscape:groupmode="layer"
     id="layer1">
    <path
       id="path3299"
       fill="#48c71e"
       stroke="#000000"
       stroke-width="0.132292"
       d="m 153.79417,141.73277 -0.0249,0.0249 c -0.40613,0.0278 -0.86519,0.5117 -1.24037,1.06653 -0.37676,0.55695 -0.67601,1.18745 -0.79375,1.51315 -0.11324,0.33788 0.39079,1.2372 0.71941,2.03412 0.16272,0.39899 0.29607,0.77814 0.27278,1.04193 -0.0249,0.26352 -0.2077,0.43418 -0.62018,0.39687 l -0.0497,0.24818 c 0.46037,0.45879 1.09617,1.06045 1.56263,0.76888 0.54107,-0.33787 1.04642,-0.64188 1.48828,-0.0992 0.1643,0.20373 0.33337,0.22622 0.49609,0.19844 0.13335,-0.3421 0.32094,-0.87736 0.27279,-1.19062 -0.0683,-0.44027 0,-0.47123 0,-0.47123 l 0.42174,-0.0249 h 0.0992 l -0.0992,-0.0744 -0.19843,-0.19843 c 0,0 0.2233,-0.42175 0.372,-0.8681 0.0294,-0.091 0.0511,-0.18283 0.0743,-0.27279 -0.0169,0.002 -0.0341,0 -0.0497,0 0.008,-0.14684 0.003,-0.27384 -0.0249,-0.34713 -0.27119,-0.67707 -0.44344,-0.23574 -1.28984,-0.74401 -0.84799,-0.50853 -0.92075,-1.23507 -0.81862,-2.08359 0.10081,-0.8464 0.0931,-1.00251 -0.34713,-0.8681 -0.13124,0.0394 -0.1651,-0.0164 -0.22252,-0.0505 z" />
  </g>
</svg>
