<?xml version="1.0" encoding="UTF-8" standalone="no"?>
<!-- Created with Inkscape (http://www.inkscape.org/) -->

<svg
   width="210mm"
   height="297mm"
   viewBox="0 0 210 297"
   version="1.1"
   id="svg462"
   inkscape:version="1.1.1 (3bf5ae0d25, 2021-09-20)"
   sodipodi:docname="mecklenburg.svg"
   xmlns:inkscape="http://www.inkscape.org/namespaces/inkscape"
   xmlns:sodipodi="http://sodipodi.sourceforge.net/DTD/sodipodi-0.dtd"
   xmlns="http://www.w3.org/2000/svg"
   xmlns:svg="http://www.w3.org/2000/svg">
  <sodipodi:namedview
     id="namedview464"
     pagecolor="#ffffff"
     bordercolor="#666666"
     borderopacity="1.0"
     inkscape:pageshadow="2"
     inkscape:pageopacity="0.0"
     inkscape:pagecheckerboard="0"
     inkscape:document-units="mm"
     showgrid="false"
     inkscape:zoom="0.7500982"
     inkscape:cx="397.28131"
     inkscape:cy="561.92642"
     inkscape:window-width="1920"
     inkscape:window-height="1027"
     inkscape:window-x="1912"
     inkscape:window-y="-8"
     inkscape:window-maximized="1"
     inkscape:current-layer="layer1" />
  <defs
     id="defs459" />
  <g
     inkscape:label="Ebene 1"
     inkscape:groupmode="layer"
     id="layer1">
    <g
       id="g465"
       transform="matrix(0.26458333,0,0,0.26458333,-136.28829,-118.98083)">
      <path
         id="path3155"
         fill="#999999"
         stroke="#000000"
         stroke-width="0.5"
         d="m 628.668,668.402 c -1.066,0.855 -1.84,1.582 -3.281,3.094 -0.281,0.281 -4.67,1.828 -5.812,1.969 -2.801,0.348 -3.469,-0.059 -4.406,0.188 -1.025,0.57 -1.729,2.129 -2.344,3.75 -0.885,2.309 -1.553,4.801 -2.344,5.438 -0.035,0.023 -0.064,0.078 -0.094,0.094 -2.953,-3.836 -2.344,1.098 -5.531,-3.656 -0.135,-0.199 -0.229,-0.32 -0.375,-0.562 -0.533,0 -1.025,0.172 -1.5,0.375 h -0.094 c -0.656,0.293 -1.254,0.668 -1.875,1.031 l -0.938,0.188 c -0.023,0.035 0.018,0.059 0,0.094 -0.533,0.934 -0.979,1.98 -0.656,2.25 0.633,0.547 2.484,0.863 1.219,1.312 -0.322,0.113 -0.557,0.164 -0.75,0.188 0.387,0.727 0.709,1.461 0.938,1.688 0.721,0.727 1.822,1.145 0.469,1.594 -1.359,0.453 -1.764,0.711 -1.125,2.25 0.633,1.543 -0.188,2.438 -0.188,2.438 0,0 -0.088,0.008 -0.094,0 0.012,0.223 0.047,0.465 0,0.75 -0.387,2.309 -0.258,4.254 -1.406,4.125 -1.154,-0.129 -2.314,-0.035 -2.438,1.5 -0.129,1.535 -2.361,1.906 -3,3.188 -0.645,1.285 -0.469,2.062 -0.469,2.062 l 3.844,0.281 0.375,1.5 1.781,0.938 0.094,-1.594 1.219,0.281 c 0,0 1.611,3.23 3.281,4.125 1.371,0.738 3.223,3.281 3.938,4.312 0.129,-0.035 2.221,-0.586 4.219,-1.312 1.031,-0.375 3.035,-2.508 3.75,-2.906 0.715,-0.398 0.094,0.938 2.531,0.375 4.875,-1.125 4.219,-5.531 5.156,-7.031 0.937,-1.5 2.438,0.562 5.062,1.312 2.624,0.75 5.062,2.25 7.5,1.875 1.219,-0.188 1.641,0.375 2.25,1.031 0.146,0.164 0.381,0.312 0.562,0.469 0.111,0.102 0.234,0.195 0.375,0.281 0.076,0.055 0.1,0.141 0.188,0.188 0.023,0.02 0.064,-0.016 0.094,0 0.217,0.117 0.457,0.305 0.75,0.375 0.322,0.082 0.686,0.09 1.125,0.094 -0.07,-0.73 -0.17,-1.07 -0.188,-1.688 -0.129,-3.457 1.482,-3.574 0.844,-5.625 -0.322,-1.023 0.352,-1.188 1.219,-1.125 0.861,0.066 1.916,0.41 2.625,0.281 1.406,-0.258 1.166,-1.91 2.062,-1.781 0.896,0.129 0.439,-2.184 0.188,-3.469 -0.111,-0.539 0.252,-1.57 0.656,-2.812 -0.656,0.469 -1.582,0.469 -2.438,0.469 -1.312,0 1.5,-4.125 1.5,-4.125 l -2.812,-1.125 c 0,0 -2.812,0.938 -6.375,0.188 -2.672,-0.562 -1.688,-0.809 -0.375,-1.688 0.217,-0.145 0.434,-0.281 0.656,-0.469 0.217,-0.188 0.469,-0.422 0.656,-0.656 1.5,-1.875 3.938,-1.875 4.688,-2.062 0.328,-0.082 -0.105,-0.832 -0.656,-1.594 -0.398,0.035 -1.125,0.07 -1.406,0.094 -2.438,0.188 -1.125,-3 -3.75,-3.75 -2.625,-0.75 -4.125,-3.75 -5.625,-6.375 -0.522,-0.911 -1.898,-1.825 -3.469,-2.63 z m -16.5,9.563 c -0.064,-0.035 -0.223,0.02 -0.469,0.094 -0.996,0.301 -3.105,0.75 -2.438,1.875 0.662,1.125 1.025,1.215 1.125,0.281 0.094,-0.926 0.346,-1.23 0.281,-0.469 -0.07,0.762 -0.082,2.398 0.75,-0.188 0.423,-0.917 0.939,-1.492 0.751,-1.593 z" />
    </g>
  </g>
</svg>
