<?xml version="1.0" encoding="UTF-8" standalone="no"?>
<!-- Created with Inkscape (http://www.inkscape.org/) -->

<svg
   width="210mm"
   height="297mm"
   viewBox="0 0 210 297"
   version="1.1"
   id="svg701"
   inkscape:version="1.1.1 (3bf5ae0d25, 2021-09-20)"
   sodipodi:docname="netherlands.svg"
   xmlns:inkscape="http://www.inkscape.org/namespaces/inkscape"
   xmlns:sodipodi="http://sodipodi.sourceforge.net/DTD/sodipodi-0.dtd"
   xmlns="http://www.w3.org/2000/svg"
   xmlns:svg="http://www.w3.org/2000/svg">
  <sodipodi:namedview
     id="namedview703"
     pagecolor="#ffffff"
     bordercolor="#666666"
     borderopacity="1.0"
     inkscape:pageshadow="2"
     inkscape:pageopacity="0.0"
     inkscape:pagecheckerboard="0"
     inkscape:document-units="mm"
     showgrid="false"
     inkscape:zoom="0.7500982"
     inkscape:cx="397.28131"
     inkscape:cy="561.92642"
     inkscape:window-width="1920"
     inkscape:window-height="1027"
     inkscape:window-x="1912"
     inkscape:window-y="-8"
     inkscape:window-maximized="1"
     inkscape:current-layer="layer1" />
  <defs
     id="defs698" />
  <g
     inkscape:label="Ebene 1"
     inkscape:groupmode="layer"
     id="layer1">
    <path
       id="path3287"
       fill="#48c71e"
       stroke="#000000"
       stroke-width="0.132292"
       d="m 86.898893,81.275136 c -0.0852,0.0021 -0.201612,0.01746 -0.322527,0.02487 -0.243417,0.01561 -0.54266,0.04974 -0.719402,0.04974 -0.08361,-0.0061 -0.136525,0.20664 -0.173567,0.322527 -0.03863,0.116681 -0.01561,0.23151 0.04974,0.173567 0.0635,-0.05689 0.09446,-0.173567 0.198437,-0.173567 0.102394,0 0.51779,-0.08996 0.744009,-0.173567 0.224896,-0.08361 0.423333,-0.140493 0.372004,-0.198437 -0.01402,-0.01376 -0.06509,-0.02619 -0.148696,-0.02514 z m -3.894402,0.198438 c -0.03863,-0.01561 -0.09763,-0.0061 -0.173567,0.02487 -0.155046,0.06509 -0.201612,0.201612 -0.124089,0.297656 0.07594,0.09604 0.186002,0.169598 0.322527,0.148696 0.134937,-0.01852 0.261937,-0.179917 0.372004,-0.173567 0.108479,0.0061 0.214048,0.172509 0.645054,0.04974 0.429419,-0.121973 0.678921,-0.08467 0.744008,-0.12409 0.0635,-0.03836 -0.07594,-0.111654 -0.421745,-0.09922 -0.347134,0.01244 -1.006211,0.03413 -1.314715,-0.04974 -0.0045,-0.01535 -0.01217,-0.05874 -0.04948,-0.07435 z m -0.843492,0.173567 c -0.182827,0.0082 -0.457464,0.0807 -0.645054,0.124089 -0.251089,0.05794 -1.142471,0.203729 -1.289844,0.272786 -0.116152,0.05794 -0.2667,0.284162 -0.297656,0.347133 -0.03254,0.06509 0.175154,0.119856 0.272786,0.07435 0.09604,-0.04445 0.134937,-0.134408 0.347133,-0.173567 0.210873,-0.03836 0.471223,-0.01958 0.645054,-0.148696 0.171979,-0.128058 0.169069,-0.105304 0.446617,-0.09922 0.27596,0.0061 0.396875,-0.17145 0.545571,-0.198438 0.147372,-0.02487 0.283633,-0.102394 0.124089,-0.173567 -0.03995,-0.0164 -0.08811,-0.02593 -0.148696,-0.02487 z m 7.069402,0.07461 c -0.09313,0.03307 -0.170656,0.05477 -0.223308,0.09922 -0.311679,0.263525 -0.541073,0.299773 -1.091406,0.347133 -0.551921,0.04868 -0.982927,0.20664 -1.413934,0.421746 -0.432593,0.2159 0.06059,0.54266 -0.322527,0.446617 -0.384439,-0.09604 -0.446616,-0.08678 -0.446616,-0.446617 0,-0.31115 -0.103982,-0.230452 -0.520965,-0.297656 -1.694392,0.420687 -3.337719,0.994304 -3.671094,1.513152 -0.190764,0.228335 -0.325437,0.451644 -0.446616,0.66966 0.02646,0.409311 0.05424,0.864129 0.02487,1.314715 -0.0032,0.02699 -0.02328,0.04974 -0.02487,0.07435 0.0016,0.0093 -0.0032,0.01561 0,0.02487 0.03254,0.138377 0.08228,0.278077 0.07435,0.347133 -0.059,0.523875 -0.272786,0.347133 -0.347134,0.868098 0,0.334962 0.274373,0.268816 0.892969,0.396875 0.277548,0.059 0.817033,-0.245004 1.041929,0 0.07435,0.08255 0.09446,0.132291 0.07276,0.173566 0.02778,0.01455 0.05265,0.02699 0.07435,0.04974 0.496093,0.471223 0.917839,0.91784 1.140883,1.264973 0.223044,0.347133 0.818621,0.545571 0.421746,0.744008 -0.327025,0.164307 -0.768879,0.07038 -0.942446,0.173567 -0.0032,0.0032 0.0048,0.02381 0,0.02487 -0.05107,0.059 -0.06826,0.107421 -0.07435,0.148696 -0.01852,0.126206 0.114829,0.189177 0.148696,0.272785 0.04815,0.113771 0.106891,0.499269 -0.173567,0.942446 -0.04339,0.07144 -0.111654,0.14261 -0.198437,0.223308 -0.08837,0.278077 -0.216959,0.523875 -0.620184,0.669661 -0.488421,0.176741 -0.686858,0.424656 -0.967316,0.645054 -0.0061,0.01746 -0.01852,0.03307 -0.02328,0.04974 -0.09313,0.294482 -0.292893,0.319353 -0.694531,0.372005 -0.161131,0.02169 -0.285221,0.01138 -0.372004,-0.04974 -0.02937,-0.01349 -0.04974,-0.05053 -0.07435,-0.07435 -0.03731,-0.03096 -0.07144,-0.04762 -0.09922,-0.09922 -0.01085,-0.01852 -0.01693,-0.03096 -0.02487,-0.04974 -0.14261,-0.10848 -0.314589,-0.125148 -0.372004,-0.198438 -0.136525,-0.167481 -0.558006,-0.159279 -0.645054,-0.173567 -0.122502,-0.01852 -0.07435,-0.108479 -0.148696,-0.198437 l -0.967316,-0.421746 c -0.24818,-0.105304 1.017058,-0.66966 0.917839,-1.116277 -0.0807,-0.356658 -0.820208,-1.017058 -0.446616,-1.537758 0.466725,-0.29554 0.40005,0.265641 0.66966,0.198437 0.268287,-0.06615 0.987425,-0.649023 0.91784,-0.967316 -0.0635,-0.06191 -0.141023,-0.246063 -0.421746,-0.223309 -0.347134,0.0299 -0.387615,-0.168539 -0.471223,-0.297656 -0.03863,0.03731 -0.09763,0.09208 -0.12409,0.12409 -0.347133,0.421745 -0.347133,0.02487 -0.843491,-0.09922 -0.496359,-0.12409 -0.148696,-0.520965 -0.496094,-1.215496 l 0.07435,-0.09922 c -0.05742,-0.01032 -0.102394,-0.02487 -0.173567,-0.04974 -0.333375,-0.111655 -0.367506,-0.283105 -0.223308,-0.669661 -0.223309,-0.01244 -0.372004,-0.223308 -0.446617,-0.148696 -0.968904,1.190625 -0.66966,3.571875 -1.116277,4.836848 -0.44794,1.116277 -1.339321,2.38125 -2.157942,3.274219 -0.299243,0.372004 -0.520964,0.818621 -0.892968,1.041929 -0.224896,0.148696 -0.669661,-0.07435 -0.744009,0.223308 -0.2032,0.306917 -0.249502,0.963348 1.140884,1.934634 0.369093,0.259291 1.055687,0.812271 1.637241,0.868098 0.322527,0.03096 0.744009,-0.09922 0.744009,-0.09922 0,0 0.238654,0.248179 -0.421746,0.322527 -0.645054,0.07329 -0.804598,-0.313267 -1.041929,-0.02487 -0.263525,0.319352 -0.565944,0.334963 -0.967317,0.446617 -0.277548,0.07752 -0.387615,-0.404019 -0.744008,-0.297656 -0.367507,0.110595 0.148695,0.446616 0.148695,0.446616 0,0 -0.844814,-0.300831 -1.041929,0.09922 -0.106891,0.214048 0.271198,0.446617 0.645054,0.620183 0.372005,0.173567 0.685271,0.287338 0.76888,0.719411 0.01243,0.0651 -0.762794,0.17674 -0.967317,-0.12409 -0.229394,-0.334971 -0.967317,-1.376635 -1.190625,-1.413942 -0.747183,0.155046 -1.215496,-0.06509 -1.686719,-0.07435 -0.40005,-0.0071 -0.741098,0.10742 -0.917839,0.496093 -0.122502,0.268817 0.3302,0.752475 0.595312,0.868099 0.277548,0.12303 1.029494,0.27596 1.116277,0.42174 0.221721,0.3773 0.717815,0.35957 0.942446,0.32253 0.148696,0 0.04815,-0.32253 0.198438,-0.47122 0.297656,-0.22331 0.593725,0.29765 0.892968,0.372 0.240242,0.11483 0.311679,-0.15505 0.868098,0.29766 0.148696,0.14869 0.516202,0.09 0.719402,0.2233 0.03572,0.18283 0.162719,0.17066 0.272786,0.19844 -0.03572,-0.14367 0.0032,-0.18706 -0.02487,-0.34713 -0.03413,-0.18283 -0.0048,-0.35772 0.124089,-0.44662 0.127,-0.0878 0.367507,-0.0817 0.818621,0.0497 0.148696,0 -0.150283,0.37201 -0.07435,0.44662 0.19685,0.16431 0.350309,0.20373 0.496094,0.17357 0.144198,-0.0288 0.280723,-0.127 0.396875,-0.24818 0.230981,-0.23971 0.415396,-0.5551 0.66966,-0.54557 0.07144,0.003 0.162719,0.0341 0.24818,0.0992 0.111654,0.11377 -0.04974,0.28733 -0.198438,0.44661 -0.150283,0.16008 -0.311679,0.29766 -0.198437,0.37201 0.431006,0.22542 0.66966,0.33073 0.79375,0.34713 0.122502,0.0175 0.144198,-0.0445 0.148695,-0.1487 0.0048,-0.10239 -0.0016,-0.26352 0.07435,-0.39687 0.07594,-0.13335 0.232569,-0.24606 0.570442,-0.32253 0.111654,-0.0373 0.259027,0.47334 0.446617,1.01706 0.187589,0.54478 0.406135,1.12871 0.66966,1.16575 0.600075,0.11378 1.293019,0.12912 1.959504,0.29766 0.331788,0.0857 0.663575,0.22225 0.967317,0.39688 0.302419,0.17674 0.598487,0.40005 0.843492,0.7194 0.07435,0.15081 -0.297657,0.2966 -0.372005,0.44661 -0.150283,0.45165 -0.54557,0.84032 -0.620183,1.28985 0,0.15081 0.372004,0.0733 0.297656,0.22331 -0.07594,0.22622 -0.446616,0.29448 -0.520964,0.59531 -0.131763,0.47016 -0.139436,0.77735 -0.07435,0.99219 0.0635,0.2159 0.193675,0.34104 0.396875,0.39687 0.40296,0.11377 1.035579,0.0124 1.637241,0.0497 0,0 0.02487,0.002 0.02487,0 0.0016,-0.0402 0.0032,-0.0817 0,-0.12409 -0.0016,-0.007 0,-0.0164 0,-0.0249 -0.0093,-0.0817 -0.03254,-0.1643 -0.04974,-0.24818 -0.0016,-0.007 0.0016,-0.0164 0,-0.0249 -0.0032,-0.007 0.0016,-0.0156 0,-0.0249 -0.04022,-0.17356 -0.07276,-0.33496 0.02487,-0.49609 0.176742,-0.29554 0.302419,-0.33602 0.421746,-0.52097 0.01693,-0.0259 0.03254,-0.0402 0.04974,-0.0743 0.134937,-0.27067 -0.03863,-0.37942 -0.173567,-0.71941 -0.06826,-0.16854 -0.09922,-0.19526 -0.173566,-0.2233 -0.03863,-0.0124 -0.08678,-0.0164 -0.148696,-0.0498 -0.06191,-0.031 -0.147373,-0.0878 -0.248179,-0.17356 -0.407723,-0.33788 -0.2667,-0.22119 -0.198438,-0.59532 0.04974,-0.27913 0.206111,-0.22436 0.396875,-0.19843 0.0048,0.003 0.01852,-0.003 0.02487,0 0.05583,0.008 0.113242,0.008 0.173567,0 0.06668,-0.007 0.136525,-0.0352 0.198437,-0.0744 0.181504,-0.11483 0.341048,-0.34105 0.595313,-0.54557 0.05265,-0.0413 0.103981,-0.096 0.148695,-0.1487 0.01085,-0.0124 0.01402,-0.0352 0.02328,-0.0497 0.05265,-0.0683 0.09313,-0.13335 0.124089,-0.19844 0.03572,-0.0743 0.04657,-0.12409 0.04974,-0.17356 0.0061,-0.0341 0.01085,-0.059 0,-0.0744 -0.0061,-0.007 -0.01243,-0.0228 -0.02328,-0.0249 -0.02328,-0.004 -0.05265,0.0145 -0.09922,0.0497 -0.271198,0.20373 -0.5334,0.0807 -0.02487,-0.49609 0.506942,-0.57468 0.65114,-0.8435 0.719402,-1.48829 0.06668,-0.64293 0.07144,-0.93027 -0.198437,-1.4388 -0.271198,-0.508525 -0.510117,-1.007794 -1.017059,-1.686715 -0.03731,-0.04762 -0.08361,-0.09922 -0.124089,-0.148696 0.230981,-0.148696 0.263525,-0.08996 0.148696,-0.496094 -0.06191,-0.216958 -0.153459,-0.252147 -0.223309,-0.272785 -0.0852,-0.02275 -0.136525,-0.02778 -0.02487,-0.322527 0.2032,-0.540544 0.316178,-0.152929 0.520965,0.04974 0.103981,0.105304 0.369094,0.01852 0.595313,-0.09922 0.106891,0.0672 0.263525,0.194204 0.322527,0.223308 0.320939,0.170656 0.716227,0.347134 0.81862,0.396875 0.100807,0.05159 0.214048,-0.338931 0.570442,-0.322527 0.355071,0.01746 0.631031,-0.137583 0.868098,-0.223308 0.237067,-0.08361 0.407723,0.214048 0.595312,0.297656 0.186003,0.08572 0.499269,0.120915 0.669661,-0.09922 0.169069,-0.220133 0.289983,-0.590021 0.223308,-0.79375 -0.06826,-0.202671 0.113242,-0.193146 -0.173566,-0.396875 -0.288396,-0.202671 -0.350309,-0.283104 -0.24818,-0.520964 0.07144,-0.167482 0.134938,-0.136525 0.272786,-0.198438 0.09313,0.07752 0.179916,0.153988 0.272785,0.248179 -0.04657,-0.06932 -0.09922,-0.139435 -0.148696,-0.223308 -0.01852,-0.02884 -0.01243,-0.04657 -0.02487,-0.07435 0.03572,-0.02487 0.05424,-0.05371 0.09922,-0.09922 0.272786,-0.272785 0.562769,0.234686 0.520965,-0.719402 0.01852,-0.0093 0.02937,-0.01349 0.04974,-0.02487 0.677597,-0.372005 0.750358,-0.543719 0.81862,-0.91784 0.06668,-0.372004 0.378355,-0.112713 0.446617,-0.520965 0.06667,-0.406135 -0.05583,-0.559064 0.148696,-0.967316 0.2032,-0.406136 0.0418,-0.6604 -0.669661,-0.694532 -0.711464,-0.03201 -1.46976,-0.435239 -1.264972,-0.843491 0.2032,-0.406136 0.190764,-0.376238 0.124089,-0.818621 -0.06826,-0.440267 0.351896,-0.484717 0.79375,-0.248179 0.440267,0.237596 1.013883,0.437091 1.116277,-0.173567 0.100806,-0.608806 -0.265112,-1.026319 0.446617,-2.009246 0.711729,-0.982927 0.626269,-1.600993 0.694531,-2.38125 0.06668,-0.778139 0.248179,-1.959504 0.248179,-1.959504 l -1.017058,-0.124089 c 0.169069,0.02699 0.311679,0.07646 0.471223,0.07435 0.05265,0.144727 0.392112,0.331787 0.148696,0.79375 -1.48934,0.746389 -1.636713,-2.008982 -2.901686,-2.306638 z m -9.797785,1.091406 c -0.226219,-0.04445 -1.218406,0.640821 -1.339321,0.768879 -0.04498,0.07144 0.0048,0.04657 0.02487,0.148696 0.01852,0.102394 0.14261,-0.09922 0.297656,-0.09922 0.153459,0 0.362744,-0.211932 0.421746,-0.347134 0.05741,-0.134408 0.134938,-0.152929 0.322527,-0.198437 0.186002,-0.04445 0.268288,-0.148696 0.396875,-0.12409 0.126736,0.02699 0.100542,-0.103452 -0.124354,-0.148696 z m -1.364192,1.116013 c -0.116152,-0.01244 -0.398462,0.440266 -0.744008,0.992187 -0.103981,0.167482 -0.210873,0.209815 -0.223308,0.620184 -0.01402,0.411427 0.200025,0.214048 0.471223,0.124089 0.269875,-0.08996 0.2032,-0.180975 0.396875,-0.297656 0.192352,-0.114829 0.308504,-0.316177 0.322527,-0.471223 0.01244,-0.152929 0.08678,-0.415396 0.04974,-0.570442 -0.03916,-0.153193 -0.158485,-0.384704 -0.27305,-0.397139 z m 5.40729,6.49896 c 0.01561,0.164306 0.01244,0.359569 -0.09922,0.620183 -0.03731,0.08678 -0.04974,0.144728 -0.07435,0.223309 0.214048,-0.326761 0.254265,-0.649288 0.173567,-0.843492 z m -11.523398,6.042025 c -0.02328,-0.0021 -0.04974,0.0032 -0.0852,0.01032 -0.07276,0.01746 -0.175154,0.05159 -0.322527,0.09922 -0.296069,0.09604 -0.420158,0.10451 -0.471223,0.173566 -0.05265,0.07144 0.0217,0.234686 0.09922,0.297656 0.07594,0.06509 0.103981,0.0093 0.12409,-0.07435 0.01852,-0.08361 0.153458,-0.08467 0.372004,-0.12409 0.216958,-0.03836 0.261937,0.119856 0.372004,0.272785 0.108479,0.155046 -0.059,0.225425 0,0.347134 0.05741,0.123031 0.05741,0.207698 0.148696,0.322527 0.08996,0.116681 0.292894,0.07435 0.396875,0.09922 0.102394,0.02699 0.235744,0.129116 0.223308,0.198437 -0.0048,0.01852 -0.02646,0.04233 -0.04974,0.04974 0.07752,0.0053 0.156634,0.02487 0.223309,0.04974 0.171979,0.06509 0.184414,0.151871 0.372004,0.24818 0.186002,0.09604 0.572029,-0.04763 0.66966,-0.09922 0.09604,-0.05054 0.02487,-0.223309 0.02487,-0.223309 l 0.223308,0.02487 v -0.124089 c 0,0 -0.400049,0.04233 -0.496093,-0.07435 -0.09763,-0.114829 -0.171979,-0.05265 -0.248179,-0.12409 -0.07752,-0.06932 -0.446617,-0.520964 -0.446617,-0.520964 -0.05265,-0.05054 -0.05424,-0.06191 -0.12409,-0.07435 -0.07144,-0.01244 -0.246591,-0.198438 -0.496093,-0.347134 -0.25109,-0.146843 -0.356659,-0.282045 -0.446617,-0.372004 -0.02249,-0.02196 -0.04101,-0.03254 -0.06297,-0.03545 z m -1.39991,0.878417 c -0.392113,-0.02487 -0.530225,0.14261 -0.620184,0.322527 -0.09154,0.179916 0.111655,0.372004 0.272786,0.396875 0.159808,0.02699 0.342635,-0.164306 0.446616,-0.248179 0.102394,-0.08361 0.116153,0.06509 0.12409,0.148695 0.0061,0.08361 0.111654,-0.01561 0.248179,0.07435 0.134938,0.08996 0.122502,0.319352 0.148696,0.421746 0.02487,0.102394 0.227806,0.01244 0.272785,0.02487 0.04498,0.01243 -0.04339,0.192352 0.272786,0.198438 0.314589,0.0061 0.558006,-0.137584 0.694531,-0.24818 0.134938,-0.108479 -0.02778,-0.145785 0.04974,-0.223308 0.03731,-0.03836 0.122502,-0.06615 0.223308,-0.07435 -0.05583,0.0053 -0.117739,0 -0.148696,0 -0.06509,0 -0.148696,0.09922 -0.148696,0.09922 -0.0016,-0.01032 -0.01693,-0.02778 -0.07435,-0.02487 -0.116153,0.0061 -0.03096,-0.109537 -0.223309,-0.148696 -0.193675,-0.03836 -0.128587,-0.13335 -0.198437,-0.223308 -0.07144,-0.08996 -0.158221,-0.289454 -0.248179,-0.322527 -0.08996,-0.03202 -0.296069,0.04657 -0.347134,-0.04974 -0.05265,-0.09604 -0.164306,-0.04339 -0.272785,-0.04974 -0.356923,-0.06853 -0.111919,-0.01588 -0.471752,-0.07382 z m -2.38125,3.075778 c -0.19685,0.009 -0.396875,0.0498 -0.620184,0.12409 v 0.0249 c -0.148695,0.0455 -0.294481,0.11377 -0.446616,0.17356 -0.08678,0.0341 -0.162719,0.0868 -0.248179,0.12409 0.165893,-0.003 0.328612,0.0765 0.496093,0.0249 l 0.148696,0.29766 c -0.03863,0.48895 0.05424,0.78025 0.198438,0.94244 0.144198,0.16325 0.361156,0.20373 0.620183,0.19844 0.514615,-0.009 1.172104,-0.21193 1.736196,0.0497 0.148696,0.0765 -0.150284,0.39582 0,0.54557 0.224896,0.15082 0.437091,0.19527 0.645054,0.17357 0.20611,-0.0217 0.407723,-0.12091 0.595312,-0.24818 0.37518,-0.25215 0.716228,-0.65431 1.017059,-0.91784 0.449527,0.37518 0.891381,0.67178 1.041929,0.59531 0.111654,-0.0743 0.0093,-0.23971 0,-0.372 -0.110067,-0.0196 -0.216958,-0.0526 -0.396875,-0.17357 -0.156633,-0.10345 -0.324115,-0.22727 -0.496094,-0.372 0.0032,-0.003 -0.0048,-0.0217 0,-0.0249 0.474398,-0.23045 0.334963,-0.59637 -0.248179,-0.47122 -0.328612,0.0704 -0.520965,-0.23575 -0.595312,-0.27279 -0.339461,-0.16854 -0.645055,0.49609 -1.017059,0.49609 -0.970491,-0.16748 -0.561181,-0.32358 -1.240366,-0.54557 -0.569913,-0.18626 -0.994569,-0.38153 -1.190096,-0.37227 z" />
  </g>
</svg>
