<?xml version="1.0" encoding="UTF-8" standalone="no"?>
<!-- Created with Inkscape (http://www.inkscape.org/) -->

<svg
   width="210mm"
   height="297mm"
   viewBox="0 0 210 297"
   version="1.1"
   id="svg2343"
   inkscape:version="1.1.1 (3bf5ae0d25, 2021-09-20)"
   sodipodi:docname="norway.svg"
   xmlns:inkscape="http://www.inkscape.org/namespaces/inkscape"
   xmlns:sodipodi="http://sodipodi.sourceforge.net/DTD/sodipodi-0.dtd"
   xmlns="http://www.w3.org/2000/svg"
   xmlns:svg="http://www.w3.org/2000/svg">
  <sodipodi:namedview
     id="namedview2345"
     pagecolor="#ffffff"
     bordercolor="#666666"
     borderopacity="1.0"
     inkscape:pageshadow="2"
     inkscape:pageopacity="0.0"
     inkscape:pagecheckerboard="0"
     inkscape:document-units="mm"
     showgrid="false"
     inkscape:zoom="0.7500982"
     inkscape:cx="397.28131"
     inkscape:cy="561.92642"
     inkscape:window-width="1920"
     inkscape:window-height="1027"
     inkscape:window-x="1912"
     inkscape:window-y="-8"
     inkscape:window-maximized="1"
     inkscape:current-layer="layer1" />
  <defs
     id="defs2340" />
  <g
     inkscape:label="Ebene 1"
     inkscape:groupmode="layer"
     id="layer1">
    <path
       id="path5166"
       fill="#eecea0"
       stroke="#000000"
       stroke-width="0.132292"
       d="m 94.920546,53.68766 c -0.02328,0.0048 -0.04022,0.02778 -0.04974,0.07435 -0.150283,0.520965 0.520965,1.115219 0.223309,1.637242 -0.224896,0.372004 -1.413934,-0.149754 -1.339321,0.297656 0,0.595313 0.891381,0.744009 1.413933,0.967317 0.148696,0.07435 0.669661,-0.07435 0.520965,0.07435 -0.373592,0.446616 -1.116277,0.519906 -1.339321,1.041929 -0.299244,0.446617 -0.07435,1.115219 -0.07435,1.637242 0,0.372004 0.967317,0.595312 0.669661,0.892968 -0.44794,0.372005 -1.190625,0.744009 -1.71159,0.372005 -0.44794,-0.223309 0.148696,-1.190625 -0.148696,-1.56263 -0.224896,-0.297656 -0.892969,0.520965 -0.967317,0.223309 -0.07435,-0.522023 0.668073,-0.744009 0.818621,-1.190625 0,-0.148696 -0.520964,-2.083594 -0.520964,-2.083594 -0.820209,0.446617 -2.009246,5.356225 -2.455598,6.622785 -0.224896,0.669661 0.595312,0.147902 0.446617,0.595313 -0.150284,0.372004 -0.372005,0.668602 -0.446617,1.116277 -0.07435,0.297656 0.148696,0.768879 -0.07435,0.992187 -1.26656,1.264973 -1.116277,-0.917839 -1.116277,-1.066535 0.07435,-0.44741 0.818621,-1.116277 0.372004,-1.264973 -1.26656,-0.373062 0.967317,-0.66966 0,-1.339321 -0.224896,-0.148696 -0.66966,0.223309 -0.818621,0 0,-0.05424 0.04657,-0.07038 0.12409,-0.07435 -0.02778,-0.0093 -0.04974,-0.03731 -0.04974,-0.07435 -0.07435,-0.223308 1.934633,-3.869531 1.785938,-4.092839 -0.07435,-0.223308 -4.167188,-0.596371 -4.390496,0 -0.150284,0.595312 0.818621,1.189567 0.520964,1.711589 -0.150283,0.372005 -1.190625,-0.670718 -1.264973,-0.223308 0,0.223308 2.306903,1.040871 2.009246,1.71159 -0.150283,0.223308 -2.382837,-0.0016 -1.860285,1.264973 0.148696,0.372004 1.339321,0.372004 0.967317,0.595312 -0.224896,0.223308 -1.190625,-0.44741 -1.860286,0.148696 1.71159,-3.573992 -2.754841,-0.373592 -2.38125,0.967317 0.148696,0.446616 0.817034,0.668602 1.190625,1.041929 0.223309,-0.373063 0.446617,-0.669661 0.595313,-0.967317 v 0.148696 c -0.299244,1.413933 -0.224896,1.884098 0.07435,2.331508 0.297656,0.520965 -0.595313,0.372004 -0.595313,0.669661 0,0.223308 0.370417,0.297656 0.595313,0.372004 0.223308,0.07435 0.66966,-0.223309 0.66966,0 0.07435,0.372004 -0.148696,0.892969 -0.520965,0.967316 -2.010833,0.148696 -0.744008,-2.009245 -1.711589,-2.306902 -0.373592,-0.148695 -0.892969,-0.07435 -1.339321,-0.07435 -0.148696,-0.07435 -0.446617,-0.223308 -0.595312,-0.07435 -0.148696,0.07435 0.07435,0.520964 -0.07435,0.520964 -0.522552,-0.148696 -0.843492,-0.818621 -1.364192,-0.892969 -0.5969,-0.148695 -2.754842,0.370417 -2.455598,1.56263 0.595313,2.158999 2.751667,0.297656 3.125258,0.297656 0.148696,-0.07435 0.372005,1.486693 0.223309,2.529946 0,0.148695 -0.297657,0.148695 -0.297657,0.223308 0.148696,0.372004 1.215496,0.967317 0.843492,0.892969 -0.373592,-0.148696 -0.620183,-0.595313 -0.917839,-0.818621 -0.373592,-0.297656 -0.818621,-0.372004 -1.190625,-0.669661 -0.148696,-0.148695 -0.07435,-0.446616 -0.223309,-0.595312 -0.14896,-0.148696 -0.372004,-0.372004 -0.520964,-0.223308 -0.44794,0.520964 0.148696,1.637241 -0.446617,2.009245 -2.233877,1.488282 -0.297656,-3.426089 -2.232554,0.892969 -0.44794,1.041929 0.668073,1.636183 1.190625,2.083594 0.148696,0.148696 0.744008,0.297656 0.520964,0.446617 -0.447939,0.223308 -1.116277,-0.07435 -1.562629,0.223308 -0.447939,0.297656 0.223309,2.902214 -1.116277,2.455598 -0.522552,-0.148696 0.446617,-1.041929 0.595313,-1.562629 0,-0.148696 0.297656,-4.315884 0,-4.7625 -1.117865,-1.340909 -1.860286,1.859227 -1.71159,2.232554 0.148696,0.446616 1.190625,0.370946 1.190625,0.818621 -0.07435,0.446616 -1.041929,-0.148696 -1.264973,0.223308 -0.299244,0.372004 0.07435,0.966258 0,1.413933 -0.07435,0.223309 -0.297656,0.595313 -0.446616,0.446617 0,-0.148696 0.66966,-3.646223 0.148695,-3.943879 -0.5969,-0.447411 -1.860285,0.296598 -2.157941,0.892969 -1.638565,3.499114 2.753254,3.049322 2.157941,4.836847 -0.148695,0.297657 -0.372004,-0.66966 -0.595312,-0.892968 -0.44794,-0.372005 -0.967317,-0.297657 -1.339321,-0.669661 -0.373592,-0.372004 -0.297656,-1.339321 -0.818621,-1.339321 -0.522552,-0.07435 -1.041929,0.594255 -1.190625,1.116277 -0.148696,0.520965 2.157942,1.339321 2.083594,1.339321 -0.522552,0.223309 -1.190625,0.520965 -1.71159,0.223309 -0.522552,-0.297657 -0.66966,-2.382309 -1.041929,-1.785938 -0.148696,0.372004 -0.297656,0.743215 -0.297656,1.190625 -0.07435,-1.192212 -0.223308,-2.604558 -0.967317,-2.38125 -0.447939,0.148696 -0.223308,1.116277 -0.66966,1.413933 -0.44794,0.223309 -1.041929,-0.446616 -1.413933,-0.223308 -0.299244,0.223308 0.817033,0.07435 1.116277,0.372004 0.744008,0.967317 -0.967317,0.519907 -2.009246,1.041929 -0.224896,0.148696 0.818621,-0.223308 0.818621,0.07435 0.07435,0.520965 -0.744009,0.891911 -0.595313,1.339321 0.07435,0.297656 1.041929,-0.372004 0.892969,-0.07435 -0.148696,0.595313 -1.116277,0.668602 -1.264973,1.264973 0,0.372004 0.668073,0.372004 1.041929,0.595313 0.446617,-0.670719 0.593725,-1.637242 1.339321,-1.934634 0.446617,-0.297656 0.965729,0.148696 1.488281,0.148696 0.07435,-0.07435 0.148696,-0.372004 0.148696,-0.892969 0.148696,0.446617 0.520965,0.891911 0.372004,1.339321 -0.148696,0.595313 -1.637241,0.07329 -1.711589,0.669661 -0.148696,0.66966 0.07276,1.488281 0.595312,1.860285 0.07435,0.07435 0.446617,0.07435 0.372004,0.148696 -0.373591,0.297656 -1.264973,0.147902 -1.264973,0.595312 0,0.148696 0.07435,0.148696 0.148696,0.223309 h -0.148696 c -0.373591,0 -0.744008,0.372004 -0.744008,0.66966 0.148696,0.967317 2.455598,0.370946 1.71159,0.818621 -0.522552,0.297656 -1.190625,0.446617 -1.785938,0.372004 -0.297656,0 -0.446616,-0.595312 -0.744008,-0.595312 -0.223308,0 -0.446617,0.148695 -0.744008,0.297656 0,-0.372004 -0.223309,-1.041929 -0.892969,-1.934633 -1.266561,-1.713177 -0.892969,1.860285 -1.116277,2.232554 -0.07435,0.148696 -0.223309,-0.372004 -0.372004,-0.297657 -0.223309,0.07435 -0.446617,0.297657 -0.595313,0.595313 0.372004,-1.638565 0.669661,-4.987396 -0.892969,-3.199871 -2.159529,2.307961 1.860286,1.858698 0.297657,3.348567 -0.372005,0.372004 -1.116277,0.223308 -1.488282,0.595312 -0.148695,0.297657 0.223309,0.669661 0.148696,0.967317 -0.07435,0.520965 -0.520964,1.040871 -0.744008,1.562629 v 0.297656 c 0.223308,-0.297656 0.446617,-0.595312 0.744008,-0.892968 0.223309,-0.223309 0.520965,-0.446617 0.744009,-0.669661 0.223043,-0.223044 0.07435,-0.818621 0.372004,-0.892969 0.372004,-0.07435 0.818621,-0.148695 1.190625,0.07435 0.297656,0.223309 0,1.339321 0.297656,1.116277 0.446617,-0.297656 0.07435,-1.264972 0.446617,-1.637241 0.223308,-0.223309 0.66966,-0.297656 1.041929,-0.372004 -0.148696,0.297656 -0.223309,0.66966 -0.07435,0.967316 0.223308,0.446617 0.965729,0.372004 1.413933,0.297657 0.297656,0 0.297656,-0.446617 0.520965,-0.520965 0.148696,-0.07435 0.372004,0.148696 0.372004,0.297656 0.07435,0.148696 -0.372004,0.297656 -0.223308,0.372004 0.744008,0.148696 2.60297,-2.97815 3.05091,0.148696 0.07435,0.372004 -0.595313,0.372004 -1.041929,0.446617 -0.297656,0 -0.520965,-0.446617 -0.892969,-0.446617 -1.340908,0 1.71159,2.976563 0.297656,2.306902 -2.010833,-0.968375 0.671248,-2.531004 -2.529945,-2.009246 -0.5969,0.07435 -1.56263,-0.0011 -1.637242,0.595313 -0.04974,0.170656 0.04657,0.280723 0.198437,0.347133 -0.131762,-0.03254 -0.254264,-0.03096 -0.347133,0.02487 -1.117865,0.520965 2.604558,3.793596 1.71159,4.836848 -0.342636,0.410898 -1.713177,-1.501775 -1.934634,-1.934633 0.148696,1.637241 -1.785937,0.891381 -2.976562,2.083593 -0.07435,0.07435 0.223308,-0.297656 0.07435,-0.372004 -0.373592,-0.297656 -1.637242,-0.0011 -1.339321,0.446617 0.148696,0.223308 1.041929,-0.297656 0.818621,-0.07435 -0.297656,0.297656 -1.041929,0 -1.190625,0.446617 -0.223309,0.520964 -0.150284,1.33932 0.372004,1.562629 0.446617,0.223308 1.711589,-1.339321 1.934633,-1.785938 0.07435,-0.148696 -0.223308,-0.446616 -0.07435,-0.446616 0.148961,0 2.455598,0.743214 1.934634,1.637241 -0.297657,0.372004 -2.38125,-0.670718 -2.157942,0 0,0.07435 0.297656,-0.07435 0.223308,0 -0.07435,0.372004 -0.744008,-0.07541 -0.446616,0.669661 0.520964,1.413933 0.891381,0.892968 2.009245,0.520964 0.223309,-0.07435 0.818621,-0.446616 0.669661,-0.223308 -0.297656,0.446617 -1.190625,0.519906 -1.264973,1.041929 -0.148696,0.595313 0.595312,1.040871 0.744008,1.562629 0.223309,0.595313 -0.595312,-1.041929 -1.041929,-1.488281 -0.297656,-0.297656 -0.66966,-0.446617 -1.041929,-0.446617 -0.522552,0.07435 -0.967317,0.892969 -1.264973,0.595313 -0.372004,-0.297656 1.116277,-0.744009 0.744008,-1.041929 -1.117864,-0.819679 -1.264972,1.412875 -1.711589,2.38125 -0.223308,0.372004 -1.116277,0.81862 -0.818621,1.041929 0.744008,0.446616 1.635654,-0.148696 2.38125,-0.446617 0.297656,-0.148696 0.446617,-0.66966 0.66966,-0.595312 0.223044,0.07435 -0.446616,0.520964 -0.223308,0.66966 l 0.223308,0.223308 -0.148695,0.148696 c -0.372005,0.223309 0.148695,1.264973 -0.297657,1.264973 -0.446616,0.07435 0.297657,-1.116277 -0.07435,-1.264973 -0.5969,-0.297656 -2.38125,0.744009 -2.38125,0.818621 0.07435,0.520965 1.116278,0.743215 0.892969,1.264967 -0.148696,0.52097 -0.967316,0.81862 -1.562629,0.74401 -0.372004,-0.0743 -0.07435,-0.74401 -0.297656,-0.96732 -0.07435,-0.14869 -0.223309,0.22331 -0.223309,0.29766 0,0.1487 -0.372004,1.71159 -0.446616,0.66966 0,-0.1487 0.372004,-0.44662 0.223308,-0.44662 -1.861873,-0.59637 -0.297656,0.52097 -0.595312,0.66966 -0.297657,0.1487 -1.116277,-0.0743 -0.967317,0.22331 0.297656,0.52097 2.529946,1.26498 1.488281,1.71159 -1.861873,0.74401 -2.976562,-0.44794 -3.497527,2.3069 -0.148696,0.59532 -0.373591,1.78594 0.297656,1.93464 0.520965,0.0744 0.96573,-0.1487 1.488282,-0.0743 0.167481,0 0.446616,0.0185 0.520964,0.0497 -0.0048,0.003 0.0093,0.0201 0,0.0249 -0.446616,0.37201 -4.466431,0.89297 -1.860285,1.26497 0.818621,0.0743 1.337998,-1.26497 2.083594,-1.11627 0.148695,0.0743 0,0.52096 0.148695,0.52096 0.07435,0 0.148696,-0.0743 0.223309,-0.0743 v 0.0743 c 0.07435,0.29766 1.041929,0.74401 0.66966,0.74401 -0.446617,0 -0.66966,-0.59531 -1.116277,-0.74401 -1.043252,-0.22331 -1.116277,0.74401 -1.785937,1.04193 -0.372005,0.1487 -2.82919,-0.22331 -1.637242,0.74401 0.372004,0.29766 1.041929,-0.29766 1.413933,-0.0743 0.372004,0.22331 0.297656,0.91784 0.446617,1.28985 0.07435,0.29765 0.520964,0.89296 0.297656,0.81862 -0.5969,-0.1487 -0.892969,-1.14089 -1.488281,-1.06654 -0.446617,0 -1.116277,1.7362 -1.041929,2.18281 0.07435,0.29766 0.297656,0.66966 0.520964,0.96732 0.05583,0.0558 0.358246,0.0357 0.446617,0.0497 -0.0048,0.003 0.0093,0.0201 0,0.0249 -0.522552,0.29766 -1.488281,0 -1.71159,0.59532 -0.148695,0.29765 -0.148695,0.44661 -0.148695,0.66966 -0.5969,0.0743 -0.595313,2.15794 -0.520965,2.52994 0.07435,0.22331 0.372004,-0.22331 0.520965,-0.29765 0.372004,-0.37201 0.66966,-0.81863 1.041929,-1.19063 -0.148696,-0.29766 -0.297656,-0.44662 -0.372004,-0.59531 0.520964,0 1.190625,-0.1487 1.264973,0.0744 0.744008,1.26497 -1.934634,1.26497 -2.083594,2.23255 0,0.29766 0.520964,-0.1487 0.818621,-0.22331 0.372004,0 0.744008,0.0744 1.116277,0 0.297656,-0.14869 0.892968,-0.89297 0.892968,-0.52096 -0.372004,2.15953 -1.860285,1.48669 -2.976562,2.52994 -0.148696,0.1487 0.148696,0.52097 0,0.66966 -0.372004,0.1487 -2.678906,0 -2.902215,0.52097 -0.07435,0.14869 0.446617,0 0.446617,0.14869 v 0.0743 c 0.223308,-0.0743 0.372004,-0.0743 0.446617,0.0743 0.223308,0.29766 -2.97815,2.23255 -1.860286,1.71159 0.372005,-0.1487 0.669661,-0.37201 0.967317,-0.59531 -0.07435,0.14869 -0.223308,0.44661 -0.297656,0.89296 -0.671248,2.82919 2.009246,0.0728 1.637241,1.11628 -0.223308,0.44662 -1.190625,0.37201 -1.413933,0.81862 -0.148696,0.29766 1.041929,0.0743 0.892969,0.29766 -0.297656,0.372 -0.892969,0.52096 -1.339321,0.372 -0.745596,-0.29765 -0.967317,-2.00924 -1.562629,-1.63724 -0.5969,0.37201 -1.71159,0.96732 -1.339321,1.48828 0.223308,0.37201 1.190625,0.74401 0.818621,0.81862 -0.522552,0.1487 -0.967317,-0.744 -1.488281,-0.59531 -0.297657,0.0743 0.744008,0.44662 0.66966,0.74401 -0.148696,0.44662 -0.818621,0.372 -1.041929,0.66966 -0.223308,0.29766 0,0.74401 -0.148696,0.96732 -0.148696,0.29765 -0.66966,-0.22331 -0.892969,0 -0.07435,0.2233 -0.148696,0.44661 -0.148696,0.66966 0,0.14869 0.446617,0.14869 0.297657,0.14869 -0.223309,0.1487 -0.669661,-0.22331 -0.818621,0 -0.297656,0.44662 -0.223308,0.96732 -0.297656,1.48828 0,0.1487 -0.07435,0.29766 0.07435,0.29766 0.297656,0.0743 1.190625,-0.372 0.967316,-0.1487 -0.297656,0.44662 -0.892969,0.44662 -1.339321,0.66966 -0.820208,0.52097 -2.457185,1.48829 -1.33932,1.93464 0.744008,0.29765 1.561041,-0.89297 2.083593,-1.11628 0.07435,-0.0743 -0.297656,0.29766 -0.148696,0.29766 0.03731,0.0185 0.09604,0.0156 0.148696,0 -0.427831,0.23706 -0.934773,0.3937 -1.116277,0.81862 -0.148696,0.29765 0.372004,0.52096 0.520965,0.81862 0.14896,0.29766 0,0.89297 0.372004,0.96732 0.595312,0.14869 2.455598,-1.48829 2.827867,-1.78594 0.372268,-0.29766 0.81862,-0.44662 1.190625,-0.66966 0.07435,-0.0743 0.297656,-0.1487 0.223308,-0.1487 -0.522552,-0.22331 -1.413933,0.0744 -1.71159,-0.44661 -0.223308,-0.37201 0.669661,-0.59532 0.967317,-0.81863 0.595313,-0.52096 3.274219,-4.16877 3.05091,-1.19062 -0.07435,0.59531 -1.413933,0.44662 -1.711589,0.96732 -0.372004,0.52096 1.413933,0.52096 1.488281,1.11627 0.148696,0.74401 -2.902214,0.89297 -3.125258,1.86029 -0.07435,0.29765 0.818621,-0.29766 0.892969,0 0.07435,0.59531 0,1.41393 -0.520965,1.78594 -0.07435,0 -3.125258,-0.74401 -3.125258,-0.1487 -0.07435,0.59531 1.041929,1.04193 0.81862,1.63724 -0.223308,0.37201 -0.744008,-0.74401 -1.190625,-0.81862 -0.297656,-0.0744 -0.66966,0.59531 -0.744008,0.29766 -0.07435,-0.44662 0.595313,-0.66966 0.595313,-1.11628 0,-0.372 -0.520965,-0.52096 -0.669661,-0.81862 -0.223308,-0.372 0,-1.26497 -0.446616,-1.11628 -0.5969,0.0744 -0.595313,0.96732 -1.04193,1.41394 -0.372004,0.44661 -1.190625,0.59531 -1.190625,1.11627 -0.07435,0.44662 0.967317,-0.59531 1.190625,-0.29765 0.297657,0.29765 -0.744008,0.29765 -1.116277,0.44661 -0.223308,0.1487 -0.446616,0.74401 -0.595312,0.52097 -0.372004,-0.44662 0.148696,-1.41394 -0.297656,-1.63724 -0.522552,-0.29766 -2.331509,0.89296 -2.406121,1.56263 -0.446617,3.20145 1.661848,-1.41553 1.959504,1.04192 0.297656,2.01084 -2.703777,0.44662 -2.778125,0.44662 -0.745596,-0.14869 0.223308,0.74401 0,0.59531 -0.223308,-0.0743 -0.744008,-0.52096 -0.595312,-0.29765 0.116152,0.40613 0.226218,0.92392 0.520964,1.26497 -0.220133,-0.17066 -0.576792,-0.22331 -0.744008,-0.44662 -0.148696,-0.2233 0.07435,-0.744 -0.148696,-0.66966 -0.446617,0.0744 -1.041929,0.52097 -0.967317,0.96732 0.07435,0.0744 0.148696,0.22331 0.223309,0.29766 -0.446617,-0.0744 -0.818621,-0.0744 -1.264973,0 -0.297657,0 -0.520965,0.52096 -0.818621,0.44661 -0.446617,-0.14869 -0.446617,-0.96731 -0.892969,-1.04193 -2.010833,-0.2233 -2.232554,0.29766 -1.711589,0.89297 0.372004,0.52097 1.33932,0.44662 1.413933,1.04193 0.148696,0.89297 -3.798094,1.41393 0.66966,1.33932 0.520965,0 1.040342,-0.14869 1.637242,-0.372 -0.820208,0.29765 -1.860285,1.11628 -1.339321,1.56263 0.372004,0.29765 1.264973,-0.44662 1.488281,0 0.223309,0.372 -0.66966,0.74401 -1.116277,0.66966 0,-0.0743 -1.116277,-1.71159 -1.637241,-1.41394 -0.297657,0.1487 0.148695,1.11628 -0.148696,0.96732 -0.372004,-0.14869 0.07435,-0.89297 -0.223309,-1.11628 -1.043252,-0.81862 -1.934633,0.74401 -2.157941,0.66966 -0.148696,0 -0.07435,-0.372 -0.223308,-0.44661 -0.297657,-0.1487 -0.669661,-0.1487 -0.967317,-0.0744 -0.223308,0 -0.520965,0.22331 -0.446617,0.29766 0.297656,0.2233 2.306902,0.89296 2.678906,1.41393 0.212461,0.26511 0.18759,0.69136 0.297657,1.01706 0.04339,0.13017 0.116152,0.23706 0.223308,0.32252 0.520965,0.37201 1.562629,-0.14869 1.71159,0.44662 0.148695,0.52097 -1.116278,-0.29765 -1.56263,0.0744 -0.148695,0.0743 -0.223308,0.29766 -0.297656,0.44662 0,-0.44662 -0.0016,-0.90065 -0.07435,-1.28985 -0.122502,-0.64955 -0.40931,-1.10992 -0.967316,-1.01706 -2.606146,0.44662 -0.967317,1.41235 -0.669661,2.90222 0,0.14869 -0.07435,0.44662 -0.297656,0.44662 -0.148696,0 0.223308,-0.29766 0.223308,-0.44662 -0.148696,-0.44662 -0.520964,-0.74401 -0.744008,-1.19063 -0.148696,-0.29765 0,-0.89297 -0.297656,-0.96731 -0.671248,-0.1487 -1.785938,0.372 -1.71159,1.04193 0,0.52096 0.148696,1.04193 0.520965,1.48828 0.223308,0.29765 1.339321,0.14869 1.190625,0.52096 -0.223309,0.44662 -0.967317,0 -1.413934,-0.22331 -0.223308,-0.14869 -0.07435,-0.66966 -0.297656,-0.66966 -0.446617,0 -0.223308,0.96732 -0.66966,1.11628 -0.07435,0 0.07435,-0.22331 0.07435,-0.29766 0,-0.52096 0.520964,-1.19062 0.148695,-1.48828 -0.297656,-0.29765 -0.148695,1.11628 -0.595312,1.11628 -0.595313,0 -0.892969,-1.19063 -1.488281,-1.11628 -0.446617,0.0744 0.520964,1.26498 0.07435,1.33932 -0.446617,0.0743 -0.446617,-0.81862 -0.669661,-1.19062 -0.148696,-0.22331 -0.892968,-0.52097 -0.892968,-0.22331 0,0.74401 1.488281,1.04193 1.33932,1.71159 -0.148695,0.52096 -1.33932,0.52096 -1.264973,1.04193 0.07435,0.44662 0.892969,-0.22331 1.339321,-0.22331 0.279136,0 0.510117,0.13494 0.768879,0.19844 0.0852,0.0201 0.179917,0.0249 0.272786,0.0249 1.041929,0.14869 3.348566,1.26497 3.720571,1.19062 2.159529,-0.14869 -1.713177,-0.89296 0.892968,-0.744 0.297657,0 0.892969,0.14869 0.669661,0.372 -1.340909,1.26497 -3.125259,-0.29766 -3.497527,0.1487 -0.148696,0.14869 0.744008,0.66966 0.446616,0.66966 -0.372004,-0.0743 -0.520964,-0.81862 -0.892968,-0.74401 -0.05107,0.0124 -0.09604,0.0606 -0.12409,0.12409 0.02778,-0.096 0.03096,-0.19844 -0.02487,-0.27279 -0.300831,-0.4527 -0.87286,-0.6776 -1.46341,-0.76888 -0.286809,-0.045 -0.576792,-0.0497 -0.843492,-0.0497 -1.117864,0.0744 -2.903802,2.00766 -1.711589,2.97656 0.372004,0.37201 1.041929,0.0744 1.488281,0.29766 0.372004,0.22331 -1.488281,0.1487 -1.339321,0.59531 0.446617,1.04193 3.943879,0.1487 3.05091,0.81862 -0.894556,0.59532 -2.157941,-0.29765 -2.902214,-0.372 -0.446617,0 -2.30849,0.81862 -0.744008,1.41393 0.372004,0.1487 0.66966,-0.372 1.041929,-0.372 0.595312,-0.0743 1.785937,-0.44662 1.711589,0.0744 0,0.59531 -1.116277,-0.0744 -1.711589,0.0743 -0.520965,0.1487 -1.190625,0.37201 -1.562629,0.89297 -0.148696,0.22331 0.967316,1.51315 1.116277,1.51315 0.81862,0.22331 1.78435,0.0744 2.604558,-0.29765 0.148696,-0.0743 0,-0.52097 0.223308,-0.44662 0.595313,0 2.902215,1.04193 2.976563,0.96732 0.148696,-0.1487 0.372004,-0.52097 0.595312,-1.04193 l 0.07435,0.0744 c 0.520965,0.29765 1.116277,0.44661 1.637242,0.74401 0.07435,0.0743 0,0.372 0.148696,0.29765 0.744008,-0.0744 1.637241,-0.29765 1.637241,-0.372 0.148696,-0.37201 -0.447939,-3.82006 1.413934,-3.07578 0.744008,0.29765 -1.339321,1.11627 -1.339321,1.93463 0,0.29766 0.07435,0.76888 0.372004,0.84349 0.446617,0.1487 1.413933,-0.81862 1.488281,-0.29766 0.520965,2.60615 -3.274219,0.14738 -3.348567,1.19063 -0.07435,0.96732 1.860286,2.15794 0.446617,2.3069 -2.308489,0.1487 -0.07276,-3.64622 -2.232554,-3.05091 -1.713177,0.44662 -0.744008,1.78594 -1.264973,1.56263 -0.520964,-0.22331 -0.595312,-0.96732 -1.116277,-1.19062 -1.638565,-0.81863 -3.125258,0.96731 -3.199871,0.89296 -0.66966,0 -1.264973,-1.11627 -1.785937,-0.744 -0.372004,0.2233 -0.892969,1.93463 -0.223309,2.3069 0.520965,0.29765 1.488282,-0.44662 2.083594,-0.52097 0.148696,-0.0743 0.297656,0.22331 0.223309,0.29766 -0.446617,0.372 -1.339321,0.372 -1.488282,0.89297 -0.07435,0.14869 0,0.29765 0,0.372 -0.446616,-0.372 -0.892968,-0.81862 -1.413933,-0.81862 -0.372004,0.0744 0.967317,1.41394 1.041929,1.56263 0.148696,0.29766 0,1.04193 0.372004,1.04193 0.223309,-0.0744 0.520965,-0.372 0.892969,-0.74401 0.595313,-0.66966 1.264973,-1.41393 1.413933,-0.59531 -0.595312,0.29766 -1.637241,0.44662 -1.637241,1.11628 0,0.29765 0.967316,1.41393 1.488281,0.89297 -0.07435,0.372 -0.223308,0.66966 -0.520965,0.744 -1.340908,0.44662 -2.455598,-0.14869 -2.38125,0.44662 0.148696,0.59531 0.372005,1.19063 0.595313,1.71159 0.892969,1.63724 1.413933,-1.63724 2.157941,-1.86029 0.669661,-0.14869 -0.520964,1.19063 -0.81862,1.78594 -0.297657,0.74401 0.07435,0.52097 0.520964,1.33932 0.07435,0.22331 0,1.04193 0.223309,0.81862 0.446616,-0.44661 0.297656,-1.19062 0.595312,-1.78593 0.223308,-0.29766 0.446617,-0.66966 0.818621,-0.89297 0.148696,-0.1487 0.372004,0.22331 0.520964,0.22331 -0.148695,0.2233 -0.297656,0.44661 -0.223308,0.59531 0,0.372 1.041929,0.29765 0.967317,0.74401 -0.07435,0.372 -0.892969,0.14869 -1.264973,0.372 -0.148696,0.1487 -0.297656,0.372 -0.446617,0.66966 0,0.1487 0.223309,0.37201 0.07435,0.44662 -0.297656,0.22331 -0.66966,-0.0744 -0.967317,0.14869 -0.223308,0.0744 -0.07435,0.44662 -0.223308,0.59532 -0.07435,0.14869 -0.520964,0.0743 -0.446616,0.14869 2.308489,2.08518 0.817033,0.0744 3.19987,0.22331 0.223309,0 -2.827866,1.33932 -2.827866,1.41393 -0.07435,0.29766 0.967316,0.29766 0.66966,0.37201 -0.148696,0.0744 -0.372004,-0.1487 -0.520964,0 -0.148696,0.0744 0.07435,0.52096 -0.07435,0.44661 -0.372005,-0.0743 -0.595313,-0.89296 -0.967317,-0.66966 -0.520965,0.22331 -0.372004,1.19063 -0.818621,1.56263 -0.297656,0.22331 -1.190625,-0.44661 -1.190625,-0.0743 0,0.2233 0.223308,0.372 0.446617,0.52096 0.297656,0.1487 0.595312,0.29766 0.744008,0.52096 0.223308,0.37201 -0.148696,1.33933 0.372004,1.33933 0.967317,0.0743 0.593725,-2.23256 1.562629,-2.52995 0.595313,-0.1487 1.488282,-0.002 1.71159,0.59531 0.148696,0.52097 -1.116277,0.66966 -1.190625,1.26497 0,0.66967 0.148696,0.66967 0.446617,0.29766 0.446616,0.44662 2.529945,-0.52096 2.232554,0.1487 -0.223309,0.52096 -1.116277,0.29765 -1.562629,0.59531 -0.372005,0.1487 -0.744009,0.372 -0.892969,0.74401 -0.07435,0.22331 0.744008,0.0744 0.595312,0.22331 -0.297656,0.372 -1.413933,0.2233 -1.33932,0.744 0.148695,0.37201 0.223308,0.74401 0.372004,1.11628 -0.148696,-0.14869 -0.297657,-0.29765 -0.446617,-0.14869 -0.372004,0.14869 -0.446617,1.11627 -0.744008,0.89296 -0.595313,-0.2233 -0.148696,-1.48828 -0.744009,-1.63724 -0.520964,-0.14869 0.07435,0.96732 0,1.41394 -0.148695,0.52096 -0.66966,0.81862 -0.66966,1.26497 -0.07435,0.52096 0.818621,2.4556 1.339321,2.75325 0.297656,0.1487 0.744008,0 0.967316,0.22331 0.446617,0.29766 0.96573,1.63724 1.860286,2.00925 0.446617,0.22331 0.892969,0.52096 1.339321,0.44661 0.372004,-0.0743 0.297656,-0.744 0.595312,-0.81862 0.297656,-0.0746 0.818621,0.22331 0.744009,0.52097 -0.223309,0.52096 -2.680494,1.33932 -1.413934,1.93463 0.595313,0.22331 1.190625,0.44662 1.785938,0.372 0.446616,0 0.892968,-0.96731 1.116277,-0.59531 0.148696,0.44662 -1.116277,0.74401 -0.818621,1.11628 0.297656,0.37227 0.892969,-0.44662 1.413933,-0.44662 1.041929,0 0.818621,0.66966 1.562629,0.22331 0.223309,-0.0744 0.297657,-0.372 0.520965,-0.44662 0.297656,-0.14869 0.818621,0.22331 1.116277,0 0.372004,-0.29765 0.148696,-1.26497 0.66966,-1.41393 0.520965,-0.14896 0.595313,1.11628 1.04193,0.96732 0.595312,-0.0743 0.520964,-1.04193 0.967316,-1.41394 0.148696,-0.14869 0.372004,0.29766 0.520965,0.1487 0.07435,-0.0743 2.009246,-2.38125 2.38125,-2.90221 0.07435,-0.1487 -0.223309,-0.29766 -0.148696,-0.44662 0.372004,-1.56422 0.992187,2.38284 1.438804,-0.66966 0.07435,-0.29766 -0.892969,-0.37201 -0.66966,-0.66966 0.372004,-0.37201 1.339321,0 1.711589,-0.44662 0.223309,-0.22331 -0.595312,-0.52096 -0.520964,-0.81862 0.223308,-0.74401 2.232554,-0.89297 2.157941,-1.11628 -0.223308,-0.52096 -1.190625,-0.81862 -0.967316,-1.33932 0.223308,-0.372 0.892968,0.44662 1.264973,0.66966 0.297656,0.22331 -0.07435,0.96732 0.297656,0.96732 3.126846,0 0.742685,-0.81862 2.009246,-1.63724 0.223308,-0.1487 -0.148696,0.81862 0.148695,0.81862 0.595313,0 -0.07435,-1.26497 0.446617,-2.23255 0.148696,-0.1487 0.297656,0.29765 0.446617,0.29765 0.14896,0 0.148696,-0.22331 0.148696,-0.29765 0.446616,-1.04326 0,-0.22331 -0.595313,-1.78594 -0.148696,-0.37201 0.297656,-1.04193 0.148696,-1.33932 -0.223308,-0.52097 -0.967317,-0.89297 -0.892969,-1.48828 0.07435,-0.37201 0.818621,0.29765 1.041929,0.66966 0.148696,0.372 -0.07435,0.89296 0,1.33932 0,0.0743 0.07435,0.14869 0.148696,0.14869 1.860286,-1.26656 -1.340908,-3.57187 0.520965,-3.57187 0.520964,0 -0.148696,0.96731 -0.07435,1.41393 0.148696,0.74401 0.372004,1.41393 0.520964,2.15794 0,0.0744 0.07435,0.1487 0.07435,0.29766 -0.148695,-0.1487 -0.297656,0.96732 0.148696,1.63724 0,0 0.446617,-0.44662 0.446617,0 0,0.29766 -0.446617,0.74401 -0.223308,0.96732 2.457185,2.30849 1.635654,-1.34091 3.19987,1.11627 0.223309,0.29766 0.669661,0.89297 0.372004,1.11628 -0.07435,0.0743 -0.07435,0.0743 -0.148695,0.0743 0.223308,0.74401 0.520964,1.48828 1.190625,0.52096 1.637241,-2.30849 -0.446617,-5.28346 0,-6.62278 0.148695,-0.52097 0.892968,-0.59531 1.116277,-1.04193 0.148696,-0.29766 0,-0.66966 -0.148696,-0.96732 0,-0.22331 -0.372004,-0.29765 -0.297656,-0.44661 0.148695,-0.52097 2.529945,-0.66966 3.19987,-2.38125 l -0.07435,-2.15795 c 0.81862,-4.24471 -1.116278,-3.42159 -1.488282,-6.62278 -0.07435,-0.74401 1.413934,-0.37201 2.009246,-0.89297 l 0.816504,-3.00011 c -0.297656,-1.86187 -3.125258,-1.71159 -3.571875,-3.42318 -0.372004,-1.56422 0.818621,-3.64622 0.669661,-5.28346 -0.148696,-1.11787 -1.339321,-2.0836 -1.413934,-3.19987 -0.07435,-0.44662 0.297657,-0.96732 0.297657,-1.41394 -0.07435,-0.52096 -0.372005,-0.96731 -0.297657,-1.48828 0,-0.44662 0.520965,-0.74401 0.520965,-1.19062 0,-9.0088 -1.116277,6.62754 -1.116277,-2.38125 0,-0.81862 1.041929,-1.33932 1.116277,-2.15795 0.07435,-0.29765 -0.372004,-0.59531 -0.297656,-0.96731 0.223308,-1.19221 1.858698,-3.72057 2.827866,-4.31589 3.052498,-1.93622 5.060157,1.56422 5.581121,-1.93463 0.520965,-3.64781 -2.604558,-2.90221 -2.157942,-4.24153 0.669661,-2.08519 1.71159,-4.1656 2.38125,-6.17644 0.07435,-0.29765 0.446617,-0.372 0.520965,-0.66966 l -0.223308,-2.75325 c 0,-0.0743 0.372004,-2.3069 0.372004,-2.3069 l -0.744273,-2.92709 c 0.297656,-0.66966 1.488281,0 2.083594,-0.29766 l 1.637241,-1.41393 c 0.223309,-0.66966 -0.744008,-1.26497 -0.595312,-1.93463 0.446616,-1.34091 2.902214,-4.24154 3.348566,-5.506507 0.818621,-2.010833 -1.116277,-2.157941 -1.413933,-3.795183 -0.223308,-1.340908 0.595313,-0.520964 1.041929,-1.041929 0.595313,-0.745067 0.595313,-1.785937 0.744009,-2.604558 0.07435,-0.596371 1.488281,-3.199871 1.934633,-3.199871 l 2.38125,1.041929 c 1.488281,-0.596371 -0.372004,-4.836848 0.07435,-5.43216 1.041929,-1.340909 6.176433,1.190625 6.846093,0.744008 2.457186,-1.564217 -0.148695,-1.413933 -0.223308,-2.083594 -0.223308,-0.894556 1.041929,-1.562629 1.041929,-2.455598 0,-0.522022 -0.148696,-1.041929 -0.372004,-1.488281 -0.22331,-0.373206 -1.190627,-0.595456 -0.967319,-0.96746 0.297657,-0.522023 1.116278,-0.148696 1.71159,-0.297657 h 0.148696 c -0.07435,0 -0.148696,-0.07435 -0.223308,-0.148696 -0.07435,-0.148695 0.297656,-0.372004 0.520964,-0.372004 0.446617,0 0.818621,0.520965 1.264973,0.446617 0,0 -1.340908,-4.466431 1.637242,-2.753254 0.892968,0.520964 2.629429,2.826279 3.150129,3.720571 0.223308,0.372004 0.07435,0.966258 0.446616,1.264973 0.297657,0.223308 0.818621,-0.148696 1.190625,-0.148696 1.264973,-0.223309 2.454011,0.744008 3.348567,-0.818621 0.223308,-0.298715 0,-0.892969 0.297656,-1.190625 0.223309,-0.298715 2.976563,0.66966 3.199871,0.818621 0.148696,0.07435 1.116277,0.967316 1.116277,0.892968 0.07435,-0.298714 0.372004,-0.446616 0.446617,-0.744008 0.297656,-1.26656 -0.671248,-1.562629 0.372004,-2.604558 0.892969,-0.819679 1.562629,0.968375 1.190625,-1.637242 -0.07435,-0.596371 -0.595313,-1.041929 -0.818621,-1.637241 -0.07435,-0.447411 -0.148696,-0.818621 -0.148696,-1.264973 0,-0.223309 0.148696,-0.372005 0.148696,-0.595313 -0.07435,-0.522023 -0.520964,-2.455598 -0.297656,-3.05091 0,-0.07435 0.818621,-1.637242 0.892969,-1.71159 0.07435,-0.298714 -0.07435,-0.66966 0.07435,-0.892969 1.264972,-1.41552 0.817033,0.148696 1.934633,-0.148695 1.264973,-0.373063 0.965729,-2.108465 2.455598,-2.406121 v -0.148696 c 0,0.07435 0.07435,0.07435 0.07435,0.148696 0.07435,-0.07435 0.148695,-0.07435 0.223308,-0.07435 l 0.07435,0.372004 c 1.934642,2.084652 4.239952,1.13956 5.729822,3.745442 0.96732,1.637241 -2.38284,3.495939 0.44662,4.613804 1.04192,0.372004 0.14869,-2.827867 0.14869,-2.902215 0.37201,-0.894556 3.19987,-2.604558 1.78594,-3.795183 -0.74401,-0.670719 1.56104,0.520965 2.4556,0.223308 0.89297,-0.298714 -0.1487,-1.736196 -0.59532,-2.331508 h -0.2233 c -0.59532,0.07435 -1.19063,0.223308 -1.78594,0.07435 -0.16748,0 -0.12409,-0.342636 -0.12409,-0.446617 -0.003,0.0032 -0.0201,-0.0093 -0.0249,0 -0.1487,0.446617 -0.22331,0.891911 -0.1487,1.413934 0,0.223308 0.59531,0.446616 0.44662,0.520964 -0.59531,0.223308 -1.33932,-0.148696 -1.86029,0.07435 -0.0743,0.07435 -0.14869,0.148696 -0.22331,0.297656 0.22331,-0.745066 0.37201,-1.934633 -0.14869,-2.083593 -0.44662,-0.07435 -0.74401,1.33932 -0.96732,0.967316 -0.22331,-0.44741 0.96732,-0.967316 0.66966,-1.339321 -0.372,-0.522023 -1.19062,-0.07435 -1.78593,-0.148695 -0.0743,0 -0.1487,-0.07435 -0.22331,-0.148696 -0.37201,-0.07435 -0.66966,-0.148696 -1.04193,-0.148696 -0.21246,0 -0.61225,0.167481 -0.74401,0.223308 1.33932,-1.489868 3.34698,-0.372004 4.98581,-1.190625 0.59531,-0.298714 0.22331,-1.339321 0.66966,-1.934633 0.22331,-0.373063 0.74401,-0.446617 1.11628,-0.66966 0.14869,-0.148696 0.52096,-0.148696 0.44661,-0.297657 -0.29765,-0.44741 -0.89297,-0.66966 -1.26497,-0.967316 -0.1487,-0.07435 -0.22331,-0.223309 -0.29766,-0.297657 -0.22331,-0.07435 -0.52096,-0.07435 -0.74401,-0.223308 -0.0743,-0.07435 0.0743,-0.372004 -0.0743,-0.372004 -0.44662,0.07435 -0.81862,0.446617 -1.26498,0.595312 -0.14869,0.07435 -0.59531,0.148696 -0.52096,0 0.372,-0.968904 2.15953,-1.041929 -0.29766,-1.785937 -4.765676,-1.489869 2.53154,1.637242 -2.3069,1.413933 -0.0743,0 -0.96732,-3.275806 -2.306905,-1.562629 -0.297657,0.446617 -0.223309,2.975504 -0.148696,3.274219 0,0 1.116277,0.370946 0.66966,0.818621 -0.148696,0.07435 -0.446617,-0.148696 -0.595312,-0.07435 0,-0.07435 -0.07435,-0.148696 -0.148696,-0.223309 -0.446617,-0.298714 -1.190625,1.04193 -1.488281,0.595313 -0.297657,-0.522023 0.595312,-1.041929 0.81862,-1.562629 0.07435,-0.373063 0.297657,-1.116277 -0.07435,-1.041929 -0.520964,0.148695 -0.744008,0.966258 -1.190624,1.33932 -0.07435,0.148696 -0.595313,0.520965 -0.520965,0.372005 0.223308,-0.447411 2.678906,-3.646223 1.785937,-4.241536 -1.192212,-0.819679 -1.637241,-0.297656 -2.232554,-0.07435 -0.325966,0.194204 -0.763058,-0.635264 -0.918104,-0.596371 z m -5.928254,0.843228 c -0.846402,0.0077 -1.378215,0.722312 0.297656,2.356379 0.372004,-0.447411 1.413934,-0.595313 1.339321,-1.190625 -0.130175,-0.7493 -0.979752,-1.17184 -1.636977,-1.165754 z m -6.176433,5.035285 c -0.671248,0.446617 -1.413934,0.668602 -1.860286,1.264973 -0.148695,0.148696 0.372005,0.446616 0.223309,0.595312 -0.671248,0.967317 -0.372004,-0.892968 -1.041929,-0.595312 -0.150284,0.07435 0.148695,0.446616 0,0.520964 -0.224896,0 -0.24818,-0.372004 -0.396875,-0.446616 -0.299244,-0.07435 0.520964,0.744008 0.223308,0.967316 -0.224896,0.148696 -0.372004,-0.372004 -0.669661,-0.372004 -0.07435,0 0.07435,0.148696 0.07435,0.223308 0.148696,0 0.297657,0.07435 0.372005,0.148696 0.223308,0.446617 -0.297657,0.966259 -0.446617,1.413934 1.785937,-0.297657 2.627842,-0.967317 3.224742,-2.604559 0.148695,-0.297656 0.446616,-0.595312 0.520964,-0.892968 0,-0.06985 -0.240242,-0.08784 -0.272785,-0.148696 0.01852,-0.0093 0.04948,-0.03704 0.04948,-0.07435 z m 6.126691,2.034117 c -0.120914,0.02778 -0.28522,0.04974 -0.396875,0.04974 0.11483,-2.64e-4 0.260615,-0.01561 0.396875,-0.04974 z m -10.517187,0.173566 c 0.0016,0.0032 0.01243,0.0061 0.04974,0.02487 h 0.297656 c -0.224896,0 -0.355071,-0.03572 -0.347398,-0.02487 z m -3.075781,4.688152 c -0.03096,0.0016 -0.05583,0.03096 -0.07435,0.04974 -0.373592,0.148696 -0.818621,0.297656 -0.967317,0.595312 -0.150283,0.372005 0.223309,0.743215 0.297656,1.116277 0.297657,-0.522022 0.668073,-1.041929 0.892969,-1.637241 0.05583,-0.05583 -0.059,-0.132027 -0.14896,-0.12409 z m -2.455598,2.50534 c -0.07435,0.148696 0,0.223308 0,0.372004 0,-0.07435 0.07435,-0.148696 0.07435,-0.223308 z m -1.463411,0.396875 c -0.934772,-0.05371 -2.220118,0.299773 -2.480468,1.017058 -0.150284,0.520965 1.040341,0.668602 1.413933,1.116277 2.889779,-1.341173 2.268008,-2.065337 1.066535,-2.133335 z m 5.035286,8.979164 h 0.07435 z m 0.223308,0.07435 h 0.148696 z m 0.372004,0.07461 h 0.07435 z m 0.223309,0.07435 0.07435,0.07435 c 0,-0.07435 0,-0.07435 -0.07435,-0.07435 z M 57.539949,82.13857 c -1.100667,0.131763 -2.153444,1.580357 -1.984375,2.529946 0.07435,0.446617 0.370416,-0.818621 0.744008,-0.967316 0.446617,-0.297657 1.413933,0.297656 1.339321,-0.595313 0,-0.44741 1.116277,-0.224896 -0.818621,1.339321 0.372004,0.148696 0.668073,0.520965 0.967317,0.446617 2.678906,-1.117865 0.744008,-1.04193 0.595312,-1.860286 -0.07435,-0.223308 0.372004,-0.372004 0.223308,-0.520964 -0.33602,-0.316177 -0.700352,-0.416984 -1.06627,-0.372005 z m 4.539191,5.208853 c 0.322527,0.109537 0.832379,0.111654 1.066536,0.297656 0.148696,0.148696 0.148696,0.372004 0.223308,0.595312 C 62.945915,87.871562 62.465167,87.4731 62.07914,87.347423 Z m -8.681508,0.520964 c -0.13335,0.0093 -0.274373,0.0418 -0.446617,0.07435 -0.447939,0.07435 -0.148695,0.89191 -0.297656,1.339321 -0.07435,0.297656 -0.297656,0.520964 -0.446617,0.818621 0,0.07435 0.148696,0.07435 0.148696,0.148695 0.837407,-0.20902 3.039004,-2.523595 1.042194,-2.380985 z m 7.540625,0.09922 c -0.01244,0 -0.01693,0.0217 -0.02487,0.04974 -0.224896,0.520964 0.148696,1.338527 -0.297656,1.711589 -0.07435,0 -2.97815,-1.340908 -2.009246,0.595313 0.148696,0.372004 0.742685,0 1.190625,-0.07435 0.223308,0 0.445029,0.07435 0.744008,-0.07435 0.07435,0 0.07435,-0.372004 0.148696,-0.297657 0.148696,0.07435 -0.07594,0.372005 0.07435,0.446617 0.195263,0.130175 0.555096,-0.190764 0.645054,-0.124089 -0.0093,-0.02011 -0.04974,-0.09155 -0.04974,-0.09922 -0.148696,-0.373063 0.148695,-0.818621 0.148695,-1.264973 0,-0.07435 -0.223308,0.07435 -0.297656,0 -0.06456,-0.260879 -0.193146,-0.871802 -0.272256,-0.868627 z m 28.426039,3.323696 h 0.07435 z M 45.360913,121.60276 c -0.5969,0.0743 -1.26656,0.0743 -0.744008,0.1487 0.223044,2.6e-4 0.444765,-0.0743 0.744008,-0.1487 z M 34.27302,131.79742 c -0.07435,-0.0743 -4.194969,1.71159 -1.066536,1.26497 0.297657,-0.0743 0.692944,-0.0743 0.992188,-0.14869 0.07435,0 0.223308,-0.0744 0.297656,-0.1487 -0.07435,-0.37227 0.148961,-0.89297 -0.223308,-0.96758 z m -1.43854,8.18568 c 0.148696,-0.0744 -0.372004,0.22331 -0.297656,0.29766 0.148696,0.14869 0.818621,-0.1487 0.66966,0 -0.299243,0.22331 -1.116277,-0.0743 -1.116277,0.29765 0.07435,0.59532 1.488282,0.81862 1.264973,1.33932 -0.299244,0.52097 -1.264973,-0.14869 -1.637241,-0.52096 -0.299244,-0.22331 0.148695,-0.66966 0,-0.96732 -0.01852,-0.0466 -0.0217,-0.0884 -0.04974,-0.12409 0.05741,0.0527 0.127,0.0836 0.198437,0.12409 0.298186,0.14896 0.594255,-0.372 0.967846,-0.44635 z m -12.501562,11.23633 c -0.09446,0.35189 -0.05583,0.96731 -0.223308,0.744 -0.150284,-0.19976 0.108479,-0.4773 0.223308,-0.744 z m -3.571875,17.43789 v 0.0744 0.0743 c 0,0.0743 -0.148696,0.14869 -0.223308,0.2233 -0.441855,1.09141 1.019968,3.05091 0.595312,0 0,-0.14896 -0.223308,-0.2233 -0.372004,-0.372 z m -0.223308,0.372 c 0.07435,-0.0743 0.07435,-0.14869 0.07435,-0.14869 -0.03254,0.0479 -0.05424,0.0944 -0.07435,0.14869 z m -0.892969,5.08503 c -0.02011,0.0217 -0.07435,0.0635 -0.07435,0.12409 0.07435,-0.0744 0.07435,-0.0744 0.148696,-0.0744 -0.03704,-2.6e-4 -0.06509,-0.0312 -0.07435,-0.0497 z m 0.07435,0.0495 -0.148696,0.14869 c -0.148696,0.89297 -0.5969,3.64623 0.223308,2.15795 0.372004,-0.74375 0.07435,-1.56237 -0.07461,-2.30664 z" />
  </g>
</svg>
