<?xml version="1.0" encoding="UTF-8" standalone="no"?>
<!-- Created with Inkscape (http://www.inkscape.org/) -->

<svg
   width="210mm"
   height="297mm"
   viewBox="0 0 210 297"
   version="1.1"
   id="svg2692"
   inkscape:version="1.1.1 (3bf5ae0d25, 2021-09-20)"
   sodipodi:docname="otherGermanStates2.svg"
   xmlns:inkscape="http://www.inkscape.org/namespaces/inkscape"
   xmlns:sodipodi="http://sodipodi.sourceforge.net/DTD/sodipodi-0.dtd"
   xmlns="http://www.w3.org/2000/svg"
   xmlns:svg="http://www.w3.org/2000/svg">
  <sodipodi:namedview
     id="namedview2694"
     pagecolor="#ffffff"
     bordercolor="#666666"
     borderopacity="1.0"
     inkscape:pageshadow="2"
     inkscape:pageopacity="0.0"
     inkscape:pagecheckerboard="0"
     inkscape:document-units="mm"
     showgrid="false"
     inkscape:zoom="1.5001964"
     inkscape:cx="482.60348"
     inkscape:cy="264.96531"
     inkscape:window-width="1920"
     inkscape:window-height="1027"
     inkscape:window-x="1912"
     inkscape:window-y="-8"
     inkscape:window-maximized="1"
     inkscape:current-layer="layer1" />
  <defs
     id="defs2689" />
  <g
     inkscape:label="Ebene 1"
     inkscape:groupmode="layer"
     id="layer1">
    <g
       id="g389"
       transform="matrix(0.26458333,0,0,0.26458333,-68.644234,-112.30906)">
      <path
         id="path6036"
         fill="#c0c0c0"
         stroke="#000000"
         stroke-width="0.5"
         d="m 551.418,824.59 v 0.094 c 0.059,0 0.199,-0.016 0.469,0 -0.152,-0.094 -0.316,-0.024 -0.469,-0.094 z" />
    </g>
    <g
       id="g395"
       transform="matrix(0.26458333,0,0,0.26458333,-68.644234,-112.30906)">
      <path
         id="path5731"
         fill="#c0c0c0"
         stroke="#000000"
         stroke-width="0.5"
         d="m 545.606,820.559 0.469,-2.156 -0.656,2.062 c 0.04,0.008 0.099,0.07 0.187,0.094 z" />
    </g>
    <g
       id="g398"
       transform="matrix(0.26458333,0,0,0.26458333,-68.644234,-112.30906)">
      <path
         id="path5833"
         fill="#c0d7f8"
         stroke="#000000"
         stroke-width="0.5"
         d="m 603.356,775.559 c -0.334,0.102 -0.668,0.336 -1.031,0.562 -0.088,0.055 -0.246,0.129 -0.375,0.188 0.469,0.75 0.867,1.297 0.562,1.781 -0.334,0.535 -0.592,0.008 -0.656,0.469 -0.07,0.465 -0.281,0.75 -0.281,0.75 l 0.75,0.281 -0.281,0.094 0.281,0.844 0.938,-0.188 c 0,0 -0.082,-0.578 0.188,-0.844 0.264,-0.262 1.125,0.281 1.125,0.281 l 0.938,-1.312 h 2.062 c 0.527,0 0.41,-0.93 0.281,-1.594 -0.135,-0.66 -0.779,-1.441 -0.844,-0.844 -0.07,0.598 0.029,0.336 -0.562,0.469 -0.598,0.137 -1.564,-0.059 -2.156,-0.656 -0.301,-0.297 -0.611,-0.379 -0.939,-0.281 z m -8.25,1.406 c -0.123,-0.016 -0.199,0.031 -0.281,0.094 -0.334,0.266 -0.281,0.832 0.188,1.031 0.217,0.094 0.059,0.5 -0.094,0.938 0.463,0.023 0.152,-0.496 0.469,-0.188 0.393,0.398 0.938,0.113 0.938,-0.75 0,-0.504 -0.193,-0.656 -0.188,-0.844 -0.493,-0.086 -0.81,-0.246 -1.032,-0.281 z m -1.782,4.219 c -0.076,0.023 -0.141,0.082 -0.188,0.281 -0.094,0.359 -0.252,0.523 -0.375,0.656 -0.018,0.02 0.012,0.082 0,0.094 -0.006,0.082 0,0.219 0,0.281 0,0.727 0.352,1.125 0.75,1.125 0.393,0 0.375,-0.844 0.375,-0.844 l 0.562,-0.188 0.094,-0.094 c -0.088,-0.133 -0.188,-0.27 -0.281,-0.375 -0.397,-0.444 -0.72,-0.999 -0.937,-0.936 z m 10.032,16.125 -1.312,0.656 0.938,1.312 -0.844,0.656 -0.094,1.219 -0.844,0.562 -0.188,-0.75 h -0.375 l -0.094,1.125 1.219,0.375 0.469,-0.469 0.469,0.094 0.094,0.469 -0.656,0.188 0.094,0.469 0.75,-0.094 0.094,0.75 -0.75,0.844 v 0.469 l -0.469,0.188 v 0.562 l 0.75,0.844 0.562,-0.094 -1.312,1.312 v 0.75 l -0.562,0.188 -0.188,-0.094 c 0.164,0.504 0.445,1.102 0.656,1.219 0.328,0.188 1.828,0.188 2.156,0 0.328,-0.188 0.656,-0.703 1.125,-0.75 0.469,-0.047 0.562,0.094 0.562,0.094 l 0.088,-1.125 0.281,-0.375 -0.188,-0.281 0.188,-0.281 -0.281,-0.656 1.688,-0.188 v -0.844 h 0.094 l 1.312,-3 0.469,0.188 0.562,-1.219 1.688,-0.656 v 0.281 l 0.281,-0.375 c 0,0 -0.188,-0.785 -0.656,-0.656 -0.463,0.137 -0.896,-0.246 -1.031,-0.844 -0.129,-0.598 -0.574,0.562 -0.844,0.094 -0.264,-0.461 0.844,-1.781 0.844,-1.781 0,0 -0.064,-0.234 -1.125,0.094 -1.061,0.336 -0.375,1.125 -0.375,1.125 l -1.594,1.688 -1.031,-0.562 c 0,0 -0.762,-1.305 -1.031,-1.969 -0.088,-0.227 -0.328,-0.402 -0.562,-0.562 l -0.094,0.656 -1.031,-0.094 0.094,-0.75 h 0.004 z m -4.688,2.625 c -0.088,0.211 -0.199,0.375 -0.375,0.375 -0.422,0 -0.562,0.281 -0.562,0.281 v 0.562 c 0.082,-0.094 0.094,-0.188 0.094,-0.188 l 0.088,0.188 c 0,0 0.369,0.07 0.562,-0.094 0.199,-0.164 -0.053,-0.648 0.375,-0.75 l -0.088,-0.375 h -0.094 z m 15,2.718 -0.562,0.281 v 1.219 l -1.125,0.188 v -0.938 l -0.656,0.281 -0.375,1.312 -0.375,-0.656 -0.938,0.844 c 0,0 1.629,1.906 2.719,2.625 0.539,0.363 1.002,0.504 1.312,0.844 0.135,0.152 0.035,0.664 0.094,0.938 l 1.031,-0.094 -0.562,-2.344 0.375,-1.031 -0.75,-1.406 -0.094,-0.656 z m 2.625,3.469 -0.938,0.938 0.562,0.188 0.562,0.375 z" />
    </g>
    <g
       id="g401"
       transform="matrix(0.26458333,0,0,0.26458333,-68.644234,-112.30906)">
      <path
         id="path5830"
         fill="#c0f5c5"
         stroke="#000000"
         stroke-width="0.5"
         d="m 627.637,791.402 c -0.164,-0.027 -0.328,0 -0.469,0.094 -0.562,0.375 -0.516,-0.188 -1.031,0.094 -0.515,0.282 -0.375,1.031 -0.375,1.031 0,0 -0.797,-0.516 -1.219,-0.656 -0.047,-0.012 -0.059,-0.07 -0.094,-0.094 l -0.562,0.469 0.844,1.125 -0.938,0.469 0.375,0.562 c 0,0 -1.031,-0.328 -1.312,0 -0.281,0.328 -0.188,0.656 -0.188,0.656 l 3.188,1.688 c 0,0 0.938,-0.609 1.406,-0.656 0.468,-0.047 0.75,0.656 1.219,0.75 l 0.469,0.094 c 0,0 0.047,-0.75 -0.281,-1.125 -0.328,-0.375 -0.188,-0.984 0.188,-1.406 0.376,-0.422 0.375,-1.125 0.375,-1.125 0,0 0.75,0.281 0.75,-0.188 0,-0.469 0.328,-0.844 -0.188,-1.031 -0.152,-0.051 -0.387,-0.203 -0.562,-0.469 -0.029,0.02 -0.07,-0.016 -0.094,0 -0.458,0.281 -1.015,-0.192 -1.501,-0.282 z m -0.469,8.625 c -0.281,0.129 -0.504,0.312 -0.562,0.562 -0.258,1.027 -1.389,1.648 -2.156,2.156 -0.773,0.516 -0.381,-0.766 -2.812,0 -0.328,0.105 -0.451,0.176 -0.656,0.281 0.457,0.949 -0.111,0.945 -0.281,1.688 -0.188,0.797 0.047,0.938 -0.188,1.781 -0.235,0.843 -1.125,0.797 -1.688,1.312 -0.563,0.515 0.703,1.125 0,1.5 -0.703,0.375 -0.609,0.281 -0.75,-0.281 -0.141,-0.562 -0.938,0.328 -1.219,-0.281 -0.281,-0.609 0.141,-1.312 0.656,-1.406 0.146,-0.023 0.158,-0.133 0.094,-0.281 -0.264,0.008 -0.516,-0.027 -0.844,0 -0.123,0.012 -0.258,-0.039 -0.375,-0.094 l 0.094,0.656 -0.562,-0.375 -0.562,-0.188 0.469,-0.469 c -0.34,-0.34 -0.562,-0.75 -0.562,-0.75 l -0.75,0.656 -0.281,0.656 0.562,2.344 h -0.375 l -0.656,0.094 c 0.064,0.34 0.258,0.48 0.188,1.125 l -0.375,1.594 1.312,0.844 6.844,-1.312 0.188,0.844 h 2.344 l 0.281,-1.219 -1.406,-0.938 c 0,0 1.465,0.066 1.594,-1.219 0.123,-1.277 -1.957,-0.926 -1.312,-2.719 0.387,-1.094 1.289,-1.852 2.062,-2.344 0.041,-0.352 0.059,-0.633 0,-0.75 -0.234,-0.422 -0.375,-0.75 0.088,-1.031 0.469,-0.281 0.562,0.094 1.031,0.469 0.182,0.148 0.059,0.457 -0.088,0.844 0.018,0.059 0.1,0.43 0.188,0.844 0.346,-0.223 0.539,-0.375 0.844,-0.562 0.604,-0.375 0.604,-0.562 0.375,-0.938 -0.234,-0.375 -0.094,-0.422 0.469,-0.656 0.557,-0.234 0.516,-0.562 0.088,-0.938 -0.422,-0.375 -1.219,0.281 -1.219,0.281 l -0.562,-0.469 0.938,-0.375 -0.469,-0.938 h 10e-4 z" />
    </g>
    <path
       id="path5564"
       fill="#ecd3f2"
       stroke="#000000"
       stroke-width="0.132292"
       d="m 95.632116,95.619306 -0.520965,0.248179 -0.07435,-0.07435 -0.396875,0.09922 0.02487,0.198438 c 0,0 -0.28522,0.06191 -0.322527,0.248179 -0.03731,0.186266 -0.01243,0.372004 0.223309,0.372004 0.235743,0 0.223308,-0.186002 0.496093,-0.148696 0.148696,0.02064 0.350309,-0.02487 0.496094,-0.07435 l -0.02487,-0.173566 0.347134,-0.148696 -0.198438,-0.09922 -0.173567,0.07435 -0.124089,-0.09922 0.248179,-0.124089 z m -10.244402,1.860286 c -0.106892,0.0082 -0.218546,0.04233 -0.322527,0.124089 l 0.148696,0.272786 0.272785,-0.09922 c 0,0 -0.07911,-0.0971 0,-0.12409 0.07752,-0.02593 0.245004,-0.05265 0.148696,-0.124089 -0.04921,-0.03387 -0.142081,-0.05662 -0.24765,-0.04948 z m 5.655469,0.446616 c -0.0093,0.01561 -0.0093,0.03307 -0.02487,0.04974 -0.111654,0.111654 -0.186002,0.124089 -0.09922,0.272785 0.04339,0.07435 0.05265,0.116682 0,0.148696 l 0.347133,0.297656 c 0.02937,0.0217 0.04657,0.04974 0.07435,0.07435 0.100807,-0.04974 0.285221,-0.130175 0.396875,-0.148696 0.148696,-0.02487 0.136525,-0.161131 0.12409,-0.297656 -0.01243,-0.136525 -0.198438,-0.173566 -0.446617,-0.173566 -0.159279,0 -0.278606,-0.12409 -0.371739,-0.223309 z m -5.085027,0.297656 -0.148696,0.09922 -0.173567,0.09922 -0.297656,0.04974 -0.148696,0.297656 0.12409,0.09922 c 0,0 -0.224896,0.0889 -0.198438,0.272785 0.02487,0.184944 0.04339,0.290512 0.272786,0.421746 0.227806,0.132291 0.297656,0.198437 0.297656,0.198437 l -0.446617,0.02487 -0.02487,0.471222 0.09922,0.12409 -0.173567,0.12409 0.02487,0.1487 0.198438,0.12409 c 0,0 -0.09155,0.20452 0.04974,0.24817 0.139436,0.0455 0.209286,-0.0135 0.297657,0.0992 0.08678,0.11483 0.05106,0.2376 0,0.29766 -0.05265,0.0619 -0.04657,-0.0434 -0.12409,0.1487 -0.01085,0.027 -0.03572,0.0434 -0.04974,0.0743 0.0032,0.006 -0.0048,0.0185 0,0.0249 0.01693,0.0363 0.03731,0.0733 0.04974,0.12409 0.02487,0.12304 0.703792,0.53631 0.818621,0.57045 0.113242,0.0362 0.25109,0.0775 0.322527,0.17356 0.06985,0.0961 -0.158221,0.24712 0,0.27279 0.03572,0.006 0.164306,0.0363 0.272785,0.0497 0.02937,0.14155 0.02487,0.24818 0.02487,0.24818 0,0 0.25109,0.0619 0.446617,0.12409 0.08837,0.0299 0.159808,0.0331 0.198437,0.0744 0.11774,0.13652 0.372005,0.12409 0.372005,0.12409 l 0.02328,0.0249 c 0.01852,0.0175 0.120915,0.12911 0.198437,0.39687 0.0852,0.2884 0.148696,0.62018 0.148696,0.62018 l 0.744009,0.37201 -0.07276,-0.44662 0.545571,0.0743 0.02328,-0.59531 -0.79375,-0.42175 -0.02328,-0.32253 c 0.08361,-0.0722 0.279135,-0.245 0.372004,-0.17356 0.111654,0.0868 0.198438,0.0868 0.396875,-0.0249 0.198438,-0.11166 0.359569,0.11165 0.496094,0.0249 0.136525,-0.0868 0.223308,-0.0868 0.297656,0.0992 0.07276,0.186 0.148696,0.16113 0.297656,0.19843 0.148961,0.0373 0.50853,-0.12409 0.496094,-0.2233 -0.0016,-0.007 0,-0.0373 0,-0.0497 0.05265,-0.0124 0.110067,-0.007 0.148696,0 0.170656,0.0392 0.334962,0.059 0.272785,0.24818 0.0093,0.006 0.01561,0.0206 0.02328,0.0249 -0.01402,0.0185 -0.03413,0.031 -0.04974,0.0498 -0.07752,0.0992 -0.147373,0.22225 -0.12409,0.29765 0.04022,0.127 0.348721,0.19844 0.446617,0.22331 0.0048,-0.032 0.01852,-0.0497 0.02487,-0.0743 0.0077,-0.0259 0.01561,-0.063 0.02487,-0.0743 0.04022,-0.0384 0.40296,-0.0619 0.744008,-0.0992 -0.06059,-0.0939 -0.134937,-0.19632 -0.09922,-0.29766 0.01693,-0.0466 0.02646,-0.10345 0.02487,-0.17357 -0.0016,-0.0693 -0.01402,-0.15293 -0.02487,-0.22331 -0.02011,-0.13758 -0.04974,-0.24817 -0.04974,-0.24817 l 0.07435,-0.0743 h -0.09922 l -0.248179,-0.37201 c 0,0 0.181504,-0.1053 0.396875,-0.27278 0.145785,-0.11166 0.204523,-0.13018 0.272785,-0.17357 l 0.471223,0.47122 -0.04974,0.17357 0.09922,0.0743 0.223308,0.14869 0.09922,-0.42174 c 0.03731,-0.31115 0.0077,-0.45588 -0.07435,-0.54557 -0.0807,-0.09 -0.2032,-0.127 -0.347133,-0.22331 -0.286808,-0.19235 -0.719402,-0.69453 -0.719402,-0.69453 l 0.248179,-0.22331 0.09922,0.17357 0.09922,-0.34714 0.148695,-0.0497 v -0.0249 h 0.02487 v 0.24818 l 0.297656,-0.0497 v -0.32253 l 0.09922,-0.0497 0.02487,-0.12409 0.223308,-0.223308 0.07435,0.148696 0.372004,-0.07435 c -0.03863,-0.136525 -0.09446,-0.320411 -0.173566,-0.347134 -0.05583,-0.01852 -0.11774,-0.05053 -0.173567,-0.04974 -0.05583,0.0021 -0.105304,0.02487 -0.124089,0.04974 -0.03731,0.04974 -0.396875,0.173567 -0.396875,0.173567 l -0.12409,-0.148696 -0.02487,0.322527 -0.148696,0.07435 -0.04974,-0.272785 -0.446617,0.173567 -0.148696,0.322526 -0.124089,-0.0497 -0.347134,0.79375 h -0.02487 v 0.22331 l -0.446616,0.0497 0.07435,0.17357 -0.04974,0.0743 0.04974,0.0743 -0.07435,0.0992 -0.02487,0.29766 c 0,0 -0.02487,-0.0373 -0.148696,-0.0249 -0.123825,0.0124 -0.210873,0.14869 -0.297656,0.19843 -0.08678,0.0497 -0.483659,0.0497 -0.570442,0 -0.05741,-0.032 -0.130175,-0.21087 -0.173567,-0.34713 -0.03572,-0.22728 -0.232568,0.18203 -0.347133,-0.69453 l -0.198437,-0.17357 c -0.02011,0.031 -0.06985,0.0796 -0.12409,0.17357 -0.07144,0.1262 -0.04974,0.15081 -0.04974,0.42174 0,0.27173 -0.347133,0.39688 -0.347133,0.39688 l 0.07435,0.24818 -0.07435,0.0497 -0.124089,0.0992 H 88.51112 l -0.173566,-0.19844 v -0.22331 c 0.0016,-0.006 -0.0016,-0.0185 0,-0.0249 l 0.02487,-0.0249 c 0.02487,-0.0434 0.07594,-0.0878 0.148696,-0.14869 l -0.246591,-0.12409 0.09922,-0.27279 -0.124089,-0.0743 h -0.19844 l -0.02487,-0.0992 c -0.26035,0.15082 -0.454289,0.22225 -0.719402,0.34714 l -0.322527,-0.19844 -0.04974,-0.39688 0.02487,-0.29765 -0.124089,-0.32253 -0.496094,-0.322526 -0.04974,-0.248179 0.272786,-0.272785 -0.04974,-0.396875 h 0.148696 l 0.02487,-0.297656 -0.09922,-0.173567 c 0,0 -0.122502,0.07144 -0.297656,0 -0.09313,-0.03731 -0.171979,-0.0971 -0.297656,-0.173567 z m 4.092839,1.091407 -0.07435,0.173566 c 0,0 -0.06059,-0.07541 -0.173566,-0.04974 -0.114829,0.02699 -0.04815,0.155045 -0.09922,0.198437 -0.05265,0.04551 -0.148696,0.02487 -0.148696,0.02487 0,0 0.04657,0.293423 0.09922,0.372006 0.05265,0.0796 -0.06668,0.21087 -0.07435,0.29765 -0.0093,0.0889 -0.02487,0.17357 -0.02487,0.17357 l 0.09922,0.0497 v 0.12409 l 0.173567,-0.0249 v -0.22331 l 0.297656,-0.372 0.124089,-0.0249 0.04974,-0.694533 c 0,0 -0.120915,0.06085 -0.173567,0.02487 z m -4.787371,3.100649 -0.173566,0.24818 0.198437,0.27279 0.347134,0.0992 -0.02487,-0.34714 z" />
    <g
       id="g405"
       transform="matrix(0.26458333,0,0,0.26458333,-68.644234,-112.30906)">
      <path
         id="path5541"
         fill="#06b044"
         stroke="#000000"
         stroke-width="0.5"
         d="m 558.069,780.434 c -0.475,-1.055 -0.275,-2.934 -0.275,-3.75 0,-0.426 0.205,-1.055 0.562,-1.781 -0.334,-0.297 -0.609,-0.824 -0.75,-1.5 -0.193,-0.895 -0.416,-1.359 -0.844,-1.406 v 0 c -0.434,-0.047 -1.072,0.328 -1.969,1.031 -1.799,1.414 -0.938,2.812 -0.938,2.812 0,0 -0.492,0.316 -3.562,1.594 -3.076,1.285 -3.873,1.766 -4.125,2.531 -0.258,0.77 1.002,1.895 2.156,1.125 1.148,-0.766 0.938,0.035 0.938,1.312 0,0.934 -0.516,2.27 -1.312,3.375 0.961,-0.039 2.021,0.012 2.344,0.375 0.246,0.289 0.598,0.281 0.938,0.469 0.117,-0.469 0.105,-0.531 0.281,-1.031 0.287,-0.832 0.691,-1.629 1.125,-2.156 0.428,-0.527 0.92,-0.82 1.5,-0.562 0.574,0.258 0.797,0.887 0.75,1.688 -0.053,0.809 -0.398,1.777 -0.75,2.719 -0.041,0.102 -0.059,0.094 -0.094,0.188 0.545,0.078 0.973,0.078 1.688,0.281 1.266,0.363 1.688,1.312 1.688,1.312 0,0 1.061,-0.855 2.062,-1.219 0.521,-0.188 0.914,-0.691 1.312,-1.125 l 0.094,-1.5 0.088,-0.094 c -0.48,-0.621 -1.031,-1.395 -1.594,-2.156 z" />
    </g>
    <g
       id="g408"
       transform="matrix(0.26458333,0,0,0.26458333,-68.644234,-112.30906)">
      <path
         id="path12988"
         fill="#038d7a"
         stroke="#000000"
         stroke-width="0.5"
         d="m 599.418,684.152 c -0.293,0.008 -0.586,0.059 -1.125,0.375 -0.275,0.16 -0.574,0.223 -0.844,0.281 -0.012,0.012 -0.088,-0.012 -0.094,0 -0.346,0.559 -0.609,1.113 -1.031,1.781 -0.639,0.996 -1.031,0.633 -1.031,2.531 0,1.906 0.152,3.547 1.875,3.094 1.717,-0.449 2.812,-0.094 2.812,-0.094 0,0 0.82,-0.895 0.188,-2.438 -0.639,-1.539 -0.234,-1.797 1.125,-2.25 1.354,-0.449 0.252,-0.867 -0.469,-1.594 -0.229,-0.223 -0.551,-0.961 -0.938,-1.688 -0.006,-0.012 -0.088,0.012 -0.094,0 -0.145,0.014 -0.262,0.002 -0.374,0.002 z m 54.656,4.594 c -1.061,1.324 -2.145,2.168 -3.469,3.094 -0.996,0.699 -1.523,0.688 -2.531,0.375 -0.393,1.203 -0.762,2.199 -0.656,2.719 0.252,1.285 0.709,3.598 -0.188,3.469 -0.897,-0.129 -0.656,1.523 -2.062,1.781 -0.709,0.129 -1.764,-0.215 -2.625,-0.281 -0.867,-0.062 -1.541,0.102 -1.219,1.125 0.639,2.051 -0.973,2.168 -0.844,5.625 0.023,0.617 0.117,0.961 0.188,1.688 0.041,0 0.047,0 0.094,0 3.562,0 6.562,1.125 6,2.812 -0.562,1.687 1.312,1.875 4.125,1.688 2.813,-0.187 0.188,-1.875 -1.312,-2.062 -1.5,-0.187 -2.062,-2.438 -0.562,-4.312 1.5,-1.874 4.5,0.562 5.062,-1.5 0.562,-2.062 2.438,-1.312 4.125,-5.25 0.164,-0.387 0.264,-0.691 0.375,-1.031 l 1.406,-1.406 -0.188,-1.219 3.375,-6.375 c 0,0 -3.404,-0.375 -4.594,-0.375 v 0.094 c -0.275,-0.117 -0.486,-0.098 -0.75,-0.188 -0.211,0.492 -0.439,0.902 -0.844,0.844 -0.749,-0.108 -1.64,-0.764 -2.906,-1.315 z" />
    </g>
    <path
       id="path4606"
       fill="#c0c0c0"
       stroke="#000000"
       stroke-width="0.132292"
       d="m 81.270268,88.723735 -0.173566,0.04974 c -0.0032,0.0093 0,0.0217 0,0.02487 0.06509,-0.02302 0.116152,-0.05292 0.173566,-0.07461 z" />
    <path
       id="path4602"
       fill="#c0c0c0"
       stroke="#000000"
       stroke-width="0.132292"
       d="m 65.568835,70.814619 c -0.125677,0.01746 -0.280723,0.06085 -0.446617,0.09922 -0.15822,0.105304 0.03413,0.285221 0.297657,0.372004 0.261937,0.0889 0.190764,-0.189177 0.471223,-0.347133 0.20955,-0.11774 0.05292,-0.173567 -0.322263,-0.12409 z" />
    <path
       id="path4600"
       fill="#c0c0c0"
       stroke="#000000"
       stroke-width="0.132292"
       d="m 67.230683,70.244177 c -0.200025,-0.0042 -0.446617,0.0082 -0.744008,0.02487 -0.52705,0.0889 0.01852,0.116681 0.843491,0.09922 0.616744,-0.01244 0.497417,-0.109538 -0.09948,-0.12409 z" />
    <path
       id="path4598"
       fill="#c0c0c0"
       stroke="#000000"
       stroke-width="0.132292"
       d="m 68.421308,69.847302 c -0.877358,0 -0.441854,0.275961 0.04974,0.223309 0.595312,-0.06932 0.826293,-0.223309 -0.04974,-0.223309 z" />
    <path
       id="path4596"
       fill="#c0c0c0"
       stroke="#000000"
       stroke-width="0.132292"
       d="m 69.339148,69.772954 c -0.06667,0.04233 0.02646,0.182827 0.198437,0.24818 0.227806,0.0889 0.134938,-0.125148 -0.07435,-0.24818 -0.05741,-0.01243 -0.102394,-0.01349 -0.124089,0 z" />
    <path
       id="path4594"
       fill="#c0c0c0"
       stroke="#000000"
       stroke-width="0.132292"
       d="m 69.884718,69.623994 c -0.04022,0.01138 -0.05583,0.05265 -0.09922,0.148696 -0.08837,0.194204 0.21246,0.229394 0.248179,0.124089 0.03413,-0.105304 -0.08837,-0.140493 0.421746,-0.124089 0.508529,0.01746 0.300831,-0.148696 -0.347134,-0.148696 -0.124354,0.0093 -0.184679,-0.01032 -0.223573,0 z" />
    <path
       id="path4592"
       fill="#c0c0c0"
       stroke="#000000"
       stroke-width="0.132292"
       d="m 71.174562,69.475298 c -0.06826,0.0093 -0.09922,0.03916 -0.09922,0.09922 0,0.123031 0.153459,0.03307 0.347134,0.04974 0.367506,-0.08678 0.466725,-0.131234 0.09922,-0.148696 -0.18415,-0.0098 -0.280458,-0.0098 -0.347133,-2.65e-4 z" />
    <path
       id="path4413"
       fill="#2b0000"
       stroke="#000000"
       stroke-width="0.132292"
       d="m 76.482898,66.473865 c -0.09763,0.03916 -0.136525,0.207698 0,0.496094 0.303741,0.406135 0.516202,0.27596 0.347133,-0.198438 -0.0852,-0.236802 -0.25109,-0.334962 -0.347133,-0.297656 z" />
    <path
       id="path4409"
       fill="#9cdf5f"
       stroke="#000000"
       stroke-width="0.132292"
       d="m 87.893054,69.436934 c -0.09155,0.120914 -0.224896,0.297656 -0.299244,0.415395 -0.100806,0.158221 -0.300831,-0.02778 -0.300831,-0.02778 l -0.272786,0.242888 -0.01402,0.14261 0.171979,0.01561 0.0852,0.157163 c 0,0 -0.229393,0.100277 -0.243416,0.258498 -0.01561,0.158221 0.100806,0.386556 0.3302,0.501385 0.227806,0.114829 0.02778,0.329671 -0.229394,0.316177 -0.259027,-0.01455 -0.788988,0.25744 -0.817033,0.472282 -0.0217,0.161131 -0.345811,0.316177 -0.545571,0.427831 0.07911,0.05794 0.224896,0.167481 0.224896,0.167481 l 0.248179,0.694531 0.520964,-0.04974 c 0,0 0.223309,0.272785 0.768879,0.396875 0.201613,0.04657 0.370417,0.07144 0.669661,0.124089 0,-0.08996 -0.03413,-0.131233 0.07435,-0.347133 0.169069,-0.337873 0.759619,-0.437092 0.79375,-0.843492 0.03254,-0.406135 0.33946,-0.431006 0.645054,-0.396875 0.303742,0.03413 0.269875,-0.480483 0.372004,-1.091406 0.01244,-0.07541 0.0032,-0.139435 0,-0.198437 -0.03413,-0.0093 -0.292894,-0.08678 -0.719402,0.02487 -0.18759,0.04974 -0.299244,0.0053 -0.372004,-0.09922 l -0.07435,-0.198438 c -0.03731,-0.146844 -0.04974,-0.322527 -0.04974,-0.520964 0,-0.102394 0.01561,-0.16219 0.02487,-0.223309 l -0.744008,-0.09922 z" />
    <path
       id="path3303"
       fill="#c0c0c0"
       stroke="#000000"
       stroke-width="0.132292"
       d="m 49.867402,92.345087 c 0.130175,0.04022 0.268288,0.101336 0.421746,0.04974 0.114829,0 -0.0077,-0.223308 -0.02487,-0.347133 -0.147373,0.0061 -0.280723,0.0061 -0.446617,-0.04974 0.02487,0.05159 0.05424,0.09922 0.07435,0.148696 0.03122,0.0807 -0.03545,0.12409 -0.02461,0.198437 z" />
    <path
       id="path3289"
       fill="#c0c0c0"
       stroke="#000000"
       stroke-width="0.132292"
       d="m 67.825996,73.691963 -0.868098,-0.372005 c 0.02169,0.102394 0.06191,0.19738 0.124089,0.272786 0.184415,0.02805 0.475986,0.05794 0.744009,0.09922 z" />
    <path
       id="path4438"
       fill="#c0c0c0"
       stroke="#000000"
       stroke-width="0.132292"
       d="m 80.029902,87.557717 -0.545571,0.198437 0.545571,0.496094 0.421745,-0.173567 z" />
    <g
       id="g470"
       transform="matrix(0.26458333,0,0,0.26458333,-68.644234,-112.30906)">
      <path
         id="path3202"
         fill="#f5f536"
         stroke="#000000"
         stroke-width="0.5"
         d="m 554.793,716.684 c 0,0 -0.943,5.379 0.469,5.25 1.406,-0.129 3.375,-3.562 3.375,-3.562 0,0 0.129,-0.168 -1.406,-0.938 -1.541,-0.766 -2.438,-0.75 -2.438,-0.75 z m 43.031,17.062 c -0.182,-0.051 -0.299,-0.016 -0.375,0.094 -0.568,0.797 -1.465,2.25 -1.406,3.469 2.139,0.949 2.062,1.473 2.062,2.531 0,0.492 -0.064,0.945 -0.094,1.312 0.381,0.418 0.82,0.809 1.312,1.125 1.793,1.156 1.049,1.277 -1.125,1.406 -2.18,0.129 -1.5,-1.219 -1.5,-1.219 l -2.25,-1.312 -1.781,1.406 -1.219,-1.5 -3.094,1.781 -0.375,-2.344 -1.781,0.281 0.469,4.219 -0.938,1.5 c -0.609,1.004 -1.295,2.062 -1.875,2.062 -0.322,0 -0.732,0.102 -1.125,0.188 l 1.875,1.875 c 0,0 2.467,0.75 3.75,0.75 1.277,0 2.016,-0.859 2.531,-0.094 0.51,0.77 0.932,1.277 2.344,1.406 1.406,0.129 1.5,0.281 1.5,0.281 l 0.75,-2.719 0.281,4.125 1.312,0.188 c 0.34,-1.324 1.107,-1.141 3.656,-1.031 -0.17,-1.148 -0.357,-3.059 0.188,-3.469 0.322,-0.246 0.832,-0.602 1.5,-1.125 -0.135,-0.246 -0.322,-0.484 -0.656,-0.75 -0.094,-0.07 -0.123,-0.117 -0.188,-0.188 0.627,-0.871 0.844,-1.336 0.844,-2.25 0,-1.176 -0.574,-1.633 -0.844,-2.812 -0.275,-1.176 1.195,-1.348 0.562,-2.438 -0.053,-0.086 -0.217,-0.18 -0.281,-0.281 l -1.406,-0.094 c -0.053,-0.215 -0.029,-0.422 -0.094,-0.656 -0.111,-0.363 -0.164,-0.719 -0.188,-1.125 v -0.094 c -0.041,-0.809 0.029,-1.699 0.094,-2.531 -0.929,-0.947 -1.849,-1.795 -2.435,-1.967 z m 9,3.563 c -0.363,0.09 -0.738,0.387 -0.938,1.031 -0.094,1.273 0.018,3.207 0.656,3.656 0.633,0.453 1.119,0.066 1.031,-0.75 -0.094,-0.812 -0.064,-0.824 0.938,-0.375 0.996,0.453 1.418,0.254 1.875,-0.562 0.451,-0.812 -0.51,0.035 -1.594,-1.594 -0.678,-1.02 -1.37,-1.547 -1.968,-1.406 z m -38.343,13.687 c -0.205,0.02 -0.463,0.09 -0.75,0.281 -1.154,0.77 0.768,1.824 0,2.719 -0.773,0.898 -2.719,0.844 -2.719,0.844 l -1.125,1.406 c 0,0 1.266,0.629 3.188,1.781 1.652,0.996 0.574,1.477 -1.125,2.062 -0.1,0.855 -0.785,4.438 -1.406,7.312 0,0 2.314,-2.062 4.5,-4.031 l -0.188,-0.188 2.344,-2.344 0.281,0.188 c 0.34,-0.344 0.809,-0.754 0.938,-0.938 0.896,-1.277 1.869,0.43 4.688,0.938 2.812,0.516 1.975,2.891 3,2.25 1.02,-0.637 -0.346,-1.934 0.938,-2.062 1.277,-0.129 2.256,2.461 3.281,2.719 1.02,0.258 1.594,-1.012 0.188,-1.781 -1.412,-0.766 -0.117,-3.098 0.656,-2.719 0.768,0.387 2.361,1.055 4.031,1.312 1.664,0.258 2.877,-0.098 4.031,-1.125 0.264,-0.227 0.311,-0.625 0.469,-0.938 0,0 -0.51,-1.352 -2.812,-0.844 -2.309,0.516 -5.525,-0.152 -5.906,-1.688 -0.387,-1.535 -0.902,-3.188 -2.438,-3.188 -1.541,0 -0.469,1.617 -0.469,3.281 0,1.664 -0.375,2.156 -0.375,2.156 l -1.031,-0.469 c 0,0 0.785,-1.762 -0.75,-1.125 -0.697,0.293 -0.99,0.691 -1.125,1.031 -0.018,0.035 -0.088,0.059 -0.094,0.094 v 0.281 c 0,0.148 0,0.375 0,0.375 0,0 -0.287,-0.145 -0.844,-0.656 l -3.094,-0.938 -0.562,-2.25 c 0,0 -1.576,2.316 -2.344,1.031 -0.773,-1.281 -2.314,-1.68 -2.438,-3.094 -0.1,-1.05 -0.341,-1.722 -0.938,-1.683 z m 33.656,9.188 -3.844,0.375 0.281,0.469 v 0.094 c -0.322,0.773 -0.51,1.57 -0.469,1.969 0.123,1.285 -0.416,0.488 -1.312,1.125 -0.902,0.641 -2.719,1.742 -2.719,0.844 0,-0.895 -1.553,-2.371 -2.062,-1.219 -0.516,1.156 -0.141,1.66 0.375,2.812 0.199,0.453 -0.023,0.77 -0.281,1.125 l 0.844,2.062 1.594,0.656 0.094,-0.188 c 0.105,-0.836 0.152,-1.984 0,-3.844 l 1.781,-0.375 1.406,2.719 h -0.188 l 0.275,0.375 3.938,-3.562 0.281,-2.344 0.938,-0.656 -0.656,-1.5 1.125,-0.469 -1.406,-0.469 h 0.005 z" />
    </g>
    <path
       id="path4272"
       fill="#ff0000"
       stroke="#000000"
       stroke-width="0.132292"
       d="m 88.314799,67.912404 -0.372004,0.198438 0.148696,0.322527 0.347133,-0.248179 z m 1.264973,0.02487 -0.148695,0.07435 -0.520965,0.669661 -0.694531,0.07435 -0.02487,0.02487 -0.496094,0.446617 0.446617,0.471223 0.744008,0.09922 c 0.03254,-0.236802 0.114829,-0.236802 0.248179,-0.446617 0.111654,-0.176742 0.181504,-0.323585 0.272786,-0.471223 -0.198438,0.03625 -0.324115,-0.01244 -0.04974,-0.148696 0.382852,-0.192352 0.271198,-0.236802 0.248179,-0.620183 -0.0048,-0.05874 -0.01878,-0.112448 -0.02487,-0.173567 z" />
    <path
       fill="#ff0000"
       stroke="#000000"
       stroke-width="0.132292"
       d="m 75.391491,67.639619 c -0.05265,0.01561 -0.122502,0.05583 -0.198437,0.12409 -0.305329,0.271727 -0.302419,0.504295 0.173566,0.198437 0.2032,-0.202671 0.17833,-0.366977 0.02487,-0.322527 z m 0.396875,0.520965 c -0.03863,0.0021 -0.07435,0.0082 -0.124089,0.02487 -0.271198,0.102394 -0.0635,0.381265 0.173566,0.347134 0.206375,-0.02884 0.218811,-0.378354 -0.04948,-0.372004 z m 1.066536,0.223308 c -0.621771,0.513556 -0.903817,1.000389 -1.017059,1.46341 0.31459,-0.08361 0.669661,-0.211931 0.818621,-0.396875 0.269875,-0.337873 0.522552,0.240771 0.79375,-0.09922 0.09446,-0.118798 0.141023,-0.227278 0.198438,-0.322528 -0.158221,-0.01852 -0.310092,-0.04974 -0.421746,-0.124089 -0.224631,-0.07435 -0.257175,-0.614892 -0.372004,-0.5207 z m 7.491147,2.405856 -0.198437,0.992188 c -0.0048,0.05159 -0.01693,0.08361 -0.02487,0.124089 -0.03731,0.182034 -0.131762,0.272786 -0.297656,0.272786 -0.01561,0 -0.03572,0.0021 -0.04974,0 l 0.02487,0.347133 0.620183,0.520964 0.198438,-0.322527 c 0,0 0.537898,0.451644 1.041929,0.744009 0.427831,0.02064 0.570442,-0.223309 0.570442,-0.223309 l -0.248179,-0.719402 h -0.02487 c -0.01693,-0.01032 -0.240242,-0.1778 -0.471223,-0.372004 L 85.114929,72.004979 84.89162,70.938444 Z"
       id="path475" />
    <path
       id="path4251"
       fill="#ff0000"
       stroke="#000000"
       stroke-width="0.132292"
       d="m 76.582116,76.023736 c -0.03254,0.144727 -0.108479,0.595312 0.12409,0.768879 0.269875,0.203729 0.148696,0.620183 0.148696,0.620183 0,0 -0.173567,-0.103452 -0.322527,-0.12409 l 0.297656,0.173567 c 0,0 0.131762,-0.05371 0.372004,-0.173567 0.238654,-0.118797 0.248179,0.471223 0.248179,0.471223 0,0 0.25109,-0.140493 0.372004,-0.620183 0.119327,-0.478631 0.08229,-0.236802 0.322527,0.04974 0.11483,0.138377 0.08678,0.111654 0.12409,0.148696 0.03863,0.0061 0.0852,0.0082 0.148696,0.02487 -0.0217,-0.165364 -0.07435,-0.654314 0.148696,-0.917839 0.263525,-0.31115 -0.110067,-0.338931 -0.421746,-0.12409 -0.311679,0.2159 -0.457465,-0.199496 -0.768879,-0.248179 -0.156634,-0.02275 -0.472811,-0.04339 -0.768879,-0.04974 2.64e-4,0.0024 -0.02461,5.3e-4 -0.02461,5.3e-4 z" />
    <g
       id="g479"
       transform="matrix(0.26458333,0,0,0.26458333,-68.644234,-112.30906)">
      <path
         id="path3937"
         fill="#4b9999"
         stroke="#000000"
         stroke-width="0.5"
         d="m 563.606,738.246 c -0.498,0.34 -0.691,0.727 -0.375,1.219 0.656,1.031 1.125,2.531 -0.281,3.469 -0.949,0.633 -1.477,1.172 -1.969,1.406 -0.035,0.02 -0.059,0.082 -0.094,0.094 h -0.094 c -0.182,0.059 -0.375,0.047 -0.562,0 -0.281,-0.07 -0.199,-0.305 -0.094,-0.562 l -0.75,-0.562 c -0.158,0.535 -0.246,1.242 -0.844,1.406 -0.322,0.09 -0.844,0.117 -1.312,0 l -1.219,1.031 h 0.281 l -1.219,2.344 0.562,1.406 c 1.312,0.117 2.66,0.277 2.906,0.469 0.451,0.363 0.094,1.406 0.094,1.406 0,0 2.93,-0.379 3.75,-0.562 0.814,-0.18 0.498,-1.41 1.406,-1.594 0.902,-0.18 1.564,-0.871 0.75,-1.781 -0.82,-0.902 -2.115,-1.633 -0.938,-2.906 1.178,-1.266 2.531,-5.438 2.531,-5.438 l -1.688,0.094 c 0,0 -0.1,-0.695 -0.75,-0.938 -0.027,-0.005 -0.068,0.011 -0.091,-10e-4 z m 3,29.156 c -0.557,0.047 -1.26,0.254 -2.156,0.562 -0.205,0.891 -0.486,1.918 -0.562,2.25 -0.387,1.664 -1.301,2.145 -3.094,3.938 -0.281,0.281 -0.516,0.5 -0.75,0.656 -0.053,0.035 -0.141,0.066 -0.188,0.094 -0.158,0.09 -0.334,0.148 -0.469,0.188 -0.105,0.031 -0.188,0.094 -0.281,0.094 -0.311,0.023 -0.533,-0.082 -0.75,-0.281 -0.357,0.727 -0.562,1.355 -0.562,1.781 0,0.816 -0.199,2.695 0.281,3.75 l 1.312,2.531 c 0.557,0.762 1.107,1.535 1.594,2.156 v 1.5 c -0.439,0.477 -0.914,1.008 -1.5,1.219 -1.002,0.363 -2.062,1.219 -2.062,1.219 0,0 -0.422,-0.949 -1.688,-1.312 -1.271,-0.363 -2.279,-0.555 -3,-0.469 -0.727,0.094 -1.805,-0.398 -2.438,-1.125 -0.322,-0.363 -1.383,-0.422 -2.344,-0.375 -0.305,0.422 -0.686,0.809 -1.031,1.125 -0.059,0.047 -0.135,0.059 -0.188,0.094 0.41,0.633 0.961,1.301 1.312,1.5 0.158,0.094 0.217,0.207 0.188,0.375 -0.006,0.09 -0.053,0.184 -0.094,0.281 -0.047,0.105 -0.129,0.172 -0.188,0.281 -0.041,0.07 -0.053,0.117 -0.094,0.188 -0.088,0.152 -0.211,0.324 -0.281,0.469 -0.105,0.199 -0.117,0.406 -0.094,0.562 0.088,0.633 0.07,1.625 -0.562,2.438 -0.158,0.207 -0.275,0.43 -0.375,0.656 -0.1,0.23 -0.152,0.422 -0.188,0.656 -0.076,0.477 -0.041,1.004 0.188,1.406 0.451,0.816 1.172,1.637 -0.188,2.719 -1.359,1.09 -2.338,1.992 -2.156,2.625 0.182,0.633 1.043,0.855 1.5,1.219 0.041,0.035 0.129,-0.012 0.188,0 0.176,0.043 0.387,-0.012 0.562,-0.094 0.064,-0.027 0.123,-0.051 0.188,-0.094 0.152,-0.082 0.17,-0.109 0.281,-0.188 0.24,-0.105 0.375,-0.188 0.375,-0.188 l 1.969,0.656 c 0,0 1.061,-1.211 1.969,-1.031 0.902,0.184 1.312,0.188 1.312,0.188 l 0.281,-0.375 0.281,0.094 0.656,-0.469 4.594,-3.188 4.031,1.781 c 0.047,0.277 0.094,0.469 0.094,0.469 0,0 1.166,-1.395 2.344,-1.125 1.172,0.277 3,1.125 3,1.125 l 0.188,-0.281 1.031,-1.219 1.312,0.844 c -0.041,0.43 -0.217,2.398 0.188,3.375 0.445,1.09 0.258,2.684 -0.188,2.812 -0.451,0.129 -1.588,-0.051 -1.969,-0.375 -0.387,-0.316 -1.781,-0.469 -1.781,-0.469 0,0 -0.797,0.914 -0.281,1.875 0.51,0.961 0.703,0.832 0,1.406 l -0.844,2.719 -1.5,4.594 c 0,0 -0.48,-3.355 -1.406,-3.094 -0.123,0.035 -0.199,0.113 -0.281,0.188 -0.082,0.07 -0.135,0.188 -0.188,0.281 -0.123,0.211 -0.229,0.469 -0.281,0.75 -0.035,0.164 -0.076,0.301 -0.094,0.469 -0.059,0.41 -0.094,0.867 -0.188,1.125 -0.27,0.734 -0.721,0.207 -1.312,0.469 -0.598,0.266 -0.281,2.531 -0.281,2.531 0,0 -0.879,1.453 -1.406,2.25 -0.533,0.797 -0.709,0.551 -1.969,0.281 -0.574,-0.117 -1.271,-0.168 -1.875,-0.188 l -0.938,-1.5 c 0,0 -1.066,-0.145 -1.875,-0.188 -0.164,-0.004 -0.24,0 -0.375,0 -0.275,0.008 -0.498,0.031 -0.562,0.094 -0.24,0.242 0.1,1.43 -0.656,1.781 -0.111,0.055 -0.217,0.082 -0.375,0.094 -1.271,0.094 -1.594,-0.375 -1.594,-0.375 l -0.844,1.969 -0.094,0.281 c 0.604,-0.121 0.984,0.012 1.406,0.844 0.146,0.293 0.346,0.562 0.469,0.844 0.797,-0.086 1.77,0.023 2.625,0.562 0.316,0.023 0.709,0.09 1.125,0.375 0.832,0.574 1.219,0.844 1.219,0.844 l 1.219,-0.469 v -0.188 l 1.406,-1.5 1.781,-0.188 0.375,0.562 4.312,-0.75 c 0,0 1.5,1.312 2.156,1.406 0.656,0.094 2.062,0.281 2.062,-0.094 0,-0.375 0.75,-1.781 0.281,-2.344 -0.469,-0.563 -3.75,-0.938 -4.594,-1.219 -0.844,-0.281 -3.375,-0.188 -2.156,-1.125 1.219,-0.937 1.594,-1.406 2.625,-1.406 1.031,0 0,-1.125 0,-1.125 l 1.406,-0.375 c 0,0 0.316,0.41 0.75,0.844 0.434,0.434 0.984,0.891 1.5,1.031 0.773,0.211 1.406,0.641 2.062,0.469 0.217,-0.059 0.422,-0.141 0.656,-0.375 0.938,-0.938 1.688,-1.031 2.156,-2.438 0.468,-1.407 0.188,-1.875 0.094,-3.188 -0.094,-1.313 -0.375,-1.781 -0.094,-2.625 0.211,-0.633 0.85,-0.309 1.312,-0.469 0.152,-0.051 0.281,-0.164 0.375,-0.375 0.375,-0.844 1.219,-1.688 1.969,-2.906 0.75,-1.218 0.656,-1.219 1.781,-1.406 0.615,-0.105 1.02,-0.133 1.5,-0.188 -0.006,-0.293 -0.217,-0.695 -0.844,-1.031 -1.26,-0.66 -2.637,-0.363 -2.438,0.562 0.199,0.925 -0.17,1.137 -1.031,0.938 -0.861,-0.199 -0.117,-1.258 0.281,-2.719 0.064,-0.027 0.117,-0.059 0.188,-0.094 l 1.125,-5.156 1.969,-0.562 0.094,-1.688 -0.375,-0.562 -2.156,-0.375 -0.094,-0.562 2.906,-0.375 -1.219,-1.5 0.469,-0.844 3.281,0.375 0.656,-1.312 -1.406,-1.125 1.312,-2.438 0.188,-0.094 0.094,-0.938 1.969,-1.688 v -0.188 c -0.697,-0.469 -1.547,-1.023 -2.344,-1.406 -1.793,-0.859 -2.531,-0.562 -2.531,-0.562 l -1.5,-1.688 h -0.094 l -3.562,-3.469 c -0.287,0.02 -0.551,0.023 -0.844,0.094 -1.904,0.453 -0.914,1.039 -0.094,1.125 0.814,0.09 0.803,1.418 -0.375,1.688 -1.184,0.277 -3.469,-0.844 -3.469,-0.844 0,0 -0.609,-1.164 0.844,-2.438 1.447,-1.266 1.107,-1.898 0.75,-2.625 -0.363,-0.727 -1.635,-1.258 -0.094,-2.531 1.535,-1.266 1.371,-1.832 0.469,-3.281 -0.908,-1.445 -2.098,-0.293 -3,-0.562 -0.452,-0.128 -0.962,-0.241 -1.682,-0.183 z m 21.656,29.813 -0.281,0.375 h -0.938 l -0.094,0.656 h -0.562 l 0.188,1.5 -1.031,1.031 0.188,0.938 1.875,1.219 0.469,1.219 -0.094,1.125 v 0.094 l 4.594,-2.156 0.281,-0.469 h 1.031 l 0.375,-0.469 c 0,0 -1.219,-0.656 -2.344,-0.75 -1.125,-0.094 -1.125,-0.938 -1.125,-1.594 0,-0.656 -0.562,-1.031 -0.75,-1.125 -0.188,-0.094 -0.562,0.375 -0.562,0.375 l -0.562,-0.188 c 0,0 0.094,-0.141 0.375,-0.375 0.281,-0.234 0.469,-0.891 0,-0.75 -0.469,0.141 -0.75,-0.656 -0.75,-0.656 z" />
    </g>
    <g
       id="g485"
       transform="matrix(0.26458333,0,0,0.26458333,-68.644234,-112.30906)">
      <path
         id="path3976"
         fill="#2ee25a"
         stroke="#000000"
         stroke-width="0.5"
         d="m 555.637,749.496 v 0.094 c 0,0 -0.645,0.621 -2.438,0.75 -1.799,0.129 -2.232,-1.219 -4.406,0.188 -1.09,0.703 -1.588,1.934 -1.781,3 -0.1,0.535 -0.094,1.051 -0.094,1.406 0.533,0.699 1.359,1.723 2.25,2.344 1.277,0.898 2.062,3.75 2.062,3.75 0,0 0.516,-0.059 2.438,-0.188 1.916,-0.129 2.807,-1.148 4.219,-1.406 1.406,-0.258 5.689,0.316 6.844,0.188 1.148,-0.129 1.312,-0.543 1.312,0.094 0,0.02 -0.07,0.176 -0.094,0.281 l 0.656,-0.188 c 0.152,-0.059 0.334,-0.129 0.469,-0.188 0.41,-0.188 0.656,-0.344 0.75,-0.562 l -0.562,-0.844 c -0.088,-0.059 -0.082,-0.121 -0.188,-0.188 -1.922,-1.152 -3.188,-1.781 -3.188,-1.781 l 0.938,-1.125 c -0.814,-0.906 -1.717,-1.887 -2.531,-2.625 -0.486,-0.434 -0.791,-1 -0.938,-1.5 -1.16,0.184 -2.719,0.375 -2.719,0.375 0,0 0.357,-1.043 -0.094,-1.406 -0.245,-0.192 -1.593,-0.352 -2.905,-0.469 z m 6.281,5.906 1.594,1.969 -1.594,0.656 -2.062,-1.875 z" />
    </g>
    <path
       fill="#99e6b1"
       stroke="#000000"
       stroke-width="0.132292"
       d="m 67.652429,108.04652 -0.744008,0.57044 -1.165755,0.8681 -0.396875,0.29766 -0.719402,0.54557 0.595313,-0.0497 0.322527,0.84349 c 0.108479,-0.0931 0.252677,-0.19315 0.446617,-0.22331 0.496093,-0.0743 0.694531,-0.0992 0.768879,-0.44662 0.07435,-0.3474 0.198437,-0.44661 0.496093,-0.79375 0.297657,-0.34713 0.545571,-0.27278 0.967317,-0.84349 0.0418,-0.0569 0.05265,-0.0868 0.09922,-0.1487 l -0.223308,-0.2233 c -0.0093,0.002 -0.01693,-0.001 -0.02487,0 z m 19.59557,-42.788151 -0.54557,0.09922 V 65.9529 c 0,0.198438 -0.496094,0.148696 -0.496094,0.148696 0,0 -0.09922,0.496094 0.595312,0.496094 l 0.148696,0.248179 c 0,0 0.598488,0.169598 0.694531,0.04974 0.09446,-0.118798 0.252678,-0.09922 0.04974,-0.471223 -0.03863,-0.06826 -0.05741,-0.146844 -0.09922,-0.223309 0.0032,-0.04762 0,-0.08678 0,-0.148695 0,-0.496359 -0.347398,-0.794015 -0.347398,-0.794015 z m 1.612371,1.686719 -0.942446,1.041929 c 0,0 -0.155045,0.235744 0.09922,0.421746 0.02011,0.01561 0.07435,0.02487 0.07435,0.02487 l 0.12409,0.322527 0.694531,-0.07435 0.520965,-0.669661 -0.148696,0.09922 -0.347134,-0.595312 c 0.04339,-0.173567 0.07752,-0.322528 0.148696,-0.471223 z m -16.966406,3.150129 c -0.01243,0.111654 -0.08837,0.796925 0,1.215496 0.09446,0.455877 -0.147373,0.970491 -0.09922,1.066535 0.04657,0.09604 0.79375,0 0.79375,0 v 0.02487 c -0.01561,0.03413 -0.319352,0.662517 -0.645054,0.942446 -0.336285,0.288396 0.131763,0.854604 -0.347133,1.165754 -0.480483,0.312208 -0.544248,0.656167 -0.496094,0.967317 0.0016,0.01243 -0.0016,0.01455 0,0.02487 0.02778,0.219075 -0.09446,0.13335 -0.248179,0.09922 -0.0061,0.01746 -0.0217,0.03307 -0.02487,0.04974 -0.120914,0.423862 -0.14261,0.787664 0.07435,0.967316 0.215371,0.179917 0.461963,0.315119 0.645054,0.446617 0.181504,0.132292 0.282046,0.2667 0.223309,0.421746 -0.120915,0.312208 -0.364332,0.38444 -0.843492,0.744008 -0.120915,0.08996 -0.155046,0.164307 -0.12409,0.223309 0.02937,0.059 0.110067,0.102393 0.198438,0.148695 0.176742,0.09313 0.379942,0.178859 0.248179,0.322528 -0.131762,0.144727 -0.31459,0.278077 -0.421746,0.421745 -0.108479,0.144727 -0.131762,0.302948 0.02487,0.421746 0.155046,0.119856 0.271198,0.101336 0.421746,0.04974 0.148696,-0.05054 0.319352,-0.136525 0.595312,-0.148696 0.274373,-0.01243 0.362744,-0.0011 0.396875,0.04974 0.03254,0.05159 0.02646,0.127 0.09922,0.223308 0.07144,0.09604 0.151871,0.02487 0.248179,-0.04974 0.09446,-0.07435 0.200025,-0.155046 0.272786,0 0.14261,0.312209 -0.100807,0.734748 -0.12409,1.165754 -0.01243,0.2159 -0.02937,0.377296 0.04974,0.496094 0.07752,0.119856 0.246591,0.200554 0.595312,0.248179 0.638704,0.0889 0.562769,0.08996 0.843492,-0.124089 0.0217,-0.338931 -0.02487,-0.593196 0.04974,-0.818621 -0.0061,-0.0071 0.0048,-0.0164 0,-0.02487 -0.223309,-0.334962 -0.08229,-0.490802 0.124089,-0.868098 0.161131,-0.297656 0.697706,-0.325437 0.992188,-0.322527 -0.0032,-0.01561 0,-0.03201 0,-0.04974 -0.01244,-0.407193 0.01693,-0.744008 -0.12409,-1.140883 -0.0093,-0.0217 -0.01693,-0.02884 -0.02487,-0.04974 0.09313,-0.146844 0.210873,-0.298715 0.272786,-0.421746 0.237066,-0.474398 0.26035,-0.241829 0.396875,-0.173567 0.134937,0.06826 0.328612,-0.149754 0.396875,-0.421746 0.06667,-0.270669 0.520964,0.02487 0.520964,0.02487 0,0 0.120915,-0.416454 -0.148696,-0.620183 -0.271197,-0.202671 -0.09922,-0.868098 -0.09922,-0.868098 0,0 0.07911,-0.04445 -0.496094,-0.248179 -0.576792,-0.202671 -0.355071,-1.066536 -0.421746,-2.083594 -0.06826,-1.017058 0.446617,-1.637242 0.446617,-1.637242 l -0.09922,-0.148696 c -0.717815,-0.216958 -1.137973,-0.824706 -1.438804,-0.768879 -0.105304,0.02064 -0.186002,0.129117 -0.272786,0.347134 -0.466725,1.159668 0.669661,0.11377 0.24818,1.513152 -0.07752,0.254264 -0.423334,0.440266 -0.79375,-0.198438 -0.09604,-0.0011 -0.364332,-0.06615 -0.421746,-0.248179 -0.01085,-0.02884 -0.02937,-0.06191 -0.02487,-0.09922 0.03096,-0.257439 0.635529,-0.418571 0.347133,-0.917839 -0.375179,-0.645848 -0.595312,-0.807244 -0.545571,-1.190625 -0.07435,-0.07435 -0.297656,-0.148696 -0.372004,-0.148696 -0.355335,-0.01032 -0.628385,-0.01032 -0.868627,0 z"
       id="path491" />
    <path
       fill="#c0f73c"
       stroke="#000000"
       stroke-width="0.132292"
       d="m 75.664277,104.7723 0.173566,-0.54557 -0.79375,-0.0497 -0.198437,0.372 c 0.0016,0.002 0.02011,0.0238 0.02487,0.0249 v 0 c 0.04815,0.027 0.230981,0.11986 0.396875,0.1487 0.147373,0.028 0.310091,0.0394 0.396875,0.0497 z m -7.689321,4.26641 0.02487,0.0249 1.289844,0.7194 c 0.102393,-0.0683 0.176741,-0.14869 0.372004,-0.19844 0.297656,-0.0743 0.297656,-0.2233 0.173566,-0.42174 -0.07594,-0.1188 -0.08361,-0.25427 0,-0.39688 l -0.04974,0.0249 -0.892969,-0.29765 h -0.02487 l -0.471223,0.24818 -0.07435,-0.0743 c -0.04657,0.0619 -0.05741,0.0921 -0.09922,0.14869 -0.110067,0.1487 -0.157957,0.14447 -0.247915,0.22305 z"
       id="path515" />
    <path
       id="path4248"
       fill="#c09b9f"
       stroke="#000000"
       stroke-width="0.132292"
       d="m 85.362843,95.892092 -0.04974,0.02487 -0.347134,0.645055 0.372004,0.297656 -0.173566,0.347133 -0.868098,-0.09922 -0.12409,0.223309 0.322527,0.396875 -0.768879,0.09922 0.02487,0.148696 0.570442,0.09922 0.09922,0.148696 -0.02487,0.446617 -0.520965,0.148695 -0.297656,1.364186 c -0.01852,0.009 -0.03254,0.0175 -0.04974,0.0249 -0.105304,0.38656 -0.303742,0.66675 -0.07435,0.71941 0.227806,0.0526 0.325438,-10e-4 0.272786,-0.24818 -0.05265,-0.24501 0.311679,-0.32359 0.645054,-0.1487 0.165893,0.0889 0.221721,0.19526 0.223308,0.27279 -0.05583,0.006 -0.119327,0.0185 -0.173567,0.0249 -0.01243,0.19526 -0.01561,0.431 0,0.59531 0.02646,0.30692 0.02328,0.38973 0.173567,0.24818 0.148696,-0.13944 0.245004,-0.20876 0.297656,-0.1487 0.05265,0.0619 0.175154,-0.0619 0.272786,0.0249 0.09604,0.0889 -0.0032,-0.13017 0.198437,-0.0249 0.100806,0.0527 0.145786,0.0857 0.173567,0.12409 0.01402,-0.031 0.03863,-0.0476 0.04974,-0.0743 0.07752,-0.19236 0.07144,-0.0868 0.124089,-0.1487 0.05265,-0.0601 0.08678,-0.18283 0,-0.29766 -0.04498,-0.0569 -0.07911,-0.0693 -0.124089,-0.0743 -0.02011,-10e-4 -0.05265,0.002 -0.07435,0 -0.03096,-10e-4 -0.059,-0.0124 -0.09922,-0.0249 -0.07144,-0.0217 -0.0807,-0.091 -0.07435,-0.14869 0.0048,-0.0558 0.02487,-0.0992 0.02487,-0.0992 l -0.198438,-0.12409 -0.02487,-0.1487 0.173567,-0.12408 -0.09922,-0.12409 0.02487,-0.471225 0.446617,-0.02487 c 0,0 -0.06985,-0.06615 -0.297656,-0.198438 -0.229394,-0.131233 -0.24818,-0.236802 -0.272786,-0.421745 -0.02646,-0.183886 0.198438,-0.272786 0.198438,-0.272786 l -0.12409,-0.09922 0.148696,-0.297656 0.297656,-0.04974 0.173567,-0.09922 0.148696,-0.09922 0.02487,0.02487 c 0.125677,0.07646 0.204522,0.136525 0.297656,0.173567 0.113241,0.04657 0.19685,0.04022 0.248179,0.02487 -0.0061,-0.03096 0,-0.07144 -0.02487,-0.124089 -0.07435,-0.148696 -0.161131,-0.186002 -0.04974,-0.272786 0.11139,-0.08678 0.26035,0.223309 0.396875,0.04974 0.136525,-0.173567 -0.06191,-0.09922 -0.09922,-0.322527 -0.03731,-0.223308 -0.161132,-0.248179 0.07435,-0.248179 0.235479,0 0.223308,0 0.248179,-0.148696 0.02328,-0.148696 0.02487,-0.322527 -0.09922,-0.372004 -0.12409,-0.04948 -0.198437,-0.04974 -0.198437,-0.223309 0,-0.04445 -0.03413,-0.173566 -0.04974,-0.297656 -0.02487,-0.01243 -0.05583,-0.0217 -0.09922,-0.02487 -0.173567,-0.01243 -0.471223,0.446617 -0.471223,0.446617 l -0.173566,-0.198437 c 0,0 0.570441,-0.396875 0.421745,-0.520965 -0.148695,-0.12409 -0.421745,0.09922 -0.421745,0.09922 l 0.07276,-0.223309 H 85.88222 l 0.04974,-0.04974 -0.570442,-0.02487 v -0.09922 h 0.0013 z m 0.02487,1.5875 c 0.105304,-0.0071 0.198438,0.01561 0.248179,0.04974 0.09604,0.07144 -0.07144,0.09816 -0.148696,0.12409 -0.07911,0.02699 0,0.124089 0,0.124089 l -0.272785,0.09922 -0.148696,-0.272785 c 0.103452,-0.08202 0.215106,-0.115888 0.321998,-0.124354 z" />
    <path
       fill="#20bf5a"
       stroke="#000000"
       stroke-width="0.132292"
       d="m 89.753339,102.91202 c -0.04657,-0.003 -0.09922,-0.003 -0.148696,0.0249 -0.198437,0.11165 -0.285221,0.11165 -0.396875,0.0249 -0.09313,-0.0714 -0.288396,0.10133 -0.372004,0.17356 l 0.02487,0.32253 0.79375,0.42175 -0.02487,0.59531 0.66966,0.0744 -0.173566,0.44661 0.446616,0.52097 0.545571,-0.47122 -0.173566,-0.34714 1.215495,-0.0249 c 0,0 0.153459,-0.22119 0.272786,-0.39687 l -0.272786,-0.24818 c 0,0 0.01561,0.0434 -0.124089,0.14869 -0.105304,0.0796 -0.122502,-0.17674 -0.09922,-0.34713 -0.0048,0 -0.02011,0.002 -0.02487,0 -0.05106,-0.0124 -0.148696,-0.0352 -0.248179,-0.0743 -0.01243,-0.003 -0.01561,-0.0196 -0.02487,-0.0249 -0.04022,-0.0156 -0.06985,-0.0278 -0.09922,-0.0497 -0.03731,-0.0249 -0.06509,-0.0413 -0.07435,-0.0744 -0.01244,-0.0373 0,-0.096 0.02487,-0.14869 0.02328,-0.0505 0.059,-0.0971 0.09922,-0.1487 0.01402,-0.0185 0.03413,-0.031 0.04974,-0.0497 -0.0093,-0.004 -0.01561,-0.0185 -0.02487,-0.0249 0.06191,-0.18918 -0.100806,-0.2077 -0.272785,-0.24818 -0.03863,-0.007 -0.09604,-0.0103 -0.148696,0 0,0.0124 -0.0016,0.0434 0,0.0497 0.01243,0.0992 -0.347134,0.26035 -0.496094,0.22331 -0.14896,-0.037 -0.223308,-0.0124 -0.297656,-0.19844 -0.07435,-0.186 -0.161132,-0.186 -0.297656,-0.0992 -0.102659,0.0646 -0.212725,-0.0378 -0.347663,-0.05 z m -1.910027,-8.929691 c 0,0 -0.110067,0.09313 -0.223308,0.148696 l 0.07435,0.322527 c 0,0 -0.155046,0.228335 -0.04974,0.297656 0.103981,0.07038 0.148696,0.545571 0.272785,0.545571 0.122502,0 0.156634,-0.214842 0.297657,-0.198437 0.0418,0.0061 0.08228,-0.04445 0.124089,-0.09922 -0.08361,-0.02778 -0.148696,-0.111654 -0.148696,-0.272786 0,-0.0164 -0.0032,-0.05265 0,-0.07435 -0.03863,0.03413 -0.0807,0.04233 -0.124089,0.02487 -0.08837,-0.03413 0,-0.322527 0,-0.322527 l -0.248179,-0.173566 0.09922,-0.07435 z m 1.71159,1.835415 c -0.04657,0.01243 -0.111655,0.04339 -0.173567,0.07435 -0.248179,0.124089 -0.173567,0.272785 -0.173567,0.272785 l -0.248179,0.02487 c 0,0 0.07435,-0.210873 -0.198437,-0.198438 -0.272786,0.01244 -0.235744,0.198438 -0.372005,0.248179 -0.13626,0.04974 -0.198437,0.02487 -0.173566,0.148696 0.02487,0.123825 -0.02487,0.198438 -0.297657,0.223309 -0.272785,0.02487 -0.595312,-0.12409 -0.843491,-0.223309 -0.229394,-0.09102 -0.269875,0.136525 -0.272786,0.173567 -0.01085,-0.01958 -0.03863,-0.05583 -0.07435,-0.07435 0.01561,0.12409 0.04974,0.253206 0.04974,0.297656 0,0.173567 0.07435,0.173567 0.198438,0.223309 0.124089,0.04974 0.124089,0.223308 0.09922,0.372004 -0.02487,0.148696 -0.01243,0.148696 -0.248179,0.148696 -0.235744,0 -0.111654,0.02487 -0.07435,0.248179 0.03731,0.223308 0.235744,0.148696 0.09922,0.322527 -0.136525,0.173831 -0.285221,-0.136525 -0.396875,-0.04974 -0.111654,0.08678 -0.02487,0.12409 0.04974,0.272786 0.02487,0.05265 0.01852,0.09313 0.02487,0.124089 0.02646,-0.0071 0.04974,-0.02487 0.04974,-0.02487 l 0.09922,0.173567 v 0.12409 h 0.248179 l 0.07435,-0.09922 h 0.07435 c 0,0 0.07276,0.210873 0.198437,0.173567 0.12409,-0.03731 0.07276,0.136525 0,0.198437 -0.07435,0.06191 -0.09922,0.09922 -0.09922,0.09922 l 0.148696,0.04974 c 0,0 0.09922,-0.124089 0.148695,-0.09922 0.04948,0.02487 0.198438,0.124089 0.198438,0.297656 0,0.173567 0,0.396875 0.297656,0.421746 0.297656,0.02487 0.620183,0.198437 0.620183,0.198437 l -0.09922,0.124091 h -0.272786 l -0.07435,0.12409 c 0,0 0.08678,0.11165 0.198438,0.24818 0.111654,0.13652 0.272785,0.14869 0.272785,0.14869 0,0 -0.02487,-0.0373 -0.04974,-0.12409 -0.02487,-0.0868 0.136525,-0.11165 0.297656,-0.0743 0.161131,0.0373 0.198437,0.19843 0.198437,0.19843 0,0 0.09922,-0.0373 0.148696,-0.0992 0.04948,-0.0619 0.173567,-0.0373 0.223309,0 0.01561,0.0124 0.07276,0 0.124089,0 0,0 0.01561,-0.0847 0.02487,-0.17357 0.0077,-0.0868 0.125677,-0.21802 0.07276,-0.29766 -0.05106,-0.07858 -0.09922,-0.372002 -0.09922,-0.372002 l -0.02328,-0.04974 c 0,0 -0.04974,0.09922 -0.124089,0.09922 -0.07435,0 -0.210873,-0.01244 -0.04974,-0.148696 0.161131,-0.136261 0.148696,-0.04974 0.148696,-0.04974 0,0 0.03731,-0.07435 0.148696,-0.07435 0.06509,0 0.102393,-0.09922 0.124089,-0.173566 -0.04815,0.02381 -0.08678,-0.0061 -0.124089,-0.04974 -0.07435,-0.08678 -0.06191,-0.297656 0.07435,-0.347133 0.13626,-0.04948 0.02328,-0.310092 0.148695,-0.347134 0.12409,-0.03731 0.285221,-0.124089 0.496094,-0.198437 0.210873,-0.07435 0.12409,-0.235744 -0.07435,-0.322527 -0.198437,-0.08678 -0.01243,-0.186002 0.12409,-0.223309 0.136525,-0.03731 0.161131,-0.124089 0,-0.148695 -0.161131,-0.02461 -0.223309,0.07435 -0.347133,0 -0.123825,-0.07435 -0.173567,0.248179 -0.322528,0.173566 -0.14896,-0.07461 -0.124089,-0.148696 -0.02487,-0.173566 0.09922,-0.02487 0.124089,-0.111655 -0.04974,-0.148696 -0.173831,-0.03704 -0.148696,0.198437 -0.297656,0.09922 -0.148961,-0.09922 0.111654,-0.248179 0.04974,-0.322527 -0.06191,-0.07435 -0.595312,0.148696 -0.347133,-0.02487 0.248179,-0.173567 0.285221,-0.26035 0.595313,-0.12409 0.310091,0.13626 0.248179,-0.07435 0.248179,-0.223308 0,-0.148961 -0.198438,0 -0.372004,-0.04974 -0.173567,-0.04974 0.04974,-0.173567 -0.07435,-0.322527 -0.12409,-0.148961 -0.12409,-0.347133 -0.12409,-0.347133 h 0.297656 c 0,0 0.01244,-0.01244 0.04974,-0.198438 0.01852,-0.09313 0.0048,-0.137583 -0.04974,-0.148696 -0.02778,-0.0045 -0.05424,-0.0127 -0.09922,-2.64e-4 z m -0.446353,3.795183 c 0.04022,0 0.07435,0.03413 0.07435,0.07435 0,0.04233 -0.03413,0.07435 -0.07435,0.07435 -0.0418,0 -0.07435,-0.03202 -0.07435,-0.07435 -2.65e-4,-0.04022 0.03254,-0.07435 0.07435,-0.07435 z"
       id="path518" />
    <path
       id="path4309"
       fill="#c0c0c0"
       stroke="#000000"
       stroke-width="0.132292"
       d="m 90.44787,92.9404 c -0.0418,0.02699 -0.102394,0.09499 -0.198437,0.173567 -0.193675,0.15822 -0.558006,0.09816 -0.645054,-0.02487 -0.08837,-0.121973 -0.151871,-0.07541 -0.396875,0.09922 -0.246592,0.175684 -0.07435,0.144728 -0.07435,0.372005 0,0.228335 -0.144198,0.303741 -0.248179,0.198437 -0.105305,-0.105304 0.07752,0.141552 -0.272786,0 -0.351896,-0.139435 -0.294481,-0.07541 -0.347133,-0.198437 -0.05265,-0.121973 -0.161131,0.155045 -0.248179,0.04974 -0.08837,-0.105304 -0.144198,-0.238654 -0.24818,-0.09922 -0.105304,0.141552 -0.311679,0.0807 -0.520964,0.272785 0,0 0.102394,0.285221 0.173567,0.372004 0.06985,0.0889 0.421745,-0.173567 0.421745,-0.173567 l 0.07435,0.12409 -0.09922,0.07435 0.248179,0.173567 c 0,0 -0.08837,0.288395 0,0.322527 0.08678,0.03625 0.170656,-0.01244 0.223308,-0.223309 0.05106,-0.210873 0.156633,0.01561 0.297656,0.173567 0.139436,0.158221 0.210873,0.502179 0.421746,0.396875 0.209286,-0.105304 -0.02778,-0.269875 0.148696,-0.322527 0.175154,-0.05265 0.223308,0.173567 0.223308,0.173567 l 1.140884,0.173566 v -0.124089 l -0.173567,-0.02487 0.07435,-0.148696 -0.248179,-0.372004 0.396875,0.124089 0.198437,-0.09922 -0.272785,-0.12409 0.02328,-0.173567 -0.248179,-0.248179 0.248179,0.02487 c 0,0 0.05742,-0.07541 0.07435,-0.198437 0.01852,-0.121973 0.08678,0.01746 0.173567,-0.12409 0.08837,-0.139435 -0.03254,-0.292365 -0.173567,-0.520965 -0.06985,-0.112712 -0.106892,-0.125147 -0.148696,-0.09922 h 0.0019 z m 0.471223,5.457031 c -0.05265,0.03307 -0.167481,0.05583 -0.372004,0.09922 -0.40931,0.08678 -0.458787,0.297656 -0.595312,0.545571 -0.06826,0.124089 -0.125678,0.200554 -0.173567,0.223308 l 0.02487,0.173567 c 0.113241,-0.02593 0.173566,0.04974 0.173566,0.04974 l 0.07276,-0.173566 0.07435,0.04974 c 0.05265,0.03625 0.173566,-0.02487 0.173566,-0.02487 l -0.02487,0.272785 h 0.09922 l 0.04974,0.198437 0.223308,-0.148695 0.02487,-0.322527 0.223308,-0.173567 -0.248179,-0.347133 0.347134,-0.173567 -0.02487,0.198437 0.272785,0.02487 0.02487,-0.173566 -0.347133,-0.297657 h 0.0016 z m -1.438539,1.091406 c -0.01693,-0.0042 -0.04339,0.0061 -0.12409,0.07435 -0.161131,0.136525 -0.02487,0.148696 0.04974,0.148696 0.03731,0 0.07752,-0.02487 0.09922,-0.04974 v -0.148695 c 0,2.64e-4 -0.0093,-0.01932 -0.02487,-0.02461 z m -0.372005,0.12409 c -0.0418,0 -0.07435,0.03413 -0.07435,0.07435 0,0.04233 0.03254,0.07435 0.07435,0.07435 0.04022,0 0.07435,-0.03202 0.07435,-0.07435 0,-0.04022 -0.03413,-0.07435 -0.07435,-0.07435 z m 1.5875,0.272785 -0.124089,0.124088 -0.322527,-0.09922 v 0.12409 l -0.12409,0.0249 -0.297656,0.37201 v 0.22331 l 0.02487,0.14869 0.198437,0.17357 c 0.113242,0.8763 0.310092,0.46725 0.347134,0.69453 0.0016,0.008 -0.0032,0.0185 0,0.0249 l 0.04974,0.0249 0.148696,-0.0497 v -0.19844 l 0.347133,-0.34713 -0.148695,0.0249 -0.198438,-0.22331 v -0.14869 l 0.12409,-0.0497 v -0.12409 l 0.198437,-0.2233 -0.02487,-0.19844 -0.198437,0.0249 -0.02487,-0.12409 0.173567,-0.0497 -0.02487,-0.124094 z" />
    <path
       id="path4336"
       fill="#c095ec"
       stroke="#000000"
       stroke-width="0.132292"
       d="m 90.44787,92.9404 c -0.0418,0.02699 -0.102394,0.09499 -0.198437,0.173567 -0.193675,0.15822 -0.558006,0.09816 -0.645054,-0.02487 -0.08837,-0.121973 -0.151871,-0.07541 -0.396875,0.09922 -0.246592,0.175684 -0.07435,0.144728 -0.07435,0.372005 0,0.228335 -0.144198,0.303741 -0.248179,0.198437 -0.105305,-0.105304 0.07752,0.141552 -0.272786,0 -0.351896,-0.139435 -0.294481,-0.07541 -0.347133,-0.198437 -0.05265,-0.121973 -0.161131,0.155045 -0.248179,0.04974 -0.08837,-0.105304 -0.144198,-0.238654 -0.24818,-0.09922 -0.105304,0.141552 -0.311679,0.0807 -0.520964,0.272785 0,0 0.102394,0.285221 0.173567,0.372004 0.06985,0.0889 0.421745,-0.173567 0.421745,-0.173567 l 0.07435,0.12409 -0.09922,0.07435 0.248179,0.173567 c 0,0 -0.08837,0.288395 0,0.322527 0.08678,0.03625 0.170656,-0.01244 0.223308,-0.223309 0.05106,-0.210873 0.156633,0.01561 0.297656,0.173567 0.139436,0.158221 0.210873,0.502179 0.421746,0.396875 0.209286,-0.105304 -0.02778,-0.269875 0.148696,-0.322527 0.175154,-0.05265 0.223308,0.173567 0.223308,0.173567 l 1.140884,0.173566 v -0.124089 l -0.173567,-0.02487 0.07435,-0.148696 -0.248179,-0.372004 0.396875,0.124089 0.198437,-0.09922 -0.272785,-0.12409 0.02328,-0.173567 -0.248179,-0.248179 0.248179,0.02487 c 0,0 0.05742,-0.07541 0.07435,-0.198437 0.01852,-0.121973 0.08678,0.01746 0.173567,-0.12409 0.08837,-0.139435 -0.03254,-0.292365 -0.173567,-0.520965 -0.06985,-0.112712 -0.106892,-0.125147 -0.148696,-0.09922 h 0.0019 z m 0.471223,5.457031 c -0.05265,0.03307 -0.167481,0.05583 -0.372004,0.09922 -0.40931,0.08678 -0.458787,0.297656 -0.595312,0.545571 -0.06826,0.124089 -0.125678,0.200554 -0.173567,0.223308 l 0.02487,0.173567 c 0.113241,-0.02593 0.173566,0.04974 0.173566,0.04974 l 0.07276,-0.173566 0.07435,0.04974 c 0.05265,0.03625 0.173566,-0.02487 0.173566,-0.02487 l -0.02487,0.272785 h 0.09922 l 0.04974,0.198437 0.223308,-0.148695 0.02487,-0.322527 0.223308,-0.173567 -0.248179,-0.347133 0.347134,-0.173567 -0.02487,0.198437 0.272785,0.02487 0.02487,-0.173566 -0.347133,-0.297657 h 0.0016 z m -1.438539,1.091406 c -0.01693,-0.0042 -0.04339,0.0061 -0.12409,0.07435 -0.161131,0.136525 -0.02487,0.148696 0.04974,0.148696 0.03731,0 0.07752,-0.02487 0.09922,-0.04974 v -0.148695 c 0,2.64e-4 -0.0093,-0.01932 -0.02487,-0.02461 z m -0.372005,0.12409 c -0.0418,0 -0.07435,0.03413 -0.07435,0.07435 0,0.04233 0.03254,0.07435 0.07435,0.07435 0.04022,0 0.07435,-0.03202 0.07435,-0.07435 0,-0.04022 -0.03413,-0.07435 -0.07435,-0.07435 z m 1.5875,0.272785 -0.124089,0.124088 -0.322527,-0.09922 v 0.12409 l -0.12409,0.0249 -0.297656,0.37201 v 0.22331 l 0.02487,0.14869 0.198437,0.17357 c 0.113242,0.8763 0.310092,0.46725 0.347134,0.69453 0.0016,0.008 -0.0032,0.0185 0,0.0249 l 0.04974,0.0249 0.148696,-0.0497 v -0.19844 l 0.347133,-0.34713 -0.148695,0.0249 -0.198438,-0.22331 v -0.14869 l 0.12409,-0.0497 v -0.12409 l 0.198437,-0.2233 -0.02487,-0.19844 -0.198437,0.0249 -0.02487,-0.12409 0.173567,-0.0497 -0.02487,-0.124094 z" />
    <g
       id="g523"
       transform="matrix(0.26458333,0,0,0.26458333,-68.644234,-112.30906)">
      <path
         id="path4382"
         fill="#c0c0c0"
         stroke="#000000"
         stroke-width="0.5"
         d="m 631.481,799.09 c -0.416,-0.098 -0.785,0.113 -0.844,0.75 -0.129,1.285 -0.299,1.203 -0.938,0.047 -0.48,-0.859 -1.699,-0.246 -2.531,0.141 l 0.469,0.938 -0.938,0.375 0.562,0.469 c 0,0 0.797,-0.656 1.219,-0.281 0.422,0.375 0.469,0.703 -0.094,0.938 -0.563,0.235 -0.703,0.281 -0.469,0.656 0.234,0.375 0.234,0.562 -0.375,0.938 -0.305,0.188 -0.498,0.34 -0.844,0.562 0.152,0.746 0.27,1.652 -0.281,1.969 -0.896,0.516 0.246,1.578 4.219,-1.5 3.967,-3.07 4.096,-4.043 3.844,-4.688 -0.258,-0.637 -1.939,1.32 -2.062,-0.094 -0.064,-0.705 -0.527,-1.115 -0.937,-1.22 z m -5.625,3.281 c -0.082,0.008 -0.164,0.023 -0.281,0.094 -0.469,0.281 -0.328,0.609 -0.094,1.031 0.059,0.117 0.041,0.398 0,0.75 0.486,-0.309 1.031,-0.562 1.031,-0.562 0,0 -0.006,0.09 0,0.094 0.146,-0.387 0.27,-0.695 0.094,-0.844 -0.352,-0.282 -0.504,-0.567 -0.75,-0.563 z m -4.875,0.656 c -1.371,0.711 -0.727,1.543 -1.5,1.875 -0.07,0.031 -0.129,0.059 -0.188,0.094 l -0.188,-0.094 c -0.018,0.059 0.006,0.258 0,0.281 -0.135,0.336 -0.357,0.375 -0.75,0.375 -0.398,0 -0.627,0.562 -0.094,0.562 0.527,0 0.58,0.258 0.188,0.656 -0.223,0.223 -0.527,0.277 -0.844,0.281 0.064,0.148 0.053,0.254 -0.094,0.281 -0.516,0.094 -0.938,0.797 -0.656,1.406 0.282,0.609 1.078,-0.281 1.219,0.281 0.141,0.562 0.047,0.656 0.75,0.281 0.703,-0.375 -0.562,-0.984 0,-1.5 0.562,-0.516 1.453,-0.469 1.688,-1.312 0.235,-0.843 0,-0.984 0.188,-1.781 0.169,-0.74 0.738,-0.736 0.281,-1.686 z" />
    </g>
    <path
       fill="#24aa2b"
       stroke="#000000"
       stroke-width="0.132292"
       d="m 93.322039,88.459946 c 0.286808,-0.143669 0.382852,0.454819 0.598487,0.2159 0.215371,-0.240771 0.480484,-0.02487 0.719403,0 0.240241,0.02275 -0.07144,-0.455877 0.431006,-0.38444 0.503766,0.07223 0.192352,0.503238 0.503766,0.455877 0.31168,-0.04868 -0.02487,-0.383381 0.286809,-0.479425 0.311679,-0.09604 0.120914,0.646907 0.528637,0.623094 0.406136,-0.02487 1.006211,0.02381 1.077384,-0.263525 0.07144,-0.288396 0.119327,-0.455877 -0.382853,-0.407194 -0.503766,0.04763 -0.671247,0.07144 -0.886883,-0.312208 -0.215371,-0.382323 -0.04815,-0.31115 0.311679,-0.623094 0.359569,-0.31115 0.479161,-0.286279 0.286809,-0.478631 -0.190765,-0.192352 -0.119327,-0.408252 0.120914,-0.52705 0.238654,-0.119856 0.406136,0.04762 0.790575,-0.240771 0.382852,-0.286279 0.575204,-0.09604 0.813859,0.120915 0.240241,0.2159 0.623093,0.454818 0.886883,0.312208 0.263525,-0.144727 0.215371,-0.04868 0.288396,0.167481 0.07144,0.214842 0.09446,0.238654 0.38285,0.31115 0.28681,0.07144 0.19235,0.287338 0,0.623094 -0.19235,0.334963 -0.671246,0.383381 -0.479159,0.718344 0.190765,0.336021 0.04816,0.407194 -0.288395,0.574675 -0.334963,0.169598 -0.646378,0.408252 -0.886884,0.886883 -0.238654,0.479425 -0.215371,0.479425 -0.52705,0.167481 -0.311679,-0.31115 -0.454289,-0.238654 -0.406135,0.02487 0.04657,0.263525 -0.192352,0.52705 -0.886883,0.479425 -0.696119,-0.04868 -1.223169,-0.04868 -1.223169,-0.455877 0,-0.406135 -0.04815,-0.287337 -0.575204,-0.263525 -0.52705,0.02487 -0.623094,0.02487 -0.83873,0.336021 -0.21537,0.312208 -0.167481,0.191294 -0.47916,-0.07223 -0.311679,-0.263525 -0.192352,-0.119857 0.119327,-0.312209 0.311679,-0.190235 0.09604,-0.406135 -0.14261,-0.66966 -0.239713,-0.26379 -0.35904,-0.360098 -0.143669,-0.527579 z m -0.989013,0.586052 c -0.119327,0.0061 -0.09155,0.114829 -0.248179,0.272785 -0.210873,0.210873 -0.230981,0.220134 -0.545571,0.272786 -0.302418,0.05159 -0.888206,0.842433 -0.942445,0.917839 -0.01085,0.0061 -0.01402,0.01852 -0.02487,0.02487 l 0.02487,-0.272785 -0.372005,0.347133 -0.04974,0.545571 c 0.288396,-0.01958 0.573616,-0.08784 0.843491,-0.173567 0.0061,-0.0011 0.01693,0.0032 0.02487,0 l 1.017059,-0.02487 0.04974,-0.297656 -0.04974,-0.173567 c 0.353483,-0.226218 0.624681,-0.477572 0.719402,-0.645054 0.0048,-0.0093 -0.0048,-0.01561 0,-0.02487 0.0048,-0.0011 0.01852,0.0021 0.02487,0 0.245004,-0.06932 0.198437,-0.270668 0.198437,-0.446616 0,-0.174625 -0.145785,-0.192352 -0.496094,-0.297656 -0.0889,-0.0254 -0.135202,-0.0254 -0.174096,-0.02434 z"
       id="path525" />
    <path
       id="path4454"
       fill="#c0f366"
       stroke="#000000"
       stroke-width="0.132292"
       d="m 92.82912,92.469177 -0.198437,0.421746 0.223308,0.173566 v 0.297657 c 0,0 -0.14261,0.108479 -0.12409,0.248179 0.01693,0.141552 0.153459,0.290512 0.347134,0.148696 0.192352,-0.139436 0.421746,-0.148696 0.421746,-0.148696 v -0.07435 l 0.09922,-0.04974 v -0.173566 l 0.272786,-0.297657 -0.223309,-0.372004 h -0.198437 l -0.248179,0.297656 -0.223309,-0.09922 0.07435,-0.09922 z m -1.264973,1.190625 -0.223308,0.297656 c 0.128587,0.0889 0.286808,0.188119 0.372004,0.198438 0.139436,0.01746 0.12409,-0.205582 0.248179,-0.223309 0.08678,-0.01243 0.03254,-0.164306 0,-0.272785 z m 1.488282,1.43854 c -0.09155,-0.0011 -0.179917,0.01852 -0.223309,0.07435 -0.08678,0.111655 -0.111654,0.148696 -0.421746,0.04974 -0.310091,-0.09895 -0.434181,0.310092 -0.54557,0.248179 -0.11139,-0.06191 -0.223309,-0.03731 -0.322528,0.12409 -0.09922,0.161396 -0.161131,0.210873 -0.520964,0.272785 -0.359833,0.06191 -0.508529,-0.04974 -0.694531,-0.07435 -0.186002,-0.02461 -0.223309,0.310092 0,0.570442 0.223308,0.26035 0.06191,0.248179 0.372004,0.248179 0.310091,0 0.136525,0.186002 0.198437,0.446617 0.06191,0.260614 0,0.223308 0.248179,0.223308 0.24818,0 0.09922,0.06191 0.09922,0.297656 0,0.235744 -0.07435,0.01244 -0.148696,0.12409 -0.0635,0.09498 -0.0061,0.14261 -0.04974,0.223308 0.09313,0.09922 0.21246,0.223309 0.372004,0.223309 0.248179,0 0.434181,0.03731 0.446617,0.173566 0.01243,0.136261 0.02487,0.272786 -0.12409,0.297657 -0.111654,0.01852 -0.296069,0.09922 -0.396875,0.148695 0.02646,0.02487 0.06191,0.04551 0.07435,0.07435 0.06985,0.175684 0.272785,0.520965 0.272785,0.520965 l 0.272786,0.148696 0.421746,-0.446617 c 0,0 -0.182828,-0.208756 0.09922,-0.297656 0.139436,-0.04339 0.207698,-0.05371 0.248179,-0.04974 0.06509,-0.02884 0.120915,-0.04763 0.173567,-0.02487 0.156633,0.07144 0.482071,0.03916 0.272786,-0.04974 -0.210873,-0.08678 -0.389203,-0.360627 0.173566,-0.396875 0.561181,-0.03413 0.699294,0.157162 0.892969,0.173566 0.192352,0.01852 -0.0032,-0.289454 0.173567,-0.272785 0.175154,0.01852 0,-0.272785 0,-0.272785 l 0.372004,-0.322528 0.818621,0.148696 0.173566,-0.297656 -0.396875,0.07435 v -0.148696 l 0.04974,-0.173567 c 0,0 -0.207698,-0.0011 -0.04974,-0.124089 0.103982,-0.08176 0.254265,-0.220133 0.396875,-0.347133 H 95.58211 l -0.02487,-0.198438 c -0.145785,0.04974 -0.347133,0.09499 -0.496094,0.07435 -0.272785,-0.03731 -0.26035,0.148696 -0.496094,0.148696 -0.235743,0 -0.26035,-0.186002 -0.223308,-0.372004 0.03704,-0.186002 0.322527,-0.24818 0.322527,-0.24818 l -0.02487,-0.198437 h -0.02487 l 0.02487,-0.12409 -0.645054,0.272786 -0.02487,-0.347134 c 0,0 -0.03731,0.04974 -0.223308,0.173567 -0.186002,0.123825 -0.285221,0.03731 -0.446617,-0.198437 -0.161395,-0.235744 0.12409,-0.396875 0,-0.496094 -0.06112,-0.04921 -0.155575,-0.07197 -0.24712,-0.07408 z m 3.175,3.051175 0.09922,0.446616 -0.942446,0.347134 -0.248179,-0.173567 -0.124089,0.04974 0.07435,0.248179 c 0,0 -0.317765,0.03731 -0.545571,0.124089 -0.114829,0.04551 -0.234156,0.172509 -0.322527,0.297656 0.06509,0.05265 0.113241,0.200555 0.148696,0.322528 l 0.173566,-0.04974 0.198438,0.248178 -0.02487,0.27279 0.09922,0.12409 h 0.148695 l 0.02487,0.19843 0.173567,0.0498 0.04974,0.0249 c 0.01561,-0.009 0.03096,-0.0164 0.04974,-0.0249 0.204523,-0.0879 0.03413,-0.30798 0.396875,-0.4961 0.05424,-0.0278 0.08678,-0.0466 0.173567,-0.0743 0.643467,-0.202667 0.539485,0.13653 0.744008,0 0.2032,-0.134405 0.502179,-0.298711 0.570442,-0.570438 0.01561,-0.06615 0.07435,-0.114829 0.148696,-0.148696 0.220133,-0.102394 0.54266,-0.277019 0.66966,-0.04974 0.169069,0.305859 0.214048,0.33999 0.248179,0 0.01561,-0.168539 0.113242,-0.224366 0.223309,-0.198437 0.0061,0.0021 0.01693,-0.0011 0.02487,0 -0.01561,-0.115888 -0.03254,-0.211931 -0.04974,-0.297656 l -0.148696,-0.04974 -0.496094,-0.272785 c 0,0.02778 0,0.07435 0,0.07435 l -0.124089,-0.02487 c -0.12409,-0.02487 -0.198438,-0.210873 -0.322527,-0.198438 -0.12409,0.01244 -0.372005,0.173567 -0.372005,0.173567 z m -5.060157,0.471222 -0.07435,0.02487 0.148696,0.223309 0.02487,-0.173567 z" />
    <path
       id="path4485"
       fill="#c07e5f"
       stroke="#000000"
       stroke-width="0.132292"
       d="m 98.484589,95.32165 c 0.0016,0.03307 -0.0093,0.06509 0,0.09922 -0.09313,0.214048 0.04974,0.421745 0.04974,0.421745 l 0.272785,0.620184 -0.248179,0.694531 c 0,0 -0.223309,-0.04974 -0.322527,-0.09922 -0.09446,-0.04657 -0.243417,0.0093 -0.396875,0.09922 0.04657,0.07038 0.108479,0.110596 0.148696,0.12409 0.134937,0.04974 0.04974,0.148695 0.04974,0.272785 0,0.12409 -0.198437,0.04974 -0.198437,0.04974 0,0 0,0.186002 -0.09922,0.297656 -0.09922,0.111654 -0.136525,0.272785 -0.04974,0.372004 0.06059,0.07038 0.07144,0.160073 0.07435,0.223308 l 0.496094,0.272786 0.148696,0.04974 c -0.0061,-0.0217 -0.02328,-0.05583 -0.02487,-0.07435 0.05424,-0.02487 0.105304,-0.04974 0.12409,-0.12409 0.03731,-0.148696 0.223308,-0.26035 0.272785,-0.148696 0.04948,0.111654 0.272785,0.03731 0.272785,-0.09922 0,-0.136525 -0.04974,-0.297656 -0.04974,-0.297656 l 0.09922,-0.173566 h 0.347134 c 0,0 0.111654,0.471222 0.198437,0.297656 0.08678,-0.173567 0.111654,-0.235744 0.198438,-0.396875 0.08678,-0.161131 0.173559,-0.173567 0.198429,-0.322527 0.0249,-0.148961 0.11166,-0.285221 0.22331,-0.372004 0.11166,-0.08678 0.24818,-0.06191 0.17357,0.07435 -0.0746,0.136261 -0.0884,0.186003 -0.0743,0.272786 0.0124,0.08678 -0.0497,0.111654 -0.0992,0.223308 -0.0495,0.111654 0.27279,0.223309 0.22331,0.248179 V 97.55473 c 0,0 0.29766,0.04974 0.34713,-0.173566 0.0495,-0.223309 -0.0868,-0.471223 -0.19843,-0.645055 -0.11166,-0.173831 -0.42175,-0.07435 -0.42175,-0.07435 l -0.248174,-0.124089 0.124084,-0.148696 -0.198432,-0.173567 c 0,0 0.124082,-0.223308 -0.09922,-0.322527 -0.223308,-0.09922 -0.620183,0.02487 -0.620183,0.02487 l -0.09922,0.09922 h -0.198437 l 0.07435,-0.347133 h -0.396875 c -0.04022,-0.143669 -0.04815,-0.24818 -0.04974,-0.347134 h -0.02355 z m -2.009246,1.165754 -0.223308,0.07435 0.09922,0.248179 -0.297657,0.02487 -0.198437,-0.148696 h -0.07435 c -0.142611,0.127 -0.292894,0.265642 -0.396875,0.347133 -0.158221,0.123032 0.04974,0.12409 0.04974,0.12409 l -0.04974,0.173567 v 0.148696 l 0.396875,-0.07435 -0.173567,0.297656 -0.818621,-0.148696 -0.372004,0.322527 c 0,0 0.175154,0.291571 0,0.272786 -0.176741,-0.01641 0.01852,0.29157 -0.173566,0.272785 -0.193675,-0.0164 -0.331788,-0.207698 -0.892969,-0.173567 -0.561181,0.03625 -0.38444,0.310092 -0.173567,0.396875 0.209286,0.0889 -0.116152,0.119857 -0.272785,0.04974 -0.05265,-0.02275 -0.108479,-0.0042 -0.173567,0.02487 0.03863,0.0053 0.04974,0.02487 0.04974,0.02487 0,0 -0.294482,0.34925 -0.223309,0.471223 0.06985,0.123031 0.18759,-0.182828 0.223309,-0.02487 0.03413,0.158221 0.148696,0.259291 0.272785,0.223308 0.122502,-0.03413 0.173567,0.173567 0.173567,0.173567 l -0.07435,0.07435 v 0.02487 l 0.04974,0.198438 0.148695,-0.07435 0.02487,-0.322527 0.12409,0.148696 c 0,0 0.359569,-0.12409 0.396875,-0.173567 0.01852,-0.02487 0.06826,-0.04762 0.124089,-0.04974 0.05583,-0.0011 0.11774,0.03096 0.173567,0.04974 0.0077,0.0032 0.01561,0.01852 0.02487,0.02487 0.08837,-0.125148 0.207698,-0.254265 0.322527,-0.297656 0.227806,-0.08678 0.545571,-0.12409 0.545571,-0.12409 l -0.07435,-0.248179 0.124089,-0.04974 0.24818,0.173567 0.942445,-0.347133 -0.09922,-0.446617 -0.12409,-0.07435 c 0,0 -0.02487,-0.08678 0.04974,-0.173567 0.07461,-0.08678 0.347133,0 0.347133,0 l -0.09922,-0.148695 0.24818,-0.12409 -0.223309,-0.297656 0.148696,-0.12409 c -0.0852,-0.04974 -0.12409,-0.148696 -0.12409,-0.148696 l 0.322527,-0.173566 -0.124089,-0.02487 z" />
    <path
       id="path4536"
       fill="#febe09"
       stroke="#000000"
       stroke-width="0.132292"
       d="m 78.764929,83.862017 c 0.421746,-0.322527 1.091406,-0.744009 1.240366,-0.967317 0.148961,-0.223308 0.396875,-0.446617 0.868098,-0.496094 0.471223,-0.04948 0.545571,0.09922 0.173567,0.322527 -0.372004,0.223309 -0.843492,0.347134 -0.66966,0.620184 0.173831,0.27305 0.297656,0.66966 -0.07435,0.917839 -0.372005,0.248179 -0.520965,0.446617 -0.719402,0.396875 -0.198438,-0.04974 0.198437,-0.372004 -0.04974,-0.446616 -0.248179,-0.07461 -0.12409,0.446616 -0.396875,0.520964 -0.272786,0.07435 -1.066536,-0.05001 -0.372004,-0.868362 z" />
    <path
       fill="#00b3b2"
       stroke="#000000"
       stroke-width="0.132292"
       d="m 75.498648,105.76026 c 0.164835,-0.10425 0.244475,-0.23416 0.327818,-0.40614 0.01958,-0.0407 0.0418,-0.0722 0.0635,-0.10477 -0.04842,-0.22755 -0.126735,-0.45218 -0.126735,-0.45218 0,0 -0.02937,0.006 -0.04974,0 l 0.12409,-0.57044 -0.173567,0.54557 c -0.08678,-0.0103 -0.249502,-0.0217 -0.396875,-0.0497 -0.165894,-0.0288 -0.348721,-0.12197 -0.396875,-0.1487 -0.0048,-10e-4 -0.02328,-0.0228 -0.02487,-0.0249 l 0.198438,-0.372 0.79375,0.0497 0.173566,-0.69453 -0.719402,-0.64505 0.520965,-0.62019 c -0.09313,-0.0939 -0.176742,-0.16219 -0.248179,-0.12409 -0.223309,0.12409 -0.669661,0.29766 -0.843492,0 -0.173831,-0.29765 -0.446617,-0.52096 -0.719402,-0.7194 -0.272785,-0.19844 -0.372004,-0.62018 -0.223308,-0.91784 0.139435,-0.28019 0.876035,-0.49398 0.967316,-0.520964 l 0.07435,-1.116277 -0.496093,-0.223308 0.07435,-0.446617 -0.148695,0.223309 -0.297657,-0.248179 -1.041929,0.645054 0.396875,0.347133 -0.396875,0.545571 -0.744008,-0.02487 -1.785938,-0.07435 -0.248179,1.835678 -0.645054,0.54557 0.347133,0.19844 0.198438,0.94245 -0.496094,0.34713 0.148696,0.34713 0.09922,0.24818 -0.223309,0.24818 -0.07435,0.0992 0.272785,0.34713 1.537758,2.03412 c 0.150284,-0.0384 0.703792,-0.19024 1.165754,-0.32253 0.26035,-0.0743 0.441855,-0.19235 0.595313,-0.24818 0.153458,-0.0558 0.291571,-0.0497 0.446617,0.12409 0.127,0.14473 0.251089,0.17251 0.446616,0.29766 0.07594,-0.0156 0.409311,-0.0754 0.669661,-0.19844 0.286808,-0.13441 0.496093,-0.42174 0.496093,-0.42174 0,0 0.0095,-0.003 0.02064,-0.007 0.09393,-0.12197 0.227012,-0.18389 0.360892,-0.26855 z"
       id="path542" />
    <path
       fill="#ff0000"
       stroke="#000000"
       stroke-width="0.132292"
       d="m 75.292273,106.26058 c -0.02487,0.28205 0.21246,0.27808 0.54557,0.22331 0.145786,-0.0228 0.272786,-0.0434 0.471223,-0.0743 0.519377,-0.0818 0.508529,-0.35454 0.372004,-0.66966 -0.03254,-0.0743 -0.08519,-0.14367 -0.124089,-0.22331 -0.111654,-0.22013 -0.212461,-0.25532 -0.372004,-0.2233 -0.07594,0.0156 -0.165894,0.027 -0.272786,0.0743 -0.0058,-0.0386 -0.01376,-0.0786 -0.02223,-0.11826 -0.0217,0.0325 -0.04392,0.064 -0.0635,0.10477 -0.08334,0.17198 -0.162983,0.30215 -0.327818,0.40614 -0.13388,0.0844 -0.266965,0.14658 -0.359305,0.26961 0.0426,-0.0153 0.152665,-0.0548 0.252148,-0.0918 -0.04498,0.10556 -0.08996,0.20055 -0.09922,0.32252 z"
       id="path544" />
  </g>
</svg>
