<?xml version="1.0" encoding="UTF-8" standalone="no"?>
<!-- Created with Inkscape (http://www.inkscape.org/) -->

<svg
   width="210mm"
   height="297mm"
   viewBox="0 0 210 297"
   version="1.1"
   id="svg2467"
   inkscape:version="1.1.1 (3bf5ae0d25, 2021-09-20)"
   sodipodi:docname="ottoman.svg"
   xmlns:inkscape="http://www.inkscape.org/namespaces/inkscape"
   xmlns:sodipodi="http://sodipodi.sourceforge.net/DTD/sodipodi-0.dtd"
   xmlns="http://www.w3.org/2000/svg"
   xmlns:svg="http://www.w3.org/2000/svg">
  <sodipodi:namedview
     id="namedview2469"
     pagecolor="#ffffff"
     bordercolor="#666666"
     borderopacity="1.0"
     inkscape:pageshadow="2"
     inkscape:pageopacity="0.0"
     inkscape:pagecheckerboard="0"
     inkscape:document-units="mm"
     showgrid="false"
     inkscape:zoom="0.7500982"
     inkscape:cx="397.28131"
     inkscape:cy="560.59326"
     inkscape:window-width="1920"
     inkscape:window-height="1027"
     inkscape:window-x="1912"
     inkscape:window-y="-8"
     inkscape:window-maximized="1"
     inkscape:current-layer="layer1" />
  <defs
     id="defs2464" />
  <g
     inkscape:label="Ebene 1"
     inkscape:groupmode="layer"
     id="layer1">
    <path
       id="path4631"
       fill="#aa9980"
       stroke="#000000"
       stroke-width="0.132292"
       d="m 59.571182,79.989786 c -0.331787,-0.0164 -0.640291,0.04868 -0.81862,0.07435 -0.24183,0.03731 -0.446617,0.263525 -0.694532,0.496094 0.0032,0.0053 -0.0048,0.02064 0,0.02487 0.418571,0.582877 0.206111,0.753533 -0.694531,0.91784 -1.055687,0.192352 -0.288396,0.870214 0,2.306902 0.286808,1.438804 0.100806,1.057275 0.868098,2.207683 0.765969,1.150408 1.537758,1.441714 0.868098,1.537758 -0.558006,0.0807 -0.840317,0.203729 -1.835679,-0.02487 -0.296069,0.50853 -0.967317,1.314715 -0.967317,1.314715 l -1.389062,0.04974 -0.446617,1.140883 -0.620183,0.04974 -1.240367,-0.669661 c 0,0 -0.460375,0.628386 -0.868098,1.240367 -0.40931,0.613833 -0.604573,1.003564 -0.297656,1.513152 0.305329,0.511704 2.802996,0.818621 2.802996,0.818621 l 0.868098,0.868098 0.81862,0.223308 0.520965,0.818621 1.116277,0.744008 v 0.719402 l -0.297656,0.520965 -0.09922,0.868098 1.984375,0.570441 0.148696,1.017059 0.471223,0.7194 1.314714,0.8681 0.570442,3.67109 0.04974,0.34714 -0.520965,0.24818 c 0.02011,0.0434 0.05583,0.0714 0.07435,0.12408 0.151871,0.46091 -0.01085,0.36487 -0.520965,0.62019 -0.511704,0.25638 -0.618595,0.186 -0.719402,0.59531 -0.102393,0.40931 -0.508529,0.52705 -0.967316,0.32253 -0.0217,-0.009 -0.03096,0.008 -0.04974,0 -0.102394,0.064 -0.201613,0.1262 -0.297656,0.14869 -0.0093,0.11377 0,0.2376 0,0.39688 0,0.40931 -0.418571,0.5797 -0.570442,0.27278 -0.03572,-0.0693 -0.09446,-0.10848 -0.173567,-0.12409 -0.0093,-0.001 -0.01693,0.002 -0.02487,0 -0.0635,-0.007 -0.150284,-0.003 -0.223309,0 -0.03254,0.002 -0.06826,-0.001 -0.09922,0 -0.07276,0.005 -0.131762,0.003 -0.198437,0 -0.03572,-0.001 -0.06985,0.005 -0.09922,0 -0.0093,-0.001 -0.01852,0.002 -0.02487,0 -0.03731,-0.006 -0.06985,-0.0278 -0.09922,-0.0497 -0.03572,-0.0228 -0.05583,-0.0537 -0.07435,-0.0992 -0.153459,-0.35771 -0.110067,-0.51276 -0.620184,0.0992 -0.511704,0.61384 -0.86651,0.92922 -0.917839,1.43881 -0.01402,0.12912 -0.03254,0.23865 -0.04974,0.32253 -0.01852,0.0857 -0.04498,0.15716 -0.07435,0.19843 -0.02646,0.0362 -0.0635,0.0455 -0.09922,0.0497 -0.05107,0.002 -0.122503,-0.0103 -0.198438,-0.0497 -0.306917,-0.15293 -0.54266,-0.2667 -0.645054,-0.47122 -0.102394,-0.20452 -0.835554,-0.96229 -1.140883,-1.11628 -0.306917,-0.15293 -1.871134,0.24712 -2.38125,0.29766 -0.511705,0.0516 -1.096169,0.45879 -1.810809,0.8681 -0.477573,0.27278 -0.85725,0.0857 -1.091406,0.0249 -0.0635,0.031 -0.155046,0.0672 -0.223308,0.0992 -0.07144,0.34925 -0.668073,0.64796 -0.868098,0.39687 -0.936361,0.40508 -1.919288,0.8083 -2.157942,0.96732 -0.0418,0.0278 -0.07911,0.0402 -0.124089,0.0497 -0.06826,0.0156 -0.150284,-0.006 -0.223309,-0.0249 -0.0077,-0.001 -0.01852,0.003 -0.02487,0 -0.0635,-0.0185 -0.13335,-0.0413 -0.198437,-0.0743 -0.2032,-0.10345 -0.407723,-0.25427 -0.595313,-0.37201 0.06509,0.18918 0.198438,0.52097 0.198438,0.99219 0,0.12303 -0.01561,0.22543 -0.02487,0.29766 -0.0077,0.0423 -0.01402,0.12303 -0.02487,0.14869 -0.01852,0.0497 -0.04498,0.0765 -0.07435,0.0992 -0.02011,0.0156 -0.04974,0.0373 -0.07435,0.0497 -0.06191,0.0341 -0.134937,0.0743 -0.223308,0.17357 -0.08996,0.10134 -0.182827,0.26564 -0.297656,0.54557 -0.05742,0.14155 -0.119327,0.26353 -0.173567,0.34714 -0.01402,0.0206 -0.03572,0.0579 -0.04974,0.0744 -0.07752,0.095 -0.150283,0.14472 -0.223308,0.14869 -0.03863,0.006 -0.06191,-0.0103 -0.09922,-0.0249 -0.07435,-0.0259 -0.150283,-0.0693 -0.223308,-0.14869 -0.04815,-0.0526 -0.100806,-0.13124 -0.148696,-0.19844 -0.09763,-0.13018 -0.195262,-0.26776 -0.297656,-0.39688 -0.40931,-0.50958 -0.914665,0.92393 -2.703777,1.5875 -0.44794,0.16643 -0.762794,0.31936 -0.992188,0.44662 -0.114829,0.064 -0.201612,0.11774 -0.272785,0.17357 -0.09313,0.0743 -0.139435,0.13335 -0.173567,0.19843 -0.03254,0.0609 -0.05424,0.11669 -0.04974,0.17357 0.0016,0.0249 -0.0061,0.0516 0,0.0743 0.0032,0.027 0.01402,0.0516 0.02487,0.0744 0.0061,0.0156 0.01693,0.0341 0.02487,0.0497 0.02778,0.0579 0.06059,0.11377 0.09922,0.17357 0.0635,0.10239 0.103981,0.17251 0.12409,0.24818 0.01852,0.0765 0.02646,0.1643 0,0.24818 -0.05583,0.16959 -0.215371,0.38444 -0.471223,0.79375 -0.511704,0.81862 -0.575204,0.9271 -0.421746,1.48828 0.0093,0.0373 0.02011,0.0672 0.02487,0.0992 0.0016,0.0156 -0.0048,0.0341 0,0.0497 0.102394,0.40613 0.162719,0.64399 0.595312,1.06653 -0.469635,0.43418 -0.565943,0.47651 -1.215496,0.62018 -0.0032,0.005 -0.0217,-0.003 -0.02487,0 -0.04974,0.0579 -0.102394,0.12409 -0.148696,0.17357 -0.0635,0.0683 -0.108479,0.13652 -0.148696,0.19844 -0.0418,0.0619 -0.07435,0.11482 -0.09922,0.17356 -0.148696,0.35349 -0.05424,0.67495 -0.297656,1.2155 -0.08228,0.18203 -0.151871,0.30586 -0.223308,0.372 -0.03572,0.0341 -0.06509,0.0402 -0.09922,0.0497 -0.0807,0.0217 -0.170656,-0.0444 -0.248179,-0.12409 -0.08996,-0.091 -0.176742,-0.20267 -0.272786,-0.372 -0.289983,-0.50535 -0.381264,-0.77523 -1.537758,-0.59531 -0.144198,0.0238 -0.280723,0.0434 -0.396875,0.0497 -0.224896,0.0124 -0.40296,-0.0156 -0.545571,-0.0497 -0.0077,-10e-4 -0.01693,0.003 -0.02487,0 -0.144198,-0.0373 -0.240241,-0.10345 -0.322527,-0.17357 -0.02487,-0.0196 -0.05424,-0.0278 -0.07435,-0.0497 -0.0048,-0.004 0.0048,-0.0185 0,-0.0249 -0.08361,-0.0931 -0.145785,-0.19235 -0.198437,-0.29766 -0.181504,-0.36063 -0.432594,-0.37624 -0.79375,-0.12409 -0.173567,0.12092 -0.365919,0.15187 -0.545571,0.12409 -0.0077,-0.001 -0.01852,0.002 -0.02487,0 -0.189177,-0.0341 -0.365919,-0.13335 -0.545571,-0.22331 -0.02646,-0.0124 -0.04974,-0.0185 -0.07435,-0.0249 -0.06059,-0.0135 -0.119327,-0.0196 -0.173566,0 -0.07594,0.0278 -0.142611,0.0982 -0.223309,0.17357 -0.04022,0.0392 -0.07911,0.0796 -0.124089,0.12409 -0.04815,0.0497 -0.09313,0.095 -0.148696,0.14869 -0.02646,0.0249 -0.04657,0.0498 -0.07435,0.0743 -0.08678,0.0807 -0.184414,0.14579 -0.297656,0.22331 -0.289983,0.19844 -0.544248,0.37412 -0.818621,0.57044 -0.274373,0.19738 -0.567531,0.41751 -0.892969,0.66966 -0.08228,0.064 -0.153458,0.11986 -0.223308,0.1487 -0.137848,0.0609 -0.2667,0.0392 -0.372004,0 -0.05265,-0.0185 -0.102394,-0.0402 -0.148696,-0.0743 -0.0093,-0.006 -0.01561,-0.0164 -0.02487,-0.0249 -0.08228,-0.063 -0.165894,-0.14049 -0.248179,-0.22331 -0.01561,-0.0156 -0.03413,-0.0341 -0.04974,-0.0497 -0.08678,-0.0836 -0.170656,-0.15928 -0.272785,-0.22331 -0.05265,-0.031 -0.09155,-0.0601 -0.12409,-0.0992 -0.03731,-0.0384 -0.05424,-0.0807 -0.07435,-0.12409 -0.02487,-0.0497 -0.01693,-0.096 -0.02487,-0.14869 -0.0032,-0.0164 -0.02328,-0.031 -0.02487,-0.0497 0,-0.0156 0,-0.032 0,-0.0498 0,-0.0185 0,-0.031 0,-0.0497 0.0016,-0.0807 0.0048,-0.15504 0,-0.22331 0,-0.007 0.0016,-0.0164 0,-0.0249 -0.0077,-0.0714 -0.03572,-0.13652 -0.09922,-0.17356 -0.04815,-0.0259 -0.110067,-0.0259 -0.173567,-0.0249 -0.06059,-0.003 -0.127,0.008 -0.198437,0.0249 -0.08361,0.0206 -0.175154,0.0558 -0.272786,0.0992 -0.0061,0.003 -0.01852,-0.003 -0.02487,0 -0.01852,0.009 -0.03096,0.0156 -0.04974,0.0249 -0.01878,0.009 -0.03096,0.0156 -0.04974,0.0249 -0.02778,0.0156 -0.04498,0.0331 -0.07435,0.0497 -0.125677,0.0714 -0.255852,0.14473 -0.396875,0.24818 -0.07276,0.0548 -0.116152,0.11377 -0.173566,0.17356 -0.05265,0.059 -0.105304,0.11166 -0.148696,0.17357 -0.171979,0.24818 -0.274373,0.5334 -0.347133,0.84349 -0.03572,0.15505 -0.0635,0.30904 -0.09922,0.47123 -0.03572,0.16324 -0.08229,0.20769 -0.148696,0.19843 -0.03254,-0.003 -0.08678,-0.0196 -0.12409,-0.0497 -0.03731,-0.0278 -0.059,-0.059 -0.09922,-0.0992 -0.09155,-0.091 -0.18759,-0.19949 -0.272786,-0.24818 -0.02646,-0.0135 -0.05106,-0.0228 -0.07435,-0.0249 -0.03413,0 -0.07144,0.0124 -0.09922,0.0497 -0.02646,0.0373 -0.06826,0.058 -0.09922,0.0744 -0.0048,0.003 -0.01852,0 -0.02487,0 -0.02487,0.0114 -0.04498,0.0217 -0.07276,0.0249 -0.06668,0.0156 -0.13335,0.0156 -0.223309,0.0249 -0.04498,0.005 -0.09922,0.009 -0.148696,0.0249 -0.04815,0.0156 -0.09763,0.0402 -0.148695,0.0744 -0.05106,0.0341 -0.09313,0.0889 -0.148696,0.1487 -0.05424,0.0609 -0.114829,0.12912 -0.173567,0.22331 -0.100806,0.1643 -0.181504,0.26881 -0.248179,0.32252 -0.01085,0.009 -0.01561,0.0175 -0.02487,0.0249 -0.02328,0.0175 -0.03096,0.0217 -0.04974,0.0249 -0.03731,0.0124 -0.05741,-0.0352 -0.07435,-0.0743 -0.0032,-0.009 0.0032,-0.0373 0,-0.0497 -0.0077,-0.0373 -0.02646,-0.09 -0.02487,-0.1487 0.0016,-0.0135 -0.0016,-0.0352 0,-0.0497 0.0016,-0.007 0,-0.0164 0,-0.0249 0.0077,-0.0693 0.03254,-0.15822 0.04974,-0.24818 0.02646,-0.12806 0.05106,-0.25744 0.09922,-0.42175 l -0.248179,0.64506 c 0,0 -0.3302,-0.0714 -0.694531,-0.1487 -0.353484,-0.0744 -0.719402,-0.14869 -0.818621,-0.19844 -0.137848,-0.0693 -0.04815,-0.51276 -0.04974,-0.84349 -0.01852,-0.0164 -0.02937,-0.0309 -0.04974,-0.0497 0.01852,-0.0693 0.01243,-0.0754 0.02487,-0.12409 -0.01244,-0.063 -0.01244,-0.11589 -0.04974,-0.1487 -0.195263,-0.17356 -0.810684,-0.49397 -1.264973,-0.69453 -0.221721,-0.38444 -0.31459,-0.62626 -0.744009,-0.744 -0.52705,-0.14367 -0.770466,-0.42889 -0.81862,0.0497 -0.04815,0.47942 -0.158221,0.90858 -0.446617,0.62018 -0.27596,-0.27596 -0.223308,0.39582 0.07435,0.91784 -0.07276,0.0185 -0.147373,0.0434 -0.223308,0.0497 -0.272786,0.0249 -0.458788,0.0868 -0.620184,0.17357 -0.161396,0.0868 -0.297656,0.19844 -0.520964,0.32253 -0.446617,0.24817 -0.595313,0.19843 -1.835679,0.0992 -0.159809,-0.0124 -0.297657,-0.0505 -0.421746,-0.0992 -0.06191,-0.0228 -0.119327,-0.0444 -0.173567,-0.0743 -0.04022,-0.0217 -0.06191,-0.0497 -0.09922,-0.0743 -0.03572,-0.0249 -0.06667,-0.0466 -0.09922,-0.0744 -0.06059,-0.0505 -0.122503,-0.11483 -0.173567,-0.17357 -0.07752,-0.0878 -0.137848,-0.17462 -0.198438,-0.27278 -0.113241,-0.18098 -0.210873,-0.3638 -0.297656,-0.52096 -0.04339,-0.0786 -0.07752,-0.13944 -0.124089,-0.19844 -0.04657,-0.059 -0.09313,-0.11774 -0.148696,-0.1487 -0.446617,-0.24818 -1.9843745,0 -2.3812495,-0.29765 -0.297656,-0.22331 -0.725488,-0.0847 -1.240367,0.12409 -0.170656,0.0704 -0.359569,0.14869 -0.545571,0.2233 -0.0852,0.0341 -0.165893,0.0619 -0.248179,0.0743 -0.08361,0.0114 -0.169069,0.003 -0.248179,0 -0.155046,-0.006 -0.305329,-0.0352 -0.446617,-0.0743 -0.02487,-0.006 -0.04974,-0.0164 -0.07435,-0.0249 -0.04339,-0.0124 -0.0807,-0.0124 -0.124089,-0.0249 -0.110067,-0.032 -0.200025,-0.0558 -0.297656,-0.0743 -0.01561,-0.003 -0.03413,0.003 -0.04974,0 -0.108479,-0.0135 -0.210873,-0.0185 -0.297656,0.0249 -0.09922,0.0498 -0.238655,0.0992 -0.396875,0.1487 -0.158221,0.0495 -0.347134,0.0992 -0.545571,0.12409 -0.09604,0.0124 -0.193675,0.0238 -0.297656,0.0249 -0.0807,0.002 -0.164305,-0.0156 -0.248175,-0.0249 v 0.17357 c -0.13018,-0.091 -0.17198,-0.12092 -0.27279,-0.19844 -0.30242,-0.22939 -0.49927,-0.40931 -0.7194,-0.54557 -0.0156,-0.0103 -0.0325,-0.0135 -0.0497,-0.0249 -0.11774,-0.0693 -0.25427,-0.12806 -0.39688,-0.17357 -0.14261,-0.0434 -0.29924,-0.0775 -0.49609,-0.0992 -0.90990002,-0.096 -1.12871002,0.14155 -1.51315002,-0.0992 -0.23866,-0.14869 -0.35507,-0.29765 -0.4961,-0.27278 -0.0418,0.008 -0.096,0.031 -0.14869,0.0743 -0.0542,0.0455 -0.0976,0.10451 -0.17357,0.19843 -0.0931,0.11774 -0.18759,0.21299 -0.27278,0.29766 -0.0728,0.0733 -0.1442,0.1487 -0.22331,0.19844 -0.20002998,0.127 -0.43259998,0.17356 -0.79374998,0.17356 -0.67125,0 -0.69136,0.0497 -1.31472,0.0497 -0.62336,0 -0.94879,-0.19024 -1.14088,0.7194 -0.19076,0.91149 -0.42333,0.431 -0.47122,1.38906 -0.0482,0.96017 -0.96123,1.25465 -1.48828,0.24818 -0.52705,-1.00568 -1.00913,-2.20768 -1.48829,-2.20768 -0.47916,0 -1.62163,-0.28946 -1.19062,0.62018 0.43101,0.91149 -0.16272,1.38483 0.12409,1.9595 0.28839,0.57574 -0.37359,1.23402 0.29766,1.76107 0.67124,0.52705 0.66357,1.01282 1.19062,1.5875 0.52705,0.57573 0.77523,0.71623 1.63724,1.33932 0.8636,0.62309 0.42334,0.30374 0.47122,1.16575 0.0434,0.77206 0.15505,0.82789 0.44662,1.24037 0.0743,0.0651 0.1442,0.13335 0.22331,0.19844 0.57362,0.0238 0.57044,0.24818 1.11628,0.52096 0.5752,0.2884 0.76597,0.585 1.38906,0.96732 0.62309,0.38444 0.67442,0.12912 0.81862,0.94245 0.0357,0.20452 0.059,0.37518 0.0992,0.49609 0.10079998,0.11377 0.17673998,0.22331 0.24817998,0.32253 0.13176,0.0931 0.30083,0.16959 0.59531,0.24818 0.7194,0.19235 1.20306002,0.61277 1.53776002,1.0914 0.33628,0.47943 0.71781,0.47123 1.38906,0.47123 0.67125,0 0.44503,-0.22014 0.39688,0.54557 -0.0482,0.76782 -0.34872,0.86095 0.32252,1.33932 0.671249,0.47942 -0.0915,0.99827 0.818622,1.14088 0.91149,0.14473 1.244865,0.49001 1.389063,1.01706 0.08678,0.31935 0.227806,0.55192 0.272785,0.76888 -0.02328,0.0921 -0.03413,0.19235 -0.07435,0.27278 -0.201612,0.40508 -0.592137,0.75856 -0.719402,0.8681 0.04974,0.027 0.127,0.0373 0.198437,0.0497 0.01693,0.18283 0.465138,0.24818 0.669661,0.24818 0.0048,0.003 0.01852,-0.003 0.02487,0 0.01561,0.008 0.03413,0.0145 0.04974,0.0249 -0.01852,-0.12197 -0.04815,-0.26776 0,-0.39687 0.07911,-0.2077 0.182827,-0.29872 0.446617,-0.27279 0.0061,0.0341 0.02487,0.0672 0.02487,0.0992 0.475985,-0.0217 0.567531,0.21087 1.46341,0.59531 1.006211,0.43101 1.672696,0.37095 1.9595035,1.04193 0.288396,0.67178 0.297657,0.61701 1.017059,0.52097 0.719402,-0.096 0.623093,0.0185 0.719402,0.54557 0.04657,0.25109 0.113241,0.5117 0.223308,0.64505 l 0.12409,0.0743 c 0.01693,0.005 0.03096,0.003 0.04974,0 l -0.02487,-0.0992 c 0.04498,-0.006 0.07435,-0.007 0.09922,-0.0249 0.01693,0.0238 0.03413,0.0278 0.04974,0.0497 0.059,-0.0569 0.131762,-0.13758 0.198437,-0.27278 0.38444,-0.76597 0.410898,-1.62269 0.79375,-1.24037 0.38444,0.38444 0.975255,0.37412 1.165755,1.09141 0.05424,0.20664 0.09154,0.29659 0.124089,0.42174 0.05741,0.008 0.111654,0.027 0.148696,0.0497 0.396875,0.24818 0.992188,1.28985 0.992188,1.28985 l 0.04815,0.44661 c 0.02328,0.0217 0.04498,0.0278 0.07435,0.0498 0.431006,0.33681 0.899054,0.33496 1.091406,0.66966 0.190764,0.33681 0.238654,0.064 0,0.44661 -0.04657,0.0744 -0.06059,0.11986 -0.07435,0.17357 l 0.198437,0.19844 c -0.07435,0.11059 -0.07911,0.14472 -0.148695,0.24818 0.07276,0.0423 0.159808,0.0672 0.223308,0.0497 0.201612,-0.0526 0.434181,0.31935 0.347133,0.372 -0.08837,0.0526 0.03731,0.1913 0.248179,0.32253 0.209286,0.13229 0.348721,0.2376 0.322527,0.57044 -0.02646,0.33391 0.142611,0.64082 0.669661,0.7194 0.324114,0.0497 0.389202,0.13018 0.520964,0.19844 0.0807,0.0434 0.265113,0.0579 0.322528,0.12409 0.148695,0.17568 0.322527,0.19844 0.322527,0.19844 0,0 -0.0016,-0.0217 0,-0.0249 0.229393,0.0931 0.155045,-0.52494 1.389062,0.12409 0.232569,0.12303 0.438679,-0.0931 0.223308,0.39687 -0.08519,0.19235 -0.40931,0.43418 -0.372004,0.69453 0.07435,0.22331 0.471223,0.52097 0.322527,0.66966 -0.299243,0.29766 -0.744008,0.0497 -0.967316,0.34714 -0.18759,0.26035 0.531812,0.29977 0.471223,0.69453 -0.03572,0.22833 -0.128588,0.37518 -0.223309,0.49609 -0.3302,0.42175 -0.829468,0.39688 -0.297656,1.09141 0.541073,0.71014 1.140883,0.0497 0.992188,0.94244 -0.888207,1.28561 -0.280723,1.10384 -0.297657,1.63724 -0.01852,0.53526 -0.193675,0.38048 0.148696,1.04193 0.113242,0.22225 -0.372004,0.81862 -0.372004,0.81862 -0.224896,0.22331 0,0.59532 0,0.96732 -0.07435,0.29766 0,0.66966 -0.07435,0.96732 0,0.22331 -0.372004,0.29765 -0.297656,0.52096 0.106891,0.39264 0.826294,1.12872 1.389062,1.63724 0.02328,0.0238 0.04974,0.0548 0.07435,0.0744 0.514615,0.45879 0.136525,1.01706 0.09922,1.09141 -0.224896,0.44662 -0.807773,-1.4986 -1.240367,-0.64506 1.213909,2.48259 4.066381,2.62943 4.588934,3.29909 1.13956,0.89509 0.22172,0.89297 0.595312,1.19063 0.148696,0.22331 0.595313,0 0.744008,0.22331 0.148696,0.372 -0.04974,0.66966 -0.04974,1.11627 0.02487,0.14156 0.05265,0.27596 0.09922,0.37201 0.04498,0.0982 0.105305,0.15822 0.173567,0.14869 0.01852,0.0299 0.04657,0.1024 0,0.1487 0,0 0.902229,0.12912 1.389063,0.24818 0.305329,0.45879 -0.379942,1.10384 0.54557,1.09141 0.31459,-0.003 -0.175154,0.84349 0.12409,0.99218 0.570442,0.66966 1.260475,1.1348 2.034117,1.19063 0.14261,0.63156 1.424781,1.19062 1.835679,1.71159 0.148696,0.22331 0.04815,0.52096 0.272785,0.74401 0.161131,0.10848 0.265113,0.20161 0.378354,0.28839 0.156634,-0.13123 0.25744,-0.2831 0.395288,-0.23865 0.0217,0.008 0.03731,-0.006 0.05424,-0.0228 0.01561,-0.0156 0.03254,-0.0341 0.05424,-0.0362 0.04815,-0.0505 0.110067,-0.0992 0,-0.15505 -0.280723,-0.13944 -0.523875,-0.78131 0.248179,-0.57044 0.770467,0.21087 0.551921,-0.11166 0.868098,0.0992 0.683683,-0.0259 0.844815,-0.3855 0.992188,-0.44662 0.04815,-0.0196 0.111654,0.005 0.173566,0.0744 0.07435,0.0868 0.09155,0.2077 0.09763,0.32755 -0.0032,-0.0402 0.0016,-0.0857 -0.0061,-0.12409 0.372004,-0.20055 0.705379,-0.44847 1.010708,-0.73369 0.558007,-0.52096 1.029494,-1.13903 1.537759,-1.73619 0.311679,-0.30083 0.613833,-0.4445 0.892968,-0.47123 0.277548,-0.0249 0.534723,0.0672 0.79375,0.19844 0.516203,0.26353 1.018646,0.72152 1.537759,0.89297 0.429419,0.0392 0.841904,-0.059 1.240366,-0.19844 0.396875,-0.13758 0.776817,-0.30691 1.165755,-0.47122 0.387614,-0.16219 0.787664,-0.31327 1.190625,-0.34713 0.401637,-0.0341 0.801422,0.0497 1.240366,0.29765 0.261938,0.14473 0.548746,0.2667 0.844815,0.37412 0.0061,-0.0217 0.01561,-0.0423 0.02646,-0.0608 0.01852,-0.0384 0.04339,-0.0744 0.08361,-0.0931 0.09604,-0.0466 0.252678,-0.0249 0.491332,0.10239 0.474398,0.25426 0.372004,0.25638 0.559593,0.10239 0.186003,-0.15187 0.50853,-0.33893 0.356659,-0.55906 -0.153459,-0.22013 -0.373592,-0.96626 -0.271198,-1.06865 0.0061,-0.006 0.04974,-0.0217 0.0635,-0.031 -0.147373,-0.0868 -0.348721,-0.28019 -0.420158,-0.70062 0.322527,-0.32252 0.520964,-0.0497 0.66966,-0.44661 0,-0.22331 -0.223308,-0.66966 0,-0.66966 0.443442,0.1942 1.048014,0.37412 1.562629,0.47122 0.305329,0.3339 0.336285,0.47016 0.520965,0.64505 0.235743,0.22331 0.40931,0.18601 0.248179,0.39688 -0.161131,0.21087 -0.06059,0.38444 -0.372004,0.54557 -0.310092,0.16113 -0.50853,0.27279 -0.372005,0.0497 0.136525,-0.22304 0.111655,-0.32253 -0.07276,-0.24818 -0.186002,0.0744 -0.09922,-0.11165 -0.198437,0.27279 -0.09922,0.38444 -0.223309,0.63262 0.570441,0.29765 0.79375,-0.33496 1.103842,-0.70696 1.488281,-1.01705 -0.505354,-1.63725 -2.498989,-2.89587 -3.820054,-3.49753 l -0.967316,-1.95951 c -1.675871,-1.08928 -0.85434,-1.18745 -1.413934,-1.46341 -0.106891,-0.0526 -0.195262,-0.1344 -0.297656,-0.19843 -0.503767,-0.31009 -0.950383,-0.72655 -1.041929,-1.31472 l 0.520965,-2.23255 c -0.07435,-0.37201 -0.7239,-0.42175 -0.744009,-0.81862 -0.01402,-0.23575 0.51779,-0.12092 0.496094,-0.29766 -0.03731,-0.28628 0.131762,-0.22331 0.471223,-0.34713 0.291571,-0.10636 -0.136525,-0.46831 0.173567,-0.59531 0.220133,-0.09 0.67601,-0.79984 0.81862,-0.69454 2.201334,1.62984 -1.849437,0.0992 0.446617,2.23256 0.831056,0.21087 1.858698,0.85566 3.249348,1.0914 0.313267,0.61384 -0.03096,0.61913 0.297656,1.09141 0.364331,0.52599 0.427831,0.86201 0.595313,1.24037 0.979752,-0.28522 1.46341,0.23574 2.678906,0 0.372004,-0.66966 -4.615127,-1.18851 -2.902215,-3.05091 0.223309,-0.29766 0.643467,0.17356 1.017059,0.17356 0.297656,0.0743 0.618595,-0.17356 0.917839,-0.0992 1.190625,0.59532 1.263386,1.93464 2.455598,2.38125 0.520965,0.22331 0.595313,-1.26497 0.148696,-1.71158 -0.5969,-0.59532 -2.606146,-0.69242 -2.38125,-1.5875 0.111654,-0.4961 1.116277,-0.8898 1.71159,-0.42175 0.67601,0.5334 1.102254,-0.0249 1.835679,0.32253 0,0 0.663575,0.70061 1.165754,1.21549 0.127,0.13018 0.843491,-0.10954 0.719402,-0.42174 -0.26035,-0.52705 -0.539486,-0.37836 -1.041929,-0.8435 -0.665163,-0.61383 -1.18454,-0.75035 -1.785938,-0.79375 -0.299243,-0.0743 -0.396875,-0.744 -0.694531,-0.66966 -0.224896,0 0.173567,0.29766 0.173567,0.44662 -0.07435,0.1487 -0.148696,0.22331 -0.223309,0.22331 -0.299243,0.0744 -0.868098,-0.12409 -1.017058,-0.27279 -0.658812,-1.01705 0.322527,-0.78131 0.248179,-1.11627 -0.07435,-0.33497 -0.880533,0.0373 -1.165754,-0.69453 -0.224896,-0.1487 -1.117865,-0.22331 -0.595312,-0.89297 1.33932,-1.71159 1.461822,0.0992 2.877343,-0.4961 1.637242,-0.74401 1.064948,-1.88515 1.885156,-2.40612 0.07911,-0.0413 0.128588,-0.0413 0.198438,-0.0744 1.457325,-0.67706 0.440267,0.99748 2.703777,0.27279 0.372004,-0.65722 0.86651,-0.95488 1.413933,-1.33932 0.967317,-1.19063 0.327025,0.009 1.140884,-0.0744 0.3302,-0.0341 0.624681,-0.17065 1.140883,-0.12409 0.516202,0.0487 1.064948,0.31009 1.661848,0.34714 0.744008,0.0743 2.702189,-0.66967 3.299089,-0.22331 1.16893,1.02314 0.31459,0.77417 0.719402,1.33932 v 0.0497 c 0.01244,0.0278 0.03572,0.027 0.04974,0.0497 0.241829,0.43418 0.440267,0.3556 0.79375,0.49609 1.116277,0.37201 4.638411,-2.17037 4.960938,-1.33932 0.08678,0.99431 -3.571875,2.50534 -3.720571,3.69597 0,0.22331 0.446616,0.29765 0.520964,0.52096 0.07435,0.22331 0.07435,0.44662 0,0.66966 -0.07435,0.44662 -0.5969,1.71159 -0.223308,1.41394 1.413933,-1.19063 1.710002,-3.12341 2.902215,-4.68816 1.041929,-1.48828 2.974975,-1.78382 3.943879,-3.42317 0.297656,-0.52097 0.593725,-1.11416 0.818621,-1.71159 0.07435,-0.44662 -0.348721,-0.4961 -0.04974,-0.8681 1.264973,-1.63724 1.78435,-0.1487 3.274219,-0.66966 0.223308,-0.0744 0.07276,-0.52097 0.297656,-0.74401 0.446616,-0.372 0.891381,-0.66966 1.488281,-0.81862 1.71159,-0.59531 2.529946,1.26709 2.157942,-0.59531 -0.148696,-0.37201 0.296068,1.04193 0.66966,0.96731 0.595313,-0.0744 2.45401,-0.4445 2.678906,-1.04193 0.223309,-0.44661 -0.07435,-0.96731 0.07435,-1.48828 0,-0.29765 0.595313,-0.81862 0.223309,-0.96731 -1.564217,-0.52097 -4.985809,-0.41963 -6.920442,-1.61238 -0.156633,-0.096 -0.265113,-0.18097 -0.396875,-0.27278 -2.350294,-1.61025 -1.364192,-2.54344 -1.785937,-3.67109 h 0.02487 c -0.07594,-0.22331 -0.297656,-0.44662 -0.520964,-0.74401 -0.373592,-0.29766 -2.009246,-1.26498 -2.083594,-1.33932 0,-0.063 0.03254,-0.14261 0.07276,-0.22331 0.05424,-0.10345 0.11774,-0.21193 0.07435,-0.29766 -0.81862,-2.00924 -4.092839,0.67178 -2.753254,-1.11628 0.299244,-0.44661 0.967317,-0.59531 1.264973,-1.04192 0.150283,-0.1487 -0.297656,-0.37201 -0.223308,-0.59532 0.07435,-0.29765 0.446616,-0.372 0.595312,-0.66966 0,-0.0743 -0.297656,-0.22331 -0.223308,-0.22331 0.373592,-0.2233 1.041929,0 1.264973,-0.372 0.224896,-0.372 -0.223308,-0.96732 -0.297656,-1.41393 -0.297657,-1.19063 -0.221721,-1.93278 -0.372005,-3.12526 0,-0.1487 -0.446616,-0.0743 -0.446616,-0.22331 0.150283,-0.22331 0.66966,-0.22331 0.744008,-0.52096 0.09313,-0.18389 0.137848,-0.32544 0.173567,-0.47123 0.09763,-0.38761 0.02487,-0.67892 0,-0.91784 -0.04657,-0.45984 0.05265,-0.72972 1.661848,-1.16575 0.373591,-0.0744 0.744008,0.19844 1.041929,0.0497 0.522552,-0.29766 0.804598,-1.86134 0.719402,-2.03412 -0.03413,-0.0714 -0.204523,-0.27384 -0.372004,-0.49609 -0.232569,-0.30797 -0.480484,-0.70062 -0.545571,-1.24037 -0.108479,-0.92392 0.395287,-2.34499 0.223308,-2.55481 -0.716227,-0.8755 -0.3937,-1.10384 -0.570441,-1.46341 -0.175155,-0.35771 -0.551921,-0.58922 -0.570442,-0.7194 0.389202,-0.59214 0.162719,-0.81862 0.347133,-1.31471 0.327025,-0.89086 0.824707,-1.69916 1.140884,-2.57969 0.223308,-0.44662 0.09922,-0.76888 0.09922,-0.76888 l -0.446616,-0.0497 c 0,0 -0.248179,0.14869 -0.446617,0.52096 -0.294481,0.47334 -0.412485,-0.0868 -0.66966,0.27279 -0.05424,-0.18918 -0.08996,-0.22437 -0.12409,-0.29766 0.25109,-0.0939 0.511704,-0.21193 0.570442,-0.29765 0.06191,-0.0868 0.182827,-0.15823 0.297656,-0.19844 -0.09604,0.0175 -0.215371,0.0217 -0.322527,0.0743 -0.159808,0.0807 -0.345811,0.13546 -0.595313,0.17356 0.0077,-0.0444 0.02646,-0.096 0.07435,-0.19843 0.07144,-0.14579 0.919427,-0.44662 0.818621,-0.69453 -0.229394,-0.57045 1.32715,0.0487 -0.421746,-0.81862 -0.334962,-0.18918 -1.089818,0.17568 -0.07435,-0.91784 0.229394,-0.24501 0.967317,-0.29766 0.967317,-0.29766 0,0 0.09604,0.28522 -0.248179,0.7194 0.381264,1.77033 0.979752,-0.46619 0.967316,1.06654 -0.0026,0.36486 1.660261,-0.59955 1.984375,-0.66966 0.457465,-0.34528 0.562769,-0.45059 1.463411,-0.81862 0,-0.29766 0.04974,-3.02631 -0.09922,-3.3237 -0.19685,0.10239 -0.367506,-0.0505 -0.496094,-0.39688 0.25109,-0.21404 0.472811,-0.0526 0.496094,-0.52096 0.02487,-0.4662 -0.19685,-1.36419 -0.595312,-1.71159 -0.01852,-0.009 -0.04022,-0.003 -0.04974,0 -0.059,0.0217 0.105304,0.29766 -0.02487,0.29766 -0.06985,0.0714 -0.0852,-0.18098 -0.148696,-0.27279 -0.0032,-0.004 0.0048,-0.0196 0,-0.0249 -0.05583,-0.0185 -0.08996,-0.0164 -0.124089,0 -0.04339,0.0249 -0.05583,0.0889 -0.07276,0.1487 -0.06059,0.21087 -0.05741,0.43921 -0.248179,0.14869 -0.04022,-0.059 -0.06191,-0.0569 -0.124089,-0.17356 -0.148696,-0.22014 -0.218546,-0.53129 -0.272786,-0.8681 -0.66675,0.33179 -1.45415,0.73184 -1.612371,0.99219 -0.251089,0.41248 -0.877358,0.47757 -1.5875,0.84349 -0.711464,0.36592 -0.550333,0.61277 -0.54557,0.8681 0.0032,0.25638 -0.198438,0.62018 -0.198438,0.62018 l -0.66966,-0.1487 -0.595313,0.42175 0.148696,0.44662 c 0,0 -0.876035,0.0931 -1.488281,0.0992 -0.613834,0.008 -1.026319,-0.27067 -1.488282,-0.47123 -0.463549,-0.19843 -0.703791,-0.59848 -1.215495,-0.64505 -0.511704,-0.0444 -0.39079,-0.41249 -0.496094,-0.76888 -0.106892,-0.35666 -0.238654,-0.39476 -0.545571,-0.54557 -0.308504,-0.1487 0.102394,-0.45985 0.09922,-0.81862 -0.0048,-0.35666 -0.232569,-0.83397 -0.595313,-1.28985 -0.364331,-0.45587 -0.148695,-0.47122 -0.148695,-0.47122 0,0 -0.111655,-0.534457 -0.372005,-0.992186 -0.261937,-0.455877 -0.618595,-1.151466 -0.520964,-1.562629 0.09604,-0.40931 -0.01561,-0.884767 -0.223309,-1.190625 -0.207697,-0.303742 0.224896,-0.856721 0.272786,-1.215496 0.04657,-0.357716 0.362744,-0.934243 -0.04974,-1.339321 -0.413808,-0.40296 -0.367506,-0.706966 -0.372004,-1.116277 -0.0061,-0.407193 -0.269875,-0.461962 -0.272785,-0.768879 -0.0029,-0.306916 -0.410898,-0.905404 -0.620184,-1.413933 -0.210873,-0.508529 -1.59676,-1.114161 -2.058723,-1.314715 -0.46355,-0.198437 -0.782902,-1.417902 -1.190625,-1.413933 -0.40931,0.0053 -0.806185,-0.487892 -1.116277,-0.843492 -0.311679,-0.353483 -0.440266,-0.564356 -1.314714,-1.066535 -0.876036,-0.500327 -1.5875,-1.938867 -2.108465,-2.802996 -0.520964,-0.862012 -2.337858,-2.121958 -2.802996,-2.678906 -0.232568,-0.278606 -0.586052,-0.379942 -0.916252,-0.398463 z M 184.04097,103.85203 c -0.16748,0.0497 -0.32861,0.31009 -0.49609,0.42174 -0.29925,0.1487 -0.81862,0.1487 -0.96732,0.44662 -0.2249,0.44662 0.22331,1.04193 0,1.48828 -0.2249,0.29766 -0.66966,0.22331 -0.96732,0.29766 -0.9689,0.29765 -2.15794,0.22331 -2.97656,0.89297 -0.29924,0.2233 -0.0744,0.81862 -0.44662,1.11627 -0.29924,0.22331 -0.744,0.0744 -1.11627,0.0744 -0.37359,0 -0.74401,0.0743 -1.19063,0.0743 h -0.14869 c -0.44794,1.78806 -0.99219,3.19987 -2.55482,4.68816 -0.22331,0.2233 -0.59531,0.14869 -0.74401,0.372 -0.9689,1.11839 -2.08359,4.01849 -3.57187,4.68814 -0.37359,0.1487 -0.89297,-0.29764 -1.26498,-0.2233 -0.29924,0.0744 -0.372,0.59531 -0.66966,0.66966 -0.29924,0.0743 -0.59531,-0.1487 -0.89297,-0.1487 -0.29924,0.0743 -0.52096,0.44662 -0.89296,0.37201 -0.0743,0 -1.48829,-0.74401 -1.93464,-0.37201 -0.37359,0.29766 -0.372,0.81862 -0.66966,1.04193 -0.29924,0.1487 -0.66966,-0.1487 -0.96731,0 -0.29925,0.22331 -0.29766,0.59531 -0.59532,0.81862 -0.44794,0.37201 -1.11627,0.44662 -1.56263,0.81862 -0.74559,0.66966 -0.81862,1.19063 -1.63724,1.78594 -0.9689,0.74401 -3.34856,1.11628 -4.46484,1.11628 -2.68049,0 0.29766,-0.29766 -1.26497,-0.89297 -0.89456,-0.29766 -1.11628,1.33932 -1.41394,1.48828 -0.52255,0.22331 -1.19062,-0.0743 -1.78593,-0.1487 -0.0743,-0.0744 -0.0743,-0.29765 -0.22331,-0.29765 -0.5969,0.0743 -1.11628,0.59531 -1.78594,0.52096 -0.2249,0 -0.1487,-0.59531 -0.372,-0.74401 -0.3736,-0.22331 -0.89297,-0.44661 -1.41394,-0.44661 -2.9038,0.0743 -1.48669,2.97868 -4.39049,1.71159 -0.89456,-0.44662 -1.33932,-2.75326 -2.30691,-2.60456 -0.37359,0 -0.372,0.89297 -0.744,0.74401 -0.29925,-0.0744 0.29606,-0.96732 -0.0744,-0.96732 -0.7456,0.0743 -1.93331,2.82972 -4.5392,1.86028 -2.75484,-1.04192 -1.19062,-2.45559 -1.33932,-2.60455 -0.37359,-0.44662 -1.04193,-0.1487 -1.56263,-0.1487 -0.2233,0 -0.47122,-0.1487 -0.54557,0 -0.22331,0.372 -0.0744,0.96732 -0.372,1.33932 -0.82021,1.4904 -8.55768,2.52995 -10.49232,3.34857 -0.89455,0.29765 -1.63724,1.48828 -2.3069,2.08359 -0.5969,0.59531 -1.63724,0.81862 -2.3069,1.26497 -1.86187,1.4904 -3.12526,3.79519 -4.83685,5.65547 -0.44794,0.52097 -1.19062,1.33932 -1.71159,1.71159 -0.0743,0.0744 -0.44662,0 -0.44662,0.1487 -0.29924,1.4904 0.81863,1.48828 -0.59531,2.52994 -0.14869,0.1487 -0.52096,0 -0.74401,0.0744 -1.78752,0.66966 -0.372,0.89297 -2.6789,0.96732 -0.82021,0 -2.90222,-0.59531 -3.646226,-0.29766 -0.223308,0.0743 -0.148695,0.44662 -0.372004,0.59532 -0.820208,0.744 -2.306902,1.04192 -3.348566,1.11627 -1.266561,0.1487 -4.315884,0.7194 -4.390497,0.8681 -0.299243,0.66966 -0.446616,1.41393 -0.595312,2.15794 -0.223308,0.96732 1.612371,1.31472 1.835679,1.38906 0.148696,0 0.372004,0 0.446617,0.1487 0.07435,0.22331 -0.297656,0.52096 -0.148696,0.59531 0.223308,0.0744 0.372004,-0.372 0.595312,-0.372 0.148696,0.0743 0.07435,0.44662 0.223309,0.44662 1.413934,0.14869 2.677319,-1.26498 4.167188,-1.11628 1.264973,0.0744 -2.232554,1.48828 -2.529946,1.56263 -0.223308,0 -0.223308,-0.52097 -0.372004,-0.44662 -0.148696,0.0743 -3.62929,1.55019 -4.663282,2.65404 -1.043252,1.41605 3.522133,-0.69559 2.108465,1.38906 -0.299244,0.372 -3.175,0.54557 -4.216929,0.69453 -2.010834,0.29766 -3.795184,1.26497 -3.869532,1.19062 -0.299243,-0.372 1.041929,-0.76887 0.669661,-1.06653 -0.44794,-0.372 -0.645054,-0.29766 -1.240367,-0.22331 -0.07435,0.0744 -0.843492,0.1487 -0.91784,0.1487 -0.148695,0 -0.66966,0.372 -0.595312,0.52096 0.292894,0.77523 1.389062,0.44662 1.314715,0.96732 -0.223309,0.74401 -0.942446,0.49609 -1.686719,0.7194 -2.283619,0.45588 -1.860286,-0.62018 -2.232554,-0.69453 -0.968904,-0.1487 -1.488282,0.76888 -2.232554,0.91784 -0.299244,0.0744 -1.488282,0 -1.934634,0.52096 -0.447939,0.52097 -0.520964,1.33932 -0.967316,1.86029 -0.223309,0.22331 -0.595313,0.0744 -0.744009,0.29765 -0.148696,0.29766 0.07435,0.59532 0.07435,0.81863 -0.07435,0.372 -0.07435,0.81862 -0.297656,1.11627 -0.44794,0.44662 -1.264973,0.0744 -1.264973,0.89297 0.07435,1.19274 0.66966,1.78594 0.66966,2.67891 0.07435,0.29765 -0.894556,2.00924 0.223309,2.15794 0.148696,0 4.760912,-2.23256 5.283464,-2.38125 0.148696,-0.0743 0.446617,-0.22331 0.372004,-0.0743 -0.224895,0.81862 -0.892968,2.38125 -1.413933,3.12526 -0.07435,0.1487 -0.745596,-0.0744 -0.297656,0.22331 0.446617,0.372 2.156354,0.372 2.38125,1.48828 0,0.372 -0.745596,0.89297 -0.446617,1.26497 0.223309,0.1487 2.529946,-0.66966 2.157942,0.29766 -0.373592,1.11839 -2.606146,2.00924 -2.157942,2.6789 0.446617,0.66966 1.71159,1.71159 1.860286,1.56263 0.297656,-0.2233 0.668073,-0.372 0.967316,-0.44661 0.297657,-0.0743 0.967317,-0.29766 0.967317,0 -0.07435,0.14869 -2.306902,1.56264 -2.604558,1.56264 -0.373592,0.0743 -0.595313,-0.81863 -0.892969,-0.59532 -0.373592,0.29766 0.520964,1.41394 0.148696,1.26498 -0.148696,0 -1.413934,-2.82787 -1.860286,-3.05091 -0.224896,-0.1487 -0.744008,-0.22331 -0.892968,0.0743 -0.224896,0.44662 0.148695,1.04193 0.223308,1.56263 0,0.22331 -0.224896,0.44662 -0.07435,0.52097 0.372004,0.14869 1.190625,-0.22331 1.116277,0.0744 -0.148696,0.59531 -0.818621,0.89296 -1.339321,1.19062 -0.148696,0 -0.297656,-0.44662 -0.372004,-0.29766 -0.07435,0.14896 0.297656,0.29766 0.223308,0.44662 0,0.22331 -0.595312,0.44662 -0.372004,0.59531 0.446617,0.29766 1.040342,0 1.562629,0.1487 0.148696,0 1.339321,0.96732 1.488282,0.81862 0.446616,-0.372 0.519377,-1.11628 1.041929,-1.41393 0.595312,-0.29766 0.519377,1.33932 1.116277,1.56263 0.297656,0.0743 0.519377,-0.52097 0.818621,-0.52097 0.372004,0 2.40612,0.59531 2.40612,0.59531 0.07435,0.1487 0.520965,1.93464 0.223309,2.30691 -0.44794,0.44661 -2.258748,0.81862 -1.661848,1.04193 0.595312,0.14869 1.288256,-0.0744 1.810808,0.2233 0.595313,0.44662 -0.447939,2.15795 0.297656,2.23256 0.669661,0.0744 0.96573,-1.04193 1.56263,-1.04193 0.595312,0.0744 0.817033,0.89297 1.33932,1.19062 0.148696,0.0744 0.446617,-0.29765 0.446617,-0.14869 1.116277,3.64834 -5.285052,-0.14976 -2.455598,2.97656 0.372004,0.372 0.965729,-0.372 1.413934,-0.372 0.744008,0 0.445029,0.81862 1.264972,0.372 0.148696,-0.0744 -0.150283,-0.29766 -0.07435,-0.29766 0.520964,-0.29765 1.114689,0 1.637241,-0.2233 0.595313,-0.29766 2.009246,-0.96732 2.38125,-1.11628 0.595313,-0.22331 1.412346,-0.96732 1.785938,-0.44662 1.413933,1.78806 -2.157942,1.11628 -2.157942,1.71159 0,0.44662 0.744008,0.89297 0.446617,1.19063 -0.44794,0.44661 -1.190625,0 -1.785938,0.14869 -1.192212,0.29766 -2.232554,1.26497 -3.199871,1.93464 -0.372004,0.29765 0.96573,-0.1487 1.413934,-0.22331 0.372004,0 0.744008,0.29765 0.967316,0.14869 0.297657,-0.22331 -0.07435,-0.81862 0.223309,-1.04193 0.446616,-0.29765 1.040341,-0.14869 1.562629,-0.2233 1.562629,-0.44662 1.339321,-1.19063 1.413933,-1.04193 0.967317,2.16005 -0.07435,1.48828 -0.744008,2.15794 -0.148696,0.14869 0.446616,0.372 0.595312,0.22331 0.148696,-0.22331 2.306903,-2.67891 2.306903,-2.75326 0.223308,-0.372 0,-0.96731 0.297656,-1.11627 1.934633,-0.89297 1.040342,1.04192 1.562629,1.48828 0.446617,0.29765 1.189038,0.14869 1.71159,0.372 0.148696,0 0.148696,0.372 0.223308,0.29766 0.744009,-0.66966 -0.671248,-1.63724 0.372004,-1.78594 2.083595,-0.372 1.934635,2.97656 2.083595,3.12526 1.56263,1.11839 2.75167,0.52096 4.39049,0.66966 0.22331,0 0.29766,0.66966 0.66967,0.59531 0.66966,-0.0744 3.12525,-2.4556 3.27421,-2.52995 0.37201,-0.44661 1.4867,-0.59531 1.93464,-0.372 0.14869,0.0744 0,0.74401 0.14869,0.59531 0.37201,-0.372 0.59532,-0.96731 0.59532,-1.48828 0,-0.29765 -0.52097,-0.29765 -0.52097,-0.52096 -0.0744,-0.44662 0.29766,-0.89297 0.44662,-1.33932 0.29765,-0.89297 -1.19221,-2.08148 -0.37201,-3.19987 0.29766,-0.37201 3.86795,-1.04193 4.46485,-1.11628 0.22331,0 6.69713,0.66966 6.84609,0.74401 2.9038,0.81862 2.40295,2.97656 6.27565,3.27422 1.93464,0.14869 0.29607,-0.37201 1.86029,-1.26498 0.372,-0.22331 0.89138,0.1487 1.26497,-0.0744 0.22331,-0.14869 0,-0.59531 0.1487,-0.744 0.52096,-0.37201 2.82786,-0.66966 3.12526,-0.81862 0.29765,-0.22331 0.372,-0.74401 0.66966,-0.96732 0.2233,-0.0743 0.2233,0.44662 0.44661,0.372 0.0743,0 0.81862,-2.23255 0.96732,-2.15794 0.372,0 0.51938,0.81862 0.89297,0.66966 1.48828,-0.44661 0.29765,-1.33932 0.372,-2.00924 0.22331,-1.41394 1.8587,-3.49541 2.60456,-4.61381 1.48828,-2.0103 5.87719,0.52097 6.39974,0.1487 0.44662,-0.37201 0.59373,-0.96732 1.04193,-1.26498 0.14579,-0.14578 2.1254,0.27173 1.24037,-1.24036 0.0542,-0.0754 0.0868,-0.16431 0.0249,-0.24818 -0.1487,-0.29766 -0.59532,0.44662 -0.96732,0.372 -0.22331,-0.0743 0.22331,-0.372 0.44662,-0.52096 0.29765,-0.29766 0.81703,-0.44662 1.11627,-0.74401 0.44662,-0.59531 0.29607,-1.78594 1.04193,-1.93463 1.04193,-0.29766 2.0836,1.26497 2.30691,2.08359 0.0743,0.372 -2.4556,3.72057 -2.23256,4.24154 0.44662,0.96731 2.23256,1.19062 2.38125,2.38125 0.0744,0.22329 -0.0744,0.52096 -0.29765,0.81862 0.52096,-0.22331 1.93331,0.74401 2.23255,0.372 0.372,-0.372 -0.2249,-1.04193 -0.0743,-1.56263 0.1487,-0.372 0.81862,-0.44661 0.96732,-0.81862 l -0.44662,-1.93463 c 0,-0.1487 2.15794,-0.89297 2.3069,-1.04193 0.1487,-0.22331 -1.19062,-1.04194 -1.33932,-1.19063 -0.5969,-0.744 -1.19221,-3.42107 -0.74401,-4.24154 0.1487,-0.22331 2.90063,-0.29766 3.19987,0 0.0744,0.0744 -0.37359,1.33932 0.52097,0.81862 0.22331,-0.14869 0.0744,-0.52097 0.22331,-0.59531 0.744,-0.44662 1.71,-0.22331 2.45559,-0.66966 2.0836,-1.04193 3.27264,-4.9858 6.02748,-5.20912 1.04193,-0.0743 2.082,0.81862 3.19987,0.81862 2.15794,0 4.63682,-1.85817 6.42435,-2.97656 2.9038,-1.86029 4.23994,-5.28135 6.99505,-7.29245 1.71159,-1.19062 4.1656,-1.43669 5.95312,-2.62943 0.81863,-0.52096 2.37967,-1.41181 2.90222,-2.38125 0.29766,-0.52096 0.51938,-2.52994 1.86028,-1.19062 0.29766,0.22331 0.51938,0.59531 0.66966,0.96731 0.1487,-0.14869 0.37042,-0.372 0.52097,-0.59531 0.29766,-0.29765 0.59531,-0.44661 0.74401,-0.81862 0.14869,-0.372 0.0728,-2.3069 0.52096,-2.38124 0.52097,-0.14869 1.04034,0.22331 1.48828,0 0.44662,-0.22331 0.59373,-1.04193 1.11628,-1.26498 1.11628,-0.5953 4.83526,0.15082 5.87878,-1.19063 1.11627,-1.41392 -0.5969,-1.11627 1.11627,-1.63724 2.23256,-0.66965 0.96573,1.63724 2.23256,2.52995 0.52096,0.29765 1.11469,-2.60456 1.86028,-3.19987 0.37201,-0.22331 1.48828,-0.0743 1.26498,-0.44662 -1.63857,-2.531 -0.37201,-0.22119 -2.4556,-1.63724 -1.11787,-0.74401 -0.89297,-2.38125 -0.96732,-2.60456 -0.14869,-0.22331 -2.3069,-0.52096 -2.52994,-0.52096 -0.29925,0 -0.89297,0.66966 -0.96732,0.29765 -0.22331,-0.96731 0.0743,-2.45348 0.14869,-3.49753 0,-0.372 0.1487,-0.81862 0.0743,-1.19062 -0.67125,-1.78594 -1.11627,0.82074 -1.78594,-0.372 0,-0.1487 -1.78593,-3.79519 -1.78593,-3.79519 -0.89456,-0.372 -0.37201,1.26709 -1.33932,-0.81862 -0.1487,-0.372 0,-0.96732 -0.1487,-1.33932 -0.37359,-0.74401 -1.78594,-0.8165 -2.23255,-1.63724 -0.44794,-0.74401 2.23255,-0.51885 2.38125,-1.78593 0.14869,-1.93463 -2.83078,-4.3905 1.63724,-3.27422 l 0.14869,-0.1487 c -0.89455,-0.44661 -2.3069,-1.04192 -2.97656,-1.26497 -2.68049,-0.89297 -3.64463,1.19063 -6.69713,1.26497 -0.2249,0 0.372,-0.52096 0.22331,-0.66966 -0.29919,-0.52103 -0.96726,-0.66972 -1.41388,-1.11634 -0.82021,-0.89297 -0.14869,-2.60244 -0.372,-3.64622 -0.44794,-1.93463 -2.75326,-1.78594 -3.34857,-2.3069 -0.22489,-0.22331 -0.14869,-0.66966 -0.372,-0.89297 -0.2249,-0.22331 -0.52097,-0.29766 -0.74401,-0.22331 -0.37359,0.1487 -0.59531,0.59531 -0.96732,0.66966 -0.22489,0 -0.22331,-0.44662 -0.44661,-0.52096 -0.2249,0 -0.44662,0.52096 -0.52097,0.29765 -0.15028,-0.22331 0.29766,-0.44661 0.29766,-0.74401 0.0744,-0.52096 -1.04193,-0.2233 -1.56263,-0.372 -0.44794,-0.0743 -0.81862,-0.372 -1.26497,-0.372 -0.15029,0 0,0.372 -0.0744,0.44661 -1.26656,0.29766 -0.22331,-0.74401 -0.59532,-1.04193 -0.0601,-0.0349 -0.12223,-0.0627 -0.17806,-0.0471 z m -101.426432,5.48163 -0.81862,0.17357 0.421745,0.57044 c 0,0 0,-0.34713 0.12409,-0.44661 0.124089,-0.0995 0.272785,-0.2974 0.272785,-0.2974 z m -0.744008,1.19063 -0.967317,2.00925 -0.322527,-0.74401 c 0,0 0.0061,-0.53446 0.396875,-0.54557 0.389202,-0.0106 0.892969,-0.71967 0.892969,-0.71967 z m -64.789843,28.52552 c 0.661988,-0.0466 0.862013,1.1348 2.232554,1.53776 1.686719,0.49609 1.289844,-0.29766 3.075781,-0.0992 1.785938,0.19844 -0.09922,1.09141 -0.992187,1.98437 -0.892969,0.89297 -1.190625,1.19063 -2.877344,1.78594 -1.686719,0.59531 -1.091406,0.0992 -0.496094,1.28985 0.595313,1.19062 -0.198437,1.5875 -1.289843,1.0914 -1.091406,-0.49609 -0.892969,-1.0914 -0.79375,-1.88515 0.09922,-0.79375 -0.396875,-1.28985 -0.892969,-0.99219 -0.496094,0.29765 -0.992187,0.0992 -2.282031,-0.69453 -0.297656,-0.19844 -0.694531,-0.69453 -0.09922,-1.19063 0.595313,-0.49609 1.190625,-0.19844 2.282031,0.0992 1.091407,0.29766 1.289844,0 0.79375,-0.69453 -0.496093,-0.69453 -0.396875,-1.09141 0.79375,-1.98438 0.223044,-0.16721 0.392113,-0.23653 0.545572,-0.24791 z m 42.8625,15.42838 c -0.545571,0.0497 -0.446617,0.0497 -1.04193,0.89297 -0.13335,0.18812 -0.178329,0.34422 -0.173566,0.47122 l 0.07435,0.22331 c 0.186002,0.27596 0.657225,0.40931 0.843491,0.59532 0.297657,0.29765 0.892969,-0.1487 1.140884,-0.4961 0.247914,-0.3474 0,-1.43854 -0.843227,-1.68672 z m 7.292445,1.48828 c -1.238779,0.0651 -1.339321,0.69454 -0.744008,1.09141 0.595312,0.59531 0.446617,0.19844 0.942446,-0.1487 0.495829,-0.34713 0.744273,-0.99218 -0.198438,-0.94271 z m -0.347133,4.78737 c -0.02487,-0.004 -0.05583,0 -0.09922,0.0249 -0.347133,0.19843 -0.694531,0.44661 -0.744008,0.89296 -0.04948,0.44636 -0.347133,-0.44661 -0.79375,-0.24817 -0.446617,0.19843 -0.843492,-0.0992 -0.992188,0.89296 -0.148695,0.99219 0.24818,0.79375 0.744009,1.04193 0.495829,0.24818 0.744008,0.19844 0.496093,-0.74401 -0.247914,-0.94244 0.347134,0.34714 0.892969,0.69454 0.545836,0.34739 0.148696,-0.29766 0.347134,-1.5875 0.04366,-0.26062 0.313266,-0.93451 0.14896,-0.96759 z m 7.762346,4.93501 c -0.06826,-0.009 -0.141023,-0.0114 -0.221721,0 -0.645054,0.0992 -1.140883,0.64506 -2.480469,1.43881 -1.339585,0.79375 -0.843492,1.28984 0.545571,1.5875 1.389062,0.29765 0.744008,-0.0497 1.537758,-1.04193 0.79375,-0.99219 0.744009,0.0992 0.09922,0.84349 -0.64479,0.74427 -0.347133,0.74401 1.488281,0.99219 1.835415,0.24818 1.537759,-0.64506 1.240367,-0.64506 -0.297392,0 -0.843492,-0.79375 -0.545571,-0.89297 0.297921,-0.0992 0.595313,0.54558 1.140883,0.64506 0.545571,0.0995 -0.09922,-0.54557 -1.835679,-1.98438 -0.303477,-0.304 -0.494241,-0.87233 -0.968639,-0.94377 z m -10.094119,0.24924 c -0.09922,0.0206 -0.173567,0.12621 -0.173567,0.32253 0,0.52705 -0.08837,0.63447 0.297657,0.24818 0.218545,-0.39397 0.04048,-0.60167 -0.12409,-0.57071 z m 9.771592,7.78563 c -0.155046,-0.0249 -0.333375,-0.0217 -0.544248,0.003 -0.843492,0.0992 -1.091407,0.59532 -1.091407,0.89297 0,0.29766 1.438805,1.14089 1.289844,1.63725 -0.14896,0.49635 -0.645054,0.59531 -0.347133,1.04192 0.297921,0.44662 1.041929,0.44662 1.339321,0.24818 0.297391,-0.19843 0.595312,-1.14088 0.198437,-2.6789 -0.148696,-0.7448 -0.382852,-1.07024 -0.844814,-1.14459 z m -3.818467,0.44953 c -0.737923,0.17568 0.128587,0.82999 0.322527,0.79375 0.192352,-0.0341 0.572029,-0.88054 -0.322527,-0.79375 z m 12.653698,5.59541 c -0.03254,-0.0146 -0.05583,-0.008 -0.102394,0.0103 -0.09313,0.0373 -0.272785,0.12409 -0.79375,0.1487 -1.041929,0.0497 -1.140883,0.1487 -1.934633,0.49609 -0.79375,0.3474 -0.297657,1.04193 0.347133,0.74401 0.843492,0 0.843492,0.54557 1.240367,0.34714 0.396875,-0.19844 0.496093,-0.99219 0.843491,-0.99219 0.347398,0 0.843492,-0.39688 0.545571,-0.64506 -0.07461,-0.0614 -0.114829,-0.0955 -0.145785,-0.109 z m -5.931429,2.68922 c -0.324115,0.1479 -0.434182,-0.0373 -0.91784,0.29766 -0.645054,0.44661 -0.595312,1.33932 0,0.99218 0.595313,-0.34713 0.297656,0.0498 1.5875,-1.04193 l -1.637242,0.19844 c 0.409311,-0.1651 0.706967,-0.313 0.967582,-0.44635 z m 68.2625,0.12409 c -0.0744,-0.0743 -5.80443,5.1345 -6.84609,5.72982 -0.82021,0.44661 -2.97657,0.96731 -3.86954,1.04193 -0.44794,0.0743 -1.04192,-0.37201 -1.26497,-0.0744 -0.29924,0.372 0.37201,0.81862 0.44662,1.19062 0.0743,0.44662 0.14869,1.04193 -0.22331,1.26498 -0.52255,0.44661 -1.93463,-0.1487 -2.4556,0.66966 -0.14869,0.2233 -0.29765,1.56262 -0.96731,1.63724 -0.3736,0 -0.62019,-0.37201 -0.99219,-0.37201 -0.67125,-0.0743 1.28825,2.00925 1.51315,2.23256 0.1487,0.22331 0.0728,0.59531 0.29766,0.74401 0.0744,0 2.52862,0.372 2.75325,0.29765 0.44662,-0.14869 0.74269,-0.74401 1.19063,-0.74401 0.2233,0 0.81703,1.71371 1.41393,0.59532 0.22331,-0.37201 -0.2249,-0.89297 0,-1.19063 0.59531,-0.81862 3.19828,-1.56051 3.79518,-2.60456 0.22331,-0.372 -0.15028,-1.04193 0.1487,-1.41393 0.372,-0.372 1.11469,-0.0743 1.56263,-0.372 0.29765,-0.1487 0.37041,-0.59532 0.66966,-0.66967 0.29765,-0.14869 0.89138,0.22331 1.11627,-0.0743 0.37201,-0.59532 -2.97815,-0.81651 -2.3069,-2.4556 0.59505,-1.33985 3.94362,-4.23995 4.01823,-5.43269 z m -62.783773,3.00037 c -0.05583,-0.009 -0.105305,-0.008 -0.145786,0 -0.167481,0.0402 -0.2032,0.2376 0.148696,0.57045 0.700617,0.49186 1.333235,0.7866 1.438804,1.06653 0.103981,0.28099 0.07435,1.27423 0.496094,0.81862 0.420158,-0.45587 0.496094,-0.70485 -0.09922,-1.0914 -0.5969,-0.3855 -0.989012,-0.54981 -1.339321,-1.04193 -0.132027,-0.18389 -0.33655,-0.29554 -0.499268,-0.32332 z m 4.864629,2.03491 c -0.09763,-0.0249 -0.310092,0.0249 -0.694531,0.1487 -1.537759,0.49609 -1.04193,1.04193 -1.785938,1.48828 -0.744008,0.44635 -0.446617,1.5875 0.148696,0.64506 0.595312,-0.94245 0.496094,-0.8435 0.992187,-1.04193 0.818886,-0.5207 1.629569,-1.16549 1.339586,-1.24011 z m 4.464843,1.61238 c -0.09313,0.003 -0.243416,0.0765 -0.471222,0.19843 -0.457465,0.24712 -0.110067,0.36804 0.347133,0.59532 0.455877,0.22833 0.47281,0.49 0.297656,-0.54558 -0.03545,-0.18415 -0.08202,-0.24923 -0.173567,-0.24817 z m 3.125524,1.19062 c -0.389202,0.10239 -1.221582,0.94245 -2.430992,2.05872 -0.297657,0.29766 -1.190625,1.43881 -0.496094,1.83568 0.694531,0.39688 0.198437,0.74401 0.297656,1.78594 0.09922,1.04193 0.744009,0.24818 1.389063,-1.04193 0.645054,-1.29011 1.140883,-2.38125 1.438804,-3.91901 0.111654,-0.57679 0.03413,-0.7792 -0.198437,-0.7194 z m -15.08125,1.91003 c -0.17198,-0.0217 -0.268288,0.10742 -0.07435,0.54557 0.490008,0.38655 0.804598,0.17886 0.595312,-0.17357 -0.105569,-0.17462 -0.350573,-0.35031 -0.520964,-0.372 z m 8.681508,4.91119 c -0.105304,0.13547 -0.246592,1.03241 -0.148696,1.48828 0.148696,0.69454 -0.198438,0.89297 -0.396875,1.38907 -0.198438,0.49609 0,0.69453 0.396875,1.63724 0.223308,0.0341 0.587639,-0.059 0.694531,-0.0992 0.198438,-0.44662 0.396875,-0.54557 -0.198437,-1.09141 -0.595313,-0.54583 -0.297657,-1.24036 -0.248179,-2.72838 0.01244,-0.372 -0.01693,-0.5551 -0.04974,-0.59531 -0.01217,-0.0135 -0.03545,-0.0188 -0.04948,-2.7e-4 z m -0.942446,4.91146 c -0.110067,0.0373 -0.311679,0.15399 -0.520965,0.29766 -0.561181,0.38656 -0.784489,1.47902 0.198438,0.49609 0.482071,-0.67918 0.504031,-0.85381 0.322527,-0.79375 z m -5.159375,2.38125 c 0,0 -0.382852,0.99537 -0.868098,1.24037 -0.486833,0.245 -0.682096,-0.58288 -1.736196,0.52097 -0.299243,0.2233 -0.446616,0.99218 -0.818621,0.84349 -2.010833,0.0249 -0.471222,-1.5875 -0.79375,-2.05873 -0.671247,-0.14869 -1.736195,0.91784 -2.108464,0.99219 -0.224896,0.0743 -0.719402,-0.17357 -1.041929,-0.39687 -0.894556,-0.0744 -1.513152,0.7194 -2.331509,0.49609 -0.447939,-0.0743 0,-0.7194 -0.520964,-0.57044 -0.820208,0.14869 -1.389063,0.0249 -2.207683,0.24818 -0.671248,0.22331 -1.190625,0.81862 -1.934634,1.04193 -0.373591,0.14869 -0.868098,0.47122 -1.240366,0.39687 -0.44794,-0.0744 -0.570442,-0.59531 -0.843492,-1.01706 -0.373592,0.0498 -1.116277,0.32253 -1.190625,-0.0497 -0.148696,-0.372 1.240367,0.19844 0.595312,-0.8681 -1.26656,-0.42174 -0.744008,0.57045 -1.116277,0.71941 -0.522552,0.2233 -1.289843,0.34713 -1.810808,0.12409 -1.837002,-2.9517 -0.387614,0.31326 -0.942446,0.42174 -0.451114,0.0889 -0.5334,-1.79837 -0.744008,-0.76888 -0.224896,0.52097 0.12409,1.19063 0.12409,1.78594 -0.07435,0.44662 -0.522553,1.86029 0.595312,1.86029 0.520965,-0.0743 1.511565,-0.22331 2.034117,-0.37201 0.520964,-0.0744 0.668073,-0.29766 1.116277,-0.22331 0.223308,0 0,0.32253 0.223308,0.32253 1.837002,-0.0497 1.013883,-0.32253 2.902215,-0.47122 1.748631,0.98504 2.258747,0.0683 3.001433,0.49609 0.291571,0.1696 -0.277548,0.79984 0.198437,1.36419 0.446617,0.37201 4.612217,-1.4388 5.060157,-1.5875 0.297656,-0.11165 2.2479,-0.49927 3.99362,-1.04193 1.531673,-0.47545 1.624807,0.29766 2.703777,-0.86809 0.02434,-2.25902 -0.298185,-2.58049 -0.298185,-2.58049 z" />
  </g>
</svg>
