<?xml version="1.0" encoding="UTF-8" standalone="no"?>
<!-- Created with Inkscape (http://www.inkscape.org/) -->

<svg
   width="210mm"
   height="297mm"
   viewBox="0 0 210 297"
   version="1.1"
   id="svg1676"
   inkscape:version="1.1.1 (3bf5ae0d25, 2021-09-20)"
   sodipodi:docname="papacy.svg"
   xmlns:inkscape="http://www.inkscape.org/namespaces/inkscape"
   xmlns:sodipodi="http://sodipodi.sourceforge.net/DTD/sodipodi-0.dtd"
   xmlns="http://www.w3.org/2000/svg"
   xmlns:svg="http://www.w3.org/2000/svg">
  <sodipodi:namedview
     id="namedview1678"
     pagecolor="#ffffff"
     bordercolor="#666666"
     borderopacity="1.0"
     inkscape:pageshadow="2"
     inkscape:pageopacity="0.0"
     inkscape:pagecheckerboard="0"
     inkscape:document-units="mm"
     showgrid="false"
     inkscape:zoom="0.7500982"
     inkscape:cx="406.61343"
     inkscape:cy="539.26272"
     inkscape:window-width="1920"
     inkscape:window-height="1027"
     inkscape:window-x="1912"
     inkscape:window-y="-8"
     inkscape:window-maximized="1"
     inkscape:current-layer="layer1" />
  <defs
     id="defs1673" />
  <g
     inkscape:label="Ebene 1"
     inkscape:groupmode="layer"
     id="layer1">
    <g
       id="g371"
       transform="matrix(0.26458333,0,0,0.26458333,-121.7897,-243.8199)">
      <path
         id="path4500"
         fill="#1a7668"
         stroke="#000000"
         stroke-width="0.5"
         d="m 634.862,1085.508 c -0.932,0.066 -2.566,1.32 -4.066,3.012 -0.234,0.258 -0.457,0.113 -0.697,0.242 -0.082,0.316 -0.1,0.836 -0.211,1.047 -0.299,0.562 -0.721,0.793 -1.312,0.656 -0.598,-0.129 -1.195,-0.387 -1.688,-0.469 -0.498,-0.082 -0.873,0.023 -0.938,0.75 -0.135,1.461 0.229,1.191 1.688,2.25 0.727,0.535 0.234,0.902 -0.375,1.312 -0.615,0.418 -1.301,0.867 -1.031,1.594 0.527,1.461 0.996,2.016 0.469,2.812 -0.27,0.398 -1.189,0.891 -2.25,1.219 -1.061,0.336 -2.244,0.492 -2.906,0.094 -0.668,-0.398 -1.055,-0.176 -1.219,0.469 -0.17,0.652 -0.082,1.707 0.188,3.094 0.264,1.395 0.381,1.812 0.188,1.875 -0.199,0.07 -0.762,-0.211 -1.688,-0.281 -0.932,-0.062 -1.365,1.062 -1.594,2.25 -0.117,0.598 -0.07,0.898 -0.094,1.406 1.646,0.113 3.246,0.137 5.156,1.5 0.281,0.207 0.545,0.316 0.844,0.562 3.094,2.531 3.088,7.312 6.188,9.844 0.562,0.281 1.682,-0.562 2.25,-0.281 1.969,1.125 3.932,2.25 5.625,3.656 3.938,3.102 -0.006,2.25 3.375,7.312 1.688,1.969 4.775,2.25 6.75,3.938 l 4.219,5.906 c 1.688,1.125 6.838,0.562 8.812,2.25 1.688,1.688 1.4,5.344 3.938,5.906 2.25,0.562 4.213,-2.812 6.75,-3.375 0.539,-0.051 1.084,0.035 1.594,0.188 -0.094,-0.027 -0.188,-0.152 -0.281,-0.188 -0.018,-0.176 -0.088,-0.531 -0.094,-0.656 -0.047,-0.797 -0.691,-1.02 -1.312,-1.219 -0.621,-0.199 -1.219,-0.375 -1.312,-0.938 -0.088,-0.527 0.275,-0.902 0.844,-1.152 0,-0.02 0,-0.043 0,-0.066 0.023,-0.012 0.064,0.012 0.094,0 0.633,-0.246 1.5,-0.328 2.156,-0.188 0.656,0.14 1.055,0.188 1.465,0.117 0.41,-0.071 0.832,-0.258 1.535,-0.586 1.406,-0.656 0.469,-2.812 1.969,-3.844 0.75,-0.516 0.908,-1.172 0.938,-1.781 0.023,-0.609 -0.094,-1.172 0.094,-1.688 0.188,-0.516 0.434,-1.16 0.281,-2.062 -0.135,-0.785 -0.627,-1.738 -1.688,-2.906 -0.006,-0.027 -0.023,-0.051 -0.029,-0.082 -0.152,-0.156 -0.27,-0.309 -0.439,-0.48 -1.453,-1.406 -2.566,-3.082 -3.656,-4.5 -1.09,-1.418 -2.156,-2.578 -3.562,-3 -0.674,-0.199 -1.254,-0.438 -1.764,-0.695 -1.67,-0.82 -2.701,-1.887 -3.768,-2.961 -0.152,-0.145 -0.24,-0.297 -0.311,-0.445 -0.234,-0.457 -0.129,-0.902 0.047,-1.348 -0.773,-0.203 -1.441,-0.363 -1.787,-0.48 -1.154,-0.379 -1.125,0.316 -1.348,0.926 -0.229,0.609 -1.213,-0.668 -1.564,-0.156 -0.357,0.516 -1.096,0.156 -1.254,-0.676 -0.164,-0.832 -2.309,-1.277 -2.273,-1.727 0.029,-0.445 -0.48,-0.711 -0.896,-0.035 -0.422,0.672 -1.471,0.801 -2.238,0.961 -0.773,0.164 -2.244,-1.535 -1.377,-1.73 0.861,-0.191 0.797,-0.988 0.094,-1.82 -0.709,-0.832 -2.502,-1.824 -3.299,-1.57 -0.803,0.258 -0.773,-0.453 -1.312,-1.637 -0.545,-1.184 -0.99,-1.57 -0.316,-2.336 0.334,-0.383 0.393,-0.609 0.252,-0.723 -0.146,-0.105 -0.498,-0.094 -0.99,0.02 -0.498,0.109 -0.592,-0.23 -0.551,-0.676 0.035,-0.445 0.199,-0.988 0.199,-1.277 0,-0.574 -1.031,-0.902 -1.348,-0.227 -0.322,0.672 -3.076,-1.055 -2.848,-1.887 0.223,-0.832 -1.219,-0.926 -1.154,-1.508 0.059,-0.574 -0.838,-1.09 -0.258,-1.504 0.574,-0.418 0.287,-1.121 -0.445,-1.73 -0.369,-0.305 -0.557,-0.68 -0.504,-0.977 0.047,-0.301 0.34,-0.527 0.92,-0.527 0.574,0 0.469,-0.387 0.334,-0.762 -0.141,-0.371 -0.305,-0.723 0.146,-0.645 0.896,0.164 1.945,0.062 1.342,-0.352 -0.609,-0.418 -0.58,-1.191 -0.287,-1.957 0.287,-0.77 1.09,-3.266 0.387,-3.488 -0.709,-0.223 0.48,-0.738 -0.223,-0.961 -0.715,-0.222 -5.649,-0.672 -6.574,-0.609 z" />
    </g>
  </g>
</svg>
