<?xml version="1.0" encoding="UTF-8" standalone="no"?>
<!-- Created with Inkscape (http://www.inkscape.org/) -->

<svg
   width="210mm"
   height="297mm"
   viewBox="0 0 210 297"
   version="1.1"
   id="svg3716"
   inkscape:version="1.1.1 (3bf5ae0d25, 2021-09-20)"
   sodipodi:docname="prussia.svg"
   xmlns:inkscape="http://www.inkscape.org/namespaces/inkscape"
   xmlns:sodipodi="http://sodipodi.sourceforge.net/DTD/sodipodi-0.dtd"
   xmlns="http://www.w3.org/2000/svg"
   xmlns:svg="http://www.w3.org/2000/svg">
  <sodipodi:namedview
     id="namedview3718"
     pagecolor="#ffffff"
     bordercolor="#666666"
     borderopacity="1.0"
     inkscape:pageshadow="2"
     inkscape:pageopacity="0.0"
     inkscape:pagecheckerboard="0"
     inkscape:document-units="mm"
     showgrid="false"
     inkscape:zoom="0.7500982"
     inkscape:cx="397.28131"
     inkscape:cy="561.92642"
     inkscape:window-width="1920"
     inkscape:window-height="1027"
     inkscape:window-x="1912"
     inkscape:window-y="-8"
     inkscape:window-maximized="1"
     inkscape:current-layer="layer1" />
  <defs
     id="defs3713" />
  <g
     inkscape:label="Ebene 1"
     inkscape:groupmode="layer"
     id="layer1">
    <g
       id="g513"
       transform="matrix(0.26458333,0,0,0.26458333,-103.50947,-108.61313)">
      <path
         fill="#3a77ce"
         stroke="#000000"
         stroke-width="0.5"
         d="m 648.637,660.527 c 0.129,-0.262 0.375,-0.285 -0.281,-0.75 -0.17,-0.117 -0.311,-0.203 -0.469,-0.188 -0.492,0.055 -0.967,0.617 -1.312,1.312 -0.469,0.935 0.603,0.29 2.062,-0.374 z"
         id="path495" />
      <path
         fill="#3a77ce"
         stroke="#000000"
         stroke-width="0.5"
         d="m 559.574,898.84 c 0,-0.656 0.656,-2.719 0.656,-2.719 l -0.844,-1.5 c 0,0 0.469,-0.656 0.938,-1.125 0.469,-0.469 0.844,-1.312 0.375,-1.781 -0.469,-0.469 -0.094,-1.688 0,-2.344 0.094,-0.656 -1.031,-1.5 -1.031,-1.5 0,0 -1.125,1.5 -1.688,0.75 -0.563,-0.75 -1.312,-0.562 -2.25,-0.562 -0.938,0 -2.906,-0.656 -3.75,-0.844 -0.844,-0.188 -3.094,-0.844 -4.688,-0.844 -1.594,0 -3.375,-2.062 -3.938,-2.25 -0.141,-0.047 -0.258,-0.051 -0.375,0 -0.357,0.16 -0.586,0.68 -0.375,1.031 0.281,0.469 -0.188,1.5 0.281,1.781 0.469,0.281 1.5,0.656 2.625,0.844 1.125,0.188 0.281,1.125 0.844,1.688 0.563,0.563 3,-0.094 3,-0.094 0,0 0.75,0.562 1.688,0.938 0.938,0.376 0.938,0.281 1.688,-0.375 0.75,-0.656 1.875,1.031 2.625,2.062 0.75,1.031 0.375,1.594 0.75,1.875 0.252,0.195 0.07,1.266 -0.094,2.062 0.422,0.27 0.75,0.609 0.75,1.406 0,1.461 1.16,2.109 1.031,2.906 -0.135,0.797 0.363,1.465 -0.562,1.594 -0.932,0.137 -1.143,2.004 -1.406,2.531 -0.27,0.535 -0.387,1.031 -1.312,1.031 -0.932,0 -1.125,-0.438 -1.125,0.75 0,0.598 0.604,0.781 1.219,0.844 0.609,0.07 1.26,0.047 1.594,0.375 0.662,0.664 1.219,-0.496 1.219,-1.031 0,-0.527 0.27,-1.172 0.938,-1.969 0.662,-0.797 0.727,-2.535 1.125,-1.875 0.393,0.664 1.248,1.688 1.781,1.688 0.234,0 0.205,0.305 0.188,0.656 l 2.156,-2.438 c 0,0 -2.156,-1.031 -2.906,-1.312 -0.75,-0.281 -1.127,-1.593 -1.127,-2.249 z"
         id="path497" />
      <path
         fill="#3a77ce"
         stroke="#000000"
         stroke-width="0.5"
         d="m 648.356,658.934 c 0.463,0 0.756,-0.023 0.562,0.375 -0.199,0.398 -0.252,0.34 0.281,0.469 0.527,0.137 0.85,-0.352 0.188,0.375 -0.668,0.734 -1.412,1.039 -1.875,1.5 -0.469,0.465 0.152,0.562 0.75,0.562 0.592,0 0.416,0.09 0.75,0.75 0.328,0.664 0.908,1.125 -0.281,1.125 -1.195,0 -1.775,-0.457 -1.969,0.469 -0.199,0.934 0.281,1.414 0.75,1.875 2.32,1.992 2.684,2.047 3.281,1.781 0.592,-0.262 0.199,-0.34 0.469,0.188 0.264,0.535 0.984,1.242 1.781,0.844 0.791,-0.398 -1.008,-1.5 0.188,-2.625 1.189,-1.125 2.982,-2.391 4.312,-2.062 1.324,0.336 1.852,1.09 1.125,1.688 -0.732,0.598 1.072,1.559 1.406,0.094 0.328,-1.457 0.785,-1.395 -0.469,-2.719 -1.26,-1.324 -2.461,-0.449 -3.188,-2.906 -0.732,-2.449 1.676,-1.102 1.875,-3.094 0.193,-1.984 -1.014,-2.016 -3,-1.688 -1.992,0.336 -3.217,0.27 -3.281,-1.125 -0.07,-1.387 0.059,-0.914 0.656,-1.312 0.592,-0.398 0.762,-1.324 -0.562,-1.125 -1.33,0.199 -2.555,0 -3.281,1.125 -0.732,1.125 -0.826,1.922 -0.094,1.125 0.727,-0.797 1.799,-0.797 0.938,1.125 -0.867,1.922 -0.305,1.348 0.562,0.75 0.861,-0.598 0.926,-0.727 1.125,-1.125 0.193,-0.398 0.27,-0.035 0.938,0.562 0.662,0.598 1.02,1.062 1.688,1.125 0.662,0.066 0.656,-0.133 0.656,1.125 0,1.262 0.164,1.238 -0.562,1.5 -0.732,0.266 -0.996,0.234 -1.125,-0.562 -0.135,-0.797 0.275,-0.66 -0.188,-1.125 -0.469,-0.461 0.1,-0.492 -0.562,-0.094 -0.668,0.398 -0.832,0.48 -0.562,-0.844 0.264,-1.324 -0.146,-1.211 -0.938,-0.281 -0.797,0.934 -0.217,0.621 -0.281,1.219 -0.07,0.598 0.029,0.09 -0.562,-0.375 -0.598,-0.461 -1.682,0.066 -2.344,0 -0.668,-0.062 -0.094,0.246 -0.094,0.844 0,0.598 0.468,0.467 0.937,0.467 z"
         id="path499" />
      <path
         fill="#3a77ce"
         stroke="#000000"
         stroke-width="0.5"
         d="m 545.043,810.527 c 0.27,-0.145 0.586,0.113 0.938,0.469 l 0.75,-0.844 -0.281,-4.219 c 0.158,-0.152 0.363,-0.32 0.281,-0.469 -0.199,-0.07 -0.357,-0.203 -0.469,-0.375 0.029,0.059 0.047,0.141 0.094,0.188 -0.229,-0.062 -0.527,-0.074 -1.031,0 -0.533,0.082 -0.932,0.246 -1.312,0.375 -0.088,-0.18 -0.188,-0.379 -0.188,-0.656 0,-0.719 0.457,-1.887 0.188,-2.344 -0.158,-0.262 -1.307,-0.082 -2.062,-0.094 v -0.188 c -0.346,0.102 -3.129,0.91 -3.656,1.969 -0.562,1.125 -0.188,2.719 0.844,3.469 1.032,0.75 2.062,1.594 2.719,2.719 0.657,1.125 2.341,0.469 3.185,0 z"
         id="path501" />
      <path
         fill="#3a77ce"
         stroke="#000000"
         stroke-width="0.5"
         d="m 564.731,759.621 c -1.154,0.129 -5.438,-0.445 -6.844,-0.188 -1.412,0.258 -2.303,1.277 -4.219,1.406 -1.922,0.129 -2.438,0.188 -2.438,0.188 0,0 -0.785,-2.852 -2.062,-3.75 -0.891,-0.621 -1.717,-1.641 -2.25,-2.344 0.018,-1.066 0.24,-3.352 1.875,-4.406 2.174,-1.406 2.607,-0.059 4.406,-0.188 1.793,-0.129 2.438,-0.75 2.438,-0.75 l -0.562,-1.5 1.219,-2.344 h -0.281 -1.781 c 0,0 0.398,-0.613 1.031,-1.312 0.24,-0.27 0.545,-0.578 0.844,-0.844 -0.047,-0.508 0.211,-1.195 1.031,-2.156 0.65,-0.496 1.477,-1.043 2.25,-1.594 0.094,-1.387 0.094,-2.156 0.094,-2.156 h -0.75 c 0.305,-0.445 0.797,-0.906 1.031,-1.406 0.463,-0.996 0.234,-1.816 -1.219,-1.688 -1.459,0.137 -4.875,4.312 -4.875,4.312 -0.129,0.102 -0.234,0.219 -0.375,0.281 -0.357,0.164 -0.738,0.254 -1.219,0.281 -1.922,0.129 -2.25,0 -2.25,0 l -0.938,-4.5 -1.406,-0.188 -1.031,1.031 -2.062,-0.469 c 0,0 0.023,2.121 -1.125,2.25 -0.293,0.035 -0.656,-0.012 -1.031,-0.094 -0.369,-0.074 -0.65,-0.168 -0.938,-0.281 1.289,1.133 2.695,2.379 3.188,3.094 1.031,1.5 0.088,2.062 -0.094,3.75 -0.188,1.688 0.281,2.906 1.031,3.844 0.75,0.938 -0.469,1.219 -1.875,1.688 -1.406,0.469 -0.844,1.219 -1.969,1.125 -1.125,-0.094 -1.312,-0.844 -1.312,-0.844 0,0 -2.062,1.5 -3.094,1.969 -0.492,0.223 -1.084,-0.027 -1.594,-0.281 -0.018,0.02 -0.088,-0.012 -0.094,0 -0.164,0.199 -0.258,0.422 -0.375,0.656 -0.158,0.293 -0.211,0.336 -0.281,0.562 -0.059,0.188 -0.182,0.527 -0.188,0.562 -0.75,-0.141 0.264,-1.938 -1.125,-1.594 -1.049,0.266 -2.104,-0.469 -2.812,-1.125 0.094,0.012 0.281,0 0.281,0 0,0 0.053,-0.129 0.188,-0.375 0.129,-0.246 0.334,-0.613 0.656,-0.938 0.158,-0.156 0.328,-0.227 0.469,-0.281 0.135,-0.047 0.229,-0.082 0.375,-0.094 0.141,-0.012 0.281,-0.039 0.469,-0.094 0.146,-0.039 0.357,-0.074 0.562,-0.188 -0.369,-0.883 -1.096,-2.359 -1.594,-3.562 -1.178,-1.035 -0.07,-2.578 0.75,-4.219 0.896,-1.793 -1.107,-1.031 -3.281,-1.031 -2.18,0 -2.062,-0.961 -2.062,-2.625 0,-1.664 -1.26,-0.637 -2.156,-1.406 -0.141,-0.117 -0.193,-0.461 -0.281,-0.75 -0.047,0.031 -0.053,0.07 -0.094,0.094 -0.34,0.23 -0.598,0.465 -0.75,0.75 -0.188,0.316 -0.27,0.688 -0.281,1.031 -0.018,0.363 -0.041,0.711 -0.094,1.031 -0.041,0.16 -0.047,0.328 -0.094,0.469 -0.012,0.031 0.012,0.07 0,0.094 -0.064,0.117 -0.188,0.188 -0.281,0.281 -0.023,0.02 0.018,0.078 0,0.094 -1.09,0.91 -1.904,1.262 -2.719,2.438 -0.41,0.594 -0.979,0.77 -1.594,0.844 -0.621,0.078 -1.295,0.055 -2.062,0.188 -0.064,0.012 -0.299,-0.012 -0.375,0 -0.018,0.023 -0.082,-0.016 -0.094,0 -0.088,0.125 -0.182,0.211 -0.375,0.281 -0.457,0.219 -1.271,0.281 -2.812,0.281 h -1.312 c -0.076,0.066 -0.123,0.176 -0.188,0.281 -0.07,0.117 -0.152,0.184 -0.188,0.375 -0.129,0.703 -0.24,1.172 -0.656,1.688 -0.211,0.258 -0.551,0.562 -0.938,0.844 -0.393,0.281 -0.861,0.586 -1.5,0.938 -0.076,0.043 -0.123,0.059 -0.188,0.094 0.059,1.355 -0.059,1.91 -0.281,2.156 -0.076,0.082 -0.188,0.164 -0.281,0.188 -0.293,0.078 -0.65,-0.062 -1.031,0.094 -0.129,0.055 -0.246,0.152 -0.375,0.281 -0.17,0.172 -0.24,0.281 -0.375,0.375 0.047,0.102 0.023,0.172 0.094,0.281 0.188,0.312 0.387,0.582 0.562,0.844 -0.352,-0.363 -0.68,-0.645 -1.031,-0.938 -0.521,0.234 -0.762,0.117 -1.031,0.75 -0.387,0.898 -0.152,1.203 0.938,1.969 1.084,0.77 0.398,0.734 0.656,1.5 0.123,0.387 0.064,0.949 -0.094,1.5 -0.082,0.277 -0.152,0.492 -0.281,0.75 -0.129,0.266 -0.311,0.547 -0.469,0.75 -0.645,0.832 -1.828,0.699 -2.531,0.375 -0.709,-0.32 -1.354,-1.445 -2.25,-1.125 -0.896,0.324 -1.939,0.91 -3.281,0.844 -1.348,-0.062 -1.775,1.414 -2.156,1.219 -0.387,-0.191 -1.881,-0.859 -3.094,-1.5 -0.223,-0.109 -0.814,-0.59 -1.219,-0.844 -0.855,0.441 -1.857,0.773 -2.25,0.375 -0.773,-0.766 -1.201,-2.238 -1.969,-0.188 -0.293,0.77 -0.316,1.016 -0.188,1.125 0.041,0.043 0.117,0.078 0.188,0.094 0.264,0.082 0.68,0.137 0.938,1.031 0.105,0.383 0.146,0.641 0.188,0.844 0.105,0.609 -0.094,0.609 -0.75,1.031 0.152,0.188 0.328,0.383 0.469,0.562 1.916,2.562 2.818,4.453 3.844,6.375 0.252,0.48 0.422,0.902 0.562,1.312 0.135,0.41 0.234,0.816 0.281,1.219 0.088,0.816 0.029,1.688 -0.094,2.906 -0.258,2.434 -0.803,3.453 -2.719,5.625 -0.48,0.547 -0.779,0.973 -0.938,1.312 -0.082,0.172 -0.17,0.352 -0.188,0.469 -0.094,0.605 0.574,0.574 1.219,0.094 0.176,-0.133 0.287,-0.203 0.375,-0.188 0.041,0.008 0.064,0.066 0.094,0.094 0.035,0.059 0.018,0.152 0,0.281 -0.018,0.188 -0.059,0.375 -0.188,0.656 -0.123,0.246 -0.275,0.492 -0.469,0.75 -0.041,0.055 -0.053,0.141 -0.094,0.188 -0.17,0.199 -0.363,0.406 -0.562,0.562 -0.961,0.77 -1.564,1.629 -2.25,2.062 -0.234,0.148 -0.498,0.254 -0.75,0.281 -0.229,0.031 -0.445,0.031 -0.656,0 -0.023,-0.012 -0.076,0.012 -0.094,0 -0.721,-0.098 -1.312,-0.305 -1.5,0.75 -0.258,1.414 -0.791,0.973 0.75,2.25 0.381,0.324 0.703,0.539 0.938,0.656 0.235,0.117 0.416,0.141 0.562,0.188 0.281,0.105 0.398,0.207 0.656,0.844 0.252,0.645 0.586,1.109 0.75,1.5 0.082,0.199 0.094,0.363 0.094,0.562 -0.006,0.207 -0.064,0.406 -0.188,0.656 -0.064,0.129 -0.123,0.184 -0.188,0.281 -0.451,0.699 -0.926,0.852 -1.594,1.969 -0.369,0.609 -0.246,1.219 -0.094,1.875 0.006,0.035 -0.012,0.066 0,0.094 0.023,0.129 0.064,0.254 0.094,0.375 0.041,0.219 0.07,0.441 0.094,0.656 0,0.031 -0.006,0.066 0,0.094 0.023,0.348 0.029,0.68 -0.094,1.031 -0.516,1.414 0.281,1.016 0.281,3.188 0,2.18 2.039,1.969 2.812,3.375 0.768,1.414 -1.031,2.062 -2.438,2.062 -0.709,0 -0.768,0.453 -0.75,1.125 0.006,0.34 0.053,0.691 0,1.125 -0.059,0.434 -0.182,0.926 -0.469,1.406 -0.434,0.723 -0.387,1.055 -0.188,1.219 0.064,0.059 0.094,0.066 0.188,0.094 0.176,0.066 0.428,0.105 0.562,0.188 0.064,0.043 0.07,0.113 0.094,0.188 0.018,0.078 0.047,0.152 0,0.281 -0.188,0.488 -0.908,1.031 -1.594,1.5 0.035,0.059 0.047,0.137 0.094,0.188 0.768,0.898 -1.553,3.184 -0.656,3.562 0.896,0.387 0.486,1.922 2.156,1.406 1.664,-0.508 1.693,0.082 1.312,3.281 -0.387,3.207 -0.111,5.953 3.094,7.875 3.199,1.922 3.85,0.254 4.875,2.812 0.105,0.277 0.123,0.758 0.094,1.312 0.059,0 0.123,0.008 0.188,0 -0.088,0.34 -0.17,0.688 -0.281,1.031 -0.562,1.688 -1.406,3.281 -1.406,3.281 l 0.75,0.75 0.281,0.188 v 0.094 h -0.281 l -1.594,0.094 c 0,0 -0.258,0.117 0,1.781 0.029,0.188 0.012,0.434 0,0.656 l -0.75,1.031 c 0,0 0.346,0.434 0.469,0.562 -0.217,0.816 -0.498,1.605 -0.75,2.25 1.02,-0.176 1.928,-0.949 2.25,-0.469 0.604,0.875 1.125,1.863 1.125,2.625 0,1.859 -2.314,1.848 -0.188,2.906 2.121,1.062 4.014,2.402 3.75,4.125 -0.27,1.723 0.018,1.125 1.875,1.125 0.826,0 1.119,-0.109 1.312,-0.375 0.973,0.328 2.016,0.199 3.469,0.277 2.297,0.121 1.652,2.309 3.844,2.438 l -0.75,-5.812 3.375,-2.812 0.75,-3.75 -0.547,-0.957 c 1.228,-1.275 2.288,-2.711 2.51,-3.445 0.375,-1.219 2.156,-1.875 4.219,-1.875 2.063,0 1.875,-0.562 2.25,-1.406 0.135,-0.285 0.551,-0.234 0.75,-0.375 l -4.875,-2.719 -0.088,-0.094 c -0.973,0.863 -1.887,1.371 -2.719,2.344 -1.125,1.312 -1.594,1.688 -1.875,3 -0.281,1.312 -1.031,1.406 -2.906,1.688 -0.708,0.109 -1.238,0.468 -1.644,0.809 l -1.263,-3.156 -2.25,0.188 2.719,-2.062 1.5,-1.125 4.406,-3.281 2.812,-2.156 1.594,1.5 c 0.029,-0.008 0.064,0.004 0.094,0 l 1.125,1.125 1.781,-0.938 h 0.094 l 3.375,1.125 3,-1.125 1.312,0.375 0.656,-2.719 0.844,-3.844 -5.906,-7.875 -1.031,-1.312 0.281,-0.375 0.844,-0.938 -0.375,-0.934 -0.562,-1.312 1.875,-1.312 -0.75,-3.562 -1.312,-0.75 2.438,-2.062 0.938,-6.938 6.75,0.281 2.812,0.094 1.5,-2.062 -1.5,-1.312 3.938,-2.438 1.125,0.938 0.562,-0.844 4.688,-6.281 -1.125,-0.938 0.375,-0.938 0.75,-0.656 c 0.58,0.281 1.154,0.492 1.594,0.094 1.277,-1.148 2.344,-3.215 2.344,-4.5 0,-1.277 0.211,-2.078 -0.938,-1.312 -1.154,0.77 -2.414,-0.355 -2.156,-1.125 0.252,-0.766 1.049,-1.246 4.125,-2.531 3.07,-1.277 3.562,-1.594 3.562,-1.594 0,0 -0.861,-1.398 0.938,-2.812 1.793,-1.406 2.426,-1.418 2.812,0.375 0.381,1.793 1.389,2.543 3.188,0.75 1.793,-1.793 2.707,-2.273 3.094,-3.938 0.094,-0.414 0.434,-1.793 0.656,-2.812 0.621,-2.875 1.307,-6.457 1.406,-7.312 0,-0.012 -0.006,-0.082 0,-0.094 0,-0.027 0.094,-0.262 0.094,-0.281 0,-0.637 -0.164,-0.223 -1.312,-0.094 z"
         id="path503" />
      <path
         fill="#3a77ce"
         stroke="#000000"
         stroke-width="0.5"
         d="m 854.137,655.465 c -1.857,-2.383 -2.812,-4.996 -2.812,-5.531 0,-0.527 -2.145,-2.781 -1.875,-3.844 0.264,-1.059 2.016,-2.453 2.812,-2.719 0.791,-0.262 0.75,-0.375 0.75,-0.375 l -0.562,-2.062 0.281,-0.281 c -6.193,-8.441 -0.281,-16.031 -1.969,-18.844 -0.85,-1.125 -1.969,-1.969 -3.094,-2.531 -0.568,-0.281 -1.406,0.57 -1.688,0.281 -1.131,-0.844 -0.562,-3.094 -1.688,-3.375 l -0.75,-2.344 -7.219,0.469 c 0,0 -1.91,-1.691 -3,-1.969 -1.096,-0.273 -2.625,-0.375 -2.625,-0.375 l -3.844,-2.996 -1.594,1.406 c 0,0 -0.914,-1.84 -1.594,-2.25 -0.686,-0.41 -2.062,-0.938 -2.062,-0.938 l -0.281,-2.156 c 0,0 -3.416,-4.781 -4.781,-6.281 -1.371,-1.506 -3.844,-3.188 -3.844,-3.188 l -0.562,-2.156 -3.562,-1.125 -1.781,-1.406 c -0.152,0.615 -0.07,1.523 1.125,4.5 0.281,0.562 0.557,1.125 1.125,1.688 0.498,0.018 0.943,0.158 1.312,0.375 0.363,0.217 0.674,0.475 0.938,0.844 0.521,0.732 0.855,1.746 1.125,2.812 -0.264,-0.932 -2.414,-2.801 -2.531,-2.812 -0.123,-0.012 -0.51,-0.141 -0.469,0.188 0.164,1.312 1.096,3.58 1.219,6 0.117,2.314 -0.117,3.844 -0.75,5.531 -0.633,1.684 -0.844,2.152 -0.844,2.152 0,0 -1.242,2.633 -1.406,2.906 -0.885,1.484 -2.268,4.156 -3,5.25 -1.477,2.191 -1.594,2.246 -3.281,4.406 -0.375,0.699 -1.131,1.203 -2.25,1.594 -0.375,0.129 -0.756,0.277 -1.219,0.375 -0.938,0.199 -0.967,-0.602 -2.156,-0.562 -0.299,0.012 -0.639,0.102 -1.031,0.188 -0.398,0.09 -0.814,0.172 -1.219,0.281 -0.814,0.23 -1.588,0.469 -1.875,0.469 -0.99,-0.004 -1.107,-1.023 -1.5,-0.469 -0.656,0.957 -0.205,3.5 -0.188,3.844 0.305,1.289 0.357,2 -0.375,6.844 -0.193,0.312 -0.381,1.004 -0.094,1.406 0.094,0.137 0.252,0.234 0.469,0.281 0.686,0.16 0.943,0.16 1.031,0 0.088,-0.156 0.006,-0.469 0.094,-0.75 0.176,-0.586 0.205,-1.492 0.375,-2.156 0.17,-0.656 0.48,-1.066 1.125,-0.562 1.025,0.809 0.627,2.375 1.031,2.438 0.117,0.02 0.188,0.047 0.281,0 0.533,-0.27 0.639,-1.559 1.781,-1.875 0.188,-0.051 0.398,-0.098 0.656,-0.094 1.5,-0.094 2.625,-0.797 3.469,-0.188 0.211,0.152 0.059,0.277 -0.188,0.469 -0.252,0.195 -0.604,0.457 -0.844,0.75 -0.773,0.945 -1.453,1.805 -2.062,2.156 -0.562,0.492 -1.236,1.109 -1.875,1.594 -0.639,0.488 -1.242,0.844 -1.5,0.938 -0.258,0.094 -0.65,-1.617 -1.125,-0.656 -0.469,0.945 -0.727,2.695 -0.938,3 -0.516,0.609 -1.406,0.703 -1.875,1.219 -0.258,0.281 -0.486,0.629 -0.844,1.219 -0.053,0.09 -0.135,0.09 -0.188,0.188 -0.562,0.621 -1.283,2.004 -1.875,2.719 -0.398,0.48 -0.768,0.867 -1.125,1.125 -0.721,0.516 -1.389,0.691 -2.062,1.031 -0.34,0.172 -0.68,0.352 -1.031,0.656 -0.152,0.254 -0.357,0.457 -0.656,0.656 l -0.188,0.094 c -0.24,0.137 -0.486,0.277 -0.844,0.375 -0.943,0.27 -2.414,0.469 -2.906,0.75 0.035,-0.281 -0.07,-0.457 -0.094,-0.656 -0.152,-1.023 -0.92,-1.043 -0.562,-1.594 0.422,-0.656 4.377,-1.926 5.625,-2.812 1.131,-0.801 2.771,-2.148 3,-2.344 0.012,-0.012 0.188,-0.188 0.188,-0.188 0.012,-0.188 0.029,-0.223 0.094,-0.281 0.035,-0.039 0.059,-0.035 0.188,-0.188 0.258,-0.305 0.938,-0.656 1.406,-1.875 0.468,-1.219 1.102,-1.781 1.594,-2.719 0.492,-0.938 0.633,-0.914 0.844,-1.125 0.211,-0.211 -0.469,-1.031 -0.469,-1.031 l -0.75,-0.562 c 0,0 -0.305,1.336 -0.938,2.156 -0.633,0.82 -1.312,2.109 -1.781,3 -0.469,0.891 -1.5,1.875 -1.5,1.875 0,0 -0.088,0.094 -0.094,0.094 -0.141,0.102 -1.91,1.297 -2.719,1.875 -3.486,1.793 -5.596,3.223 -7.781,3.938 -2.057,0.676 -4.184,0.723 -7.5,-0.188 -1.857,-0.742 -2.666,-1.301 -3.094,-1.969 -0.51,-0.789 -0.486,-1.727 -1.031,-3.094 -0.393,-0.973 -1.055,-2.156 -2.438,-3.75 -0.568,-0.844 -0.568,-2.438 0.469,-3.188 1.031,-0.656 6.463,2.344 7.781,2.625 -0.047,-0.25 -0.164,-0.496 -0.281,-0.75 -0.826,-1.746 -3.428,-3.352 -9.281,-3.656 -1.301,-0.062 -1.969,-1.594 -1.969,-1.594 0,0 -2.438,0.469 -5.344,1.031 -1.271,0.246 -2.648,0.523 -4.031,0.844 -1.201,0.281 -2.402,0.594 -3.656,0.938 l -4.125,1.312 c -0.146,0.059 -0.24,0.137 -0.375,0.188 -0.75,0.301 -1.477,0.523 -2.062,0.844 -3.885,2.133 -3.984,4.219 -7.781,6.469 -2.537,1.406 -5.344,0.281 -7.312,1.969 -4.787,4.227 -2.25,6.844 -4.875,8.906 -4.318,3.609 -12.727,7.965 -20.156,10.219 -2.244,0.68 -6.193,3.09 -8.438,3.844 -1.992,0.668 -4.5,2.25 -4.5,2.25 0,0 -2.596,3.875 -3.094,7.406 -0.521,3.699 -1.43,2.785 -1.688,4.406 -0.475,2.93 1.213,2.355 1.406,3.094 -0.234,3.734 2.566,2.832 2.625,6.188 0.006,0.375 -0.557,1.98 -1.688,1.406 -1.002,-0.504 0.639,-2.617 -2.344,-7.312 -1.43,-2.242 -3.24,-0.496 -5.438,-3.75 -0.404,-0.023 -0.521,0.059 -0.562,0.188 -0.023,0.023 -0.088,-0.023 -0.094,0 -0.041,0.113 0.111,0.301 0.188,0.469 0.023,0.055 -0.023,0.137 0,0.188 0.105,0.246 0.188,0.477 0.094,0.656 -0.07,0.07 -0.211,0.152 -0.375,0.188 -0.352,-0.164 0.422,-1.703 -0.375,-1.969 -0.861,-0.273 -2.543,1.203 -4.312,0.188 -2.244,-1.316 -3.51,-2.285 -4.219,-3 0.234,-0.059 0.621,-0.188 0.75,-0.188 0.727,0 0.416,-1.172 0.75,-0.844 0.328,0.336 -0.498,0.688 0.094,0.75 0.592,0.066 1.207,-0.82 1.875,-1.219 0.662,-0.398 0.867,0.137 2.062,0 1.078,-0.117 1.664,0.059 1.781,0.094 v 0.094 c 0,0 0.738,0.82 1.406,1.219 0.662,0.398 1.336,1.191 1.406,0.656 0.064,-0.527 0.188,-1.312 0.656,-1.312 0.463,0 1.066,0.117 0.938,-0.281 -0.135,-0.398 -0.557,-0.309 -0.75,-0.844 -0.135,-0.344 -0.117,-0.543 0,-0.656 0.059,-0.012 0.176,-0.105 0.281,-0.094 0.527,0.066 -0.023,0.938 0.844,0.938 0.861,0 1.559,0.188 2.156,0.188 0.592,0 1.611,0.223 1.219,0.75 -0.398,0.535 -0.199,0.258 0,0.656 0.029,0.059 0.076,0.078 0.094,0.094 0.023,-0.129 0.105,-0.426 0.375,-0.562 0.527,-0.262 0.352,0.246 0.281,-0.75 -0.071,-0.996 -0.006,-1.359 0.656,-2.156 0.662,-0.797 0.75,-0.867 0.75,-2.062 0,-1.195 -0.943,-1.195 0.188,-1.594 1.125,-0.398 1.471,-0.379 1.406,-0.844 -0.035,-0.227 0.053,-0.484 0,-0.562 -0.059,-0.074 -0.305,0.07 -1.031,0.469 -1.459,0.797 -4.16,2.258 -4.688,2.719 -0.533,0.465 -0.861,1.676 -2.25,1.875 -1.395,0.199 -2.127,-0.188 -2.719,-0.188 -0.598,0 -0.938,-0.094 -0.938,-0.094 0.02,0.02 0.008,0.065 0.003,0.082 -0.01,-0.034 -0.124,-0.173 -0.94,-0.738 -1.061,-0.727 -0.984,-0.926 -2.906,-2.719 -0.48,-0.445 -0.832,-0.73 -1.125,-0.938 -0.299,-0.203 -0.527,-0.352 -0.656,-0.375 -0.264,-0.047 -0.234,0.234 0,0.562 0.023,0.035 0.064,0.066 0.094,0.094 0.463,0.633 1.119,1.277 1.312,2.156 0.193,0.934 -0.111,1.617 -0.375,1.219 -0.27,-0.398 -0.844,-0.656 -0.844,-0.656 0,0 -0.158,-0.59 -0.75,-0.656 -0.598,-0.062 -1.283,0.598 -0.75,1.125 0.527,0.535 0.686,2.047 0.281,2.906 -0.158,0.34 -0.902,0.605 -1.688,0.75 -0.568,-1.621 3.023,-1.617 -0.656,-4.5 -0.34,-0.262 -0.656,-0.52 -1.125,-0.844 -1.998,-1.34 4.682,-1.867 2.812,-2.531 -2.391,-4.09 -3.82,-3.797 -3.469,-2.156 -2.256,-0.562 -5.625,0.465 -6,2.25 -1.207,-2.301 -3.375,-3.656 -5.062,-5.062 -0.85,-1.125 -2.812,-0.562 -3.656,-1.688 -1.131,-1.688 0,-5.625 -1.969,-5.625 -0.141,0 -0.287,-0.023 -0.375,-0.094 -0.035,0.047 -0.059,0.152 -0.094,0.188 -0.732,0.699 -0.58,0.289 -1.406,0.75 -0.832,0.465 -0.68,0.891 -0.844,1.688 -0.17,0.797 -1.283,0.723 -1.312,0.188 -0.035,-0.527 -0.258,-0.812 -0.75,-0.75 -0.498,0.066 -1.295,0.035 -1.688,-0.562 -0.398,-0.598 -0.07,-0.496 -0.562,0 -0.498,0.5 -0.99,0.875 -1.781,1.5 -0.797,0.633 -0.762,-1 -1.125,-0.375 -0.369,0.633 -0.023,1.051 -0.75,1.312 -0.732,0.266 -0.527,0.691 -0.656,1.219 -0.135,0.535 -0.82,0.113 -1.312,0.938 -0.035,0.398 0.328,0.805 1.125,1.031 0.791,0.234 -0.416,0.207 -1.406,-0.094 -0.996,-0.297 -0.199,-0.52 -0.562,-1.219 -0.369,-0.695 0.094,-0.586 0.562,-1.219 0.463,-0.625 0.34,-0.234 0.375,-1.031 0.029,-0.797 -0.035,-0.727 0.562,-1.125 0.592,-0.398 1.4,-0.07 2.531,-0.469 1.125,-0.398 0.117,-0.121 0.75,-0.656 0.627,-0.527 0.738,-0.246 1.406,-0.281 0.662,-0.035 0.457,-0.375 1.125,-0.375 0.662,0 1.043,0.199 1.875,0 0.826,-0.199 1.312,-0.215 2.344,-0.281 0.205,-0.012 0.369,-0.316 0.562,-0.75 -0.146,0.008 -0.275,-0.039 -0.469,0 -3.129,-0.109 -7.348,-1.141 -8.719,-1.031 -0.199,0.02 -0.305,0.023 -0.375,0.094 -1.693,1.969 -1.969,5.062 -3.656,7.031 -0.346,0.266 -0.568,0.434 -0.844,0.656 1.57,0.805 2.947,1.719 3.469,2.625 1.5,2.625 3,5.625 5.625,6.375 2.625,0.75 1.312,3.938 3.75,3.75 0.281,-0.016 1.008,-0.059 1.406,-0.094 0.551,0.762 0.984,1.512 0.656,1.594 -0.75,0.188 -3.188,0.188 -4.688,2.062 -1.5,1.874 -4.5,2.062 -0.938,2.812 3.562,0.75 6.375,-0.188 6.375,-0.188 l 2.812,1.125 c 0,0 -2.812,4.125 -1.5,4.125 0.809,0 1.699,0.012 2.344,-0.375 1.061,0.336 1.605,0.34 2.625,-0.375 1.324,-0.926 2.408,-1.77 3.469,-3.094 1.266,0.551 2.156,1.207 2.906,1.312 0.404,0.059 0.633,-0.352 0.844,-0.844 0.264,0.09 0.475,0.07 0.75,0.188 v -0.094 c 1.189,0 4.594,0.375 4.594,0.375 l -3.375,6.375 0.188,1.219 -1.406,1.406 c -0.111,0.34 -0.211,0.645 -0.375,1.031 -1.688,3.938 -3.562,3.188 -4.125,5.25 -0.563,2.062 -3.562,-0.375 -5.062,1.5 -1.5,1.875 -0.938,4.125 0.562,4.312 1.5,0.187 4.125,1.875 1.312,2.062 -2.813,0.187 -4.688,0 -4.125,-1.688 0.563,-1.688 -2.438,-2.812 -6,-2.812 -3.562,0 -3,-2.812 -5.438,-2.438 -2.438,0.374 -4.875,-1.125 -7.5,-1.875 -2.625,-0.75 -4.125,-2.812 -5.062,-1.312 -0.937,1.5 -0.281,5.906 -5.156,7.031 -2.438,0.562 -1.816,-0.773 -2.531,-0.375 -0.715,0.398 -2.719,2.531 -3.75,2.906 -2.004,0.727 -4.09,1.277 -4.219,1.312 -0.006,0 -0.094,0 -0.094,0 0,0 0.012,0.164 0.094,0.375 0.082,0.223 0.258,0.453 0.469,0.75 0.182,0.266 0.357,0.551 0.656,0.75 0.018,0.02 0.07,-0.012 0.094,0 0.299,0.188 0.686,0.375 1.125,0.375 0.234,0 0.463,-0.047 0.656,-0.094 0.188,-0.047 0.305,-0.109 0.469,-0.188 0.34,-0.156 0.627,-0.309 0.938,-0.469 0.217,-0.109 0.486,-0.145 0.75,-0.188 0.152,-0.027 0.281,-0.105 0.469,-0.094 0.27,0.02 0.568,0.129 0.938,0.281 -0.27,0.734 -0.592,1.594 -0.844,2.062 -0.48,0.879 -1.312,2.539 -2.531,3.656 -0.176,0.031 -0.27,0.066 -0.469,0.094 -1.605,0.258 -2.373,0.125 -3,0 -0.527,-0.098 -1.049,-0.156 -1.875,0 -0.609,-0.375 -1.359,0.09 -2.25,-0.281 -1.125,-0.469 -1.406,-0.75 -1.875,0.562 -0.041,0.102 -0.123,0.184 -0.188,0.281 -0.105,0.07 -0.164,0.09 -0.281,0.188 -0.773,0.641 -2.004,0.715 -3,1.031 -0.504,0.16 -0.943,0.398 -1.219,0.75 -0.281,0.359 -0.416,0.855 -0.281,1.594 0.51,2.949 1.986,5.121 3.656,6.656 0.205,0.195 0.352,0.406 0.469,0.656 0.018,0.043 0.07,0.055 0.094,0.094 0.064,0.152 0.053,0.301 0.094,0.469 0.018,0.102 0.076,0.184 0.094,0.281 0.012,0.066 -0.012,0.125 0,0.188 0.012,0.117 -0.012,0.258 0,0.375 0.035,0.562 0.041,1.148 0,1.781 -0.006,0.066 0.006,0.125 0,0.188 -0.064,0.832 -0.141,1.723 -0.094,2.531 v 0.094 0.188 c 0.029,0.328 0.094,0.633 0.188,0.938 0.064,0.234 0.041,0.441 0.094,0.656 l 1.406,0.094 c 0.012,0.02 -0.018,0.078 0,0.094 0.076,0.082 0.234,0.113 0.281,0.188 0.158,0.277 0.229,0.469 0.188,0.656 -0.094,0.375 -0.48,0.633 -0.656,1.031 -0.094,0.199 -0.164,0.457 -0.094,0.75 0.135,0.594 0.381,0.996 0.562,1.406 0.088,0.207 0.129,0.43 0.188,0.656 0.053,0.23 0.094,0.457 0.094,0.75 0,0.914 -0.217,1.379 -0.844,2.25 0.064,0.07 0.094,0.117 0.188,0.188 0.223,0.176 0.346,0.305 0.469,0.469 0.059,0.082 0.141,0.199 0.188,0.281 -0.029,0.023 -0.07,-0.016 -0.094,0 -0.633,0.488 -1.096,0.891 -1.406,1.125 -0.545,0.41 -0.357,2.32 -0.188,3.469 -2.549,-0.109 -3.316,-0.293 -3.656,1.031 l -1.312,-0.188 -0.281,-4.125 -0.75,2.719 c 0,0 -0.094,-0.152 -1.5,-0.281 -0.662,-0.059 -1.072,-0.25 -1.406,-0.469 -0.17,0.574 -0.287,1.145 -0.188,1.5 0.029,0.125 0.111,0.219 0.188,0.281 0.316,0.277 0.938,0.758 1.406,1.312 0.346,0.422 0.627,0.863 0.562,1.406 -0.029,0.184 -0.088,0.371 -0.188,0.562 -0.146,0.27 -0.293,0.535 -0.469,0.75 0.205,0.141 0.381,0.352 0.469,0.469 0.088,0.129 0.094,0.188 0.094,0.188 -0.158,0.312 -0.205,0.711 -0.469,0.938 l 0.188,1.312 h 0.094 c 0,0 1.312,1.219 1.781,1.219 0.463,0 1.559,-0.246 2.156,-0.844 0.293,-0.297 0.656,-0.496 0.938,-0.656 l -0.094,-0.094 h 0.281 c 0.123,-0.062 0.281,-0.188 0.281,-0.188 v 0.094 l 3.281,-0.281 1.406,0.469 -1.125,0.469 0.656,1.5 -0.938,0.656 -0.094,0.656 -0.188,1.688 -0.094,1.031 c 0.041,-0.023 0.053,-0.07 0.094,-0.094 0.205,-0.285 2.42,-3.273 3.562,-3.469 1.189,-0.199 1.266,-0.234 2.062,-1.031 0.791,-0.797 0.264,-1.336 1.594,-0.938 1.324,0.398 1.875,0.465 1.875,1.125 0,0.664 0.176,1.426 -0.75,1.688 -0.023,0.008 -0.076,-0.004 -0.094,0 -0.018,0.035 0.018,0.059 0,0.094 -0.357,0.633 -1.383,1.582 -2.719,2.438 l 0.188,0.656 -0.188,1.125 -3.844,0.094 c -0.029,0.012 -0.07,-0.004 -0.094,0 -1.102,0.352 -2.279,0.609 -3.469,0.656 -0.387,0.82 -0.873,1.77 -0.75,1.969 0.193,0.336 2.25,1.875 2.25,1.875 l 0.281,1.312 -3.094,-0.562 v -0.938 c 0,0 -2.109,-1.246 -2.438,-1.781 -0.316,-0.504 -0.404,-0.918 -0.75,-1.594 l -0.094,-0.375 c -0.287,-0.785 -0.352,-2.133 -0.375,-2.531 l -0.375,0.094 c 0.152,1.859 0.105,3.008 0,3.844 l -0.094,0.188 -1.594,-0.656 -0.844,-2.062 c -0.352,0.477 -0.803,1.016 -0.75,1.875 -0.041,0.059 -0.029,0.105 -0.094,0.281 -0.34,0.898 -1.324,0.949 -1.594,0.938 0.287,0.547 -1.072,0.77 -1.969,0.938 -0.07,0.184 -0.117,0.406 -0.188,0.562 -0.844,1.781 -1.828,1.734 -2.906,1.875 -1.078,0.141 -2.25,1.875 -2.25,1.875 l -2.062,-0.188 -2.25,0.281 -0.656,1.312 -0.094,0.094 c 0,0 0.264,0.125 0.375,0.188 l -0.188,2.25 1.781,2.062 c 0,0 0.738,-0.297 2.531,0.562 0.791,0.387 1.646,0.938 2.344,1.406 v 0.188 l -1.969,1.688 -0.094,1.312 2.156,0.094 -0.188,0.188 h 0.656 l -0.281,0.844 c 0,0 1.031,-0.844 1.594,-0.375 0.563,0.469 -1.594,1.969 -1.594,1.969 l 0.656,0.75 c 0,0 1.125,-1.734 1.781,-1.688 0.656,0.046 0.656,0.469 0.656,0.469 0,0 0.094,-1.125 1.031,-0.75 0.937,0.375 2.156,0.938 3.188,0.844 1.032,-0.094 1.219,-0.375 1.125,-0.844 -0.094,-0.469 0.141,-0.375 0.656,-0.562 0.515,-0.187 0.375,-0.891 1.406,-0.938 1.031,-0.047 0.75,0.75 0.75,0.75 l 0.938,-0.094 c 0,0 -0.281,-0.562 0.656,-1.031 0.937,-0.469 1.359,-0.422 1.219,0.281 -0.14,0.703 -0.188,0.75 -0.188,0.75 h -1.125 c 0,0 0,0.75 0.469,1.312 0.469,0.562 -0.375,1.031 0.281,1.219 0.656,0.188 1.406,-0.375 1.406,0.188 0,0.563 0.234,1.359 -0.938,0.844 -1.172,-0.515 -1.312,-0.188 -2.25,0.469 -0.938,0.657 1.078,-0.188 1.312,0.094 0.234,0.282 -0.75,0.844 -0.188,1.219 0.562,0.375 0.469,-0.516 1.125,-0.375 0.656,0.141 0.562,0.469 0.188,0.562 -0.374,0.093 -0.469,0.375 0.094,0.656 0.563,0.281 0.75,-0.938 1.219,-0.656 0.469,0.282 0.703,-0.094 1.312,0 0.609,0.094 0.516,0.422 0,0.562 -0.516,0.14 -1.219,0.516 -0.469,0.844 0.75,0.328 1.078,0.938 0.281,1.219 -0.797,0.281 -1.406,0.609 -1.875,0.75 -0.469,0.141 -0.047,1.125 -0.562,1.312 -0.515,0.187 -0.568,0.984 -0.281,1.312 0.281,0.328 0.609,0.281 1.125,-0.656 0.516,-0.937 0.703,-1.734 2.25,-2.062 1.547,-0.328 1.734,-0.375 1.406,-0.938 -0.328,-0.563 -0.047,-0.609 0.375,-1.031 0.422,-0.422 0,-0.609 0.281,-1.031 0.281,-0.422 0.562,0.422 0.562,-0.469 0,-0.891 0.562,-1.125 -0.375,-1.125 -0.937,0 -0.703,0.141 -0.938,-0.844 -0.235,-0.985 0.422,-1.688 -0.75,-1.688 -1.172,0 -0.562,0.047 -1.406,-0.938 -0.844,-0.985 -0.703,-2.25 0,-2.156 0.703,0.094 1.266,0.516 2.625,0.281 1.359,-0.235 1.594,-0.422 1.969,-1.031 0.375,-0.609 0.797,-0.703 1.219,-0.469 0.422,0.234 0.891,-1.312 2.062,-0.938 1.171,0.374 1.266,0.234 1.594,-0.188 0.328,-0.422 1.312,-0.375 1.781,0 0.469,0.375 -0.609,0.984 0,1.875 0.609,0.891 0.984,1.219 1.688,0.75 0.704,-0.469 0.844,-0.656 0.844,-0.656 l 0.094,1.312 2.438,-1.031 -0.094,0.469 1.594,-0.375 0.281,0.281 1.969,-0.938 v 1.125 l -0.938,0.469 0.469,0.375 0.656,-0.281 0.75,0.375 -1.312,0.562 0.188,1.406 h 1.031 l 0.75,0.562 1.125,-0.094 -0.375,-0.938 0.844,-0.281 0.656,1.406 0.469,0.094 -1.219,0.656 c 0,0 0.141,0.516 0.562,0.656 0.421,0.14 1.219,0.656 1.219,0.656 0,0 -0.141,-0.75 0.375,-1.031 0.516,-0.281 0.469,0.281 1.031,-0.094 0.562,-0.375 1.359,0.562 1.969,0.188 0.61,-0.374 1.219,-0.562 1.594,-0.375 0.375,0.187 1.219,0.375 1.219,0.375 l 0.938,-2.625 -1.031,-2.344 c 0,0 -0.539,-0.785 -0.188,-1.594 -0.404,-1.504 1.096,-2.344 0.75,-3.281 -0.387,-1.023 -1.219,-1.41 -1.219,-3.844 0,-2.43 2.748,-2.953 4.031,-3.469 1.277,-0.508 3.416,1.18 4.312,1.688 0.896,0.516 2.502,-2.016 3.656,-2.531 1.148,-0.508 2.262,-0.637 2.906,0 0.639,0.641 1.646,0.656 3.188,0.656 1.535,0 3.346,1.934 4.5,2.062 1.148,0.129 1.646,-2.613 3.188,-3 1.535,-0.379 2.467,-0.215 3.75,0.938 1.277,1.156 2.807,0.984 4.219,0.469 1.406,-0.508 1.98,0.797 2.625,0.281 0.639,-0.508 1.078,-0.879 3,-0.75 1.916,0.129 3.287,-0.188 4.312,-0.188 1.02,0 4.172,1.285 6.094,2.438 1.916,1.156 -0.064,-1.867 1.219,-0.844 1.277,1.027 1.266,0.711 1.781,-0.188 0.51,-0.895 1.447,-0.234 2.344,1.688 0.897,1.922 1.828,1.312 2.344,2.719 0.51,1.414 0.088,1.418 1.5,1.031 1.406,-0.379 0.721,0.922 1.875,1.688 1.148,0.77 1.676,0.441 2.062,1.594 0.381,1.156 1.957,0.258 2.344,1.406 0.246,-0.117 0.604,-0.164 1.031,-0.188 0.439,-0.012 0.938,-0.023 1.594,0.094 2.355,0.266 2.707,0.867 2.719,1.688 0.006,0.949 -0.439,2.176 1.219,3.375 0.281,0.23 0.568,0.383 0.844,0.562 0.305,1.57 0.656,2.773 1.5,2.531 1.266,-0.363 3.463,1.121 6,0.938 1.295,-0.094 2.566,0.012 3.844,-0.188 0.639,0.84 0.551,1.91 1.031,2.625 0.562,0.281 0.844,-0.562 1.125,-0.562 0.217,-0.07 0.434,-0.109 0.656,-0.188 0.223,0.117 0.422,0.199 0.75,0.281 0.322,0.082 0.562,0.148 0.844,0.188 0.264,0.828 -0.129,1.848 0.562,2.531 0,0 1.254,-0.551 2.25,-1.031 0.855,0.551 1.412,0.715 1.781,-0.75 0.006,-0.023 -0.006,-0.062 0,-0.094 1.482,-0.578 2.959,-1.012 3.562,-0.656 0.592,0.289 1.02,0.586 1.406,0.844 0.193,0.137 0.416,0.254 0.562,0.375 -0.211,0.164 -0.439,0.348 -0.656,0.562 -0.023,0.793 0.146,1.461 0.375,2.062 0.018,0.047 -0.018,0.141 0,0.188 -1.605,1.379 -4.529,2.707 -4.219,4.688 l 1.219,0.75 5.25,3.188 c 0.205,0.281 0.504,0.898 0.844,1.688 0.012,0.035 -0.018,0.059 0,0.094 0.328,0.781 0.715,1.688 1.219,2.531 0.012,0.031 -0.018,0.07 0,0.094 1.049,1.758 2.572,3.188 4.688,2.344 0.117,-0.059 0.188,-0.191 0.281,-0.281 h 0.094 c 0.105,-0.117 0.205,-0.223 0.281,-0.375 0.041,-0.082 0.053,-0.188 0.094,-0.281 0.064,-0.188 0.135,-0.449 0.188,-0.656 0.023,-0.098 0.064,-0.18 0.094,-0.281 0.053,-0.223 0.117,-0.445 0.188,-0.656 0.023,-0.062 0.064,-0.121 0.094,-0.188 0.1,-0.262 0.188,-0.469 0.375,-0.656 1.23,-0.984 3.562,-0.648 4.688,-1.688 0.158,-0.145 0.27,-0.352 0.375,-0.562 0.035,-0.074 -0.105,-0.293 -0.281,-0.562 -0.129,-0.191 -0.281,-0.492 -0.469,-0.75 -0.082,-0.098 -0.193,-0.262 -0.281,-0.375 -0.463,-0.598 -1.072,-1.281 -1.594,-1.969 -0.275,-0.34 -0.422,-0.609 -0.656,-0.938 -0.914,-1.246 -1.611,-2.324 -0.938,-2.438 4.219,-0.562 8.994,3.656 11.531,4.5 1.125,0.281 2.525,-0.281 3.656,-0.281 1.125,0 2.525,0.562 3.656,0 0.562,-0.281 0.281,-1.406 0.562,-1.969 0.281,-0.281 0.844,-0.281 0.844,0 3.375,6.758 1.125,2.531 -2.531,5.906 -1.131,0.844 2.807,1.125 3.938,1.969 0.844,0.844 0.557,2.25 1.406,3.094 0.562,0.562 1.4,0.844 1.969,0.844 0.164,-0.016 0.223,-0.074 0.375,-0.094 l 0.281,1.031 4.875,0.75 2.062,3.094 2.531,-6.188 3.469,1.969 5.438,-0.75 v -2.344 l 1.5,1.781 8.344,-3.75 0.75,-2.25 1.031,0.188 v -6 l -4.688,-3.656 -0.188,-1.781 -2.719,-0.75 -0.188,-2.719 2.906,-2.531 0.188,-3.844 -6.375,-5.156 -4.219,-0.844 c 0,0 -1.4,-0.707 -1.594,-2.062 -0.176,-1.23 0.744,-2.324 -0.094,-3.094 v -0.188 c -0.404,-0.227 -0.943,-0.367 -1.5,-0.469 -1.219,-0.258 -2.408,-0.191 -2.719,-0.188 l -3.656,-4.406 -4.312,-0.938 -1.312,-7.969 0.375,-2.25 -2.156,-1.781 1.406,-3.281 -2.344,-4.219 -2.531,-0.188 -0.562,-1.594 -1.312,-0.188 1.688,-2.531 -3.281,-5.344 -7.125,-5.25 11.25,-14.906 1.125,1.594 c 0,0 1.934,-3.461 3.094,-3.656 1.154,-0.191 2.156,0.188 2.156,0.188 l 0.562,-7.219 1.688,-1.5 c 0,0 -0.516,-2.66 1.031,-4.594 1.541,-1.934 1.688,-5.812 1.688,-5.812 l 0.938,-1.031 h 3.562 v -1.875 c 0,0 1.453,-0.238 3,-1.594 1.541,-1.352 2.531,-3.656 2.531,-3.656 l 2.906,0.75 3.281,1.594 -0.375,-2.906 3.469,2.531 3.281,0.188 1.031,-2.906 3.656,-2.156 c 0,0 0.697,2.141 2.438,2.719 1.734,0.582 4.312,-0.188 4.312,-0.188 l 3,-2.156 c 0.51,-0.133 0.721,-0.648 1.125,-1.688 0.105,-0.273 0.322,-1.512 0.562,-2.531 l 0.281,-0.844 c 0.041,-0.199 0.047,-0.27 0.094,-0.469 l 2.344,-0.562 2.344,1.312 3.281,0.281 4.406,-5.344 3.188,-1.969 3.188,-1.219 9.094,-1.312 1.781,-1.969 0.938,0.281 10.031,-9.938 2.25,-1.219 1.219,-1.312 c 0,0 0.164,-2.953 0.562,-3.75 0.402,-0.799 -0.67,-1.177 -2.522,-3.564 z m -243.75,84.844 c -0.117,0.207 -0.258,0.348 -0.375,0.469 -0.123,0.129 -0.234,0.234 -0.375,0.281 -0.293,0.094 -0.627,0.043 -1.125,-0.188 -1.002,-0.449 -1.031,-0.438 -0.938,0.375 0.064,0.609 -0.164,0.984 -0.562,0.938 -0.135,-0.012 -0.311,-0.074 -0.469,-0.188 -0.322,-0.227 -0.469,-0.801 -0.562,-1.5 -0.1,-0.695 -0.141,-1.523 -0.094,-2.156 0.1,-0.32 0.211,-0.578 0.375,-0.75 0.158,-0.164 0.381,-0.238 0.562,-0.281 0.598,-0.141 1.289,0.387 1.969,1.406 1.084,1.629 2.045,0.781 1.594,1.594 z m -2.813,38.156 h -0.562 c 0.123,0.41 0.328,0.984 0,1.031 -0.469,0.066 -0.41,0.91 -0.938,0.844 -0.322,-0.039 -0.92,-0.414 -1.406,-0.75 l -0.094,0.188 c 0,0 -0.861,-0.543 -1.125,-0.281 -0.27,0.266 -0.188,0.844 -0.188,0.844 l -0.938,0.188 -0.281,-0.844 0.281,-0.094 -0.75,-0.281 -0.938,-0.094 0.938,0.938 -0.094,0.656 1.031,0.469 -0.75,0.375 -1.5,-0.469 0.938,1.406 -0.281,0.562 0.656,0.094 v 0.469 l -4.312,-0.656 c 0,0 -0.182,-0.855 -0.844,-0.656 -0.668,0.199 0.229,0.82 -0.562,1.219 -0.656,0.328 -0.938,-0.492 -1.312,-1.125 l -0.094,0.094 -0.562,0.188 c 0,0 0.023,0.844 -0.375,0.844 -0.398,0 -0.75,-0.391 -0.75,-1.125 0,-0.062 -0.006,-0.199 0,-0.281 -0.146,0.129 -0.305,0.16 -0.469,0.094 -0.334,-0.129 0,-1.219 0,-1.219 l -0.938,-0.656 0.375,-0.281 -0.281,-0.469 c 0,0 -1.33,0.992 -1.594,0.656 -0.27,-0.328 -0.656,-1.406 -0.656,-1.406 0.791,-0.727 1.57,-0.496 1.969,-1.031 0.393,-0.527 0.604,-0.023 0.938,0.375 0.328,0.398 0.738,-0.648 0.938,-0.188 0.193,0.465 -0.018,0.223 1.312,0.75 0.287,0.117 0.428,0.184 0.562,0.188 0.152,-0.438 0.311,-0.844 0.094,-0.938 -0.469,-0.199 -0.521,-0.766 -0.188,-1.031 0.082,-0.062 0.158,-0.109 0.281,-0.094 0.223,0.035 0.539,0.195 1.031,0.281 0,-0.129 0.082,-0.285 0.469,-0.562 0.926,-0.66 1.166,-0.836 1.5,-0.375 0.328,0.465 1.705,0.691 2.438,0.094 0.363,-0.297 0.592,-0.555 0.75,-0.656 0.152,-0.098 0.293,-0.051 0.562,0.375 0.041,0.07 0.053,0.125 0.094,0.188 0.129,-0.059 0.287,-0.133 0.375,-0.188 0.363,-0.227 0.697,-0.461 1.031,-0.562 0.164,-0.047 0.322,-0.059 0.48,-0.012 0.152,0.047 0.305,0.148 0.457,0.293 0.592,0.598 1.559,0.793 2.156,0.656 0.592,-0.129 0.492,0.129 0.562,-0.469 0.064,-0.598 0.709,0.184 0.844,0.844 0.131,0.66 0.248,1.59 -0.28,1.59 z m 5.625,-1.313 v 0.656 l -0.375,0.188 v 0.281 c 0,0 -0.867,0.035 -1.594,0.562 -0.732,0.535 -1.248,-0.027 -1.312,-0.562 -0.07,-0.527 0.469,-0.938 0.469,-0.938 v -1.125 l -0.844,-0.656 0.75,-1.594 0.844,1.031 -0.281,0.375 0.844,0.375 0.938,-1.125 h 0.75 l 0.844,1.406 z m 24.469,-21.656 c -0.727,1.273 -2.508,1.453 -1.781,2.719 0.721,1.273 0.141,1.523 -1.125,2.156 -1.271,0.633 -2.379,1.566 -3.281,3.375 -0.908,1.812 -0.891,1.742 -2.062,0.562 -1.178,-1.176 -1.682,-0.902 -1.5,0.094 0.176,0.996 -0.75,2.059 -3.375,1.875 -2.631,-0.18 -4.594,-0.238 -4.594,-1.781 0,-1.539 -0.164,-1.023 -2.156,-0.938 -1.998,0.094 -2.373,0.043 -3.188,1.219 -0.82,1.18 -0.609,0.715 -1.781,-0.281 -1.178,-0.996 -0.803,-0.398 0.375,-1.125 1.172,-0.727 0.434,-1.535 -0.469,-2.531 -0.908,-0.996 -1.383,-1.43 -0.562,-2.062 1.084,-0.543 1.43,1.754 2.25,0.844 0.814,-0.902 1.811,-0.086 2.719,0 0.902,0.094 -0.311,-1.676 1.594,-1.406 1.898,0.277 0.791,1.871 1.969,1.688 1.172,-0.18 -0.146,-1.418 1.031,-1.781 1.172,-0.363 0.521,2.438 2.062,2.344 1.535,-0.086 3.756,0.059 4.031,-1.031 0.27,-1.082 0.492,-1.68 -1.406,-1.5 -1.904,0.184 -2.561,0.23 -3.375,-1.219 -0.82,-1.445 -0.234,-1.164 1.125,-2.344 1.354,-1.176 1.846,-1.055 1.125,-1.781 -0.727,-0.727 -0.439,-1.609 0.469,-2.062 0.902,-0.449 1.547,0.246 3,-0.844 0.357,-0.27 0.65,-0.492 0.938,-0.562 0.211,-0.051 0.41,-0.051 0.604,-0.016 0.562,0.117 1.043,0.59 1.553,1.047 0.902,0.816 2.285,1.672 3.281,1.125 0.996,-0.543 0.85,-0.156 1.125,0.656 0.27,0.816 0.316,0.855 1.406,1.125 1.082,0.275 0.719,1.169 -0.002,2.435 z M 815.137,625.934 c -2.742,1.719 -5.467,1.137 -6.562,0.094 -1.16,-1.094 -1.793,-0.684 -2.812,0 -1.617,1.086 -1.811,0.582 -3.094,-0.094 1.828,-3.191 2.051,-2.676 3.375,-4.781 0.92,-1.699 1.729,-1.934 2.25,-3.281 0.533,-1.383 0.809,-3.039 2.156,-4.875 0,0 0.398,-0.516 0.469,-0.938 0.071,-0.422 0.117,-0.797 0.656,-1.125 0.539,-0.328 0.492,-0.469 0.375,-1.027 -0.117,-0.562 0,-0.703 0.375,-1.594 0.375,-0.891 0.469,-1.195 0.188,-1.5 -0.281,-0.305 -0.586,-0.703 -0.188,-1.406 0.398,-0.703 0.281,0.164 0.188,-1.125 -0.07,-0.967 0.146,-1.576 0.094,-2.344 0.328,1.582 0.586,3.217 0.938,4.406 0.281,1.688 -0.844,3.375 -0.562,5.059 0.281,0.562 0.557,-1.402 1.125,-1.402 1.125,-0.281 1.125,1.965 1.406,2.809 v 1.125 c 0.281,0.844 -0.469,0.562 -0.75,1.125 -0.281,0.563 1.312,4.594 1.312,5.156 0.373,3.093 3.327,3.628 -0.939,5.718 z"
         id="path505" />
      <path
         fill="#3a77ce"
         stroke="#000000"
         stroke-width="0.5"
         d="m 618.449,804.715 -0.094,-0.75 h -0.562 l -0.375,-0.469 0.094,-1.031 -0.75,-0.938 -2.062,0.469 -0.281,-0.562 -0.844,0.844 -0.094,0.469 0.188,-0.094 0.094,1.406 0.094,0.656 0.75,1.406 -0.094,0.375 0.75,-0.656 c 0,0 0.223,0.41 0.562,0.75 l 0.469,-0.469 0.094,0.844 c 0.117,0.055 0.252,0.105 0.375,0.094 0.727,-0.062 1.289,0.117 1.688,-0.281 0.393,-0.398 0.34,-0.656 -0.188,-0.656 -0.533,0 -0.305,-0.562 0.094,-0.562 0.393,0 0.615,-0.039 0.75,-0.375 0.006,-0.023 -0.018,-0.223 0,-0.281 z"
         id="path507" />
      <path
         fill="#3a77ce"
         stroke="#000000"
         stroke-width="0.5"
         d="m 729.074,798.152 -0.375,0.844 c 0.123,-0.141 0.246,-0.25 0.375,-0.375 0,-0.156 -0.023,-0.293 0,-0.469 z"
         id="path509" />
      <path
         fill="#3a77ce"
         stroke="#000000"
         stroke-width="0.5"
         d="m 598.293,804.996 v -0.469 l -0.375,-0.188 c -0.193,0 -0.41,0.047 -0.469,0 -0.188,-0.141 -0.656,-0.234 -0.844,0 -0.188,0.234 -0.562,0.375 -0.562,0.375 0,0 -0.141,-0.609 -0.75,-0.75 -0.609,-0.141 -1.219,-0.047 -1.125,0.281 0.094,0.328 0.188,0.469 0.188,0.469 0,0 -0.609,-0.047 -1.031,-0.562 -0.422,-0.515 -0.75,-0.938 -0.75,-0.938 l -4.594,2.156 0.188,1.406 1.219,0.75 c 1.002,-0.473 1.734,-0.742 2.719,-1.312 l 0.094,0.375 h 0.75 l 0.469,0.281 -0.375,1.031 0.938,0.469 c -0.275,0.23 -0.475,0.398 -0.562,0.562 l -0.094,0.094 c -0.006,0.023 0,0.07 0,0.094 v 0.844 l 0.656,0.75 h 2.625 l 0.469,-0.375 0.281,-0.188 -0.281,-0.938 c 0,0 1.312,-0.473 1.312,-1.5 0,-1.023 -0.088,-1.117 0.188,-1.594 0.199,-0.355 0.387,-0.539 0.469,-0.656 l -0.094,-0.562 z"
         id="path511" />
    </g>
  </g>
</svg>
