<?xml version="1.0" encoding="UTF-8" standalone="no"?>
<!-- Created with Inkscape (http://www.inkscape.org/) -->

<svg
   width="210mm"
   height="297mm"
   viewBox="0 0 210 297"
   version="1.1"
   id="svg2855"
   inkscape:version="1.1.1 (3bf5ae0d25, 2021-09-20)"
   sodipodi:docname="romania.svg"
   xmlns:inkscape="http://www.inkscape.org/namespaces/inkscape"
   xmlns:sodipodi="http://sodipodi.sourceforge.net/DTD/sodipodi-0.dtd"
   xmlns="http://www.w3.org/2000/svg"
   xmlns:svg="http://www.w3.org/2000/svg">
  <sodipodi:namedview
     id="namedview2857"
     pagecolor="#ffffff"
     bordercolor="#666666"
     borderopacity="1.0"
     inkscape:pageshadow="2"
     inkscape:pageopacity="0.0"
     inkscape:pagecheckerboard="0"
     inkscape:document-units="mm"
     showgrid="false"
     inkscape:zoom="0.7500982"
     inkscape:cx="397.28131"
     inkscape:cy="561.92642"
     inkscape:window-width="1920"
     inkscape:window-height="1027"
     inkscape:window-x="1912"
     inkscape:window-y="-8"
     inkscape:window-maximized="1"
     inkscape:current-layer="layer1" />
  <defs
     id="defs2852" />
  <g
     inkscape:label="Ebene 1"
     inkscape:groupmode="layer"
     id="layer1">
    <path
       fill="#aa9980"
       stroke="#000000"
       stroke-width="0.132292"
       d="m 190.6985,107.86359 -2.64795,1.11495 c -1.96956,1.25148 -4.39023,3.76291 -6.48071,4.25053 -1.38668,0.32359 -2.06692,-0.18494 -2.71753,-1.39382 -0.4191,-0.77814 -1.84468,-3.73777 -3.00779,-4.36007 0.0881,-0.24553 0.23707,-0.508 0.26379,-0.70961 0.0466,-0.35772 0.36275,-0.93425 -0.0497,-1.33932 -0.41381,-0.40296 -0.3675,-0.70697 -0.372,-1.11628 -0.006,-0.4072 -0.26988,-0.46196 -0.27279,-0.76888 -0.003,-0.30692 -0.4109,-0.9054 -0.62018,-1.41393 -0.21087,-0.50853 -1.59676,-1.11416 -2.05872,-1.31472 -0.46355,-0.19844 -0.78291,-1.4179 -1.19063,-1.413932 -0.40931,0.0053 -0.80618,-0.487891 -1.11628,-0.843491 -0.31167,-0.353484 -0.44026,-0.565415 -1.31471,-1.066536 -0.87604,-0.500327 -1.5875,-1.938866 -2.10846,-2.802996 -0.52097,-0.862012 -2.33786,-2.121958 -2.803,-2.678906 -0.23416,-0.277018 -0.58764,-0.378354 -0.91784,-0.396875 -0.33179,-0.0164 -0.64029,0.04657 -0.81862,0.07435 -0.24183,0.03731 -0.44662,0.263525 -0.69453,0.496094 0.003,0.0053 -0.005,0.02064 0,0.02487 0.006,-0.0032 0.0169,0.0053 0.0249,0 0.40005,0.566473 0.17065,0.756444 -0.7194,0.917839 -1.05569,0.192352 -0.2884,0.870215 0,2.306902 0.2868,1.438805 0.1008,1.057275 0.86809,2.207684 0.76597,1.150408 1.53776,1.441714 0.8681,1.537758 -0.558,0.0807 -0.84031,0.203729 -1.83568,-0.02487 -0.0466,0.07964 -0.09,0.13335 -0.14869,0.223309 -0.0466,0.06826 -0.0992,0.129116 -0.1487,0.198437 -0.0728,0.101335 -0.15187,0.201613 -0.22331,0.297656 -0.24341,0.319347 -0.44661,0.595307 -0.44661,0.595307 l -1.38907,0.0498 -0.44661,1.14088 -0.62019,0.0497 -1.24036,-0.66966 c 0,0 -0.46038,0.62839 -0.8681,1.24037 -0.40931,0.61383 -0.60457,1.00356 -0.29766,1.51315 0.30533,0.5117 2.803,0.81862 2.803,0.81862 l 0.8681,0.8681 0.81862,0.22331 0.52096,0.81862 1.11628,0.744 v 0.71941 l -0.29766,0.52096 -0.0992,0.8681 1.98438,0.57044 0.1487,1.01706 0.47122,0.7194 1.31471,0.8681 0.57044,3.67109 0.0498,0.34714 -0.52097,0.24818 c 0.0201,0.0434 0.0558,0.0714 0.0743,0.12409 0.15187,0.4609 -0.0108,0.36486 -0.52097,0.62018 -0.5117,0.25638 -0.61859,0.18812 -0.7194,0.59531 -0.10239,0.40931 -0.50853,0.52705 -0.96731,0.32253 -0.0217,-0.009 -0.031,0.008 -0.0498,0 -0.10239,0.064 -0.20161,0.1262 -0.29765,0.14869 -0.009,0.11483 0,0.2376 0,0.39688 0,0.40931 -0.41857,0.5797 -0.57044,0.27278 -0.15346,-0.30691 -0.86519,0.0857 -1.01706,-0.27278 -0.15346,-0.35772 -0.11007,-0.51276 -0.62019,0.0992 -0.5117,0.61383 -0.86651,0.92921 -0.91783,1.4388 -0.0511,0.51171 -0.11616,0.67495 -0.42175,0.52097 -0.30692,-0.15293 -0.54425,-0.2667 -0.64505,-0.47123 -0.1024,-0.20452 -0.83556,-0.96229 -1.14089,-1.11627 -0.30691,-0.15293 -1.87113,0.24712 -2.38125,0.29765 -0.5117,0.0516 -1.09617,0.45879 -1.81081,0.8681 -0.47757,0.27279 -0.85725,0.0857 -1.0914,0.0249 -0.0635,0.031 -0.15505,0.0672 -0.22331,0.0992 -0.0714,0.34925 -0.66807,0.64796 -0.8681,0.39688 -0.93636,0.40507 -1.91929,0.8083 -2.15794,0.96731 -0.33787,0.22543 -0.78899,-0.186 -1.16575,-0.42174 0.0651,0.18917 0.19843,0.52096 0.19843,0.99218 0,0.97261 -0.26035,0.1913 -0.7194,1.31472 -0.46037,1.12448 -0.80777,0.31326 -1.21549,-0.19844 -0.40932,-0.50959 -0.91626,0.92393 -2.70378,1.5875 -1.78911,0.66569 -1.59517,0.95488 -1.33932,1.36419 0.25426,0.40931 0.16272,0.47334 -0.34714,1.28985 -0.5117,0.81862 -0.5752,0.9271 -0.42174,1.48828 0.15187,0.5633 0.1053,0.75353 0.7194,1.31471 0.61225,0.5633 0.87127,0.6686 1.5875,0.7194 0.71464,0.0516 0.45879,1.07792 0,0.71941 -0.46037,-0.35772 -0.82312,-0.21088 -0.66966,0.19843 0.15187,0.40931 0.0434,0.51673 -0.62018,0.66966 -0.66517,0.15399 0.25744,0.70591 0.76888,1.2155 0.51011,0.5117 1.0914,0.30903 1.0914,0.76888 0,0.4609 1.06204,0.94165 2.03412,0.99219 0.97049,0.0516 0.77046,0.55694 -0.1487,1.01705 -0.92075,0.46091 -0.15822,1.12554 0.1487,1.68672 0.30533,0.5633 1.67904,-0.11271 1.93463,-0.47122 0.25427,-0.35772 1.651,-0.65537 2.00925,-0.29766 0.35666,0.35851 0.95197,0.2077 1.46341,-0.0992 0.51011,-0.30692 0.73475,-0.2667 1.86028,0.39687 1.12395,0.66569 2.58287,-0.0558 3.29909,-0.66966 0.71464,-0.61172 0.72232,-0.71014 1.43881,-0.1487 0.71464,0.5633 1.37662,0.0651 0.91784,-0.44661 -0.46038,-0.50959 0.42333,-1.74863 1.19062,-0.47123 0.76597,1.27741 1.84177,0.3101 2.4556,0.71941 0.61225,0.40931 1.37821,-0.30083 1.7362,-0.19844 0.35665,0.10239 0.39078,-0.35348 1.41393,-0.96732 1.02155,-0.61171 0.61092,-1.14194 0.0497,-1.91002 -0.56277,-0.76597 0.008,-0.76068 0.57044,-1.01706 0.56118,-0.25533 0.92869,-0.0434 1.38906,-0.24818 0.45879,-0.20452 1.32239,-0.82577 2.75326,-1.38906 1.43087,-0.56119 2.65721,-1.59068 3.37344,-1.48829 0.71464,0.1024 1.46976,-0.39687 2.08359,-0.39687 0.61225,0 0.82629,-0.91784 1.38906,-0.91784 0.56118,0 0.75803,-0.87127 1.11628,-0.76888 0.35666,0.10239 0.8681,-0.36063 0.8681,-0.7194 0,-0.35772 0.014,-0.60881 0.372,-0.96732 0.35666,-0.35771 0.13494,-0.81333 -0.27278,-0.96731 -0.40931,-0.15293 -0.49927,-0.4072 -0.39688,-0.8681 0.10081,-0.45985 -0.16272,-0.62019 -0.57044,-0.62019 -0.40931,0 -0.71782,0.064 -0.76888,-0.39687 -0.0278,-0.24289 -0.10848,-0.51171 -0.42175,-0.66966 0.0759,-0.60563 0.27596,-1.19989 0.24818,-1.81081 0.22622,-0.85566 0.0357,-1.76847 0.44662,-2.57969 0.17066,-0.52811 0.4109,-1.07077 0.39688,-1.63724 -0.005,-0.11774 -0.0249,-0.23574 -0.0511,-0.35031 0.18442,-0.0402 0.3085,-0.14975 0.37359,-0.36909 0.15187,0.0579 0.34264,0.12091 0.52097,0.19844 0.25426,-0.23046 0.11932,-0.38762 -0.0744,-0.64506 -0.0291,-0.009 -0.0595,-0.0172 -0.09,-0.0251 0.42175,0.0976 0.66172,0.44053 1.08056,0.62044 0.46355,0.20056 0.87603,0.47943 1.48828,0.47123 0.61383,-0.006 1.48828,-0.0992 1.48828,-0.0992 l -0.14869,-0.44662 0.59531,-0.42174 0.66966,0.14869 c 0,0 0.20161,-0.3638 0.19844,-0.62018 -0.003,-0.25532 -0.1659,-0.50218 0.54557,-0.8681 0.71146,-0.36592 1.33799,-0.43101 1.5875,-0.84349 0.1598,-0.26035 0.9472,-0.6604 1.61237,-0.99219 -0.11007,-0.67998 -0.0976,-1.4851 -0.1487,-1.98437 0,-0.0743 -0.0294,-0.18706 -0.0743,-0.29766 0.0823,-0.10636 0.17357,-0.21405 0.24818,-0.32253 0.37042,0.48684 0.26194,1.39436 0.79375,1.2155 2.23388,-0.89297 0.12409,-0.12197 0.12409,-1.09141 0,-0.14869 0.59531,-0.19843 0.74401,-0.27278 0.22331,-0.0744 -0.372,-0.66966 -0.1487,-0.81862 0.3101,-0.28311 0.78291,-0.10848 0.99219,-0.32253 0.20929,-0.21193 0.0373,-0.59531 0.22331,-0.66966 0.0452,-0.0114 0.0881,-0.003 0.12885,0.0148 -0.0262,-0.0958 -0.0508,-0.16061 -0.0725,-0.18177 z m -14.89128,-0.26855 c 0.0101,-0.0373 0.0214,-0.0746 0.0349,-0.11298 -0.0138,0.0384 -0.0249,0.0759 -0.0349,0.11298 z m -0.008,0.0312 c -0.009,0.0365 -0.0143,0.0717 -0.0172,0.10609 0.003,-0.0341 0.009,-0.0696 0.0172,-0.10609 z m -0.0191,0.13864 c -0.003,0.0336 0,0.0664 0.006,0.0974 -0.006,-0.031 -0.007,-0.0638 -0.006,-0.0974 z m 0.0476,0.20161 c -0.0151,-0.0246 -0.0259,-0.0505 -0.0336,-0.0778 0.008,0.0275 0.0185,0.0534 0.0336,0.0778 z"
       id="path362" />
  </g>
</svg>
