<?xml version="1.0" encoding="UTF-8" standalone="no"?>
<!-- Created with Inkscape (http://www.inkscape.org/) -->

<svg
   width="210mm"
   height="297mm"
   viewBox="0 0 210 297"
   version="1.1"
   id="svg2433"
   inkscape:version="1.1.1 (3bf5ae0d25, 2021-09-20)"
   xmlns:inkscape="http://www.inkscape.org/namespaces/inkscape"
   xmlns:sodipodi="http://sodipodi.sourceforge.net/DTD/sodipodi-0.dtd"
   xmlns="http://www.w3.org/2000/svg"
   xmlns:svg="http://www.w3.org/2000/svg">
  <sodipodi:namedview
     id="namedview2435"
     pagecolor="#ffffff"
     bordercolor="#666666"
     borderopacity="1.0"
     inkscape:pageshadow="2"
     inkscape:pageopacity="0.0"
     inkscape:pagecheckerboard="0"
     inkscape:document-units="mm"
     showgrid="false"
     inkscape:zoom="0.7500982"
     inkscape:cx="397.28131"
     inkscape:cy="561.92642"
     inkscape:window-width="1920"
     inkscape:window-height="1027"
     inkscape:window-x="1912"
     inkscape:window-y="-8"
     inkscape:window-maximized="1"
     inkscape:current-layer="layer1" />
  <defs
     id="defs2430" />
  <g
     inkscape:label="Ebene 1"
     inkscape:groupmode="layer"
     id="layer1">
    <path
       fill="#00cba4"
       stroke="#000000"
       stroke-width="0.132292"
       d="m -7.8387416,150.90459 c -0.1627188,0.0667 -0.1923521,0.29157 0.049742,0.57044 0.3720042,0.42175 0.8680979,0.64506 0.6696604,-0.0249 -0.1984375,-0.66992 -0.1984375,-0.49609 -0.5209645,-0.54557 -0.080433,-0.0124 -0.1439334,-0.022 -0.1984375,0 z M 3.6706332,99.236229 c -0.1627187,-0.01693 -0.3566583,0.0093 -0.79375,0.272785 -0.1410229,0.981336 0.4185709,0.682096 0.5953125,0.892966 0.1751542,0.21088 0.4804834,0.12859 0.4466167,-0.39687 -0.035719,-0.527052 0.048154,-0.387617 0.6450541,-0.421748 0.5953125,-0.03572 0.1177396,-0.427831 -0.3720041,-0.322527 -0.2465917,0.05292 -0.3598333,-0.0074 -0.5212292,-0.02461 z M -6.99525,119.47685 c -0.066675,-0.0169 -0.1285875,0.0511 -0.1984375,0.17357 -0.1410229,0.245 -0.3675062,0.48525 -0.4712229,0.0992 -0.1053041,-0.38603 -0.3116791,-0.21405 -0.5209646,-0.24818 -0.210873,-0.0357 -0.041804,0.24501 0.099219,0.59531 0.1394354,0.35031 0.3362854,0.28681 0.79375,0.32253 0.4558771,-0.35031 0.5752041,-0.045 0.4712229,-0.57044 -0.052652,-0.26353 -0.1084792,-0.35481 -0.1735667,-0.37201 z m 6.94531236,26.26837 c -0.071438,0.002 -0.061913,0.0836 0,0.19843 0.1225021,0.22781 -0.1457854,0.3736 -0.074348,0.4961 0.06985,0.1225 0.2481792,0.23098 0.3720042,0.24818 0.4728104,0.15822 0.82311874,0.2278 0.71940206,0 -0.10530417,-0.22781 -0.45746456,-0.27438 -0.42174586,-0.39688 0.034131,-0.1225 0.34872086,-0.008 -0.1240896,-0.32253 -0.2370666,-0.15822 -0.4013729,-0.22648 -0.4712228,-0.2233 z m 1.91002714,1.04166 c -0.2465917,-0.0169 -0.5487459,0.26035 -0.3720042,0.47122 0.1751542,0.21088 0.3690937,-0.20452 0.5455708,-0.0992 0.1751542,0.10531 0.2092854,0.10848 0.5953125,-0.0497 0.3844396,-0.15795 0.1595438,-0.39211 -0.7688791,-0.32226 z m -11.1871125,1.16575 c -0.09922,0.0341 -0.204523,0.16431 -0.297656,0.39688 -0.248179,0.62018 0.198437,0.19844 0.570442,0.52096 0.372004,0.32253 -0.09922,0.71941 -0.372005,1.04193 -0.272785,0.32253 -0.248179,-0.24818 0.04974,-0.57044 0.297921,-0.32226 -0.347133,-0.372 -0.372004,-0.22331 -0.02487,0.1487 -0.297656,0.29766 -0.694531,0.39688 -0.396875,0.0992 -0.347134,0.76888 -0.12409,1.33932 0.223044,0.57044 0.297656,-0.372 0.520965,-0.32253 0.223308,0.0495 0.198437,-0.0249 0.54557,0.44662 0.347134,0.47149 0.694532,0.29766 0.992188,0.19844 0.2976562,-0.0992 0.4960937,-0.37201 0.4466166,-0.69453 -0.049477,-0.32253 -0.4217456,-0.37201 -0.7440086,-0.57045 -0.04022,-0.0249 -0.06668,-0.0402 -0.07435,-0.0497 0.09313,-0.005 0.545571,0.0992 0.322527,-0.19843 -0.297656,-0.39688 0.173567,-0.52097 0.173567,-0.24818 0,0.27278 0.2727855,0.17356 0.3968751,0.57044 0.1240896,0.39687 0.2481792,0.19844 0.6201833,-0.22331 0.3720042,-0.42175 0.074348,-0.79375 -0.3720041,-1.06653 -0.4463481,-0.27279 -0.5209603,-0.22332 -1.1408793,-0.37201 -0.124619,-0.24792 -0.282575,-0.43074 -0.447146,-0.37201 z m 15.2053395,1.41394 c 0.3574521,-0.0526 0.5815542,-0.10213 0.7180792,-0.0992 0.1362604,0.002 0.1656292,0.0717 0.1733021,0.27278 0.018521,0.40296 0.097631,0.44027 -0.1486959,0.24818 -0.182827,-0.14578 -0.2807229,-0.21696 -0.322527,-0.14869 -0.012435,0.0217 -0.023283,0.0418 -0.023283,0.0992 0,0.0574 0.00159,0.11615 0,0.17356 -0.00317,0.0558 -0.00926,0.11483 -0.024871,0.1487 -0.034131,0.0683 -0.1068917,0.0836 -0.2727854,-0.0744 z M 69.849539,28.616821 c -1.536436,-2.792148 -1.644915,-5.269441 1.661848,-5.382683 0.220133,-0.0077 0.468312,0.01085 0.719402,0.02487 1.33932,0.07435 2.082006,-0.149225 3.125258,0.744008 0.223308,0.223308 0.520964,1.190625 0.446617,1.562629 -0.223309,0.446882 -0.297657,-1.339321 -0.744009,-1.339321 -0.522552,0.07435 0.07435,3.125259 0.07435,3.199871 0,0.967846 -0.818621,2.455069 -1.562629,3.125259 -0.148696,0.07435 -0.297656,-0.223309 -0.446617,-0.148696 -1.712912,0.670189 -2.306637,-0.296598 -3.274218,-1.785938 z M 5.8288394,158.44522 c 0.074348,0 0.1643063,-0.0249 0.2481792,-0.0249 0.083873,0 0.1611313,0.0249 0.1984375,0.0992 0.1486958,0.14869 -0.075935,0.52096 0.1486958,0.66966 0.2976563,0.14869 0.8170334,-0.22331 1.1162771,-0.0744 2.529946,1.48828 0.1486958,1.19062 0,1.48828 -0.5969,1.41393 1.4882812,0.22172 -1.2649729,1.78594 -0.8202083,0.44661 -0.8929687,-1.33933 -0.8929687,-1.33933 -0.2992438,-0.81862 -1.6372417,-0.52096 -2.1579417,-0.66966 -0.5225521,-0.0743 1.1146896,-0.29765 1.6372417,-0.44661 0.6693958,-0.14896 0.8165041,-1.04193 0.967052,-1.48828 z M 3.9436832,145.52191 c -0.029369,0.0558 -0.044979,0.11324 -0.074348,0.17356 0.018521,-0.0775 0.030956,-0.16589 0.049742,-0.19843 0.00317,0.005 0.020108,-0.009 0.024871,0 0.00265,0.008 -0.00503,0.0169 -2.646e-4,0.0249 z M 221.15813,87.801466 V 15.644036 H 94.90214 c -0.169068,0.09551 -0.420158,0.177271 -0.868097,0.297656 -0.224896,0 -0.595313,-0.07435 -0.669661,0.07435 -0.224896,0.446881 0.07276,0.967317 -0.07435,1.413933 -0.447939,1.191684 -1.415521,1.339057 -0.892969,2.976563 0,0.223308 1.488282,1.934633 1.190625,2.009246 -0.522552,0.223308 -1.190625,-0.595313 -1.711589,-0.297657 -0.44794,0.223309 0.223308,1.215496 -0.223308,1.513153 -0.299244,0.148695 -0.372005,-1.140884 -0.744009,-0.91784 -0.373591,0.148696 0.297656,0.843492 0.07435,1.215496 -0.150283,0.298185 -0.744008,0.148696 -1.041929,0.372004 -0.373592,0.298185 -0.446617,0.967317 -0.892969,0.967317 -2.979737,0.07435 1.116277,-1.735402 0.595313,-2.703777 -0.373592,-0.744538 -1.637242,-0.818092 -2.232554,-1.339321 -0.299244,-0.446617 -0.446617,-0.966788 -0.595313,-1.488281 0,-0.223309 0.372004,-0.669661 0.148696,-0.744009 -0.522552,-0.07435 -1.041929,0.81915 -1.413933,0.520965 -0.150284,-0.148696 1.637241,-1.934634 1.637241,-1.934634 0.148696,-0.297656 0.372004,-0.594783 0.297657,-0.892968 -0.07594,-0.148696 -0.372005,0 -0.446617,0.148696 -1.340908,1.191683 -3.647811,6.051814 -3.199871,7.838281 0,0.148696 0.296069,0 0.372004,-0.07435 0.07435,-0.148696 -0.07435,-0.297656 -0.07435,-0.372004 0.07435,-0.223309 0.147373,-0.520965 0.297657,-0.669661 0.148695,-0.07435 -0.224896,0.744009 0,0.818621 0.446616,0.223308 1.040341,0.148696 1.488281,0.372004 0.148696,0.07435 0.148696,0.372004 0.07435,0.520965 -0.07594,0.595841 0.223308,1.711589 -0.372004,1.785937 -0.671248,0.07435 -0.818621,-2.902743 -1.934634,-2.083593 -0.447939,0.372533 -0.297656,1.190625 -0.595312,1.711589 -0.07594,0.223308 -0.446617,0.148696 -0.520965,0.372004 -0.07594,0.223309 0.297656,0.297656 0.223308,0.446617 0,0.148696 -0.297656,0.148696 -0.372004,0.297656 -0.224896,0.446881 -0.223308,0.967317 -0.446616,1.413933 -0.224896,0.298186 -0.892969,0.148696 -0.967317,0.446617 -0.299244,1.414992 -0.372004,2.976033 -0.446617,4.390496 0,0.148696 -0.148695,0.520964 -0.223308,0.372004 -0.07594,-0.297656 0.223308,-1.116277 0.07276,-0.892969 -0.446616,0.744538 -0.445029,2.678377 -1.041929,3.349096 -0.372004,0.372004 -0.817033,0.744008 -1.264973,0.892969 -0.372004,0.148696 -1.264973,-0.372004 -1.041929,-0.07435 0.224896,0.297656 0.892969,0.07435 1.190625,0.372004 0.299244,0.148696 0.223309,0.669661 0.520965,0.892969 0.373591,0.297656 2.010833,-0.223308 1.562629,0.07435 -0.520965,0.372004 -1.263385,-0.07435 -1.785938,0.223308 -0.223308,0.07435 0,0.520965 -0.148695,0.669661 -0.223309,0.297656 -0.891382,0.07435 -0.967317,0.446616 -0.07435,0.372004 0.224896,0.744008 0.148696,1.116277 -0.07435,0.223309 -0.593725,-0.520964 -0.744009,-0.297656 -0.66966,1.264973 0.520965,0.817562 1.116278,1.860285 0.299243,0.520965 0.148695,2.008188 0.520964,2.604559 0.150283,0.223308 1.713177,2.455598 1.413933,2.827866 -0.223308,0.223309 -0.593725,-0.223308 -0.81862,-0.07435 -0.892969,0.669661 -1.561042,1.561571 -2.083594,2.455598 -0.148696,0.372004 0.07594,1.413934 -0.223308,1.116277 -0.297657,-0.372004 0.297656,-1.116277 -0.07276,-1.488281 -0.522552,-0.446617 -0.892969,1.190625 -1.488281,1.488281 -0.968904,0.520965 -2.529946,-1.785937 -3.199871,-2.083593 -0.820208,-0.297657 -2.455598,0.372004 -3.199871,-0.223309 -1.41552,-1.191683 0,-2.157941 0,-2.902214 0.07435,-0.297656 -0.148696,-0.520965 -0.372004,-0.744009 0,-0.07435 -0.223308,0 -0.223308,-0.07435 -0.224896,-0.670719 1.710002,-1.860286 2.157941,-2.38125 0.297657,-0.446617 1.637242,-1.264973 1.637242,-1.264973 -0.894556,-2.010834 -3.199871,-2.157942 -4.7625,-2.827867 -0.373591,-0.148696 -0.744008,-0.520965 -0.967316,-0.818621 -0.07594,-0.07435 0.148695,-0.372004 0,-0.372004 -0.894557,-0.148696 -1.860286,0.148696 -2.753255,0.520965 -0.745595,0.297656 -2.678906,2.38125 -3.497527,2.38125 -0.894556,0 -1.934633,-0.745067 -2.902214,-0.07435 -0.820209,0.595312 2.156354,1.190625 2.232554,1.190625 4.019814,0.744008 2.528623,2.529945 3.646223,2.902214 0.223308,0.148696 0.445029,-0.967316 0.520964,-0.66966 0.148696,0.446616 -0.373591,0.967316 -0.297656,1.488281 0.148696,0.595313 1.11469,1.934633 1.413933,2.232554 0,0 -0.299243,0.221721 0,1.562629 0.07435,0.520965 0.370417,2.902215 1.04193,3.125259 0.595312,0.148695 1.114689,-0.372005 1.637241,-0.372005 0.372004,0.07435 1.933311,1.116278 2.455598,1.488282 0.148696,0.223308 0.221721,0.520964 0.297656,0.81862 0,0.148696 -0.224895,0.446617 -0.148695,0.595313 0.223308,0.372004 0.593725,0.595312 0.967316,0.818621 0.148696,0 0.297656,-0.297656 0.297656,-0.223309 0.520965,1.861344 -0.373591,3.34698 0.818621,5.060157 1.488282,2.010304 2.083594,2.529945 1.934634,2.529945 -1.117865,0.148696 -1.488282,-1.934633 -2.678907,-2.083593 -0.299243,0 -0.520964,0.148696 -0.66966,0.297656 0.07435,-0.148696 0.07435,-0.372004 -0.148696,-0.446617 -0.447939,-0.223308 -1.041929,-0.07435 -1.562629,-0.223308 -2.30849,-0.894027 -0.744008,-0.150283 -3.05091,1.116277 -0.07594,0 0.744008,-0.744008 -0.297657,-0.818621 -0.522552,0 -1.116277,-0.07435 -1.562629,0.07435 -0.299244,0.148696 -0.148696,3.869532 -0.223308,4.241536 -0.522552,1.562629 -1.71159,2.181225 -2.38125,3.447785 -0.373592,0.595313 0,1.412875 -0.223308,2.083594 -0.522552,1.786996 -2.233877,2.900627 -0.744009,4.7625 1.041929,1.264973 5.356225,2.677319 5.729817,4.018491 0,0.148696 -0.299244,0.297657 -0.223308,0.446617 0.297656,0.595313 1.785937,1.264973 1.190625,1.637242 -1.340909,0.892968 -2.455598,-0.446617 -3.125259,0.07435 -0.373591,0.297656 -0.148696,1.116277 -0.595312,1.339321 -0.5969,0.297656 -4.315884,-1.117336 -5.134504,-0.297657 l -0.07435,0.07435 c -0.07435,-0.223308 -0.148696,-0.446616 -0.297657,-0.446616 -0.5969,-0.07435 -1.116277,0.520964 -1.711589,0.595312 -0.224896,0 -5.457031,-2.829189 -5.531379,-0.892969 0,0.669661 1.190625,1.413933 0.744008,1.860285 -0.373592,0.372005 -1.190625,0.446617 -1.413933,0.967317 -0.150284,0.446617 4.686564,3.795183 5.134504,3.869531 0.66966,0.07435 1.362604,-0.223308 1.810808,-0.595312 0.148696,-0.07435 0,-0.223309 0,-0.372004 0.07435,-0.223309 0,-0.595313 0.223309,-0.595313 0.223308,-0.07435 0.147372,0.446617 0.372004,0.520965 0.66966,0.372004 0.668073,-0.148696 1.190625,0.372004 0.967316,1.041929 1.860285,2.602971 0.892968,3.943879 -0.150283,0.223308 -0.595312,-0.07435 -0.744008,0.148696 -0.224896,0.297656 0.221721,0.892968 -0.07435,1.116277 -0.148696,0.07435 -5.531379,0.372004 -5.680339,0.223308 -5.509684,-3.126846 4.542366,0.5969 -1.71159,-1.785937 -3.277394,-1.190625 -2.455598,0.223308 -2.902214,0.297656 -0.224896,0.07435 -3.42318,-0.892969 -3.42318,-0.967317 -0.373591,-0.372004 -0.446616,-1.041929 -0.372004,-1.562629 0,-0.372004 0.818621,-0.595312 0.595313,-0.818621 -0.299244,-0.223308 -0.818621,0.744009 -1.041929,0.446617 -0.224896,-0.297656 0.595312,-0.744008 0.446616,-1.041929 -0.148696,-0.595313 -1.413933,-0.297656 -1.413933,-0.892969 -0.07435,-0.223308 0.223308,-0.372004 0.223308,-0.595312 0,-0.07435 -2.157941,-2.157942 -2.455598,-2.38125 -0.224895,-0.148696 -0.892968,0.148695 -0.81862,-0.07435 0.81862,-2.085181 2.009245,-0.07276 1.041929,-2.678906 0,-0.07435 -1.264973,-1.637242 -1.116277,-1.637242 0.446616,-0.223308 1.040341,0.595313 1.413933,0.297657 0.297659,-0.223302 -0.669657,-0.371998 -0.892966,-0.669654 -0.671248,-0.894027 -0.520964,-0.595313 -1.041929,-1.413933 -0.447939,-0.596371 -4.985808,-1.71159 -5.357812,-1.637242 -0.373592,0.07435 -0.744009,0.818621 -1.041929,0.595312 -0.745596,-0.59637 1.190625,-1.413933 1.116277,-1.637241 -0.148696,-0.446617 -0.744009,-0.446617 -1.04193,-0.669661 -2.233877,-1.340908 -0.967316,-0.297656 -3.348566,-0.744008 -0.5969,-0.07435 -0.892969,-0.967317 -1.488281,-1.190625 -0.148696,-0.07435 -0.372005,0.297656 -0.446617,0.148696 -0.148696,-0.148696 0.223308,-0.372004 0.07435,-0.520965 -0.07435,-0.148695 -0.520965,0.148696 -0.446617,0 0.07435,-0.223308 0.744008,-0.223308 0.595313,-0.372004 -0.745596,-1.415521 -1.71159,-0.66966 -2.827867,-0.595312 -0.150283,0 -0.44794,-0.372004 -0.297656,-0.446617 0.446616,-0.148696 4.016904,-0.744008 4.167187,-0.595312 0.223309,0.372004 -0.373591,0.81862 -0.223308,1.116277 0.372004,0.66966 3.049323,1.488281 3.571875,1.488281 0.520964,0.07435 1.114689,0.07435 1.562629,-0.223309 0.297656,-0.148695 0.07276,-0.967316 0.446617,-1.041929 0.372004,0 -0.150284,0.818621 0.148695,1.041929 0.297657,0.223309 0.742686,-0.07435 1.116278,0.07435 0.297656,0.07435 0.445029,0.669661 0.744008,0.595313 0.446617,-0.148696 0.445029,-0.892969 0.892969,-1.041929 0.892968,-0.372004 2.60297,0.818621 3.497527,0.892968 0.66966,0.07435 1.337998,-0.297656 2.009245,-0.372004 1.488282,-0.148696 2.900628,-0.81862 4.390496,-0.892968 1.339321,0 2.230967,0.446616 3.646223,0.223308 3.275806,-0.596371 6.943725,-4.190471 7.614973,-7.614973 0.148696,-1.042723 0,-1.562629 0.148696,-2.678906 0.223308,-1.191684 0.07435,-4.464844 -0.892969,-5.209117 -0.299244,-0.223308 -0.818621,0.223308 -1.116277,0 -0.373592,-0.372004 -0.297656,-1.637242 -1.116277,-1.860285 -0.07435,0 -0.148696,0.223308 -0.223308,0.148695 -0.5969,-0.446616 -0.471223,-2.083593 -1.215496,-2.157941 -0.671248,-0.07435 -1.339321,0.967316 -1.860286,0.520964 -0.373591,-0.297656 -0.595312,-0.81862 -1.041929,-1.116277 -0.299244,-0.148695 -0.744008,0.07435 -1.041929,-0.07435 -0.44794,-0.223308 -0.818621,-0.66966 -1.339321,-0.967316 -0.224896,-0.148696 -0.744008,-0.595313 -0.744008,-0.372004 0,0.446616 0.967317,0.66966 0.818621,1.116277 -0.373592,0.967316 -4.7625,-1.264973 -5.581121,-1.190625 -0.07435,0 0.148696,0.223308 0.07435,0.297656 -0.02011,0.01852 -0.04974,0.02064 -0.09922,0.02487 0.451115,0.03863 1.099079,-0.01852 0.91784,0.347133 -0.150284,0.446617 -0.967317,0.223308 -1.413934,0.07435 -0.299243,-0.07435 -0.297656,-0.595312 -0.595312,-0.744008 -0.373592,-0.223309 -0.818621,-0.07435 -1.190625,-0.223309 -0.522552,-0.223308 -0.892969,-0.744008 -1.413933,-0.967316 -2.382838,-0.968375 -5.729817,-1.562629 -8.036719,-2.083594 -2.010833,-0.446617 -2.827867,0.370946 -4.539192,0.967317 -1.117864,0.372004 -1.562629,-0.894027 -2.678906,0.148695 -0.373592,0.372005 -0.520964,1.116278 -0.744008,1.637242 0,0.223308 0.07435,0.372004 0,0.520965 -0.299244,0.520964 -0.892969,0.89191 -1.041929,1.488281 -0.150284,0.297656 0.446616,1.116277 0.148695,0.967317 -1.41552,-0.968375 0.595313,-1.637242 0.520965,-2.306902 0,-0.446617 -0.818621,-0.446617 -0.892969,-0.892969 -0.671248,-2.606146 0.744009,0 0.372004,-1.637242 -0.150283,-0.670719 -2.902214,0.147902 -4.018491,0.967317 0.148696,-0.446617 0.297656,-0.892969 0,-1.116277 -0.44794,-0.297657 -1.041929,0.744008 -1.415521,0.446616 -0.200025,-0.167481 -0.344223,-0.448468 -0.421746,-0.744008 -0.09446,-0.364331 -0.0807,-0.755121 0.12409,-1.041929 0.04974,-0.05424 0.116152,-0.07435 0.173566,-0.09922 0.742686,-0.331787 2.181225,1.459442 2.804584,0.768879 0.446616,-0.372004 0.595312,-1.33932 0.223308,-1.785937 -0.522552,-0.446617 -1.637242,0.744008 -2.085181,0.223308 -0.08837,-0.06668 -0.347133,-0.201612 -0.645054,-0.347133 -0.633942,-0.312208 -1.51765,-0.689769 -1.71159,-0.595313 -0.01852,0.0093 -0.02011,0.03096 -0.02328,0.04974 -0.224896,0.595313 -0.299244,1.189567 -0.148696,1.785937 0.07435,0.372005 0.892969,0.669661 0.66966,0.967317 -0.07593,0.07435 -2.306902,0.07435 -3.348566,0.148696 0.369094,0.492919 1.140883,1.540933 0.892969,2.058723 -0.01852,0.03572 -0.04816,0.06826 -0.07435,0.09922 -0.02646,0.02778 -0.04022,0.05106 -0.07435,0.07435 -0.01085,0.0071 -0.01561,0.01746 -0.02487,0.02487 -0.03572,0.02011 -0.0807,0.03413 -0.12409,0.04974 -0.01085,0.0042 -0.01402,0.02064 -0.02487,0.02487 -0.727075,0.241829 -2.382837,-0.494506 -2.579687,-0.421746 0.0061,0.03201 0.05583,0.08996 0.148696,0.173567 0.09763,0.0807 0.151871,0.171979 0.198437,0.248179 0.01693,0.02699 0.03863,0.04815 0.04974,0.07435 0.01243,0.0217 0.01402,0.05106 0.02487,0.07435 0.0048,0.02381 0.02487,0.04974 0.02487,0.07435 0.449528,1.14247 -1.7811747,2.559579 -2.1084642,3.348566 0,0.07435 0.5767916,2.314575 -0.1486959,2.902215 l -0.322527,-0.09922 C 6.5202004,56.223711 9.6470462,54.439361 8.6797295,52.802384 7.1898608,50.196239 4.8845462,51.166201 2.9499129,49.081814 l -0.074348,-0.372005 c -0.074348,0 -0.1486959,0 -0.2233084,0.07435 0,-0.07435 -0.074348,-0.07435 -0.074348,-0.148695 v 0.148695 c -1.4898687,0.297657 -1.1906249,2.009246 -2.45559784,2.38125 -1.1178646,0.297657 -0.6696604,-1.26656 -1.93463326,0.148696 -0.1486959,0.223309 0,0.595313 -0.074348,0.892969 -0.074348,0.07435 -0.8929688,1.637242 -0.8929688,1.711589 -0.2233083,0.595313 0.2233084,2.529153 0.2976563,3.050911 0,0.223308 -0.1486959,0.372004 -0.1486959,0.595312 0,0.446617 0.074348,0.817563 0.1486959,1.264973 0.2233083,0.595313 0.7440083,1.040871 0.8186208,1.637242 0.1860021,1.302279 0.1084792,1.506802 -0.1240896,1.488281 -0.089958,-0.0077 -0.2153708,-0.02646 -0.3471333,-0.04974 -0.2092854,-0.03731 -0.4466167,-0.05265 -0.7194021,0.198438 -1.0432521,1.041929 -0.074348,1.337998 -0.3720042,2.604559 -0.07276,0.286808 -0.3349625,0.442383 -0.4217458,0.719402 -0.1875896,-0.122502 -0.9114896,-0.77814 -1.0419291,-0.843492 -0.00926,-0.0061 -0.082285,-0.0164 -0.099219,-0.02487 -0.1068917,-0.07144 -0.8061854,-0.328613 -1.513152,-0.545571 -0.037306,-0.01085 -0.0635,-0.01455 -0.099219,-0.02487 -0.3362854,-0.100806 -0.6402917,-0.193675 -0.9178396,-0.248179 -0.3378729,-0.06668 -0.6093354,-0.08228 -0.6696604,0 -0.2976567,0.297656 -0.074348,0.892969 -0.2976567,1.190625 -0.447939,0.781315 -0.970491,0.93636 -1.537758,0.91784 -0.25109,-0.0082 -0.502179,-0.0418 -0.768879,-0.07435 -0.336286,-0.04233 -0.689769,-0.08784 -1.041929,-0.02487 -0.372004,0 -0.744009,0.223308 -1.041929,0.148696 l -0.198438,-0.148696 c -0.186002,-0.319352 -0.111654,-0.781315 -0.297656,-1.091407 -0.522552,-0.894026 -2.257161,-3.19987 -3.150129,-3.72057 -0.02646,-0.01561 -0.04974,-0.01085 -0.07435,-0.02487 -0.230981,-0.128058 -0.418571,-0.216958 -0.595313,-0.272785 -0.08228,-0.02646 -0.175154,-0.06191 -0.248179,-0.07435 -1.103841,-0.227807 -1.140883,0.99986 -1.017058,1.984375 l -0.421746,1.513152 0.07435,0.04974 c 0.223308,0.148696 0.299244,0.264584 0.322527,0.347134 0.02328,0.08228 -0.01852,0.147372 -0.07435,0.198437 -0.05583,0.05107 -0.110067,0.09393 -0.124089,0.148696 -0.01402,0.05424 0.02487,0.105304 0.173566,0.198437 0.632619,0.483659 1.466586,1.1938 2.331508,1.83568 0.864923,0.641879 1.75948,1.215495 2.430992,1.513152 0.781315,0.334962 1.469761,0.378354 2.157942,0.496093 0.344223,0.059 0.699293,0.141023 1.041929,0.297657 0.341048,0.155045 0.688446,0.365918 1.041929,0.719402 0.297656,0.223308 0.07435,0.892968 0.372004,1.041929 0.223309,0.07435 0.372004,-0.297656 0.520965,-0.223309 0.2976561,0.111655 0.4836582,0.37518 0.6696603,0.645055 0.1860021,0.269875 0.3720042,0.54557 0.5953125,0.768879 0.1486958,0.148696 0.5953125,0.148696 0.5209646,0.372004 -0.2045229,0.39079 -0.3193521,0.687387 -0.3471334,0.942446 -0.027781,0.254264 0.024871,0.475985 0.099219,0.694531 0.1486958,0.436033 0.4341812,0.89191 0.5455708,1.785937 0.074348,0.297657 -0.2233083,0.595313 -0.2233083,0.892969 -0.037306,0.223309 -0.01561,0.353484 0.074348,0.421746 0.088371,0.06668 0.2434167,0.08361 0.396875,0.07435 0.3069167,-0.01852 0.6820958,-0.12409 0.8680979,0.02487 0.2418292,0.186002 0.3254375,0.406135 0.3225271,0.620183 -0.00291,0.214048 -0.1161521,0.421746 -0.2233083,0.645054 -0.1071563,0.223309 -0.2293938,0.455878 -0.2976563,0.669661 -0.06985,0.214048 -0.061913,0.40931 0.049742,0.595312 0.2233083,0.520965 0.7688791,1.04193 1.2898437,1.56263 0.5209646,0.5207 1.0170583,1.04087 1.0914062,1.637241 0.074348,0.892969 -0.5953125,3.720571 -0.5209645,4.09284 0.1674812,0.595312 0.3937,1.114689 0.6696604,1.5875 0.2743729,0.47281 0.5969,0.900641 0.9178395,1.314714 0.3193521,0.413809 0.6434667,0.820209 0.94244586,1.240367 0.3132666,0.420158 0.6170083,0.849577 0.8434916,1.339321 0.5254625,0.268287 0.6805083,-0.305329 1.21549584,-0.02487 0.2217208,0.561181 0.3952875,0.967316 0.9178396,1.264973 0.3053292,-0.158221 0.5688541,-0.148696 1.0914062,0 0.2233084,0 0.4960938,0.223308 0.6450542,0.372004 0.4466167,0.223308 0.4450292,-0.669661 0.8929687,0.07435 0.8186209,1.711589 0.2976563,3.026304 0.5953125,3.770312 0.2233084,0.669661 0.5378979,0.255852 1.3641917,1.537759 -0.2092854,0.485245 -0.6170083,0.122502 -1.0665354,0.347133 0.020108,0.105302 0.074348,0.181502 0.2727854,0.248182 0.5254625,0.17515 0.5767917,0.42174 0.4712229,0.84349 -0.1023964,0.40771 -0.7209923,-0.26195 -1.3641943,-0.71941 -0.2868084,0.17674 -0.5595938,0.36592 -0.7440084,0.64505 -0.1486958,0.1487 0.074348,0.52097 -0.074348,0.66966 -0.1486958,0.1487 -0.5209646,-0.2233 -0.5953125,-0.0743 -0.2233083,0.52097 -0.2976562,1.19063 -0.2976562,1.78594 0,0.37201 -0.1240896,0.76888 -0.2727854,1.14088 -0.074348,0.66967 -0.6201834,0.94245 -0.7688792,1.53776 -0.1486959,0.44662 -0.1984375,1.31472 -0.3471334,1.68672 -0.3720041,0.81862 -1.04192911,0.49451 -1.11627704,1.61237 -0.00476,0.50377 0.37200414,0.54557 0.37200414,0.84349 -0.00767,0.045 -0.016933,0.0807 -0.024871,0.12409 -0.38126454,-0.0402 -0.75803124,-0.0699 -0.94244584,-0.0497 -0.2357437,0.0265 -0.057415,0.57362 0.1486959,1.19063 -0.404548,0.26987 -0.871273,0.46672 -1.2154959,0.91784 -0.074348,0.52096 -0.79374996,2.25716 -0.86809786,2.33151 -0.2976562,0 -0.5704416,-0.89297 -0.8680979,-0.66966 -0.6712479,0.59531 0.4217459,2.00924 -0.2481791,2.45559 -0.2233084,0.1487 -0.6696604,-0.372 -0.5953125,-0.0743 0,0.37201 0.396875,0.32253 0.5455708,0.69453 -0.2711979,-0.13176 -0.6061604,-0.1598 -0.8186208,-0.12408 -0.094456,0.0156 -0.1815042,0.031 -0.1984375,0.0744 -0.057415,0.14419 0.6604,0.60298 1.2898437,1.16575 0.1039813,0.7194 -0.3643312,-0.002 -0.8929687,0.66966 -0.6093354,0.22781 -0.4217459,0.96732 -0.7194021,0.96732 -0.4466167,-0.0743 -0.2481792,-0.62019 -0.6201833,-0.69453 -0.7006167,0.30691 -0.8527521,0.5117 -1.2898438,0.47122 -0.5254625,1.97511 1.1657542,0.51937 1.0170584,1.71159 -0.010848,0.0542 -0.048154,0.11615 -0.074348,0.17356 -0.6122458,-0.11483 -0.7688791,-0.39687 -0.7688791,-0.39687 l -0.1984375,0.32253 0.049742,1.14088 c -0.4775729,0.45746 -0.9548812,0.92234 -0.9921874,1.33932 -0.4077229,4.24789 0.1844145,0.98293 0.719402,2.10846 0.038629,0.63553 -0.5704416,1.01706 0.024871,1.38907 0.074348,0.0743 0.2233083,-0.29766 0.2976562,-0.22331 0.1486958,0.22331 -0.074348,0.74401 0.2233083,0.81862 0.1486959,0.0744 -0.1486958,-0.66966 0.074348,-0.66966 0.2233083,-0.0744 0.2976562,0.22331 0.3720041,0.44662 0.4466167,1.19062 -0.074348,3.12525 0.1486959,3.57187 0.1486958,0.29766 0.4217458,0.49609 0.6450541,0.7194 0.2976563,0.37201 0.3471333,0.54557 0.5704417,0.91784 0.074348,0.1487 0.1240896,0.47123 0.1984375,0.62019 0.1486958,0.2233 0.5209645,0.0497 0.6696604,0.19843 0.074348,0.0744 -0.2976563,0 -0.2976563,0.0744 -0.074348,0.1487 0.074348,0.29766 0.1486959,0.44662 0.3720041,0.44662 1.0419291,0.84349 0.9673166,1.36419 -0.074348,0.44662 -1.1408833,-0.44661 -1.2154958,0 -0.1486958,0.59531 0.7688792,1.31472 0.9178396,1.83568 0.074348,0.22331 -0.2976563,0.44662 -0.2233084,0.74401 0.074348,0.1487 0.5209646,0.1487 0.5209646,0.372 -0.074348,0.96732 -0.8186208,-0.0743 -0.5209646,0.74401 0.074348,0.29766 0.4466167,0.52097 0.3720042,0.74401 -0.074348,0.29766 -0.8186208,-0.0743 -0.8929687,0.1487 -0.074348,1.93463 0.7426854,2.15794 1.3393208,2.97656 0.1486958,0.14869 -0.5953125,0.29765 -0.4466167,0.52096 0.074348,0.37201 0.2233084,0.66966 0.4466167,0.96732 1.84784996,2.12381 0.3704166,-0.0743 1.93463326,-0.372 0.2976562,0 -0.2976563,0.81862 0,1.04192 0.4466167,0.22331 0.99060001,0.12409 1.51315204,0.12409 0.4466167,0.0743 0.6450542,0.54558 1.0170584,0.54558 0.3720041,0 0.5209646,-0.44662 0.8186208,-0.44662 0.1486958,-0.0743 0,0.22331 0.074348,0.29765 0.2124604,0.0699 0.3643313,0.0201 0.5704417,-0.0497 -0.075935,0.16272 -0.1457854,0.34714 -0.1984375,0.4961 -0.2108729,0.59531 -0.2852209,0.66357 -0.074348,0.76888 0.2092854,0.1053 -0.035719,0.003 0.4217458,-0.34714 0.097631,-0.0759 0.1815042,-0.20452 0.2727854,-0.32252 -0.00767,0.77814 -0.6201833,0.96123 -0.396875,1.01706 0.1068917,0 0.8990542,-0.57045 1.4882812,-0.99219 -0.1751541,0.35031 -0.3378729,0.52864 -0.79375,0.66966 -0.3690937,0.11324 -0.5318124,0.35031 -0.6945312,0.32253 -0.038629,-0.006 -0.083608,0.0542 -0.1240896,0 -0.2108729,-0.28073 -0.5130271,0.0714 -0.3720041,0.42174 0.06985,0.17516 0.2992437,0.21405 0.4712229,0.22331 -0.2108729,0.0728 -0.2775479,0.32702 -0.099219,0.44662 0.2092854,0.13943 -0.032544,0.21246 -0.3471333,0.24818 -0.3161771,0.0341 0.026458,0.62468 0.2727854,0.69453 0.2450042,0.0699 1.0030354,-0.24024 1.3890625,-0.52097 0.3860271,-0.28072 0.5471583,-0.72099 0.3720042,-1.14088 -0.1751542,-0.42175 -0.1674813,-0.36592 0.1486958,-1.06654 0.096044,-0.26035 0.06985,-0.41539 0.024871,-0.47122 0.1008063,-0.0728 0.3100917,-0.2249 0.3471333,-0.24818 0.074348,-0.0744 0.2233084,-0.44662 0.2976563,-0.52096 -0.3720042,1.11627 -1.3409083,2.38125 0.4466167,3.05091 0.2976562,0.14869 0.8929687,-0.52097 1.0419291,-0.22331 0.1486958,0.44662 -1.0432521,1.11628 -0.5953125,1.26497 0.4466167,0.22331 0.3704167,-1.04193 0.8186208,-1.11628 0.3720042,-0.0744 0.074348,0.74401 -0.074348,1.04193 -0.2233083,0.37201 -0.6696604,0.52097 -1.0419291,0.81862 -0.1084792,0.16272 -0.4278313,0.49134 -0.5209646,0.59532 2.306902,-0.89297 1.4123458,-2.38125 2.6045583,-3.12526 0.3720042,-0.22331 -0.5953125,0.96732 -0.2233083,1.19062 0.5209645,0.29766 1.2139083,-0.0743 1.7361955,-0.372 0.372004,-0.1487 0.520965,-0.74401 0.818621,-0.96732 1.323975,-0.89905 2.455598,-0.59531 2.678906,-0.89297 0.223308,-0.2233 -0.520965,-0.59531 -0.297656,-0.81862 0.372004,-0.29765 0.965729,-0.0744 1.488281,-0.14869 0.148696,0 0.446617,0.0743 0.520965,-0.0744 0.148695,-0.22331 -0.150284,-0.52097 -0.07435,-0.66966 0.0048,-0.009 0.02011,0.003 0.02487,0 0.03731,0.0868 0.235744,0.0683 0.347134,0.12409 0.530225,-0.59214 0.714639,-1.03082 1.810808,-1.28985 0.389202,-0.2495 -0.299244,-1.26497 0.446617,-1.11627 0.03863,0.89455 1.846527,1.44647 1.066535,-0.4961 0.551921,0.23098 1.699154,1.62481 1.364192,0.24818 -0.148696,-0.52096 -1.661848,-0.69453 -1.438804,-1.28984 0.148696,-0.52097 0.446616,0.27278 0.967316,0.42174 0.297657,0.0744 0.868098,0.0744 1.165755,-0.0744 0.744008,-0.52096 -0.44794,-2.20768 0.446616,-1.68671 0.744008,0.52096 -0.773641,2.12857 1.289844,0.89296 3.573462,-1.19221 0.618596,-0.12409 1.364192,-1.24036 0.07435,-0.0743 0.148695,0.14869 0.297656,0.14869 0.14896,0 0.372004,0 0.446616,-0.14869 0.05583,-0.11166 -0.08837,-0.44186 -0.07435,-0.59532 0.0016,-0.0265 0.01085,-0.0357 0.02487,-0.0497 0.01244,-0.014 0.0217,-0.0249 0.04974,-0.0249 0.07435,0 0.768879,0.64506 1.140883,0.4961 0.520965,-0.1487 1.389063,-0.19844 1.686719,-0.57044 0.07435,0 0.07435,-0.0743 0.07435,-0.1487 0,-0.0744 -0.02487,-0.15822 -0.02487,-0.22331 0,-0.0651 0.02487,-0.11165 0.09922,-0.14869 0.520964,-0.29766 1.189037,-0.22331 1.785937,-0.52097 0.07435,0 1.413934,-2.23255 1.488282,-2.08359 0.502179,0.66966 0.246591,1.72085 0.372004,2.57969 0.0418,0.28522 0.130175,0.54557 0.297656,0.76887 0.223308,0.29766 0.744008,-0.2233 1.041929,-0.0744 0.446617,0.1487 0.744009,0.52097 1.041929,0.89297 0.148696,0.1487 0.223309,0.44662 0.372005,0.52097 0.251089,0.11615 0.490008,0.14261 0.719402,0.0992 0.07594,-0.0156 0.147372,-0.0481 0.223308,-0.0744 0.564356,-0.20161 1.074473,-0.69771 1.513152,-0.84349 0.193675,-0.0807 0.350308,-0.13785 0.496094,-0.17357 0.103981,-0.0249 0.190764,-0.045 0.272785,-0.0497 0.03863,-0.003 0.08837,-0.003 0.12409,0 0.08996,0.006 0.155046,0.045 0.223308,0.0744 0.07435,0.0325 0.141023,0.0699 0.198438,0.12409 0.308504,0.2884 0.423333,0.8419 1.066535,1.14088 0.446617,0.22331 1.190625,-0.2233 1.562629,0.0743 2.083594,1.71159 -2.232554,0.96732 -3.571875,1.04193 -4.021402,0.22331 -0.744008,2.23256 -2.529946,2.60456 -0.223308,0.0744 -1.934633,-0.74401 -2.009245,0.22331 -0.07435,0.52096 0.446616,1.19062 0.07435,1.48828 -0.297656,0.29766 -0.744008,-0.29766 -1.116277,-0.52096 -0.148695,-0.0744 -0.372004,-0.52097 -0.595312,-0.37201 -0.894556,0.89297 0.818621,2.0836 0.66966,3.19987 0.215371,0.13494 0.387615,0.25744 0.520965,0.34714 -0.134938,-0.0915 -0.297656,-0.18283 -0.520965,-0.32253 -0.07435,0.29766 -0.223308,0.59531 -0.744008,0.89297 -0.671248,0.44661 -7.689321,0.52096 -8.879946,0.372 -0.223308,0 -0.372004,-0.372 -0.66966,-0.29765 -1.415521,0.29765 1.785937,1.11627 -0.595313,0.81862 -0.372004,-0.0744 -0.446616,-0.89297 -0.81862,-0.81862 -0.297657,0.0744 0.223308,0.66966 0.07435,0.96731 -0.223308,0.44662 -0.66966,0.89297 -1.116277,1.11628 -0.745595,0.372 -1.562629,0.52096 -2.38125,0.372 -0.299243,-0.0744 -0.520964,-0.66966 -0.744008,-0.52096 -0.373592,0.22331 0.520965,1.04193 0.148696,1.11628 -0.745596,0.2233 -2.976563,0.29765 -3.423179,1.41393 -0.148696,0.372 0.66966,0.74401 0.446616,1.04193 -0.373591,0.59531 -2.604558,0.44662 -2.902214,1.11628 -1.0432519,2.82919 0.891381,1.04034 1.339321,2.23255 0.223308,0.66966 -0.894556,1.48828 -0.595313,2.15794 0.297657,0.81862 1.488281,1.63724 1.637242,1.93463 0.446617,0.66967 -0.299244,1.41394 0.66966,1.93464 0.372004,0.14869 0.817034,-0.22331 1.190625,-0.0744 0.372004,0.0744 0.593725,0.81862 0.967317,0.59531 0.520964,-0.29766 0.519377,-3.12685 2.083594,-1.26497 0.148695,0.2233 -0.372005,0.44661 -0.372005,0.744 0,0.59532 0.297657,1.19063 0.297657,1.78594 0,1.48828 -0.595313,0.66808 -0.446617,2.00925 0.07435,0.14869 0.07435,0.372 0.07435,0.59531 0.297656,1.56263 2.232554,3.71925 1.785937,5.43215 -0.223308,1.04193 -2.009245,3.19988 -3.125258,3.34857 -0.447939,0.0744 -0.744008,-0.372 -1.116277,-0.44662 -0.07593,-0.0233 -0.134937,-0.0402 -0.198437,-0.0497 -0.570442,-0.0836 -0.739511,0.27279 -1.140884,-0.39687 -0.522552,-0.74401 -0.520964,-1.78594 -1.190625,-2.38125 -0.671247,-0.66966 -2.2325536,-0.96731 -2.9765619,-1.63724 -0.4479396,-0.372 0,-1.33932 -0.4466166,-1.56263 -0.083608,-0.0373 -0.1690688,-0.0511 -0.2481792,-0.0497 -0.5566833,0.005 -1.0170583,0.84032 -1.5377583,1.16576 -0.7455958,0.59531 -1.7859375,0.74401 -2.4555979,1.48828 -1.787525,1.86186 -0.2233083,4.01689 -0.8929687,5.87877 -0.2248959,0.74401 -1.190625,1.04193 -1.4139334,1.78594 -0.1486958,0.44661 0.2233084,0.89296 0.2233084,1.41393 0,0.52096 -0.2248959,1.04193 -0.074348,1.48828 0,0.0743 0.074348,0.1487 0.1486958,0.1487 -0.7455958,0.89296 0.4450293,3.15012 0.8929688,4.19205 0.061913,0.13177 0.077523,0.2032 0.1486959,0.27279 0.3008312,1.11628 0.1285875,1.19221 0.074348,1.41393 l 0.4712229,0.37201 0.9424458,0.29765 0.1486958,0.57044 c 0,0 0.6543146,0.44662 1.0170584,0.8435 0.3611562,0.39687 1.2649729,1.66184 1.2649729,1.66184 l 0.074348,0.57045 c 0,0 0.3643312,0.13943 0.5455708,0.24818 0.1799167,0.10847 0.4217458,0.59531 0.4217458,0.59531 l 0.4217459,-0.37201 1.0170583,0.7927 c 0,0 0.4045474,0.027 0.6945314,0.0992 0.288396,0.0733 0.79375,0.52097 0.79375,0.52097 l 1.910027,-0.12409 0.198438,0.62018 c 0.141023,0.0362 0.186002,0.19738 0.223308,0.37201 0.03863,0.19235 0.06668,0.40507 0.223308,0.52096 0.07435,0.0743 0.296069,-0.14869 0.446617,-0.0744 0.297656,0.1487 0.593725,0.37201 0.818621,0.66966 0.446617,0.74401 -1.117865,2.7522 0.520964,4.98581 l -0.07435,0.0744 0.148695,0.54557 c 0,0 0.01085,0.0299 -0.198437,0.0992 -0.05265,0.0175 -0.125677,0.0516 -0.198438,0.0992 -0.148695,0.0982 -0.308504,0.24712 -0.421745,0.39687 -0.05741,0.0765 -0.106892,0.15399 -0.12409,0.22331 -0.07144,0.28099 0.496094,0.87736 0.496094,1.01706 0,0.14155 0.252677,0.83291 0.744008,1.46341 0.490008,0.63156 0.773642,0.73184 0.66966,0.94245 -0.105304,0.21087 -0.148695,0.99218 -0.148695,0.99218 l -0.322527,0.34714 -0.595313,0.32252 -1.190625,1.19063 h -0.02487 l -1.438804,1.4388 -0.248179,-0.0744 -0.471223,0.52097 -2.4061212,0.34713 -0.8434917,0.32253 -0.8434916,0.52096 -1.1657541,1.41394 -0.8680979,-0.0744 -0.4217459,-0.22331 -0.1984375,-0.12409 -0.4217458,-0.47122 -0.2976562,0.96732 c -0.049742,0.20452 -0.1240896,0.60139 -0.1486959,0.66966 -0.065088,0.16959 -0.1177396,0.27807 -0.1735666,0.34713 -0.035719,0.0434 -0.075935,0.0609 -0.1240896,0.0744 v 0.0249 l -0.79375,0.57044 c 0,0 -0.6820958,0.20373 -1.1408834,0.0497 -0.460375,-0.15293 -0.6450542,-0.7194 -0.6450542,-0.7194 l -0.96731663,0.57044 -0.27278541,0.76888 -0.8680979,-0.0497 -0.91783946,-0.66966 0.099219,0.76888 -0.8680979,-0.42175 -0.7688791,-0.19844 c 0,0 -0.2619375,0.60987 -0.6696605,0.96732 -0.4093104,0.35851 -0.7937499,0.42175 -0.7937499,0.42175 v 0.49609 h -0.9424459 l -0.2481791,0.27279 c 0,0 -0.038629,1.02631 -0.4466167,1.53775 -0.4093104,0.51171 -0.2727854,1.2155 -0.2727854,1.2155 l -0.4466167,0.39687 -0.1486958,1.91003 c 0,0 -0.2651125,-0.10028 -0.5704417,-0.0497 -0.3069166,0.0516 -0.8186208,0.96732 -0.8186208,0.96732 l -0.2976565,-0.42175 -2.976562,3.94388 1.885156,1.38906 0.868098,1.41394 -0.446617,0.66966 0.347134,0.0497 0.148696,0.42174 0.6696599,0.0497 0.6201833,1.11627 -0.3720042,0.8681 0.5704417,0.47122 -0.099219,0.59532 0.3471334,2.10846 1.1408833,0.24818 0.9673166,1.16575 c 0.051065,-0.001 0.1534584,-0.0135 0.3471334,0 0.037306,0.002 0.032544,-0.003 0.074348,0 0.096044,0.009 0.200025,0.0299 0.2976562,0.0497 0.1473729,0.027 0.2883959,0.064 0.396875,0.12408 v 0.0498 c 0.2233083,0.20373 -0.023283,0.49292 0.023283,0.81862 0.051064,0.35851 0.4217458,0.54557 0.4217458,0.54557 l 1.116277,0.22331 1.68671876,1.36419 -0.049742,1.01706 -0.76887906,0.66966 0.049742,0.7194 0.71940206,0.19844 0.049742,0.47122 0.9673166,0.74401 c 0.068262,-0.007 0.13335,-0.0196 0.1984375,-0.0249 0.16589371,-0.009 0.32411454,-0.009 0.44661664,0.0249 0.4913312,0.14155 1.0122958,-0.21484 1.5377583,0.0992 0.5270501,0.31617 1.6758709,0.27172 1.8851563,0.44661 0.2108729,0.17569 -0.1039812,-0.51779 0.4217458,-0.27278 0.52705,0.24712 0.5021792,0.2749 0.9921875,0.0992 0.4029604,-0.14261 0.6696604,-0.0497 0.6201834,0.12409 0.4603749,-0.0537 0.9596437,-0.0992 1.5377583,-0.12409 0.913077,-0.91149 2.0433765,-0.95912 2.6045585,-1.66185 0.562768,-0.70062 1.537758,-0.84349 1.537758,-0.84349 0.843492,-1.19169 1.841765,-1.63407 2.331509,-2.40612 0.491331,-0.77206 0.844814,-1.19169 1.264972,-2.03412 0.421746,-0.84138 0.542661,-1.53273 0.892969,-1.04193 0.155046,0.21696 0.252677,0.46725 0.372004,0.64505 0.153459,0.22622 0.348721,0.32465 0.818621,0.0497 0.02937,-0.0156 0.04815,-0.0341 0.07435,-0.0497 0.779727,-0.42174 1.075796,-0.0775 1.413933,0.39688 0.351896,0.49186 0.624682,0.91149 0.272786,1.61237 -0.06985,0.14155 -0.139436,0.27914 -0.198438,0.39688 -0.235743,0.47439 -0.342635,0.77522 0.04974,0.94244 0.443442,0.19129 0.333375,-0.46302 0.818621,-0.59531 0.05265,-0.0135 0.105304,-0.0249 0.173567,-0.0249 0.416983,0 0.922337,0.17065 1.389062,0.22331 0.02487,0.003 0.05107,-0.001 0.07435,0 0.195262,0.0175 0.382852,0.005 0.545571,-0.0497 0.0077,-0.001 0.01852,0.003 0.02487,0 0.07435,-0.0259 0.159808,-0.0505 0.223308,-0.0992 0.235744,-0.17675 0.375179,-0.36063 0.545571,-0.4961 0.235743,-0.186 0.503766,-0.30374 0.992187,-0.22331 0.05265,0.009 0.113242,0.0392 0.198438,0.0992 0.06985,-0.11774 0.186002,-0.26141 0.421746,-0.52096 1.055687,-1.15041 0.47281,-0.58394 1.910027,-0.96732 1.438804,-0.38232 1.434041,1.06654 2.009245,-0.372 0.575205,-1.43669 -0.19685,-0.3855 1.240367,-0.76888 1.438804,-0.38232 0.975254,-0.0156 1.165754,-1.16576 0.0093,-0.0505 0.01852,-0.0754 0.02487,-0.12409 0.0048,-0.0278 -0.0032,-0.0476 0,-0.0743 0.01402,-0.0971 0.03572,-0.18918 0.04974,-0.27279 0.117739,-0.70802 0.245004,-0.83502 1.438804,-0.19844 1.438804,0.76782 0.973667,0.77523 1.835679,1.63724 0.8636,0.86413 2.202921,-1.04589 2.778125,-0.47122 0.575204,0.57574 0.772054,-0.18917 1.537758,0.76888 0.767292,0.96017 0.181504,0.46196 0.372004,1.61237 0.192353,1.15041 1.820069,1.44489 2.778125,2.3069 0.201613,0.18204 0.355071,0.30692 0.496094,0.42175 l -0.297656,0.19844 0.471223,-0.0744 c 0.404548,0.29977 0.568854,0.29342 0.768879,0.0249 0.04974,-0.063 0.105304,-0.11774 0.173567,-0.1487 0.04657,0.0733 0.502179,0.78767 0.570441,1.61238 0.07276,0.86809 0.286809,1.23084 0.719402,1.73619 0.434182,0.50747 0.131763,1.86849 0.347134,2.95169 0.216958,1.08532 0.362743,2.69029 0.868098,3.05091 0.506941,0.36169 1.229254,0.78026 1.661848,1.14089 0.136524,0.11377 0.181504,0.30294 0.198437,0.49609 -0.271198,0.095 -0.60616,0.22331 -1.140883,0.22331 -0.876036,0 -0.458788,-0.44953 -0.669661,-0.52097 -0.209285,-0.0693 -0.04657,0.74401 -0.223308,0.74401 -0.175154,0 -0.20611,-0.80618 -0.347133,-1.01706 -0.134938,-0.20267 -0.167482,0.0185 -0.421746,0.34714 l 0.07435,0.66966 c 0,0 0.613833,0.95805 0.818621,1.31471 0.204522,0.35851 1.237191,0.93213 1.33932,1.33932 0.05107,0.20453 -0.167481,0.29448 -0.421745,0.39688 0.365918,0.0744 0.761206,0.15504 1.017058,0.14869 0.953558,-0.003 1.365779,-0.32041 1.5875,-0.34713 0.457464,-0.31115 0.734748,-0.76279 1.091406,-0.81862 0.358246,-0.0537 1.271323,-0.23363 1.736196,0.32253 0.466725,0.558 2.282031,1.81689 2.802996,2.6789 0.520964,0.86413 1.234016,2.30267 2.108464,2.803 0.874448,0.50218 1.004623,0.71305 1.314715,1.06653 0.311679,0.3556 0.708554,0.84852 1.116277,0.8435 0.40931,-0.004 0.728662,1.21549 1.190625,1.41393 0.46355,0.20055 1.849437,0.80618 2.058723,1.31471 0.210873,0.50853 0.617008,1.10887 0.620183,1.41394 0.0032,0.30691 0.268288,0.36168 0.272785,0.76888 0.0048,0.40931 -0.04022,0.71305 0.372005,1.11627 0.413808,0.40508 0.09763,0.98187 0.04974,1.33932 -0.02619,0.20135 -0.17436,0.46408 -0.262466,0.70962 1.163108,0.62203 2.588948,3.58166 3.008048,4.36007 0.650874,1.20861 1.330854,1.71714 2.717535,1.39382 2.090473,-0.48789 4.511146,-2.99905 6.480704,-4.25053 l 2.64795,-1.11496 c 0.0217,0.0212 0.0463,0.086 0.0725,0.18204 0.227541,0.1008 0.389996,0.56012 0.515937,0.30771 0.5969,-1.33932 0.967317,-2.52995 0.967317,-2.52995 0,0 0.06985,-0.13943 0.09922,-0.19843 0.02487,-0.0466 0.08837,-0.16749 0.124089,-0.24818 0.01402,-0.031 0.03572,-0.0879 0.04974,-0.12409 0.05265,-0.12409 0.102394,-0.29872 0.173567,-0.4961 0.08996,-0.245 0.195262,-0.52705 0.297656,-0.86809 0.0093,-0.0373 0.0093,-0.0868 0,-0.12409 -0.04339,-0.18601 -0.286809,-0.35957 -0.372004,-0.54558 -0.01561,-0.0373 -0.0217,-0.0619 -0.02487,-0.0992 -0.0026,-0.0373 0.0077,-0.0868 0.02487,-0.12409 0.03731,-0.11166 0.15822,-0.19844 0.297656,-0.27279 0.06985,-0.0373 0.159808,-0.0569 0.223308,-0.0992 0.06509,-0.0413 0.111654,-0.0931 0.148696,-0.14869 0.195263,-0.36275 0.105304,-0.55907 -0.04974,-0.71941 -0.05106,-0.0526 -0.114829,-0.10239 -0.173566,-0.14869 -0.232569,-0.186 -0.446617,-0.35957 -0.148696,-0.76888 0.820208,-1.04193 1.798373,-1.47267 2.579687,-1.7362 0.39079,-0.13123 0.725488,-0.22436 0.967317,-0.32252 0.241829,-0.0961 0.396875,-0.20453 0.396875,-0.37201 0.134938,-0.42889 0.02487,-0.76888 0.02487,-0.76888 0,0 -0.359569,-0.30374 -0.372004,-0.86809 0.234156,-0.15293 0.528637,0.40005 0.645054,0.29765 0.02937,-0.0249 0.059,-0.0722 0.07435,-0.14869 0.03096,-0.1487 0.05106,-0.36698 0.124089,-0.52097 0.01852,-0.0373 0.02328,-0.0714 0.04974,-0.0992 0.02646,-0.0278 0.0635,-0.0601 0.09922,-0.0744 0.373591,0.26565 0.100806,1.0377 -0.173567,2.00925 0.05583,0.0558 0.11774,0.0619 0.198438,0.0497 0.08228,-0.0103 0.176741,-0.0278 0.272785,-0.0743 0.192352,-0.0931 0.40931,-0.23574 0.595313,-0.27278 0.372004,-0.0744 0.620183,0 1.066535,-0.0744 0.968904,-0.1487 -0.347133,-1.78594 -0.347133,-1.78594 0.147373,-0.65722 0.612245,-0.76888 -0.12409,-1.31471 -0.192352,-0.14261 -0.576792,-0.54981 -0.66966,-0.79375 -0.07594,-0.1995 -0.379942,-1.0758 -0.942446,-1.46341 -1.003036,-0.69136 -0.201613,-0.41037 0.322527,-0.24818 0.344223,0.10848 0.455877,0.71305 0.545571,0.7194 0.182827,0.0145 0.658812,0.74613 0.768879,0.89297 0.364331,0 0.818621,0.94245 0.818621,1.09141 0.02646,1.53167 0.356658,2.31616 0.868098,2.65403 0.514614,-0.30374 0.534722,-0.35348 0.66966,-0.27278 0.08837,0.0526 0.156633,0.17674 0.223308,0.27278 0.03413,0.0497 0.0635,0.10451 0.09922,0.12409 0.01852,0.0114 0.03096,0.003 0.04974,0 0.02011,-0.001 0.05265,-0.006 0.07435,-0.0249 0.08837,-0.0693 0.195262,-0.25532 0.297656,-0.39687 0.05265,-0.0693 0.102394,-0.11589 0.148696,-0.1487 0.04657,-0.031 0.08996,-0.0434 0.124089,0 0.105304,0.13017 0.229394,0.21087 0.372004,0.27278 0.613834,-0.29157 1.264973,-0.70167 1.910028,-1.14088 0.297656,-0.22331 -0.669661,0.52097 -0.967317,0.81862 -0.325438,0.39264 0.09313,0.93848 -0.248179,1.11628 -0.04815,0.027 -0.114829,0.0402 -0.198438,0.0497 -0.316177,0.0558 -0.633941,0.10848 -0.967316,0.1487 -0.331788,0.0423 -0.678921,0.0672 -1.017059,0.0992 -0.67601,0.0651 -1.350433,0.12409 -1.984375,0.19843 -0.494506,0.0362 -1.5875,0.12409 -1.364191,0.34714 0.692943,0.33787 0.719402,0.79375 1.314714,0.94244 0.02778,0.009 0.04498,0.0156 0.04974,0 0.01693,-0.0434 -0.0418,-0.20161 -0.09922,-0.34713 -0.07435,-0.19315 -0.141023,-0.39158 0.04974,-0.42175 0.868098,-0.31009 0.942446,0.027 1.46341,-0.0497 0.148696,0 0.710142,-0.23971 0.942446,0.22331 -0.406135,0.97578 -0.584465,0.55404 -1.289844,0.94245 -0.100806,0.0558 -0.223308,0.12911 -0.347133,0.2233 0.04022,0.11483 0.08228,0.20664 0.124089,0.27279 0.128588,0.20161 0.277548,0.19844 0.520965,0.1487 0.162719,-0.032 0.379942,-0.0754 0.645054,-0.12409 0.265113,-0.0466 0.584465,-0.0878 0.992188,-0.0743 l 0.09922,0.42174 c 0,0 -0.74877,0.13944 -1.661847,0.17357 -0.455878,0.0185 -0.795338,0.006 -1.091407,-0.0249 -0.147373,-0.0135 -0.292893,-0.0228 -0.421745,-0.0497 -0.128588,-0.0249 -0.249503,-0.063 -0.372005,-0.0992 -0.490008,-0.13944 -0.570441,-0.64506 -0.570441,-0.64506 l -0.32094,-0.17356 c 0,0 -0.03096,0.2159 0.07435,0.49609 0.05106,0.14155 0.182827,0.31618 0.372004,0.47122 0.09313,0.0775 0.192352,0.15505 0.322527,0.22331 0.128588,0.0704 0.279136,0.12092 0.446617,0.17357 0.665162,0.21087 2.585773,0.0217 3.919008,-0.0497 l 0.347134,-0.76888 c 0.05265,0.0124 0.09313,0.0124 0.148695,0.0249 0.223309,0.0744 -0.02646,0.32253 0.198438,0.39687 0.390789,0.16749 0.786077,0.26247 1.215496,0.19844 0.14261,-0.0196 0.296068,-0.0683 0.446616,-0.12409 0.07435,-0.0185 0.153459,-0.0413 0.223309,-0.0744 0.06826,-0.0309 0.131762,-0.0817 0.198437,-0.12408 0.130175,-0.0818 0.249502,-0.17145 0.372004,-0.27279 0.122502,-0.10028 0.249502,-0.20558 0.372004,-0.29766 0.120915,-0.091 0.240242,-0.16748 0.372005,-0.2233 0.26035,-0.1487 0.555095,-0.19527 0.843491,-0.22331 0.144198,-0.0135 0.286809,-0.0278 0.421746,-0.0497 0.13335,-0.0217 0.26035,-0.0434 0.372004,-0.0992 0.148696,-0.0744 -0.150283,-0.44662 0,-0.52097 0.148696,-0.14869 0.445029,0.22331 0.595313,0.1487 0.372004,-0.1487 0.427831,-0.61093 0.520964,-1.04193 0.01244,0.0145 0.03413,0.0362 0.04974,0.0497 0.544248,0.53843 1.599935,1.35387 2.108467,0.91784 0.65272,-0.47757 -0.2249,-0.59531 0.22331,-0.89297 0.21087,-0.29236 0.47122,-0.17357 0.47122,-0.17357 0,0 0.23415,1.28985 0.64505,1.66185 0.2884,-0.0651 1.19063,-0.3937 0.52097,0.22331 0.0124,0.17886 0.1069,0.54478 -0.54557,0.39688 -0.24183,0.4609 -0.4371,0.62626 -0.69453,0.57044 -0.42016,0.29051 -0.8046,0.76173 -1.289848,1.51315 -0.224896,0.0743 -0.446617,-0.29766 -0.669661,-0.1487 -0.07435,0.1487 0.372005,0.29766 0.297657,0.44662 0,0 -0.486834,0.372 -0.868098,0.66966 -0.210873,0.16325 -0.289984,0.23574 -0.471223,0.372 -0.04498,0.27173 -0.471223,0.64506 -0.545571,0.8681 0,0.1487 0.223308,0.22331 0.223308,0.29766 -1.040341,0.72443 -2.531533,2.28203 -1.562629,2.65403 0.232569,0.0931 0.418571,0.16114 0.570442,0.19844 0.150283,0.0392 0.255852,0.0558 0.347133,0.0497 0.181504,-0.0124 0.2667,-0.11879 0.347133,-0.24818 0.07911,-0.127 0.162719,-0.28522 0.322528,-0.44661 0.15822,-0.15928 0.40005,-0.31115 0.81862,-0.42175 0.02646,0.008 0.04815,0.0175 0.07435,0.0249 1.269736,0.3691 2.238639,0.83714 3.075779,1.11628 0.77524,-0.64294 1.51157,-0.74401 2.40613,0.1487 2.00924,2.08571 0.17198,1.53775 0.54557,2.72838 0.186,0.52096 0.33496,0.81544 0.42174,0.99219 0.0852,0.17674 0.11166,0.23574 0.0728,0.27278 -0.29765,0.29766 -0.54266,0.66252 -0.86809,0.96732 0.22489,0.52096 1.13797,0.39899 1.71159,0.44661 0.26193,0.0744 0.78449,0.33391 1.21549,0.47123 0.62945,0.20161 0.59373,-0.59531 1.19063,-0.29766 3.12684,-1.06045 1.5875,-4.23942 3.96875,-5.87878 0.57044,-0.58287 1.13956,-0.2667 1.48828,-0.744 0.29924,0 0.76888,0.14869 0.99219,0 0.52255,-0.52097 -0.23416,-0.5551 0.49609,-1.68672 0.5752,-0.59955 0.9316,-0.0836 0.99219,-1.01706 0.0759,-0.0744 -0.14738,0 -0.22331,-0.0744 -0.37201,-0.372 0.19844,-0.99219 0.42174,-1.06653 0.3736,-0.22331 0.91784,-0.29766 1.3642,-0.22331 0.44794,0.0744 1.24036,0.44661 1.68671,0.372 0.52256,-0.0743 0.17357,-0.54557 0.62019,-0.76888 0.37359,-0.14869 1.14088,-0.32252 1.51315,-0.47122 2.29605,-1.32715 0.12409,-1.26286 0.27279,-2.4556 0.045,-1.26206 1.31153,-0.29157 0.86809,-1.98437 0,0 -0.67442,0.14472 -1.26497,0.27278 -1.02791,0.22622 -2.23388,0.49927 -2.28203,0.54557 -0.44662,0.29766 -0.0233,1.01706 -0.47122,1.24037 -0.29766,0.1487 -0.64347,0.0992 -0.94245,-0.0497 -0.22331,-0.0743 -0.127,-0.60457 -0.32253,-0.4961 -0.34581,0.19421 -0.16589,1.10385 -0.86809,1.76107 -0.21405,0.19129 -0.59055,0.44027 -0.76888,0.57044 -1.05278,-0.23257 -1.65577,-0.59002 -2.40612,-1.14088 -2.28204,-1.7362 -3.3237,-2.97656 -3.96875,-3.72057 -0.64506,-0.74401 -0.74401,-0.94245 -0.74401,-0.94245 0,0 -0.24183,0.27596 -0.52097,0.19844 -0.22939,0.0889 -0.13176,0.20664 -0.17356,0.372 0.0156,0.19421 0.4945,0.35666 0.84349,0.34714 0.0217,0.372 0.25585,0.43921 0.59531,0.74401 0.0418,0.83608 0.26035,0.99218 0.66966,0.62018 0.13176,0.13652 0.26511,0.30692 0.39688,0.42175 0.21246,0.18494 0.48842,0.50138 0.79375,0.76887 -0.22173,0.17357 -0.50218,0.23469 -0.69454,0.29766 -0.245,-0.1053 -0.21854,-0.39158 -0.57044,-0.32253 -0.35031,0.0714 -0.91942,0.32465 -0.74401,0.1487 0.17675,-0.17463 0.0466,-0.17992 -0.0233,-0.49609 -0.0714,-0.31433 -0.16589,-0.16537 -0.44662,-0.0249 -0.28204,0.14156 0.2929,-0.48683 0.17357,-0.81862 -0.14102,-0.38549 -0.94721,0.91996 -1.01706,1.33932 -0.0714,0.42175 -0.0373,0.31618 -0.42174,0.42175 -0.38603,0.1053 -0.031,-0.29157 0.0728,-0.81862 0.1053,-0.52493 -0.0373,-0.31009 0.34713,-0.52096 0.38603,-0.20876 0.22622,-0.3048 0.0497,-0.44662 -0.17515,-0.13944 -0.28072,-0.31433 -0.42174,0 -0.13944,0.31618 0.0542,0.34713 -0.29766,0.34713 -0.35031,0 -0.19526,0.12912 -0.24818,0.34714 0.21087,0.24712 0,0.2233 -0.27278,0.2233 -0.2667,0 -0.49134,-0.001 -0.42175,-0.24818 0.33337,-0.30691 0.5117,-0.51276 0.54557,-0.79375 -0.0169,-0.20875 0.0278,-0.32358 0.27279,-0.29765 0.38602,-0.10531 0.27913,-0.0693 0.17356,-0.42175 -0.10398,-0.35031 0.10398,-0.26776 0.17357,-0.62018 0.0714,-0.35031 -0.16272,-0.42889 -0.19844,-0.1487 -0.0341,0.28099 -0.3937,-0.21087 -0.57044,0 -0.17515,0.21088 -0.3519,0.34634 -0.24818,0.52097 0.10531,0.17568 -0.28522,0.59425 -0.49609,0.76888 -0.20929,0.17568 -0.36116,0.0992 -0.81862,0.0992 -0.45588,0 0.127,0.38338 -0.22331,0.76887 -0.32703,0.36169 -0.0836,-0.58605 -0.74401,-0.64505 -0.83873,-0.44344 -1.16284,-0.29766 -0.89297,0.0992 0.25903,0.37835 -0.35348,-0.0466 -0.372,0.47122 -0.25427,-0.35031 -0.4744,-0.66463 -0.54557,-1.01706 -0.0699,-0.3503 -0.47123,0.27279 -0.47123,0.27279 l -0.7194,-0.57044 c 0.64506,-0.7194 0.41698,-0.25109 0.94245,-0.32253 0.52705,-0.0693 0.6387,0.13838 1.33932,0.34713 0.7022,0.21088 0.80142,-0.1053 0.52096,-0.42174 -0.28072,-0.31433 0.45879,-0.17357 -0.12409,-1.01706 -0.23865,-0.34528 0.23866,-0.2368 0.69453,0.1487 0.68527,0.49186 0.84641,1.3208 0.66966,0.49609 -0.059,-0.28205 -0.20452,-0.49609 0.0743,-0.49609 0.28073,0 0.31777,0.16748 0.84349,0.27278 0.52705,0.10531 0.0976,-0.0558 0.27279,-0.372 0.17674,-0.31433 0.22622,-0.17066 0.47122,0.0743 0.24659,0.24713 0.22781,0.0672 0.29766,-0.0743 0.0714,-0.13944 0.19076,-0.53631 0.47122,-0.39688 0.22013,0.1106 0.30083,0.0889 0.4961,0.0744 -0.0201,-0.0786 -0.0201,-0.127 0,-0.1487 0.1053,-0.0693 0.31776,-0.12514 0.42174,-0.0743 -0.045,-0.10637 -0.26035,-0.18098 -0.22331,-0.29766 0.0714,-0.20876 0.24818,-0.186 0.24818,-0.39688 0,-0.20875 0.059,-0.43709 0.19844,-0.29765 0.14102,0.14155 0.127,0.17568 0.372,0 0.2466,-0.17463 0.54425,-0.43709 0.71941,-0.89297 0.17674,-0.45588 0.44026,-0.79163 0.12409,-1.38906 -0.23575,-0.44662 -0.49001,-0.61701 -0.39688,-0.62019 0.16907,0.0124 0.26035,0.0114 0.52096,0.12409 0.34582,0.40931 0.32862,0.62627 0.69454,1.04193 -0.12251,1.25572 -0.51012,1.95342 -0.89297,2.13307 -0.48366,0.2294 -0.23416,0.48578 -0.29766,0.99219 0.37042,-0.23257 0.88371,-0.80301 0.94245,-0.91784 0.2667,-0.5117 0.7194,-1.59173 0.64505,-2.43099 0.28681,-0.77523 0.45112,-0.78766 0.42175,-1.11628 0.22489,-0.29765 0.52096,-0.24818 0.66966,-0.54557 0.37359,-0.52096 0.372,-1.19062 0.74401,-1.63724 1.11786,-1.48828 1.8108,-1.59994 2.52994,-1.61237 0.0373,0.28522 0.31009,0.50853 0.4961,0.27278 0.38602,-1.0914 0.66966,-2.23255 2.45559,-2.60455 0.29925,0.58287 0.11166,1.86028 0.62019,1.19062 0.63394,-0.94244 -0.37201,-0.99219 -0.1487,-1.5875 0,-0.14869 1.9595,-2.25716 2.03412,-2.25716 0.29924,-0.14869 0.57044,0.54557 0.7194,0.32253 0.15028,-0.22331 0.19844,-1.86029 0.64505,-2.23256 0.5969,-0.44661 2.50534,-1.4388 3.24935,-1.5875 0.2249,0 0.32253,0.52097 0.47122,0.29766 0.2249,-0.29766 -0.0497,-0.49609 0.17357,-0.79375 0,-0.0744 0.0744,-0.0744 0.0744,-0.1487 0.2032,-0.11588 0.62785,-0.16854 1.01706,-0.44661 0.82947,-1.68672 0.89455,-1.67429 0.69453,-0.29766 0.89455,-0.43815 2.25425,-1.24116 2.35638,-1.68672 0.14869,-0.81862 -0.5551,-0.63262 0.59531,-1.14088 0.37359,-0.22331 0.84349,-0.42175 1.2155,-0.34713 0.18917,0.20373 0.35665,0.62309 0.47122,0.79375 0.11615,0.17065 0.73475,0.11059 0.79375,0.27278 0.0606,0.16431 -0.71464,0.0526 -0.57044,0.32253 0.0884,0.16325 0.17198,0.54266 0.17356,0.76888 -0.2233,0.29765 -0.51937,0.32252 -0.89297,0.39687 -0.0743,0 -0.17356,-0.0992 -0.32252,-0.0992 -0.44662,0.22331 -0.85117,2.42782 -2.52995,3.07579 -0.35507,-0.10531 -1.09458,-0.20876 -0.49609,1.61237 0.37676,-0.29766 0.70379,-0.92181 1.41393,-0.24818 -0.0341,0.65325 -0.87286,0.76491 -1.66185,0.84349 -0.0775,-0.28522 -0.49609,-0.47122 -0.64505,-0.39688 -0.66966,0.29766 -0.46964,1.09141 -0.99219,1.53776 -0.29765,0.22331 -0.66807,0.37201 -1.04193,0.44662 -0.29765,0 -0.74401,-0.44662 -0.89297,-0.1487 -0.14869,0.22331 0.34714,0.62019 0.57045,0.91784 2.13016,1.74758 2.23864,1.42822 2.60455,0.76888 0.52256,0.0744 1.57189,0.5797 1.86029,0.94245 0.67125,0.29765 1.26497,0.0992 1.86028,0.47122 0.22331,0.1487 0.4961,0.34713 0.42175,0.49609 -0.59531,0.96944 -1.73487,-0.27278 -2.25716,-0.0497 -0.59531,0.22331 0.003,0.54266 -0.0497,2.70378 -0.005,0.22331 0.15028,0.89297 0.0744,0.66966 -0.61225,-1.67217 -0.68369,-2.78739 -1.53776,-1.5875 -0.44662,0.44662 0.52096,2.18281 0.22331,2.92682 -0.22331,0.52097 -0.52097,0.74401 -0.59532,1.19063 0,0.2233 0.52097,0.372 0.44662,0.52096 -0.1487,0.44662 -0.96282,-0.94059 -0.74401,0.1487 1.17502,3.42 0.97049,-0.23257 1.71159,1.38906 0.0698,0.2077 -0.17198,0.43603 -0.14869,0.64505 0.003,0.0175 -0.005,0.0341 0,0.0497 0,0.12092 0.3085,0.29052 0.34713,0.34714 -0.52097,0.0743 -0.81703,-0.17357 -1.33932,0.0497 -0.29766,0.1487 -0.8681,0.84349 -1.16576,1.14088 -0.0743,0 -0.12409,-0.29765 -0.27278,-0.29765 -0.32412,0.0402 -0.51938,0.11985 -0.76888,0.14869 0.23707,0.28522 0.73792,0.40931 0.27279,0.69453 -0.74401,0.42678 -0.4961,-0.44661 -0.64506,-0.52096 -0.29766,-0.1487 -0.74268,-0.0744 -1.11628,-0.0744 -0.372,0 -0.67759,-0.34713 -1.11627,-0.0743 -0.12568,0.43604 -0.0852,0.59743 0.0249,0.74401 0.25109,-0.20161 0.44661,-0.34713 0.44661,-0.34713 0,0 0.0619,0.25003 0.0992,0.76888 0.37201,0.22331 0.32253,-0.7194 0.69453,-0.42175 1.05119,0.78952 -2.70377,1.63724 -1.51315,2.3069 1.00304,0.42995 2.33151,-0.54557 3.96875,0.0497 2.01084,0.39687 1.86029,2.13307 3.69597,2.00924 0.0743,0 1.46341,-0.29766 2.05872,-0.47122 -0.69453,-0.8681 -1.56263,-0.99219 -0.19844,-0.81862 1.66185,1.63724 2.00925,0.91784 3.12526,1.93463 1.21708,0.1487 1.9595,-0.27278 3.29909,-0.34713 1.34091,-0.0744 3.79518,1.63724 5.06016,2.15794 1.3409,0.59743 2.62943,1.63724 4.04309,2.00924 l 0.0744,-0.0743 1.48828,0.744 0.81862,0.0744 c 0,-3.49858 0.89297,-1.63512 3.12526,-2.6789 0.37201,-0.1487 0.52097,-0.66966 0.89297,-0.74401 0.96891,-0.22331 1.93463,0.74401 2.90222,0.59531 0.14869,0 2.08359,-0.89297 2.3069,-0.89297 0.5969,0.0744 1.11627,0.66966 1.71159,0.66966 0,0 3.27422,-1.26497 3.34856,-1.26497 0.2712,-0.17674 0.42784,-0.31009 0.4961,-0.42175 0.42783,-0.68209 -2.20134,-0.30797 1.51315,-1.14088 0.5969,-0.0744 1.19062,0.22543 1.71159,0.0744 0,0 1.41393,-1.04193 2.52995,-0.74401 0.14869,0.0743 0.0743,0.372 0.2233,0.52096 0.29766,0.1487 0.66966,0.29766 1.04193,0.37201 1.71318,0.14869 3.64623,-0.44662 5.35782,-0.37201 0.44661,0 -0.81863,1.48829 0.29765,1.48829 2.9038,0 2.23256,-3.12341 4.46485,-4.16719 0.67124,-0.29766 1.41393,1.04193 1.93463,0.66966 0.44662,-0.37201 -0.37201,-1.71159 0.22331,-1.78594 2.30849,-0.372 2.08359,0.59531 3.72057,0.59531 0.44661,0 0.66966,-0.66966 1.04193,-0.81862 0.44661,-0.14869 0.96731,-0.14869 1.41393,-0.22331 0.82021,0 0.44662,2.4556 0.59531,2.90222 0,0.0744 0.1487,0 0.22331,0 h 1.04193 c 0.29766,0 0.69453,-0.0744 0.99219,0 0.29765,0.1487 0.44661,0.59531 0.66966,0.59531 0.0743,0 1.86028,-0.89297 1.93463,-0.89297 0.22331,0 0.52097,0.29766 0.81862,0.29766 0.29766,0.0744 1.33932,-0.44662 1.63724,-0.372 0.1487,-0.0744 0.37201,-0.22331 0.66966,-0.37201 h 0.0743 l 1.41394,0.59531 c 0.44661,0.22331 2.15794,0.81862 2.3069,0.81862 0.22331,0 0.22331,-0.52096 0.44661,-0.44661 4.31906,1.11839 0.22331,0.44661 1.93464,1.71159 1.11786,0.82073 3.79518,-0.51885 4.53919,-1.33932 0.22331,-0.22331 -0.29766,-2.15583 -0.0744,-2.82787 1.19221,-3.20093 0.37201,-0.88979 1.56263,-5.1345 v -0.22331 c -0.0743,0 -0.1487,-0.0743 -0.22331,-0.0743 h -0.0743 -0.0743 -0.0744 c -0.44662,0 -0.81704,0.372 -1.26497,0.22331 -0.52097,-0.22331 -0.81704,-0.81862 -1.26498,-1.19063 -0.74401,-0.52096 -4.23995,-2.52994 -4.98581,-2.75325 -0.29765,-0.0744 -0.59372,0.29765 -0.96731,0.22331 -0.52097,-0.1487 -1.11628,-1.78594 -1.26498,-1.93464 -0.14869,-0.14869 -0.44502,0.0744 -0.66966,0 -0.44661,-0.0743 -1.04034,-0.0992 -1.41393,-0.47122 -1.33932,-1.33932 -0.44662,-1.56051 -0.59531,-2.90221 0,-0.22331 -0.37042,0.52096 -0.59531,0.372 -0.74401,-0.52096 -0.66808,-1.78382 -0.89297,-2.52995 -0.1487,-0.44661 -0.29766,-0.9652 -0.37201,-1.48828 -0.0743,-0.59531 0.37359,-1.26497 0,-1.71159 -0.22331,-0.29765 -0.81862,0.22331 -0.96731,0.59532 -0.0744,0.0743 0.89296,2.82786 1.04193,3.57187 0,0.0743 -0.1487,0.15081 -0.22331,0.0743 -1.33932,-1.04193 -0.44662,-0.89085 -0.59532,-2.67891 0,-0.22331 -2.082,-1.48828 -2.75325,-2.00924 -0.372,-0.22331 -0.46964,-0.81862 -0.91784,-0.96732 -0.29766,-0.0744 -0.59372,0.44662 -0.89297,0.29766 -0.44661,-0.0743 -0.59372,-0.81862 -1.11628,-0.81862 -2.00924,-0.22331 -1.18903,1.56474 -2.6789,-0.1487 -1.26497,-1.48828 0.59531,-2.00713 0.59531,-3.19987 0,-0.52097 -0.89297,-1.11628 -0.52096,-1.41393 0.37359,-0.29766 0.66966,0.81862 1.11627,0.89296 0.5969,0 -0.66966,-0.96731 -0.66966,-1.56262 0,-0.22331 0.52097,-0.22331 0.52097,-0.44662 0.14869,-0.74401 -0.52097,-1.56263 -0.37201,-2.3069 0,-0.1487 0.52097,-0.0743 0.44662,-0.22331 0,-0.44662 -0.44662,-0.66966 -0.52096,-1.04193 -0.0744,-0.37227 0.29765,-0.74401 0.14869,-1.04193 -0.14869,-0.1487 -0.66966,0.22331 -0.66966,0 -0.0744,-0.22331 0.52097,-0.0744 0.59531,-0.29766 v -0.0743 -0.0743 -0.0744 -0.1487 -0.0743 c 0,-0.1487 0,-0.29766 -0.0743,-0.44662 v -0.1487 -0.0743 -0.0744 c 0,0 0,-0.0744 -0.0744,-0.1487 v -0.0744 c 0,-0.0743 0,-0.14869 -0.0728,-0.14869 -0.0156,-0.0569 -0.031,-0.0961 -0.0497,-0.1487 h 0.0497 0.44661 c 0.22331,0 0,-0.44661 -0.2233,-0.66966 -0.29925,-0.372 -0.89297,-0.51885 -1.26498,-0.96731 -0.0759,-0.0744 0.29607,-0.0744 0.52097,-0.0744 0.52096,0.14869 1.18903,1.11839 1.86028,0.59531 0.29766,-0.22331 -0.44794,-0.66754 -0.372,-1.11628 0.0744,-0.89297 0.14737,0.37412 0.96732,-0.372 0.44661,-0.44662 0.81703,-0.89085 1.11627,-1.41393 0.0744,-0.22331 -0.22489,-0.52097 -0.14869,-0.74401 0.14869,-0.22331 0.59372,-0.1487 0.66966,-0.37201 0.29765,-0.59531 -0.2249,-1.48828 0.372,-1.78593 0.29766,-0.1487 2.40612,1.56474 1.81081,0.2233 -0.44794,-0.81862 -2.1844,-0.89085 -1.9595,-1.86028 0.14869,-0.81862 0.32093,0.59743 1.14088,0.0744 0.29765,-0.1487 -0.69612,-0.37201 -0.62018,-0.59532 0.44661,-1.11627 1.58591,2.53312 1.88515,-1.33932 v -0.0743 -0.0743 -0.0744 h -0.0744 v -0.0744 -0.0743 -0.0722 c -0.0743,0 -0.0743,-0.0743 -0.0743,-0.0743 0,-0.0743 0,-0.14869 -0.0743,-0.2233 v -0.1487 c -0.0744,-0.15081 -0.1487,-0.29766 -0.22331,-0.52096 l -0.22331,-0.67178 c -1.56422,0.0743 -6.12828,0.96943 -5.60599,-1.04193 0.372,-1.33932 1.26338,-0.22331 1.71159,-0.22331 0.372,-0.0744 1.41393,-1.26497 0.96732,-1.86028 -0.7456,-0.89297 -2.23256,-0.89297 -3.27422,-1.56263 -2.30849,-1.48828 -3.57029,-2.90222 -6.39974,-3.64623 -1.19222,-0.29765 -1.71159,1.19063 -2.67891,1.48828 -0.5969,0.1487 -1.19063,-0.0743 -1.71159,0 -0.0744,0.0744 0.66966,1.48829 0.52096,1.63725 0,0 -2.00924,-0.29766 -2.08359,-0.29766 0,-0.0743 -0.0743,-0.1487 -0.0743,-0.1487 0.0743,-0.14869 0.29766,-0.372 0.1487,-0.44661 -0.37359,-0.37201 -0.96732,-0.37201 -1.26497,-0.81862 -0.1487,-0.1487 0.29765,-0.22331 0.372,-0.37201 0.0743,-0.29765 0.22331,-0.66966 0.0743,-0.81862 -0.15029,-0.14869 -0.44662,0.29766 -0.66966,0.1487 -0.44794,-0.22331 -0.0743,-1.19063 -0.59532,-1.33932 -0.52255,-0.1487 -4.09283,0.74401 -4.31588,0.59531 -0.29924,-0.29766 -0.14869,-0.89297 -0.22331,-1.33932 -0.15028,-1.11628 -0.74401,-2.99932 -0.59531,-4.11745 0.1487,-1.04193 0.96732,-1.63512 0.44662,-2.90221 -0.44794,-0.89297 -1.78594,-0.22331 -2.23256,-0.59531 0,0 -1.86028,-5.0591 -1.78593,-5.28241 0,-0.89297 1.19062,-1.33932 1.11627,-2.97656 0,-0.37201 -0.66966,-0.52097 -0.81862,-0.66966 -0.67125,-0.96732 0,-2.4556 0.29766,-3.27422 0.22331,-0.44662 3.27263,0.81862 3.57187,0.96731 2.60456,1.11628 3.71925,3.57347 5.50651,-0.744 0.0743,-0.29766 0.0743,-0.66966 0,-0.96732 -0.44794,-1.41552 -0.52096,0.22331 -1.11628,-0.29766 -0.2233,-0.14869 -0.0743,-0.59531 -0.2233,-0.81862 -0.44794,-0.44661 -2.23256,-2.60456 -2.75326,-2.97656 0,0 -0.74401,0.372 -0.74401,-0.0743 0,-0.22331 1.41235,-0.0744 1.71159,-0.66966 0.0743,-0.14869 0.52097,-2.4556 0.52097,-2.52994 0.0744,-0.1487 0.29765,-0.0743 0.372,-0.22331 0.29766,-0.37201 0.52097,-0.81862 0.66966,-1.19063 0.1487,-0.44661 -1.78752,-0.44503 -1.19062,-2.38125 0.22331,-0.66966 1.41234,-0.44661 1.78593,-0.96731 0.29766,-0.52096 0.0728,-1.11627 0.29766,-1.63724 0.29766,-0.44661 0.81703,-0.66966 1.11628,-1.11627 0.0744,-0.1487 0.52096,-2.67891 0.52096,-2.75326 0,-0.66966 -1.11786,-0.89297 -0.59531,-1.71159 0.74401,-1.41552 0.66807,2.01084 1.19063,-0.29765 0.0667,-0.2032 -1.06654,-1.04035 -1.11628,-1.19063 0.44661,-0.14869 0.89138,0.1487 1.33932,0.0743 1.26497,-0.29766 0.96573,-1.86028 2.60456,-0.96732 0.81862,0.44662 -1.19222,1.56263 0.22331,1.41394 1.33932,-0.0744 0.59372,-0.59531 1.04192,-1.48828 0.37201,-0.74401 0.81704,0.96731 1.11628,0.44661 0.59531,-1.19221 -1.19221,-1.56263 -0.22331,-2.75325 0.22331,-0.22331 0.74269,-0.1487 0.96732,-0.44662 0.372,-0.44661 0.44662,-0.99219 0.59531,-1.51315 0.0744,-0.0744 -0.14869,-0.44662 0,-0.372 0.96732,0.44661 1.56104,1.4388 2.4556,1.9595 0.66966,0.29766 3.04932,-2.85247 3.94388,-3.15013 2.97815,-0.96732 0.81703,0.96732 3.12526,1.04193 0.52096,0 0.91625,-0.59531 1.51315,-0.74401 2.52995,-0.52096 0.66807,0.22331 2.15794,0.89297 0.37201,-0.22331 0.52097,-0.29766 0.52097,-0.29766 0.0743,0 2.3069,-0.0744 2.3069,-0.0744 0.29765,0 0.0743,0.59532 0.14869,0.89297 0.1487,0.44662 0.37042,0.99219 0.74401,1.36419 0.22331,0.37201 0.66808,0.37201 1.04193,0.1487 -0.0325,0.0635 -0.0619,0.11615 -0.0992,0.17357 0.0651,-0.0836 0.13653,-0.17357 0.17357,-0.24818 0.22331,-0.74401 -1.19063,-2.25716 -1.56263,-2.77813 -0.37359,-0.44661 -0.96732,0.22331 -1.19062,0.0744 -0.29925,-0.14869 -0.29766,-0.59531 -0.22331,-0.89297 0.0278,-0.33496 0.19685,-0.52546 0.47122,-0.64505 0.67601,-1.31762 4.74848,0.34581 5.70495,0.27279 v 0.0743 c 0.0743,-0.1487 0.14869,-0.29766 0.29765,-0.29766 0.0744,-0.0373 0.1487,-0.0185 0.22331,0 -0.0651,-0.0185 -0.11165,-0.0373 -0.1487,-0.0744 0.0743,-0.1487 0.1487,-0.29766 0.29766,-0.372 0.44662,0 0.96573,0.44661 1.41393,0.52096 0.1487,-0.74401 0.66966,-3.12526 0.66966,-3.12526 0,-0.372 -0.9689,-1.11628 -0.66966,-1.56263 0.0482,-0.14578 0.16272,-0.15822 0.29766,-0.17356 0,-0.12859 0.005,-0.20453 0.0744,-0.27279 0.0714,-0.1442 0.35031,-0.1487 0.57044,-0.1487 0.36433,-0.92233 -0.91943,-1.30386 -0.49609,-2.00924 0.0743,0 0.14737,0 0.372,0.0744 -0.0743,-0.1487 -0.0743,-0.29766 0.0744,-0.44662 0,-0.0744 0.74268,0.22331 1.26497,0.29766 -0.0759,-0.29766 -0.52096,-0.29766 -0.66966,-0.52097 -0.0558,-0.2233 0.31327,-0.558 0.7194,-0.84349 -0.09,0.059 -0.18441,0.11324 -0.27278,0.17357 0.21405,-0.28681 0.75803,-0.64347 1.06653,-0.8681 -0.0124,0.014 -0.014,0.0373 -0.0249,0.0497 0.0744,0 0.0744,-0.0744 0.0744,-0.0744 0.17515,-0.23574 0.25426,-0.60298 0.52096,-0.66966 0.1487,-0.1487 0.22173,-0.29766 0.44662,-0.372 0.0744,0 1.63566,1.11627 2.38125,1.04193 0.0744,-0.22331 -0.22489,-0.52097 -0.0743,-0.74401 0.0836,-0.12568 0.22014,-0.18601 0.37201,-0.22331 v -0.1487 c 0.14869,-0.14869 0.37041,-0.22331 0.59531,-0.22331 -0.29924,-0.44661 -1.48987,-1.33932 -0.96732,-1.78593 0.0852,-0.0852 0.65723,-0.28073 1.19063,-0.52097 -0.35031,0.14261 -0.72549,0.26829 -0.96732,0.37201 0,-0.0744 0.0743,-0.1487 0.1487,-0.22331 0.14869,-0.1487 1.18903,-0.44662 1.71159,-0.81862 0.0743,-0.37201 -0.89297,-0.66966 0.0743,-1.11628 l 0.1487,-0.0744 c 0.1487,0.0744 0.29607,0.372 0.52097,0.372 0.372,-0.0743 0.59372,-0.44661 0.89296,-0.52096 0.89297,-0.372 0.74269,0.66966 0.96732,1.11628 0.1487,0.14869 0.29607,0.22331 0.44662,0.22331 0.14869,0 0.22172,-0.29766 0.372,-0.29766 0.1487,0.0744 0.14737,0.52096 0.37201,0.52096 0.2233,0.0744 0.29606,-0.372 0.52096,-0.44661 0.22331,0 0.29607,0.22331 0.44662,0.29765 0.372,0.0743 0.66807,0.1487 0.96731,0 0.40455,-0.1008 0.74401,-0.27119 1.06654,-0.47122 v -13.5437 c -0.2249,0.17833 -0.44344,0.33496 -0.69453,0.47122 -0.82021,0.44662 0.0744,-1.71159 -0.59531,-1.48828 -1.19222,0.372 -1.63725,1.71159 -2.90222,0.89297 -0.82021,-0.59532 0.29607,-0.66966 0.52097,-1.19063 0.372,-0.66966 -0.15029,-1.48828 0.14869,-2.15794 0.22331,-0.372 0.74269,-0.52096 0.89297,-0.89297 0.0744,0 0.44662,-2.90221 0.44662,-2.90221 -0.2249,-0.52097 -0.89297,-0.74401 -1.48828,-0.89297 -0.2249,-0.0744 -0.52097,0.372 -0.74401,0.29765 -0.37359,-0.14869 -0.37201,-0.66966 -0.66966,-0.744 -0.29925,-0.1487 -0.52097,0.29765 -0.81862,0.2233 -1.11787,-0.0744 0.44502,-3.05091 -0.0743,-3.49752 -0.15029,-0.1487 -0.74401,0.14869 -0.66966,-0.0743 0,-0.44662 0.51937,-0.74401 0.81862,-1.11628 0.22331,-0.372 0.37041,-0.89297 0.74401,-1.11628 0.372,-0.2233 0.89138,0.22331 1.19062,0 0.37201,-0.2233 0.37042,-0.91784 0.74401,-1.21549 0.44662,-0.29766 1.86029,-0.29766 0.66966,-1.86029 -0.5969,-0.74401 -1.71159,0.52097 -2.00925,0.59531 -0.37359,0.1487 -0.744,-0.22489 -1.11627,-0.0743 -0.2249,0.1487 -1.26498,2.03412 -2.52995,1.5875 -0.5969,-0.14869 -1.34091,-1.9595 -0.74401,-2.10846 0.29766,-0.0743 0.59373,0.372 0.81862,0.1487 0.29766,-0.29766 0.37201,-0.81862 0.29766,-1.19063 -0.29924,-1.04193 -1.19062,-0.29765 -1.33932,0.0743 -0.0759,0.22331 0.29766,0.44662 0.1487,0.59531 0,0 -2.23256,1.26498 -2.30691,1.26498 -0.29924,0.0744 0.37201,-0.59532 0.52097,-0.89297 0,-0.1487 -0.29766,-0.22331 -0.37201,-0.37201 -0.0759,-0.44661 0,-0.89297 0,-1.33932 -0.15028,-0.96731 -2.23387,0.89297 -1.78593,-0.44661 0.66966,-1.86188 0.14737,-0.0744 0.89296,-0.37201 0.22331,-0.0744 -1.48986,-1.78594 0.0743,-2.15794 0.1487,0 0.96573,0.29766 1.19063,0.22331 0.14869,0 0.14737,-0.96732 0.74401,-1.19063 0.14869,-0.0744 0.22172,0.29766 0.44661,0.29766 0.29766,-0.0743 0.81862,-0.22331 0.81862,-0.59531 0,-0.37201 -0.744,-0.37201 -0.744,-0.66966 0.0743,-0.81862 1.04034,-1.33932 1.71158,-1.71159 0.22331,-0.1487 0.0728,0.52096 0.29766,0.66966 0.29766,0.22331 1.33932,0.29765 1.19063,-0.0743 -0.15029,-0.37201 -0.89297,-0.81862 -1.04193,-1.11628 -0.52256,-0.96732 1.41234,-1.93463 1.71159,-2.67891 0.14869,-0.2233 -0.44794,-0.372 -0.37201,-0.52096 0.1487,-0.37201 0.44503,-0.66966 0.66966,-0.96732 0.0744,-0.07435 0.29607,0 0.37201,-0.148694 0.372,-0.595312 0.0728,-1.562629 0.59531,-2.083594 0.29766,-0.223308 0.81703,0.07435 1.11628,-0.148695 1.33932,-0.967317 -0.52256,-0.744009 -0.37201,-1.116277 0.52097,-1.116278 1.26339,-2.083594 1.63724,-3.199871 0,-0.07435 0.0728,0.148696 0.1487,0.148696 1.26497,-0.148696 0.44503,-1.56263 1.26497,-1.71159 0.19844,-0.04498 0.37359,0.01085 0.54557,0.04974 v -1.438804 c -0.19843,-0.11774 -0.36592,-0.24818 -0.47122,-0.396875 -0.41381,-0.647965 0.14261,-0.823119 0.47122,-1.165755 v -0.520957 c -0.16272,-0.113242 -0.34263,-0.227806 -0.24818,-0.322527 0.0783,-0.06218 0.15584,-0.101071 0.24871,-0.148961 z M 80.639776,271.03256 l -0.07435,0.22331 c -0.05265,-0.0466 -0.07911,-0.10239 -0.124089,-0.1487 -0.106892,-0.15504 -0.31168,-0.37517 -0.570442,-0.57044 -0.0635,-0.0619 -0.130175,-0.0992 -0.198438,-0.14869 -0.01561,-0.009 -0.03572,-0.0156 -0.04974,-0.0249 -0.156634,-0.10346 -0.331788,-0.19527 -0.570442,-0.22331 -0.947208,-0.0693 -1.323975,-0.39688 -1.46341,-0.81862 -0.06191,-0.18389 -0.106892,-0.29157 -0.173567,-0.39688 0.03096,-0.0185 0.06826,-0.0278 0.09922,-0.0497 0,-0.009 -0.127,-0.0352 -0.173567,-0.0497 -0.09604,-0.0931 -0.232569,-0.18098 -0.520965,-0.27279 -0.167481,-0.0526 -0.303741,-0.0714 -0.396875,-0.0743 -0.08361,-0.003 -0.127,0.0185 -0.173566,0.0249 -0.02487,-0.009 -0.05265,-0.0156 -0.07435,-0.0249 -0.0217,0.003 -0.059,0.002 -0.07435,0 -0.01244,0 -0.01402,0.002 -0.02487,0 -0.03254,-0.0249 -0.05583,-0.0744 -0.09922,-0.1487 -0.07911,-0.13123 -0.155045,-0.24818 -0.173566,-0.32253 -0.02011,-0.0743 0.01561,-0.1053 0.124089,-0.0992 0.03572,0.003 0.0418,-0.0341 0.07435,-0.0497 0.03096,-0.0156 0.07752,-0.009 0.148696,0.0249 0.139435,0.0704 0.252677,0.14473 0.347133,0.22331 0.01561,0.0146 0.03413,0.0373 0.04974,0.0497 0.207698,0.18204 0.381265,0.33073 0.744008,0.27279 0.0061,0.003 0.01693,-0.003 0.02487,0 0.0635,-0.0103 0.119327,-0.0249 0.198438,-0.0497 0.770466,-0.24501 0.906991,-0.27067 0.942446,0.14869 0.02169,0.26353 0.254264,0.1913 0.446616,0.27279 0.03731,0.0175 0.06509,0.0423 0.09922,0.0743 0.06667,0.0651 0.122502,0.1725 0.148696,0.34713 0.631031,0.1053 0.751946,0.20664 0.892969,0.52096 0.139435,0.31618 0.79375,0.74401 0.79375,0.74401 z m 33.014974,-4.06797 c 0.57679,0.37201 1.42637,0.69453 1.86029,0.8435 -0.031,0.0608 -0.10399,0.20161 -0.12409,0.27278 -0.0714,0.35243 -0.44345,-0.22331 -0.79375,-0.22331 -0.3519,0 -0.50086,-0.1053 -1.16576,0 -0.66675,0.10531 -1.13638,-0.36989 -1.24036,-0.54557 0.22489,-0.27067 0.17832,-0.091 0.47122,-0.42174 -0.15346,-0.46911 -0.82312,-1.10067 -1.11628,-1.56263 0.80486,0.70352 1.59094,1.30413 2.10873,1.63697 z m 73.22344,-38.27356 c 0.186,-0.009 0.40931,0.0124 0.52096,0.0497 0.0744,0.0744 -0.003,0.19526 -0.0744,0.29766 -0.23415,-0.0434 -0.47598,-0.0931 -0.66966,-0.22331 -0.11192,-0.0746 0.037,-0.11483 0.22305,-0.12409 z M 6.5961311,149.26735 c 2.646e-4,0 2.646e-4,0 0,0 7.938e-4,0 0.00132,0 0.00159,0 z m -2.2555729,16.09831 c 0.4466167,0 -0.2248958,-1.19063 0.2233083,-1.41394 0.2233084,-0.0743 0.5209646,0.66966 0.5953125,0.44662 0.5209646,-1.78699 1.635125,-1.11654 3.3475083,-1.63698 0.76835,0.53155 0.904875,0.68951 1.5126227,0.99193 -0.061913,0.009 -0.089958,0.0667 -0.023283,0.19843 -0.1008066,-0.12409 -0.2510899,-0.25109 -0.446617,-0.2233 -0.4479395,0.0744 0,1.04193 -0.3720041,1.41393 -0.075935,0.0744 -0.3720042,-0.372 -0.4466167,-0.22331 -0.1502833,0.1487 0.074348,0.52097 0,0.81862 -0.3735917,0.96732 -1.1162771,0.66966 -1.3393208,0.74401 -0.1502833,0 -0.1486958,0.29766 -0.2976563,0.372 -0.3876145,0.19368 -0.8122708,0.34264 -1.1657541,0.52097 -0.05424,0.0278 -0.1256771,0.045 -0.1735667,0.0744 -0.074348,0 -0.074348,0.0743 -0.074348,0.14869 0,0.59532 0.1486958,1.26498 0,1.86029 -0.1502832,0.372 -0.6696603,1.11627 -0.9673165,0.81862 -0.8945563,-1.04325 0.8186208,-1.63724 0.6696604,-2.4556 -0.074348,-0.22331 -0.4466167,0.0744 -0.6696604,-0.0743 -0.4479396,-0.22331 -1.1162771,-0.372 -1.3393209,-0.89297 -0.071438,-0.13943 0.083608,-0.24341 0.2481792,-0.34713 0.1844146,-0.11933 0.3860271,-0.23865 0.3471333,-0.39687 -0.074348,-0.59532 -1.2665604,-0.81862 -1.0419291,-1.33932 0.1484312,-0.44662 0.8911166,0.59531 1.4136687,0.59531 z"
       id="path340" />
  </g>
</svg>
