<?xml version="1.0" encoding="UTF-8" standalone="no"?>
<!-- Created with Inkscape (http://www.inkscape.org/) -->

<svg
   width="210mm"
   height="297mm"
   viewBox="0 0 210 297"
   version="1.1"
   id="svg342"
   inkscape:version="1.1.1 (3bf5ae0d25, 2021-09-20)"
   sodipodi:docname="saxony.svg"
   xmlns:inkscape="http://www.inkscape.org/namespaces/inkscape"
   xmlns:sodipodi="http://sodipodi.sourceforge.net/DTD/sodipodi-0.dtd"
   xmlns="http://www.w3.org/2000/svg"
   xmlns:svg="http://www.w3.org/2000/svg">
  <sodipodi:namedview
     id="namedview344"
     pagecolor="#ffffff"
     bordercolor="#666666"
     borderopacity="1.0"
     inkscape:pageshadow="2"
     inkscape:pageopacity="0.0"
     inkscape:pagecheckerboard="0"
     inkscape:document-units="mm"
     showgrid="false"
     inkscape:zoom="0.7500982"
     inkscape:cx="397.28131"
     inkscape:cy="561.92642"
     inkscape:window-width="1920"
     inkscape:window-height="1027"
     inkscape:window-x="1912"
     inkscape:window-y="-8"
     inkscape:window-maximized="1"
     inkscape:current-layer="layer1" />
  <defs
     id="defs339" />
  <g
     inkscape:label="Ebene 1"
     inkscape:groupmode="layer"
     id="layer1">
    <g
       id="g482"
       transform="matrix(0.26458333,0,0,0.26458333,-107.82619,-140.6634)">
      <path
         id="path3965"
         fill="#f29f64"
         stroke="#000000"
         stroke-width="0.5"
         d="m 644.793,773.215 c -0.516,0.02 -1.02,0.211 -1.594,0.469 -1.154,0.516 -2.76,3.047 -3.656,2.531 -0.896,-0.508 -3.035,-2.195 -4.312,-1.688 -1.283,0.516 -4.031,1.039 -4.031,3.469 0,2.434 0.832,2.82 1.219,3.844 0.293,0.793 -1.277,1.254 -0.469,4.219 h 1.5 l -0.281,1.312 h 0.75 l 0.375,-0.375 c 0,0 1.5,-0.469 2.344,-0.094 0.844,0.375 0.375,1.219 0.375,1.219 l 0.75,0.656 -0.469,0.562 0.938,0.469 c 0,0 1.172,-0.375 1.594,0.281 0.422,0.656 0.938,1.594 0.75,2.438 -0.188,0.844 -1.312,0.656 -1.312,0.656 v 1.406 c 0.188,-0.094 -1.031,-0.516 -0.844,-0.938 0.187,-0.422 0.422,-0.516 0.375,-0.844 -0.047,-0.328 0,-0.516 0.281,-1.031 0.281,-0.515 -0.234,-0.609 -0.656,-0.281 -0.422,0.328 -0.75,0.844 -0.844,1.406 -0.094,0.562 -0.422,0.609 -0.75,1.219 -0.328,0.61 -0.422,0.844 -0.75,1.5 -0.328,0.656 -0.75,-1.125 -0.75,-1.125 h -1.312 l -0.375,0.656 c 0,0 0.188,0.609 0.188,1.125 0,0.516 -0.844,0.797 -1.031,0.375 -0.187,-0.422 -0.891,0 -1.031,0.562 -0.07,0.281 -0.264,0.375 -0.469,0.469 0.035,0.34 0.205,0.855 0.281,1.406 0.41,0.105 0.779,0.516 0.844,1.219 0.123,1.414 1.805,-0.543 2.062,0.094 0.252,0.645 0.123,1.617 -3.844,4.688 -3.973,3.078 -5.121,2.016 -4.219,1.5 0.896,-0.508 0.088,-2.906 0.088,-2.906 0,0 -2.449,1.113 -3.094,2.906 -0.639,1.793 1.441,1.441 1.312,2.719 -0.123,1.285 -1.594,1.219 -1.594,1.219 l 1.406,0.938 -0.275,1.219 h 0.088 c 0,0 0.521,-0.023 1.875,1.969 1.359,1.992 2.912,-0.062 3,0.75 h 0.094 c -0.094,-0.223 -0.105,-0.449 0.188,-0.656 1.131,-0.777 1.992,0.969 2.812,2.062 1.131,0.844 1.125,4.781 1.688,3.656 2.256,-4.5 3.375,-9.844 10.406,-10.969 0.85,0 3.938,2.531 5.062,1.125 0.85,-0.844 0,-2.531 0.844,-3.094 0.85,-0.844 2.531,0.559 3.375,-0.281 1.693,-1.125 2.062,-4.5 4.594,-5.062 0.85,-0.281 1.406,1.688 1.969,1.125 1.412,-1.125 0.844,-3.375 2.25,-4.5 1.693,-1.406 4.781,0.281 7.031,-0.844 0.568,-0.281 0,-1.688 0.562,-1.969 3.381,-1.969 8.156,-2.242 11.531,-5.062 1.131,-0.844 -3.938,-1.969 -3.375,-3.375 0.475,-1.328 0.949,-2.648 1.594,-2.438 0.885,0.293 1.26,1.441 1.875,1.406 0.621,-0.035 0.709,-0.445 1.031,-0.469 0.211,-0.012 0.404,0.223 0.562,0.375 0.234,0.031 0.422,0.043 0.656,0.094 2.291,0.535 2.279,0.77 2.062,1.781 -0.211,1.016 -0.1,1.43 0.188,1.5 0.293,0.07 0.592,-0.273 0.938,-0.469 1.049,-0.566 0.709,0.559 0.094,1.688 0.059,0.066 0.135,0.129 0.188,0.188 -0.275,1.336 0.832,1.625 1.875,1.781 0.557,0.371 1.113,0.582 1.594,0.469 0.668,-0.109 1.037,-0.961 1.406,-2.156 0.006,-0.004 0.094,0.012 0.094,0 7.02,1.133 1.629,-4.457 4.031,-5.625 -0.381,-1.148 -1.957,-0.25 -2.344,-1.406 -0.381,-1.152 -0.908,-0.824 -2.062,-1.594 -1.148,-0.766 -0.463,-2.066 -1.875,-1.688 -1.406,0.387 -0.984,0.383 -1.5,-1.031 -0.51,-1.406 -1.447,-0.797 -2.344,-2.719 -0.897,-1.922 -1.828,-2.582 -2.344,-1.688 -0.51,0.898 -0.498,1.215 -1.781,0.188 -1.277,-1.023 0.703,2 -1.219,0.844 -1.916,-1.152 -5.068,-2.438 -6.094,-2.438 -1.02,0 -2.391,0.316 -4.312,0.188 -1.916,-0.129 -2.355,0.242 -3,0.75 -0.639,0.516 -1.213,-0.789 -2.625,-0.281 -1.406,0.516 -2.936,0.688 -4.219,-0.469 -1.277,-1.152 -2.209,-1.316 -3.75,-0.938 -1.535,0.387 -2.033,3.129 -3.188,3 -1.148,-0.129 -2.959,-2.062 -4.5,-2.062 -1.535,0 -2.543,-0.012 -3.188,-0.656 -0.316,-0.316 -0.797,-0.484 -1.312,-0.469 z" />
    </g>
  </g>
</svg>
