<?xml version="1.0" encoding="UTF-8" standalone="no"?>
<!-- Created with Inkscape (http://www.inkscape.org/) -->

<svg
   width="210mm"
   height="297mm"
   viewBox="0 0 210 297"
   version="1.1"
   id="svg3314"
   inkscape:version="1.1.1 (3bf5ae0d25, 2021-09-20)"
   sodipodi:docname="serbia.svg"
   xmlns:inkscape="http://www.inkscape.org/namespaces/inkscape"
   xmlns:sodipodi="http://sodipodi.sourceforge.net/DTD/sodipodi-0.dtd"
   xmlns="http://www.w3.org/2000/svg"
   xmlns:svg="http://www.w3.org/2000/svg">
  <sodipodi:namedview
     id="namedview3316"
     pagecolor="#ffffff"
     bordercolor="#666666"
     borderopacity="1.0"
     inkscape:pageshadow="2"
     inkscape:pageopacity="0.0"
     inkscape:pagecheckerboard="0"
     inkscape:document-units="mm"
     showgrid="false"
     inkscape:zoom="0.7500982"
     inkscape:cx="397.28131"
     inkscape:cy="561.25984"
     inkscape:window-width="996"
     inkscape:window-height="1018"
     inkscape:window-x="2835"
     inkscape:window-y="0"
     inkscape:window-maximized="0"
     inkscape:current-layer="layer1" />
  <defs
     id="defs3311" />
  <g
     inkscape:label="Ebene 1"
     inkscape:groupmode="layer"
     id="layer1">
    <path
       id="Serbia"
       fill="#aa9980"
       stroke="#000000"
       stroke-width="0.132292"
       d="m 128.05466,157.91266 c -0.46963,0.43418 -0.56436,0.47651 -1.21549,0.62018 -0.003,0.005 -0.0201,-0.004 -0.0249,0 -0.0482,0.058 -0.10239,0.12409 -0.14869,0.17357 -0.50536,0.54266 -0.22013,0.86519 -0.54557,1.5875 -0.32412,0.72231 -0.55351,0.431 -0.84349,-0.0744 -0.2884,-0.50535 -0.38127,-0.77523 -1.53776,-0.59531 -1.1565,0.18203 -1.38139,-0.18389 -1.56263,-0.54557 -0.17992,-0.36063 -0.4326,-0.37624 -0.79375,-0.12409 -0.36116,0.2532 -0.75512,0.0825 -1.11628,-0.0992 -0.36115,-0.17992 -0.5379,0.32253 -1.11628,0.7194 -0.57837,0.39688 -1.06045,0.73475 -1.71158,1.24037 -0.64956,0.50535 -0.86969,-0.15611 -1.33933,-0.44662 -0.46963,-0.28839 -0.0944,-0.79798 -0.34713,-0.94244 -0.25268,-0.14367 -0.69771,0.0497 -1.24037,0.44661 -0.54107,0.39688 -0.62309,1.01071 -0.76887,1.66185 -0.1442,0.65114 -0.6014,-0.46196 -0.81863,-0.17357 -0.21695,0.29052 -0.57202,-0.16219 -1.04192,0.59532 -0.44027,0.71199 -0.55669,0.32543 -0.27279,-0.64506 l -0.24818,0.64506 c 0,0 -1.31471,-0.24818 -1.51315,-0.34714 -0.13785,-0.0693 -0.0482,-0.51276 -0.0497,-0.84349 -0.0185,-0.0164 -0.0294,-0.031 -0.0497,-0.0497 0.0185,-0.0693 0.0124,-0.0775 0.0249,-0.12409 -0.0124,-0.063 -0.0124,-0.11589 -0.0498,-0.1487 -0.2233,-0.19843 -1.01705,-0.62018 -1.46341,-0.79375 -0.44635,-0.17356 -0.7194,0.19844 -0.94244,0.52097 -0.0992,0.14472 -0.22331,0.245 -0.34714,0.32252 0.003,0.0124 -0.003,0.0392 0,0.0497 0.18151,0.68738 0.37677,0.31326 0.12409,0.81862 -0.25267,0.50535 -0.1598,0.38126 -0.12409,0.66966 0.0373,0.29051 0.0683,0.59531 -0.14869,0.99219 -0.21696,0.39687 -0.57203,1.1131 -0.64506,1.4388 -0.0714,0.32544 0.24501,0.29051 0.0992,0.8681 -0.14419,0.57891 0.25744,0.93953 0.54557,1.26497 0.28999,0.32544 0.95806,-0.32544 1.06654,0 0.10848,0.32544 0.09,0.46725 0.59531,0.7194 0.50694,0.25321 0.68845,0.29343 0.8681,0.54557 0.1815,0.25321 0.34264,-0.0444 0.59531,0.0992 0.25268,0.14473 -0.0852,0.37412 -0.44661,0.84349 -0.36116,0.47017 -0.85117,0.1323 -1.53776,-0.0497 -0.68686,-0.17991 -0.29157,0.20982 -0.0743,0.57044 0.21696,0.36169 0.41249,0.43418 0.91784,0.8681 0.50694,0.43418 0.82471,0.51462 1.04193,1.16576 0.21722,0.65114 0.72549,0.76279 1.33932,0.94244 0.61542,0.18203 0.71781,0.13335 1.04193,0.0249 0.32544,-0.10848 0.59055,0.15505 0.84349,0.37201 0.25294,0.21695 0.8681,-0.24818 0.8681,0.14869 0,0.39688 0.36115,0.35851 0.79375,0.7194 0.43418,0.36169 0.46037,-0.0683 0.89297,0.1487 0.43418,0.21696 0.63103,0.28734 0.99218,-0.0744 0.36116,-0.36062 0.39212,-0.19235 0.64506,0.0249 0.25426,0.21696 0.39079,0.52599 0.57044,0.27279 0.1815,-0.25215 0.2077,-0.23257 0.49609,-0.12409 0.28999,0.10848 0.40614,0.53525 0.69454,0.57044 0.28998,0.0362 0.47598,-0.30189 0.62018,-0.44662 0.14578,-0.14366 -0.0294,-0.51276 0.22331,-0.69453 0.25426,-0.18097 1.01547,-0.36697 1.33932,-0.22331 0.32543,0.14473 0.40005,-0.11588 0.47122,-0.29765 0.0728,-0.17992 0.36116,-0.7411 0.79375,-1.06654 0.43418,-0.32543 0.71781,-0.0497 1.04193,-0.0497 0.32544,0 0.60933,-0.31115 1.04193,-0.34713 0.43418,-0.0352 0.5752,-0.28946 0.7194,-0.47123 0.14579,-0.17991 0.10848,-0.59531 0.39688,-0.59531 0.28998,0 0.39211,-0.27278 0.64505,-0.66966 0.25426,-0.39687 0.34713,0.0558 0.74401,0.66966 0.39846,0.61384 1.12077,0.0466 1.66185,0.37201 0.54266,0.32543 0.68844,0.0373 0.86809,-0.39688 0.18151,-0.43418 0.38603,-0.5498 0.81862,-0.69453 0.43419,-0.14367 0.65723,-0.36274 0.22331,-0.47122 -0.43259,-0.10848 -0.47281,-0.49292 -0.54557,-0.81862 -0.0714,-0.32544 -0.11006,-0.61172 -0.47122,-0.79375 -0.36116,-0.17992 -0.43418,-0.32967 -0.47122,-0.62019 -0.0357,-0.28839 -0.0418,-0.3638 -0.22331,-0.54557 -0.17992,-0.17991 0.0341,-0.40111 -0.0744,-0.54557 -0.10689,-0.14367 -0.20929,-0.17992 -0.17357,-0.39687 0.0373,-0.21696 0.008,-0.41328 -0.17356,-0.59532 -0.17992,-0.18097 -0.0294,-0.41857 0.22331,-0.744 0.25426,-0.32544 0.37994,-0.38127 0.59531,-0.27279 0.21696,0.10848 0.27278,-0.36909 0.27278,-0.69453 0,-0.27914 0.13785,-0.4527 0.69453,-0.79375 -0.002,-0.007 0.003,-0.0185 0,-0.0249 -0.1008,-0.2368 -0.47916,-0.20558 -0.86809,-0.47122 -0.0976,0.003 -0.18918,-0.0259 -0.29766,-0.0744 -0.6014,-0.27067 -0.42466,-0.29157 -0.47122,-0.59532 -0.35957,-0.31617 -0.62945,-0.59531 -0.19844,-0.69453 0.66516,-0.15293 0.77364,-0.26035 0.62018,-0.66966 -0.15187,-0.40931 0.21088,-0.55615 0.66966,-0.19843 0.46038,0.35851 0.71623,-0.66755 0,-0.71941 -0.71464,-0.0505 -0.97366,-0.1561 -1.5875,-0.7194 -0.0426,-0.0384 -0.063,-0.0632 -0.10001,-0.0995 z" />
  </g>
</svg>
