<?xml version="1.0" encoding="UTF-8" standalone="no"?>
<!-- Created with Inkscape (http://www.inkscape.org/) -->

<svg
   width="210mm"
   height="297mm"
   viewBox="0 0 210 297"
   version="1.1"
   id="svg2229"
   inkscape:version="1.1.1 (3bf5ae0d25, 2021-09-20)"
   sodipodi:docname="sweden.svg"
   xmlns:inkscape="http://www.inkscape.org/namespaces/inkscape"
   xmlns:sodipodi="http://sodipodi.sourceforge.net/DTD/sodipodi-0.dtd"
   xmlns="http://www.w3.org/2000/svg"
   xmlns:svg="http://www.w3.org/2000/svg">
  <sodipodi:namedview
     id="namedview2231"
     pagecolor="#ffffff"
     bordercolor="#666666"
     borderopacity="1.0"
     inkscape:pageshadow="2"
     inkscape:pageopacity="0.0"
     inkscape:pagecheckerboard="0"
     inkscape:document-units="mm"
     showgrid="false"
     inkscape:zoom="0.7500982"
     inkscape:cx="397.28131"
     inkscape:cy="561.92642"
     inkscape:window-width="1920"
     inkscape:window-height="1027"
     inkscape:window-x="1912"
     inkscape:window-y="-8"
     inkscape:window-maximized="1"
     inkscape:current-layer="layer1" />
  <defs
     id="defs2226" />
  <g
     inkscape:label="Ebene 1"
     inkscape:groupmode="layer"
     id="layer1">
    <path
       fill="#ee9f6b"
       stroke="#000000"
       stroke-width="0.132292"
       d="m 113.9388,103.20984 c 0.1487,0.1487 -0.22489,0.52097 -0.0743,0.52097 0.1487,0 0.52097,-0.0744 0.44662,-0.22331 -0.0296,-0.11483 -0.2032,-0.21405 -0.37227,-0.29766 z m 17.76016,-28.401431 c -0.44794,-0.967316 -1.09749,-1.753393 -1.7362,-2.579687 -0.32094,-0.413808 -0.64347,-0.841904 -0.91784,-1.314715 -0.27596,-0.47281 -0.50218,-0.992187 -0.66966,-1.5875 -0.0744,-0.372004 0.59531,-3.19987 0.52097,-4.092839 -0.0744,-0.596371 -0.57045,-1.116277 -1.09141,-1.637242 -0.52097,-0.520964 -1.06654,-1.041929 -1.28984,-1.562629 -0.11166,-0.186002 -0.11933,-0.381265 -0.0497,-0.595312 0.0683,-0.214048 0.19077,-0.446617 0.29766,-0.669661 0.10689,-0.223044 0.21855,-0.431006 0.22331,-0.645054 0.003,-0.214048 -0.0807,-0.434181 -0.32253,-0.620183 -0.18759,-0.148696 -0.56118,-0.04339 -0.8681,-0.02487 -0.15345,0.0093 -0.3085,-0.0077 -0.39687,-0.07435 -0.09,-0.06826 -0.11166,-0.198438 -0.0744,-0.421746 0,-0.297656 0.29766,-0.595312 0.22331,-0.892969 -0.11166,-0.894027 -0.39688,-1.349904 -0.54557,-1.785937 -0.0743,-0.218546 -0.127,-0.440267 -0.0992,-0.694531 0.0278,-0.255323 0.14102,-0.551921 0.34713,-0.942446 0.0743,-0.223309 -0.372,-0.223309 -0.52096,-0.372004 -0.2249,-0.223309 -0.40931,-0.499269 -0.59531,-0.76888 -0.18601,-0.26961 -0.37201,-0.5334 -0.66966,-0.645054 -0.1487,-0.07435 -0.29766,0.297657 -0.52097,0.223309 -0.29924,-0.148696 -0.0743,-0.818621 -0.372,-1.04193 -0.35507,-0.353483 -0.70062,-0.564356 -1.04193,-0.719402 -0.34264,-0.156633 -0.69771,-0.238654 -1.04193,-0.297656 -0.68845,-0.117739 -1.37663,-0.161131 -2.15794,-0.496094 -0.67125,-0.297656 -1.5674,-0.871273 -2.431,-1.513152 -0.86518,-0.641879 -1.69915,-1.351756 -2.3315,-1.835679 -0.1487,-0.09313 -0.18759,-0.144198 -0.17357,-0.198437 0.014,-0.05477 0.0683,-0.09763 0.12409,-0.148696 0.0558,-0.05107 0.0976,-0.116152 0.0743,-0.198438 -0.0233,-0.08255 -0.0992,-0.198437 -0.32253,-0.347133 l -0.0743,-0.04974 c -0.0185,-0.01085 -0.0325,-0.01561 -0.0497,-0.02487 -0.26987,-0.143669 -0.57838,-0.170657 -0.76888,-0.297657 h -0.0743 c 0.0185,0.0077 0.031,0.02487 0.0497,0.02487 h -0.1487 c -0.0635,0.01561 -0.13176,-0.0061 -0.19844,0 -0.40931,0.03572 -0.88688,-0.05583 -1.21549,0.04974 -0.0651,0.02011 -0.12251,0.059 -0.17357,0.09922 -0.0373,0.03519 -0.0714,0.07435 -0.0992,0.124089 -0.22331,0.372004 0.74401,0.595313 0.96732,0.967317 0.22331,0.446616 0.372,0.966258 0.372,1.488281 0,0.121973 -0.0341,0.232569 -0.0743,0.347133 -0.0341,0.09446 -0.0728,0.205582 -0.12409,0.297657 -0.006,0.0093 -0.0201,0.01561 -0.0249,0.02487 -0.11324,0.191294 -0.23574,0.38444 -0.372,0.570442 -0.0807,0.106892 -0.17992,0.189177 -0.24818,0.297656 -0.0558,0.08837 -0.0852,0.181504 -0.12409,0.272786 -0.0884,0.201612 -0.13017,0.421746 -0.0743,0.645054 0.0357,0.3302 0.68369,0.477573 1.04193,0.719402 0.005,0.0032 0.0185,-0.0042 0.0249,0 0.0373,0.02646 0.045,0.06826 0.0743,0.09922 0.14261,0.144198 0.17357,0.300831 -0.0497,0.570441 -0.15505,0.189177 -0.43259,0.426244 -0.89297,0.719402 -0.0807,0.05265 -0.22939,0.06932 -0.42175,0.04974 -0.006,-0.0016 -0.0185,0 -0.0249,0 -0.20002,-0.02328 -0.46037,-0.100806 -0.744,-0.173567 -0.006,-0.0016 -0.0185,0.0016 -0.0249,0 -0.58605,-0.15187 -1.2946,-0.392112 -2.03411,-0.595312 -0.008,-0.0032 -0.0169,0.0016 -0.0249,0 -0.36751,-0.100806 -0.73475,-0.198438 -1.09141,-0.272785 -0.009,-0.0016 -0.0169,0.0016 -0.0249,0 -0.35507,-0.07329 -0.70379,-0.127 -1.01706,-0.148696 -0.009,-0.0016 -0.0169,0 -0.0249,0 -0.62944,-0.0418 -1.12554,0.07329 -1.38906,0.396875 -0.42175,0.561181 1.20306,4.347104 0.14869,5.283464 -0.0635,0.059 -0.13943,0.111654 -0.2233,0.148696 l -2.38125,-1.041929 h -0.0249 c -0.0526,0 -0.0992,0.06006 -0.17356,0.124089 -0.57044,0.506413 -1.67111,2.553759 -1.736198,3.075782 -0.148696,0.818621 -0.148696,1.859227 -0.744008,2.604558 -0.0048,0.0048 -0.02011,-0.0053 -0.02487,0 -0.3302,0.38444 -0.851164,0.06668 -1.017058,0.396875 -0.05265,0.119327 -0.05583,0.310092 0,0.645054 0.297656,1.637242 2.232554,1.78435 1.413933,3.795183 -0.446617,1.264973 -2.902214,4.1656 -3.348567,5.506509 -0.148695,0.66966 0.818621,1.264973 0.595313,1.934633 h -0.02487 l -1.637242,1.413933 c -0.07435,0.03731 -0.15822,0.06191 -0.248179,0.07435 -0.08996,0.01085 -0.198437,0.0048 -0.297656,0 -0.192352,-0.01085 -0.398462,-0.04974 -0.595312,-0.07435 -0.0093,-0.0016 -0.01693,0 -0.02487,0 -0.153459,-0.01852 -0.288396,-0.01085 -0.421746,0 -0.059,0.0048 -0.122502,0.01085 -0.173567,0.02487 -0.0077,0.0016 -0.01852,-0.0032 -0.02487,0 -0.05741,0.01693 -0.102393,0.03863 -0.148695,0.07435 -0.06191,0.04657 -0.111655,0.114829 -0.148696,0.198438 l 0.744008,2.902214 v 0.02487 c -0.0077,0.04498 -0.372004,2.207683 -0.372004,2.282031 l 0.223308,2.753254 v 0.02487 c -0.02011,0.0635 -0.05741,0.125677 -0.09922,0.173567 -0.0048,0.0048 0.0048,0.01852 0,0.02487 -0.02778,0.03096 -0.06826,0.04657 -0.09922,0.07435 -0.04498,0.04022 -0.103981,0.059 -0.148696,0.09922 -0.02646,0.02328 -0.05265,0.04815 -0.07435,0.07435 -0.0048,0.0048 0.0032,0.02011 0,0.02487 -0.04022,0.04974 -0.08228,0.106892 -0.09922,0.173567 -0.0032,0.0061 0.0016,0.01693 0,0.02487 -0.165893,0.494506 -0.372004,0.984514 -0.570441,1.488281 -0.0032,0.0077 0.0032,0.01693 0,0.02487 -0.402961,1.013883 -0.83873,2.043377 -1.240367,3.075781 -0.0032,0.0061 0.0016,0.01693 0,0.02487 -0.200025,0.511704 -0.406135,1.023143 -0.570442,1.537758 -0.0032,0.0077 0.0016,0.01693 0,0.02487 -0.04815,0.155046 -0.06509,0.288396 -0.02487,0.396875 0.0016,0.0077 -0.0032,0.01693 0,0.02487 0.02011,0.04974 0.0635,0.0807 0.09922,0.124089 0.0048,0.0048 -0.0048,0.01852 0,0.02487 0.03731,0.04498 0.09763,0.08361 0.148696,0.12409 0.32094,0.252677 0.87286,0.455877 1.314715,0.892968 0.01561,0.01561 0.03413,0.03254 0.04974,0.04974 0.169069,0.178329 0.310092,0.3937 0.421746,0.66966 0.06191,0.153459 0.114829,0.327025 0.148696,0.520965 0.03413,0.195263 0.05106,0.401638 0.04974,0.645054 0,0.03572 0,0.06191 0,0.09922 -0.0032,0.162719 -0.02778,0.334962 -0.04974,0.520964 -0.0061,0.04181 0.0061,0.0807 0,0.12409 -0.0016,0.0093 0.0016,0.01561 0,0.02487 -0.03254,0.207698 -0.08228,0.384439 -0.12409,0.545571 -0.0016,0.0061 0.0016,0.01693 0,0.02487 -0.0418,0.156633 -0.09604,0.305329 -0.148695,0.421745 -0.0032,0.0061 0.0016,0.01852 0,0.02487 -0.05265,0.111654 -0.111655,0.195263 -0.173567,0.272786 -0.0048,0.0048 0.0032,0.01852 0,0.02487 -0.06668,0.08229 -0.144198,0.125678 -0.223308,0.173567 -0.07911,0.04789 -0.158221,0.07911 -0.24818,0.09922 -0.08678,0.01852 -0.176741,0.04974 -0.272785,0.04974 -0.19685,0 -0.407723,-0.02646 -0.645054,-0.07435 -0.342636,-0.07144 -0.717815,-0.173567 -1.140884,-0.223309 -0.01693,-0.0016 -0.03254,0.0016 -0.04974,0 -0.155046,-0.01693 -0.306917,-0.02487 -0.471223,-0.02487 -0.627856,-0.0032 -1.3208,0.136525 -2.083594,0.620184 -0.362744,0.223308 -0.826294,0.719402 -1.264973,1.314714 -0.294481,0.396875 -0.570441,0.831057 -0.818621,1.264979 -0.248179,0.43391 -0.458787,0.87127 -0.595312,1.24036 -0.06826,0.18442 -0.120915,0.34714 -0.148696,0.4961 -0.0093,0.0466 -0.0048,0.0791 0,0.12409 0.0032,0.0341 0.01402,0.0651 0.02487,0.0992 0.01402,0.0482 0.02646,0.1024 0.04974,0.1487 0.01244,0.0233 0.01085,0.0511 0.02487,0.0743 0.01402,0.0249 0.03413,0.0482 0.04974,0.0744 0.02487,0.0418 0.05265,0.0823 0.07435,0.12409 0.01693,0.0325 0.03572,0.0667 0.04974,0.0992 0.01085,0.031 0.02011,0.0683 0.02487,0.0992 0.0048,0.0373 0.0093,0.0868 0,0.12409 -0.07435,0.81862 -1.116278,1.338 -1.116278,2.15794 0,1.12554 0.01852,1.87907 0.04974,2.33151 0.01561,0.22622 0.02778,0.37677 0.04974,0.47123 0.01243,0.0574 0.03413,0.0852 0.04974,0.0992 0.0093,-0.005 0.03863,-0.006 0.04974,-0.0249 0.0032,-0.005 -0.0032,-0.0201 0,-0.0249 0.0093,-0.0233 0.03863,-0.09 0.04974,-0.12409 0.02937,-0.0992 0.06668,-0.23865 0.09922,-0.39687 0.06509,-0.31935 0.150283,-0.72866 0.223308,-1.14089 0.06985,-0.4138 0.13335,-0.82311 0.198437,-1.14088 0.03731,-0.17992 0.06509,-0.29607 0.09922,-0.39687 0.01693,-0.059 0.03254,-0.0683 0.04974,-0.0992 0.0016,-0.005 -0.0016,-0.0217 0,-0.0249 0.03572,-0.0542 0.07144,-0.0714 0.09922,0.0497 0.02487,0.0931 0.03254,0.34105 0.04974,0.62018 0.02778,0.45429 0.04974,1.08982 0.04974,2.18281 0,0.0558 -0.01085,0.096 -0.02487,0.1487 -0.01244,0.059 -0.02328,0.12091 -0.04974,0.17357 -0.09763,0.19526 -0.274373,0.3503 -0.372004,0.54557 -0.02487,0.0481 -0.03572,0.12091 -0.04974,0.17356 -0.01085,0.0498 -0.02487,0.0976 -0.02487,0.1487 -0.07435,0.52096 0.223308,0.96732 0.297656,1.48828 0,0.44662 -0.372004,0.96732 -0.297656,1.41393 0.01852,0.27914 0.09922,0.55351 0.223308,0.81863 0.12409,0.26511 0.283633,0.50852 0.446617,0.76887 0.0032,0.006 -0.0048,0.0185 0,0.0249 0.161131,0.25743 0.337873,0.50852 0.471223,0.76887 0.13335,0.26512 0.235743,0.53949 0.272785,0.81863 0.03731,0.40931 -0.01402,0.84031 -0.09922,1.28984 -0.0852,0.44953 -0.20611,0.92869 -0.322527,1.38906 -0.232569,0.92075 -0.434181,1.82325 -0.248179,2.60456 0.05583,0.21405 0.151871,0.40614 0.272785,0.57044 0.06059,0.0823 0.125678,0.15028 0.198438,0.22331 0.07276,0.0714 0.139435,0.13494 0.223308,0.19844 0.331788,0.25585 0.741098,0.46513 1.140884,0.66966 0.175154,0.09 0.351895,0.17674 0.520964,0.27278 0.02487,0.014 0.04974,0.0341 0.07435,0.0497 0.139435,0.0823 0.271198,0.17675 0.396875,0.27279 0.145785,0.11324 0.285221,0.22939 0.396875,0.372 0.04498,0.0574 0.08678,0.11007 0.12409,0.17357 0.05741,0.0931 0.110066,0.19077 0.148695,0.29766 0.03731,0.1008 0.05583,0.20611 0.07435,0.32252 l -0.81862,2.97657 v 0.0249 c -0.148696,0.13017 -0.348721,0.19843 -0.570442,0.24818 -0.221721,0.0497 -0.475985,0.0915 -0.694531,0.12409 -0.218546,0.0325 -0.409311,0.0728 -0.545571,0.14869 -0.06191,0.0373 -0.11774,0.0667 -0.148696,0.12409 -0.0032,0.005 0.0032,0.0185 0,0.0249 -0.02778,0.0574 -0.059,0.11483 -0.04974,0.19844 0.02328,0.20002 0.06509,0.37518 0.09922,0.54557 0.0016,0.006 -0.0016,0.0169 0,0.0249 0.03254,0.16113 0.05742,0.33179 0.09922,0.47122 0.0016,0.006 -0.0032,0.0169 0,0.0249 0.0418,0.13652 0.100806,0.25267 0.148696,0.372 0.04974,0.12568 0.09313,0.23707 0.148696,0.34713 0.110066,0.21855 0.229393,0.41249 0.347133,0.59532 0.09155,0.14261 0.184414,0.30691 0.272785,0.44661 0.07276,0.11774 0.134938,0.24342 0.198438,0.37201 0.04974,0.1008 0.106891,0.18441 0.148696,0.29765 0.01561,0.0402 0.03413,0.0807 0.04974,0.12409 0.0048,0.0169 0.01852,0.0325 0.02487,0.0497 0.04022,0.13494 0.07276,0.28681 0.09922,0.44662 0.02778,0.17833 0.04498,0.37677 0.04974,0.59531 v 0.0249 c 0.0032,0.15822 0.0093,0.33497 0,0.52097 -0.01244,0.19367 -0.04339,0.39211 -0.07435,0.62018 -0.0016,0.008 0.0016,0.0156 0,0.0249 -0.03096,0.22172 -0.07435,0.46196 -0.12409,0.7194 l 0.07435,2.15795 v 0.0249 c -0.04022,0.0992 -0.09922,0.18282 -0.148696,0.27278 -0.05424,0.096 -0.110067,0.18759 -0.173567,0.27279 -0.26035,0.34422 -0.587639,0.61224 -0.942445,0.81862 -0.175155,0.1008 -0.347134,0.19367 -0.520965,0.27278 -0.348721,0.15822 -0.688446,0.28205 -0.942446,0.39688 -0.127,0.0558 -0.241829,0.11615 -0.322527,0.17357 -0.04022,0.0278 -0.07435,0.045 -0.09922,0.0743 -0.01852,0.0233 -0.0418,0.0482 -0.04974,0.0743 -0.0048,0.008 0.0016,0.0156 0,0.0249 -0.0048,0.0265 0.0061,0.0497 0.02487,0.0744 0.0032,0.006 -0.0048,0.0169 0,0.0249 0.02487,0.0265 0.06191,0.045 0.09922,0.0728 0.02646,0.0233 0.04657,0.0497 0.07435,0.0743 0.01244,0.014 0.03731,0.0109 0.04974,0.0249 0.0032,0.006 -0.0048,0.0201 0,0.0249 0.02487,0.0373 0.04974,0.0775 0.04974,0.12409 0,0.009 0,0.0169 0,0.0249 0.01085,0.0233 0.01243,0.0526 0.02487,0.0744 0.06509,0.12859 0.141023,0.25585 0.173567,0.39687 0.04022,0.16749 0.01852,0.32253 -0.04974,0.47123 -0.0032,0.008 0.0032,0.0185 0,0.0249 -0.02646,0.0482 -0.06191,0.0836 -0.09922,0.12409 -0.207698,0.24024 -0.57838,0.372 -0.818621,0.59531 -0.0418,0.0402 -0.09313,0.0775 -0.12409,0.12409 -0.0048,0.005 0.0032,0.0201 0,0.0249 -0.02937,0.0482 -0.059,0.0916 -0.07435,0.1487 -0.0032,0.008 0.0016,0.0169 0,0.0249 -0.02646,0.0791 -0.04022,0.15981 -0.04974,0.24818 -0.02937,0.28839 0.01852,0.6387 0.09922,1.01705 0.09446,0.44662 0.223309,0.93795 0.347134,1.46342 0.01561,0.0714 0.03413,0.127 0.04974,0.19843 0.01244,0.0574 0.01244,0.11615 0.02487,0.17357 0.05265,0.25585 0.09446,0.50694 0.12409,0.76888 0.01693,0.15663 0.04498,0.28998 0.04974,0.44662 0,0.0249 -0.0016,0.0497 0,0.0743 0.0016,0.13335 -0.01693,0.26512 -0.02487,0.39688 -0.0032,0.0325 0.0032,0.0667 0,0.0992 -0.01085,0.12409 -0.02778,0.2495 -0.04974,0.372 -0.02937,0.16113 -0.07144,0.31327 -0.12409,0.47122 -0.04974,0.15029 -0.100806,0.29925 -0.173566,0.44662 -0.07594,0.1487 -0.170657,0.30242 -0.272786,0.44662 -0.110066,0.15822 -0.207698,0.24818 -0.297656,0.32252 -0.04974,0.0402 -0.105304,0.0807 -0.148696,0.0992 -0.01402,0.005 -0.03731,-0.003 -0.04974,0 -0.0093,0.003 -0.01561,0.0233 -0.02487,0.0249 -0.02937,0.005 -0.07276,0.005 -0.09922,0 -0.0077,-0.002 -0.01852,0.002 -0.02487,0 -0.04815,-0.0124 -0.08228,-0.0386 -0.124089,-0.0743 -0.04657,-0.0386 -0.08361,-0.0852 -0.12409,-0.1487 -0.03863,-0.059 -0.06668,-0.1487 -0.09922,-0.22331 -0.07276,-0.16113 -0.141023,-0.32861 -0.198437,-0.52096 -0.446617,0.0744 -1.190625,-0.59532 -1.488281,-0.22331 0,0 0.892968,3.34857 0.967316,4.24153 0,0.52097 -0.744008,1.86029 -0.297656,2.30691 2.829189,2.82919 2.041789,-0.56436 2.926821,0.44661 0.306916,0.39688 0.155046,1.76901 0,2.20769 -0.161132,0.45587 0.0077,0.74109 -0.173567,1.11627 -0.277548,0.57362 0.255852,0.30533 0.04974,0.57044 -0.292894,0.37518 -0.826294,0.49134 -0.545571,0.74401 0.770467,0.69453 0.461962,0.63871 0.248179,1.28985 -0.144198,0.43709 0.744008,-0.27279 0.892969,-0.0497 0.26035,0.40931 -0.269875,0.17832 -0.173567,0.49609 0.108479,0.36592 0.279136,0.33787 0.421746,0.89297 0.141023,0.55509 -0.155046,1.5068 0.297656,1.81081 0.223309,0.372 0.272786,-0.8435 0.645054,-0.54557 0.5334,0.28522 -0.5334,0.84349 0.272786,0.96731 -0.161131,0.76888 -0.06826,1.08823 0.396875,1.09141 -0.137848,0.61701 0.322527,1.64941 0.79375,1.83568 0.148696,0.29765 0.04974,0.52096 0.198437,0.81862 0.297656,0.372 0.892969,0.372 1.190625,0.74401 0.446617,0.52096 0.272786,1.73619 0.868098,1.9595 0.297656,0.0744 0.744008,-0.1487 0.892969,0.1487 0.297656,0.52096 0.545571,1.0914 0.173567,1.61237 -0.223309,0.44661 -1.264973,-0.1487 -1.488282,0.372 -0.297656,0.59531 1.785938,1.48828 1.190625,1.71159 -0.66966,0.29766 -1.711589,-1.19062 -2.009246,-0.52096 -0.148695,0.14869 -0.02487,0.86809 0.570442,1.83568 l 0.496094,0.81862 c 1.041929,1.63856 1.934633,3.12578 1.934633,3.12578 -0.148696,0.37201 -0.744008,0.86704 -0.744008,1.31472 -0.07435,0.44662 0.396875,0.74321 0.396875,1.19062 0,0 -1.413933,0.42069 -0.892969,0.71941 0.297656,0.14869 0.818621,-0.0992 1.116277,-0.0992 0.520965,0.0743 1.5875,0.54557 2.182813,0.54557 1.860285,0 1.164166,-1.28985 2.951691,-1.14089 0.223309,0 2.207684,0.99219 2.579688,0.62019 0.446616,-0.44741 1.017058,-1.06654 1.09141,-1.66185 0.0743,-1.93569 -2.103706,-1.88198 -0.818625,-4.24206 0.223309,-0.37201 0.07435,-0.96732 0.520965,-1.11628 0.52096,-0.1487 0.99219,0.39687 1.36419,0.0249 0.22331,-0.37201 -0.59531,-0.81862 -0.44662,-1.26497 0.0744,-0.29766 0.52097,-0.0744 0.81863,-0.0744 0.372,0 0.66966,0.15028 1.04192,0.0744 0.1487,0 0.81863,-0.1487 1.33933,-0.44662 0.2233,-0.0744 -0.22331,1.04193 0.44661,0.52096 0.37201,-0.372 0.44662,-0.744 1.19063,-0.81862 0.0744,0 -0.15029,0.29766 -0.0743,0.37201 0,0 1.09141,-0.14738 1.09141,0.0743 0.0743,0.14869 -0.1487,0.29765 -0.1487,0.44661 0.0743,0.1487 0.29766,0.22331 0.372,0.1487 1.26498,-1.19063 1.16576,-3.74386 1.38907,-5.30807 0.372,-2.53154 -0.002,1.71317 0.81862,-0.74401 0.14869,-0.22331 -0.37201,-0.52097 -0.22331,-0.74401 0.0743,-0.22331 0.66966,0 0.66966,-0.22331 0.22331,-0.96731 -0.89297,-1.9595 -0.29766,-2.55481 0.22331,-0.22331 0.59532,0.0743 0.74401,-0.0744 -0.73316,-0.92075 -0.96732,-1.78594 -0.81862,-2.23256 0.0743,-0.59531 0.39688,-1.21549 0.69453,-1.73619 0.0743,-0.0744 0.44662,-0.0744 0.37201,-0.22331 -0.29766,-0.37201 -1.04193,-0.37201 -1.04193,-0.81862 -0.0743,-0.59531 0.89297,-0.89297 0.89297,-1.41394 0,-0.59531 -1.19063,-0.96731 -1.48829,-1.33932 -0.14869,-0.14869 -0.44661,-0.44661 -0.2233,-0.44661 0.52096,-0.22331 1.41393,0.44661 1.78593,0 0.52097,-0.66966 -1.04193,-2.18281 -0.96731,-2.55482 0.0743,-0.29766 0.64505,0.32412 0.79375,0.0249 0.22331,-0.372 -0.42175,-1.93463 -0.71941,-2.15794 -0.44661,-0.29766 -1.76106,-0.24818 -1.38906,-0.69453 0.37201,-0.44635 1.26498,0.0992 1.86029,0.0992 0.81862,0 0.14869,-0.44662 0.44661,-0.74401 0.0743,-0.0743 0.44662,0.1487 0.44662,0 -0.52096,-1.19063 -1.55813,-0.5752 -2.67891,-0.76888 -0.2233,0 0,0.44662 -0.14869,0.44662 -0.22331,0.0743 -0.22331,-0.37201 -0.37201,-0.44662 -0.0743,0 -0.14869,0.22331 -0.2233,0.22331 -0.22331,0 -0.44662,0 -0.52097,-0.1487 -0.29765,-0.66966 3.22474,-0.39687 3.37344,-0.39687 0.0743,0 0.1487,-0.1487 0.22331,-0.22331 0.11165,-0.0558 0.31326,-0.006 0.372,0 0,-0.16748 -0.34263,-0.23098 -0.44661,-0.27279 0.003,-0.003 -0.009,-0.0201 0,-0.0249 0.14869,-0.14869 1.26497,0.44794 0.96731,-0.44661 0,-0.22331 -0.81862,-0.37201 -0.59531,-0.44662 0.52096,-0.0744 1.46341,-0.0249 1.91003,-0.32253 1.33932,-0.96731 0.76888,-3.8944 0.76888,-3.8944 1.19062,-0.1487 0.34713,2.05872 1.0914,2.35638 0.22331,0.1487 -0.372,-0.66966 -0.14869,-0.81862 0.372,-0.1487 0.59531,1.26497 0.744,0.96732 0.22331,-0.52097 0.1487,-1.2155 0.44662,-1.7362 0.29792,-0.5207 0.24818,-0.42175 0.76888,-0.7194 0.1487,-0.1487 0.99219,-0.1487 0.91784,-0.29766 0,-0.52096 -0.372,-0.59531 -0.59531,-1.04193 -0.0743,-0.0744 -0.22331,-0.49609 -0.1487,-0.49609 1.19221,1.26815 1.38906,0.34713 1.76107,-0.17357 0.22331,-0.372 -0.47123,-0.84349 -0.91784,-0.76888 -0.0526,0.56595 -0.18151,0.6186 -0.7194,0.29766 -0.40773,0.13652 -1.00621,0.65114 -1.71159,0.76888 -0.29766,0.22331 -0.39688,0.59531 -0.76888,0.74401 -0.52097,0.2233 -0.52097,-0.19844 -1.11628,-0.34714 -0.22781,0.52256 -0.84349,-0.14869 -1.2155,0 -0.14869,0.0743 0.12409,0.37201 -0.0249,0.52097 -0.2233,0.22331 -0.372,0.29924 -0.52096,0.0743 -0.1487,-0.37201 0.372,-0.52097 0.1487,-0.74401 -0.37201,-0.37201 -0.81863,-0.0249 -1.26498,-0.17357 -0.44661,-0.22331 -0.29765,-0.22331 -0.54557,-0.54557 -0.40164,-0.20611 -0.41381,-0.40296 -0.99219,-0.22331 0.11007,0.17992 0.24183,0.22013 0.59532,0.4961 0.40296,0.31617 -0.009,0.29924 -0.27279,0.12408 -0.21246,-0.14102 -0.43868,-0.28363 -0.62018,-0.59531 -0.25585,-0.002 -0.50853,-0.0402 -0.91784,0 -0.44662,0.1487 -1.0541,0.6776 -2.05872,0.19844 -0.1487,-0.1487 0.744,-0.27279 0.89296,-0.34713 0.52097,-0.29766 0.4961,-0.17357 1.09141,-0.24818 0.22331,0 0.0497,-0.52097 0.12409,-0.66966 0.22331,-0.37201 0.52096,0.47122 0.89297,0.39687 0.44662,-0.0744 0.26987,-0.6604 0.69453,-0.52096 0.73951,0.24659 0.70855,-0.17674 1.33932,0.0249 0.72708,0.55351 1.16126,0.97049 1.38906,0.52096 -0.82947,-1.81081 0.0233,-1.30836 0.44662,-0.69453 0.28998,0.42175 0.65273,0.6604 1.09141,0.59531 0.87286,-0.67442 -0.51621,-1.06494 -0.96732,-1.46341 0.11165,-0.5535 0.008,-0.83555 -0.1487,-0.59531 -0.17198,0.26194 -0.43259,0.39688 -0.372,0.29766 0.34105,-0.55351 -0.40164,-0.4109 -0.29766,-0.62019 0.1024,-0.20769 0.58447,0.0635 0.96732,-0.66966 0.39846,0.53949 0.245,0.97208 0.29766,1.48828 0.372,0.50853 0.37359,-0.59848 1.11627,0.79375 0,0.52097 -0.27278,1.78594 0.32253,1.78594 0.59531,0 1.19062,-0.76888 1.71159,-0.84349 0.29766,-0.0744 0.52096,0.27279 0.66966,0.0497 0,-0.0744 -0.29766,-0.7194 -0.22331,-0.79375 2.08518,-0.96731 1.41393,-1.63724 2.0836,-2.38125 0.29765,-0.22331 0.0497,-0.32252 0.42174,-0.39687 0.0743,0 0.64506,0.86968 0.7194,0.12409 0.0124,-0.11483 -0.005,-0.19844 0,-0.29766 -0.32702,-0.14102 -0.49133,-0.19076 -0.81862,-0.0744 -0.34713,0.12409 -0.58287,0.24818 -0.69453,0.29766 -0.11165,0.0495 -0.23574,-0.0619 0.0744,-0.22331 0.31009,-0.1614 0.42174,-0.21087 0.44662,-0.372 0.0124,-0.0807 0.0558,-0.13653 0.0992,-0.19844 -0.0868,0.33496 0,0.49609 0.29766,0.32253 0.29766,-0.17357 0.31009,-0.16114 0.0744,-0.39688 -0.17674,-0.17674 -0.24024,-0.1815 -0.29766,-0.0744 0.003,-0.0217 0.003,-0.0466 0,-0.0743 -0.0249,-0.18601 0.0124,-0.11166 -0.17356,-0.37201 -0.18601,-0.26035 0.12409,-0.0743 0.32252,0.19844 0.37201,0.33496 0.23575,0.44662 0.62019,0.34713 -0.21405,-0.92075 -1.02156,-0.81227 -1.24037,-1.93463 -0.29766,-0.22331 -0.0497,-0.4961 -0.42175,-0.64506 -0.29765,-0.14869 -0.47122,0.27279 -0.69453,0.19844 -0.44661,-0.29765 -1.14088,-0.76888 -1.4388,-1.21549 -0.22331,-0.29766 -0.46038,-0.61093 0.29765,-0.19844 0.51621,0.44794 0.65273,0.25744 0.66966,0.0249 -0.6559,-0.44503 -1.11627,-0.57838 -1.78593,-0.7194 -0.1487,-0.0743 0.186,-0.19685 -0.17357,-0.52097 -0.89297,-0.79533 -0.82788,-0.37835 -1.16575,-1.06653 -0.1487,-0.29766 -0.17357,-0.47123 -0.47123,-0.62019 -0.372,-0.2233 -0.72866,0.91467 -1.16575,0.91784 -0.43709,0.003 0.2032,-1.22158 -1.36419,-1.11627 -0.22331,0.0156 -0.24818,-0.8435 -0.47122,-0.91784 -0.1487,-0.0743 -0.37201,0.14869 -0.37201,0 -0.0743,-0.44662 0.19844,-0.57044 0.12409,-1.01706 -0.0743,-0.44662 -0.42175,-0.99219 -0.57044,-1.36419 -0.0201,-0.8263 0.61859,-0.45112 -0.0249,-1.24037 -0.1487,-0.29766 -0.19844,-0.27279 -0.27279,-0.57044 -0.14869,-0.29766 0,-0.4961 0,-0.79375 0,-0.1487 0.37201,-0.0743 0.29766,-0.22331 -0.0744,-0.29766 -0.66966,-0.372 -0.59531,-0.74401 0.45746,-1.34567 -1.16735,-1.72535 -0.22331,-3.44778 0.59531,-0.22331 0.91784,1.11627 1.36419,0.66966 0.44635,-0.44662 -0.0497,-0.76888 -0.34713,-1.28985 -0.28522,-0.2495 -0.27279,-0.52255 -0.27279,-0.84349 -0.14869,-0.44661 -0.15028,-0.89297 -0.0743,-1.33932 0.0743,-0.372 0.37201,-0.66966 0.44662,-1.04193 0.0744,-0.59531 -0.17357,-0.52096 -0.0992,-1.11628 0.49133,0.0667 0.6014,-0.14869 -0.0992,-0.49609 0.45879,-1.08214 -1.96268,-0.64955 -0.84349,-2.23255 0.44662,-0.29766 0.7194,0.54557 1.24037,0.47122 0.22331,0 0.0481,-0.48525 0.7194,-0.74401 0.29766,-0.372 0.0992,-0.96732 0.32253,-1.33932 0.14869,-0.1487 0.2233,0.59531 0.372,0.59531 0.59531,0.1487 0.52097,-0.96731 0.29766,-1.48828 -0.66358,-0.30374 -0.98902,-0.35348 -1.91003,-2.35638 1.0758,1.04484 0.98293,1.29461 1.66185,1.36419 0,0.22331 0.0619,0.48208 0.49609,0.37201 0.22781,-0.0574 -0.19235,-0.69453 0.27279,-0.84349 0.65272,0.25109 1.04193,-0.37201 1.26497,-0.96732 0.1487,-0.52096 -0.84349,0.0744 -1.28984,-0.29766 -0.29766,-0.2233 0.7194,-0.52096 1.01705,-0.81862 0.22331,-0.22331 0.0744,-0.74401 0.22331,-1.04193 0.0744,-0.0743 0.37201,0.0743 0.37201,0 -0.0743,-0.2233 -0.59532,-0.29765 -0.44662,-0.44661 0.22331,-0.22331 0.66966,0.22489 0.81862,0.0744 0.1487,-0.22331 -0.372,-0.44662 -0.29766,-0.66967 0.0743,-0.14869 0.37201,-0.14869 0.52097,-0.0743 -0.27279,-0.13494 -0.55668,-0.22331 -0.372,-0.22331 0.52096,-0.0743 1.04192,0.66966 1.48828,0.44662 0.52096,-0.29766 0.59531,-1.04193 0.66966,-1.56263 0.0743,-0.44662 -0.62019,-0.76888 -0.24818,-1.06654 0.29765,-0.22331 0.81862,0.89297 1.04193,0.52097 0.2233,-0.52097 -0.91784,-0.81863 -0.62019,-1.26498 0.29766,-0.372003 0.96732,1.14089 1.41394,0.99219 0.372,-0.1487 0.32252,-1.56263 0.54557,-1.860287 0.22331,-0.446616 1.11627,-0.297656 1.33932,-0.595312 0.22331,-0.148696 -0.0743,-0.595313 0.0744,-0.818621 h 0.0743 c 0,-0.07435 0,-0.173567 0.0743,-0.173567 0.22331,-0.148695 0.1487,0.91784 0.37201,0.76888 0.52096,-0.223309 -0.22331,-1.438805 0.29765,-1.513152 0.1487,-0.07435 0.1487,0.446616 0.29766,0.446616 0.89297,-0.148696 1.28984,-4.239948 1.73619,-5.134504 0.29766,-0.66966 1.18454,-1.480608 1.63725,-2.25716 -0.59532,-1.339321 -2.803,-1.734873 -2.72839,-3.522134 0.0743,-1.488281 1.98438,-1.858697 1.53776,-3.19987 -0.22331,-0.595313 -0.57044,-0.942446 -1.09141,-1.314715 -0.14869,-0.07435 -0.42174,-0.173567 -0.42174,-0.396875 0.014,-0.05106 0.0294,-0.102394 0.0497,-0.148696 0.045,0.0418 0.1442,0.125677 0.17357,0.148696 0.28522,0.235744 0.29765,0.297656 0.34713,0.421746 0.0495,0.12409 0.58288,0.384439 0.69453,0.496094 0.11166,0.111654 0.48366,-0.210873 0.52097,-0.372004 0.0373,-0.161132 -0.3101,-0.5334 -0.57045,-0.595313 -0.23574,-0.01243 -0.24817,0.186002 -0.42174,-0.02487 -0.0699,-0.0852 -0.17674,-0.325437 -0.27279,-0.570441 0.65432,-0.356659 1.70075,-0.275961 2.13307,-0.545571 0.1487,-0.07435 -0.15028,-0.372004 -0.0743,-0.446617 0.14869,-0.07435 0.2233,0.372004 0.29765,0.297656 0.44662,-0.372004 -0.0574,-0.434181 -0.44661,-0.719402 -0.1487,0 -0.44662,0 -0.37201,-0.07435 0.44662,-0.223308 1.33932,-0.07435 1.19063,-0.520964 -0.0728,-0.395288 -1.0758,-0.286809 -1.71159,-0.967317 0.5379,0.0418 2.1254,1.003035 2.70377,0.868098 0.127,-0.05106 -0.36909,-0.787665 -0.99218,-0.66966 -0.1487,-0.446617 0.11165,-0.446617 0.62018,-0.520965 0.0743,-0.607748 -0.74401,-0.372004 -0.19844,-1.091406 0.13494,-0.178329 -0.34713,-0.744009 -0.19843,-0.744009 0.27278,0.01852 0.50852,0.200025 0.64505,0.570442 0.0635,0.175154 0.19235,-0.01402 0.372,-0.07435 0.17992,-0.059 0.40455,0.02778 0.37201,-0.09922 -0.29766,-1.145645 -0.25109,-0.804597 1.36419,0.322527 0.52705,0.369094 0.45746,-0.03572 0.64505,-0.248179 0.24342,-0.274373 -0.38444,-0.483658 -0.19843,-0.595312 0.52096,-0.297656 0.44661,0.372004 1.04193,0.297656 0.13493,-0.0077 -0.13018,-0.517789 0.42174,-0.496094 0.65723,0.09922 0.41857,-0.328612 0.74401,-0.322527 0.32544,0.0061 0.45879,0.421746 0.89297,0.223309 0.29765,-0.148696 0.64505,-0.173567 0.8681,-0.471223 v -0.0011 z m -16.51979,55.364061 c -0.0326,-0.003 -0.0619,-0.005 -0.0992,0.0249 -0.12568,0.0992 -0.11483,1.11787 0.14869,1.36419 0.26194,0.24501 0.85884,0.5969 0.96732,0.42175 0.17198,-0.28072 -0.49768,-0.47122 -0.62018,-0.76888 -0.10822,-0.26061 -0.17965,-1.01706 -0.39661,-1.04193 z m -5.75469,10.34362 c -0.0386,0.0156 -0.0497,0.0558 -0.0497,0.17357 0,0.23574 -0.21087,0.372 -0.0497,0.59531 l -0.0249,0.0249 c 0.29765,0.29766 0.50853,0.29766 0.49609,0.0497 -0.0124,-0.24791 0.19844,-0.26035 0.22331,-0.44661 0.0249,-0.18627 -0.11166,-0.31009 -0.37201,-0.37201 -0.13017,-0.0312 -0.18441,-0.0405 -0.22304,-0.0249 z m 12.72461,13.46888 c -0.0466,0.009 -0.1069,0.0325 -0.19844,0.0992 -0.3691,0.26352 -0.2495,0.24342 -0.37201,0.47122 -0.12409,0.22781 -0.0667,0.40455 0.0744,0.54557 0.13944,0.15822 0.58764,0.40455 0.57044,0.12409 -0.0185,-0.28072 -0.28522,-0.33496 -0.0743,-0.54557 0.20928,-0.21087 0.79375,-0.23574 0.79375,-0.44661 0,-0.21088 -0.1069,-0.24342 -0.42175,-0.17357 -0.23707,0.0526 -0.23707,-0.10531 -0.372,-0.0744 z m -38.223828,0.39688 c -0.100807,0.0185 -0.230982,0.0992 -0.396875,0.24818 -0.66675,0.59689 -1.441715,0.66357 -1.264973,1.19062 0.280723,0.8419 0.426243,0.12409 0.917839,0.12409 0.490009,0 1.006211,0.20161 1.041929,-0.57044 0.02434,-0.57865 0.0013,-1.04987 -0.29792,-0.99245 z m 36.735538,0.44635 c -0.13784,0.0108 -0.0852,0.95197 -0.2233,0.96731 -0.13944,0.0156 -0.47916,-0.8882 -0.54557,-0.86809 -0.35666,0.10689 -0.19685,0.64346 -0.42175,0.86809 -0.2249,0.22464 -0.55351,0.0743 -0.7194,0.29766 -0.68686,0.92075 -1.45574,2.80141 -1.48828,3.07578 0,0.52097 0.34713,1.01706 0.42174,1.53776 0,0.44662 -0.29765,0.47122 -0.29765,0.91784 0.0511,0.2667 0.29448,0.17674 0.52096,0.54557 0.2249,0.36751 0.39211,0.99219 0.57044,1.16575 0.0526,0.0511 0,0.29766 0.0743,0.29766 0.0373,0 0.0868,-0.0278 0.12409,-0.0744 -0.25744,0.48049 -0.69771,1.01071 -0.49609,1.41394 0.2233,0.44661 0.79216,-0.54557 1.01705,-0.91784 0.59532,-1.11628 -1.28375,0.46196 0.99219,-2.05873 1.41394,-1.11627 -0.32411,-0.44661 0.64506,-1.56263 0.29765,-0.29765 0.91784,-0.2233 0.91784,-0.66966 0,-0.66966 -1.24037,0.40773 -1.01706,-1.56262 0.0944,-0.84482 -0.39688,-0.26512 0.0497,-1.16576 0.22622,-0.45879 1.36895,-1.28826 0.64505,-2.05872 -0.39264,0.0558 -0.49477,-0.17198 -0.76941,-0.14896 z m -8.11106,6.35 c -0.2249,0.0744 -0.52097,0 -0.66966,0.22331 -0.67125,0.89296 -0.1487,1.26497 -0.29766,2.15794 -0.37359,2.01083 -2.05872,3.27263 -2.20768,5.43216 0,0.22331 0.29607,3.57187 0.44662,3.57187 0.96731,-0.0743 0.66807,-2.97656 0.744,-3.34856 0.22331,-1.56422 1.46209,-6.8461 1.98438,-8.03672 z"
       id="path413" />
  </g>
</svg>
