<?xml version="1.0" encoding="UTF-8" standalone="no"?>
<!-- Created with Inkscape (http://www.inkscape.org/) -->

<svg
   width="210mm"
   height="297mm"
   viewBox="0 0 210 297"
   version="1.1"
   id="svg3995"
   inkscape:version="1.1.1 (3bf5ae0d25, 2021-09-20)"
   sodipodi:docname="switzerland.svg"
   xmlns:inkscape="http://www.inkscape.org/namespaces/inkscape"
   xmlns:sodipodi="http://sodipodi.sourceforge.net/DTD/sodipodi-0.dtd"
   xmlns="http://www.w3.org/2000/svg"
   xmlns:svg="http://www.w3.org/2000/svg">
  <sodipodi:namedview
     id="namedview3997"
     pagecolor="#ffffff"
     bordercolor="#666666"
     borderopacity="1.0"
     inkscape:pageshadow="2"
     inkscape:pageopacity="0.0"
     inkscape:pagecheckerboard="0"
     inkscape:document-units="mm"
     showgrid="false"
     inkscape:zoom="0.7500982"
     inkscape:cx="397.28131"
     inkscape:cy="561.92642"
     inkscape:window-width="1920"
     inkscape:window-height="1027"
     inkscape:window-x="1912"
     inkscape:window-y="-8"
     inkscape:window-maximized="1"
     inkscape:current-layer="layer1" />
  <defs
     id="defs3992" />
  <g
     inkscape:label="Ebene 1"
     inkscape:groupmode="layer"
     id="layer1">
    <path
       id="ch"
       fill="#ffe9e7"
       stroke="#000000"
       stroke-width="0.132292"
       d="m 104.87058,117.9598 c -0.81703,0.0982 -1.50839,1.23401 -1.33932,1.28984 0.44662,0.0743 0.89138,-0.0743 1.33932,0 0.29766,0.0743 -0.52096,0.1487 -0.74401,0.29766 -0.14869,0.0743 0.0743,0.44661 0,0.52096 -1.86187,0.96943 -0.52096,-0.44662 -2.00924,-0.372 -0.003,0.005 -0.0233,-0.003 -0.0249,0 -0.10847,0.16642 -0.23415,0.29448 -0.34713,0.39687 -0.0325,0.0278 -0.045,0.0796 -0.0744,0.0992 -0.42174,0.27279 -0.34713,0.34713 -1.19062,0.34713 -0.781316,0 -0.925514,-0.3421 -0.942447,-0.39687 -0.654315,0.0807 -1.206236,0.095 -1.289844,-0.0744 -0.07435,-0.14869 0.446617,-0.22331 0.372004,-0.29765 -0.148696,-0.1487 -0.297656,-0.1487 -0.446617,-0.0744 l -0.148695,0.14869 c -0.07435,0.1487 -0.223309,0.29766 -0.297657,0.29766 -0.694531,0.71517 -1.128712,1.01071 -1.438804,1.09141 -0.753533,0.19526 -0.782902,-0.9271 -1.934633,-0.79375 -0.108479,0.0124 -0.216959,0.0373 -0.347134,0.0743 -0.148695,0.0743 0.148696,0.37201 0.148696,0.52097 0,0.0744 -0.148696,0 -0.148696,0 -0.224895,0.29765 -0.81862,0.59531 -0.66966,0.96731 0.07435,0.37201 1.190625,-0.372 1.190625,0 -0.07435,1.04379 -0.446617,0.22331 -0.818621,0.52097 -0.348721,0.27173 -0.685271,0.79692 -0.992187,1.31471 v 0.0249 c -0.280723,0.47123 -0.547159,0.93028 -0.79375,1.14089 -0.44794,0.52096 -1.488281,0.29765 -1.785938,0.89297 -0.224896,0.52096 0.223309,1.19062 0,1.63724 -0.299243,0.82074 -1.637241,0.81862 -2.157941,1.56263 -0.894557,1.11839 0.07435,2.15794 -0.297657,3.34856 -0.07435,0.22331 -0.81862,-0.14869 -0.81862,0.81863 0,0.14869 -0.372005,0.29765 -0.297657,0.29765 0.892969,0.22331 1.933311,-0.14684 2.38125,-1.04193 0.07435,-0.14869 -0.297656,-0.29765 -0.372004,-0.44661 0,-0.22331 -0.07594,-0.37201 0.07435,-0.52097 0.66966,-1.04193 2.751667,-1.04193 3.720571,-0.59531 0.297656,0.0744 -0.297656,0.52096 -0.223308,0.74401 0,0.372 0.446616,0.52096 0.520964,0.89297 0.07435,0.44661 -0.968904,0.372 -0.520964,1.11627 0.148695,0.1487 0.595312,-0.0744 0.66966,0.1487 0.148696,0.22331 -0.223308,0.59531 -0.148696,0.81862 0.07435,0.1487 0.372004,-0.29766 0.446617,-0.1487 0.372004,0.37201 0.370416,0.89297 0.66966,1.33932 0.744008,1.34144 2.751667,-0.14869 3.720571,-0.372 0.66966,-0.1487 1.189037,0.74401 1.860285,0.74401 0.07435,0 2.157937,-2.15794 2.157937,-2.52995 0.0744,-0.372 -0.59531,-0.52096 -0.52096,-0.81862 0.14869,-0.44661 0.74268,-0.59531 1.11628,-0.89297 0.372,-0.29765 0.66807,-0.59531 1.04192,-0.89297 0.1487,-0.0743 0.29766,-0.2233 0.37201,-0.14869 0.14869,0.44662 0.0743,0.89297 0.0743,1.33932 0,0.22331 -0.22331,0.52096 -0.1487,0.81862 0.52097,0.96943 1.71,1.19063 2.52995,1.48828 0.0743,0 0.22331,0.1487 0.22331,0.29766 -0.0744,0.29765 -0.59532,0.52096 -0.52097,0.81862 0.0743,0.29765 0.59373,0.14869 0.81862,0.372 0.29766,0.37201 0.44503,1.63724 0.89297,1.26498 1.26497,-0.96732 -0.22331,-0.66966 -0.22331,-1.41394 0,-0.51885 0.186,-0.9189 0.44662,-1.26497 l -0.0249,-0.0744 c 0,0 1.14088,-1.28984 1.33932,-1.93463 0.19844,-0.64479 -0.0497,-1.63724 0.49609,-2.18281 0.54584,-0.54558 0.29766,0.69453 0.64506,0.39687 0.34739,-0.29766 0.0497,1.48828 1.04193,1.68672 0.99218,0.19844 0.64505,0.0497 0.99218,-0.44662 0.34714,-0.49636 0.59532,0.34714 1.14089,-0.0497 0.54557,-0.39687 0.744,-0.24818 0.89296,0.44662 0.14897,0.69479 0.8435,0.79375 0.8435,0.14869 0,-0.64505 -0.19844,-0.64505 0.14869,-0.99218 0.34714,-0.34714 -0.99219,-0.44662 -0.64505,-1.28985 0.34713,-0.84322 0.49609,-0.59531 1.0914,-0.84349 0.59532,-0.24818 -0.0497,0.0497 1.24037,0.69453 0.28072,0.14155 0.64188,0.27173 1.04193,0.39688 l 0.1487,-0.64506 c -0.36592,-0.12409 -0.71623,-0.27278 -0.91784,-0.42174 -0.46355,-0.33893 0.12567,-1.81478 0.54557,-3.19987 l -0.39688,-0.47123 -0.0497,0.12409 c -0.13494,-0.0661 -0.2712,-0.12409 -0.47122,-0.12409 -0.82021,-0.14869 -1.04193,1.86029 -2.23256,1.26498 -0.52255,-0.22331 -0.96731,-0.52097 -1.33932,-0.96732 -0.15028,-0.1487 0.22331,-0.372 0.0744,-0.52097 -0.0744,0 -2.52995,-0.2233 -2.67891,-0.29765 -0.14896,-0.0743 0.59373,-2.77813 0.81863,-3.15013 0.0743,-0.0743 0.372,0 0.44661,-0.1487 0.29766,-0.744 -0.66966,-0.89297 -0.66966,-1.41393 v -0.0743 c -0.67125,-0.372 -1.19062,-1.11627 -1.93463,-1.26497 -0.0744,0 -2.55482,0.1487 -2.55482,0.1487 -0.29924,-0.1487 -0.29765,-0.66967 -0.59531,-0.81863 -0.0743,-0.14869 0.1487,0.37201 0,0.44662 -0.1487,0.0746 -0.44662,0 -0.52097,-0.14869 -0.0743,-0.22331 0.29766,-0.52097 0.1487,-0.66967 -0.28046,-0.2786 -0.54716,-0.35401 -0.81862,-0.32199 z" />
  </g>
</svg>
