<?xml version="1.0" encoding="UTF-8" standalone="no"?>
<!-- Created with Inkscape (http://www.inkscape.org/) -->

<svg
   width="210mm"
   height="297mm"
   viewBox="0 0 210 297"
   version="1.1"
   id="svg1168"
   inkscape:version="1.1.1 (3bf5ae0d25, 2021-09-20)"
   sodipodi:docname="uk.svg"
   xmlns:inkscape="http://www.inkscape.org/namespaces/inkscape"
   xmlns:sodipodi="http://sodipodi.sourceforge.net/DTD/sodipodi-0.dtd"
   xmlns="http://www.w3.org/2000/svg"
   xmlns:svg="http://www.w3.org/2000/svg">
  <sodipodi:namedview
     id="namedview1170"
     pagecolor="#ffffff"
     bordercolor="#666666"
     borderopacity="1.0"
     inkscape:pageshadow="2"
     inkscape:pageopacity="0.0"
     inkscape:pagecheckerboard="0"
     inkscape:document-units="mm"
     showgrid="false"
     inkscape:zoom="0.7500982"
     inkscape:cx="397.28131"
     inkscape:cy="561.92642"
     inkscape:window-width="1920"
     inkscape:window-height="1027"
     inkscape:window-x="1912"
     inkscape:window-y="-8"
     inkscape:window-maximized="1"
     inkscape:current-layer="layer1" />
  <defs
     id="defs1165" />
  <g
     inkscape:label="Ebene 1"
     inkscape:groupmode="layer"
     id="layer1">
    <g
       id="United_Kingdom_of_Great_Britain_and_Ireland"
       transform="matrix(0.26458333,0,0,0.26458333,-46.447466,-154.59266)">
      <path
         id="ie"
         fill="#ffb5b7"
         stroke="#000000"
         stroke-width="0.5"
         d="m 215.699,581.969 c 0,0 0.059,1.008 -0.281,2.531 -0.135,0.604 -2.402,-0.533 -3.656,1.406 -1.359,2.092 0.756,3.562 -0.188,6.375 -0.211,0.621 -0.281,1.312 -0.562,1.594 -1.412,1.406 -5.531,1.969 -5.531,1.969 0,0 2.268,-1.541 3.469,-3.188 1.195,-1.646 1.33,-3.375 0.656,-4.219 -1.26,-1.576 0.891,-2.391 -0.094,-3.094 -3.381,-2.25 -5.42,1.84 -9.844,1.781 -1.131,-0.281 -2.25,-1.125 -3.094,-0.844 -14.637,6.75 -4.541,3.527 -4.594,6.562 -0.281,0.844 -2.537,0.281 -1.969,0.844 0.844,0.844 3.281,3 1.875,3.281 -1.412,0.281 -3.469,-1.406 -4.594,-0.281 -0.85,1.125 4.219,2.812 3.094,3.375 -1.693,0.562 -7.406,-5.631 -9.094,0 -0.85,3.375 4.869,3.656 6,4.219 0.281,0 0.281,0.562 0.281,0.844 0,0.562 -0.85,1.688 -0.281,1.688 3.656,0.281 2.807,-3.938 3.656,-0.844 0,0.562 5.062,-0.562 4.219,0.562 -1.412,1.688 -3.094,3.375 -5.344,4.215 0,0.281 -8.531,-0.559 -9.094,1.969 -0.281,2.25 2.531,4.5 1.688,6.469 -0.281,0.844 -7.594,-7.594 -10.125,-6.188 -1.412,0.844 -1.406,4.219 -3.094,3.656 -1.693,-0.562 -0.562,-3.656 -1.406,-5.625 -1.412,-3.652 -14.625,-3.652 -17.156,-3.09 -2.537,0.562 -0.562,0.469 -0.844,1.594 -0.568,1.402 -3.568,3.184 -2.438,4.309 1.125,1.125 3.369,-3.652 4.5,-2.531 -4.98,6.434 -1.055,4.078 0.469,3.938 0.938,-0.082 -1.969,1.828 -1.969,2.812 0.281,0.281 3.264,2.527 2.062,3.75 -1.43,-0.129 -4.605,-0.398 -3.844,1.406 0.562,2.531 6.223,-2.43 6.844,3.281 -0.281,0.562 -0.844,1.875 -1.406,1.875 -2.256,0 -2.812,-1.875 -4.781,-1.312 -2.256,0.562 -3.656,2.531 -4.781,4.5 -0.281,0.281 1.125,1.125 0.844,1.406 -0.281,0 -6.961,-0.27 -5.625,4.781 1.125,1.688 1.418,3.047 3.844,3.188 1.213,0.07 4.312,-1.516 3.562,-0.188 -0.357,0.629 -4.178,1.84 -3.188,2.25 0.287,0.125 1.236,2.426 2.719,1.5 1.436,-0.895 4.506,-2.285 4.594,-1.969 0.627,2.742 -4.271,5.281 0.281,6.188 5.842,2.238 12.938,0.562 13.219,1.406 0,0.844 -1.969,0.562 -1.969,1.406 0,0.699 1.893,0.516 2.25,0.562 -1.975,1.125 -4.219,1.969 -6.469,1.969 -0.85,0.281 -1.125,-1.969 -1.969,-1.688 -1.412,0.281 -1.969,1.688 -2.812,2.812 -1.131,1.125 -4.787,2.25 -3.656,3.656 0.562,0.844 3.094,0.281 2.531,0.844 -0.85,0.281 -1.688,0.562 -2.25,1.125 -1.412,1.406 -1.688,3.375 -2.812,4.5 -0.568,0.281 -1.688,-0.562 -2.25,0 -2.256,0.844 -3.938,2.25 -6.188,3.375 -0.691,0.23 -2.549,0.195 -2.812,0.281 1.125,0.562 9.281,-1.125 9.281,-1.125 0.281,0.281 -0.281,0.844 0,1.406 0.562,0.844 1.4,1.688 2.531,1.969 1.125,0.281 2.244,-0.844 3.094,-0.562 0.562,0.188 -0.223,0.887 -0.656,1.406 -3.709,-0.531 -7.67,-1.125 -7.781,-1.125 -1.131,0.281 -1.125,1.969 -2.25,2.531 -1.975,0.844 -5.344,-0.562 -6.188,1.406 -1.131,2.25 5.344,7.969 3.094,6.844 -2.256,-1.125 -3.938,-3.75 -6.469,-3.75 -1.975,-0.281 -5.906,-0.562 -7.312,0.281 -0.568,0.281 0,1.5 -0.562,1.781 -0.568,0.281 -4.312,2.062 -4.031,2.625 1.688,2.25 11.906,3.281 12.188,3 0.562,-0.281 -0.281,-1.406 0,-1.969 1.406,-0.844 5.344,1.125 4.219,1.969 -1.412,1.406 -3.938,1.125 -5.906,1.406 -2.537,0.562 -7.031,-0.844 -7.594,1.688 0,0.844 1.406,1.688 0.562,2.25 -0.85,0.562 -3.094,-1.688 -3.375,-0.562 -0.281,2.812 1.682,6.75 4.219,7.312 0.562,0 13.219,-1.688 13.5,-1.406 1.125,1.406 -3.656,1.688 -5.344,2.25 -3.381,1.406 -2.25,-2.25 -4.781,0 -0.281,0.281 0.562,0.562 0.562,0.844 0,0.562 -1.031,2.062 -1.594,2.062 -3.662,1.125 -5.531,2.344 -5.25,2.344 8.936,1.43 14.08,-0.484 16.406,-2.156 0.562,0.281 1.688,0.281 1.406,0.844 -2.197,2.824 -11.818,7.125 -10.688,8.812 0.562,0.562 7.307,-1.781 9,-2.344 4.5,-0.844 -4.225,3.656 1.406,3.094 1.969,-0.281 3.838,-0.188 6.094,-0.469 1.688,-0.281 6.557,1.312 9.375,1.031 0.844,-0.281 0.463,-1.219 1.031,-1.781 0.844,-0.281 1.588,0.375 2.156,0.938 0.562,0.281 0.188,0.562 0.75,0.562 1.125,-0.281 1.682,-1.969 2.531,-2.531 1.406,-0.844 2.807,0.469 3.656,-0.656 1.143,-2.086 -1.389,-5.52 -0.281,-6.094 3.885,-0.941 1.213,8.344 7.125,5.25 1.688,-1.125 4.025,-3 6,-3.844 1.125,-0.281 0.932,0.844 2.062,0.844 0,0 4.781,-1.969 5.062,-3.375 0,-0.844 -1.225,-0.844 -0.656,-1.125 3.938,-1.406 4.963,-0.281 9.188,0 0.844,0.281 3.094,-1.406 2.812,-0.562 0,0.562 -1.406,0.562 -1.125,1.125 1.406,1.688 7.588,-1.406 9.562,-0.844 1.125,0.281 1.119,1.969 2.25,2.25 2.812,1.125 3.369,-1.406 4.219,0.562 0,0.281 2.156,0.75 2.156,0.469 0.961,-2.453 -2.162,-4.688 -1.594,-6.656 0.281,-1.125 1.107,0.855 2.156,0 8.004,-7.527 4.916,-9.355 12.469,-20.344 1.125,-3.656 0.562,-4.969 0.281,-8.625 0,-0.562 0,-2.062 0,-2.625 -0.281,-1.406 -2.537,-2.531 -1.688,-3.656 0.562,-1.125 2.807,1.406 3.656,0.281 0.562,-1.125 -1.219,-2.156 -0.938,-3.281 0,-1.688 2.344,-1.875 2.344,-3.281 0,-1.969 -2.625,-2.906 -2.906,-4.875 0,-2.25 1.5,-5.438 1.219,-7.688 0,-1.125 -3.1,-1.688 -2.25,-2.531 1.688,-1.125 5.057,0.281 6.188,-1.406 1.125,-1.125 -1.406,-2.531 -1.969,-3.938 l 0.375,0.375 0.375,0.469 c 0.844,0.844 1.682,1.969 2.812,1.969 5.062,0.844 3.65,-3.656 5.625,-5.625 2.25,-2.531 10.119,3.383 11.25,-7.594 0.844,-11.254 -4.219,-7.594 -9,-6.469 0,0 7.312,-4.219 6.188,-7.312 -3.381,-10.689 -1.969,5.07 -5.062,-7.027 0,-0.562 1.125,-0.844 1.125,-1.688 0.562,-2.25 0,-5.062 -1.125,-7.031 -0.281,-0.844 -1.969,0.281 -2.812,-0.281 -1.693,-0.562 -2.812,-2.531 -4.781,-2.812 -1.693,-0.281 -3.094,1.125 -5.062,1.125 -1.482,0.246 -3.158,-1.682 -4.688,-1.406 -0.223,0.035 -0.445,0.141 -0.656,0.281 -1.693,0.844 -2.25,3.656 -3.938,4.5 -1.131,0.562 -2.25,-0.281 -3.094,-1.406 0.029,0 0.059,0 0.094,0 -0.738,-0.826 -0.609,-0.838 -1.031,-1.594 0.592,-0.486 1.893,-1.594 3.375,-2.156 0.686,-0.264 4.629,-1.295 4.875,-2.438 0.205,-0.979 -3.311,-1.465 -4.125,-4.5 -0.413,-1.528 -3.935,-2.623 -3.935,-2.623 z m 11.157,52.215 c 0.018,-0.016 0.064,0.02 0.094,0 -0.293,0.305 -0.105,1.191 -0.75,1.688 0.58,-0.509 0.369,-1.388 0.656,-1.688 z m -67.782,33.656 c 0.281,0.844 -0.844,2.25 -0.562,3.094 0.844,1.406 5.906,1.125 4.5,1.969 -1.008,0.574 -6.012,0.09 -10.875,-0.562 2.924,-1.177 6.703,-4.962 6.937,-4.501 z" />
      <g
         id="g7401">
        <g
           id="g425">
          <g
             id="UK_x2B_"
             transform="translate(-1539.5729,-974.79019)">
            <g
               id="United_Kingdom_of_Great_Britain_and_Northern_Ireland">
              <path
                 id="gb-gbn"
                 fill="#ffb5b7"
                 stroke="#000000"
                 stroke-width="0.5"
                 d="m 1927.022,1380.603 c -0.316,0.07 -0.504,0.27 -0.656,0.562 -0.621,1.166 -1.354,3.557 -1.969,4.312 -0.621,0.756 -0.188,-1.277 -0.188,-1.688 0,-0.411 -1.723,-0.844 -2.062,0.188 -0.346,1.031 -0.041,1.98 -0.656,2.531 -0.621,0.551 -0.768,-0.01 -1.312,1.781 -0.551,3.023 -0.744,4.23 0.562,4.781 1.301,0.551 1.494,-0.416 2.25,-2.062 0.756,-1.652 -0.146,-1.494 -0.281,-2.25 -0.141,-0.756 0.141,-0.861 1.312,-1.688 1.166,-0.826 1.84,-0.334 2.531,-0.469 0.686,-0.141 2.812,-4.377 2.812,-5.062 10e-4,-0.514 -1.411,-1.147 -2.343,-0.936 z m -10.031,6.562 c -1.242,0 -0.803,1.998 -1.969,2.344 -1.172,0.34 -0.967,-2.367 -2.062,-0.375 -1.102,1.992 -0.58,1.717 -0.094,3.094 0.48,1.371 0.803,0.48 1.219,0 0.41,-0.48 0.621,-0.1 0.281,1.688 -0.346,1.787 -1.74,2.895 -0.844,3.375 0.891,0.48 1.318,0.516 1.594,-0.375 0.27,-0.896 1.201,1.137 -0.375,1.688 -1.582,0.551 -3.674,-1.02 -5.25,-0.469 -1.582,0.551 -1.852,2.174 -0.75,3 1.096,0.826 2.01,1.248 2.906,0.562 0.891,-0.686 0.662,0.768 0.938,1.594 0.27,0.826 0.299,1.629 1.125,0.188 0.82,-1.441 2.707,-1.02 1.406,2.625 -1.307,3.639 -1.564,4.77 -2.25,6.281 -0.691,1.512 -1.559,1.383 -0.938,2.344 2.607,1.441 2.367,-1.072 3.469,-2.719 1.096,-1.652 1.564,-4.324 2.531,-5.906 0.961,-1.582 -0.785,-1.641 -0.094,-3.562 0.686,-1.922 1.078,-0.076 2.25,-2.344 1.166,-2.268 2.08,-3.844 0.844,-3.844 -1.236,0 -1.342,-0.791 -1.406,-2.438 -0.07,-1.652 -0.686,-1.799 -1.781,-0.562 -1.102,1.236 -1.131,-0.457 -0.375,-3 0.756,-2.543 0.861,-3.189 -0.375,-3.189 z m -40.781,42.656 c -0.27,0.076 -0.463,0.369 -0.562,0.75 -0.416,1.646 -0.234,2.654 0.938,1.969 1.166,-0.686 1.916,-0.416 1.781,0.75 -0.141,1.166 1.072,1.447 0.938,0.281 -0.141,-1.166 -1.008,-2.227 -1.969,-3.188 -0.487,-0.48 -0.862,-0.638 -1.126,-0.562 z m 8.906,2.625 c -1.447,0.135 -1.008,0.738 -0.938,1.219 0.064,0.48 0.141,0.199 -0.75,0.75 -0.896,0.551 -1.418,0.51 -1.688,1.406 -0.275,0.891 0.369,1.482 1.125,0.656 0.756,-0.826 0.334,-1.588 0.75,-1.312 0.41,0.275 0.047,0.012 0.188,0.562 2.197,-0.07 1.629,-0.949 2.25,-1.5 0.615,-0.551 -0.732,0.381 -0.938,-0.375 -0.21,-0.755 1.442,-1.546 10e-4,-1.406 z m -11.062,2.438 c -0.105,0.059 -0.199,0.152 -0.281,0.375 -0.346,0.891 -0.205,0.979 0.281,1.875 0.961,1.236 1.518,1.887 2.344,1.406 0.82,-0.48 1.693,-1.377 0.938,-2.062 -0.755,-0.685 -1.611,0.076 -2.156,-0.75 -0.417,-0.621 -0.822,-1.026 -1.126,-0.844 z m -3.844,1.125 c -0.885,0.176 -1.793,0.967 -2.719,3.75 -1.242,3.709 -0.082,4.008 0.469,3.938 0.545,-0.07 1.646,-0.639 1.031,0.188 -0.621,0.826 0.434,1.594 2.156,1.594 1.717,0 2.936,-1.324 3.281,-0.844 0.34,0.48 -0.193,0.926 0.562,2.438 0.755,1.512 1.986,1.131 2.812,0.375 0.82,-0.756 2.73,-1.359 2.25,-2.25 -0.486,-0.896 -2.291,1.529 -2.906,0.844 -0.621,-0.686 1.125,-1.875 1.125,-1.875 0,0 -2.121,0.762 -2.531,0.281 -0.416,-0.48 1.271,-0.721 0.656,-1.406 -0.621,-0.686 -1.189,0.334 -1.875,-0.281 -0.691,-0.621 -2.156,-0.469 -2.156,-0.469 0,0 1.312,-0.785 2.344,-1.125 1.025,-0.346 0.521,-1.951 -2.156,-4.219 -0.486,-0.686 -0.334,-0.803 -1.5,-0.938 -0.292,-0.036 -0.55,-0.06 -0.843,-10e-4 z m -4.406,8.344 c -0.252,0.053 -0.451,0.246 -0.656,0.469 -0.826,0.891 -1.348,1.453 0.094,1.594 1.441,0.135 0.375,0.51 0.375,1.406 0.545,2.197 0.715,3 2.438,3 1.717,0 2.438,0.41 1.688,-1.031 -0.756,-1.441 -0.24,-2.889 -1.406,-4.125 -0.881,-0.927 -1.783,-1.477 -2.533,-1.313 z m -58.407,4.031 c -0.252,-0.035 -2.297,1.834 -2.531,1.875 -1.67,0.264 -1.711,0.926 -3.188,2.156 -0.281,0 -1.406,0.375 -1.688,0.656 -2.818,0.281 -3.85,1.037 -5.25,1.5 -0.85,0.844 0.094,3.375 -0.188,3.375 -3.943,-0.844 -5.648,-3.732 -7.5,1.406 -0.281,1.125 0,2.25 0.562,3.375 0,0.281 1.125,0 0.844,0.281 -0.568,0.562 -2.812,0.281 -2.531,1.125 0.844,2.25 4.799,3.844 4.781,4.5 -0.85,2.25 -5.625,-1.125 -6.75,0.844 -1.131,1.688 1.617,5.777 2.906,6.375 1.33,0.621 3.656,-2.174 4.219,-3.094 0.557,-0.92 -0.891,-1.969 0.094,-2.531 0.562,-0.562 1.307,2.156 2.156,1.875 1.688,-0.844 -1.594,-4.312 0.094,-3.188 1.406,1.406 2.877,1.342 4.312,0.75 4.383,-1.699 3.938,-8.344 4.219,-9.75 0.562,-1.688 4.494,-3.938 5.906,-6.188 -0.566,-1.405 0.94,-5.061 -0.467,-5.342 z m 67.782,0.469 c -1.172,0 -0.932,0.656 -1.688,0.656 -0.756,0 -1.371,0.562 -0.75,1.594 0.48,0.826 -0.779,1.77 0.188,2.25 0.961,0.48 1.172,0.586 1.312,-0.375 0.135,-0.961 0.041,-1.57 0.938,-2.531 0.89,-0.962 1.166,-1.594 0,-1.594 z m -42.844,1.125 c -0.803,0.246 -2.596,3.521 -3.375,4.312 -0.281,0.844 0.996,0.932 0,2.062 -1.002,1.131 -1.887,0.322 -2.156,3.562 -0.059,1.617 1.688,1.688 0.562,3.094 -1.412,1.688 -1.219,0.938 -3.188,0.094 -0.85,0 -2.438,-1.312 -2.438,-0.469 -0.281,1.969 1.594,5.344 0.469,7.312 -0.568,1.406 -2.906,-2.625 -2.906,-1.219 -0.281,3.656 3.562,3.932 2.719,7.594 0,0.281 -2.719,1.219 -7.219,-1.312 -3.381,-1.969 1.219,4.688 -1.031,5.25 -1.693,0.562 -1.125,-4.781 -2.531,-3.938 -2.203,0.955 -2.812,2.695 -0.656,4.688 3.926,3.627 -0.146,0.996 -1.312,1.969 -1.189,0.984 0.768,3.193 1.219,4.125 1.377,1.693 1.395,3.908 -2.062,-0.375 -0.773,-0.961 -1.336,0.908 -1.781,2.438 -0.316,1.078 0.809,2.016 -0.188,4.875 -0.211,0.592 0.961,0.902 2.438,0.75 1.43,-0.152 -0.961,1.734 -1.312,2.156 -0.351,0.422 -1.951,1.605 -3.562,0.938 -0.662,-0.275 -0.328,-2.566 -2.156,-3 -1.148,-0.27 -2.191,-2.25 -1.875,-3.656 0.24,-1.072 2.631,-8.279 -0.094,-10.969 -0.287,-0.281 -2.607,0.334 -3.094,1.125 -0.492,0.791 0.82,1.77 0.281,2.625 -1.078,1.711 -0.838,1.658 -1.781,2.25 -0.387,0.234 -1.857,-1.008 -1.969,-2.156 -0.252,-2.496 -1.822,-1.951 -1.594,-0.469 0.346,2.262 0.621,3.012 -0.188,3.094 -0.41,0.041 -1.441,-0.287 -1.5,-1.125 -0.088,-1.184 -0.826,-0.164 -1.312,0.75 -0.797,1.477 -1.33,2.191 1.5,4.688 0.861,0.762 1.834,-0.914 2.062,-1.125 -0.352,2.602 2.168,1.781 2.25,2.156 0.275,1.266 -1.98,0.604 -1.875,1.969 0.205,2.73 2.812,4.389 3.375,4.406 3.012,0.094 2.543,1.184 2.812,2.062 0.551,1.828 0.891,-2.068 1.969,-1.5 1.518,0.797 2.268,1.195 1.875,1.594 -1.16,1.166 -1.74,1.207 -2.062,1.688 -0.92,1.359 -1.57,2.883 -1.406,3 1.295,0.943 8.391,-4.641 7.969,-3.656 0,0 3.088,2.584 2.719,3.375 -0.375,0.791 -2.736,-2.285 -3.75,-1.781 -2.256,0.562 -3.938,5.625 -3.938,5.625 -1.014,1.834 2.062,2.062 0.938,4.875 -0.568,1.125 -8.906,-1.781 -10.594,0.469 -2.256,3.375 16.5,2.906 13.969,4.031 -1.975,0.844 -4.219,-0.281 -6.469,-0.281 -0.85,0 -3.094,-0.844 -2.812,0 0.234,1.184 0.656,2.121 1.125,2.906 0.961,1.359 1.184,1.746 2.438,3 0.586,0.592 0.615,0.469 0.938,0.844 2.426,0.469 5.285,-3.217 8.719,-5.062 1.688,-0.844 1.4,-1.406 3.375,-2.812 0.844,-0.844 3.094,-2.25 2.531,-1.406 -0.568,1.688 -3.375,1.969 -3.375,3.656 0,1.125 4.5,0 3.656,0.844 -0.281,0 -11.818,1.963 -9.844,5.906 0.844,1.406 3.938,1.406 3.938,2.812 0,1.406 -2.531,-1.688 -3.938,-1.406 -1.412,0.281 -1.377,2.555 -4.688,4.312 -0.973,0.539 -1.922,2.279 -1.781,3.844 0.064,0.779 1.172,1.471 0.75,2.156 -0.832,1.342 1.113,1.98 0.656,2.719 -0.457,0.739 -0.656,-0.844 -1.406,0 -0.58,0.984 -2.807,3.451 -2.719,4.125 0.082,0.633 1.207,-1.225 2.812,-2.25 -1.066,1.301 -2.607,3.539 -3.188,4.5 0.656,0.469 0.557,-1.219 2.25,-0.656 0.293,0.979 -3.088,2.988 -2.25,4.594 0.562,1.406 2.713,-0.844 3.281,0.562 l -4.781,3.844 c -1.693,2.25 -1.031,5.438 -2.719,7.688 -0.85,1.406 -4.787,3.656 -3.094,4.5 2.25,0.844 4.775,0 6.75,-1.125 0.562,-0.281 -1.125,-1.406 -0.844,-1.969 0.844,-2.25 3.088,-3.375 3.938,-5.625 0.281,-0.562 -0.281,-1.688 0,-2.531 0,-0.844 0.557,-1.688 1.125,-2.25 0.844,-0.844 2.438,-0.375 2.719,-1.5 0.562,-3.094 -1.424,-4.664 -0.188,-9 0.75,1.406 7.189,-5.906 11.25,-6.656 -7.723,5.525 -9.885,7.723 -10.5,10.781 -0.07,0.562 0.627,4.289 1.875,3.656 1.904,-0.973 2.438,0.445 1.219,1.688 -0.51,0.516 0.797,1.459 2.25,3.75 0.785,1.248 -0.053,-2.531 1.125,-5.25 2.016,-4.676 4.26,-5.156 5.812,-4.875 0,0 8.549,7.6 1.875,3.656 -2.812,-1.746 -3.41,-1.682 -4.875,0.094 -0.85,2.25 0.105,2.883 -0.188,5.062 -0.281,0.844 -1.969,0.844 -1.688,1.688 0.281,0.562 5.625,7.031 4.5,9 -0.568,1.125 -2.531,1.125 -3.375,1.969 -9.006,8.162 3.375,-1.412 -3.938,6.75 -3.943,4.5 -6.035,4.025 -4.781,10.5 0.07,0.348 -0.633,0.77 -1.219,-0.375 -0.592,-1.148 -1.061,-3.861 -1.312,-3.844 -1.365,0.094 -2.367,0.838 -1.031,5.809 0.662,1.969 2.701,8.93 3.656,8.812 0.949,-0.109 0.744,-7.219 1.406,-7.781 1.318,-1.125 1.447,-1.5 5.531,3.844 1.125,1.688 2.525,6.188 3.656,4.5 2.812,-4.5 -2.537,-9.281 1.406,-8.438 3.094,0.562 3.088,4.781 4.5,6.469 0.281,0.281 0.844,0.57 1.125,0.281 0.562,-0.562 0.275,-2.531 1.125,-2.25 0.844,0.281 -0.844,1.688 -0.562,2.531 0.281,0.562 1.119,0.562 1.688,0.281 1.406,-0.562 2.244,-1.969 3.938,-2.531 1.406,-0.281 3.088,0.852 4.5,0.281 1.688,-0.562 2.525,-2.812 4.219,-3.375 1.406,-0.281 2.525,1.125 3.656,1.406 1.688,0.281 4.688,-1.594 4.125,0.094 -0.281,0.984 -1.131,1.684 -2.156,2.156 -0.943,-0.578 -2.73,-1.047 -3.281,-0.844 -1.477,0.551 0.896,0.805 -0.094,1.875 -0.562,0.281 -1.125,-0.281 -1.688,-0.562 -0.281,0 -8.531,9.188 -8.25,12.562 l 3.375,7.031 c 0.738,1.543 -2.162,4.125 1.219,5.25 1.125,0.281 2.531,-3.094 3.094,-1.969 0.844,2.25 -4.037,6.938 -1.5,6.938 3.938,-0.281 7.875,-5.906 8.156,-1.688 0.281,2.25 -1.312,2.344 -2.156,4.312 -0.85,1.969 1.406,1.125 1.125,2.812 0,3.375 -6.562,-3.121 -5.625,6.938 0.562,1.688 3.656,-0.188 4.219,1.5 0.281,1.406 -2.531,0.562 -3.656,1.406 -1.412,1.125 -3.094,2.531 -3.375,4.219 -0.146,0.785 1.154,4.297 1.219,5.156 0.012,0.219 1.166,2.785 1.875,3.562 0.24,0.27 1.078,0.844 1.781,0.938 0.199,0.031 0.762,-0.586 1.406,-0.75 2.982,-0.75 1.348,0.199 0.656,0.469 -0.744,0.293 -1.594,1.109 -2.062,1.219 -1.816,0.434 -2.941,-1.066 -3,-1.125 -0.252,-0.234 -1.641,-4.816 -1.5,-4.406 -1.559,-0.422 -2.777,-0.238 -2.906,0.281 -0.562,1.969 2.531,5.062 0.844,6.188 -1.693,1.125 -2.062,-2.062 -3.469,-3.469 -1.846,-1.656 -2.438,0.656 -6.375,0.094 -1.975,-0.281 -3.281,-2.344 -5.25,-2.625 -0.85,-0.281 0.469,1.312 -0.094,1.594 -2.689,0.961 -4.805,1.355 -6.188,1.219 l -5.438,2.812 c -0.1,0.125 0.117,1.133 -0.469,2.156 -0.504,0.879 -1.207,1.18 -2.625,1.969 -2.83,1.578 -4.641,1.73 -6,2.906 -1.582,1.371 -2.924,1.789 -2.625,2.156 0.07,0.176 0.24,0.727 0.562,0.844 0.246,0.094 2.068,-0.953 3.094,-0.656 0.656,0.195 1.184,1.766 2.156,1.406 0.393,-0.145 -0.234,-2.66 3.562,-2.906 3.287,-0.211 4.324,1.039 4.219,1.781 -0.521,3.609 1.869,3.277 1.5,5.531 -0.375,2.258 -2.426,2.906 -2.531,4.688 -0.211,3.562 0.844,2.156 0.938,4.406 -1.693,3.938 -6.188,7.969 -10.688,9.094 -4.037,1.969 -5.385,0.691 -6.75,1.031 -2.631,0.656 -4.875,1.781 -6.562,2.344 -2.936,-1.875 -3.645,1.156 -5.812,1.219 -2.227,0.066 -4.031,1.641 -3.656,1.688 4.969,0.656 4.775,1.5 4.594,3.562 -0.123,0.715 -3.867,1.312 -3.375,2.062 1.307,2.016 5.49,1.461 5.719,2.25 -1.693,0.281 -4.406,-0.469 -2.719,0.844 -0.562,1.125 0.744,2.25 2.156,2.531 1.688,0.562 0.088,-1.875 4.125,-0.469 0.75,0.266 1.307,-1.688 2.156,-1.688 6.75,-1.969 4.213,0.281 6.188,0 0.562,0 0.844,-1.688 1.125,-1.125 0.492,0.961 -0.111,3.289 1.406,4.219 1.518,0.934 5.156,0.492 5.062,1.219 -0.188,1.453 -7.828,0.141 -5.062,3 2.812,1.406 7.588,-2.062 9.844,0.188 2.531,2.531 1.189,7.32 4.406,8.531 9.938,3.75 6.932,-0.75 13.594,-2.531 0.844,-0.281 1.494,0.938 2.344,0.938 1.406,-0.281 2.244,-0.656 3.656,-1.219 1.125,-0.844 5.625,-0.562 3.938,1.406 -1.693,1.969 -8.988,4.203 -10.125,5.156 -1.453,1.215 0,4.406 -1.688,5.812 -2.678,2.109 -1.441,-0.73 -6.469,-0.094 -4.688,0.598 -2.537,-2.801 -11.906,-3.844 -7.881,-1.406 -9.562,-0.27 -10.031,1.875 -0.217,0.98 1.113,2.363 0.375,2.719 -1.207,0.582 -2.543,0.926 -4.781,1.875 -1.131,-0.281 -1.594,-2.438 -2.719,-2.156 -1.975,0.844 -2.531,7.219 -3.375,8.344 -1.412,1.688 -3.281,1.969 -4.688,3.375 -0.85,0.562 -0.844,1.781 -1.688,2.344 -0.85,0.281 -4.312,0.656 -5.156,1.219 -1.975,1.406 -0.469,2.156 -2.438,3.844 -0.562,0.281 -1.406,0.094 -1.969,0.656 -0.562,0.281 -0.094,1.406 -0.656,1.688 -0.85,1.125 -5.104,4.371 -8.719,3.562 -0.281,0 -5.906,0.938 -5.906,2.906 0,1.547 0.176,2.434 2.156,2.25 0.984,-0.086 1.992,-1.348 3.281,-1.5 1.289,-0.152 2.859,0.797 3.281,1.5 1.125,1.406 0.744,4.125 2.438,4.406 1.125,0 3.094,-1.312 3.656,-2.719 -2.678,-0.824 -1.641,-1.172 -0.188,-1.406 1.939,-0.309 5.057,-2.625 6.75,-3.188 1.125,-0.562 0.557,-3.188 1.969,-3.469 3.938,-1.125 8.713,2.344 12.094,3.188 2.742,0.633 1.078,-1.199 0.656,-1.781 0.047,0.02 0.082,-0.062 0.188,0 2.25,1.125 8.15,9.375 11.531,7.969 4.219,-1.969 4.494,-8.992 8.906,-12.938 7.734,-3.328 14.432,-2.812 18.094,0.844 1.406,1.125 3.188,2.625 3.75,4.031 0.281,0.844 0.088,2.719 0.656,2.156 0.844,-1.406 -0.475,-3.281 1.219,-4.125 1.406,-0.562 4.775,1.594 6.188,2.438 l 1.5,0.375 c 0.814,0.211 2.906,0.188 3.188,-0.656 0.744,-3.246 -2.912,-2.531 -2.062,-3.938 0.562,-0.844 16.219,2.438 16.5,-0.375 0.281,-1.688 -2.725,-3.188 -1.594,-4.594 0.844,-0.844 2.338,4.5 5.719,5.625 0.844,0.281 -0.756,-4.125 1.219,-1.594 0.562,0.844 -0.01,1.781 0.844,2.062 0.844,0.281 0.744,-2.062 1.594,-1.781 0.844,0 0.34,0.77 -0.281,2.156 0.281,0.562 1.031,0.562 1.594,0.281 0.562,-0.844 0,-3.094 1.688,-1.969 2.812,1.969 -0.75,0.562 -0.469,1.969 0.844,3.094 13.307,0.656 15.281,0.938 2.531,0.562 9.182,4.688 11.719,4.688 1.688,0 1.4,-2.531 2.812,-3.094 3.094,-1.406 4.682,0.375 7.781,-1.594 3.094,-1.969 4.734,0.852 6.375,0.094 1.406,-0.562 0.557,-3.75 1.688,-4.594 2.812,-1.406 8.531,-0.75 9.375,-3.562 0.604,-2.379 -0.516,-2.309 -0.094,-5.25 0.281,-1.125 2.344,-1.875 1.219,-2.156 -4.225,-1.688 -6.803,-0.949 -11.906,-0.188 -2.631,-0.625 -2.883,-0.895 -3.938,-2.062 -2.039,-0.027 -2.871,-0.891 -3.469,-1.781 0.639,-0.332 1.389,-0.668 1.594,-0.844 0.621,-0.543 0.973,0.082 2.062,0.469 1.089,0.387 0.088,-0.859 -0.375,-1.406 -0.469,-0.543 -3.615,-0.844 -4.781,-0.844 -0.393,0 -0.674,0.219 -0.938,0.469 -0.551,-0.109 -1.207,-0.109 -2.156,0.094 -0.844,-0.562 1.969,-1.594 2.812,-1.875 3.094,-1.125 8.432,2.625 10.688,-1.031 0.844,-1.406 2.156,-4.406 1.031,-5.531 -1.125,-1.406 -6.188,2.141 -5.344,-0.562 2.203,-1.195 4.324,-2.477 6.75,-3.281 0.281,0 0.938,1.781 1.219,1.781 0.844,0.562 0.938,0.844 1.781,0.562 7.57,-2.078 4.16,-2.145 1.875,-3.469 l 1.5,-1.406 -3,-0.75 c 0.023,-0.32 0.082,-0.637 0.281,-1.031 0.562,-1.406 2.994,1.781 4.688,1.219 2.051,-0.422 2.473,-1.98 3.938,-3.375 1.459,-1.395 3.105,-2.672 3.562,-4.781 0.879,-4.102 3.516,-7.078 3.938,-9.469 2.502,-19.012 -12.75,-19.781 -22.312,-21.188 -5.912,-0.844 -1.406,1.969 -7.031,5.625 -0.844,0.562 -0.615,-1.312 -3.094,-1.688 -1.184,-0.18 -1.125,-2.531 -2.25,-3.375 -0.562,-0.562 -2.812,0.562 -2.531,-0.281 4.834,-5.008 4.869,-2.531 8.812,-6.469 2.959,-3.633 -0.053,-13.863 -5.344,-17.062 -1.254,-0.973 -3.938,-4.926 -4.781,-5.719 -0.34,-0.316 -1.904,-1.734 -4.125,-1.312 -1.594,0.305 -2.719,-0.156 -3.281,-0.844 -0.129,-0.152 -2.531,0.188 -2.531,0.188 0,0 1.816,-1.539 3.75,-0.75 1.4,0.582 4.881,0.234 6.562,0.281 2.754,5.059 5.32,4.871 5.719,4.969 1.588,0.387 2.578,2.766 1.875,0.094 -1.131,-3.938 -6.475,-11.344 -5.344,-15.844 0.281,-1.688 3.34,-1.184 3.188,-2.25 0.152,-1.656 -3.064,-0.879 -5.25,-5.531 -1.412,-2.25 -0.844,-5.062 -2.531,-7.031 -4.787,-5.91 -3.469,-3.938 -8.531,-7.031 -1.131,-0.562 -1.969,-1.969 -3.094,-2.25 -0.562,-0.281 -1.125,1.406 -1.406,0.844 -1.693,-4.223 -4.312,-22.594 -4.594,-27.652 0,-1.693 0.281,-4.969 0.562,-6.656 0,-0.48 -0.094,-2.432 -0.375,-3 -0.844,-1.125 -2.344,-1.781 -3.469,-2.906 -0.99,-1.125 -2.479,-3.105 -4.125,-9.094 -0.879,-3.193 -3.703,-2.672 -4.688,-3.375 -1.131,-1.125 -4.781,-4.799 -8.156,-6.094 -1.131,0.562 -2.438,1.875 -3.562,2.719 -2.537,1.688 -3.656,-1.031 -5.906,-1.594 -1.975,-0.281 -1.688,0.469 -3.656,-0.375 -12.305,-7.629 -4.236,-2.777 0.375,-1.969 8.279,1.447 4.102,-3.756 11.25,-4.406 1.207,1.57 4.119,-0.287 6.75,-1.875 -1.852,-1.834 -3.469,-1.312 -4.312,-3.281 -0.246,-0.738 1.113,-2.045 1.125,-3.094 l -0.938,-0.469 c -1.975,0.281 -3.844,1.031 -6.094,1.312 -0.844,0.281 -1.969,0.188 -1.125,-0.375 1.793,-1.377 1.84,-1.992 3.188,-2.062 1.312,-0.07 2.309,0.182 3.844,0.375 l 1.5,-0.188 c 0.744,0.041 1.992,-0.568 2.906,-0.656 0.604,-0.064 3.697,-1.875 4.406,-2.812 0.709,-0.943 -0.938,-0.961 -0.562,-1.594 0.738,-1.266 0.293,-0.744 1.406,-2.438 1.107,-1.699 3.445,-1.969 4.875,-3.562 1.43,-1.593 2.01,-4.506 2.812,-5.625 1.5,-2.121 3.076,-3.018 2.812,-6.188 0.281,-1.412 1.406,-3 2.25,-4.125 l 5.156,-5.25 c 0.562,-1.693 0.434,-3.469 -0.469,-5.156 -2.092,-4.119 -7.119,-3.322 -10.969,-3.938 -3.855,-0.621 -5.672,-1.359 -8.062,-2.062 -0.99,-0.281 -2.262,1.482 -5.156,-0.281 -2.402,-1.465 -2.203,-2.297 -3.188,-2.438 -3.943,-0.844 -8.625,2.531 -11.719,2.812 -1.693,0 -2.438,-0.844 -3.844,-0.562 0.334,0.146 1.43,0.516 1.219,0.938 -0.352,0.422 -4.213,2.719 -5.438,1.969 -0.615,-0.381 6.164,-4.125 6.375,-5.344 0.053,-0.305 -2.104,-0.105 -2.812,-0.281 -0.715,-0.182 0.064,-0.762 -0.75,-0.656 -1.629,0.211 -2.842,1.102 -3.094,1.219 -1.646,0.738 -0.404,-0.949 0.656,-1.969 0.844,-1.975 1.588,0.656 3.562,-0.188 0.844,-0.281 1.775,-1.031 2.906,-0.75 0.562,0 -0.562,1.406 0,1.406 1.406,-0.281 3.094,-2.812 3.938,-3.656 1.125,-0.844 3.879,-1.828 2.625,-1.781 -4.195,0.158 -8.578,2.004 -8.438,-0.469 1.189,-1.418 1.611,0.357 2.906,-0.562 0.938,-0.797 -1.049,-2.221 2.906,-4.219 3.193,-1.617 2.514,-2.297 6.75,-3.844 1.477,-0.545 3.141,-4.037 7.031,-5.438 1.289,-0.469 5.156,-1.406 6.188,-3.188 2.244,-3.891 -0.949,-3.287 -0.562,-4.406 0.609,-1.787 4.939,-5.883 3.188,-5.812 -1.143,0.041 -4.307,-1.195 -5.438,-0.844 -1.137,0.352 -0.281,2.297 -1.406,2.156 -0.674,-0.252 -2.906,-1.359 -4.875,-1.969 -2.25,-0.697 -4.008,0.885 -5.25,0.656 -2.49,-0.469 -1.213,-1.043 -2.906,-1.219 -3.398,-0.352 -3.205,0.094 -6.188,0.656 -1.131,0.281 -3.188,2.156 -3.188,2.156 0.832,-1.869 0.99,-3.264 0.375,-3.844 -1.945,-1.822 -2.244,0.029 -3.375,-0.469 -0.885,-0.393 -2.168,-2.115 -3.656,-2.438 -1.348,-0.294 -2.209,-1.419 -2.531,-1.313 z m -55.781,25.593 c -0.539,0.182 -1.107,0.633 -1.688,1.312 -1.166,1.359 0.469,1.342 1.781,3.188 1.307,1.846 -0.023,2.016 -0.75,3.281 -0.732,1.26 -1.377,2.994 -2.344,7.219 -0.973,4.225 -0.867,4.646 1.031,5.812 1.893,1.166 2.314,0.551 1.688,-0.469 -0.633,-1.02 0.17,-1.371 0.562,-3.656 0.387,-2.285 1.154,-1.055 1.5,-3 0.34,-1.945 -1.623,-3.721 -0.844,-3.281 0.773,0.434 1.576,1.248 1.969,0.469 0.387,-0.779 0.07,-1.441 0.656,-1.875 0.58,-0.439 0.65,-0.48 2.156,-2.906 1.506,-2.432 -0.439,-1.564 -0.094,-2.344 0.34,-0.779 0.873,0.486 1.219,0 0.34,-0.486 1.377,-1.008 0.844,-1.688 -0.539,-0.68 -1.16,0.34 -1.594,0 -0.439,-0.34 0.117,-1.359 -0.656,-1.406 -0.633,-0.293 -1.008,0.088 -1.781,0.188 -0.779,0.094 -1.664,0.404 -2.344,-0.469 -0.345,-0.439 -0.778,-0.556 -1.311,-0.375 z m 28.312,10.782 c -0.287,0.193 -1.324,1.33 -1.688,2.062 -0.486,0.973 -1.588,1.26 -1.875,2.719 -0.293,1.459 -0.486,2.139 0,2.625 0.773,0.486 1.219,-0.24 1.219,-1.5 0,-1.266 0.533,-1.746 1.312,-2.719 0.773,-0.973 0.545,-2.32 1.031,-3 0.06,-0.088 10e-4,-0.152 10e-4,-0.187 z m -16.969,28.687 c -0.387,-0.141 -1.324,0.182 -2.25,0.562 -1.857,0.756 -4.201,2.947 -3.375,2.812 0.82,-0.141 1.518,0.316 4.406,-1.125 1.372,-1.475 1.6,-2.114 1.219,-2.249 z m 4.688,2.344 c -1.312,-0.023 -3.697,1.207 -4.5,3 1.816,0.527 3.867,2.08 4.406,2.531 0.562,0.469 -0.234,0.609 -1.406,-0.094 -0.979,-0.586 -1.658,-0.668 -2.344,-0.562 0.293,0.475 1.605,0.896 1.969,1.594 2.895,0.117 4.172,-0.527 4.219,-0.188 -1.002,1.617 -1.518,1.061 -3,1.125 -0.428,0.375 -0.305,0.562 -0.656,0.75 0.018,0.387 -1.072,0.738 -1.312,0.938 -0.088,0.1 -0.369,0.855 -0.188,1.031 0.223,0.152 1.471,-0.035 1.875,0.094 1.312,0.422 1.693,-0.896 2.438,-0.094 -0.234,0.703 -2.203,1.031 -4.781,0.656 -0.047,0.223 -0.357,-0.217 -0.469,-0.281 -1.178,0.158 -0.709,-0.908 -2.812,0.188 -0.492,1.764 0.844,2.062 1.125,2.344 2.068,0.111 4.992,-0.082 6.469,0.094 2.924,-1.16 4.998,-2.232 4.125,-1.312 -0.34,0.352 -0.855,1.002 -1.312,1.594 2.684,0.047 4.453,-0.779 6.469,-4.406 0.188,-0.498 -0.609,-1.078 -0.844,-1.312 -3.609,-3.129 -3.006,-3.568 -5.531,-6.375 -0.864,-0.958 -3.044,-1.298 -3.94,-1.315 z m 5.531,20.437 c -1.857,0.34 -6.152,3.064 -6.562,3.75 -0.416,0.686 -0.363,1.172 0.188,1.312 0.545,0.135 0.738,0.539 -0.562,0.469 -1.307,-0.07 -1.84,0.902 -2.25,1.312 -0.416,0.41 -1.002,0.422 -0.656,-0.469 0.34,-0.896 0.141,-1.711 -1.781,-0.75 -1.67,0.832 -2.742,1.424 -3.094,1.969 0.117,-0.363 0.287,-0.844 0.562,-1.219 0.545,-0.756 -0.398,-0.457 -1.219,0.094 -0.826,0.551 -1.682,-0.035 -2.438,1.406 -0.756,1.441 0.551,1.57 -0.75,2.531 -1.307,0.961 -1.84,2.297 -1.219,2.438 0.615,0.135 2.168,-0.252 2.719,-0.938 0.545,-0.686 0.75,-1.711 1.781,-1.781 1.025,-0.07 1.863,0.41 0.562,1.031 -1.307,0.615 -2.162,0.85 -1.406,1.125 0.756,0.275 1.834,0.955 1.219,1.781 -0.621,0.826 -1.629,0.75 -1.969,1.781 -0.346,1.031 0.58,1.729 1.406,1.594 0.82,-0.141 0.604,-1.588 1.5,-1.312 0.891,0.275 2.408,0.428 3.375,-0.188 0.961,-0.621 1.125,-1.734 1.125,-2.625 0,-0.896 0.035,-0.709 -0.375,-1.875 -0.416,-1.166 -0.979,-2.104 0.469,-0.938 1.441,1.166 1.74,1.225 2.156,0.469 0.41,-0.756 0.387,-1.137 0.938,-1.688 2.678,-2.953 5.033,-6.047 6,-6.938 0.961,-0.893 2.133,-2.686 0.281,-2.341 z m 5.719,17.063 c -0.797,0.146 -1.652,0.949 -2.25,1.594 -0.967,1.031 -1.16,2.455 -0.469,3.281 0.686,0.826 -0.609,0.914 -0.469,1.875 0.135,0.961 0.035,0.428 0.656,1.594 1.441,2.197 1.342,1.975 2.719,2.25 1.371,0.275 2.18,0.48 2.25,-2.062 0.064,-2.543 -0.697,-2.01 -0.281,-3.656 0.41,-1.652 0.346,-2.637 -0.75,-4.219 -0.416,-0.593 -0.932,-0.745 -1.406,-0.657 z m 1.031,87.652 c -0.463,-0.047 -0.885,0 -1.125,0.094 -2.297,0.938 -2.168,1.711 -2.156,3.094 0.023,3.594 1.424,4.945 3.188,7.125 0,0 8.361,-3.855 8.156,-4.406 -0.533,-1.387 -0.68,-1.363 -3.188,-0.375 -0.305,0.117 -1.043,-1.516 -1.031,-4.031 -0.451,-0.661 -2.461,-1.352 -3.844,-1.501 z m -5.25,2.532 c -0.088,0.035 -0.229,0.152 -0.281,0.281 -0.234,0.516 0.135,0.844 0.375,1.125 0.703,0.516 0.188,1.359 0.938,1.594 0.75,0.235 0.938,0.422 0.844,-0.188 -0.094,-0.61 -0.422,-1.734 -0.938,-2.25 -0.387,-0.387 -0.686,-0.66 -0.938,-0.562 z m 272.531,1.875 c -0.24,0.16 -0.234,0.582 0.281,1.219 1.02,1.285 1.576,0.184 0.938,-0.844 -0.451,-0.379 -0.984,-0.532 -1.219,-0.375 z m -163.218,85.875 c -0.744,0.312 -1.066,1.055 -0.75,1.406 0.932,1.207 1.588,0.961 2.25,1.312 0.662,0.351 2.555,0.715 1.781,-0.375 -0.779,-1.09 -2.543,-2.652 -3.281,-2.343 z m -51.188,18.093 c -0.334,-0.035 -0.674,0.246 -1.312,0.75 -1.289,1.016 -1.518,0.258 -3.656,0.844 -0.51,0.16 -1.16,0.469 -1.781,0.938 -0.627,0.469 1.266,0.457 2.438,0.844 1.166,0.395 2.174,2.098 3.188,3.188 1.008,1.09 2.344,0.477 2.812,-0.188 0.463,-0.66 0.891,-2.184 2.531,-2.344 1.635,-0.152 0.205,-1.441 -0.844,-2.062 -1.055,-0.621 -1.775,-0.398 -2.438,-1.219 -0.334,-0.411 -0.61,-0.716 -0.938,-0.751 z" />
            </g>
            <path
               id="im"
               fill="#ffb5b7"
               stroke="#000000"
               stroke-width="0.5"
               d="m 1813.263,1605.794 c -1.406,0.281 -2.812,0.281 -4.225,1.125 -1.125,0.844 -1.406,2.812 -2.531,3.938 -12.1,10.972 7.318,8.16 6.756,-5.063 z" />
            <path
               id="gg"
               fill="#ffb5b7"
               stroke="#000000"
               stroke-width="0.5"
               d="m 1820.317,1804.896 c 0,1.266 -1.025,2.289 -2.291,2.289 -1.266,0 -2.291,-1.023 -2.291,-2.289 0,-1.266 1.025,-2.293 2.291,-2.293 1.266,0 2.291,1.027 2.291,2.293 z" />
            <path
               id="je"
               fill="#ffb5b7"
               stroke="#000000"
               stroke-width="0.5"
               d="m 1826.985,1811.919 c 0,1.266 -1.025,2.297 -2.291,2.297 -1.266,0 -2.291,-1.031 -2.291,-2.297 0,-1.266 1.025,-2.289 2.291,-2.289 1.266,0 2.291,1.023 2.291,2.289 z" />
          </g>
        </g>
        <g
           id="g428">
          <path
             id="mt"
             fill="#ffb5b7"
             stroke="#000000"
             stroke-width="0.5"
             d="m 708.215,1339.508 c -0.076,0.047 -0.059,0.355 -0.562,0.375 -0.668,0.023 -0.645,0.363 -0.75,0.469 -0.105,0.106 -0.07,0.27 0.188,0.188 0.258,-0.082 0.375,0.094 0.375,0.375 0,0.281 -0.141,0.598 -0.281,0.656 -0.14,0.058 0.018,0.129 0.188,0.188 0.176,0.059 0.34,0.562 0.188,0.562 -0.152,0 -0.492,0.141 -0.375,0.281 0.117,0.14 0.352,0.434 0.094,0.375 -0.258,-0.059 -0.053,0.504 0.094,0.844 0.152,0.34 0.891,1.066 1.406,1.406 0.515,0.34 1.91,1.031 3.188,1.312 1.278,0.281 1.816,0.223 1.688,0 -0.128,-0.223 -0.586,-0.27 -0.281,-0.562 0.375,-0.246 0.598,-0.598 0.656,-0.094 0.058,0.504 0.1,0.633 0.188,0.188 0.094,-0.445 0.416,-0.516 0.287,-0.75 -0.135,-0.234 -0.305,-0.105 -0.094,-0.281 0.211,-0.176 0.416,-0.352 0.094,-0.375 -0.334,-0.023 -0.152,-0.188 0.094,-0.188 0.24,0 -0.645,-0.809 -0.844,-0.938 -0.199,-0.129 -0.656,-0.281 -0.656,-0.281 0,0 0.146,0.305 -0.1,0.469 -0.24,0.164 -0.609,0.293 -0.656,0.188 -0.041,-0.105 0.562,-0.516 0.562,-0.656 0,-0.14 -0.416,-0.059 -0.562,0.094 -0.141,0.152 -0.129,-0.504 0.193,-0.375 0.311,0.129 0.252,-0.012 -0.1,-0.375 -0.352,-0.363 -0.105,-0.129 -0.463,-0.562 -0.363,-0.434 -0.428,0.059 -1.031,-0.469 -0.609,-0.527 -0.352,-0.422 -0.469,-0.469 -0.117,-0.047 -0.258,0.258 -0.375,0.281 -0.117,0.023 -0.059,-0.176 0,-0.281 0.053,-0.105 0.264,-0.434 -0.281,-0.094 -0.551,0.34 -0.961,0.539 -1.031,0.469 -0.141,-0.141 0.48,-0.48 0.469,-0.656 -0.018,-0.176 -0.059,-0.316 -0.656,-0.281 -0.597,0.035 -0.609,0.164 -0.75,-0.094 -0.146,-0.258 0.352,-0.352 0.562,-0.469 0.21,-0.117 0.158,-0.211 -0.094,-0.469 -0.064,-0.066 -0.07,-0.02 -0.094,0 h -0.009 z m -0.891,-0.328 c 0.422,-0.07 0.715,-0.129 0.387,-0.352 -0.328,-0.223 -0.375,-0.223 -0.598,-0.199 -0.223,0.024 -0.094,0.234 -0.035,0.305 0.059,0.071 0.07,0.188 -0.035,0.234 -0.105,0.046 0.281,0.012 0.281,0.012 z m 0.036,-1.102 c -0.188,0.398 -0.891,0.012 -2.086,0.703 -0.492,0.285 -0.246,-0.164 -1.031,-0.246 -0.902,0.07 -0.305,-0.539 -0.891,-0.527 -0.562,0.035 -0.516,-0.082 -0.398,-0.879 0,-0.387 -0.844,-0.516 0.387,-0.762 1.231,-0.246 1.816,-0.047 2.062,0.293 0.48,0.762 0.434,0.047 0.539,0.199 0.545,0.762 0.457,-0.117 0.691,0.363 0.193,0.387 0.797,0.61 0.727,0.856 z" />
        </g>
      </g>
    </g>
  </g>
</svg>
