<?xml version="1.0" encoding="UTF-8" standalone="no"?>
<!-- Created with Inkscape (http://www.inkscape.org/) -->

<svg
   width="210mm"
   height="297mm"
   viewBox="0 0 210 297"
   version="1.1"
   id="svg4657"
   inkscape:version="1.1.1 (3bf5ae0d25, 2021-09-20)"
   sodipodi:docname="wurttemberg.svg"
   xmlns:inkscape="http://www.inkscape.org/namespaces/inkscape"
   xmlns:sodipodi="http://sodipodi.sourceforge.net/DTD/sodipodi-0.dtd"
   xmlns="http://www.w3.org/2000/svg"
   xmlns:svg="http://www.w3.org/2000/svg">
  <sodipodi:namedview
     id="namedview4659"
     pagecolor="#ffffff"
     bordercolor="#666666"
     borderopacity="1.0"
     inkscape:pageshadow="2"
     inkscape:pageopacity="0.0"
     inkscape:pagecheckerboard="0"
     inkscape:document-units="mm"
     showgrid="false"
     inkscape:zoom="0.7500982"
     inkscape:cx="397.28131"
     inkscape:cy="561.92642"
     inkscape:window-width="1920"
     inkscape:window-height="1027"
     inkscape:window-x="1912"
     inkscape:window-y="-8"
     inkscape:window-maximized="1"
     inkscape:current-layer="layer1" />
  <defs
     id="defs4654" />
  <g
     inkscape:label="Ebene 1"
     inkscape:groupmode="layer"
     id="layer1">
    <path
       id="path5807"
       fill="#edf98e"
       stroke="#000000"
       stroke-width="0.132292"
       d="m 35.812805,57.992993 c -0.190764,0.179917 -0.587639,0.594254 -0.843491,0.79375 -0.316178,0.247121 -0.220134,0.370946 -0.148696,0.545571 0.06985,0.175683 -0.265113,0.278077 -0.545571,0.347133 -0.280723,0.07038 -0.469636,0.247121 -0.645054,0 -0.08837,-0.121973 -0.162719,-0.165364 -0.223309,-0.148696 -0.06191,0.01852 -0.09763,0.105304 -0.148695,0.297657 -0.05265,0.194204 -0.17198,0.290512 -0.272786,0.297656 -0.100806,0.0093 -0.2032,-0.07541 -0.272785,-0.198438 -0.07144,-0.121973 -0.09604,-0.170656 -0.148696,-0.148696 -0.05265,0.02196 -0.13335,0.123032 -0.272786,0.297657 -0.141022,0.175683 -0.192352,0.228335 -0.173566,0.297656 0.01693,0.07038 0.106891,0.161131 0.248179,0.372004 0.139435,0.210873 0.116152,0.280988 0.02487,0.297656 -0.09313,0.01852 -0.249502,-0.01349 -0.372004,-0.04974 -0.12409,-0.03413 -0.150284,-0.17145 -0.198438,-0.272786 -0.04974,-0.100277 -0.113242,-0.17145 -0.322527,-0.04974 -0.421746,0.24712 -0.877358,0.433123 -1.017058,0.396875 -0.141023,-0.03413 0.07144,0.492918 -0.173567,0.843491 -0.246592,0.350309 -0.5969,0.613834 -1.017058,0.719402 -0.210873,0.05265 -0.435504,0.138377 -0.570442,0.272786 -0.136525,0.136525 -0.182827,0.325437 -0.02487,0.570441 0.156634,0.247121 0.311679,0.337873 0.421746,0.421746 0.108479,0.08361 0.169069,0.169598 0.09922,0.396875 -0.141023,0.455877 -0.310092,0.687388 -0.09922,0.967317 0.209286,0.280987 -0.355071,-0.14261 -0.66966,-0.248179 -0.316177,-0.105304 -0.387615,-0.272786 -0.421746,-0.694531 -0.01852,-0.210873 -0.05424,-0.190236 -0.12409,-0.09922 -0.07144,0.09313 -0.190764,0.269875 -0.347133,0.322527 -0.316177,0.105304 -0.331788,0.437092 -0.471223,0.471223 -0.07144,0.01852 -0.272785,0.03916 -0.421746,0.09922 -0.150283,0.06191 -0.254264,0.169597 -0.148696,0.396875 0.209286,0.455877 0.200025,1.06971 0.02487,1.314714 -0.176741,0.247121 -0.274373,0.451644 -0.694531,0.520965 -0.210873,0.03625 -0.455877,0.04022 -0.595313,0.124089 -0.141022,0.08361 -0.171979,0.237596 0.07435,0.570442 0.490009,0.66675 0.620184,0.727604 0.620184,1.041929 0,0.316177 0.01693,0.619125 0.297656,0.79375 0.139435,0.0889 0.131762,0.173567 0.04974,0.248179 -0.08361,0.07435 -0.254265,0.139436 -0.446617,0.173567 -0.193675,0.03625 -0.282046,0.08678 -0.272785,0.173567 0.0077,0.0889 0.128587,0.197379 0.322527,0.372004 0.192352,0.175683 0.259027,0.343164 0.347133,0.421746 0.08678,0.07964 0.178329,0.0672 0.372004,-0.07435 0.192352,-0.139436 0.269875,-0.115888 0.322527,-0.02487 0.05265,0.09313 0.0852,0.250031 0.173567,0.372004 0.175154,0.247121 0.059,0.443442 0.02487,0.79375 -0.01852,0.175683 0.117739,0.279135 0.297656,0.396875 0.179917,0.119856 0.423333,0.238654 0.66966,0.396875 0.245005,0.158221 0.455877,0.297656 0.645055,0.372004 0.187589,0.07435 0.337872,0.0807 0.496093,-0.02487 0.156634,-0.105304 0.303742,-0.08467 0.396875,-0.02487 0.09155,0.06191 0.148696,0.178859 0.148696,0.24818 0.0418,-0.04657 0.173567,-0.369888 0.173567,-0.570442 0,-0.245004 0.224896,-0.531283 0.04974,-0.91784 -0.08837,-0.192352 -0.21537,-0.295539 -0.297656,-0.396875 -0.08361,-0.100277 -0.116152,-0.180975 0.02487,-0.322527 0.139435,-0.139435 0.328612,-0.190235 0.496094,-0.173566 0.165893,0.01852 0.316177,0.09313 0.421746,0.198437 0.09446,0.09604 0.204522,0.141552 0.297656,0.198438 0.04339,-0.210873 0.09155,-0.493977 0.02487,-0.545571 -0.09922,-0.07435 0,-0.223309 -0.198438,-0.496094 -0.198437,-0.272785 -0.496094,-0.719402 -0.694531,-0.545571 -0.198438,0.173831 -0.198438,0.198438 -0.446617,0.09922 -0.248179,-0.09922 -0.446616,-0.248179 -0.446616,-0.248179 0,0 -0.645055,0.173566 -0.79375,0.02487 -0.148696,-0.148696 0.07435,-0.396875 -0.223309,-0.446617 -0.297656,-0.04974 -0.570441,-0.148696 -0.694531,-0.223308 -0.12409,-0.07461 0,-0.347134 -0.07435,-0.471223 -0.07435,-0.12409 0.04974,-0.322527 0.198438,-0.272786 0.148695,0.04974 0.620183,0.595313 1.041929,0.595313 0.421746,0 1.017058,0.173566 1.240366,0.223308 0.223309,0.04974 0.744009,0.223308 0.992188,0.223308 0.248179,0 0.446617,-0.04974 0.595312,0.148696 0.148696,0.198438 0.446617,-0.198437 0.446617,-0.198437 0,0 0.297656,0.223308 0.272785,0.396875 -0.02487,0.173566 -0.124089,0.496094 0,0.620183 0.12409,0.12409 0.02487,0.347133 -0.09922,0.471223 -0.12409,0.12409 -0.248179,0.297656 -0.248179,0.297656 l 0.223308,0.396875 c 0,0 -0.173567,0.545571 -0.173567,0.719402 0,0.173832 0.09922,0.520965 0.297656,0.595313 0.198438,0.07435 0.76888,0.347133 0.76888,0.347133 l -0.570442,0.645054 c -0.0061,0.114829 -0.0061,0.248179 0.148696,0.248179 0.280723,0 0.384439,0.09816 0.595312,0.272786 0.209286,0.175683 0.108479,0.532342 0.07435,0.917839 -0.01561,0.155046 -0.396875,0.523875 -0.768879,0.967317 0.03413,0.01561 0.06509,0.03307 0.09922,0.04974 0.122502,0.059 0.232569,0.14261 0.347133,0.223308 0.04815,0.03413 0.100806,0.06191 0.148696,0.09922 0.0418,0.03307 0.08228,0.06509 0.12409,0.09922 0.03096,0.02699 0.06667,0.04974 0.09922,0.07435 0.01693,0.01455 0.03096,0.03625 0.04974,0.04974 0.0077,0.0093 0.01561,0.01746 0.02487,0.02487 0.167481,0.14261 0.342635,0.274902 0.520964,0.396875 l 0.07435,-0.07435 c 0,0 0.694532,-0.347133 1.017059,-0.645054 0.322527,-0.297921 0.570441,-0.322527 0.868098,-0.471223 0.297656,-0.148696 0.272785,0.347133 0.471222,0.173567 0.198438,-0.173567 0.24818,-0.471223 0.570442,-0.272786 0.322263,0.198438 0.12409,0.645054 0.421746,0.347134 0.297656,-0.297921 0.471223,-0.818621 0.297656,-0.967317 -0.173567,-0.148696 -0.223308,-0.223308 -0.09922,-0.471223 0.12409,-0.247915 0.07435,-0.396875 0.09922,-0.694531 0.02487,-0.297656 -0.173567,-0.496094 -0.04974,-0.992188 0.123825,-0.496093 0.347134,-0.719402 0.12409,-1.190625 -0.223044,-0.471223 -0.595312,-0.79375 -0.694531,-1.562629 -0.09922,-0.768879 -0.09922,-1.661848 -0.09922,-1.661848 l 0.496094,-0.372004 0.148696,0.198438 0.768879,-0.76888 0.347133,0.04974 v -0.620183 c 0,0 -0.396875,-0.297656 -0.396875,-0.843492 0,-0.545835 0.297656,-0.07435 0.496094,0.148696 0.198437,0.223044 0.322527,0.09922 0.471223,-0.12409 0.03572,-0.05583 0.05265,-0.07435 0.07435,-0.07435 l -0.02487,-0.173566 0.148696,0.173566 0.02487,0.173567 c 0.02328,0.01852 0.06059,0.02487 0.09922,0.02487 0.02937,0 0.04815,-0.01561 0.07435,-0.02487 -0.06059,-0.121973 -0.161131,-0.359569 -0.04974,-0.396875 0.04657,-0.01561 0.134937,0.02487 0.223308,0.09922 -0.0032,-0.06615 -0.01852,-0.136525 -0.04974,-0.223308 -0.124089,-0.347134 -0.322527,-0.570442 -0.322527,-0.570442 0,0 0.198438,-0.818621 0.04974,-1.364192 C 39.285726,63.77308 39.012676,63.47516 38.615801,63.276722 38.218926,63.078285 38.119707,63.103155 38.119707,63.103155 L 37.92127,62.731151 c 0,0 0.372004,-0.148696 0.223308,-0.347133 -0.148696,-0.198438 -0.620183,-0.446617 -0.66966,-0.768879 -0.04948,-0.322263 -0.198438,-0.595313 -0.04974,-0.719402 0.148696,-0.12409 0.322527,-0.272786 0.173567,-0.347134 -0.148961,-0.07435 -0.322527,-0.248179 -0.12409,-0.570441 0.198438,-0.322263 0.297656,-0.496094 0.148696,-0.744009 -0.148961,-0.247914 -0.297656,-0.446616 -0.372004,-0.66966 -0.07435,-0.223044 -0.372004,0.09922 -0.421746,0.198438 -0.04974,0.09922 0.07435,0.322527 -0.372004,0.248179 -0.446352,-0.07435 -0.471223,-0.148696 -0.520965,-0.570442 -0.02937,-0.247121 -0.07726,-0.306123 -0.123825,-0.447675 z" />
  </g>
</svg>
